<?xml version="1.0" encoding="UTF-8"?>
<svg enable-background="new 0 0 10.4 10.4" version="1.1" width="18px" height="18px" viewBox="0 0 10.4 10.4" xml:space="preserve" xmlns="http://www.w3.org/2000/svg">
<style type="text/css">
	.st0{fill:#3C7BEA;}
</style>
<path class="st0" d="m10.4 5.2c0 2.9-2.3 5.2-5.2 5.2s-5.2-2.3-5.2-5.2 2.3-5.2 5.2-5.2 5.2 2.3 5.2 5.2zm-3.1 1.2c0-0.9-0.5-1.4-1.6-1.8-0.8-0.3-1.1-0.5-1.1-0.8s0.2-0.5 0.8-0.5c0.7 0 1.1 0.2 1.4 0.3l0.3-1.1c-0.4-0.2-0.8-0.3-1.4-0.3v-0.2-0.1c0-0.3-0.2-0.5-0.5-0.5s-0.5 0.3-0.5 0.5v0.2 0.1 0.1c-1 0.2-1.6 0.8-1.6 1.7s0.7 1.4 1.7 1.7c0.7 0.2 1 0.5 1 0.8 0 0.4-0.4 0.6-0.9 0.6-0.6 0-1.2-0.2-1.6-0.4l-0.2 1.1c0.4 0.2 1 0.4 1.6 0.4v0.1 0.1c0 0.3 0.2 0.5 0.5 0.5s0.5-0.2 0.5-0.5v-0.2c1.1-0.2 1.6-1 1.6-1.8z"/>
</svg>
