<?xml version="1.0" encoding="utf-8"?>
<svg fill="#2c3552" version="1.1" xmlns="http://www.w3.org/2000/svg" xmlns:xlink="http://www.w3.org/1999/xlink" x="0px" y="0px" viewBox="0 0 1000 1000" enable-background="new 0 0 1000 1000" xml:space="preserve">
<g><path d="M806.3,10H193.8C126.1,10,71.3,64.8,71.3,132.5V745c0,67.7,54.8,122.5,122.5,122.5h91.9v-61.3h-91.9c-33.8,0-61.3-27.4-61.3-61.3V132.5c0-33.8,27.4-61.3,61.3-61.3h612.5c33.8,0,61.3,27.4,61.3,61.3V745c0,33.8-27.4,61.3-61.3,61.3h-91.9v61.3h91.9c67.7,0,122.5-54.8,122.5-122.5V132.5C928.8,64.8,873.9,10,806.3,10L806.3,10z M734.5,415.6L523.2,204.3c-6.4-6.4-14.9-9.1-23.2-8.7c-8.3-0.4-16.8,2.3-23.2,8.7L265.5,415.6c-12,11.9-12,31.4,0,43.3c11.9,12,31.4,12,43.3,0l160.5-160.6v661.1c0,16.9,13.7,30.6,30.6,30.6c16.9,0,30.6-13.7,30.6-30.6V298.3l160.6,160.6c11.9,12,31.4,12,43.3,0C746.5,446.9,746.5,427.5,734.5,415.6L734.5,415.6z"/></g>
</svg>
