<svg width="48" height="48" viewBox="0 0 48 48" fill="none" xmlns="http://www.w3.org/2000/svg">
<rect width="48" height="48" rx="24" fill="#5EA7DA"/>
<path d="M21.4454 29.7328L20.5679 21.5606L16.7226 29.7328H16.0556L12.0117 21.5606L11.2898 29.7328H10.0254L11.123 18.9434H13.1502L16.902 26.5412L20.4871 18.9434H22.4623L23.6542 29.7328H21.4454Z" fill="#15254B"/>
<path d="M36.7816 29.7328L35.9052 21.5598L32.0582 29.7328H31.3894L27.3437 21.5598L26.6222 29.7328H25.3574L26.4528 18.9434H28.4807L32.2335 26.5418L35.8191 18.9434H37.7945L38.9862 29.7328H36.7816Z" fill="white"/>
<rect x="36.5859" y="6" width="2.17034" height="11.1772" rx="1.08517" fill="#15254B"/>
<rect x="32.6797" y="8.2793" width="2.17034" height="8.89838" rx="1.08517" fill="#15254B"/>
<rect x="28.8828" y="11.5352" width="2.17034" height="5.64288" rx="1.08517" fill="#15254B"/>
<rect x="25.084" y="14.248" width="2.17034" height="2.92995" rx="1.08517" fill="#15254B"/>
<rect x="13.9062" y="31.9355" width="2.17034" height="6.29398" rx="1.08517" fill="white"/>
<rect x="17.7051" y="31.9355" width="2.17034" height="9.33245" rx="1.08517" fill="white"/>
<rect x="21.502" y="31.9355" width="2.17034" height="5.10029" rx="1.08517" fill="white"/>
<rect x="10" y="31.9355" width="2.17034" height="2.92995" rx="1.08517" fill="white"/>
</svg>
