<svg width="48" height="48" viewBox="0 0 48 48" fill="none" xmlns="http://www.w3.org/2000/svg">
    <circle cx="24" cy="24" r="24" fill="#005EFF"/>
    <path d="M21.2085 10.2278H19V17.9983H21.2085V10.2278Z" fill="white"/>
    <path d="M24.1677 8H21.9592V15.7602H24.1677V8Z" fill="white"/>
    <path d="M27.1255 11.3115H24.917V16.3977H27.1255V11.3115Z" fill="white"/>
    <path d="M30.0831 13.734H27.8746V18H30.0831V13.734Z" fill="white"/>
    <path d="M33.0425 10.2278H30.834V16.2426H33.0425V10.2278Z" fill="white"/>
    <path d="M36 8H33.7914V17.9983H36V8Z" fill="white"/>
    <path d="M13.4444 37H9V17H13.4444V37Z" fill="white"/>
    <path d="M25.828 25.4852C25.2538 25.4116 24.7549 25.3702 24.3173 25.3702C22.7315 25.3702 21.6916 25.8948 21.1975 26.9441V37H17V21.6332H20.9622L21.0798 23.4649C21.9221 22.0566 23.0891 21.3478 24.5808 21.3478C25.0467 21.3478 25.4798 21.4076 25.8889 21.5319L25.828 25.4852Z" fill="white"/>
    <path d="M26.7778 29.0405C26.7778 27.5436 27.0658 26.2094 27.6368 25.0336C28.2123 23.8623 29.0351 22.9533 30.114 22.3111C31.1932 21.6689 32.4431 21.3478 33.8686 21.3478C35.8921 21.3478 37.5469 21.9719 38.8284 23.2156C40.1094 24.4638 40.8244 26.1552 40.9729 28.2943L41 29.3254C41 31.6409 40.3568 33.4996 39.0708 34.9016C37.7848 36.3036 36.0627 37 33.8957 37C31.7326 37 30.0016 36.3036 28.711 34.9061C27.421 33.5087 26.7778 31.6138 26.7778 29.2124V29.0405ZM30.7888 29.33C30.7888 30.7636 31.0582 31.8625 31.5936 32.6223C32.1285 33.382 32.8972 33.762 33.8957 33.762C34.867 33.762 35.6267 33.3866 36.1706 32.6359C36.715 31.8851 36.989 30.6867 36.989 29.036C36.989 27.6295 36.715 26.5396 36.1706 25.7663C35.6222 24.9929 34.858 24.604 33.8686 24.604C32.8886 24.604 32.1285 24.9884 31.5936 25.7572C31.0582 26.526 30.7888 27.7154 30.7888 29.33Z" fill="white"/>
</svg>
