<svg width="48" height="48" viewBox="0 0 48 48" fill="none" xmlns="http://www.w3.org/2000/svg">
    <circle cx="24" cy="24" r="24" fill="white"/>
    <path d="M32.4933 13.223C31.3759 12.6 29.8238 12.1016 27.7752 11.9148V5.0623H24.1745V11.7279C23.9883 11.7279 23.7399 11.7279 23.4295 11.7279H20.5738V5H16.9732V11.6656H13V36.6459H16.9732V43H20.5738V36.6459H23.4295C23.6158 36.6459 23.8641 36.6459 24.0503 36.6459V43H27.651V36.3967C29.8238 36.2098 31.4379 35.7738 32.4312 35.0885C34.1695 34.0918 34.9765 32.2229 34.9765 29.3574V19.2033C35.1628 16.2131 34.2316 14.2197 32.4933 13.223ZM29.2651 29.3574C29.2651 30.6033 28.8305 31.4131 27.9614 31.8492C27.1544 32.1607 25.4782 32.3475 23.2433 32.3475H18.9597V15.9016H23.4916C25.4161 15.9016 26.844 16.0885 27.8993 16.6492C28.8305 17.0852 29.3272 17.9574 29.3272 19.141L29.2651 29.3574Z" fill="#329CFF"/>
</svg>
