<svg width="48" height="48" viewBox="0 0 48 48" fill="none" xmlns="http://www.w3.org/2000/svg">
    <path d="M24.0001 0C10.7533 0 0 10.7596 0 24.0783C0 31.5474 3.42857 38.2851 8.77922 42.6725V33.062H5.92209L11.4805 24.2873L17.039 33.062H14.4416V46.172C16.5714 47.1121 18.8572 47.7388 21.2467 48V13.0577H18.3896L23.948 4.33518L29.5064 13.1099H26.909V48C29.2988 47.7388 31.5845 47.0599 33.7143 46.1198V27.6823H31.0131L36.5715 18.9076L42.1299 27.6823H39.3246V42.6203C44.6233 38.1807 48 31.5474 48 24.0783C48 10.7596 37.2987 0 24.0001 0Z" fill="#121316"/>
</svg>
