<svg width="48" height="48" viewBox="0 0 48 48" fill="none" xmlns="http://www.w3.org/2000/svg">
<rect width="48" height="48" rx="24" fill="url(#paint0_linear)"/>
<path d="M34.0714 14.1225C33.7066 14.1225 33.3965 14.1225 33.1229 14.1407C32.302 14.159 32.0649 14.1772 30.9887 13.6847C30.259 13.3564 29.5112 13.101 28.7268 12.9368V11.1674C28.7268 10.529 28.1978 10 27.5594 10C26.9209 10 26.3919 10.529 26.3919 11.1674V12.645C24.9691 12.6267 23.4916 12.8638 22.0506 13.3381V11.1674C22.0506 10.529 21.5216 10 20.8831 10C20.2447 10 19.7157 10.529 19.7157 11.1674V14.3231C17.7274 15.3629 15.9946 16.8039 14.663 18.5186C12.8206 20.9081 11.8903 23.6261 11.9998 26.344C12.0362 27.5296 11.945 27.7485 11.6167 28.4964C11.5073 28.7336 11.3796 29.0072 11.2519 29.3537C10.8323 30.3752 10.9418 31.5244 11.5437 32.4365C12.1457 33.3485 13.1672 33.8958 14.2617 33.8958C14.6447 33.8958 14.9366 33.8958 15.2102 33.8775C16.031 33.8593 16.2682 33.841 17.3444 34.3335C18.0923 34.6801 18.8949 34.9355 19.734 35.1179V36.8326C19.734 37.471 20.263 38 20.9014 38C21.5398 38 22.0688 37.471 22.0688 36.8326V35.355H22.0871C23.5099 35.355 24.9691 35.0997 26.4102 34.6254V36.8326C26.4102 37.471 26.9392 38 27.5776 38C28.216 38 28.745 37.471 28.745 36.8326V33.6039C30.2773 32.7831 31.6818 31.7068 32.8675 30.43C35.2388 27.8762 36.4792 24.757 36.3516 21.656C36.3151 20.4704 36.4063 20.2515 36.7346 19.5036C36.8441 19.2664 36.9717 18.9928 37.0994 18.6463C37.519 17.6248 37.3913 16.4756 36.7893 15.5635C36.2056 14.6879 35.1841 14.1225 34.0714 14.1225ZM18.3112 32.2358C17.0525 31.6521 16.4141 31.5427 15.6115 31.5427C15.4656 31.5427 15.3014 31.5427 15.1372 31.5427C14.9001 31.5427 14.6265 31.5609 14.2799 31.5609C13.9516 31.5609 13.6597 31.3967 13.4773 31.1414C13.2949 30.886 13.2766 30.5394 13.3861 30.2293C13.5138 29.9192 13.6232 29.6638 13.7144 29.445C14.1522 28.4782 14.3711 27.9127 14.2981 26.2528C14.2069 24.0821 14.9731 21.8932 16.4871 19.9414C17.3626 18.8104 18.4571 17.8072 19.6975 17.0046V32.7101C19.2415 32.6007 18.7672 32.4365 18.3112 32.2358ZM26.2643 32.1993C24.8597 32.7466 23.4369 33.0202 22.0688 33.0202V15.8189C23.5099 15.2534 24.9874 14.9616 26.4102 14.9798V32.1446C26.3555 32.1629 26.3007 32.1811 26.2643 32.1993ZM34.947 17.7889C34.8193 18.099 34.7099 18.3544 34.6187 18.5733C34.1809 19.5401 33.962 20.1238 34.0349 21.7655C34.1261 24.2463 33.1046 26.7635 31.1711 28.8795C30.4597 29.6456 29.6388 30.3388 28.7633 30.9225V15.3081C29.2011 15.4358 29.6388 15.5818 30.0584 15.7824C31.5542 16.4756 32.1744 16.4938 33.2323 16.4573C33.4695 16.4573 33.7431 16.4391 34.0897 16.4391C34.418 16.4391 34.7099 16.6033 34.8923 16.8586C35.0382 17.1505 35.0747 17.4788 34.947 17.7889Z" fill="white"/>
<defs>
<linearGradient id="paint0_linear" x1="24" y1="0" x2="24" y2="48" gradientUnits="userSpaceOnUse">
<stop stop-color="#A2CA01"/>
<stop offset="1" stop-color="#67AC01"/>
</linearGradient>
</defs>
</svg>
