<svg width="48" height="48" viewBox="0 0 48 48" fill="none" xmlns="http://www.w3.org/2000/svg">
    <circle cx="24" cy="24" r="24" fill="url(#paint0_linear)"/>
    <path d="M43 22.7074L38.3683 16.3333L38.018 6.60447L34.0285 10.3737L27.2365 1L17.7006 13.9455L7.69761 7.98586L9.48803 25.0952L4 32.535L25.0958 46.921L25.2126 47L38.9716 35.3569L39.0494 35.2977L38.8159 28.529L43 22.7074ZM10.1886 31.8443L19.1213 40.9416L6.1991 32.1403L17.4671 16.8662L16.1437 16.0768L10.8503 23.26L9.56588 10.9065L24.2784 19.6684L16.7081 26.8318L23.0524 42.7375L11.7066 31.1536L11.2784 27.1278L9.93563 28.9829L10.1886 31.8443ZM27.8204 21.7799L24.8039 43.0334L18.4985 27.2265L33.0554 13.4522L32.1407 12.1892L25.4267 18.5435L19.0434 14.7349L27.2365 3.60489L35.741 15.3269L35.6632 12.5839L34.9626 11.6169L36.6168 10.0579L37.1811 26.2793L38.6407 24.2664L38.4656 19.0566L41.0928 22.668L26.3413 42.994L29.494 20.9511L27.4311 19.7473L26.2635 20.8524L27.8204 21.7799ZM29.5329 41.2771L37.3369 30.5221L37.473 34.5478L29.5329 41.2771Z" fill="url(#paint1_linear)"/>
    <path d="M35.3157 22.2935V30.8309C35.3157 33.0926 34.8643 35.015 34.0162 36.6546C33.1695 38.2943 31.9261 39.5948 30.3448 40.4994C28.7636 41.404 26.8991 41.8563 24.6955 41.8563C22.5493 41.8563 20.6288 41.4606 18.9914 40.6124C17.3527 39.7643 16.1107 38.577 15.2626 36.9938C14.4159 35.4107 13.9631 33.5449 13.9631 31.3964V17.0917C13.9631 14.8301 14.4159 12.8512 15.2626 11.2115C16.1107 9.51532 17.3527 8.27145 18.9339 7.36685C20.5166 6.4621 22.3796 6.0098 24.5833 6.0098C26.6734 6.0098 28.4804 6.40565 30.0056 7.19722C31.5308 7.98879 32.6607 9.23265 33.5648 10.8158C34.4115 12.3989 34.9204 14.3778 35.034 16.7525H29.0453C28.9893 15.6216 28.7061 14.717 28.3108 13.9821C27.9155 13.2469 27.408 12.6816 26.7856 12.2857C26.1646 11.9466 25.43 11.7204 24.5833 11.7204C23.6231 11.7204 22.775 11.9466 22.0979 12.3989C21.3633 12.8512 20.7984 13.4732 20.4591 14.2647C20.0638 15.0563 19.8942 16.0175 19.8942 17.0917V31.3964C19.8942 32.3576 20.0638 33.1492 20.4591 33.8842C20.8545 34.5627 21.4194 35.128 22.1539 35.5237C22.8885 35.9196 23.7352 36.0892 24.753 36.0892C25.7132 36.0892 26.5599 35.863 27.2944 35.4673C28.029 35.0714 28.594 34.4495 28.9893 33.6579C29.3846 32.8664 29.5542 31.9618 29.5542 30.8875V27.7778H24.8651V22.2935H35.3157Z" fill="white"/>
    <defs>
        <linearGradient id="paint0_linear" x1="-4" y1="5.5" x2="56" y2="39" gradientUnits="userSpaceOnUse">
            <stop stop-color="#F6921E"/>
            <stop offset="1" stop-color="#EF5023"/>
        </linearGradient>
        <linearGradient id="paint1_linear" x1="-9" y1="28" x2="60" y2="10" gradientUnits="userSpaceOnUse">
            <stop stop-color="#FF420D"/>
            <stop offset="1" stop-color="#FFC076"/>
        </linearGradient>
    </defs>
</svg>
