<svg width="48" height="48" viewBox="0 0 48 48" fill="none" xmlns="http://www.w3.org/2000/svg">
    <circle cx="24" cy="24" r="24" fill="white"/>
    <path d="M12.7796 23.8108L5.96882 17H3L9.81081 23.8108L3.43659 30.185H6.40541L12.7796 23.8108Z" fill="#444444"/>
    <path d="M18.2807 20.842C17.9314 20.0561 17.4948 19.3576 16.9709 18.8337C16.447 18.3098 15.7484 17.7859 14.9626 17.5239C14.1767 17.1746 13.3035 17.0873 12.4303 17.0873H7.80249L10.0728 19.3576H12.5177C13.1289 19.3576 13.7401 19.4449 14.264 19.7069C14.7879 19.8815 15.1372 20.1435 15.5738 20.4927C15.9231 20.842 16.185 21.2786 16.447 21.8025C16.6216 22.3264 16.7963 22.9376 16.7963 23.5489C16.7963 24.2474 16.7089 24.8586 16.447 25.3825C16.2723 25.9065 15.9231 26.4304 15.5738 26.7796C15.2245 27.1289 14.7879 27.4782 14.264 27.6528C13.7401 27.9148 13.2162 28.0021 12.605 28.0021H10.5967L8.3264 30.2724H12.605C13.5655 30.2724 14.3513 30.0977 15.1372 29.7485C15.9231 29.3992 16.6216 28.9626 17.1455 28.3514C17.6694 27.7401 18.1933 27.0416 18.4553 26.2557C18.8046 25.4699 18.8919 24.5094 18.8919 23.6362C18.8046 22.501 18.6299 21.6279 18.2807 20.842Z" fill="#38C6F4"/>
    <path d="M37.4033 24.0728L35.395 30.5343H32.7755L29.894 21.0166H32.5135L34.2599 27.3909L36.3555 21.0166H38.5385L40.6341 27.3909L42.3805 21.0166H45L42.1185 30.5343H39.499L37.4033 24.0728Z" fill="#38C6F4"/>
    <path d="M19.7651 25.8191C19.7651 23.1123 21.6861 20.842 24.7422 20.842C27.8857 20.842 29.7193 23.1123 29.7193 25.8191C29.7193 28.526 27.7983 30.7963 24.7422 30.7963C21.6861 30.7963 19.7651 28.526 19.7651 25.8191ZM27.1871 25.8191C27.1871 24.3347 26.3139 23.0249 24.7422 23.0249C23.1705 23.0249 22.2973 24.3347 22.2973 25.8191C22.2973 27.3035 23.1705 28.6133 24.7422 28.6133C26.3139 28.6133 27.1871 27.3035 27.1871 25.8191Z" fill="#38C6F4"/>
</svg>
