<svg width="48" height="48" viewBox="0 0 48 48" fill="none" xmlns="http://www.w3.org/2000/svg">
<rect x="0.5" y="0.5" width="47" height="47" rx="23.5" fill="#DFDFD8" stroke="#A68D54"/>
<path d="M19.3794 20.8625V18.4046C19.3794 17.6288 18.7506 17 17.9749 17C17.1992 17 16.5703 17.6288 16.5703 18.4046V20.8625C16.5703 21.6382 17.1992 22.2671 17.9749 22.2671C18.7506 22.2671 19.3794 21.6382 19.3794 20.8625Z" fill="url(#paint0_linear)"/>
<path d="M12.9006 29.5177C12.8908 30.2615 13.4969 30.8832 14.2267 30.7394C17.0989 30.1738 19.2937 27.8243 19.6598 24.8652C19.6598 24.5491 19.6247 24.3384 19.6247 24.0224C19.6247 23.8232 18.5641 23.5402 17.7801 23.3583C17.3546 23.2595 17.0043 23.5883 16.956 24.0224V24.0224C16.8507 24.6896 16.7102 25.111 16.5347 25.5323C15.9065 26.9305 14.9742 27.6037 14.1969 27.923C13.5215 28.2004 12.9102 28.7877 12.9006 29.5177V29.5177Z" fill="url(#paint1_linear)"/>
<path d="M12.9165 29.6061C12.9363 28.8557 12.322 28.2603 11.5969 28.0662C9.87992 27.6065 8.70377 26.2281 8.70377 24.0581C8.70377 21.6002 10.8457 19.9498 12.8121 19.9498C14.8487 19.9498 16.78 21.9162 16.78 24.4795C16.8853 26.5512 18.1143 28.5176 18.641 29.1497C19.1821 29.791 19.849 30.4094 20.7854 30.7438C21.7953 31.1045 22.2982 29.7648 21.7661 28.8336V28.8336C20.1158 26.3406 19.7998 24.2688 19.4837 22.6185C19.1677 20.9681 18.1494 18.7911 15.9723 17.843C14.9189 17.3163 14.1113 17.2109 12.8472 17.2109C9.0198 17.2109 6 20.3361 6 24.0581C6 27.3404 8.45748 30.1584 11.5906 30.7786C12.3001 30.919 12.8975 30.3291 12.9165 29.6061V29.6061Z" fill="#A68D54"/>
<path d="M25.7367 25.2835C26.0163 26.2036 25.7464 27.3737 24.8739 27.7781V27.7781C24.2192 28.0815 23.4245 27.8604 23.1706 27.1849C23.0044 26.7427 22.8758 26.2538 22.7849 25.7084C22.6796 24.8656 22.5742 23.3206 22.5742 22.197C22.5742 21.3955 22.5742 19.7198 22.5742 18.5094C22.5742 17.7336 23.2031 17.1055 23.9788 17.1055V17.1055C24.7545 17.1055 25.3833 17.7334 25.3833 18.5091C25.3833 19.7704 25.3833 21.5109 25.3833 22.0916C25.344 23.3313 25.47 24.4055 25.7367 25.2835Z" fill="#A68D54"/>
<path d="M31.5758 28.7999C31.9581 29.4308 31.8124 30.2602 31.1143 30.4983C29.2913 31.12 26.7972 31.0072 24.9946 29.6802C24.188 29.0864 24.5113 27.9297 25.4201 27.5086V27.5086C26.1008 27.1932 26.8879 27.4422 27.5716 27.7511C28.1514 28.0131 28.8394 28.0646 29.6223 27.8858C30.3365 27.7226 31.1961 28.1734 31.5758 28.7999V28.7999Z" fill="url(#paint2_linear)"/>
<path d="M35.9284 25.2789C36.2016 26.2009 35.9281 27.3737 35.0556 27.7781V27.7781C34.4008 28.0815 33.6061 27.8604 33.3522 27.1849C33.186 26.7427 33.0574 26.2538 32.9665 25.7084C32.8612 24.8656 32.7559 23.3206 32.7559 22.197C32.7559 21.3955 32.7559 19.7198 32.7559 18.5094C32.7559 17.7336 33.3847 17.1055 34.1604 17.1055V17.1055C34.9361 17.1055 35.565 17.7334 35.565 18.5091C35.565 19.7704 35.565 21.5109 35.565 22.0916C35.5453 23.3291 35.6685 24.4018 35.9284 25.2789Z" fill="#A68D54"/>
<path d="M41.7655 28.7763C42.1424 29.4148 42.0079 30.2709 41.3051 30.5071C39.4844 31.1189 37.0054 31.0009 35.2114 29.6802C34.4048 29.0864 34.7281 27.9297 35.6369 27.5086V27.5086C36.3176 27.1932 37.1047 27.4422 37.7884 27.7511C38.3737 28.0156 39.0693 28.0656 39.8615 27.8806C40.5634 27.7166 41.3992 28.1556 41.7655 28.7763V28.7763Z" fill="url(#paint3_linear)"/>
<defs>
<linearGradient id="paint0_linear" x1="17.8066" y1="21.7707" x2="18.1256" y2="17.5991" gradientUnits="userSpaceOnUse">
<stop offset="4.88818e-07" stop-color="#614B22"/>
<stop offset="0.8663" stop-color="#A68D54"/>
</linearGradient>
<linearGradient id="paint1_linear" x1="19.0142" y1="24.2438" x2="13.4984" y2="30.2941" gradientUnits="userSpaceOnUse">
<stop offset="4.88818e-07" stop-color="#614B22"/>
<stop offset="0.8663" stop-color="#A68D54"/>
</linearGradient>
<linearGradient id="paint2_linear" x1="31.8075" y1="30.2878" x2="25.4029" y2="27.4413" gradientUnits="userSpaceOnUse">
<stop offset="4.88818e-07" stop-color="#614B22"/>
<stop offset="0.8663" stop-color="#A68D54"/>
</linearGradient>
<linearGradient id="paint3_linear" x1="42.0117" y1="30.2878" x2="35.607" y2="27.4413" gradientUnits="userSpaceOnUse">
<stop offset="4.88818e-07" stop-color="#614B22"/>
<stop offset="0.8663" stop-color="#A68D54"/>
</linearGradient>
</defs>
</svg>
