<svg width="15" height="15" viewBox="0 0 15 15" fill="none" xmlns="http://www.w3.org/2000/svg">
<circle cx="7.5" cy="7.5" r="4.5" fill="#3C7BEA"/>
<path d="M7.5 1.25006C6.26387 1.25006 5.0555 1.61662 4.02769 2.30338C2.99988 2.99013 2.1988 3.96625 1.72576 5.10829C1.25271 6.25033 1.12894 7.50699 1.37009 8.71938C1.61125 9.93176 2.20651 11.0454 3.08059 11.9195C3.95466 12.7936 5.06831 13.3888 6.28069 13.63C7.49307 13.8711 8.74974 13.7474 9.89177 13.2743C11.0338 12.8013 12.0099 12.0002 12.6967 10.9724C13.3834 9.94457 13.75 8.73619 13.75 7.50006C13.75 6.6793 13.5883 5.86657 13.2743 5.10829C12.9602 4.35 12.4998 3.66101 11.9194 3.08064C11.3391 2.50028 10.6501 2.03991 9.89177 1.72581C9.13349 1.41172 8.32076 1.25006 7.5 1.25006V1.25006ZM10.1875 6.00631L7.33125 9.75631C7.27303 9.83195 7.19826 9.89324 7.11267 9.93549C7.02708 9.97774 6.93295 9.99983 6.8375 10.0001C6.74257 10.0006 6.64877 9.97945 6.56322 9.9383C6.47766 9.89715 6.40261 9.83705 6.34375 9.76256L4.81875 7.81881C4.71681 7.68786 4.67106 7.52178 4.69157 7.3571C4.71209 7.19242 4.79718 7.04263 4.92813 6.94069C5.05908 6.83874 5.22516 6.793 5.38984 6.81351C5.55452 6.83402 5.70431 6.91911 5.80625 7.05006L6.825 8.35006L9.1875 5.22506C9.23757 5.1594 9.30008 5.10424 9.37146 5.06274C9.44284 5.02124 9.5217 4.9942 9.60353 4.98317C9.68537 4.97215 9.76857 4.97735 9.84839 4.99847C9.92821 5.0196 10.0031 5.05624 10.0688 5.10631C10.1344 5.15638 10.1896 5.21889 10.2311 5.29027C10.2726 5.36165 10.2996 5.44051 10.3106 5.52234C10.3217 5.60417 10.3165 5.68738 10.2953 5.7672C10.2742 5.84702 10.2376 5.9219 10.1875 5.98756V6.00631Z" fill="white"/>
</svg>
