<svg xmlns="http://www.w3.org/2000/svg" viewBox="0 0 24 24"  width="16px" height="16px" fill="#9b9d9e" class="st-close__icon">
	<style>
		.st-close__icon:hover {
			fill: #444;
			cursor:pointer;
		}
	</style>
	<path d="M16.043,11.667L22.609,5.1c0.963-0.963,0.963-2.539,0-3.502l-0.875-0.875   c-0.963-0.964-2.539-0.964-3.502,0L11.666,7.29L5.099,0.723c-0.962-0.963-2.538-0.963-3.501,0L0.722,1.598   c-0.962,0.963-0.962,2.539,0,3.502l6.566,6.566l-6.566,6.567c-0.962,0.963-0.962,2.539,0,3.501l0.876,0.875   c0.963,0.963,2.539,0.963,3.501,0l6.567-6.565l6.566,6.565c0.963,0.963,2.539,0.963,3.502,0l0.875-0.875   c0.963-0.963,0.963-2.539,0-3.501L16.043,11.667z" />
</svg>
