<svg width="18" height="18" viewBox="0 0 18 18" fill="none" xmlns="http://www.w3.org/2000/svg">
<circle cx="9" cy="9" r="9" fill="none"/>
<path d="M9 18C6.59602 18 4.33589 17.0639 2.63602 15.364C0.936141 13.6641 0 11.404 0 9C0 6.59602 0.936176 4.33593 2.63602 2.63602C4.33586 0.936106 6.59602 0 9 0C11.404 0 13.6641 0.936141 15.364 2.63602C17.0639 4.33589 18 6.59602 18 9C18 11.404 17.0638 13.6641 15.364 15.364C13.6641 17.0639 11.404 18 9 18ZM9 1.125C4.65771 1.125 1.125 4.65771 1.125 9C1.125 13.3423 4.65771 16.875 9 16.875C13.3423 16.875 16.875 13.3423 16.875 9C16.875 4.65771 13.3423 1.125 9 1.125Z" fill="#3C7BEA"/>
<path d="M9.26423 3.62317L9.26423 3.62317C9.33552 3.72067 10.204 4.91 11.0552 6.30194C11.4807 6.99771 11.9037 7.74698 12.2207 8.43754C12.535 9.12201 12.7555 9.77018 12.7555 10.2561L9.26423 3.62317ZM9.26423 3.62317L9.26379 3.62258M9.26423 3.62317L9.26379 3.62258M9.26379 3.62258C9.17343 3.50028 9.02727 3.44961 8.89723 3.44961C8.76723 3.44961 8.62097 3.50028 8.53094 3.62296L8.53071 3.62328M9.26379 3.62258L8.53071 3.62328M8.53071 3.62328L8.53022 3.62394M8.53071 3.62328L8.53022 3.62394M8.53022 3.62394C8.45559 3.72619 7.58908 4.91332 6.73977 6.30212M8.53022 3.62394L6.73977 6.30212M6.73977 6.30212C6.31429 6.99786 5.89135 7.74708 5.57429 8.4376M6.73977 6.30212L5.57429 8.4376M5.57429 8.4376C5.26002 9.12205 5.03945 9.77018 5.03945 10.2561M5.57429 8.4376L5.03945 10.2561M5.03945 10.2561C5.03945 12.2373 6.7823 13.8296 8.8974 13.8296M5.03945 10.2561L8.8974 13.8296M8.8974 13.8296C11.0128 13.8296 12.7554 12.2372 12.7555 10.2561L8.8974 13.8296ZM9.14314 3.71171C9.03271 3.56224 8.76156 3.56224 8.65187 3.71171L8.6514 3.71236C8.50351 3.91496 5.18945 8.45529 5.18945 10.2561C5.18945 12.1434 6.85364 13.6796 8.8974 13.6796C10.9415 13.6796 12.6055 12.1433 12.6055 10.2561C12.6057 8.45332 9.28417 3.90458 9.14314 3.71171ZM8.89751 12.9819C7.25138 12.9819 5.9329 11.7488 5.9329 10.2561C5.9329 9.9756 6.05088 9.56732 6.25946 9.07446C6.46588 8.58669 6.75322 8.0337 7.07514 7.47034C7.67052 6.42845 8.37886 5.36033 8.89752 4.62011C9.41632 5.3603 10.1247 6.42817 10.7201 7.46994C11.042 8.03323 11.3294 8.58619 11.5358 9.074C11.7443 9.56689 11.8623 9.97532 11.8623 10.2561C11.8623 11.7488 10.5434 12.9819 8.89751 12.9819Z" fill="#3C7BEA" stroke="#3C7BEA" stroke-width="0.3"/>
</svg>
