<?xml version="1.0" encoding="UTF-8"?>
<svg version="1.1" viewBox="0 0 600 600" xmlns="http://www.w3.org/2000/svg">
  <g transform="matrix(1.0263 0 0 1.0263 -7.9011 -472.18)" fill="#c5c5c4" stroke="#fff" stroke-width="5">
    <g transform="matrix(4.4857 0 0 4.4857 404.29 -4164)" fill="#c5c5c4" stroke="#fff" stroke-width="1.1146">
      <g transform="matrix(1.3598 0 0 1.3955 -24.547 -357.93)" fill="#c5c5c4" stroke="#fff" stroke-width=".77007">
        <g transform="matrix(1.0508 0 0 1.0508 -51.184 986.15)">
          <path d="m15.319 45.688c0 13.966 17.8 25.287 39.758 25.287 3.578 0 7.042-0.305 10.339-0.868 8.313 7.176 26.989 6.487 26.989 6.487s-7.581-2.248-12.3-7.024c-0.826-0.838-1.489-1.971-2.022-3.265 10.135-4.581 16.753-12.106 16.753-20.617 0-13.967-17.8-25.289-39.759-25.289-21.958 1e-3 -39.758 11.323-39.758 25.289z" fill="#c5c5c4" stroke="#fff" stroke-linecap="round" stroke-linejoin="round" stroke-width=".77007"/>
        </g>
        <g transform="matrix(1.0508 0 0 1.0508 -51.184 986.15)">
          <path d="m34.129 43.602c-16.417 0-29.725 8.465-29.725 18.906 0 6.364 4.948 11.99 12.525 15.414-0.399 0.969-0.894 1.816-1.511 2.442-3.528 3.569-9.196 5.252-9.196 5.252s13.963 0.513 20.178-4.852c2.465 0.421 5.055 0.65 7.729 0.65 16.418 0 29.727-8.465 29.727-18.907-1e-3 -10.441-13.309-18.905-29.727-18.905z" fill="#c5c5c4" stroke="#fff" stroke-linecap="round" stroke-linejoin="round" stroke-width=".77007"/>
        </g>
      </g>
    </g>
  </g>
</svg>
