<?xml version="1.0" encoding="UTF-8"?>
<svg enable-background="new 0 0 10.4 9.4" version="1.1" viewBox="0 0 10.4 9.4" xml:space="preserve" xmlns="http://www.w3.org/2000/svg">
<style type="text/css">
	.st0{fill:#2c3552;}
</style>
	<path class="st0" d="m8 4.5h-2.4v-0.5c0-0.2-0.2-0.4-0.4-0.4s-0.4 0.2-0.4 0.4v0.5h-2.3c-1 0-1.3 0.9-1.3 1.3 0 0.2 0.2 0.4 0.4 0.4s0.4-0.2 0.4-0.4 0.1-0.5 0.5-0.5h2.4v0.5c-0.1 0.2 0.1 0.4 0.3 0.4s0.4-0.2 0.4-0.4v-0.5h2.4c0.2 0 0.5 0.1 0.5 0.5 0 0.2 0.2 0.4 0.4 0.4s0.4-0.2 0.4-0.4c0-1-0.9-1.3-1.3-1.3z"/>
	<path class="st0" d="M6.8,2.6c0,0.2-0.1,0.3-0.3,0.3H3.9c-0.2,0-0.3-0.1-0.3-0.3V0.3C3.6,0.1,3.7,0,3.9,0h2.6   c0.2,0,0.3,0.1,0.3,0.3V2.6z"/>
	<path class="st0" d="M2.9,9.1c0,0.2-0.1,0.3-0.3,0.3H0.3C0.1,9.4,0,9.3,0,9.1v-2C0,7,0.1,6.8,0.3,6.8h2.3c0.2,0,0.3,0.1,0.3,0.3   V9.1z"/>
	<path class="st0" d="m6.7 9.1c0 0.2-0.1 0.3-0.3 0.3h-2.3c-0.2 0-0.3-0.1-0.3-0.3v-2c0-0.2 0.1-0.3 0.3-0.3h2.3c0.2 0 0.3 0.1 0.3 0.3v2z"/>
	<path class="st0" d="m10.4 9.1c0 0.2-0.1 0.3-0.3 0.3h-2.3c-0.2 0-0.3-0.1-0.3-0.3v-2c0-0.2 0.1-0.3 0.3-0.3h2.3c0.2 0 0.3 0.1 0.3 0.3v2z"/>
</svg>
