<svg width="18" height="18" viewBox="0 0 18 18" fill="none" xmlns="http://www.w3.org/2000/svg">
<path d="M9 18C6.59602 18 4.33589 17.0639 2.63602 15.364C0.936141 13.6641 0 11.404 0 9C0 6.59602 0.936176 4.33593 2.63602 2.63602C4.33586 0.936106 6.59602 0 9 0C11.404 0 13.6641 0.936141 15.364 2.63602C17.0639 4.33589 18 6.59602 18 9C18 11.404 17.0638 13.6641 15.364 15.364C13.6641 17.0639 11.404 18 9 18ZM9 1.125C4.65771 1.125 1.125 4.65771 1.125 9C1.125 13.3423 4.65771 16.875 9 16.875C13.3423 16.875 16.875 13.3423 16.875 9C16.875 4.65771 13.3423 1.125 9 1.125Z" fill="#3C7BEA"/>
<path d="M11.5969 9.00004C12.1632 8.58542 12.5214 7.97915 12.5214 7.30439C12.5214 6.35751 11.8166 5.54522 10.8201 5.20909V4.4783C10.8201 4.16616 10.5154 3.91309 10.1395 3.91309C9.76368 3.91309 9.45902 4.16616 9.45902 4.4783V5.04352H8.09796V4.4783C8.09796 4.16616 7.79329 3.91309 7.41743 3.91309C7.04156 3.91309 6.7369 4.16616 6.7369 4.4783V5.04352H5.37584C4.99998 5.04352 4.69531 5.2966 4.69531 5.60874C4.69531 5.92088 4.99998 6.17396 5.37584 6.17396H6.05637V9.00004V11.8261H5.37584C4.99998 11.8261 4.69531 12.0792 4.69531 12.3913C4.69531 12.7035 4.99998 12.9566 5.37584 12.9566H6.7369V13.5218C6.7369 13.8339 7.04156 14.087 7.41743 14.087C7.79329 14.087 8.09796 13.8339 8.09796 13.5218V12.9566H9.45902V13.5218C9.45902 13.8339 9.76368 14.087 10.1395 14.087C10.5154 14.087 10.8201 13.8339 10.8201 13.5218V12.791C11.8166 12.4549 12.5214 11.6426 12.5214 10.6957C12.5214 10.0209 12.1632 9.41466 11.5969 9.00004ZM7.41743 6.17396H9.79928C10.5498 6.17396 11.1603 6.68106 11.1603 7.30439C11.1603 7.92772 10.5498 8.43482 9.79928 8.43482H7.41743V6.17396ZM9.79928 11.8261H7.41743V9.56526H9.79928C10.5498 9.56526 11.1603 10.0724 11.1603 10.6957C11.1603 11.319 10.5498 11.8261 9.79928 11.8261Z" fill="#3C7BEA"/>
</svg>
