<svg width="18" height="18" viewBox="0 0 18 18" fill="none" xmlns="http://www.w3.org/2000/svg">
<path d="M9 18C6.59602 18 4.33589 17.0639 2.63602 15.364C0.936141 13.6641 0 11.404 0 9C0 6.59602 0.936176 4.33593 2.63602 2.63602C4.33586 0.936106 6.59602 0 9 0C11.404 0 13.6641 0.936141 15.364 2.63602C17.0639 4.33589 18 6.59602 18 9C18 11.404 17.0638 13.6641 15.364 15.364C13.6641 17.0639 11.404 18 9 18ZM9 1.125C4.65771 1.125 1.125 4.65771 1.125 9C1.125 13.3423 4.65771 16.875 9 16.875C13.3423 16.875 16.875 13.3423 16.875 9C16.875 4.65771 13.3423 1.125 9 1.125Z" fill="#3C7BEA"/>
<path d="M8.81977 8.45961C7.88239 8.45961 7.11977 7.854 7.11977 7.10961C7.11977 6.36522 7.88239 5.75961 8.81977 5.75961C9.75715 5.75961 10.5198 6.36522 10.5198 7.10961C10.5198 7.40782 10.8242 7.64961 11.1998 7.64961C11.5753 7.64961 11.8798 7.40782 11.8798 7.10961C11.8798 5.95533 10.8607 4.98714 9.49977 4.74083V4.13961C9.49977 3.84139 9.19534 3.59961 8.81977 3.59961C8.44419 3.59961 8.13977 3.84139 8.13977 4.13961V4.74083C6.77883 4.98714 5.75977 5.95533 5.75977 7.10961C5.75977 8.44952 7.13247 9.53961 8.81977 9.53961C9.75715 9.53961 10.5198 10.1452 10.5198 10.8896C10.5198 11.634 9.75715 12.2396 8.81977 12.2396C7.88239 12.2396 7.11977 11.634 7.11977 10.8896C7.11977 10.5914 6.81534 10.3496 6.43977 10.3496C6.06419 10.3496 5.75977 10.5914 5.75977 10.8896C5.75977 12.0439 6.77883 13.0121 8.13977 13.2584V13.8596C8.13977 14.1578 8.44419 14.3996 8.81977 14.3996C9.19534 14.3996 9.49977 14.1578 9.49977 13.8596V13.2584C10.8607 13.0121 11.8798 12.0439 11.8798 10.8896C11.8798 9.5497 10.5071 8.45961 8.81977 8.45961Z" fill="#3C7BEA"/>
</svg>
