<?xml version="1.0" encoding="UTF-8"?>
<svg width="45px" height="45px" enable-background="new 0 0 560.792 560.793" version="1.1" viewBox="0 0 560.792 560.793" xml:space="preserve" xmlns="http://www.w3.org/2000/svg">
	<g fill="#c5c5c4">
		<path d="m146.73 331.12c10.887 10.888 19.707 7.234 19.707-8.164v-52.895h196.02c6.157 0 11.15-4.994 11.15-11.15v-172.14c0-6.157-4.993-11.151-11.15-11.151h-196.02v-52.894c0-15.392-8.819-19.052-19.707-8.164l-138.57 138.57c-10.888 10.888-10.888 28.532 0 39.419l138.57 138.57z"/>
		<path d="m414.06 229.67c-10.882-10.887-19.707-7.228-19.707 8.165v52.895h-196.02c-6.157 0-11.15 4.994-11.15 11.15v172.14c0 6.156 4.994 11.15 11.15 11.15h196.02v52.896c0 15.392 8.825 19.051 19.706 8.164l138.58-138.57c10.882-10.888 10.882-28.531 0-39.419l-138.57-138.57z"/>
	</g>
</svg>
