<svg width="24" height="12" viewBox="0 0 24 12" fill="none" xmlns="http://www.w3.org/2000/svg">
    <path d="M23.8491 5.61857C23.6309 5.38946 18.4854 0 11.9997 0C5.514 0 0.365951 5.38946 0.150366 5.61857C-0.0496338 5.83207 -0.0496338 6.16793 0.150366 6.38143C0.365951 6.61054 5.514 12 11.9997 12C18.4854 12 23.6335 6.61054 23.8491 6.38143C24.0491 6.16793 24.0491 5.83207 23.8491 5.61857ZM12.0257 10.8128C9.38154 10.8128 7.23089 8.65697 7.23089 6.00651C7.23089 3.35604 9.38154 1.20026 12.0257 1.20026C14.6698 1.20026 16.8205 3.35604 16.8205 6.00651C16.8231 8.65697 14.6698 10.8128 12.0257 10.8128ZM7.79972 1.90844C6.77374 2.97071 6.14257 4.41571 6.14257 6.00651C6.14257 7.58689 6.76855 9.02408 7.78153 10.0837C4.66985 8.93035 2.25426 6.85268 1.34517 5.9987C2.25426 5.14472 4.67764 3.05923 7.79972 1.90844ZM16.301 10.0551C17.2984 8.99805 17.914 7.57388 17.914 6.00651C17.914 4.43393 17.2958 3.00195 16.2906 1.94489C19.3685 3.10349 21.7556 5.15513 22.6569 6.0039C21.7556 6.84747 19.3737 8.89651 16.301 10.0551Z" fill="#A1AABC"/>
    <path d="M12.0259 3.18652C10.4778 3.18652 9.21808 4.44927 9.21808 6.00102C9.21808 7.55276 10.4778 8.81551 12.0259 8.81551C13.5739 8.81551 14.8363 7.55276 14.8363 6.00102C14.8363 4.44927 13.5765 3.18652 12.0259 3.18652ZM12.0259 7.70377C11.0882 7.70377 10.3272 6.93831 10.3272 6.00102C10.3272 5.06112 11.0908 4.29826 12.0259 4.29826C12.9635 4.29826 13.7272 5.06372 13.7272 6.00102C13.7272 6.94092 12.9635 7.70377 12.0259 7.70377Z" fill="#A1AABC"/>
</svg>
