<?xml version="1.0" encoding="UTF-8"?>
<svg width="512px" height="512px" enable-background="new 0 0 31 31" version="1.1" viewBox="0 0 31 31" xml:space="preserve" xmlns="http://www.w3.org/2000/svg">
	<path d="m13.916 14.824c0 0.554-0.423 0.91-1.137 0.91h-0.562v-1.747c0.104-0.019 0.301-0.047 0.647-0.047 0.657 0.011 1.052 0.302 1.052 0.884zm17.083 0.676c0 1.202-0.47 2.333-1.317 3.182l-1.904 1.904v2.691c0 2.479-2.02 4.5-4.5 4.5h-2.691l-1.902 1.904c-0.852 0.85-1.982 1.319-3.185 1.319s-2.333-0.469-3.184-1.32l-1.901-1.9h-2.692c-1.203 0-2.332-0.469-3.183-1.317-0.851-0.853-1.317-1.979-1.317-3.183v-2.694l-1.904-1.901c-0.85-0.851-1.317-1.98-1.317-3.183s0.47-2.333 1.317-3.182l1.904-1.903v-2.692c0-2.481 2.02-4.5 4.5-4.5h2.691l1.904-1.905c0.849-0.85 1.978-1.32 3.182-1.32s2.333 0.469 3.184 1.32l1.901 1.901h2.692c1.201 0 2.332 0.468 3.182 1.317 0.852 0.852 1.318 1.981 1.318 3.183v2.692l1.904 1.904c0.848 0.85 1.318 1.98 1.318 3.183zm-21.276-2.572h-3.866v6.324h1.436v-2.543h2.271v-1.164h-2.271v-1.445h2.432v-1.173l-2e-3 1e-3zm5.853 6.324c-0.122-0.244-0.318-1.068-0.516-1.782-0.16-0.581-0.403-1.005-0.846-1.183v-0.027c0.544-0.197 1.117-0.75 1.117-1.558 0-0.582-0.207-1.023-0.582-1.323-0.45-0.356-1.107-0.498-2.046-0.498-0.761 0-1.445 0.057-1.905 0.132v6.239h1.417v-2.486h0.433c0.582 0.01 0.854 0.226 1.022 1.015 0.188 0.778 0.338 1.295 0.44 1.473l1.466-2e-3zm4.82-1.172h-2.602v-1.502h2.328v-1.164h-2.328v-1.314h2.471v-1.173h-3.905v6.324h4.036v-1.171zm5.008 0h-2.6v-1.502h2.327v-1.164h-2.327v-1.314h2.469v-1.173h-3.903v6.324h4.034v-1.171z" fill="#2c3552"/>
</svg>
