<svg width="20" height="13" viewBox="0 0 20 13" fill="none" xmlns="http://www.w3.org/2000/svg">
    <path fill-rule="evenodd" clip-rule="evenodd" d="M6.36327 7.60049V5.42906H12.3724C12.4269 5.74573 12.4724 6.06239 12.4724 6.47858C12.4724 10.0976 10.036 12.6672 6.36327 12.6672C2.84509 12.6672 -0.000366211 9.83525 -0.000366211 6.33382C-0.000366211 2.83239 2.84509 0.000488281 6.36327 0.000488281C8.08145 0.000488281 9.51782 0.624774 10.6269 1.6562L8.89963 3.31192C8.42691 2.85954 7.59963 2.33477 6.36327 2.33477C4.19054 2.33477 2.41782 4.1262 2.41782 6.33382C2.41782 8.54144 4.19054 10.3329 6.36327 10.3329C8.88145 10.3329 9.82691 8.53239 9.97236 7.60049H6.36327ZM18.1818 5.42981H20V7.23933H18.1818V9.04886H16.3636V7.23933H14.5454V5.42981H16.3636V3.62029H18.1818V5.42981Z" fill="white"/>
</svg>
