<?xml version="1.0" encoding="UTF-8"?>
<svg enable-background="new 0 0 10.4 9.8" version="1.1" viewBox="0 0 10.4 9.8" xml:space="preserve" xmlns="http://www.w3.org/2000/svg">
<style type="text/css">
	.st0{fill:#2c3552;}
</style>
		<path class="st0" d="m6.8 4.2h-1c0 0.1 0 0.6-0.2 0.7 0 0 0.4 2.3 0.2 3.1 0 0.4-0.3 1.2-0.6 1.1-0.3 0-0.5-0.8-0.6-1.1-0.2-0.7 0.3-3 0.3-3s-0.2-0.2-0.2-0.8h-1.1c-1 0-1.9 0.8-1.8 1.8l0.3 2c0.2 1 0.8 1.8 1.8 1.8h2.7c1 0 1.6-0.8 1.8-1.8l0.2-2c0.1-0.9-0.8-1.8-1.8-1.8z"/>
		<path class="st0" d="m7 1.8c0 1-0.8 1.8-1.8 1.8s-1.8-0.8-1.8-1.8 0.8-1.8 1.8-1.8 1.8 0.8 1.8 1.8z"/>
		<path class="st0" d="m9.7 2.2h-1.4c-0.4 0-0.8 0.3-0.7 0.8 1.3 0 2 1.5 2 1.5 0.4 0 0.7-0.4 0.8-0.8v-0.7c0.1-0.5-0.3-0.8-0.7-0.8z"/>
		<ellipse class="st0" cx="9" cy="1.2" rx=".8" ry=".8"/>
		<path class="st0" d="m0.8 2.2h1.4c0.4 0 0.8 0.4 0.8 0.8-1.3 0-2 1.5-2 1.5-0.4 0-0.7-0.4-0.8-0.8l-0.2-0.7c0-0.5 0.3-0.8 0.8-0.8z"/>
		<path class="st0" d="m1.4 1.9c-0.4 0-0.7-0.3-0.7-0.7s0.3-0.8 0.8-0.8c0.4 0 0.8 0.4 0.8 0.8-0.1 0.4-0.4 0.7-0.9 0.7z"/>
</svg>
