<?xml version="1.0" encoding="UTF-8"?>
<svg enable-background="new 0 0 10.4 10.4" version="1.1" viewBox="0 0 10.4 10.4" xml:space="preserve" xmlns="http://www.w3.org/2000/svg">
<style type="text/css">
	.st0{fill:#FFFFFF;}
</style>
<path class="st0" d="m5.2 0c-2.9 0-5.2 2.3-5.2 5.2s2.3 5.2 5.2 5.2 5.2-2.3 5.2-5.2-2.3-5.2-5.2-5.2zm-0.1 8.9c-0.5 0-0.9-0.4-0.9-0.9s0.4-0.9 0.9-0.9 0.9 0.5 0.9 0.9c0 0.5-0.4 0.9-0.9 0.9zm2.4-4.6l-0.9 0.9c-0.3 0.2-0.5 0.4-0.6 0.6-0.1 0.1-0.1 0.5-0.1 0.7h-1.6v-0.3c0-0.3 0-0.5 0.1-0.7s0.2-0.3 0.3-0.5c0.1-0.1 0.4-0.4 0.9-0.8 0.2-0.2 0.3-0.4 0.3-0.6s-0.1-0.3-0.2-0.5c0 0-0.2-0.1-0.4-0.1-0.3 0-0.5 0.1-0.6 0.3-0.2 0.1-0.3 0.3-0.3 0.7l-1.6-0.2c0.1-0.6 0.3-1.1 0.7-1.5s1-0.6 1.9-0.6c0.6 0 1.2 0.1 1.6 0.4 0.4 0.4 0.7 0.9 0.7 1.5 0 0.2-0.1 0.5-0.2 0.7z"/>
</svg>
