<?xml version="1.0" encoding="UTF-8"?>
<svg version="1.1" viewBox="0 0 24 24" xmlns="http://www.w3.org/2000/svg">
  <path d="m19.398 13c0-0.30078 0.10156-0.69922 0.10156-1s0-0.69922-0.10156-1l2.1016-1.5c0.19922-0.10156 0.30078-0.39844 0.10156-0.69922l-2-3.5c-0.10156-0.30078-0.40234-0.40234-0.60156-0.30078l-2.3984 1.1016c-0.5-0.40234-1.2031-0.80078-1.8008-1l-0.30078-2.6016c0-0.30078-0.19922-0.5-0.5-0.5h-4c-0.30078 0-0.5 0.19922-0.5 0.5l-0.30078 2.5c-0.69922 0.30078-1.3008 0.60156-1.8008 1l-2.3984-1c-0.19922-0.10156-0.5 0-0.60156 0.19922l-2 3.5c-0.19922 0.30078-0.19922 0.60156 0.10156 0.69922l2.1016 1.6016c0 0.30078-0.10156 0.69922-0.10156 1s0 0.69922 0.10156 1l-2.1016 1.5c-0.19922 0.10156-0.30078 0.39844-0.10156 0.69922l2 3.5c0.10156 0.30078 0.40234 0.40234 0.60156 0.30078l2.3984-1.1016c0.5 0.40234 1.2031 0.80078 1.8008 1l0.30078 2.6016c0 0.30078 0.19922 0.5 0.5 0.5h4c0.30078 0 0.5-0.19922 0.5-0.5l0.30078-2.6016c0.69922-0.29688 1.3008-0.59766 1.8008-1l2.3984 1.1016c0.19922 0.10156 0.5 0 0.60156-0.19922l2-3.5c0.097656-0.19922 0.097656-0.5-0.10156-0.69922zm-7.3984 3c-2.1992 0-4-1.8008-4-4s1.8008-4 4-4 4 1.8008 4 4-1.8008 4-4 4z"/>
</svg>
