<svg width="16" height="15" viewBox="0 0 16 15" fill="none" xmlns="http://www.w3.org/2000/svg">
    <g clip-path="url(#clip0)">
        <path d="M10.2525 1.78156C10.0013 1.78248 9.79707 1.98675 9.79615 2.23789L9.76351 11.0822C9.75876 12.3681 8.70871 13.4182 7.42275 13.423L7.4194 14.3323C9.20671 14.3257 10.6662 12.8662 10.6728 11.0789L10.7054 2.23453C10.7064 1.98339 10.5036 1.78061 10.2525 1.78156Z" fill="#236DFB"/>
        <path d="M8.19393 3.49521L8.16947 10.1285C8.16804 10.5166 7.85109 10.8335 7.46306 10.835C7.45248 10.835 7.4427 10.8324 7.43226 10.832L7.4289 11.7428C7.43925 11.743 7.44932 11.7443 7.45972 11.7443C8.34914 11.741 9.07553 11.0146 9.07881 10.1251L9.10329 3.49184C9.10722 2.42498 8.4219 1.52058 7.46785 1.19212L7.46416 2.19156C7.90286 2.45981 8.19597 2.94255 8.19393 3.49521Z" fill="#236DFB"/>
        <path d="M7.42118 13.3975C6.13536 13.4023 5.093 12.3599 5.09772 11.074L5.12574 3.48114C5.12886 2.63569 5.81924 1.94531 6.66478 1.94217C6.95764 1.94109 7.23024 2.02406 7.46271 2.16617L7.4664 1.16673C7.216 1.08053 6.94816 1.03181 6.66816 1.03285C5.32124 1.03783 4.22142 2.13765 4.21645 3.48448L4.18842 11.0774C4.18182 12.8647 5.63046 14.3134 7.41782 14.3069L7.41789 14.3069L7.42125 13.3975L7.42118 13.3975Z" fill="#236DFB"/>
        <path d="M6.759 10.1097L6.78169 3.95861C6.78262 3.70747 6.57986 3.50471 6.32872 3.50564C6.07758 3.50656 5.87332 3.71083 5.87239 3.96196L5.8497 10.113C5.84645 10.9921 6.55104 11.7054 7.42625 11.7188L7.42961 10.808C7.05599 10.7928 6.75759 10.4873 6.759 10.1097Z" fill="#236DFB"/>
    </g>
    <defs>
        <clipPath id="clip0">
            <rect width="15.1111" height="15" fill="white"/>
        </clipPath>
    </defs>
</svg>
