<svg width="15" height="15" viewBox="0 0 15 15" fill="none" xmlns="http://www.w3.org/2000/svg">
    <path d="M13.5938 0H1.40625C0.62959 0 0 0.62959 0 1.40625V13.5938C0 14.3704 0.62959 15 1.40625 15H13.5938C14.3704 15 15 14.3704 15 13.5938V1.40625C15 0.62959 14.3704 0 13.5938 0ZM14.0625 9.18281L12.0516 7.17188C11.8687 6.99012 11.5735 6.99012 11.3906 7.17188L8.90625 9.65156L5.95781 6.70312C5.77497 6.52137 5.47972 6.52137 5.29688 6.70312L0.9375 11.0578V1.40625C0.9375 1.14735 1.14735 0.9375 1.40625 0.9375H13.5938C13.8526 0.9375 14.0625 1.14735 14.0625 1.40625V9.18281Z" fill="#236DFB"/>
    <path d="M8.4375 2.34375C7.40197 2.34375 6.5625 3.18322 6.5625 4.21875C6.5625 5.25428 7.40197 6.09375 8.4375 6.09375C9.47303 6.09375 10.3125 5.25428 10.3125 4.21875C10.3125 3.18322 9.47303 2.34375 8.4375 2.34375ZM8.4375 5.15625C7.91974 5.15625 7.5 4.73651 7.5 4.21875C7.5 3.70099 7.91974 3.28125 8.4375 3.28125C8.95526 3.28125 9.375 3.70099 9.375 4.21875C9.375 4.73651 8.95526 5.15625 8.4375 5.15625Z" fill="#236DFB"/>
</svg>
