<svg width="24" height="24" viewBox="0 0 19 18" fill="none" xmlns="http://www.w3.org/2000/svg">
    <path d="M8.71887 1H16.2814C17.2287 1 18.0001 1.748 18.0001 2.66667V15.3333C18.0001 16.252 17.2287 17 16.2814 17H8.71887C7.7715 17 7.00012 16.252 7.00012 15.3333V11.3333C7.00012 11.1493 7.15412 11 7.34387 11C7.53362 11 7.68762 11.1493 7.68762 11.3333V15.3333C7.68762 15.8847 8.15031 16.3333 8.71887 16.3333H16.2814C16.8499 16.3333 17.3126 15.8847 17.3126 15.3333V2.66667C17.3126 2.11533 16.8499 1.66667 16.2814 1.66667L8.71887 1.66667C8.15031 1.66667 7.68762 2.11533 7.68762 2.66667V6.66667C7.68762 6.85067 7.53362 7 7.34387 7C7.15412 7 7.00012 6.85067 7.00012 6.66667V2.66667C7.00012 1.748 7.7715 1 8.71887 1Z" fill="#000000" stroke="#000000" stroke-width="0.5"/>
    <path d="M2.3022 8.66671L11.3645 8.66671C11.5313 8.66671 11.6666 8.81605 11.6666 9.00004C11.6666 9.18404 11.5313 9.33337 11.3645 9.33337L2.3022 9.33337C2.13545 9.33337 2.00012 9.18404 2.00012 9.00004C2.00012 8.81605 2.13545 8.66671 2.3022 8.66671Z" fill="#000000" stroke="#000000" stroke-width="0.5"/>
    <path d="M4.00012 6.00001C4.08545 6.00001 4.17079 6.03268 4.23612 6.09734C4.36612 6.22734 4.36612 6.43868 4.23612 6.56868L1.8048 9.00001L4.23545 11.4307C4.36545 11.5607 4.36545 11.772 4.23545 11.902C4.10545 12.032 3.89412 12.032 3.76412 11.902L1.09747 9.23534C0.967475 9.10534 0.967475 8.89401 1.09747 8.76401L3.76412 6.09734C3.82945 6.03268 3.91479 6.00001 4.00012 6.00001Z" fill="#000000" stroke="#000000" stroke-width="0.5"/>
</svg>
