<svg width="24" height="24" viewBox="0 0 16 16" fill="none" xmlns="http://www.w3.org/2000/svg">
    <path d="M15.4524 11.5839L13.4597 9.57364C13.1303 9.24408 12.6856 9.04634 12.2739 9.04634C11.8293 9.04634 11.434 9.2276 11.0882 9.57364L9.9354 10.7271C9.88599 10.6941 9.82012 10.6612 9.77071 10.6447C9.77071 10.6447 9.75424 10.6447 9.75424 10.6282L9.73777 10.6117C9.58956 10.5129 9.42487 10.414 9.22725 10.3316C8.22267 9.70546 7.28396 8.83213 6.32879 7.6622C5.88414 7.10196 5.57124 6.60762 5.32421 6.06385C5.58771 5.84964 5.78533 5.63543 5.93354 5.47065L6.44407 4.95984C6.83931 4.59732 7.03694 4.18538 7.03694 3.75695C7.03694 3.31205 6.83931 2.9001 6.46054 2.50463L4.89603 0.939238C4.74781 0.790937 4.59959 0.642636 4.43491 0.494336C4.10554 0.181256 3.69383 0 3.26564 0C2.78806 0 2.39281 0.164779 2.0305 0.527291L0.828303 1.73018C0.350716 2.17508 0.0707507 2.73532 0.0048766 3.42739V3.44387C-0.0280604 4.30072 0.103687 5.09166 0.465994 6.08033C1.04239 7.62925 1.91523 9.0793 3.21624 10.6777C4.9125 12.5891 6.82284 14.0721 8.94728 15.0937L8.99669 15.1102C9.62249 15.3903 10.8082 15.9176 12.1257 16H12.3069C13.1797 16 13.8384 15.7199 14.3819 15.1267C14.5795 14.896 14.7936 14.6818 14.9748 14.484C15.123 14.3687 15.2218 14.2533 15.3206 14.138L15.4524 14.0062L15.4853 13.9732C16.177 13.2152 16.177 12.2925 15.4524 11.5839ZM14.876 13.413L14.7113 13.5778L14.6948 13.6107C14.6125 13.7096 14.5466 13.792 14.4642 13.8579L14.4148 13.9073C14.2172 14.105 13.9867 14.3357 13.7561 14.5994C13.3773 15.0113 12.9491 15.1926 12.3069 15.1926H12.1751C11.0223 15.1102 9.96833 14.6488 9.34253 14.3687L9.30959 14.3522C7.28396 13.38 5.45596 11.9629 3.85851 10.1504C2.6069 8.6344 1.78348 7.25026 1.24002 5.80021C0.910645 4.89392 0.795366 4.23481 0.828303 3.49331C0.877708 3.01545 1.05886 2.63646 1.38823 2.33986L2.6069 1.12049C2.80453 0.92276 3.00215 0.840371 3.24917 0.840371C3.46327 0.840371 3.66089 0.939238 3.84204 1.10402L3.85851 1.12049C4.00673 1.25232 4.15494 1.40062 4.30316 1.54892L5.86767 3.11432C6.1641 3.41092 6.21351 3.64161 6.21351 3.77343C6.21351 3.90525 6.18057 4.10299 5.86767 4.38311L5.34068 4.9104C5.15952 5.10814 4.94543 5.32235 4.66547 5.55304L4.63253 5.58599L4.59959 5.63543C4.45138 5.83316 4.43491 6.01442 4.51725 6.27806L4.53372 6.34398L4.55019 6.40989C4.83015 7.01957 5.17599 7.57981 5.67005 8.20597C6.6911 9.45829 7.71214 10.3975 8.79907 11.0731L8.84847 11.1061C8.98022 11.172 9.11197 11.2379 9.22725 11.3038C9.27665 11.3532 9.34253 11.3862 9.39193 11.4027C9.45781 11.4356 9.50721 11.4521 9.54015 11.4851L9.65543 11.5675H9.68837L9.73777 11.5839C9.83658 11.6169 9.90246 11.6169 9.95186 11.6169C10.1165 11.6169 10.2648 11.551 10.413 11.4027L11.6481 10.1668C11.8457 9.9691 12.0269 9.88671 12.2575 9.88671C12.5045 9.88671 12.735 10.035 12.8668 10.1668L14.876 12.1771C15.2712 12.5726 15.2877 12.9846 14.876 13.413Z" fill="#000000"/>
</svg>
