<svg width="18" height="18" viewBox="0 0 18 18" fill="none" xmlns="http://www.w3.org/2000/svg">
<circle cx="9" cy="9" r="9" fill="#3C7BEA"/>
<g clip-path="url(#clip0)">
<path d="M3.26338 9.17478V9.87155H2.82209V13.7038H3.26338V14.4006H3.70467V13.7038H4.14596V9.87155H3.70467V9.17478H3.26338ZM3.70467 13.3554H3.26338V10.2199H3.70467V13.3554ZM14.075 3.60059V3.94897H13.6337V7.78123H14.075V8.478H14.5163V7.78123H14.9576V3.94897H14.5163V3.60059H14.075ZM14.5163 7.43284H14.075L14.5163 7.60704V4.29736V7.43284ZM7.67629 9.17478V9.52317H7.235V11.9619H7.67629V12.3103H8.11758V11.9619H8.55887V9.52317H8.11758V9.17478H7.67629ZM8.11758 11.6135H7.67629L8.11758 11.6455V9.87155V11.6135ZM5.46983 10.2199V10.9167H5.02854V12.3103H5.46983V13.007H5.91112V12.3103H6.35241V10.9167H5.91112V10.2199H5.46983ZM11.8685 6.73607V7.43284H11.4273V10.2199H12.7511V7.43284H12.3098V6.73607H11.8685ZM12.3098 9.87155H11.8685L12.3098 10.0806V7.78123V9.87155ZM9.2208 9.87155H9.66209V10.5683H10.1034V9.87155H10.5447V8.478H10.1034V7.78123H9.66209V8.478H9.2208V9.87155Z" fill="white"/>
<path d="M3.59961 10.0801V13.6801" stroke="white"/>
</g>
<defs>
<clipPath id="clip0">
<rect width="13.68" height="13.68" fill="white" transform="translate(2.16016 2.16016)"/>
</clipPath>
</defs>
</svg>
