<?xml version="1.0" encoding="UTF-8"?>
<svg enable-background="new 0 0 8.5 10.4" version="1.1" viewBox="0 0 8.5 10.4" xml:space="preserve" xmlns="http://www.w3.org/2000/svg">
<style type="text/css">
	.st0{fill:#2c3552;}
</style>
	<path class="st0" d="m7.6 9.5h-2v-0.3-0.2c0.6-0.1 1.1-0.2 1.6-0.4 0.4-0.2 0.8-0.5 1.2-0.8 0.2-0.1 0.2-0.4 0.2-0.6-0.2-0.2-0.4-0.3-0.6-0.3-0.1 0-0.2 0-0.3 0.1 0 0-0.1 0-0.1 0.1l-0.4 0.2c-0.6 0.4-1.3 0.6-2.1 0.6-1.2 0-2.3-0.5-3.1-1.4-1.3-1.5-1.3-3.9 0.2-5.4l0.3-0.3c0.1-0.2 0.1-0.4 0.1-0.5-0.2-0.2-0.4-0.3-0.6-0.3-0.1 0-0.2 0-0.3 0.1-1.9 1.6-2.2 4.5-0.8 6.6 0.8 1.2 2.1 2 3.5 2.2v0.2 0.3h-2c-0.5 0-1 0.4-1 1h7c0.1-0.5-0.3-0.9-0.8-0.9z"/>
		<path class="st0" d="m8.4 4.6c-0.4 1.8-2.2 3-4 2.5-1.8-0.4-2.9-2.2-2.5-4s2.2-2.9 4-2.5c1.8 0.5 3 2.2 2.5 4zm-2.7-3.2c-1.3-0.3-2.6 0.6-3 1.9-0.3 1.4 0.6 2.7 1.9 3s2.7-0.5 3-1.9c0.3-1.3-0.5-2.6-1.9-3z"/>
		<path class="st0" d="m4.3 3.5c0.2 0.1 0.5 0 0.6 0.2 0.2-0.3 0.6-0.4 0.7-0.6 0-0.1-0.3-0.1 0.1-0.2-0.1 0.2 0 0.2 0.2 0.2-0.1-0.3-0.3-0.5-0.5-0.6l0.1-0.3s0.1 0 0 0.1c0.1 0.1 0.4 0.3 0.5 0.3 0.1-0.4 0.6-0.4 0.4-0.7h0.1c-0.1-0.1-0.2 0-0.2-0.3-0.1-0.2-1.3 0.1-1.4 0.2l-0.1-0.1v0.1c0-0.1 0-0.1-0.1-0.1-0.4 0.2-0.3 0.2-0.4 0.3-0.4-0.1-1-0.4-1.2 0 0.1 0.1 0.3 0 0.4 0.1 0.2 0.2-0.2 1.2 0.4 1.4 0 0.1-0.1 0-0.1 0.1 0.3 0.1 0.9 0.6 1.2 0.9-0.3 0.2 0 1.7 0.3 1.7 0-0.1 1-0.9 1.3-1.1-0.6-0.8-2.1-0.7-2.3-1.6zm0.2-1.4c0.2-0.1 0.2-0.1 0.1-0.2 0.1 0 0.1 0 0.1-0.1 0 0.2-0.1 0.4-0.2 0.3z"/>
</svg>
