<?xml version="1.0" encoding="UTF-8"?>
<svg enable-background="new 0 0 10.4 9.2" version="1.1" viewBox="0 0 10.4 9.2" xml:space="preserve" xmlns="http://www.w3.org/2000/svg">
<style type="text/css">
	.st0{fill:#2c3552;}
</style>
	<path class="st0" d="m1.2 0h5.7c0.7 0 1.2 0.5 1.2 1.2v5.3h1.8c0.7 0.3 1.1 2.7-1.1 2.7h-5.8c-0.8 0-1.4-0.6-1.4-1.4v-5.7h-1.5c-0.3-1.3 0.1-2 1.1-2.1zm2.5 6.6h3.6v-5.3c0-0.2-0.2-0.4-0.4-0.4h-4.5v0.1 0.1 0.2 6.6c0 0.3 0.4 0.6 0.7 0.6 0-0.1 1.1 0 0.6-1.9z"/>
	<path class="st0" d="m6.6 2c0 0.1-0.1 0.2-0.2 0.2h-3c-0.2 0-0.3-0.1-0.3-0.2s0.1-0.2 0.2-0.2h3c0.2 0 0.3 0.1 0.3 0.2z"/>
	<path class="st0" d="m5.7 2.8c0 0.1-0.1 0.2-0.2 0.2h-2.1c-0.2 0-0.3-0.1-0.3-0.2s0.1-0.2 0.2-0.2h2.1c0.2 0 0.3 0.1 0.3 0.2z"/>
	<path class="st0" d="m4.8 3.7c0 0.1-0.1 0.2-0.2 0.2h-1.2c-0.1 0-0.2-0.1-0.2-0.2s0.1-0.2 0.2-0.2h1.3c0.1 0 0.1 0.1 0.1 0.2z"/>
</svg>
