<?xml version="1.0" encoding="UTF-8"?>
<svg enable-background="new 0 0 9.1 10" version="1.1" viewBox="0 0 9.1 10" xml:space="preserve" xmlns="http://www.w3.org/2000/svg">
<style type="text/css">
	.st0{fill:#FFFFFF;}
</style>
	<path class="st0" d="m9.1 4.6c0 2.4-0.7 4.4-1.6 4.5h-0.1c-0.1 0-0.3 0-0.4-0.1l-0.3-0.3-2.4-1.9h-2.6c-0.9 0-1.7-1-1.7-2.2 0-1.3 0.8-2.3 1.7-2.3h2.7l2.3-1.9 0.4-0.3c0.1-0.1 0.2-0.1 0.3-0.1h0.1c0.9 0.1 1.6 2.1 1.6 4.6zm-2-2.9c-0.7 0-1.3 1.3-1.3 2.9s0.5 2.9 1.2 2.9 1.2-1.3 1.2-2.9c0.1-1.6-0.5-2.9-1.1-2.9z"/>
	<path class="st0" d="M1.1,7.4v1.1c0,0.8,0.6,1.4,1.4,1.4C3.4,10,4,9.3,4,8.5V7.4H1.1z"/>
	<path class="st0" d="m7.8 4.5c0 0.5-0.4 1-1 1-0.5 0-0.6-0.4-0.6-1 0-0.5 0.1-1 0.6-1 0.6 0.1 1 0.5 1 1z"/>
</svg>
