<?xml version="1.0" encoding="UTF-8"?>
<svg width="18px" height="18px" enable-background="new 0 0 10.4 10.4" version="1.1" viewBox="0 0 10.4 10.4" xml:space="preserve" xmlns="http://www.w3.org/2000/svg">
<style type="text/css">
	.st0{fill:#3C7BEA;}
</style>
	<path class="st0" d="m8.7 0h-0.2v3.4c0 0.2-0.2 0.4-0.4 0.2l-0.9-0.9-1 0.9c-0.1 0.1-0.4 0-0.4-0.2v-3.4h-2.5v10.4h5.4c0.9 0 1.7-0.8 1.7-1.7v-7c0-0.9-0.7-1.7-1.7-1.7z"/>
	<path class="st0" d="m1.3 1.7v0.2h-0.7c-0.3 0-0.6 0.3-0.6 0.7s0.3 0.6 0.6 0.6h0.6v1.3h-0.6c-0.3 0-0.6 0.3-0.6 0.7s0.3 0.6 0.6 0.6h0.6v1.3h-0.6c-0.3 0-0.6 0.3-0.6 0.7s0.3 0.6 0.6 0.6h0.6v0.2c0 0.8 0.6 1.5 1.3 1.7v-10.2c-0.7 0.1-1.2 0.8-1.2 1.6z"/>
</svg>
