<?xml version="1.0" encoding="UTF-8"?>
<svg enable-background="new 0 0 10.4 10.4" version="1.1" viewBox="0 0 10.4 10.4" xml:space="preserve" xmlns="http://www.w3.org/2000/svg">
<style type="text/css">
	.st0{fill:#FFFFFF;}
</style>
		<path class="st0" d="m5.2 10.4c-2.9 0-5.2-2.3-5.2-5.2 0-1.5 0.6-2.9 1.7-3.9 0.4-0.4 1-0.3 1.4 0.1s0.3 1-0.1 1.4c-0.7 0.5-1.1 1.4-1.1 2.4 0 1.8 1.5 3.3 3.3 3.3s3.3-1.5 3.3-3.3c0-0.9-0.4-1.8-1.1-2.5-0.4-0.4-0.5-1-0.1-1.4s1-0.4 1.4-0.1c1.1 1 1.8 2.4 1.8 3.9-0.1 3-2.4 5.3-5.3 5.3z"/>
	<path class="st0" d="m6.2 4.2c0 0.5-0.4 1-1 1-0.5 0-1-0.4-1-1v-3.2c0-0.5 0.4-1 1-1 0.5 0 1 0.4 1 1v3.2z"/>
</svg>
