<?xml version="1.0" encoding="UTF-8"?>
<svg enable-background="new 0 0 10.4 8.5" height="18px" width="18px" version="1.1" viewBox="0 0 10.4 8.5" xml:space="preserve" xmlns="http://www.w3.org/2000/svg">
<style type="text/css">
	.st0{fill: #3C7BEA;}
</style>
	<path class="st0" d="m10.4 7.4c0 0.2-0.1 0.3-0.3 0.3h-9.8c-0.2 0-0.3-0.1-0.3-0.3s0.1-0.3 0.3-0.3h9.8c0.2 0 0.3 0.1 0.3 0.3z"/>
	<path class="st0" d="m3.6 6.9c0-0.3-0.2-0.5-0.5-0.5s-0.5 0.2-0.5 0.5v1.1c0 0.3 0.2 0.5 0.5 0.5s0.5-0.2 0.5-0.5v-1.1z"/>
	<path class="st0" d="m10.4 1.1c0 0.2-0.1 0.3-0.3 0.3h-9.8c-0.2 0-0.3-0.2-0.3-0.3 0-0.2 0.1-0.3 0.3-0.3h9.8c0.2-0.1 0.3 0.1 0.3 0.3z"/>
	<path class="st0" d="m3.6 0.5c0-0.3-0.3-0.5-0.5-0.5-0.3 0-0.6 0.2-0.6 0.5v1.1c0 0.3 0.2 0.5 0.5 0.5s0.5-0.2 0.5-0.5v-1.1z"/>
	<path class="st0" d="m0 4.2c0-0.2 0.1-0.3 0.3-0.3h9.8c0.2 0 0.3 0.1 0.3 0.3s-0.1 0.3-0.3 0.3h-9.8c-0.2 0.1-0.3-0.1-0.3-0.3z"/>
	<path class="st0" d="m6.8 4.8c0 0.3 0.2 0.5 0.5 0.5s0.5-0.2 0.5-0.5v-1.1c0-0.3-0.2-0.5-0.5-0.5s-0.5 0.2-0.5 0.5v1.1z"/>
	<circle class="st0" cx="3.1" cy="1.1" r="1.1"/>
	<circle class="st0" cx="7.4" cy="4.2" r="1.1"/>
	<circle class="st0" cx="3.1" cy="7.4" r="1.1"/>
</svg>
