<svg width="13" height="15" viewBox="0 0 13 15" fill="none" xmlns="http://www.w3.org/2000/svg">
    <path d="M10.7188 5.625H10.25V3.75C10.25 1.68182 8.56818 0 6.5 0C4.43182 0 2.75 1.68182 2.75 3.75V5.625H2.28125C1.50626 5.625 0.875 6.25557 0.875 7.03125V13.5938C0.875 14.3694 1.50626 15 2.28125 15H10.7188C11.4937 15 12.125 14.3694 12.125 13.5938V7.03125C12.125 6.25557 11.4937 5.625 10.7188 5.625ZM4.00004 3.75C4.00004 2.37122 5.12122 1.25004 6.5 1.25004C7.87878 1.25004 8.99996 2.37122 8.99996 3.75V5.625H4.00004V3.75Z" fill="#3C7BEA"/>
</svg>
