<?xml version="1.0" encoding="UTF-8"?>
<svg enable-background="new 0 0 402.2 306" version="1.1" viewBox="0 0 402.2 306" xml:space="preserve" xmlns="http://www.w3.org/2000/svg">
<style type="text/css">
	.st0{display:none;}
	.st1{display:inline;fill:#3D3D3D;}
	.st2{fill:#2c3552;}
</style>
<g class="st0">
	<path class="st1" d="m326.7 77.4c-2.2 11.3-4.1 21.3-6.9 35.7-0.7-7.8-7.4-32.6-18.8-61.6-4.7-11.9-10.1-24.6-16.1-37.1-15.7-32.2-53.1-16.3-72.2-5.3-7 4-16.4 4.1-23.5 0.2-19.4-10.5-57.3-25.5-73 7.2-5.6 11.8-10.7 23.6-15.1 34.9-11.3 29-18.1 53.8-18.8 61.6-2.8-14.4-4.7-24.4-6.9-35.7-45.9 5.5-75.4 16-75.4 35.6 0 34.2 90 75.7 201.1 75.7s201.1-41.5 201.1-75.7c0-19.6-29.5-30.1-75.5-35.5z"/>
</g>
<path class="st2" d="m329 220.3c-34.1-8.5-82.7-4.1-102.7 2.5-7.9 2.6-17.3 6.3-25.2 6.3s-17.3-3.7-25.2-6.3c-20-6.6-68.6-11-102.7-2.5-3.8 1-6.4 4.5-6.2 8.4l0.3 6.1c0.2 3 2.1 5.5 4.8 6.9 1.5 0.7 3 2.1 3.8 4.9 2 6.8 6.8 34.9 15.5 45.9 10.8 13.6 34 14.2 49.7 13.5 21.1-0.9 35-10.3 40.9-26.2s9.2-29.5 13-33.8c2-2.3 4.3-2.5 6.1-2.5s4.1 0.2 6.1 2.5c3.8 4.3 7.1 17.9 13 33.8s19.7 25.3 40.9 26.2c15.7 0.7 38.9 0.1 49.7-13.5 8.7-11 13.4-39 15.5-45.9 0.8-2.7 2.3-4.1 3.8-4.9 2.7-1.3 4.6-3.9 4.8-6.9l0.3-6.1c0.2-3.9-2.4-7.4-6.2-8.4zm-223.2 24c-3.9 2.8-6.7 5.8-8.6 8.3-1.1 1.4-3.3 0.6-3.3-1.1v-6c0-5.6 4.5-10.1 10.1-10.1h23.3s-14.6 3.9-21.5 8.9zm137.5 0c-3.9 2.8-6.7 5.8-8.6 8.3-1.1 1.4-3.3 0.6-3.3-1.1v-6c0-5.6 4.5-10.1 10.1-10.1h23.3c-0.1 0-14.6 3.9-21.5 8.9z"/>
<path class="st2" d="m402.1 111.3v-0.5c0-0.4-0.1-0.8-0.2-1.2 0-0.1 0-0.3-0.1-0.4-0.1-0.5-0.2-1-0.4-1.5 0-0.1-0.1-0.2-0.1-0.3-0.1-0.4-0.3-0.8-0.4-1.2-0.1-0.2-0.1-0.3-0.2-0.5l-0.6-1.2c0-0.1-0.1-0.2-0.1-0.3-0.2-0.5-0.5-0.9-0.8-1.4-0.1-0.1-0.2-0.3-0.3-0.4-0.2-0.3-0.4-0.6-0.7-1-0.1-0.1-0.2-0.3-0.3-0.4-0.3-0.4-0.7-0.8-1.1-1.2l-0.3-0.3c-0.3-0.3-0.6-0.7-1-1l-0.5-0.5c-0.3-0.3-0.6-0.5-0.9-0.8-0.2-0.1-0.3-0.3-0.5-0.4-0.4-0.4-0.9-0.7-1.4-1.1-0.2-0.1-0.4-0.3-0.6-0.4-0.3-0.2-0.7-0.5-1-0.7-0.2-0.2-0.5-0.3-0.7-0.5-0.4-0.2-0.8-0.5-1.2-0.7l-0.9-0.6c-0.4-0.3-0.9-0.5-1.3-0.8-0.3-0.2-0.6-0.3-0.9-0.5-0.4-0.2-0.7-0.4-1.1-0.5-0.3-0.2-0.6-0.3-1-0.5-0.5-0.2-1-0.5-1.5-0.7-0.4-0.2-0.9-0.4-1.3-0.6s-0.7-0.3-1.1-0.5-0.8-0.3-1.2-0.5c-0.4-0.1-0.7-0.3-1.1-0.4-0.6-0.2-1.3-0.5-1.9-0.7-0.5-0.2-0.9-0.3-1.4-0.5s-0.9-0.3-1.4-0.5c-0.4-0.1-0.7-0.2-1.1-0.3-0.5-0.2-1-0.3-1.5-0.5-0.4-0.1-0.7-0.2-1.1-0.3-0.9-0.3-1.8-0.5-2.8-0.8-0.3-0.1-0.7-0.2-1-0.3-0.6-0.1-1.1-0.3-1.7-0.4-0.4-0.1-0.7-0.2-1.1-0.3-0.6-0.1-1.2-0.3-1.8-0.4-9.9-2.4-21.3-4.3-34-5.8-6-0.9-12.2-1.8-18.8-2.6-2.1-5.9-4.4-12.2-6.9-18.7-4.7-11.9-10.1-24.6-16.1-37.1-15.7-32.2-53.1-16.3-72.2-5.3-7 4-16.4 4.1-23.5 0.2-19.4-10.5-57.3-25.5-73 7.2-5.6 11.8-10.7 23.6-15.1 34.9-2.5 6.5-4.8 12.7-6.9 18.6-7.3 0.9-14.2 1.8-20.8 2.8-11.9 1.5-22.7 3.3-32 5.5-0.6 0.1-1.2 0.3-1.8 0.4-0.4 0.1-0.7 0.2-1.1 0.3-0.6 0.1-1.1 0.3-1.7 0.4-0.3 0.1-0.7 0.2-1 0.3-1 0.3-1.9 0.5-2.8 0.8-0.4 0.1-0.7 0.2-1.1 0.3-0.5 0.2-1 0.3-1.5 0.5-0.4 0.1-0.7 0.2-1.1 0.3-0.5 0.2-0.9 0.3-1.4 0.5s-0.9 0.3-1.4 0.5c-0.7 0.2-1.3 0.5-1.9 0.7-0.4 0.1-0.7 0.3-1.1 0.4-0.4 0.2-0.8 0.3-1.2 0.5s-0.8 0.3-1.1 0.5c-0.5 0.2-0.9 0.4-1.4 0.6s-1 0.5-1.5 0.7c-0.3 0.2-0.6 0.3-1 0.5s-0.7 0.4-1.1 0.5c-0.3 0.2-0.6 0.3-0.9 0.5-0.5 0.2-0.9 0.5-1.3 0.7l-0.9 0.6c-0.4 0.2-0.8 0.5-1.1 0.7-0.2 0.2-0.5 0.3-0.7 0.5-0.3 0.2-0.7 0.5-1 0.7-0.2 0.1-0.4 0.3-0.6 0.4-0.5 0.4-0.9 0.7-1.4 1.1-0.2 0.1-0.3 0.3-0.5 0.4-0.3 0.3-0.6 0.5-0.9 0.8l-0.5 0.5c-0.3 0.3-0.7 0.6-1 1l-0.3 0.3c-0.4 0.4-0.7 0.8-1.1 1.2-0.1 0.1-0.2 0.3-0.3 0.4-0.2 0.3-0.5 0.6-0.7 1 0.3 0.7 0.2 0.8 0.2 1-0.3 0.4-0.6 0.9-0.8 1.4 0 0.1-0.1 0.2-0.1 0.3l-0.6 1.2c-0.1 0.1-0.1 0.3-0.2 0.5-0.2 0.4-0.3 0.8-0.4 1.2 0 0.1-0.1 0.2-0.1 0.3-0.1 0.5-0.3 1-0.4 1.5 0 0.1 0 0.3-0.1 0.4-0.1 0.4-0.1 0.8-0.2 1.2v0.5c0 0.5-0.1 1.1-0.1 1.6 0 34.2 90 75.7 201.1 75.7s201.1-41.5 201.1-75.7c0-0.8-0.1-1.3-0.1-1.8z"/>
</svg>
