<?xml version="1.0" encoding="UTF-8"?>
<svg width="36px" height="36px" enable-background="new 0 0 440.982 440.983" version="1.1" viewBox="0 0 440.982 440.983" xml:space="preserve" xmlns="http://www.w3.org/2000/svg">
	<path d="m376.5 64.677c-86.055-86.16-225.66-86.246-311.82-0.191-86.159 86.055-86.246 225.66-0.19 311.82 86.053 86.157 225.66 86.243 311.82 0.188 86.16-86.052 86.246-225.66 0.19-311.82zm-156.01 302.99c-81.199 0-147.26-66.062-147.26-147.26 0-25.983 6.87-51.536 19.87-73.894l-11.404-13.016c-1.649-1.881-2.167-4.499-1.364-6.865 0.805-2.367 2.813-4.127 5.266-4.613l77.536-16.767c2.451-0.486 4.978 0.372 6.625 2.253 1.647 1.879 2.169 4.494 1.362 6.863l-22.781 79.086c-0.805 2.367-2.811 4.125-5.264 4.613-2.452 0.486-4.979-0.371-6.626-2.253l-10.795-12.153c-4.537 11.709-6.838 24.07-6.838 36.744 0 56.062 45.61 101.67 101.67 101.67 56.063 0 101.67-45.609 101.67-101.67 0-53.487-41.782-98.056-95.121-101.46-3.684-0.234-6.552-3.291-6.552-6.984v-31.642c0-1.915 0.787-3.748 2.174-5.069 1.389-1.32 3.258-2.016 5.171-1.92 37.723 1.861 72.93 18.004 99.137 45.45 26.298 27.542 40.779 63.634 40.779 101.63 0 81.199-66.063 147.26-147.26 147.26z" fill="#7a7d80"/>
</svg>
