<?xml version="1.0" encoding="UTF-8"?>
<svg enable-background="new 0 0 24 24" version="1.1" viewBox="0 0 24 24" xml:space="preserve" xmlns="http://www.w3.org/2000/svg">
<g display="none">
	<rect x="-402" y="-182" width="520" height="520" display="inline" fill="#F1F1F2"/>
</g>
	<path d="M0,0h24v24H0V0z" fill="none"/>
		<path d="M20,5h-3.17l-1.24-1.35C15.22,3.24,14.68,3,14.12,3H9.88c-0.56,0-1.1,0.24-1.48,0.65L7.17,5H4C2.9,5,2,5.9,2,7v12    c0,1.1,0.9,2,2,2h16c1.1,0,2-0.9,2-2V7C22,5.9,21.1,5,20,5z M12,18c-2.76,0-5-2.24-5-5s2.24-5,5-5s5,2.24,5,5S14.76,18,12,18z"/>
		<polygon points="12 9 10.75 11.75 8 13 10.75 14.25 12 17 13.25 14.25 16 13 13.25 11.75"/>
<g display="none">
	<g display="inline">
		<path d="M16.83,5L15,3H9L7.17,5H2v16h20V5H16.83z M12,18c-2.76,0-5-2.24-5-5s2.24-5,5-5s5,2.24,5,5S14.76,18,12,18z"/>
		<polygon points="12 9 10.75 11.75 8 13 10.75 14.25 12 17 13.25 14.25 16 13 13.25 11.75"/>
	</g>
</g>
<g display="none">
	<g display="inline">
		<polygon points="12 10 11.06 12.06 9 13 11.06 13.94 12 16 12.94 13.94 15 13 12.94 12.06"/>
		<path d="M20,5h-3.17L15,3H9L7.17,5H4C2.9,5,2,5.9,2,7v12c0,1.1,0.9,2,2,2h16c1.1,0,2-0.9,2-2V7C22,5.9,21.1,5,20,5z M20,19H4V7    h3.17h0.88l0.59-0.65L9.88,5h4.24l1.24,1.35L15.95,7h0.88H20V19z"/>
		<path d="m12 8c-2.76 0-5 2.24-5 5s2.24 5 5 5 5-2.24 5-5-2.24-5-5-5zm0 8c-1.65 0-3-1.35-3-3s1.35-3 3-3 3 1.35 3 3-1.35 3-3 3z"/>
	</g>
</g>
<g display="none">
	<g display="inline">
		<path d="m15.95 7l-0.59-0.65-1.24-1.35h-4.24l-1.23 1.35-0.6 0.65h-4.05v12h16v-12h-4.05zm-3.95 11c-2.76 0-5-2.24-5-5s2.24-5 5-5 5 2.24 5 5-2.24 5-5 5z" opacity=".3"/>
		<polygon points="12 10 11.06 12.06 9 13 11.06 13.94 12 16 12.94 13.94 15 13 12.94 12.06"/>
			<path d="M20,5h-3.17L15,3H9L7.17,5H4C2.9,5,2,5.9,2,7v12c0,1.1,0.9,2,2,2h16c1.1,0,2-0.9,2-2V7C22,5.9,21.1,5,20,5z M20,19H4V7     h3.17h0.88l0.59-0.65L9.88,5h4.24l1.24,1.35L15.95,7h0.88H20V19z"/>
			<path d="m12 8c-2.76 0-5 2.24-5 5s2.24 5 5 5 5-2.24 5-5-2.24-5-5-5zm0 8c-1.65 0-3-1.35-3-3s1.35-3 3-3 3 1.35 3 3-1.35 3-3 3z"/>
	</g>
</g>
<g display="none">
	<path d="M9,3L7.17,5H4C2.9,5,2,5.9,2,7v12c0,1.1,0.9,2,2,2h16c1.1,0,2-0.9,2-2V7c0-1.1-0.9-2-2-2h-3.17L15,3H9z    M12,18c-2.76,0-5-2.24-5-5s2.24-5,5-5s5,2.24,5,5S14.76,18,12,18z" display="inline"/>
	<path d="M12,17l1.25-2.75L16,13l-2.75-1.25L12,9l-1.25,2.75L8,13l2.75,1.25L12,17z" display="inline"/>
</g>
</svg>
