<?xml version="1.0" encoding="UTF-8"?>
<svg enable-background="new 0 0 10.4 10.4" version="1.1" viewBox="0 0 10.4 10.4" xml:space="preserve" xmlns="http://www.w3.org/2000/svg">
<style type="text/css">
	.st0{fill:#FFFFFF;}
</style>
	<path class="st0" d="m9.2 8.2l-2-2.1c0.1-0.3 0.2-0.6 0.2-0.9 0-1.2-1-2.2-2.2-2.2-0.2 0-0.4 0.1-0.6 0.1l0.9 0.9c0.4 0.4 0.4 1-0.1 1.5-0.3 0.4-1 0.4-1.4 0l-0.9-0.9c0 0.2-0.1 0.4-0.1 0.6 0 1.2 1 2.2 2.2 2.2 0.3 0 0.6-0.1 0.9-0.2l2.1 2.1c0.3 0.3 0.7 0.2 1 0 0.3-0.4 0.3-0.8 0-1.1zm-0.5 0.8c-0.2 0-0.4-0.1-0.4-0.3s0.2-0.4 0.4-0.4 0.4 0.2 0.4 0.4-0.2 0.3-0.4 0.3z"/>
	<path class="st0" d="m9.7 4.2h-0.2-0.5c-0.1 0-0.2 0-0.3-0.1s-0.2-0.3-0.2-0.5v-0.2c0-0.1 0.1-0.1 0.1-0.2l0.1-0.1 0.3-0.3 0.1-0.1c0.2-0.3 0.2-0.7 0-0.9l-0.4-0.5c-0.3-0.2-0.7-0.2-1 0l-0.1 0.2-0.4 0.3c-0.2 0.2-0.4 0.2-0.6 0.1-0.1 0-0.1-0.1-0.2-0.1-0.1-0.2-0.2-0.3-0.2-0.4v-0.2-0.3-0.2c-0.1-0.4-0.3-0.7-0.7-0.7h-0.6c-0.3 0-0.6 0.3-0.7 0.7v0.2 0.4 0.1 0.1 0.1 0.1 0.1c0 0.1-0.1 0.1-0.2 0.2-0.1-0.1-0.2-0.1-0.4-0.1s-0.3-0.1-0.4-0.1l-0.1-0.1-0.3-0.3-0.1-0.1c-0.3-0.2-0.7-0.2-0.9 0l-0.5 0.4c-0.2 0.3-0.2 0.7 0 1l0.1 0.2 0.3 0.3v0.1 0.1c0 0.2 0 0.4-0.2 0.5 0.1 0.2 0 0.3-0.1 0.3h-0.2-0.3-0.2c-0.4 0.1-0.7 0.3-0.7 0.7v0.6c0 0.3 0.3 0.6 0.7 0.7h0.2 0.5 0.1c0.3 0.1 0.5 0.3 0.5 0.6 0 0.2-0.1 0.3-0.1 0.4l-0.2 0.1-0.3 0.3-0.1 0.1c-0.2 0.3-0.2 0.7 0 1l0.4 0.4c0.3 0.2 0.7 0.2 0.9 0l0.1-0.1 0.4-0.3h0.1 0.1c0.2 0 0.4 0.1 0.5 0.2 0.3-0.1 0.4 0 0.4 0.1v0.2 0.3 0.2c0 0.3 0.3 0.6 0.7 0.7h0.6c0.3 0 0.6-0.3 0.7-0.7v-0.2-0.4-0.1c0-0.1 0.1-0.2 0.1-0.3l0.1-0.1-0.4-0.7c-0.3 0.1-0.5 0.1-0.8 0.1-1.6 0-2.9-1.2-2.8-2.8 0-1.6 1.3-2.8 2.9-2.8s2.8 1.3 2.8 2.9c-0.1 0.2-0.1 0.4-0.2 0.7l0.6 0.6c0-0.1 0.1-0.1 0.1-0.2 0.1-0.1 0.1-0.1 0.2-0.1h0.2 0.2 0.3 0.2c0.3 0 0.6-0.3 0.7-0.7v-0.6c0-0.4-0.3-0.7-0.7-0.8z"/>
</svg>
