<svg width="18" height="18" viewBox="0 0 18 18" fill="none" xmlns="http://www.w3.org/2000/svg">
<circle cx="9" cy="9" r="9" fill="#3C7BEA"/>
<path d="M13.5572 8.93173H9.06816V4.44273C9.06816 4.26133 8.92304 4.11621 8.74165 4.11621C5.907 4.11621 3.59961 6.4236 3.59961 9.25825C3.59961 12.0929 5.907 14.4003 8.74165 14.4003C11.5763 14.4003 13.8837 12.0929 13.8837 9.25825C13.8837 9.07927 13.7361 8.93173 13.5572 8.93173ZM8.74165 13.7473C6.26737 13.7473 4.25264 11.7325 4.25264 9.25825C4.25264 6.89281 6.09081 4.94822 8.41513 4.78134V9.25825C8.41513 9.43965 8.56025 9.58477 8.74165 9.58477H13.2186C13.0517 11.9091 11.1071 13.7473 8.74165 13.7473Z" fill="white" stroke="white" stroke-width="0.3"/>
<path d="M15.117 8.00499C15.1122 6.75697 14.655 5.5549 13.8303 4.61889C12.8531 3.51357 11.4503 2.87988 9.97495 2.87988C9.79356 2.87988 9.64844 3.025 9.64844 3.2064V8.02192C9.64844 8.20332 9.79356 8.34844 9.97495 8.34844H14.7905C14.9719 8.34844 15.117 8.20332 15.117 8.02192C15.117 8.01708 15.117 8.01224 15.117 8.00499ZM10.3015 7.69782V3.54743C11.4673 3.63208 12.5605 4.17144 13.3393 5.05424C13.9923 5.79193 14.3793 6.72069 14.4519 7.69782H10.3015Z" fill="white" stroke="white" stroke-width="0.3"/>
</svg>
