<?xml version="1.0" encoding="UTF-8"?>
<svg enable-background="new 0 0 512 512" version="1.1" viewBox="0 0 512 512" xml:space="preserve" xmlns="http://www.w3.org/2000/svg">
		<path d="m444.86 109.78l-106.64-106.64c-1.931-1.937-4.6-3.138-7.554-3.138h-224c-23.521 0-42.667 19.135-42.667 42.667v426.67c0 23.531 19.146 42.666 42.667 42.666h298.67c23.52 0 42.666-19.135 42.666-42.667v-352c0-2.954-1.201-5.623-3.138-7.554zm-178.2 316.89h-106.67c-5.896 0-10.667-4.771-10.667-10.667s4.771-10.667 10.667-10.667h106.67c5.896 0 10.667 4.771 10.667 10.667-1e-3 5.896-4.771 10.667-10.667 10.667zm85.333-64h-192c-5.896 0-10.667-4.771-10.667-10.667s4.771-10.667 10.667-10.667h192c5.896 0 10.667 4.771 10.667 10.667s-4.771 10.667-10.667 10.667zm0-64h-192c-5.896 0-10.667-4.771-10.667-10.667s4.771-10.667 10.667-10.667h192c5.896 0 10.667 4.771 10.667 10.667s-4.771 10.667-10.667 10.667zm0-64h-192c-5.896 0-10.667-4.771-10.667-10.667s4.771-10.667 10.667-10.667h192c5.896 0 10.667 4.771 10.667 10.667s-4.771 10.667-10.667 10.667zm10.667-128c-11.771 0-21.333-9.573-21.333-21.333v-48.917l70.25 70.25h-48.917z" fill="#2c3552"/>
</svg>
