<?xml version="1.0" encoding="UTF-8"?>
<svg width="45px" height="45px" enable-background="new 0 0 502 502" version="1.1" viewBox="0 0 502 502" xml:space="preserve" xmlns="http://www.w3.org/2000/svg">
	<g fill="#c5c5c4">
		<path d="m420.24 153.23l12.837-12.837 12.57 12.57c1.953 1.953 4.512 2.929 7.071 2.929s5.118-0.977 7.071-2.929c3.905-3.905 3.905-10.237 0-14.142l-40.344-40.343c-3.906-3.905-10.236-3.905-14.143 0-3.905 3.905-3.905 10.237 0 14.142l13.632 13.632-11.835 11.835c-1.237-1.299-2.492-2.585-3.764-3.857-38.325-38.325-88.545-60.425-142.34-62.866v-15.27h44.146c5.522 0 10-4.477 10-10v-36.097c0-5.523-4.478-10-10-10h-108.29c-5.522 0-10 4.477-10 10v36.097c0 5.523 4.478 10 10 10h44.146v15.27c-53.79 2.441-104.01 24.541-142.34 62.865-40.689 40.69-63.099 94.79-63.099 152.33s22.41 111.64 63.099 152.34c40.69 40.69 94.79 63.099 152.34 63.099s111.64-22.409 152.34-63.099c40.689-40.69 63.099-94.791 63.099-152.34 0-48.993-16.255-95.484-46.194-133.33zm-213.39-133.23h88.291v16.097h-88.291v-16.097zm44.146 462c-107.76 0-195.43-87.671-195.43-195.43 0-107.76 87.671-195.43 195.43-195.43s195.43 87.671 195.43 195.43-87.671 195.43-195.43 195.43z"/>
		<path d="m251 112.54c-95.96 0-174.03 78.069-174.03 174.03 0 95.96 78.068 174.03 174.03 174.03s174.03-78.069 174.03-174.03-78.068-174.03-174.03-174.03zm0 328.06c-84.932 0-154.03-69.097-154.03-154.03s69.096-154.03 154.03-154.03 154.03 69.097 154.03 154.03-69.096 154.03-154.03 154.03z"/>
		<path d="m251 200.66c-5.522 0-10 4.477-10 10v75.379c0 5.523 4.478 10 10 10s10-4.477 10-10v-75.379c0-5.523-4.478-10-10-10z"/>
		<path d="m251 387.51c-5.522 0-10 4.477-10 10v18.048c0 5.523 4.478 10 10 10s10-4.477 10-10v-18.048c0-5.523-4.478-10-10-10z"/>
		<path d="m324.61 370.34c-3.247-4.469-9.501-5.458-13.968-2.212-4.468 3.246-5.458 9.5-2.212 13.968l10.609 14.602c1.957 2.693 5.006 4.123 8.098 4.123 2.038 0 4.096-0.621 5.87-1.911 4.468-3.246 5.458-9.5 2.212-13.968l-10.609-14.602z"/>
		<path d="m377.28 316.55l-17.165-5.578c-5.254-1.706-10.896 1.167-12.602 6.42-1.706 5.252 1.168 10.894 6.42 12.601l17.165 5.578c1.027 0.333 2.068 0.492 3.093 0.492 4.215 0 8.136-2.687 9.509-6.913 1.706-5.252-1.168-10.893-6.42-12.6z"/>
		<path d="m357.02 261.59c1.023 0 2.065-0.159 3.092-0.492l17.165-5.577c5.253-1.707 8.127-7.348 6.421-12.601-1.706-5.251-7.347-8.127-12.601-6.42l-17.165 5.577c-5.253 1.707-8.127 7.348-6.421 12.601 1.373 4.225 5.293 6.912 9.509 6.912z"/>
		<path d="m333.01 173.16c-4.464-3.246-10.722-2.257-13.968 2.212l-10.609 14.602c-3.246 4.468-2.256 10.722 2.212 13.968 1.774 1.29 3.831 1.911 5.87 1.911 3.092 0 6.142-1.429 8.098-4.123l10.609-14.602c3.246-4.468 2.256-10.722-2.212-13.968z"/>
		<path d="m251 146.51c-5.522 0-10 4.477-10 10v18.048c0 5.523 4.478 10 10 10s10-4.477 10-10v-18.048c0-5.523-4.478-10-10-10z"/>
		<path d="m182.96 175.37c-3.248-4.469-9.502-5.458-13.968-2.212-4.468 3.246-5.458 9.5-2.212 13.968l10.609 14.602c1.957 2.693 5.006 4.123 8.098 4.123 2.038 0 4.096-0.621 5.87-1.911 4.468-3.246 5.458-9.5 2.212-13.968l-10.609-14.602z"/>
		<path d="m148.07 242.08l-17.165-5.577c-5.25-1.706-10.895 1.168-12.601 6.42-1.706 5.253 1.168 10.895 6.421 12.601l17.165 5.577c1.026 0.333 2.067 0.492 3.092 0.492 4.215 0 8.136-2.687 9.509-6.913 1.706-5.252-1.168-10.894-6.421-12.6z"/>
		<path d="m141.89 310.97l-17.165 5.578c-5.252 1.707-8.126 7.349-6.42 12.601 1.373 4.226 5.293 6.913 9.509 6.913 1.023 0 2.065-0.159 3.093-0.492l17.165-5.578c5.252-1.707 8.126-7.348 6.42-12.601-1.707-5.252-7.344-8.128-12.602-6.421z"/>
		<path d="m191.35 368.13c-4.464-3.245-10.722-2.258-13.968 2.212l-10.609 14.602c-3.246 4.468-2.256 10.722 2.212 13.968 1.774 1.29 3.831 1.911 5.87 1.911 3.092 0 6.142-1.429 8.098-4.123l10.609-14.602c3.247-4.468 2.256-10.722-2.212-13.968z"/>
	</g>
</svg>
