<?xml version="1.0" encoding="UTF-8"?>
<svg enable-background="new 0 0 25 25" fill="#fff" version="1.1" viewBox="0 0 25 25" xml:space="preserve" xmlns="http://www.w3.org/2000/svg">
	<path class="st3" d="m8.2 6.6c0.2-0.5 0.6-1 1.9-1 1.1 0 2.2 0 3.2 0.1s1.3 0.5 1.3 1.5c0 1.3-0.4 3.3 0.1 5 0.1 0.4 0.5 0.5 0.8 0.2 1.9-1.8 2.7-3.9 3.3-5.3 0.5-1.3 3.6-1 5.1-0.8 1 0.1 1.3 0.5 0.9 1.4-0.3 0.6-0.6 1.3-1 1.9-0.7 1-1.5 2-2.2 3-0.9 1.1-0.8 1.4 0.2 2.4 0.9 0.9 2.4 2.4 3 3.4 0.5 0.8 0.2 1.5-0.8 1.6-1.4 0.1-2.7 0.1-4.1 0-0.6-0.1-1.1-0.5-1.6-0.9s-1.4-1.5-1.9-2c-0.7-0.7-1.3-0.5-1.5 0.4-0.1 0.5-0.2 0.9-0.2 1.4-0.1 0.8-0.4 1-1.2 1-3.9 0.3-6.7-1.5-8.9-4.5-1.8-2.5-3.2-5.2-4.5-8-0.3-0.7-0.1-1.1 0.7-1.1h3.4c0.6 0 1 0.3 1.2 0.8 0.7 1.7 2.2 4.8 3.2 5.4 0.3 0.2 0.4-0.1 0.6-0.5 0.4-0.9 0.6-2.7 0.4-3.7-0.1-1.3-1.2-1.7-1.4-1.7z"/>
</svg>
