<?xml version="1.0" encoding="UTF-8"?>
<svg style="" version="1.1" viewBox="0 0 512 512" xml:space="preserve" xmlns="http://www.w3.org/2000/svg"><rect width="100%" height="100%" fill="none"/>
<g class="currentLayer" style=""><title>Layer 1</title><g class="">
		<path d="m460.77 79.806h-67.99v-22.663h-271.96v22.663h-67.99c-13.598-1.5e-14 -22.663 9.0654-22.663 22.663v54.392c0 52.126 38.528 95.187 90.654 101.99v2.2663c0 65.724 45.327 120.12 106.52 133.71l-15.864 47.593h-52.126c-9.0654 0-18.131 6.799-20.397 15.864l-18.131 52.126h271.96l-18.131-52.126c-2.2663-9.0654-11.332-15.864-20.397-15.864h-52.126l-15.864-47.593c61.191-13.598 106.52-67.99 106.52-133.71v-2.2663c52.126-6.799 90.654-49.86 90.654-101.99v-54.392c1.3e-14 -13.598-9.0654-22.663-22.663-22.663zm-339.95 133.71c-24.93-6.799-45.327-29.463-45.327-56.659v-31.729h45.327v88.388zm181.31 70.257l-45.327-24.93-45.327 24.93 11.332-45.327-33.995-45.327h47.593l20.397-45.327 20.397 45.327h47.593l-33.995 45.327 11.332 45.327zm135.98-126.92c0 27.196-20.397 52.126-45.327 56.659v-88.388h45.327v31.729z" fill="#c4c4c4"/>
</g></g></svg>
