<?xml version="1.0" encoding="UTF-8"?>
<svg enable-background="new 0 0 55.125 55.125" version="1.1" viewBox="0 0 54.726 41.027" xml:space="preserve" xmlns="http://www.w3.org/2000/svg"><rect class="" width="100%" height="100%" fill="none" style=""/>
<g class="currentLayer" style=""><title>Layer 1</title><g class="">
		<path d="m3.893 39.884h46.792c2.302 0 4.167-1.866 4.167-4.167v-30.555c0-2.301-1.865-4.167-4.167-4.167h-46.792c-2.301-3e-16 -4.167 1.866-4.167 4.167v30.555c0 2.301 1.866 4.167 4.167 4.167zm26.604-2.925h-6.418v-3.965h6.418v3.965zm15.294-32.944h6.418v3.965h-6.418v-3.965zm-0.19 28.979h6.419v3.965h-6.419v-3.965zm-10.572-28.979h6.419v3.965h-6.419v-3.965zm-0.189 28.979h6.419v3.965h-6.419v-3.965zm-10.571-28.979h6.418v3.965h-6.418v-3.965zm-1.8 9.579l9.639 4.82c2.237 1.119 2.237 2.933 0 4.051l-9.639 4.821c-2.237 1.118-4.052-3e-3 -4.052-2.506v-8.681c-1e-3 -2.502 1.814-3.623 4.052-2.505zm-8.961-9.579h6.419v3.965h-6.419v-3.965zm-0.189 28.979h6.418v3.965h-6.418v-3.965zm-10.572-28.979h6.419v3.965h-6.419v-3.965zm-0.189 28.979h6.419v3.965h-6.419v-3.965z" fill="#c4c4c4"/>
</g></g></svg>
