<?xml version="1.0" encoding="UTF-8"?>
<svg enable-background="new 0 0 512 512" version="1.1" viewBox="0 0 512 512" xml:space="preserve" xmlns="http://www.w3.org/2000/svg">
<circle cx="256" cy="256" r="256" fill="#175D76"/>
<path d="m511.25 236.23l-101.26-101.26-7.468 19.241-77.214-77.215-31.354 35.472 141.05 142.16v9.062l-53.466-53.466-3.016 4.812-148.27-148.27-82.985 78.723-27.012-27.012 15.061 40.904-63.946 110.6 54.268 53.881-25.841 46.543 141.14 141.14c4.987 0.29 10.009 0.454 15.069 0.454 62.724 0 120.17-22.571 164.68-60.018l20.649-20.649 0.611 0.611c43.42-45.872 70.056-107.8 70.056-175.94 0-6.651-0.255-13.243-0.753-19.767z" fill="#00263F"/>
<polygon points="335.47 342.71 373.96 216.38 298.79 252.6 256 188.76 213.21 252.6 138.04 216.38 176.53 342.71" fill="#FFDC00"/>
<polygon points="373.96 216.38 298.79 252.6 256 188.76 256 342.71 335.47 342.71" fill="#FFC000"/>
<circle cx="256" cy="188.76" r="19.471" fill="#FFB344"/>
<path d="m256 169.29v38.942c10.754 0 19.471-8.717 19.471-19.471s-8.717-19.471-19.471-19.471z" fill="#FF9451"/>
<circle cx="141.66" cy="217.51" r="13.358" fill="#FFB344"/>
<circle cx="370.34" cy="217.51" r="13.358" fill="#FF9451"/>
<path d="m427.16 279.3c19.819-8.206 29.233-30.923 21.028-50.742l-5.594-13.511-13.512 5.595c-3.773 1.562-7.166 3.652-10.134 6.146-2.52-14.22-6.885-27.976-13.014-41.012l2.79-3.43c13.535-16.642 11.016-41.106-5.626-54.641l-11.343-9.225-9.227 11.346c-3.006 3.696-5.216 7.779-6.659 12.041-10.599-11.164-22.614-20.72-35.771-28.472v-4.241c0-23.409-18.976-42.385-42.384-42.385h-15.955v15.957c0 21.665 16.258 39.521 37.237 42.063 50.049 23.923 82.508 74.463 82.508 131.21 0 80.229-65.271 145.5-145.5 145.5s-145.5-65.271-145.5-145.5c0-56.747 32.459-107.29 82.509-131.21 20.979-2.541 37.238-20.397 37.238-42.063v-15.957h-15.957c-23.408 0-42.384 18.976-42.383 42.385v4.241c-13.156 7.752-25.171 17.309-35.771 28.473-1.443-4.263-3.653-8.347-6.66-12.043l-9.226-11.345-11.344 9.226c-16.642 13.534-19.16 37.998-5.625 54.64l2.79 3.43c-6.129 13.036-10.494 26.792-13.014 41.012-2.969-2.494-6.362-4.584-10.135-6.146l-13.512-5.594-5.594 13.511c-8.205 19.819 1.209 42.537 21.028 50.743l7.792 3.226c2.726 16.847 8.002 32.847 15.421 47.595-4.143-0.229-8.391 0.196-12.609 1.376l-14.096 3.945 3.947 14.087c5.785 20.651 27.214 32.705 47.866 26.925l7.331-2.052c11.591 11.31 24.835 20.928 39.323 28.475-4.486 3.206-8.361 7.416-11.244 12.539l-7.178 12.756 12.752 7.171c18.693 10.512 42.369 3.883 52.886-14.808l0.811-1.442c9.153 1.576 18.558 2.404 28.154 2.404 9.595 0 19-0.831 28.152-2.406l0.813 1.444c10.517 18.691 34.192 25.32 52.886 14.808l12.752-7.171-7.178-12.756c-2.881-5.12-6.753-9.327-11.235-12.532 14.488-7.546 27.724-17.173 39.314-28.482l7.331 2.052c20.653 5.78 42.081-6.274 47.866-26.925l3.947-14.087-14.096-3.945c-4.218-1.18-8.466-1.605-12.609-1.376 7.419-14.748 12.695-30.749 15.421-47.595l7.792-3.228z" fill="#8CC63F"/>
	<path d="m427.16 279.3c19.819-8.206 29.233-30.923 21.028-50.742l-5.594-13.511-13.512 5.595c-3.773 1.562-7.166 3.652-10.134 6.146-2.52-14.22-6.885-27.976-13.014-41.012l2.79-3.43c13.535-16.642 11.016-41.106-5.626-54.641l-11.343-9.225-9.227 11.346c-3.006 3.696-5.216 7.779-6.659 12.041-10.599-11.164-22.614-20.72-35.771-28.472v-4.241c0-23.409-18.976-42.385-42.384-42.385h-15.955v15.957c0 21.665 16.258 39.521 37.237 42.063 50.049 23.923 82.508 74.463 82.508 131.21 0 80.229-65.271 145.5-145.5 145.5s-145.5-65.271-145.5-145.5c0-56.747 32.459-107.29 82.509-131.21 20.979-2.541 37.238-20.397 37.238-42.063v-15.957h-15.957c-23.408 0-42.384 18.976-42.383 42.385v4.241c-13.156 7.752-25.171 17.309-35.771 28.473-1.443-4.263-3.653-8.347-6.66-12.043l-9.226-11.345-11.344 9.226c-16.642 13.534-19.16 37.998-5.625 54.64l2.79 3.43c-6.129 13.036-10.494 26.792-13.014 41.012-2.969-2.494-6.362-4.584-10.135-6.146l-13.512-5.594-5.594 13.511c-8.205 19.819 1.209 42.537 21.028 50.743l7.792 3.226c2.726 16.847 8.002 32.847 15.421 47.595-4.143-0.229-8.391 0.196-12.609 1.376l-14.096 3.945 3.947 14.087c5.785 20.651 27.214 32.705 47.866 26.925l7.331-2.052c11.591 11.31 24.835 20.928 39.323 28.475-4.486 3.206-8.361 7.416-11.244 12.539l-7.178 12.756 12.752 7.171c18.693 10.512 42.369 3.883 52.886-14.808l0.811-1.442c9.153 1.576 18.558 2.404 28.154 2.404 9.595 0 19-0.831 28.152-2.406l0.813 1.444c10.517 18.691 34.192 25.32 52.886 14.808l12.752-7.171-7.178-12.756c-2.881-5.12-6.753-9.327-11.235-12.532 14.488-7.546 27.724-17.173 39.314-28.482l7.331 2.052c20.653 5.78 42.081-6.274 47.866-26.925l3.947-14.087-14.096-3.945c-4.218-1.18-8.466-1.605-12.609-1.376 7.419-14.748 12.695-30.749 15.421-47.595l7.792-3.228z" fill="#8CC63F"/>
<path d="m427.16 279.3c19.819-8.206 29.233-30.923 21.028-50.742l-5.594-13.511-13.512 5.595c-3.773 1.562-7.166 3.652-10.134 6.146-2.52-14.22-6.885-27.976-13.014-41.012l2.79-3.43c13.535-16.642 11.016-41.106-5.626-54.641l-11.343-9.225-9.227 11.346c-3.006 3.696-5.216 7.779-6.659 12.041-10.599-11.164-22.614-20.72-35.771-28.472v-4.241c0-23.409-18.976-42.385-42.384-42.385h-15.955v15.957c0 21.665 16.258 39.521 37.237 42.063 50.049 23.923 82.508 74.463 82.508 131.21 0 80.229-65.271 145.5-145.5 145.5v20c9.595 0 19-0.831 28.152-2.406l0.813 1.444c10.517 18.691 34.192 25.32 52.886 14.808l12.752-7.171-7.178-12.756c-2.881-5.12-6.753-9.327-11.235-12.532 14.488-7.546 27.724-17.173 39.314-28.482l7.331 2.052c20.653 5.78 42.081-6.274 47.866-26.925l3.947-14.087-14.096-3.945c-4.218-1.18-8.466-1.605-12.609-1.376 7.419-14.748 12.695-30.749 15.421-47.595l7.792-3.228z" fill="#39B54A"/>
</svg>
