<svg width="567" height="70" viewBox="0 0 567 70" fill="none" xmlns="http://www.w3.org/2000/svg">
    <path d="M0.736001 68H15.52V0.799995H0.736001V68ZM30.778 68H45.37V39.296C45.37 32.384 48.922 28.832 54.49 28.832C60.058 28.832 63.322 32.384 63.322 39.296V68H77.914V34.688C77.914 22.88 71.482 15.584 60.442 15.584C53.05 15.584 48.73 19.52 45.37 23.84V16.544H30.778V68ZM104.364 68.384H117.612L137.868 16.544H122.7L111.084 51.008L99.5635 16.544H84.1075L104.364 68.384ZM167.756 69.152C177.068 69.152 183.98 65.504 188.78 59.552L180.428 52.16C176.396 55.904 172.844 57.44 167.948 57.44C161.42 57.44 156.812 53.984 155.372 47.36H191.18C191.276 46.016 191.372 44.672 191.372 43.52C191.372 28.928 183.5 15.584 166.316 15.584C151.34 15.584 140.876 27.68 140.876 42.368C140.876 58.304 152.3 69.152 167.756 69.152ZM155.18 38.24C156.332 31.616 160.268 27.296 166.316 27.296C172.46 27.296 176.3 31.712 177.164 38.24H155.18ZM220.295 68.96C231.431 68.96 239.975 63.776 239.975 52.352C239.975 42.752 231.623 39.296 224.423 36.896C218.855 34.976 213.959 33.632 213.959 30.752C213.959 28.544 215.783 27.008 219.335 27.008C223.079 27.008 228.167 28.832 233.255 31.808L238.823 21.728C233.255 17.984 226.151 15.776 219.623 15.776C209.255 15.776 200.807 21.632 200.807 32.096C200.807 42.272 208.967 45.632 216.167 47.744C221.831 49.472 226.823 50.528 226.823 53.696C226.823 56.192 224.903 57.728 220.679 57.728C215.879 57.728 210.023 55.616 204.455 51.584L198.215 61.184C205.031 66.56 213.095 68.96 220.295 68.96ZM266.873 68.864C271.769 68.864 275.321 67.712 278.393 65.888V54.176C276.281 55.328 273.881 56 271.193 56C267.929 56 266.489 54.368 266.489 51.008V29.024H278.585V16.544H266.489V3.392H251.897V16.544H245.753V29.024H251.897V53.408C251.897 65.312 257.945 68.864 266.873 68.864ZM285.117 68H300.189L306.333 52.928H334.749L340.893 68H356.349L327.549 0.319996H313.917L285.117 68ZM311.613 39.872L320.541 18.08L329.469 39.872H311.613ZM365.184 68H379.776V48.992C379.776 36.704 385.728 30.848 395.424 30.848H396.192V15.584C387.552 15.2 382.752 19.808 379.776 26.912V16.544H365.184V68ZM428.287 69.152C437.599 69.152 444.511 65.504 449.311 59.552L440.959 52.16C436.927 55.904 433.375 57.44 428.479 57.44C421.951 57.44 417.343 53.984 415.903 47.36H451.711C451.807 46.016 451.903 44.672 451.903 43.52C451.903 28.928 444.031 15.584 426.847 15.584C411.871 15.584 401.407 27.68 401.407 42.368C401.407 58.304 412.831 69.152 428.287 69.152ZM415.711 38.24C416.863 31.616 420.799 27.296 426.847 27.296C432.991 27.296 436.831 31.712 437.695 38.24H415.711ZM462.778 68H477.37V39.296C477.37 32.384 480.922 28.832 486.49 28.832C492.058 28.832 495.322 32.384 495.322 39.296V68H509.914V34.688C509.914 22.88 503.482 15.584 492.442 15.584C485.05 15.584 480.73 19.52 477.37 23.84V16.544H462.778V68ZM537.183 68.96C544.286 68.96 549.183 66.368 552.735 62.432V68H566.847V38.144C566.847 31.232 565.119 25.568 561.279 21.728C557.631 18.08 551.871 15.968 543.903 15.968C535.167 15.968 529.599 17.6 523.935 20.096L527.583 31.232C532.287 29.504 536.223 28.448 541.791 28.448C549.087 28.448 552.831 31.808 552.831 37.856V38.72C549.183 37.472 545.439 36.608 540.255 36.608C528.062 36.608 519.519 41.792 519.519 53.024C519.519 63.392 527.487 68.96 537.183 68.96ZM541.599 58.88C536.895 58.88 533.631 56.576 533.631 52.64C533.631 47.84 537.471 45.344 543.711 45.344C547.263 45.344 550.527 46.112 553.023 47.264V49.856C553.023 55.136 548.415 58.88 541.599 58.88Z" fill="#1C1F23"/>
</svg>
