<svg width="70" height="70" viewBox="0 0 32 32" fill="none" xmlns="http://www.w3.org/2000/svg">
<path d="M1.29028 16.2903C1.29028 12.312 2.87064 8.49673 5.68368 5.68368C8.49673 2.87064 12.312 1.29028 16.2903 1.29028L16.2903 2.79028C12.7099 2.79028 9.27608 4.2126 6.74434 6.74434C4.2126 9.27608 2.79028 12.7099 2.79028 16.2903L1.29028 16.2903Z" fill="#007CEC"/>
<path d="M30 15C30 16.9698 29.612 18.9204 28.8582 20.7403C28.1044 22.5601 26.9995 24.2137 25.6066 25.6066C24.2137 26.9995 22.5601 28.1044 20.7403 28.8582C18.9204 29.612 16.9698 30 15 30L15 28.5C16.7728 28.5 18.5283 28.1508 20.1662 27.4724C21.8041 26.7939 23.2924 25.7995 24.5459 24.5459C25.7995 23.2924 26.7939 21.8041 27.4724 20.1662C28.1508 18.5283 28.5 16.7728 28.5 15L30 15Z" fill="#001B4C"/>
</svg>
