<svg width="108" height="101" viewBox="0 0 108 101" fill="none" xmlns="http://www.w3.org/2000/svg">
    <path fill-rule="evenodd" clip-rule="evenodd" d="M4.31361 44.3682C4.33497 40.6362 6.58573 36.4849 9.76755 34.5505L33.9024 20.6456C33.8469 21.8139 32.5998 23.8639 31.2331 23.3461L35.1281 25.5587C36.6101 25.8669 38.4765 22.5586 37.1269 21.6214L34.6712 20.1962L62.5558 4.05731C64.072 3.18424 65.5796 2.29406 67.3862 3.06441C66.6345 2.63216 63.8884 0.954498 63.2733 0.774749C61.3685 0.222663 59.5192 1.5665 57.9646 2.46525L8.70836 30.9726C4.11715 33.6089 0.674807 36.3865 0.64064 42.2411V80.9557C0.657724 82.2995 1.00367 83.9044 2.19525 84.6962L5.87249 86.8232C4.65955 85.9073 4.33497 84.5421 4.30934 83.0827V44.3682H4.31361Z" fill="#BDEDF8"/>
    <path fill-rule="evenodd" clip-rule="evenodd" d="M31.5278 22.7643C31.6516 22.7986 31.8524 22.7986 32.13 22.6231C32.3136 22.499 32.4759 22.3235 32.6425 22.1309L31.5278 22.7643ZM32.9884 23.5989L35.3502 24.9299C35.7389 24.9256 36.3752 24.3393 36.7383 23.4962C36.9603 22.9954 37.0543 22.3578 36.7596 22.1523L34.5259 20.8684C34.4149 21.7586 33.8469 22.9484 32.9884 23.5989ZM62.3551 1.30145C62.59 1.30145 62.8462 1.33568 63.0811 1.40844C63.3203 1.47264 64.0378 1.87065 64.7852 2.30291C63.8883 2.55113 63.047 3.03474 62.2441 3.50551L34.3423 19.6401C34.1928 19.7214 34.0818 19.8541 34.0519 20.0125C33.881 19.9739 33.7187 19.9953 33.5735 20.0852L9.43868 33.9944C6.10738 36.0101 3.6986 40.3712 3.66016 44.3599V44.3642V83.083C3.67724 83.6222 3.71568 84.2642 3.88225 84.9233L2.54973 84.1486C1.48627 83.4339 1.30262 81.8333 1.28554 80.9474V42.2457C1.31971 36.9902 4.15558 34.3368 9.04149 31.5292L58.2892 3.03474L58.8957 2.67952C60.0275 1.99476 61.1806 1.30145 62.3551 1.30145ZM5.87248 87.4697C5.76144 87.4697 5.6504 87.444 5.54362 87.3798L1.86638 85.2571C0.256254 84.1914 0 82.1072 0 80.9645V42.2414C0.0341672 35.7533 4.14704 32.8346 8.3795 30.408L58.2166 1.56679C59.6772 0.689443 61.4924 -0.40189 63.4527 0.150196C63.9268 0.295707 65.1525 0.984745 67.0702 2.12744L67.7108 2.50833C68.0098 2.67952 68.1165 3.05186 67.9713 3.36C67.8218 3.66386 67.4588 3.80509 67.1342 3.66814C65.6309 3.03046 64.388 3.74946 62.9573 4.58829L35.9695 20.2008L37.4515 21.061C38.2886 21.6473 38.4552 22.7686 37.9256 24.014C37.3746 25.2851 36.2044 26.4449 34.9957 26.1967C34.9402 26.1881 34.8676 26.1625 34.8121 26.1282L30.8957 23.9113C30.6736 23.7829 30.5668 23.5475 30.5882 23.3036L10.0921 35.1157C7.14948 36.9046 4.97132 40.7992 4.95424 44.3685V83.083C4.97132 84.6451 5.37279 85.6423 6.25259 86.3056C6.52593 86.5111 6.59854 86.8962 6.40207 87.1787C6.2953 87.3713 6.07322 87.4697 5.87248 87.4697Z" fill="#1A87C7"/>
    <path fill-rule="evenodd" clip-rule="evenodd" d="M36.0079 21.7369C36.8835 21.2361 37.5796 21.6384 37.5796 22.6442C37.5796 23.6499 36.8835 24.8654 36.0079 25.3618C35.1409 25.8625 34.4533 25.4602 34.4533 24.4545C34.4533 23.4573 35.1452 22.2333 36.0079 21.7369ZM4.3136 44.3681V83.0826C4.3136 84.9828 4.97559 86.3224 6.07321 86.9473C7.15374 87.5764 8.63147 87.4908 10.28 86.5364C24.5875 78.2551 49.0683 64.0934 63.3716 55.8121C65.0201 54.862 66.5064 53.2272 67.5784 51.3484C68.6803 49.4739 69.338 47.3597 69.338 45.4552V7.04024C69.338 5.14004 68.6803 3.80476 67.5784 3.17564C66.5021 2.5508 65.0201 2.64067 63.3716 3.59077C55.2526 8.28993 25.2111 25.6785 12.3813 33.091C9.80597 34.5846 8.02928 35.0511 6.07321 38.4749C4.97559 40.358 4.3136 42.4679 4.3136 44.3681Z" fill="white"/>
    <path fill-rule="evenodd" clip-rule="evenodd" d="M36.0079 21.7367H36.025H36.0079ZM36.7212 22.1689C36.6272 22.1689 36.4991 22.2074 36.3368 22.2973C35.6791 22.6825 35.0982 23.6968 35.0982 24.4586C35.0982 24.7239 35.1708 24.878 35.2221 24.9165C35.3118 24.955 35.4741 24.9336 35.6962 24.8052C36.3539 24.4201 36.9433 23.4143 36.9433 22.644C36.9433 22.3829 36.8664 22.2245 36.7938 22.186C36.7767 22.1775 36.7596 22.1689 36.7212 22.1689ZM35.3075 26.2304C35.0555 26.2304 34.795 26.1619 34.5772 26.0335C34.0818 25.7468 33.7871 25.1733 33.7871 24.4543C33.7871 23.226 34.6284 21.7837 35.6876 21.1717C36.3112 20.8122 36.9518 20.7737 37.4472 21.0605C37.9384 21.3472 38.2288 21.925 38.2288 22.6397C38.2288 23.868 37.3917 25.3102 36.324 25.9222C35.9866 26.1234 35.6406 26.2304 35.3075 26.2304ZM66.0281 3.42793C65.3405 3.42793 64.529 3.67187 63.709 4.15548L12.7145 33.6557C12.2575 33.9168 11.8347 34.1436 11.4332 34.3576C9.52838 35.3847 8.15742 36.1294 6.61563 38.8C5.55645 40.6617 4.95425 42.6432 4.95425 44.3679V83.0824C4.95425 84.6788 5.46249 85.8514 6.37646 86.3864C7.31606 86.9171 8.57597 86.7716 9.94266 85.9713L63.0427 55.2556C64.5418 54.3868 65.9469 52.8889 67.0317 51.0229C68.0909 49.1612 68.6974 47.1883 68.6974 45.4593V7.04003C68.6974 5.44797 68.1849 4.27104 67.2709 3.74035C66.9079 3.53064 66.4893 3.42793 66.0281 3.42793ZM7.62783 87.9999C6.93168 87.9999 6.30813 87.833 5.7401 87.5077C4.40758 86.7331 3.6559 85.1667 3.6559 83.0824V44.3679C3.6559 42.4164 4.31362 40.208 5.5052 38.1495C7.22637 35.1536 8.89202 34.2592 10.8097 33.2149C11.2111 33.0052 11.6168 32.7827 12.0568 32.5302L63.0513 3.02991C64.8578 1.98566 66.579 1.8487 67.9158 2.61478C69.2483 3.39369 70 4.96436 70 7.04003V45.455C70 47.4065 69.3423 49.6149 68.1507 51.6734C66.9591 53.7363 65.3874 55.4054 63.7047 56.3769L10.6132 87.1011C9.57109 87.696 8.55889 87.9999 7.62783 87.9999Z" fill="#1A87C7"/>
    <path fill-rule="evenodd" clip-rule="evenodd" d="M9.22087 81.1011L65.5754 48.498V12.27L9.22087 44.8774V81.1011Z" fill="white"/>
    <path fill-rule="evenodd" clip-rule="evenodd" d="M9.8615 45.2539V79.9755L64.9347 48.1214V13.3956L9.8615 45.2539ZM9.22087 81.7473C9.10982 81.7473 8.99878 81.7216 8.89201 81.6574C8.687 81.5418 8.5845 81.3279 8.5845 81.101V44.873C8.5845 44.6419 8.69128 44.4237 8.89201 44.3081L65.2593 11.7136C65.4643 11.5981 65.6992 11.5981 65.8999 11.7136C66.1049 11.8206 66.2331 12.0432 66.2331 12.27V48.498C66.2331 48.7291 66.1049 48.9388 65.8999 49.0629L9.54545 81.6617C9.43868 81.7216 9.32764 81.7473 9.22087 81.7473Z" fill="#1A87C7"/>
    <path fill-rule="evenodd" clip-rule="evenodd" d="M39.4289 40.3151C39.2068 40.3151 38.9847 40.1995 38.8609 39.9898C38.6943 39.6774 38.7883 39.2837 39.1001 39.1039L59.4594 27.3218C59.7755 27.1463 60.1769 27.249 60.3606 27.5572C60.5272 27.8696 60.4332 28.2633 60.1214 28.4473L39.7578 40.2295C39.651 40.2894 39.54 40.3151 39.4289 40.3151Z" fill="#1A87C7"/>
    <path fill-rule="evenodd" clip-rule="evenodd" d="M39.4289 45.93C39.2068 45.93 38.9847 45.8145 38.8609 45.609C38.6943 45.2966 38.7883 44.9029 39.1001 44.7189L59.4594 32.941C59.7755 32.757 60.1769 32.864 60.3606 33.1764C60.5272 33.4845 60.4332 33.8826 60.1214 34.0623L39.7578 45.8444C39.651 45.9044 39.54 45.93 39.4289 45.93Z" fill="#1A87C7"/>
    <path fill-rule="evenodd" clip-rule="evenodd" d="M39.4289 51.5538C39.2068 51.5538 38.9847 51.4382 38.8609 51.2285C38.6943 50.9204 38.7883 50.5224 39.1001 50.3383L59.4594 38.5605C59.7755 38.3765 60.1769 38.4835 60.3606 38.8002C60.5272 39.1083 60.4332 39.5063 60.1214 39.6818L39.7578 51.4639C39.651 51.5195 39.54 51.5538 39.4289 51.5538Z" fill="#1A87C7"/>
    <path fill-rule="evenodd" clip-rule="evenodd" d="M21.6236 58.7992C23.8914 57.4811 26.5095 52.4224 26.5095 48.0485C26.5095 43.6746 27.1672 39.7544 21.6236 42.9599C16.0799 46.1654 16.7206 49.3367 16.7206 53.7106C16.7206 58.0802 19.3514 60.1131 21.6236 58.7992Z" fill="white"/>
    <path fill-rule="evenodd" clip-rule="evenodd" d="M24.7669 42.4336C24.2758 42.4336 23.4344 42.6604 21.9311 43.5163C17.263 46.2254 17.3014 48.6991 17.3569 52.4524C17.3569 52.8633 17.374 53.2741 17.374 53.7064C17.374 55.889 18.0702 57.5924 19.2447 58.2643C19.8853 58.6409 20.5943 58.6366 21.2904 58.2301C23.3575 57.0317 25.8688 52.2213 25.8688 48.0443C25.8688 47.612 25.8688 47.1883 25.8688 46.7732C25.903 44.8901 25.9158 42.9428 25.2239 42.5363C25.1385 42.4849 24.989 42.4336 24.7669 42.4336ZM21.6236 58.7993H21.6406H21.6236ZM20.2142 59.835C19.6675 59.835 19.0995 59.6895 18.5869 59.3942C17.0153 58.4826 16.0842 56.3598 16.0842 53.7064C16.0842 53.2827 16.0842 52.8718 16.0628 52.4738C16.0073 48.7162 15.9732 45.4764 21.299 42.3908C23.4771 41.1325 24.9079 40.8329 25.8945 41.4107C27.2526 42.2067 27.2142 44.3338 27.1757 46.7946C27.1757 47.1969 27.1757 47.6163 27.1757 48.0443C27.1757 52.7135 24.3569 57.9604 21.9439 59.3556C21.3887 59.6766 20.8035 59.835 20.2142 59.835Z" fill="#1A87C7"/>
    <path fill-rule="evenodd" clip-rule="evenodd" d="M18.8774 52.9489L24.2758 49.8247L24.8438 56.5953C24.8993 57.0703 25.2623 57.2329 25.7236 56.9804L25.8347 56.9248L25.1385 59.9805L17.9634 63.4771L17.4338 61.7737L17.6388 61.6239C18.0573 61.3115 18.3648 60.7723 18.4033 60.2887L18.8774 52.9489Z" fill="white"/>
    <path fill-rule="evenodd" clip-rule="evenodd" d="M18.1855 62.0135L18.3691 62.5656L24.5747 59.5398L24.9933 57.7038C24.9207 57.6824 24.8652 57.6525 24.7968 57.6225C24.468 57.4385 24.2459 57.0918 24.2117 56.6596L23.7334 50.9033L19.5094 53.3471L19.0439 60.3444C19.0098 60.9479 18.6809 61.5813 18.1855 62.0135ZM17.9634 64.1363C17.8737 64.1363 17.7968 64.1192 17.7114 64.0806C17.5448 64.0079 17.3996 63.8581 17.3484 63.6783L16.8359 61.975C16.7419 61.7097 16.8359 61.4229 17.0494 61.256L17.2544 61.1148C17.532 60.9136 17.7285 60.5456 17.7498 60.2631L18.241 52.9062C18.2623 52.6923 18.3648 52.4954 18.5485 52.3884L23.9469 49.2642C24.1519 49.1529 24.3911 49.1486 24.5875 49.2556C24.7712 49.3541 24.9036 49.5552 24.9207 49.7735L25.4887 56.3728C25.5058 56.3685 25.5229 56.3643 25.5229 56.3643C25.745 56.2402 26.0183 56.2573 26.2233 56.4156C26.4198 56.5697 26.5137 56.8308 26.4582 57.079L25.7791 60.1304C25.7236 60.323 25.5955 60.4857 25.4332 60.5755L18.2623 64.0764C18.1684 64.1149 18.0573 64.1363 17.9634 64.1363Z" fill="#1A87C7"/>
    <path fill-rule="evenodd" clip-rule="evenodd" d="M21.6236 57.4512C20.3594 58.1787 19.0995 57.9647 18.1513 57.1259C17.2331 56.2956 16.5967 54.8491 16.5967 53.0944V53.0516L16.6138 53.0302C16.5967 52.9146 16.5967 52.8034 16.5967 52.6835C16.5967 48.4894 15.9347 45.4722 21.6278 42.1768C27.3209 38.8814 26.6419 42.6732 26.6419 46.8759C26.6419 46.9915 26.6419 47.107 26.6419 47.2311V47.2911C26.6419 49.0458 26.0183 51.2156 25.0873 53.1158C24.1519 55.0459 22.8877 56.7193 21.6236 57.4512Z" fill="#66CEEF"/>
    <path fill-rule="evenodd" clip-rule="evenodd" d="M24.9335 41.5776C24.4423 41.5776 23.5454 41.813 21.9353 42.7332C17.1434 45.5193 17.1818 47.886 17.2331 51.4767C17.2331 51.8704 17.2501 52.2727 17.2501 52.6793V53.0045C17.2501 54.5624 17.7456 55.8891 18.5869 56.6338C19.377 57.3485 20.3465 57.4341 21.2947 56.882C22.3752 56.2571 23.5625 54.7421 24.4979 52.8248C25.4289 50.9117 26.0012 48.8404 26.0012 47.2825V46.8674C26.0012 46.4608 26.0012 46.05 26.0012 45.6519C26.0354 43.8887 26.0738 42.0655 25.3947 41.6718C25.3051 41.6204 25.1556 41.5776 24.9335 41.5776ZM20.0689 58.5425C19.2233 58.5425 18.4204 58.2258 17.7242 57.6053C16.5924 56.5995 15.9561 54.9561 15.9561 53.0944C15.9561 53.0602 15.9561 52.9575 15.9731 52.9275L15.9561 52.6793C15.9561 52.277 15.9347 51.8832 15.9347 51.4938C15.8792 47.886 15.8237 44.7703 21.2947 41.6076C23.5839 40.2852 25.0445 39.9556 26.0525 40.5505C27.3679 41.3294 27.3337 43.3409 27.2953 45.6691C27.2953 46.0628 27.2953 46.4651 27.2953 46.8674L27.2782 47.2354C27.2782 49.0543 26.6931 51.2798 25.6681 53.394C24.6089 55.5681 23.2508 57.25 21.9567 58.0033C21.3331 58.367 20.6925 58.5425 20.0689 58.5425Z" fill="#1A87C7"/>
    <path fill-rule="evenodd" clip-rule="evenodd" d="M21.6236 61.1403L17.4338 61.7865C14.4314 64.2346 12.1293 67.0977 12.1293 69.4473C12.1293 70.6028 12.1293 71.7583 12.1293 72.9139C12.1293 73.8468 12.8469 74.2063 13.701 73.7056L16.6309 72.0151L20.5857 69.7212L22.7041 68.5015L26.1635 66.5028L29.5333 64.5513C30.3917 64.0505 31.1049 62.8779 31.1049 61.9449V58.4783C31.1049 56.1287 28.82 55.9233 25.8218 56.9462L21.6236 61.1403Z" fill="white"/>
    <path fill-rule="evenodd" clip-rule="evenodd" d="M21.6235 61.1405H21.6406H21.6235ZM17.6858 62.4073C14.615 64.9537 12.7828 67.5815 12.7828 69.4475V72.914C12.7828 73.1109 12.8426 73.235 12.8767 73.2607C12.9323 73.2992 13.1116 73.2949 13.3893 73.1409L29.1958 63.9822C29.8749 63.6013 30.46 62.6384 30.46 61.9365V58.4699C30.46 57.9136 30.2935 57.5327 29.986 57.3101C29.3453 56.8394 27.9573 56.9164 26.1592 57.5027L22.0848 61.5984C21.9738 61.6926 21.8627 61.7568 21.7218 61.7825L17.6858 62.4073ZM12.9707 74.5831C12.6931 74.5831 12.4582 74.5147 12.2361 74.3906C11.762 74.1124 11.4844 73.5774 11.4844 72.914V69.4475C11.4844 66.2805 14.9439 62.9765 17.011 61.286C17.1007 61.2133 17.2117 61.1705 17.3228 61.1491L21.316 60.5285L25.3606 56.4841C25.4332 56.4114 25.5058 56.36 25.5998 56.3258C27.9616 55.5255 29.6955 55.5041 30.7376 56.2573C31.2117 56.5826 31.7627 57.2374 31.7627 58.4742V61.9408C31.7627 63.1006 30.9213 64.5001 29.8621 65.1121L14.0342 74.2707C13.6669 74.4719 13.2996 74.5831 12.9707 74.5831Z" fill="#1A87C7"/>
    <path fill-rule="evenodd" clip-rule="evenodd" d="M18.2624 57.8322C19.2105 58.6796 20.4362 58.915 21.6278 58.2302C22.7981 57.5455 24.0281 55.8935 24.9762 53.959C25.9457 51.9647 26.6034 49.705 26.6034 47.8818L26.2746 46.6278C26.1635 46.1742 26.1464 45.6991 26.1464 45.2455C26.1294 44.6463 26.1293 44.1028 25.8218 43.8246C25.3264 43.371 24.5577 44.0557 23.6437 44.8646C23.0201 45.4124 22.3624 46.003 21.6321 46.4267C20.9018 46.8504 20.2227 47.0344 19.6034 47.2013C18.6895 47.4495 17.9164 47.6593 17.4253 48.6778C17.1348 49.307 17.1092 49.8719 17.1092 50.4753C17.0921 50.9375 17.0921 51.4297 16.9683 52.016L16.6394 53.6509C16.6437 55.4655 17.2843 56.9634 18.2624 57.8322Z" fill="white"/>
    <path fill-rule="evenodd" clip-rule="evenodd" d="M18.698 57.3484C19.155 57.7636 20.1031 58.3456 21.2947 57.6651C22.2983 57.0831 23.4515 55.5895 24.3911 53.6679C25.3392 51.6992 25.9243 49.5722 25.9628 47.9544L25.6553 46.786C25.5229 46.2596 25.5058 45.7247 25.4887 45.2539C25.4887 44.9458 25.4716 44.3937 25.3777 44.291C25.2111 44.3295 24.5406 44.9372 24.075 45.3395C23.4515 45.8916 22.7425 46.525 21.9353 46.9829C21.1452 47.4451 20.4192 47.642 19.7785 47.8175C18.8218 48.0785 18.3478 48.2326 18.0018 48.9516C17.7669 49.448 17.7669 49.9017 17.7498 50.4752C17.7498 50.916 17.7285 51.4724 17.6004 52.1314L17.2715 53.7663C17.2843 55.1786 17.8224 56.561 18.698 57.3484ZM20.1971 59.2786C19.3771 59.2786 18.5485 58.9533 17.8353 58.3157C16.665 57.2714 15.986 55.5681 15.986 53.6508L16.3148 51.8832C16.4259 51.3354 16.4429 50.8732 16.4429 50.4581C16.46 49.8118 16.4814 49.1399 16.8273 48.3867C17.4509 47.1027 18.4545 46.8331 19.424 46.5721C20.0262 46.4052 20.6327 46.2425 21.2861 45.8573C21.9652 45.4636 22.6187 44.8858 23.208 44.3723C24.2544 43.4521 25.3307 42.4935 26.2447 43.3366C26.7572 43.8031 26.7572 44.5221 26.7742 45.2154C26.7956 45.6476 26.7956 46.0799 26.9066 46.4479L27.2355 47.7019C27.2526 47.7618 27.2526 47.8175 27.2526 47.8731C27.2355 49.7134 26.612 52.0373 25.5485 54.2328C24.4893 56.4112 23.1739 58.0717 21.9268 58.7864C21.3886 59.1117 20.7822 59.2786 20.1971 59.2786Z" fill="#1A87C7"/>
    <path fill-rule="evenodd" clip-rule="evenodd" d="M21.9012 68.9681L29.529 64.5471C30.3874 64.0464 31.1007 62.8737 31.1007 61.9407V58.4742C31.1007 56.1246 28.8157 55.9192 25.8176 56.942C24.878 61.4186 24.0238 63.2803 22.5589 67.2048L21.9012 68.9681ZM12.1293 69.4474C12.1293 70.603 12.1293 71.7585 12.1293 72.914C12.1293 73.847 12.8469 74.2065 13.701 73.7058L21.3502 69.2848L20.7267 68.3689C19.2276 66.0878 18.3649 65.2404 17.4338 61.7952C14.4356 64.2347 12.1293 67.0978 12.1293 69.4474Z" fill="#66CEEF"/>
    <path fill-rule="evenodd" clip-rule="evenodd" d="M26.3642 57.4385C25.6168 61.0036 24.9036 62.8824 23.8401 65.677L23.144 67.4873L29.2001 63.978C29.8792 63.5971 30.4643 62.6341 30.4643 61.9323V58.4657C30.4643 57.9093 30.2977 57.5284 29.9902 57.3059C29.3624 56.865 28.0683 56.9121 26.3642 57.4385ZM17.0879 62.9294C14.3801 65.309 12.7871 67.7056 12.7871 69.4432V72.9098C12.7871 73.1066 12.8469 73.2307 12.881 73.2564C12.9365 73.2949 13.1159 73.2907 13.3935 73.1366L20.4192 69.0708L20.18 68.7285C19.9195 68.3347 19.7016 67.9924 19.4838 67.6714C18.5143 66.2633 17.7968 65.202 17.0879 62.9294ZM12.9707 74.5831C12.6931 74.5831 12.4582 74.5147 12.2361 74.3906C11.762 74.1124 11.4844 73.5774 11.4844 72.914V69.4475C11.4844 66.2805 14.9439 62.9765 17.011 61.286C17.1775 61.1491 17.4124 61.1105 17.6132 61.1705C17.8353 61.2389 17.9976 61.4101 18.0531 61.6241C18.8048 64.376 19.5009 65.3946 20.543 66.9481C20.7651 67.2691 21 67.6243 21.2562 68.0138L21.4613 68.2962L22.6144 65.2191C23.6949 62.3902 24.4082 60.5157 25.1812 56.8137C25.2325 56.5869 25.3777 56.4071 25.5998 56.3258C27.9616 55.5255 29.6955 55.5041 30.7376 56.2573C31.2117 56.5826 31.7627 57.2374 31.7627 58.4742V61.9408C31.7627 63.1006 30.9213 64.5001 29.8621 65.1121L22.2087 69.5245C22.1147 69.5844 22.0037 69.6144 21.9012 69.6144C21.8456 69.7085 21.7688 69.7898 21.6577 69.8455L14.0299 74.2664C13.6669 74.4719 13.2996 74.5831 12.9707 74.5831Z" fill="#1A87C7"/>
    <path fill-rule="evenodd" clip-rule="evenodd" d="M21.6236 69.7554C21.2563 69.7554 20.9658 69.4686 20.9658 69.1091V61.1403C20.9658 60.7808 21.252 60.4897 21.6236 60.4897C21.9695 60.4897 22.2642 60.7808 22.2642 61.1403V69.1091C22.2642 69.4686 21.9738 69.7554 21.6236 69.7554Z" fill="#1A87C7"/>
    <g clip-path="url(#clip0)">
        <path d="M80.5 39L87 40L92 42C88 42 79 47 75 49.5C55.4 70.3 57.5 88.5 61 95H59.5L55.5 92L53 88L51.5 82L53 73L54.5 67L61 54.5L73 42L80.5 39Z" fill="#66CEEF"/>
        <path d="M95.1667 42.7733L88.2899 38.7599L88.0847 38.6561C85.1424 37.6874 82.3711 37.722 79.7026 38.3793C77.1024 39.0367 74.6049 40.2822 72.1758 41.7353L72.1416 41.7699C69.1651 43.7766 66.6333 45.9563 64.3753 48.4127C62.1173 50.8692 60.1671 53.5678 58.2854 56.5779V56.6125C56.3353 59.9339 54.7273 63.1861 53.5299 66.5767C52.3325 70.0019 51.5113 73.5308 51.1008 77.4058V77.4404C50.8955 80.485 50.9639 83.5643 51.6824 86.4359C52.4351 89.3767 53.8378 92.0753 56.3353 94.3242L56.5064 94.4626L63.3831 98.476L64.5121 96.5039L57.738 92.5597C55.6853 90.6568 54.4879 88.3734 53.872 85.8823C53.222 83.2875 53.1536 80.4504 53.3246 77.6134C53.701 73.946 54.4879 70.59 55.6169 67.3724C56.7801 64.1548 58.2855 61.041 60.1671 57.8234C62.0146 54.9172 63.8963 52.3223 66.0175 50.0042C68.1387 47.6862 70.5336 45.6103 73.3732 43.7074C75.597 42.3581 77.8893 41.2164 80.2157 40.6282C82.4738 40.0746 84.8002 40.04 87.2978 40.8358L94.0719 44.78L95.1667 42.7733Z" fill="#1A87C7"/>
        <path d="M52.2619 85.8141L60.4311 90.9047L61.0952 89.6859L52.8928 84.5952L52.2619 85.7783V85.8141Z" fill="#1A87C7"/>
        <path d="M51 77.1001L59.1511 82.0712L59.8333 80.7711L51.7182 75.7617L51 77.0619V77.1001Z" fill="#1A87C7"/>
        <path d="M53.5238 69.3525L60.4192 73.2378L61.0952 72.1087L54.1998 68.1902L53.5238 69.3193V69.3525Z" fill="#1A87C7"/>
        <path d="M73.8862 68.4774C74.0564 67.0314 74.6891 65.5975 75.7843 64.1757C76.8601 62.7799 78.2073 61.6368 79.8259 60.7465L80.078 58.6053C80.1151 58.2901 80.2302 58.0029 80.4235 57.7437C80.5997 57.4919 80.8249 57.307 81.0992 57.1889C81.3736 57.0708 81.5855 57.0675 81.7352 57.1791C81.8677 57.2981 81.9153 57.5152 81.8782 57.8303L81.6294 59.9437C82.6666 59.5677 83.652 59.3547 84.5856 59.3048C85.5193 59.2548 86.2887 59.4252 86.8937 59.816C87.1397 59.9389 87.2397 60.195 87.1939 60.5843C87.1634 60.8438 87.0686 61.0958 86.9096 61.3403C86.7484 61.6032 86.5735 61.7753 86.3849 61.8565C86.1792 61.9451 85.9426 61.9501 85.6751 61.8716C84.1133 61.312 82.4666 61.4049 80.7349 62.1503C79.3804 62.7334 78.2899 63.4931 77.4634 64.4297C76.637 65.3662 76.1572 66.3999 76.0241 67.5307C75.9455 68.1981 76.0794 68.6508 76.4257 68.8889C76.7527 69.153 77.2032 69.267 77.7771 69.2312C78.3317 69.2213 79.0995 69.1283 80.0805 68.9524C81.3421 68.7438 82.3551 68.6421 83.1195 68.6474C83.8667 68.6602 84.4807 68.9063 84.9614 69.3857C85.4421 69.8652 85.6104 70.7167 85.4663 71.9402C85.3485 72.9413 85.0112 73.9401 84.4544 74.9365C83.8954 75.9515 83.175 76.8864 82.293 77.7412C81.394 78.6034 80.3978 79.3225 79.3045 79.8988L79.0525 82.04C79.0175 82.3366 78.9034 82.6145 78.7101 82.8737C78.5147 83.1514 78.2884 83.3456 78.0312 83.4563C77.7568 83.5744 77.5534 83.574 77.4209 83.455C77.2713 83.3434 77.2151 83.1301 77.2522 82.8149L77.5042 80.6737C76.6064 80.9722 75.7593 81.1168 74.9628 81.1077C74.1663 81.0986 73.5148 80.8951 73.0082 80.4971C72.7473 80.3631 72.6387 80.1106 72.6823 79.7399C72.7129 79.4803 72.8173 79.2154 72.9956 78.945C73.1546 78.7006 73.3284 78.5378 73.517 78.4566C73.7399 78.3607 73.968 78.3593 74.2011 78.4525C74.877 78.7952 75.5564 78.9691 76.2394 78.9743C76.9053 78.9868 77.7097 78.7901 78.6527 78.3842C79.9558 77.8233 81.0313 77.0524 81.8792 76.0714C82.71 75.0978 83.1909 74.0548 83.3219 72.9425C83.4135 72.1639 83.2809 71.6314 82.924 71.3451C82.5499 71.0661 82.0695 70.9297 81.4828 70.9359C80.894 70.9606 80.0769 71.0571 79.0316 71.2254C77.8193 71.4305 76.8556 71.5286 76.1404 71.5196C75.4082 71.5181 74.8167 71.2887 74.3659 70.8316C73.913 70.393 73.7531 69.6082 73.8862 68.4774Z" fill="#1A87C7"/>
        <path fill-rule="evenodd" clip-rule="evenodd" d="M68.0929 93.3085L61.8163 89.7925C69.1762 93.8079 75.3367 97.755 86.6939 83.6938C98.5918 68.6324 98.9854 54.6767 93.7245 51.2448C92.9944 48.4166 90.6436 47.3492 87.9911 45.8367L94.5885 49.5353C101.207 53.6107 100.17 63.9247 98.1124 70.2547C95.0743 79.6354 86.8547 90.9854 76.8541 93.9078C73.9072 94.7754 70.8455 94.8125 68.0929 93.3085Z" fill="#66CEEF"/>
        <path fill-rule="evenodd" clip-rule="evenodd" d="M86.6768 48.4822C84.3313 48.4822 81.7084 49.2599 78.9745 50.8125C69.1896 56.3597 61.2391 69.8991 61.2391 80.9993C61.2391 86.2021 62.9828 90.0533 66.149 91.8555C69.3211 93.6549 73.6001 93.21 78.1859 90.6129C87.9649 85.06 95.9213 71.5205 95.9213 60.4261C95.9213 55.2175 94.1688 51.3635 91.0055 49.5699C89.7261 48.841 88.2657 48.4822 86.6768 48.4822ZM70.4777 94.51C68.6113 94.51 66.888 94.0853 65.3604 93.2129C61.6831 91.1209 59.6531 86.7818 59.6531 81.0022C59.6531 69.4027 67.9629 55.2577 78.1859 49.4666C83.2769 46.571 88.1138 46.1262 91.797 48.2182C95.4744 50.3045 97.5102 54.6436 97.5102 60.429C97.5102 72.0227 89.1916 86.1648 78.9774 91.9646C75.9952 93.652 73.1007 94.51 70.4777 94.51Z" fill="#1A87C7"/>
        <path fill-rule="evenodd" clip-rule="evenodd" d="M93.5791 49.0077C91.9023 48.037 89.9052 47.6354 87.6858 47.8579C85.5473 48.0717 83.2096 48.8604 80.7449 50.2789C78.286 51.7032 75.9396 53.6245 73.804 55.8779C71.5875 58.2239 69.5961 60.9396 67.9107 63.8431C66.2396 66.7467 64.8919 69.8351 63.977 72.9322C63.0881 75.9079 62.6003 78.9039 62.6003 81.7467C62.6003 84.5896 63.0881 87.0164 63.977 88.9752C64.8919 91.0091 66.2425 92.5403 67.9107 93.5024C69.5932 94.4731 71.5846 94.8805 73.804 94.658C75.9425 94.4442 78.2889 93.6555 80.7449 92.2312C83.2096 90.8069 85.5502 88.8943 87.6858 86.6322C89.9052 84.2833 91.9023 81.5763 93.5791 78.6728C95.2559 75.7692 96.6066 72.6808 97.5215 69.5837C98.4046 66.6022 98.8923 63.612 98.8923 60.7692C98.8923 57.9263 98.4046 55.4995 97.5215 53.5407C96.6066 51.5097 95.2588 49.9785 93.5791 49.0077ZM65.065 62.1964C69.0795 55.2395 74.6265 49.1608 80.7449 45.6217C86.872 42.0826 92.4161 41.7504 96.4248 44.0703C100.439 46.3902 102.918 51.3594 102.918 58.4434C102.918 65.5188 100.439 73.3597 96.4248 80.3195C92.4161 87.2764 86.8691 93.3464 80.7449 96.8855C74.6236 100.43 69.0795 100.757 65.065 98.4427C61.0505 96.1228 58.5714 91.1536 58.5714 84.0696C58.5714 76.9971 61.0505 69.1532 65.065 62.1964Z" fill="#BDEDF8"/>
        <path fill-rule="evenodd" clip-rule="evenodd" d="M88.9594 48.3658C88.5999 48.3658 88.2287 48.3804 87.8575 48.4183C85.7414 48.6283 83.4792 49.4189 81.1439 50.7608C78.7764 52.126 76.4762 53.9813 74.2899 56.2713C72.1037 58.5817 70.1367 61.2363 68.4385 64.1651C66.7462 67.0881 65.4281 70.1219 64.522 73.1675C63.6218 76.2013 63.1688 79.1185 63.1688 81.846C63.1688 84.5385 63.6072 86.8839 64.4899 88.8209C65.3433 90.7054 66.5796 92.1231 68.1492 93.0362C69.7333 93.9405 71.5717 94.2993 73.6352 94.0951C75.7513 93.8851 78.0136 93.0975 80.3547 91.7527C82.7222 90.3816 85.0312 88.5234 87.2028 86.2363C89.3949 83.9259 91.3648 81.2713 93.0542 78.3483C94.7465 75.4253 96.0647 72.3915 96.9707 69.346C97.8709 66.3209 98.3298 63.4037 98.3298 60.6674C98.3298 57.9661 97.8826 55.6237 97.0116 53.6925C96.1523 51.8022 94.9218 50.3844 93.3435 49.4801C92.0575 48.7392 90.5815 48.3658 88.9594 48.3658ZM72.5304 95.7404C70.6306 95.7404 68.8916 95.2941 67.3483 94.4102C65.4807 93.3367 64.0339 91.6768 63.0372 89.4802C62.0639 87.3332 61.57 84.7719 61.57 81.8489C61.57 78.9638 62.0493 75.8979 62.9963 72.7182C63.9374 69.5502 65.3053 66.4026 67.0619 63.3716C68.8214 60.3407 70.8644 57.584 73.1384 55.1803C75.424 52.7823 77.847 50.8308 80.3518 49.3926C82.8771 47.934 85.3527 47.0764 87.6938 46.8401C90.1022 46.598 92.2738 47.0297 94.1356 48.1032C96.0091 49.1855 97.4647 50.8395 98.4584 53.0391C99.4258 55.1715 99.9198 57.7386 99.9198 60.6703C99.9198 63.5613 99.4405 66.633 98.4906 69.8011C97.5494 72.9691 96.1845 76.1138 94.425 79.1476C92.6801 82.1727 90.6283 84.9353 88.3485 87.3332C86.0746 89.7311 83.6458 91.6827 81.1439 93.1266C78.6069 94.5852 76.1371 95.4429 73.796 95.6792C73.3634 95.72 72.9425 95.7404 72.5304 95.7404ZM90.7715 43.1003C92.7736 43.1003 94.615 43.567 96.2254 44.4918C100.209 46.7876 102.41 51.6972 102.41 58.322C102.41 65.0957 100.11 72.7999 95.936 80.014C91.7623 87.2252 86.2266 93.0683 80.3518 96.458C74.6085 99.7661 69.2481 100.32 65.2644 98.0246C61.2777 95.7288 59.0856 90.8192 59.0856 84.2001C59.0856 77.4265 61.38 69.7223 65.5537 62.5023C69.7275 55.2911 75.2632 49.4539 81.1439 46.0641C84.5606 44.098 87.8341 43.1003 90.7715 43.1003ZM70.7183 101C68.4385 101 66.3341 100.475 64.4723 99.3985C59.9654 96.8052 57.4898 91.4084 57.4898 84.1972C57.4898 77.1465 59.8719 69.1593 64.18 61.7089C68.4911 54.2526 74.2344 48.2082 80.3518 44.6843C86.5978 41.0845 92.5252 40.5245 97.0233 43.1178C101.521 45.7112 104 51.105 104 58.3191C104 65.3699 101.627 73.3512 97.3156 80.8075C93.0045 88.255 87.2612 94.2993 81.1439 97.8262C77.4758 99.9411 73.9304 101 70.7183 101Z" fill="#1A87C7"/>
    </g>
    <defs>
        <clipPath id="clip0">
            <rect width="59" height="72" fill="white" transform="matrix(-1 0 0 1 108 29)"/>
        </clipPath>
    </defs>
</svg>
