<svg width="83" height="98" viewBox="0 0 83 98" fill="none" xmlns="http://www.w3.org/2000/svg">
    <path fill-rule="evenodd" clip-rule="evenodd" d="M49.122 6.49194C49.122 21.3203 49.122 24.1725 49.122 39.0108C49.122 41.1711 47.5649 43.8192 45.6528 44.9043C32.5218 52.3458 19.3807 59.7924 6.24459 67.2389C4.33758 68.324 2.78052 67.433 2.78052 65.2727V32.7489L49.122 6.49194Z" fill="white"/>
    <path fill-rule="evenodd" clip-rule="evenodd" d="M3.22497 33.1147V65.498C3.22497 66.2808 3.47111 66.8829 3.89306 67.1237C4.315 67.3696 4.95295 67.2793 5.63611 66.8879L44.6664 44.3791C46.3391 43.4157 47.7607 40.9571 47.7607 39.0304V7.43475L3.22497 33.1147ZM4.44561 68.629C4.00357 68.629 3.58664 68.5186 3.20488 68.3028C2.34089 67.8011 1.85364 66.8026 1.85364 65.498V32.7183C1.85364 32.4724 1.98926 32.2466 2.19521 32.1262L48.0972 5.65853C48.3082 5.53309 48.5694 5.53309 48.7804 5.65853C48.9964 5.77394 49.1219 5.99973 49.1219 6.24559V39.0253C49.1219 41.4639 47.4643 44.3339 45.3445 45.5582L6.31424 68.067C5.67127 68.4433 5.03835 68.629 4.44561 68.629Z" fill="#1A87C7"/>
    <path fill-rule="evenodd" clip-rule="evenodd" d="M29.4193 37.0835L39.0554 20.7771C40.4794 18.37 42.6689 19.606 41.245 22.018C36.4524 30.1164 34.2067 33.9189 29.4193 42.0223L23.2692 38.5636C19.2116 45.436 16.9047 49.3233 12.842 56.2006C11.4231 58.6027 9.23358 57.3718 10.6576 54.9647C15.4501 46.8564 18.4818 41.7382 23.2692 33.6249C23.2692 33.6249 28.9038 36.7994 29.4193 37.0835Z" fill="#BDEDF8"/>
    <path fill-rule="evenodd" clip-rule="evenodd" d="M23.0949 34.5014L10.9979 55.5098C10.6155 56.1862 10.5752 56.7213 10.7061 56.9484C10.8822 57.2462 11.4709 56.9635 11.9741 56.0802L22.2495 38.2165C22.4407 37.8833 22.8634 37.7773 23.1855 37.9641L28.6502 41.129L39.9722 21.4582C40.4704 20.5799 40.3597 20.0398 40.1936 19.9388C40.0326 19.8379 39.5042 20.0196 39.001 20.8929L29.4956 37.4139C29.3044 37.747 28.8867 37.853 28.5647 37.6663L26.6877 36.581C25.4499 35.8643 23.9151 34.9759 23.0949 34.5014ZM10.8822 58.4274C10.3035 58.4274 9.81038 58.1346 9.52356 57.6399C9.10087 56.908 9.20654 55.8884 9.81541 54.8284L22.2495 33.2142C22.3753 33.0022 22.5967 32.871 22.8433 32.871C23.0295 32.871 23.0295 32.871 27.3671 35.3898L28.6502 36.1318L37.8185 20.2114C38.7746 18.5406 40.0779 18.2883 40.883 18.7577C41.6881 19.217 42.1159 20.479 41.1598 22.1447L29.4956 42.4161C29.3044 42.7442 28.8867 42.8553 28.5647 42.6685L23.0949 39.5036L13.1567 56.7667C12.5528 57.8217 11.7175 58.4274 10.8822 58.4274Z" fill="#1A87C7"/>
    <path fill-rule="evenodd" clip-rule="evenodd" d="M2.78049 33.387L0 31.5849V27.8225L2.78049 29.6247V33.387Z" fill="#66CEEF"/>
    <path fill-rule="evenodd" clip-rule="evenodd" d="M1.1687 31.5905L2.54289 32.4952V30.544L1.1687 29.6393V31.5905ZM3.12939 34.3144C3.02664 34.3144 2.92818 34.2851 2.83828 34.2313L0.295386 32.5539C0.115585 32.4366 0 32.2116 0 31.9769V28.4852C0 28.2455 0.115586 28.0255 0.291106 27.913C0.475187 27.7907 0.693516 27.7956 0.877597 27.9081L3.41621 29.5855C3.60029 29.7028 3.70732 29.9229 3.70732 30.1625V33.6543C3.70732 33.8939 3.60029 34.1091 3.41621 34.2264C3.32631 34.2851 3.22785 34.3144 3.12939 34.3144Z" fill="#1A87C7"/>
    <path fill-rule="evenodd" clip-rule="evenodd" d="M2.78052 33.3871L50.9756 6.32788V2.78223L2.78052 29.8414V33.3871Z" fill="white"/>
    <path fill-rule="evenodd" clip-rule="evenodd" d="M4.12561 30.4247V32.4377L49.6206 5.7394V3.72644L4.12561 30.4247ZM3.45555 34.3144C3.33642 34.3144 3.22226 34.2841 3.11803 34.2186C2.9046 34.0975 2.78052 33.8755 2.78052 33.6283V30.0261C2.78052 29.7789 2.90957 29.5519 3.11803 29.4308L49.9581 1.94555C50.1716 1.82447 50.4297 1.82447 50.6381 1.94555C50.8466 2.06158 50.9756 2.28861 50.9756 2.53581V6.13796C50.9756 6.38517 50.8416 6.61219 50.6381 6.73327L3.7881 34.2186C3.68387 34.2841 3.56971 34.3144 3.45555 34.3144Z" fill="#1A87C7"/>
    <path fill-rule="evenodd" clip-rule="evenodd" d="M50.9756 2.63005L3.01859 29.6775L0 27.9799L47.9621 0.92749L50.9756 2.63005Z" fill="#BDEDF8"/>
    <path fill-rule="evenodd" clip-rule="evenodd" d="M2.01369 28.1873L3.60684 29.1261L48.952 2.41245L47.3638 1.47876L2.01369 28.1873ZM3.60684 30.6048C3.48809 30.6048 3.3743 30.5746 3.27039 30.5089L0.331491 28.7778C0.12369 28.6567 0 28.4296 0 28.1823C0 27.935 0.12369 27.7079 0.331491 27.5918L47.0274 0.0908455C47.2401 -0.0302818 47.4925 -0.0302818 47.7052 0.0908455L50.6392 1.82196C50.847 1.93804 50.9756 2.16515 50.9756 2.41245C50.9756 2.65975 50.842 2.88687 50.6392 3.008L3.93833 30.5089C3.83443 30.5746 3.72063 30.6048 3.60684 30.6048Z" fill="#1A87C7"/>
    <path fill-rule="evenodd" clip-rule="evenodd" d="M51.0015 77.0302C53.3291 82.381 52.2054 88.192 57.4972 93.2004C48.7917 97.2456 39.0697 99.1666 31.3916 94.7361C29.0212 93.3663 28.7484 92.7938 28.7484 90.6106C28.7484 88.4435 28.6949 86.2015 28.7751 84.0398C29.1818 80.2621 31.1187 77.7044 33.5639 74.9434C36.3034 71.963 39.7332 69.5551 42.2158 66.3446H42.2212C44.9714 69.4695 49.4499 73.4666 51.0015 77.0302ZM42.4727 66.6121L42.2372 66.366C42.3122 66.4463 42.3924 66.5319 42.4727 66.6121ZM79.6594 75.4464V68.196C79.6594 62.401 72.511 60.2928 67.5724 59.8647C67.1497 60.7209 66.7323 61.5824 66.2829 62.3957C70.1621 69.3571 66.8393 84.2592 62.5695 90.5571C72.2541 84.9548 79.654 77.5653 79.6594 75.4464Z" fill="#66CEEF"/>
    <path fill-rule="evenodd" clip-rule="evenodd" d="M79.6594 75.4463H79.6754H79.6594ZM67.1068 62.3956C70.451 68.9985 68.1021 81.391 64.5974 88.4755C73.0086 83.1568 78.9263 76.9552 78.9263 75.4356V68.1905C78.9317 62.3207 70.6704 60.9295 68.0004 60.6405C67.7061 61.2291 67.4118 61.823 67.1068 62.3956ZM62.5695 91.2847C62.3716 91.2847 62.1736 91.1991 62.0291 91.0493C61.799 90.8031 61.7776 90.4232 61.9649 90.145C66.0688 84.0932 69.3541 69.4105 65.6461 62.7434C65.5284 62.524 65.5284 62.2618 65.6461 62.0371C66.0849 61.2345 66.5076 60.3837 66.9196 59.5436C67.048 59.2707 67.3476 59.1102 67.6312 59.1369C73.8005 59.672 80.3871 62.326 80.3871 68.1905L80.3817 75.4409C80.3817 78.0039 72.5912 85.5968 62.9227 91.183C62.8157 91.2472 62.6926 91.2847 62.5695 91.2847ZM42.2479 67.4682C40.8782 69.0895 39.2944 70.5288 37.7534 71.9201C36.5121 73.0491 35.2279 74.2049 34.099 75.4356C31.8999 77.9076 29.8934 80.4386 29.4974 84.1146C29.4493 85.5807 29.4546 87.1378 29.4653 88.6789L29.4707 90.6105C29.4707 92.4351 29.5402 92.8204 31.7554 94.1046C39.5298 98.5939 49.1877 96.0844 56.2398 92.9702C53.2809 89.7597 52.5746 86.287 51.8844 82.916C51.4884 80.963 51.1192 79.1169 50.3273 77.319C49.2305 74.8042 46.5017 71.9468 44.0992 69.4266C43.4465 68.747 42.8151 68.0942 42.2479 67.4682ZM41.4507 98C37.8765 98 34.3076 97.2616 31.0331 95.3674C28.5236 93.9173 28.0153 93.12 28.0153 90.6105L28.01 88.6842C27.9993 87.1218 27.9832 85.5433 28.0474 84.0076C28.4862 79.8553 30.6478 77.1264 33.0128 74.4617C34.1953 73.1668 35.5115 71.9843 36.7743 70.8392C38.4758 69.2982 40.2361 67.7036 41.638 65.895C41.7717 65.7238 41.9697 65.6221 42.1944 65.6114C42.3817 65.5793 42.6064 65.6917 42.7509 65.8469C42.7562 65.8522 42.7562 65.8522 42.7616 65.8522L42.997 66.0984C43.0345 66.1412 43.0666 66.184 43.0987 66.2268C43.7247 66.9224 44.4256 67.6555 45.148 68.4153C47.6413 71.0211 50.4665 73.9748 51.6704 76.7305C52.5211 78.6835 52.9224 80.6847 53.3183 82.6217C54.0407 86.1961 54.7255 89.5724 57.9948 92.6652C58.1767 92.8257 58.2569 93.0665 58.2195 93.3073C58.182 93.5427 58.0269 93.7461 57.8075 93.8531C53.1846 96.0041 47.315 98 41.4507 98Z" fill="#1A87C7"/>
    <path fill-rule="evenodd" clip-rule="evenodd" d="M42.2104 66.3446C42.5903 65.863 43.6819 64.7393 43.9815 64.231C44.5754 63.2251 44.5487 62.8452 44.6771 61.668C49.7227 67.5111 61.585 70.9356 66.1437 62.6525C67.4332 65.7239 63.7573 71.6526 59.0435 73.413C55.5816 74.7079 50.3006 73.9107 47.6253 71.4707L43.0986 67.3452L42.2104 66.3446Z" fill="white"/>
    <path fill-rule="evenodd" clip-rule="evenodd" d="M43.1789 66.3338L43.6444 66.8581L48.1175 70.9301C50.5199 73.124 55.5121 73.964 58.7973 72.7334C61.3817 71.7756 63.9072 69.2874 65.0896 66.5585C65.3732 65.9003 65.5551 65.2743 65.6354 64.7071C63.9553 66.7404 61.6332 67.9444 58.8187 68.244C54.2921 68.7149 48.8024 66.6709 45.2068 63.2731C45.1051 63.6691 44.9393 64.065 44.6182 64.6108C44.3935 64.9907 43.8959 65.5525 43.4036 66.093C43.318 66.1732 43.2431 66.2535 43.1789 66.3338ZM55.3301 74.7506C52.2749 74.7506 49.0485 73.7554 47.1384 72.0056L42.6118 67.8748L41.6754 66.826C41.44 66.5585 41.4293 66.1679 41.6433 65.8896C41.7878 65.7024 42.0392 65.4188 42.3121 65.1138C42.6867 64.6911 43.2057 64.1132 43.3608 63.8563C43.8049 63.1019 43.8317 62.8343 43.9173 61.9461L43.9548 61.5876C43.9869 61.2986 44.1848 61.0525 44.4577 60.9669C44.7359 60.8759 45.0409 60.9669 45.2282 61.1863C48.4546 64.9158 54.1156 67.2595 58.6689 66.7832C61.7081 66.4622 64.073 64.9104 65.5123 62.2939C65.6461 62.0477 65.935 61.914 66.1865 61.914C66.4648 61.93 66.7109 62.1013 66.8232 62.3581C67.3476 63.6209 67.2085 65.3118 66.4219 67.1257C65.095 70.1971 62.2378 72.9902 59.3056 74.0871C58.1018 74.5473 56.732 74.7506 55.3301 74.7506Z" fill="#1A87C7"/>
    <path fill-rule="evenodd" clip-rule="evenodd" d="M63.3507 66.6119C65.2502 64.7712 66.8126 61.427 68.3 58.3823C70.3333 54.2194 70.2263 49.4679 70.253 45.642L69.5574 43.3679C69.3113 42.4262 69.2899 41.4309 69.2685 40.4731C69.2524 39.2371 69.2257 38.0813 68.5836 37.4981C67.5617 36.5563 65.9404 37.985 64.0303 39.6758C62.7354 40.8209 61.3228 42.0623 59.7926 42.9506C57.7968 44.0956 53.6715 44.7752 52.2429 45.9791C50.8143 47.1884 50.8731 48.1676 50.8999 49.8852C50.9266 51.5119 51.0122 53.1171 50.0117 56.5845C49.8619 55.5357 49.5997 54.4495 49.1181 53.5077C48.7596 52.8014 48.246 52.1165 47.5504 51.7152C47.0528 51.4316 46.491 51.3085 45.9292 51.3942C45.3673 51.4851 44.859 51.7794 44.4524 52.1754C43.8959 52.7372 43.5481 53.497 43.4037 54.2676C43.2753 55.022 43.3181 55.8139 43.4839 56.5577C43.7515 57.7135 44.3989 59.0619 44.9339 60.0518C45.1052 60.3729 44.8858 61.245 44.7306 61.7266C48.3744 65.8575 53.6661 68.688 57.8878 68.6827C59.7605 68.6934 61.9756 67.9229 63.3507 66.6119Z" fill="white"/>
    <path fill-rule="evenodd" clip-rule="evenodd" d="M45.5439 61.5501C49.0753 65.4027 53.9818 67.9604 57.8664 67.9604C57.8717 67.9604 57.8771 67.9604 57.8771 67.9604C59.6802 67.9604 61.6653 67.2059 62.8371 66.0823C64.5279 64.4556 65.9511 61.518 67.3369 58.6767L67.6366 58.0614C69.4772 54.289 69.4932 50.0512 69.5146 46.3163L69.52 45.7438L68.8512 43.5767C68.5729 42.5226 68.5569 41.4952 68.5355 40.4946C68.5194 39.4672 68.498 38.4078 68.0914 38.0332C67.5403 37.5249 65.9244 38.9643 64.5065 40.2217C63.2116 41.3614 61.7509 42.6563 60.1457 43.5767C59.1773 44.1385 57.7808 44.5773 56.4324 45.0053C54.9342 45.4816 53.3772 45.9738 52.7084 46.5357C51.5848 47.4828 51.5955 48.1356 51.6169 49.7087L51.6222 50.1314C51.649 51.742 51.6757 53.4008 50.7073 56.7879C50.6163 57.1143 50.2953 57.3337 49.9582 57.3122C49.6157 57.2855 49.3322 57.0287 49.2893 56.6862C49.1288 55.5518 48.8506 54.594 48.4654 53.8396C48.2192 53.358 47.7965 52.7052 47.1866 52.352C46.8174 52.1326 46.4054 52.0631 46.0362 52.1219C45.6563 52.1754 45.2764 52.3841 44.9661 52.6945C44.5434 53.1172 44.2491 53.7218 44.1207 54.4014C44.0083 55.0167 44.0404 55.707 44.1956 56.4026C44.3935 57.2587 44.8537 58.3717 45.5707 59.7148C45.6563 59.8753 45.881 60.2927 45.5439 61.5501ZM57.8664 69.4158C53.4896 69.4158 47.9891 66.521 44.1795 62.219C44.0136 62.0263 43.9548 61.7534 44.0351 61.5126C44.233 60.908 44.2865 60.4585 44.2598 60.3355C43.5107 58.9549 43.0024 57.7136 42.7777 56.729C42.5743 55.8515 42.5422 54.9579 42.692 54.1446C42.874 53.16 43.2967 52.3039 43.9387 51.6671C44.4792 51.132 45.1212 50.7949 45.8115 50.6826C46.5338 50.5756 47.2615 50.7147 47.9142 51.0892C48.6473 51.5119 49.284 52.2343 49.7656 53.1761C49.8351 53.3098 49.894 53.4489 49.9582 53.5988C50.2043 52.138 50.1882 51.132 50.1668 50.1528L50.1615 49.9013C50.1347 48.0393 50.1187 46.8193 51.7667 45.4227C52.6602 44.6736 54.2815 44.1653 55.9883 43.6195C57.2618 43.2182 58.5887 42.8008 59.418 42.3192C60.8948 41.4631 62.2967 40.2271 63.538 39.1301C65.6087 37.2948 67.5724 35.5772 69.0705 36.9577C69.9427 37.7496 69.9694 39.0659 69.9962 40.4571C70.0122 41.3882 70.0283 42.3192 70.2637 43.1754L70.9486 45.4227C70.9646 45.4923 70.9807 45.5672 70.9807 45.6421L70.9754 46.3216C70.9593 50.0244 70.9379 54.6261 68.9528 58.6981L68.6532 59.3028C67.2139 62.2618 65.7318 65.3224 63.8537 67.1257C62.409 68.5115 60.0708 69.4105 57.8878 69.4105C57.8771 69.4158 57.8717 69.4158 57.8664 69.4158Z" fill="#1A87C7"/>
    <path fill-rule="evenodd" clip-rule="evenodd" d="M40.0863 35.299C36.7154 41.4632 38.8343 58.3397 44.645 61.9997C44.7627 61.6893 45.148 60.464 44.934 60.068C44.4043 59.0781 43.7515 57.735 43.484 56.5739C42.2212 51.0144 48.8453 48.4032 50.0063 56.6007C51.0016 53.1333 50.9159 51.5281 50.8945 49.9014C50.8678 48.1785 50.8089 47.1993 52.2375 45.9953C53.1525 45.2248 54.2868 44.9198 55.5389 44.5827H55.5442C56.8391 44.2296 58.2516 43.8443 59.7872 42.9668C61.3175 42.0732 62.7301 40.8371 64.0249 39.6921C65.9297 38.0012 67.5563 36.5725 68.5783 37.5143C69.2204 38.0975 69.2471 39.2479 69.2632 40.4893C69.2899 41.4418 69.306 42.4424 69.5521 43.3841L70.2477 45.6582C70.4457 42.6618 70.3761 39.1837 69.9641 36.3371C69.1562 30.8311 66.6949 30.6224 59.905 27.0266C58.8134 26.4488 57.4169 25.5017 55.3088 25.4428C50.1936 25.2662 42.6065 31.2217 40.0863 35.299Z" fill="#66CEEF"/>
    <path fill-rule="evenodd" clip-rule="evenodd" d="M40.7177 35.6629C37.6732 41.2813 39.3532 56.3064 44.2276 60.7583C44.2598 60.571 44.2758 60.4158 44.2651 60.3356C43.5107 58.9551 43.0024 57.7137 42.7776 56.7291C42.3014 54.6423 42.8151 52.6411 44.1153 51.5014C45.0516 50.6773 46.2769 50.4365 47.3899 50.8432C48.0908 51.1107 49.1716 51.7956 49.9528 53.5935C50.1989 52.1327 50.1829 51.1375 50.1615 50.1583L50.1561 49.9068C50.1294 48.0447 50.1133 46.8247 51.7613 45.4282C52.81 44.5506 54.0407 44.2189 55.3462 43.8657C56.6357 43.5179 57.9573 43.1594 59.418 42.3247C60.8948 41.4685 62.2966 40.2325 63.538 39.1356C65.6087 37.3002 67.5723 35.5826 69.0705 36.9631C69.1775 37.0648 69.2685 37.1665 69.3541 37.2788C69.3166 36.9899 69.2792 36.6956 69.2417 36.4227C68.6211 32.2063 67.1122 31.4518 62.623 29.2151C61.7134 28.7657 60.6968 28.2573 59.5625 27.6527L59.0863 27.3905C58.1285 26.8554 56.9246 26.1973 55.2873 26.1438C55.2178 26.1438 55.1589 26.1438 55.0947 26.1438C50.2417 26.1491 43.0773 31.8585 40.7177 35.6629ZM44.645 62.722C44.5112 62.722 44.3721 62.6846 44.2544 62.6097C38.1547 58.7571 35.9128 41.415 39.4496 34.9405C39.4549 34.9352 39.4603 34.9245 39.4603 34.9084C42.0874 30.6759 49.8886 24.4315 55.3302 24.6883C57.3259 24.7526 58.7545 25.5445 59.7979 26.1117L60.2474 26.3578C61.371 26.9517 62.3769 27.4547 63.2758 27.9042C67.8666 30.189 69.9587 31.2378 70.681 36.2033C71.077 38.9269 71.1894 42.3835 70.9807 45.6743C70.9539 46.0275 70.681 46.311 70.3386 46.3539C69.9855 46.386 69.6644 46.1826 69.5574 45.8455L68.8565 43.5714C68.5783 42.5173 68.5622 41.4899 68.5408 40.4893C68.5247 39.462 68.5033 38.4025 68.0967 38.028C67.5456 37.5196 65.9297 38.959 64.5118 40.2164C63.2169 41.3562 61.7562 42.6511 60.1511 43.5714C58.5405 44.5078 57.053 44.9091 55.7422 45.2623C54.5383 45.5833 53.5056 45.8616 52.7137 46.5304C51.5901 47.4775 51.6008 48.1303 51.6222 49.7035L51.6275 50.1262C51.6543 51.7368 51.681 53.3955 50.7126 56.7826C50.6216 57.109 50.3006 57.3284 49.9635 57.307C49.6211 57.2802 49.3375 57.0234 49.2947 56.681C48.9522 54.2784 48.0747 52.6411 46.8923 52.2023C46.2769 51.9722 45.6242 52.1167 45.0837 52.5822C44.3775 53.2029 43.7782 54.5246 44.2062 56.3974C44.4042 57.2535 44.8644 58.3665 45.5814 59.7095C45.9773 60.4533 45.4369 61.9462 45.3299 62.2351C45.255 62.4438 45.0891 62.599 44.8751 62.6685C44.7948 62.7113 44.7199 62.722 44.645 62.722Z" fill="#1A87C7"/>
    <path fill-rule="evenodd" clip-rule="evenodd" d="M59.6641 72.0056C51.2369 71.2458 46.6086 71.0371 42.2104 66.3444C44.966 69.4586 49.4445 73.4664 51.0015 77.03C53.329 82.3808 52.2054 88.1918 57.4971 93.2002L62.5695 90.5569C66.5076 84.9278 70.4188 69.8225 66.2828 62.3955L66.1384 62.6577C66.5611 66.6441 63.3453 68.549 60.2473 71.6685L59.6641 72.0056Z" fill="#BDEDF8"/>
    <path fill-rule="evenodd" clip-rule="evenodd" d="M47.3256 70.7323C49.1234 72.7067 50.8035 74.7775 51.665 76.7412C52.5157 78.6836 52.917 80.6955 53.313 82.6325C54.0086 86.0677 54.672 89.321 57.6256 92.3121L62.0666 89.9952C65.3679 85.1474 68.8404 72.8512 66.6413 65.1888C65.9993 67.3024 64.3085 68.8541 62.5481 70.4861C61.9649 71.0212 61.3656 71.5777 60.7717 72.177C60.7236 72.2251 60.6701 72.2626 60.6165 72.2947L60.0226 72.6425C59.8942 72.7121 59.7337 72.7495 59.5946 72.7335L58.4817 72.6318C53.8641 72.2251 50.3434 71.9094 47.3256 70.7323ZM57.4971 93.9334C57.3099 93.9334 57.1333 93.8639 56.9942 93.7301C53.3879 90.3216 52.6281 86.56 51.8844 82.9214C51.4884 80.9684 51.1192 79.1224 50.3273 77.3245C49.2305 74.8042 46.5017 71.9469 44.0885 69.4267C43.2217 68.517 42.3817 67.6448 41.6647 66.8315C41.3972 66.5265 41.4186 66.077 41.7182 65.8095C42.0018 65.5366 42.4673 65.5634 42.7348 65.8469C46.7424 70.133 50.9534 70.5022 58.594 71.1817L59.4876 71.262L59.7979 71.0801C60.3865 70.4915 60.9804 69.9403 61.5529 69.416C63.8751 67.2703 65.7157 65.5741 65.4107 62.7328C65.4 62.5883 65.4267 62.4438 65.4963 62.3101L65.6408 62.0425C65.7638 61.8124 66.0046 61.6626 66.2721 61.6626C66.2721 61.6626 66.2721 61.6626 66.2775 61.6626C66.545 61.6626 66.7858 61.8071 66.9142 62.0425C71.3713 70.0634 66.9517 85.5487 63.1527 90.9744C63.0832 91.0761 62.9922 91.1564 62.8906 91.2045L57.8182 93.8478C57.7272 93.9013 57.6042 93.9334 57.4971 93.9334Z" fill="#1A87C7"/>
    <path fill-rule="evenodd" clip-rule="evenodd" d="M57.7807 78.5015C57.6951 78.5015 57.5988 78.4801 57.5185 78.4534L49.3054 75.2696C48.9362 75.1252 48.7489 74.7078 48.888 74.3279C49.0378 73.9587 49.4659 73.7714 49.8297 73.9105L57.3259 76.816L58.8669 72.0805C58.9846 71.7006 59.3913 71.4973 59.7658 71.6097C59.8354 71.4866 59.937 71.3796 60.0708 71.31C60.4293 71.1281 60.868 71.2726 61.0553 71.6311L62.3929 74.2369C62.9334 73.3701 63.5326 72.4391 64.1265 71.5241C65.3518 69.6245 66.6199 67.6608 67.0747 66.6762C67.2352 66.3124 67.6686 66.1465 68.0325 66.3177C68.3963 66.4836 68.5675 66.9116 68.3963 67.2755C67.8987 68.3671 66.6574 70.288 65.3411 72.316C64.5011 73.6162 63.6396 74.9539 62.9494 76.0937C62.821 76.3238 62.5856 76.495 62.2966 76.4522C62.0345 76.4468 61.7937 76.2917 61.676 76.0562L60.0975 72.9741L58.4549 77.9986C58.4014 78.1912 58.2623 78.3464 58.0857 78.432C57.9894 78.4801 57.8877 78.5015 57.7807 78.5015Z" fill="#1A87C7"/>
    <path fill-rule="evenodd" clip-rule="evenodd" d="M57.4972 93.2002L62.5696 90.5569C62.484 89.8131 62.4626 89.674 62.3823 88.9731C61.9542 85.3987 61.8312 81.5675 61.3978 77.7524C61.3871 77.5865 61.5637 76.1311 61.767 74.6328L60.2474 71.6738L59.6588 72.0163L58.4014 75.8635C58.7225 76.9498 59.0328 78.0841 59.0061 78.3356C58.5673 82.8089 58.1072 87.2234 57.6684 91.4826C57.6042 92.114 57.5614 92.526 57.4972 93.2002Z" fill="#66CEEF"/>
    <path fill-rule="evenodd" clip-rule="evenodd" d="M59.1665 75.8637C59.7872 77.9505 59.7551 78.2234 59.7444 78.3946C59.3431 82.381 58.9311 86.3299 58.5405 90.1557L58.3532 91.9215L61.783 90.1397L61.6546 89.0535C61.4352 87.2021 61.2961 85.34 61.1516 83.3602C61.0178 81.5355 60.8787 79.6788 60.6754 77.8274C60.6647 77.7151 60.6379 77.5064 61.0071 74.7454L60.1029 72.9742L59.1665 75.8637ZM57.4971 93.9334C57.3527 93.9334 57.2136 93.8906 57.0905 93.805C56.8658 93.6552 56.7481 93.4037 56.7748 93.1308L57.0958 90.0166C57.4918 86.1908 57.8931 82.2419 58.2944 78.2608C58.2837 78.1752 58.1499 77.5545 57.7058 76.067C57.663 75.9225 57.6684 75.7781 57.7112 75.6336L58.9686 71.781C59.0221 71.6151 59.1398 71.4653 59.2949 71.3797L59.8835 71.0372C60.0547 70.9302 60.2634 70.9088 60.456 70.9677C60.6486 71.0212 60.8092 71.1549 60.9001 71.3315L62.4197 74.2905C62.4893 74.4243 62.5107 74.5741 62.4893 74.7239C62.2431 76.5379 62.1308 77.5492 62.1308 77.7151C62.3341 79.5343 62.4786 81.4071 62.607 83.2532C62.7514 85.2169 62.8905 87.0683 63.1046 88.8822L63.2972 90.4714C63.3293 90.7711 63.1741 91.06 62.9066 91.1938L57.8342 93.8371C57.7272 93.9013 57.6041 93.9334 57.4971 93.9334Z" fill="#1A87C7"/>
    <path fill-rule="evenodd" clip-rule="evenodd" d="M60.1831 78.8708C59.7444 78.8708 59.2414 78.7638 58.6903 78.5551C58.3104 78.4053 58.1285 77.9933 58.273 77.6134C58.4174 77.2335 58.8294 77.0515 59.2147 77.1907C60.4293 77.6562 60.654 77.2977 60.7931 77.0622C61.0018 76.7144 61.4512 76.6128 61.7937 76.8214C62.1361 77.0301 62.2431 77.4796 62.0344 77.8221C61.6117 78.523 60.9857 78.8708 60.1831 78.8708Z" fill="#1A87C7"/>
</svg>
