<svg width="87" height="98" viewBox="0 0 87 98" fill="none" xmlns="http://www.w3.org/2000/svg">
    <g clip-path="url(#clip0)">
        <path fill-rule="evenodd" clip-rule="evenodd" d="M8.01623 85.2671L1.14333 81.2141C0.692929 80.8975 0.61281 80.4902 0.591156 79.959V22.8064C0.636629 22.2221 0.907301 21.8635 1.38801 21.5823C2.16972 21.1219 2.95791 20.6548 3.74394 20.1878C3.93017 20.1059 4.00379 20.0705 4.20084 20.1413L11.0672 24.1988C10.8724 24.1213 10.7966 24.1589 10.6104 24.2408C9.77235 24.7389 8.93651 25.2347 8.09852 25.7262C7.70658 26.0073 7.49654 26.3725 7.45756 26.8639V73.6591L50.8993 48.0214C51.0856 47.935 51.1592 47.8974 51.3562 47.9749L58.2226 52.028C58.0321 51.9571 57.952 51.9859 57.7657 52.0744L11.2535 79.5273L7.45973 77.2872V84.0098C7.47922 84.5499 7.56367 84.9484 8.01623 85.2671Z" fill="#BDEDF8"/>
        <path fill-rule="evenodd" clip-rule="evenodd" d="M4.01461 20.7303L1.67817 22.1027C1.3382 22.3086 1.20178 22.5011 1.1758 22.8553V79.9569C1.19529 80.4329 1.27108 80.5723 1.47679 80.7206L6.86641 83.8971V77.2873C6.86641 77.0726 6.98117 76.8734 7.16306 76.7649C7.34279 76.6565 7.57016 76.6565 7.75421 76.7649L11.2535 78.8346L56.8563 51.9153L51.1765 48.5639L7.75421 74.1839C7.56799 74.2924 7.34279 74.2924 7.16306 74.1839C6.98334 74.0754 6.86641 73.8762 6.86641 73.6615V26.8663C6.92054 26.1491 7.22153 25.6157 7.76287 25.2305L9.69872 24.0883L4.01461 20.7303ZM8.01622 85.8716C7.91662 85.8716 7.81051 85.8451 7.71957 85.7897L0.850993 81.7367C0.138584 81.2386 0.0281499 80.5989 0 79.9835V22.8066C0.0649613 22.0009 0.404925 21.463 1.08702 21.0579L3.44728 19.67C3.75693 19.5217 4.00811 19.4287 4.40438 19.577L11.3617 23.6766C11.6216 23.8293 11.7277 24.168 11.5978 24.4557C11.4678 24.7369 11.1474 24.8697 10.8615 24.7634L8.39083 26.2487C8.18512 26.4015 8.07036 26.6029 8.04437 26.9084L8.05087 72.6211L50.6092 47.5014C50.869 47.373 51.1354 47.2512 51.5619 47.415L58.5193 51.5146C58.7856 51.6673 58.8852 52.006 58.7553 52.2893C58.6254 52.5771 58.2984 52.7099 58.0191 52.597L11.5501 80.0499C11.3704 80.1584 11.143 80.1584 10.9633 80.0499L8.05087 78.3344V84.0122C8.07036 84.4926 8.14181 84.6276 8.35186 84.7759C8.6117 84.9596 8.68316 85.3204 8.51209 85.5905C8.40166 85.7742 8.21111 85.8716 8.01622 85.8716Z" fill="#1A87C7"/>
        <path fill-rule="evenodd" clip-rule="evenodd" d="M9.35875 85.1343C8.83256 85.442 8.36051 85.473 8.01622 85.2671C7.67625 85.0679 7.45972 84.6274 7.45972 84.012V26.8639C7.45972 26.4477 7.74555 25.9364 8.09634 25.7261C8.93867 25.2347 9.7745 24.7366 10.6125 24.2408C10.9676 24.0349 11.2535 24.2054 11.2535 24.626V79.5273L57.7679 52.0766C58.123 51.8663 58.4088 52.0412 58.4088 52.4551C58.4088 53.4446 58.4088 54.4341 58.4088 55.4213C58.4088 55.8353 58.123 56.3488 57.7679 56.5591L9.35875 85.1343Z" fill="white"/>
        <path fill-rule="evenodd" clip-rule="evenodd" d="M10.6666 24.9115L8.39082 26.2485C8.21975 26.3504 8.04869 26.658 8.04869 26.8639V84.012C8.04869 84.375 8.14397 84.6473 8.30853 84.7491C8.46877 84.8465 8.7546 84.7912 9.05992 84.6119L57.4734 56.0389C57.6445 55.9371 57.8199 55.6294 57.8199 55.4236V52.7429L11.5501 80.0497C11.3704 80.1581 11.143 80.1581 10.9633 80.0497C10.7771 79.9412 10.6666 79.742 10.6666 79.5273V24.9115ZM8.50558 85.9998C8.22408 85.9998 7.95991 85.9334 7.71955 85.7895C7.17821 85.473 6.86639 84.82 6.86639 84.012V26.8639C6.86639 26.233 7.26699 25.5203 7.804 25.2037L10.3158 23.7228C10.6775 23.5125 11.0586 23.4926 11.3639 23.6763C11.6692 23.8556 11.8446 24.2054 11.8446 24.6238V78.4869L57.4756 51.552C57.8307 51.3417 58.2118 51.3262 58.5193 51.5099C58.8246 51.6892 59 52.0323 59 52.4529V55.4191C59 56.05 58.5994 56.7628 58.0624 57.0793L9.6489 85.6523C9.25914 85.8869 8.87153 85.9998 8.50558 85.9998Z" fill="#1A87C7"/>
        <path fill-rule="evenodd" clip-rule="evenodd" d="M49.245 53.4759L11.2535 75.8995V34.2532L49.245 11.834V53.4759Z" fill="white"/>
        <path fill-rule="evenodd" clip-rule="evenodd" d="M49.245 53.4759H49.2601H49.245ZM11.8446 34.6029V74.8547L48.6581 53.1284V12.8744L11.8446 34.6029ZM11.2534 76.5038C11.1538 76.5038 11.0521 76.4729 10.9633 76.4219C10.7771 76.3135 10.6666 76.1143 10.6666 75.8995V34.2532C10.6666 34.0384 10.7771 33.8436 10.9633 33.7308L48.9548 11.3116C49.1345 11.2031 49.3619 11.2031 49.5416 11.3116C49.7278 11.42 49.8383 11.6148 49.8383 11.834V53.4759C49.8383 53.6906 49.7278 53.8899 49.5416 53.9983L11.5501 76.4219C11.4592 76.4729 11.3595 76.5038 11.2534 76.5038Z" fill="#1A87C7"/>
        <path fill-rule="evenodd" clip-rule="evenodd" d="M37.0452 27.6366C36.8893 27.5193 36.8503 27.4617 36.7399 27.3046L36.0123 25.9831C35.7114 25.3168 35.8413 24.666 36.073 23.9997C36.4844 22.9947 37.0106 22.5077 37.7122 21.6843C38.7559 20.469 39.7931 19.256 40.8303 18.0451C43.052 15.442 45.2823 12.8432 47.5018 10.2445C48.6906 8.85656 49.8729 7.47307 51.0617 6.08294L48.5499 4.60205C46.915 6.50795 45.2866 8.41384 43.6561 10.322C41.7268 12.571 39.8018 14.8266 37.8724 17.08C36.8352 18.2953 35.798 19.5039 34.7586 20.7192C34.1328 21.4519 33.8015 21.8149 33.4853 22.7379C33.31 23.3533 33.2298 23.9067 33.5048 24.5L34.2259 25.817C34.3363 25.9808 34.3753 26.0318 34.5312 26.1557L37.0452 27.6366ZM47.0146 28.8408L44.5028 27.3599C44.0416 27.0212 44.0069 26.7954 43.9419 26.2421L43.8315 22.6804L46.3434 24.1657L46.4538 27.7163C46.5231 28.2785 46.5577 28.5043 47.0146 28.8408ZM16.171 66.4607L13.6592 64.9798C12.7822 64.4109 13.1373 63.0894 13.4794 62.3058L22.9226 42.2994C23.4142 41.2989 24.0357 40.4798 24.9819 39.8954L34.9925 33.952L39.4336 22.0539L41.9455 23.5348L37.5065 35.4329L27.4959 41.383C26.554 41.9629 25.9282 42.782 25.4367 43.7803L15.9913 63.78C15.6448 64.5703 15.2897 65.8873 16.171 66.4607Z" fill="#66CEEF"/>
        <path fill-rule="evenodd" clip-rule="evenodd" d="M44.453 23.7473L44.5288 26.2176C44.5894 26.6692 44.5894 26.6781 44.8493 26.8684L45.8562 27.4639L45.7609 24.522L44.453 23.7473ZM47.0146 29.4406C46.9085 29.4406 46.8133 29.4141 46.718 29.3631L44.2062 27.8778C43.5154 27.3753 43.4353 26.9614 43.353 26.3195L43.2382 22.7025C43.2339 22.4877 43.3443 22.2775 43.5284 22.1646C43.7081 22.0561 43.9398 22.0561 44.1195 22.1646L46.6314 23.6455C46.8111 23.7473 46.9215 23.9376 46.9324 24.1479L47.0385 27.7052C47.0991 28.1412 47.0991 28.1612 47.3546 28.3515C47.6101 28.5419 47.6751 28.9005 47.504 29.1661C47.3958 29.3432 47.2052 29.4406 47.0146 29.4406ZM48.6733 5.37232L50.1415 6.24447L40.3843 17.6444L36.9305 21.6776C36.3848 22.2974 35.9128 22.8353 35.5165 23.7938C35.3021 24.4246 35.1202 25.1618 35.3822 25.9675L34.8972 25.6797C34.8019 25.6023 34.8019 25.6023 34.7478 25.5204L34.0397 24.2453C33.8492 23.8402 33.9055 23.4462 34.0397 22.9393C34.3104 22.1557 34.5702 21.8524 35.2025 21.1198L48.6733 5.37232ZM39.7411 22.9283L35.5447 34.1666C35.4948 34.2994 35.4039 34.4013 35.2891 34.4743L25.2786 40.4178C24.5272 40.8782 23.9447 41.5666 23.4489 42.5694L14.01 62.5647C13.9039 62.8015 13.3842 64.0876 13.9753 64.4662L15.032 65.0904C15.0667 64.6233 15.2031 64.1009 15.4478 63.5387L24.9018 43.5168C25.5081 42.2927 26.2357 41.4471 27.1928 40.8583L37.0279 35.0211L41.2179 23.7982L39.7411 22.9283ZM16.171 67.0605C16.0714 67.0605 15.9697 67.0339 15.8765 66.983L13.3647 65.4977C12.4163 64.889 12.2669 63.6073 12.9381 62.06L22.3922 42.0381C22.9941 40.814 23.7195 39.9728 24.6831 39.3796L34.5183 33.5424L36.5689 28.0549L34.2368 26.6825C33.9618 26.4678 33.8751 26.3637 33.7366 26.1601L32.9895 24.8032C32.6084 23.9731 32.7297 23.2514 32.9202 22.5785C33.2753 21.5425 33.6413 21.1131 34.2541 20.4003L48.1103 4.20797C48.2966 3.99325 48.6019 3.94234 48.8466 4.08622L51.3584 5.57154C51.5078 5.65787 51.6139 5.81282 51.6442 5.99212C51.6745 6.17142 51.6247 6.35072 51.5035 6.48354L37.8075 22.4767C37.2899 23.0655 36.9197 23.4905 36.6187 24.2298C36.4238 24.7987 36.3372 25.2658 36.5494 25.7262L37.0799 26.6847L38.8902 21.837C38.9508 21.6731 39.0764 21.5448 39.2409 21.4828C39.4055 21.4274 39.5874 21.4407 39.7325 21.5293L42.2443 23.0102C42.4955 23.1629 42.6059 23.4706 42.4998 23.7473L38.0587 35.6453C38.0088 35.7737 37.9244 35.8866 37.8031 35.953L27.7926 41.8965C27.0456 42.3569 26.4587 43.0453 25.9629 44.0481L16.5218 64.0478C16.3724 64.3865 15.909 65.5752 16.4872 65.9537C16.7579 66.1286 16.8423 66.4916 16.6777 66.7749C16.563 66.9586 16.3724 67.0605 16.171 67.0605Z" fill="#1A87C7"/>
        <path fill-rule="evenodd" clip-rule="evenodd" d="M15.9913 63.78L25.4367 43.7803C25.6879 43.2535 26.0019 42.7709 26.3483 42.3614C26.7034 41.9475 27.0954 41.6132 27.496 41.383L37.5065 35.4329L41.9477 23.5349L39.1002 26.8663C38.2276 27.8868 37.1709 28.0816 36.74 27.3068L36.0124 25.9853C35.5923 25.2106 35.9518 23.7452 36.8244 22.7247C41.5709 17.1797 46.3196 11.6302 51.0618 6.08521C51.2523 12.2102 51.4364 18.333 51.6226 24.4513C51.6572 25.578 50.895 26.9991 49.9228 27.6123L48.2793 28.6527C47.307 29.2681 46.4842 28.8475 46.4538 27.7252L46.3434 24.168L41.1443 38.0095C40.9191 38.543 40.6181 39.0654 40.2565 39.5214C39.8711 40.0039 39.4294 40.4024 38.9833 40.6636L28.7519 46.7355L20.0839 65.1016C19.4927 66.3567 18.3797 67.1823 17.6067 66.9366L16.3031 66.516C15.5388 66.2703 15.4002 65.0418 15.9913 63.78Z" fill="#BDEDF8"/>
        <path fill-rule="evenodd" clip-rule="evenodd" d="M16.5218 64.0479C16.1515 64.8271 16.1667 65.4424 16.2901 65.7346C16.3594 65.9029 16.4503 65.9338 16.4806 65.9449L17.7885 66.3655C18.1783 66.4895 19.0315 65.9449 19.5533 64.8425L28.2213 46.4809C28.2755 46.368 28.3556 46.275 28.4573 46.2197L38.6888 40.1412C39.0742 39.9154 39.4618 39.5679 39.8018 39.1362C40.1222 38.7311 40.3972 38.2596 40.6029 37.7682L45.7912 23.9532C45.8973 23.681 46.1571 23.5282 46.443 23.5747C46.718 23.6212 46.9237 23.8625 46.9345 24.148L47.0406 27.7053C47.0514 28.0019 47.1359 28.2232 47.2658 28.2985C47.4152 28.3804 47.6859 28.3184 47.9674 28.1391L49.6109 27.0987C50.3991 26.6007 51.0596 25.3766 51.0336 24.469L50.5182 7.63027L37.2639 23.1165C36.5169 23.9931 36.257 25.1973 36.5277 25.6887L37.2553 27.0058C37.3094 27.1142 37.3852 27.1585 37.4848 27.1696C37.7403 27.1961 38.2059 26.9903 38.6584 26.4612L41.5059 23.1364C41.6921 22.9151 42.0126 22.8641 42.253 23.0147C42.4977 23.1674 42.6038 23.4751 42.4977 23.7474L38.0565 35.6454C38.0067 35.7738 37.9222 35.8867 37.801 35.9531L27.7904 41.8965C27.4504 42.0958 27.104 42.3946 26.7922 42.7532C26.4717 43.1317 26.1815 43.5789 25.9607 44.0393L16.5218 64.0479ZM17.9055 67.583C17.7452 67.583 17.585 67.563 17.4334 67.5121L16.1299 67.0916C15.7184 66.9587 15.3936 66.6466 15.2074 66.215C14.9064 65.5022 15.0017 64.4928 15.4586 63.5255L24.9018 43.5191C25.1725 42.9502 25.5081 42.4278 25.9044 41.9652C26.3093 41.4937 26.7467 41.1196 27.2036 40.8539L37.0301 35.0234L40.2283 26.4657L39.5462 27.2603C38.8793 28.0395 38.0868 28.4446 37.3657 28.3715C36.8807 28.3206 36.4736 28.0439 36.2267 27.5968L35.5056 26.2797C34.9491 25.2814 35.3346 23.5437 36.3826 22.324L50.62 5.68453C50.7759 5.5008 51.0314 5.43439 51.2566 5.51629C51.4861 5.60262 51.642 5.81956 51.6529 6.06526L52.2137 24.4358C52.2548 25.7728 51.3865 27.3931 50.2345 28.1258L48.591 29.1662C47.9284 29.5824 47.242 29.6532 46.7115 29.361C46.1961 29.0733 45.8886 28.4911 45.8648 27.7473L45.8497 27.174L41.6986 38.2264C41.4431 38.8352 41.1075 39.404 40.7155 39.8977C40.2846 40.4422 39.7888 40.8871 39.2821 41.1882L29.2066 47.1693L20.6187 65.3605C19.9799 66.7108 18.8821 67.583 17.9055 67.583Z" fill="#1A87C7"/>
        <path fill-rule="evenodd" clip-rule="evenodd" d="M50.177 89.9013L43.8479 86.2349C51.2695 90.4221 60.5138 83.4106 65.234 77.9943C71.8303 70.4501 77.6458 57.5669 75.1433 47.5347C74.407 44.5855 72.9168 41.9755 70.242 40.3982L76.8948 44.2551C83.5682 48.5049 82.5233 59.2602 80.4482 65.861C77.3846 75.6432 69.0961 87.4789 59.0117 90.5263C56.0401 91.431 52.9527 91.4697 50.177 89.9013Z" fill="#66CEEF"/>
        <path fill-rule="evenodd" clip-rule="evenodd" d="M50.5837 89.2049C52.9052 90.5084 55.6631 90.693 58.7891 89.7496C68.452 86.8271 76.6098 75.3992 79.6793 65.617C81.9266 58.4597 82.4342 48.743 76.4643 44.9426L74.6089 43.8682C75.164 44.9009 75.6123 46.0586 75.927 47.3413C78.5453 57.8466 72.5398 70.8697 65.8455 78.5359C61.5291 83.4761 55.1465 88.1812 49.0579 88.327L50.5837 89.2049ZM55.0575 91.9667C53.1457 91.9667 51.3882 91.5114 49.7852 90.6096C49.7792 90.6096 49.7792 90.6096 49.7703 90.6037L43.4412 86.9372C43.0553 86.717 42.9247 86.2289 43.1473 85.8361C43.367 85.4492 43.8628 85.3123 44.2398 85.5325C51.2962 89.5204 60.3773 82.3274 64.6284 77.4645C71.2544 69.8727 76.7315 57.2246 74.3595 47.7281C73.5966 44.6569 72.0707 42.4219 69.8294 41.0946C69.4435 40.8684 69.3218 40.3714 69.5415 39.9905C69.7671 39.5976 70.2569 39.4756 70.6488 39.6929L77.3015 43.5498C84.07 47.8621 83.6454 58.3882 81.226 66.0991C78.0228 76.289 69.4524 88.2139 59.2551 91.2941C57.7857 91.7465 56.3904 91.9667 55.0575 91.9667Z" fill="#1A87C7"/>
        <path fill-rule="evenodd" clip-rule="evenodd" d="M61.3866 44.4931C51.2072 50.3916 42.9543 64.7152 42.9543 76.5003C42.9543 88.2823 51.2072 93.0559 61.3866 87.1663C71.5661 81.2768 79.8189 66.9472 79.8189 55.1652C79.8189 43.3771 71.5661 38.6006 61.3866 44.4931Z" fill="white"/>
        <path fill-rule="evenodd" clip-rule="evenodd" d="M69.6186 42.776C67.2348 42.776 64.569 43.5825 61.7903 45.1925C51.8454 50.9452 43.7648 64.9861 43.7648 76.4973C43.7648 81.8929 45.537 85.8867 48.7551 87.7556C51.979 89.6216 56.328 89.1603 60.9888 86.467C70.9278 80.7084 79.0144 66.6675 79.0144 55.1622C79.0144 49.7607 77.2332 45.7639 74.0182 43.9039C72.7179 43.148 71.2336 42.776 69.6186 42.776ZM53.1546 90.5084C51.2576 90.5084 49.5061 90.068 47.9535 89.1633C44.216 86.9938 42.1528 82.494 42.1528 76.5003C42.1528 64.4712 50.5986 49.8024 60.9888 43.7968C66.1631 40.794 71.0792 40.3327 74.8227 42.5022C78.5602 44.6658 80.6293 49.1655 80.6293 55.1652C80.6293 67.1883 72.1746 81.8542 61.7933 87.8687C58.7623 89.6186 55.8204 90.5084 53.1546 90.5084Z" fill="#1A87C7"/>
        <path fill-rule="evenodd" clip-rule="evenodd" d="M57.0435 36.9132C61.6894 34.2883 67.7365 32.3807 72.7802 35.0948L79.1153 38.7613C69.7968 34.1097 58.7475 42.7432 52.9943 49.4809C45.2907 58.5072 38.6736 73.2712 41.0366 85.2438C41.7996 89.1364 43.5125 92.5261 46.873 94.7581C45.3619 93.8891 40.9565 91.4577 39.8017 90.5827C32.5374 85.0771 33.7278 72.8427 36.0285 65.2092C39.3593 54.1443 47.0244 42.8592 57.0435 36.9132Z" fill="#66CEEF"/>
        <path fill-rule="evenodd" clip-rule="evenodd" d="M57.4472 37.6154C48.2385 43.0853 40.3271 53.7425 36.8033 65.4352C34.3216 73.6491 33.7516 84.9877 40.2885 89.9338C40.6744 90.2285 41.4849 90.7255 42.4259 91.279C41.4166 89.6243 40.6952 87.675 40.241 85.3954C37.8008 72.9943 44.8246 57.8107 52.3857 48.9511C57.8005 42.6062 66.0415 36.3982 73.8608 36.6601L72.3825 35.7971C67.4278 33.1305 61.5291 35.3149 57.4472 37.6154ZM46.873 95.5704C46.7364 95.5704 46.5969 95.5347 46.4663 95.4603L45.0651 94.6628C43.0315 93.511 40.247 91.9397 39.3118 91.2254C32.1248 85.7823 32.5018 74.0984 35.2567 64.968C38.8933 52.8973 47.0837 41.88 56.6309 36.2197C56.6368 36.2197 56.6457 36.2137 56.6457 36.2048C61.0779 33.7049 67.5466 31.3598 73.1662 34.3864L79.525 38.0648C79.902 38.285 80.0415 38.7612 79.8337 39.1451C79.62 39.5379 79.148 39.6837 78.7621 39.4903C70.3905 35.309 59.9884 42.5437 53.6147 50.0046C46.297 58.5755 39.4929 73.2086 41.8292 85.0859C42.6486 89.2256 44.4416 92.1748 47.3212 94.0824C47.6864 94.3235 47.7873 94.8116 47.5557 95.1836C47.4014 95.4335 47.1401 95.5704 46.873 95.5704Z" fill="#1A87C7"/>
        <path fill-rule="evenodd" clip-rule="evenodd" d="M49.8624 89.7077L43.5243 86.0413L50.177 89.9012L49.8624 89.7077Z" fill="#66CEEF"/>
        <path fill-rule="evenodd" clip-rule="evenodd" d="M50.177 90.7134C50.0405 90.7134 49.901 90.6777 49.7703 90.6033L43.1176 86.7464C42.7406 86.5202 42.604 86.0292 42.8297 85.6363C43.0493 85.2495 43.5451 85.1185 43.9281 85.3417L50.2572 89.0082C50.272 89.0141 50.272 89.0231 50.278 89.0231L50.6016 89.2165C50.9726 89.4516 51.1033 89.9397 50.8776 90.3266C50.7262 90.5676 50.4591 90.7134 50.177 90.7134Z" fill="#1A87C7"/>
        <path fill-rule="evenodd" clip-rule="evenodd" d="M76.5801 44.0643C74.8553 43.0644 72.801 42.6507 70.5181 42.8799C68.3183 43.1001 65.9137 43.9126 63.3785 45.3738C60.8492 46.841 58.4358 48.82 56.239 51.1413C53.959 53.5578 51.9107 56.3553 50.177 59.3462C48.4582 62.3371 47.0718 65.5185 46.1308 68.7088C45.2164 71.7741 44.7147 74.8602 44.7147 77.7886C44.7147 80.717 45.2164 83.2169 46.1308 85.2346C47.0718 87.3297 48.4611 88.907 50.177 89.898C51.9077 90.898 53.9561 91.3176 56.239 91.0884C58.4387 90.8682 60.8522 90.0558 63.3785 88.5886C65.9137 87.1214 68.3213 85.1513 70.5181 82.8211C72.801 80.4016 74.8553 77.613 76.5801 74.6221C78.3048 71.6312 79.6942 68.4499 80.6352 65.2596C81.5436 62.1883 82.0453 59.1081 82.0453 56.1797C82.0453 53.2513 81.5436 50.7515 80.6352 48.7337C79.6942 46.6416 78.3078 45.0643 76.5801 44.0643ZM47.2499 57.6499C51.3793 50.4836 57.085 44.2221 63.3785 40.5764C69.6809 36.9308 75.3837 36.5886 79.5071 38.9783C83.6365 41.3681 86.1866 46.4868 86.1866 53.784C86.1866 61.0723 83.6365 69.1492 79.5071 76.3185C75.3837 83.4847 69.678 89.7373 63.3785 93.383C57.0821 97.0345 51.3793 97.3708 47.2499 94.987C43.1206 92.5973 40.5705 87.4785 40.5705 80.1813C40.5705 72.896 43.1206 64.8161 47.2499 57.6499Z" fill="#BDEDF8"/>
        <path fill-rule="evenodd" clip-rule="evenodd" d="M71.7234 43.6301C71.3583 43.6301 70.9813 43.645 70.6042 43.6837C68.4549 43.8979 66.1572 44.7044 63.7853 46.0734C61.3807 47.4662 59.0444 49.3589 56.8238 51.6951C54.6033 54.0521 52.6054 56.7603 50.8806 59.7482C49.1618 62.7302 47.8229 65.8253 46.9026 68.9322C45.9883 72.0273 45.5282 75.0033 45.5282 77.7859C45.5282 80.5327 45.9735 82.9255 46.87 84.9015C47.7368 86.8241 48.9926 88.2704 50.5867 89.2019C52.1957 90.1245 54.063 90.4905 56.1589 90.2822C58.3081 90.0679 60.6059 89.2644 62.9837 87.8924C65.3883 86.4937 67.7336 84.598 69.9393 82.2648C72.1657 79.9078 74.1666 77.1996 75.8825 74.2176C77.6013 71.2357 78.9402 68.1406 79.8604 65.0336C80.7748 61.9475 81.2409 58.9715 81.2409 56.18C81.2409 53.4242 80.7867 51.0344 79.902 49.0643C79.0292 47.1358 77.7794 45.6895 76.1764 44.7669C74.8702 44.011 73.371 43.6301 71.7234 43.6301ZM55.0367 91.9607C53.1071 91.9607 51.3408 91.5053 49.7733 90.6036C47.8764 89.5084 46.4069 87.8151 45.3946 85.5741C44.406 83.3838 43.9043 80.7708 43.9043 77.7888C43.9043 74.8456 44.3912 71.7178 45.353 68.4739C46.3089 65.242 47.6982 62.0308 49.4824 58.9387C51.2695 55.8466 53.3446 53.0343 55.6542 50.5821C57.9757 48.1358 60.4367 46.1448 62.9808 44.6776C65.5457 43.1896 68.0601 42.3147 70.438 42.0736C72.8842 41.8266 75.0898 42.2671 76.9809 43.3622C78.8838 44.4663 80.3621 46.1537 81.3715 48.3977C82.3541 50.5731 82.8558 53.192 82.8558 56.1829C82.8558 59.1322 82.3689 62.2659 81.4041 65.4979C80.4482 68.7298 79.0619 71.938 77.2748 75.0331C75.5025 78.1192 73.4185 80.9375 71.103 83.3838C68.7934 85.8301 66.3264 87.821 63.7853 89.2942C61.2085 90.7822 58.7 91.6571 56.3221 91.8982C55.8828 91.9398 55.4553 91.9607 55.0367 91.9607ZM73.564 38.2584C75.5975 38.2584 77.4677 38.7345 79.1034 39.6779C83.1497 42.0201 85.3851 47.0287 85.3851 53.7872C85.3851 60.6976 83.0488 68.5572 78.8095 75.9169C74.5703 83.2737 68.9477 89.2346 62.9808 92.6928C57.1474 96.0676 51.7029 96.633 47.6567 94.2909C43.6075 91.9488 41.381 86.9401 41.381 80.1875C41.381 73.2772 43.7114 65.4175 47.9506 58.0519C52.1898 50.6952 57.8124 44.7401 63.7853 41.282C67.2556 39.2762 70.5805 38.2584 73.564 38.2584ZM53.1962 97.3264C50.8806 97.3264 48.7432 96.7907 46.8522 95.6926C42.2745 93.0469 39.7601 87.5413 39.7601 80.1846C39.7601 72.9915 42.1795 64.8432 46.5553 57.2424C50.934 49.6357 56.7674 43.4694 62.9808 39.8743C69.3248 36.2019 75.3451 35.6305 79.9139 38.2762C84.4826 40.9219 87 46.4246 87 53.7843C87 60.9773 84.5895 69.1197 80.2107 76.7264C75.832 84.3242 69.9986 90.4905 63.7853 94.0885C60.0596 96.2461 56.4587 97.3264 53.1962 97.3264Z" fill="#1A87C7"/>
        <path fill-rule="evenodd" clip-rule="evenodd" d="M65.2488 66.358L63.5982 69.8667L51.8484 66.5038L53.496 62.998L65.2488 66.358Z" fill="#BDEDF8"/>
        <path fill-rule="evenodd" clip-rule="evenodd" d="M52.9884 65.986L63.1589 68.8935L64.1148 66.8758L53.9353 63.9623L52.9884 65.986ZM63.5983 70.6732C63.5211 70.6732 63.4528 70.6672 63.3726 70.6464L51.6287 67.2835C51.4031 67.221 51.2101 67.0573 51.1122 66.843C51.0172 66.6228 51.0172 66.3818 51.1181 66.1615L52.7687 62.6558C52.9409 62.2897 53.3268 62.1052 53.7246 62.2213L65.4715 65.5753C65.706 65.6437 65.89 65.8014 65.985 66.0217C66.08 66.2359 66.08 66.483 65.9791 66.7032L64.3285 70.2089C64.192 70.5006 63.91 70.6732 63.5983 70.6732Z" fill="#1A87C7"/>
        <path fill-rule="evenodd" clip-rule="evenodd" d="M60.879 72.9441C60.7424 72.9441 60.6029 72.9084 60.4723 72.8399C60.0864 72.6137 59.9557 72.1167 60.1784 71.7299L73.8044 48.0645C74.0241 47.6776 74.5258 47.5407 74.9058 47.7699C75.2977 47.9961 75.4283 48.4931 75.1997 48.871L61.5707 72.5364C61.4282 72.8012 61.1521 72.9441 60.879 72.9441Z" fill="#1A87C7"/>
    </g>
    <defs>
        <clipPath id="clip0">
            <rect width="87" height="98" fill="white"/>
        </clipPath>
    </defs>
</svg>
