<svg width="24" height="18" viewBox="0 0 24 18" fill="none" xmlns="http://www.w3.org/2000/svg">
  <rect width="24" height="17.1429" rx="2" fill="white"/>
  <mask id="mask0" mask-type="alpha" maskUnits="userSpaceOnUse" x="0" y="0" width="24" height="18">
    <rect width="24" height="17.1429" rx="2" fill="white"/>
  </mask>
  <g mask="url(#mask0)">
    <rect width="24" height="17.1429" fill="#1537D1"/>
    <rect x="11.4286" width="12.5714" height="17.1429" fill="#EA3058"/>
    <path fill-rule="evenodd" clip-rule="evenodd" d="M8.00003 17.1429H16V0H8.00003V17.1429Z" fill="#FFCF3C"/>
    <path fill-rule="evenodd" clip-rule="evenodd" d="M10.8571 7.42856H12V7.99999H10.8571V7.42856Z" fill="#FFEDB1"/>
    <path
      d="M11.0102 7.19045H12.9897C13.1847 7.19045 13.3381 7.35713 13.3219 7.55147L13.1982 9.0354C13.155 9.55369 12.7218 9.95235 12.2017 9.95235H11.7982C11.2781 9.95235 10.8449 9.55369 10.8017 9.0354L10.678 7.55147C10.6618 7.35713 10.8152 7.19045 11.0102 7.19045Z"
      stroke="#D32E28" stroke-width="0.666667"/>
    <path fill-rule="evenodd" clip-rule="evenodd" d="M10.8571 7.99997H13.1428V8.5714H12.5714H11.4285H10.8571V7.99997Z"
          fill="#D32E28"/>
  </g>
</svg>
