<svg width="24" height="18" viewBox="0 0 24 18" fill="none" xmlns="http://www.w3.org/2000/svg">
  <rect width="24" height="17.1429" rx="2" fill="white"/>
  <mask id="mask0" mask-type="alpha" maskUnits="userSpaceOnUse" x="0" y="0" width="24" height="18">
    <rect width="24" height="17.1429" rx="2" fill="white"/>
  </mask>
  <g mask="url(#mask0)">
    <rect x="11.4286" width="12.5714" height="17.1429" fill="#1AB11F"/>
    <path fill-rule="evenodd" clip-rule="evenodd" d="M0 17.1429H8V0H0V17.1429Z" fill="#262626"/>
    <path fill-rule="evenodd" clip-rule="evenodd" d="M8.00003 17.1429H16V0H8.00003V17.1429Z" fill="#DC0D18"/>
    <path opacity="0.75"
          d="M10.381 8C10.381 7.63181 10.0825 7.33334 9.71432 7.33334C9.34614 7.33334 9.04766 7.63181 9.04766 8H10.381ZM10.52 10.555C10.8384 10.7398 11.2464 10.6315 11.4312 10.313C11.616 9.99453 11.5076 9.58657 11.1891 9.40179L10.52 10.555ZM12.8707 9.36534C12.5605 9.56372 12.4699 9.97599 12.6683 10.2862C12.8667 10.5963 13.2789 10.687 13.5891 10.4886L12.8707 9.36534ZM14.9524 8C14.9524 7.63181 14.6539 7.33333 14.2858 7.33333C13.9176 7.33333 13.6191 7.63181 13.6191 8H14.9524ZM9.04766 8C9.04766 9.09224 9.64112 10.0451 10.52 10.555L11.1891 9.40179C10.7045 9.12057 10.381 8.59768 10.381 8H9.04766ZM13.5891 10.4886C14.4075 9.96517 14.9524 9.04644 14.9524 8H13.6191C13.6191 8.57276 13.3222 9.0766 12.8707 9.36534L13.5891 10.4886Z"
          fill="white"/>
    <path fill-rule="evenodd" clip-rule="evenodd"
          d="M12 9.14287C12.6312 9.14287 13.1428 8.37535 13.1428 7.42858C13.1428 6.48181 12.6312 5.71429 12 5.71429C11.3688 5.71429 10.8571 6.48181 10.8571 7.42858C10.8571 8.37535 11.3688 9.14287 12 9.14287Z"
          fill="white" fill-opacity="0.5"/>
  </g>
</svg>
