<svg width="24" height="18" viewBox="0 0 24 18" fill="none" xmlns="http://www.w3.org/2000/svg">
  <rect width="24" height="17.1429" rx="2" fill="white"/>
  <mask id="mask0" mask-type="alpha" maskUnits="userSpaceOnUse" x="0" y="0" width="24" height="18">
    <rect width="24" height="17.1429" rx="2" fill="white"/>
  </mask>
  <g mask="url(#mask0)">
    <rect width="24" height="17.1429" fill="#0A17A7"/>
    <path fill-rule="evenodd" clip-rule="evenodd"
          d="M14.8572 8.57144C14.8572 6.85715 14.8572 5.71429 14.8572 5.71429L16 6.28572L17.1429 5.71429L18.2857 6.28572L19.4286 5.71429C19.4286 5.71429 19.4286 6.85715 19.4286 8.57144C19.4286 10.2857 17.1429 11.4286 17.1429 11.4286C17.1429 11.4286 14.8572 10.2857 14.8572 8.57144Z"
          fill="white"/>
    <mask id="mask1" mask-type="alpha" maskUnits="userSpaceOnUse" x="14" y="5" width="6" height="7">
      <path fill-rule="evenodd" clip-rule="evenodd"
            d="M14.8572 8.57144C14.8572 6.85715 14.8572 5.71429 14.8572 5.71429L16 6.28572L17.1429 5.71429L18.2857 6.28572L19.4286 5.71429C19.4286 5.71429 19.4286 6.85715 19.4286 8.57144C19.4286 10.2857 17.1429 11.4286 17.1429 11.4286C17.1429 11.4286 14.8572 10.2857 14.8572 8.57144Z"
            fill="white"/>
    </mask>
    <g mask="url(#mask1)">
      <rect x="14.8572" y="10.2857" width="4.57143" height="1.14286" fill="#9ACCFF"/>
      <path fill-rule="evenodd" clip-rule="evenodd"
            d="M17.1429 7.99997C17.4585 7.99997 17.7143 7.74414 17.7143 7.42855C17.7143 7.11295 17.4585 6.85712 17.1429 6.85712C16.8273 6.85712 16.5715 7.11295 16.5715 7.42855C16.5715 7.74414 16.8273 7.99997 17.1429 7.99997ZM16 9.14283C16.3156 9.14283 16.5714 8.88699 16.5714 8.5714C16.5714 8.25581 16.3156 7.99997 16 7.99997C15.6844 7.99997 15.4286 8.25581 15.4286 8.5714C15.4286 8.88699 15.6844 9.14283 16 9.14283ZM18.8571 8.5714C18.8571 8.88699 18.6013 9.14283 18.2857 9.14283C17.9701 9.14283 17.7143 8.88699 17.7143 8.5714C17.7143 8.25581 17.9701 7.99997 18.2857 7.99997C18.6013 7.99997 18.8571 8.25581 18.8571 8.5714Z"
            fill="url(#paint0_linear)"/>
    </g>
    <path
      d="M0 -0.333333H-0.901086L-0.21693 0.253086L3.66667 3.58188V4.39989L-0.193746 7.15733L-0.333333 7.25703V7.42857V8V8.60141L0.176666 8.28267L4.66703 5.47619H5.60746L9.47126 8.23604C9.55984 8.29932 9.66599 8.33333 9.77485 8.33333C10.2598 8.33333 10.4829 7.73003 10.1148 7.41445L6.61905 4.41812V3.60011L10.3399 0.942378C10.5151 0.817237 10.619 0.61519 10.619 0.399889V0V-0.601416L10.109 -0.282666L5.61869 2.52381H4.67825L0.765175 -0.271244L0.67825 -0.333333H0.571429H0Z"
      fill="#FF2E3B" stroke="white" stroke-width="0.666667"/>
    <path fill-rule="evenodd" clip-rule="evenodd"
          d="M0 2.85714V5.14286H4V7.90476C4 8.27295 4.29848 8.57143 4.66667 8.57143H5.61905C5.98724 8.57143 6.28571 8.27295 6.28571 7.90476V5.14286H10.1905C10.5587 5.14286 10.8571 4.84438 10.8571 4.47619V3.52381C10.8571 3.15562 10.5587 2.85714 10.1905 2.85714H6.28571V0H4V2.85714H0Z"
          fill="white"/>
    <path fill-rule="evenodd" clip-rule="evenodd"
          d="M0 3.42857H4.57143V2.85714V0H5.71429V2.85714V3.42857H10.2857V4.57143H5.71429V5.14286V8H4.57143V5.14286V4.57143H0V3.42857Z"
          fill="#FF2E3B"/>
  </g>
  <defs>
    <linearGradient id="paint0_linear" x1="15.4286" y1="6.85712" x2="15.4286" y2="9.14283"
                    gradientUnits="userSpaceOnUse">
      <stop stop-color="#FFA51B"/>
      <stop offset="1" stop-color="#FF9A00"/>
    </linearGradient>
  </defs>
</svg>
