<svg width="24" height="18" viewBox="0 0 24 18" fill="none" xmlns="http://www.w3.org/2000/svg">
  <mask id="mask0" mask-type="alpha" maskUnits="userSpaceOnUse" x="0" y="0" width="24" height="18">
    <rect width="24" height="17.1429" rx="2" fill="white"/>
  </mask>
  <g mask="url(#mask0)">
    <rect width="24" height="17.1429" fill="#EE343C"/>
    <path fill-rule="evenodd" clip-rule="evenodd"
          d="M10.6722 3.81505C10.4475 3.59034 10.0954 3.55548 9.83099 3.73175L9.5273 3.93421C9.10139 4.21815 9.14112 4.85628 9.59896 5.0852L10.4886 5.53004C10.7145 5.64297 10.8572 5.87381 10.8572 6.12633V6.19049C10.8572 6.55868 10.5587 6.85716 10.1905 6.85716H9.87169C9.76819 6.85716 9.66611 6.83306 9.57354 6.78678L7.85837 5.92919C7.60171 5.80086 7.29173 5.85117 7.08882 6.05407L6.93977 6.20312C6.61801 6.52488 6.70604 7.06731 7.11304 7.27081L7.80394 7.61626C8.14593 7.78726 8.17561 8.26391 7.85747 8.47601V8.47601C7.48833 8.7221 7.601 9.29164 8.03603 9.37865L8.5177 9.47498C8.98016 9.56747 9.11536 10.1635 8.73806 10.4465L8.30684 10.7699C8.02551 10.9809 8.17473 11.4286 8.5264 11.4286V11.4286C8.55632 11.4286 8.58613 11.4249 8.61515 11.4177L9.69668 11.1473C10.1068 11.0448 10.4281 11.5008 10.1936 11.8525V11.8525C9.98875 12.1598 10.2091 12.5714 10.5784 12.5714H11.0786C11.2876 12.5714 11.4732 12.7052 11.5393 12.9035V12.9035C11.6869 13.3463 12.3132 13.3463 12.4608 12.9035V12.9035C12.5269 12.7052 12.7125 12.5714 12.9215 12.5714H13.4216C13.791 12.5714 14.0113 12.1598 13.8064 11.8525V11.8525C13.5719 11.5007 13.8933 11.0448 14.3034 11.1473L15.3849 11.4177C15.4139 11.4249 15.4437 11.4286 15.4736 11.4286V11.4286C15.8253 11.4286 15.9745 10.9809 15.6932 10.7699L15.262 10.4465C14.8847 10.1635 15.0199 9.56747 15.4823 9.47498L15.964 9.37865C16.399 9.29164 16.5117 8.7221 16.1426 8.47601V8.47601C15.8244 8.26391 15.8541 7.78726 16.1961 7.61626L16.887 7.27081C17.294 7.06731 17.382 6.52488 17.0603 6.20312L16.9112 6.05407C16.7083 5.85117 16.3983 5.80086 16.1417 5.92919L14.4265 6.78678C14.3339 6.83306 14.2319 6.85716 14.1284 6.85716H13.8095C13.4414 6.85716 13.1429 6.55868 13.1429 6.19049V6.12633C13.1429 5.87381 13.2852 5.64312 13.5111 5.5302C13.7894 5.39104 14.1063 5.2326 14.4012 5.08515C14.859 4.85623 14.8987 4.21815 14.4727 3.93421L14.1691 3.73175C13.9046 3.55548 13.5526 3.59034 13.3278 3.81505L12.4714 4.67147C12.2111 4.93182 11.789 4.93182 11.5286 4.67147L10.6722 3.81505Z"
          fill="#262626"/>
  </g>
</svg>
