<svg width="24" height="18" viewBox="0 0 24 18" fill="none" xmlns="http://www.w3.org/2000/svg">
  <rect width="24" height="17.1167" rx="2" fill="white"/>
  <mask id="mask0" mask-type="alpha" maskUnits="userSpaceOnUse" x="0" y="0" width="24" height="18">
    <rect width="24" height="17.1167" rx="2" fill="white"/>
  </mask>
  <g mask="url(#mask0)">
    <g filter="url(#filter0_d)">
      <rect width="24" height="17.1167" fill="#4189DD"/>
    </g>
  </g>
  <path
    d="M19.9528 9.68817C19.9371 9.68817 19.9371 9.67264 19.9213 9.67264C19.9056 9.64158 19.8899 9.62605 19.8741 9.61051C19.8741 9.61051 19.8741 9.61051 19.8741 9.59498C19.8741 9.56392 19.8584 9.56392 19.8584 9.56392C19.8584 9.56392 19.8427 9.56392 19.8427 9.54839L19.8269 9.53286C19.8269 9.53286 19.8112 9.53286 19.8112 9.51732C19.7797 9.50179 19.7483 9.47073 19.7011 9.48626H19.6853C19.6853 9.48626 19.6853 9.48626 19.6696 9.48626C19.6696 9.48626 19.6539 9.47073 19.6382 9.47073C19.6224 9.47073 19.6224 9.47073 19.6067 9.47073H19.591C19.5752 9.47073 19.5752 9.47073 19.5595 9.47073C19.5438 9.47073 19.528 9.47073 19.5123 9.47073C19.4966 9.47073 19.4966 9.47073 19.4808 9.47073C19.4651 9.47073 19.4651 9.47073 19.4494 9.47073C19.4494 9.47073 19.4336 9.47073 19.4336 9.4552V9.43967C19.4336 9.43967 19.4336 9.43967 19.4336 9.42413C19.4336 9.4086 19.4336 9.39307 19.4336 9.39307C19.4179 9.36201 19.4022 9.37754 19.3864 9.37754H19.3707C19.355 9.37754 19.355 9.37754 19.355 9.36201C19.355 9.34647 19.355 9.33094 19.3392 9.33094L19.3235 9.29988C19.3235 9.26882 19.3235 9.26882 19.3392 9.25329C19.355 9.25329 19.355 9.23775 19.355 9.22222C19.3392 9.19116 19.355 9.1601 19.355 9.14456C19.355 9.12903 19.355 9.1135 19.3392 9.09797C19.3392 9.06691 19.3392 9.05137 19.355 9.03584C19.3864 9.03584 19.3864 9.02031 19.3864 8.98925C19.3864 8.95818 19.3707 8.94265 19.3707 8.92712V8.91159C19.3707 8.89606 19.3707 8.88053 19.3707 8.88053C19.3707 8.86499 19.3707 8.86499 19.3707 8.84946C19.3707 8.8184 19.3707 8.7718 19.3864 8.74074C19.4022 8.70968 19.4179 8.66308 19.4494 8.64755C19.4651 8.63202 19.4966 8.63202 19.5123 8.61649C19.528 8.60096 19.5438 8.56989 19.528 8.55436C19.528 8.55436 19.528 8.55436 19.528 8.53883C19.528 8.5233 19.5438 8.50777 19.5595 8.50777C19.5752 8.4767 19.591 8.46117 19.591 8.44564C19.6067 8.39904 19.6067 8.35245 19.5438 8.33692L19.528 8.32139C19.5123 8.29032 19.4808 8.27479 19.4651 8.24373C19.4336 8.21266 19.4179 8.1816 19.4022 8.13501C19.4022 8.11947 19.3864 8.08841 19.355 8.08841C19.355 8.07288 19.355 8.05735 19.355 8.02628C19.3707 7.91756 19.4808 7.80884 19.4651 7.70012C19.4022 7.68459 19.3235 7.70012 19.2606 7.71565C19.2448 7.71565 19.2291 7.71565 19.2134 7.71565C19.1976 7.71565 19.1662 7.71565 19.1504 7.71565H19.1347H19.119C19.0718 7.70012 19.056 7.68459 19.0246 7.68459C18.9931 7.63799 18.9617 7.65352 18.9617 7.65352C18.9459 7.65352 18.9302 7.65352 18.9302 7.65352C18.9145 7.65352 18.9145 7.65352 18.8987 7.65352C18.8987 7.65352 18.8987 7.65352 18.883 7.63799C18.8673 7.63799 18.8673 7.63799 18.8673 7.62246C18.8515 7.57587 18.8515 7.56033 18.8201 7.5448C18.8043 7.52927 18.8043 7.51374 18.7886 7.49821C18.7886 7.48268 18.7729 7.48268 18.7729 7.46714C18.7571 7.46714 18.7571 7.45161 18.7414 7.43608C18.7257 7.40502 18.6942 7.37395 18.647 7.37395C18.647 7.37395 18.647 7.37395 18.6313 7.37395C18.6155 7.37395 18.5998 7.37395 18.5998 7.37395C18.5841 7.37395 18.5841 7.37395 18.5683 7.37395H18.5526C18.5526 7.37395 18.5369 7.37395 18.5369 7.38949C18.5369 7.40502 18.5369 7.40502 18.5369 7.38949V7.37395C18.5369 7.37395 18.5369 7.37395 18.5369 7.35842C18.5211 7.35842 18.5054 7.34289 18.4739 7.34289C18.4425 7.34289 18.411 7.32736 18.3795 7.31183C18.3795 7.31183 18.3795 7.31183 18.3638 7.2963C18.3638 7.26523 18.3481 7.2497 18.3323 7.23417C18.3323 7.23417 18.3324 7.21864 18.3166 7.21864C18.3009 7.21864 18.3009 7.20311 18.2852 7.20311C18.2852 7.20311 18.2694 7.18757 18.2537 7.18757C18.2537 7.17204 18.2537 7.17204 18.2537 7.17204C18.2537 7.15651 18.238 7.15651 18.238 7.15651H18.2222H18.2065L18.1908 7.14098C18.238 7.12545 18.2694 7.09438 18.2852 7.06332C18.3481 6.97013 18.411 6.86141 18.3638 6.75269C18.3638 6.73716 18.3481 6.70609 18.3323 6.69056C18.3323 6.67503 18.3323 6.6595 18.3323 6.62843C18.3323 6.6129 18.3323 6.6129 18.3323 6.59737C18.3323 6.58184 18.3323 6.58184 18.3323 6.56631C18.3323 6.55078 18.3323 6.53524 18.3323 6.53524C18.3323 6.51971 18.3323 6.51971 18.3323 6.51971C18.3323 6.51971 18.3323 6.51971 18.3323 6.50418C18.3638 6.47312 18.3953 6.42652 18.411 6.39546C18.4267 6.3644 18.4425 6.33333 18.4425 6.30227H18.4582C18.4739 6.30227 18.4897 6.30227 18.5054 6.28674C18.5211 6.28674 18.5369 6.27121 18.5369 6.25567C18.5369 6.24014 18.5211 6.22461 18.5211 6.20908L18.5054 6.19355H18.4897H18.4739C18.4739 6.17802 18.4582 6.16249 18.4582 6.14695C18.4582 6.14695 18.4425 6.10036 18.4425 6.08483C18.4425 6.0693 18.4425 6.05376 18.4425 6.03823C18.4425 6.0227 18.4425 6.0227 18.4425 6.00717C18.4425 5.99164 18.4425 5.9761 18.4267 5.9761C18.3795 5.91398 18.3638 5.86738 18.3638 5.82079C18.3638 5.78973 18.3481 5.75866 18.3323 5.74313C18.3166 5.71207 18.3166 5.681 18.3166 5.66547C18.3166 5.63441 18.3166 5.60335 18.3009 5.57228C18.3009 5.52569 18.2694 5.49462 18.2537 5.47909L18.238 5.46356C18.2222 5.46356 18.2222 5.46356 18.2222 5.44803C18.2222 5.44803 18.2222 5.44803 18.2222 5.4325C18.2222 5.4325 18.2222 5.41697 18.2065 5.40143C18.2065 5.3859 18.2065 5.37037 18.2065 5.35484V5.33931C18.2065 5.32378 18.1908 5.30824 18.175 5.29271C18.175 5.29271 18.175 5.29271 18.175 5.27718C18.1593 5.29271 18.1593 5.27718 18.1593 5.26165V5.24612V5.23059V5.21505C18.1593 5.19952 18.1593 5.18399 18.1278 5.16846C18.1278 5.16846 18.1278 5.16846 18.1121 5.15293C18.1121 5.1374 18.0964 5.10633 18.0649 5.10633C18.0649 5.10633 18.0649 5.10633 18.0492 5.0908C18.0492 5.07527 18.0492 5.07527 18.0334 5.05974C18.0334 5.05974 18.0334 5.05974 18.0334 5.04421L18.0492 5.05974L18.0649 5.04421C18.0806 5.04421 18.0964 5.01314 18.0806 4.99761C18.0806 4.99761 18.0806 4.98208 18.0649 4.96655C18.0649 4.96655 18.0649 4.96655 18.0649 4.95102C18.0649 4.95102 18.0649 4.95102 18.0649 4.93548V4.91995C18.0806 4.90442 18.0649 4.88889 18.0492 4.88889C18.0492 4.88889 18.0492 4.88889 18.0492 4.87336C18.0492 4.87336 18.0492 4.87336 18.0492 4.85783C18.0492 4.81123 18.0334 4.78017 18.0177 4.76464C18.0177 4.73357 18.0177 4.73357 18.0177 4.71804V4.70251H18.0334C18.0492 4.71804 18.0649 4.71804 18.0806 4.73357C18.0964 4.7491 18.1121 4.73357 18.1121 4.73357C18.1436 4.71804 18.1593 4.70251 18.1593 4.67145V4.65591C18.1593 4.62485 18.1593 4.59379 18.1278 4.56272C18.1278 4.56272 18.1278 4.56272 18.1278 4.54719V4.53166C18.1278 4.5006 18.1436 4.48507 18.1436 4.46953C18.1593 4.43847 18.1593 4.39188 18.1436 4.34528C18.1278 4.31422 18.0964 4.26762 18.0806 4.23656C18.0649 4.23656 18.0649 4.22103 18.0649 4.2055C18.0334 4.17443 18.0177 4.1589 18.002 4.14337L17.9862 4.12784C17.9548 4.12784 17.939 4.11231 17.9233 4.08124C17.9233 4.06571 17.9076 4.06571 17.8918 4.05018C17.8604 4.01912 17.8132 4.00358 17.766 4.00358C17.7502 4.00358 17.7502 4.00358 17.7345 3.98805C17.7188 3.98805 17.7188 3.97252 17.703 3.95699C17.6716 3.92593 17.6244 3.92593 17.5772 3.94146C17.5615 3.95699 17.53 3.97252 17.5143 3.98805C17.4985 4.00358 17.4985 4.01912 17.5143 4.03465C17.5143 4.03465 17.53 4.03465 17.53 4.05018C17.53 4.05018 17.53 4.05018 17.5143 4.05018C17.4828 4.05018 17.4671 4.05018 17.4671 4.06571C17.4671 4.08124 17.4513 4.08124 17.4671 4.11231C17.4671 4.12784 17.4671 4.12784 17.4671 4.12784C17.4513 4.12784 17.4356 4.11231 17.4356 4.11231V4.09677C17.4356 4.08124 17.4356 4.06571 17.4041 4.05018C17.4199 4.01912 17.4041 3.98805 17.3884 3.97252C17.3884 3.97252 17.3884 3.97252 17.3884 3.95699L17.4041 3.94146C17.4041 3.94146 17.4041 3.92593 17.4041 3.91039L17.3884 3.89486C17.3884 3.89486 17.3727 3.89486 17.3727 3.87933C17.3727 3.87933 17.3569 3.8638 17.3412 3.8638C17.3097 3.8638 17.294 3.8638 17.2783 3.8638C17.2625 3.87933 17.2468 3.89486 17.2625 3.92593C17.2625 3.94146 17.2625 3.94146 17.2625 3.95699V3.97252L17.2783 3.98805C17.2783 3.98805 17.2783 3.98805 17.2783 4.00358C17.2783 4.00358 17.2783 4.00358 17.2625 4.00358C17.2468 3.98805 17.2311 3.97252 17.1996 3.97252H17.1839H17.1681C17.1524 3.97252 17.1524 3.97252 17.1524 3.95699C17.1524 3.95699 17.1524 3.95699 17.1524 3.94146C17.1524 3.92593 17.1524 3.92593 17.1367 3.91039C17.1367 3.89486 17.1367 3.89486 17.1367 3.87933C17.1524 3.8638 17.1367 3.84827 17.1367 3.83274V3.8172C17.1209 3.8172 17.1209 3.8172 17.1209 3.80167C17.1367 3.78614 17.1209 3.77061 17.1052 3.77061L17.0895 3.75508C17.0895 3.75508 17.0895 3.73955 17.0737 3.73955C17.0423 3.72401 17.0265 3.72401 16.9951 3.75508L16.9794 3.77061H16.9636C16.9479 3.75508 16.9164 3.75508 16.885 3.77061C16.885 3.75508 16.9007 3.73955 16.885 3.72401C16.885 3.72401 16.885 3.72401 16.8692 3.72401H16.8535C16.8378 3.69295 16.8063 3.67742 16.7748 3.69295H16.7591H16.7434C16.7434 3.69295 16.7276 3.69295 16.7276 3.67742C16.7276 3.67742 16.7119 3.67742 16.6962 3.67742C16.6804 3.67742 16.6804 3.67742 16.6647 3.66189C16.6647 3.66189 16.649 3.64636 16.6332 3.64636C16.6332 3.64636 16.6332 3.63082 16.6175 3.63082C16.6175 3.63082 16.6018 3.63082 16.6018 3.61529H16.586C16.5546 3.59976 16.4916 3.58423 16.4602 3.63082C16.4444 3.63082 16.4287 3.61529 16.413 3.59976C16.3972 3.59976 16.3815 3.59976 16.3815 3.58423C16.35 3.5687 16.3186 3.5687 16.2871 3.58423C16.2557 3.58423 16.2557 3.58423 16.2399 3.5687L16.177 3.55317C16.1613 3.55317 16.1298 3.53763 16.1141 3.53763H16.0983C16.0669 3.55317 16.0511 3.5687 16.0354 3.58423C16.0354 3.58423 16.0354 3.59976 16.0197 3.59976L16.0039 3.61529C16.0039 3.61529 16.0039 3.61529 15.9882 3.61529H15.9725V3.63082C15.9567 3.63082 15.9567 3.63082 15.941 3.64636H15.9095L15.941 3.70848V3.72401H15.9567C15.9567 3.73955 15.9567 3.73955 15.941 3.73955H15.9253L15.9095 3.72401C15.9095 3.70848 15.9095 3.69295 15.8781 3.69295C15.8623 3.69295 15.8466 3.70848 15.8466 3.70848C15.8466 3.69295 15.8466 3.69295 15.8309 3.67742C15.8151 3.64636 15.7837 3.58423 15.7365 3.5221C15.705 3.47551 15.6736 3.42891 15.6421 3.39785C15.6736 3.35125 15.6893 3.28913 15.6893 3.24253C15.6893 3.21147 15.6893 3.18041 15.6736 3.14934C15.6736 3.13381 15.6578 3.11828 15.6421 3.11828H15.6264C15.6106 3.11828 15.6106 3.11828 15.5949 3.11828C15.5949 3.10275 15.5949 3.10275 15.5949 3.08722L15.5792 3.07168C15.5634 3.04062 15.532 3.02509 15.5005 3.00956C15.4218 2.99403 15.3904 3.00956 15.3432 3.07168C15.3274 3.07168 15.3274 3.05615 15.3117 3.05615C15.296 3.05615 15.296 3.04062 15.2802 3.04062C15.2645 3.04062 15.2645 3.02509 15.2488 3.02509C15.233 3.00956 15.2173 3.00956 15.2016 2.97849C15.2016 2.96296 15.1858 2.94743 15.1544 2.96296C15.1386 2.96296 15.1229 2.97849 15.1072 2.97849C15.0757 2.94743 15.0442 2.96296 15.0285 2.96296C15.0285 2.96296 15.0128 2.96296 14.9971 2.96296C14.9813 2.96296 14.9813 2.96296 14.9656 2.96296C14.9499 2.96296 14.9341 2.97849 14.9341 2.99403C14.9341 2.99403 14.9341 3.00956 14.9184 3.00956C14.9184 3.00956 14.9027 3.02509 14.8869 3.00956H14.8712C14.8712 3.00956 14.8712 3.00956 14.8555 3.00956C14.8397 2.99403 14.8083 2.99403 14.7925 3.00956C14.7925 3.00956 14.7611 3.00956 14.7611 3.02509C14.7453 3.02509 14.7296 3.02509 14.7296 2.99403C14.7296 2.97849 14.7139 2.97849 14.6981 2.97849C14.6824 2.97849 14.6824 2.97849 14.6667 2.99403C14.6667 2.97849 14.6509 2.97849 14.6509 2.96296C14.6352 2.96296 14.6352 2.94743 14.6195 2.96296C14.6037 2.96296 14.6037 2.96296 14.6037 2.97849C14.6037 2.97849 14.6037 2.97849 14.6037 2.99403C14.588 2.97849 14.588 2.97849 14.5723 2.99403H14.5565C14.5408 2.99403 14.5408 2.99403 14.5251 3.00956L14.5408 2.99403C14.5408 2.97849 14.5408 2.97849 14.5251 2.97849C14.5251 2.97849 14.5093 2.97849 14.5093 2.96296C14.5093 2.96296 14.5093 2.96296 14.4936 2.96296C14.4464 2.9319 14.4149 2.9319 14.3992 2.94743H14.3835C14.3677 2.94743 14.352 2.96296 14.3363 2.97849C14.3363 2.97849 14.3206 2.97849 14.3206 2.96296C14.3048 2.96296 14.2891 2.94743 14.2576 2.94743V2.9319C14.2576 2.9319 14.2576 2.9319 14.2576 2.91637C14.2576 2.90084 14.2576 2.8853 14.2419 2.8853C14.2262 2.8853 14.2104 2.86977 14.2104 2.85424C14.1947 2.82318 14.1632 2.80765 14.1475 2.80765H14.1318C14.116 2.80765 14.1003 2.79211 14.0846 2.80765L14.0688 2.79211C14.0688 2.79211 14.0688 2.79211 14.0531 2.79211C14.0688 2.74552 14.0374 2.72999 14.0216 2.71446C13.9744 2.68339 13.9587 2.66786 13.943 2.65233C13.943 2.65233 13.9272 2.6368 13.9115 2.6368C13.9115 2.6368 13.9115 2.6368 13.8958 2.6368C13.88 2.62127 13.8643 2.62127 13.8486 2.6368L13.8328 2.65233C13.8328 2.65233 13.8171 2.65233 13.8171 2.6368L13.8014 2.62127C13.7699 2.60573 13.7542 2.5902 13.7384 2.57467C13.7384 2.55914 13.7384 2.55914 13.7227 2.54361C13.707 2.51254 13.6755 2.49701 13.6441 2.48148C13.5969 2.46595 13.5654 2.43489 13.5182 2.41935C13.4238 2.37276 13.2979 2.31063 13.2035 2.37276C13.1878 2.37276 13.1721 2.38829 13.1721 2.38829C13.1563 2.38829 13.1406 2.40382 13.1406 2.40382C13.0777 2.41935 12.999 2.40382 12.9361 2.37276C12.826 2.35723 12.7158 2.35723 12.6214 2.3417C12.6214 2.32616 12.6057 2.32616 12.59 2.32616C12.5742 2.32616 12.5742 2.32616 12.5585 2.3417C12.3383 2.32616 12.118 2.31063 11.9135 2.2951C11.882 2.2951 11.8663 2.2951 11.8348 2.2951H11.8191C11.7876 2.2951 11.7719 2.2951 11.7404 2.2951C11.7404 2.2951 11.7247 2.27957 11.7089 2.27957C11.6932 2.27957 11.6932 2.27957 11.6775 2.2951C11.6618 2.2951 11.646 2.27957 11.646 2.27957C11.646 2.24851 11.646 2.21744 11.6303 2.17085C11.6303 2.10872 11.5988 2.03106 11.5359 2C11.5044 2.10872 11.4572 2.21744 11.41 2.3417C11.3786 2.35723 11.3628 2.37276 11.3156 2.37276C11.2842 2.37276 11.2684 2.37276 11.2684 2.40382C11.2684 2.40382 11.2684 2.40382 11.2527 2.40382C11.2212 2.40382 11.2055 2.41935 11.1898 2.45042H11.174C11.1426 2.45042 11.1268 2.45042 11.0954 2.46595C11.0639 2.46595 11.0482 2.46595 11.0324 2.46595C11.001 2.43489 10.9853 2.38829 10.9381 2.37276C10.9066 2.35723 10.8909 2.35723 10.8594 2.35723C10.8122 2.35723 10.765 2.35723 10.7178 2.37276C10.7335 2.41935 10.765 2.46595 10.7965 2.51254H10.7807C10.765 2.51254 10.765 2.52808 10.7493 2.54361C10.7493 2.54361 10.7493 2.55914 10.7335 2.55914C10.7178 2.57467 10.7021 2.57467 10.6863 2.55914C10.6706 2.52808 10.6706 2.52808 10.6234 2.54361C10.6077 2.55914 10.5919 2.57467 10.5762 2.5902C10.5762 2.5902 10.5762 2.5902 10.5605 2.60573C10.5447 2.62127 10.529 2.6368 10.5133 2.65233L10.4975 2.66786C10.4975 2.66786 10.4818 2.66786 10.4818 2.68339C10.4661 2.68339 10.4661 2.69892 10.4503 2.69892C10.4503 2.71446 10.4346 2.71446 10.4031 2.71446C10.3559 2.71446 10.3402 2.76105 10.3402 2.77658V2.79211V2.80765C10.3402 2.82318 10.3402 2.82318 10.3245 2.82318C10.293 2.82318 10.2773 2.85424 10.2773 2.86977C10.2616 2.91637 10.2773 2.9319 10.293 2.96296C10.293 2.96296 10.293 2.96296 10.3088 2.97849C10.2773 2.99403 10.2616 3.00956 10.2458 3.04062C10.2458 3.05615 10.2301 3.07168 10.2144 3.07168C10.2144 3.07168 10.2144 3.07168 10.1986 3.07168L10.1829 3.08722C10.1829 3.08722 10.1672 3.08722 10.1672 3.10275C10.1514 3.10275 10.1514 3.11828 10.1357 3.11828C10.0413 3.16487 9.96264 3.227 9.88397 3.2736C9.82104 3.32019 9.75811 3.35125 9.69518 3.36679C9.67945 3.36679 9.67945 3.38232 9.66372 3.38232V3.39785C9.66372 3.42891 9.66372 3.49104 9.66372 3.53763C9.66372 3.5687 9.64798 3.59976 9.63225 3.63082C9.63225 3.63082 9.63225 3.63082 9.63225 3.64636C9.63225 3.64636 9.63225 3.66189 9.63225 3.67742V3.69295C9.63225 3.69295 9.63225 3.69295 9.63225 3.70848C9.63225 3.72401 9.63225 3.73955 9.64798 3.75508V3.77061C9.64798 3.78614 9.64798 3.78614 9.64798 3.80167C9.63225 3.8172 9.64798 3.8172 9.64798 3.83274C9.64798 3.84827 9.64798 3.84827 9.64798 3.8638V3.87933C9.64798 3.89486 9.64798 3.89486 9.64798 3.91039L9.63225 3.92593C9.63225 3.94146 9.63225 3.94146 9.61652 3.94146H9.60079C9.60079 3.94146 9.58505 3.95699 9.58505 3.97252C9.58505 3.97252 9.58505 3.97252 9.58505 3.98805V4.00358C9.58505 4.00358 9.58505 4.00358 9.56932 4.00358H9.55359H9.53786C9.52212 4.00358 9.50639 4.00358 9.49066 4.00358C9.47493 4.00358 9.45919 4.00358 9.44346 4.01912C9.44346 4.01912 9.44346 4.01912 9.42773 4.01912C9.412 4.01912 9.39626 4.03465 9.39626 4.06571C9.39626 4.06571 9.39626 4.08124 9.38053 4.08124C9.38053 4.08124 9.38053 4.09677 9.3648 4.11231L9.34907 4.12784C9.34907 4.14337 9.34907 4.1589 9.34907 4.17443C9.34907 4.18996 9.3648 4.2055 9.38053 4.2055C9.42773 4.22103 9.44346 4.25209 9.44346 4.28315C9.44346 4.29869 9.44346 4.31422 9.45919 4.32975C9.45919 4.32975 9.45919 4.32975 9.45919 4.34528C9.45919 4.36081 9.47493 4.37634 9.49066 4.37634C9.49066 4.39188 9.49066 4.39188 9.49066 4.40741C9.49066 4.42294 9.49066 4.43847 9.49066 4.454C9.49066 4.46953 9.47493 4.48507 9.47493 4.48507H9.44346C9.42773 4.5006 9.412 4.51613 9.39626 4.53166C9.38053 4.53166 9.3648 4.54719 9.3648 4.57826C9.3648 4.59379 9.38053 4.60932 9.412 4.60932C9.42773 4.60932 9.44346 4.60932 9.45919 4.62485C9.45919 4.67145 9.44346 4.70251 9.412 4.73357C9.38053 4.78017 9.34907 4.81123 9.33333 4.85783C9.3176 4.88889 9.33333 4.93548 9.33333 4.98208C9.34907 5.04421 9.3176 5.10633 9.28614 5.16846C9.28614 5.18399 9.2704 5.18399 9.2704 5.19952C9.25467 5.19952 9.25467 5.19952 9.25467 5.21505C9.25467 5.23059 9.25467 5.23059 9.25467 5.24612C9.25467 5.26165 9.23894 5.27718 9.23894 5.29271H9.20747L9.22321 5.32378L9.23894 5.33931C9.23894 5.35484 9.23894 5.35484 9.23894 5.37037C9.23894 5.37037 9.23894 5.37037 9.23894 5.3859C9.23894 5.41697 9.23894 5.44803 9.22321 5.47909V5.49462C9.22321 5.51016 9.22321 5.54122 9.22321 5.55675C9.20747 5.55675 9.19174 5.55675 9.17601 5.55675C9.16028 5.55675 9.16028 5.55675 9.14454 5.57228C9.12881 5.57228 9.12881 5.58781 9.11308 5.58781C9.08161 5.58781 9.06588 5.60335 9.05015 5.61888C9.05015 5.61888 9.03442 5.61888 9.03442 5.63441C9.01868 5.63441 9.01868 5.64994 9.00295 5.64994C8.98722 5.64994 8.98722 5.64994 8.97149 5.64994C8.95575 5.66547 8.92429 5.66547 8.89282 5.64994C8.87709 5.64994 8.84562 5.63441 8.82989 5.64994H8.81416V5.66547C8.81416 5.681 8.81416 5.681 8.81416 5.69654C8.81416 5.71207 8.82989 5.74313 8.82989 5.75866C8.82989 5.77419 8.82989 5.77419 8.82989 5.77419C8.82989 5.77419 8.81416 5.78973 8.81416 5.80526C8.81416 5.80526 8.81416 5.82079 8.81416 5.83632C8.81416 5.85185 8.79843 5.86738 8.81416 5.88292C8.75123 5.85185 8.75123 5.88292 8.75123 5.89845C8.75123 5.91398 8.75123 5.92951 8.75123 5.94504H8.7355C8.67257 5.94504 8.62537 5.9761 8.57817 6.0227C8.57817 6.0227 8.57817 6.03823 8.56244 6.03823C8.51524 6.00717 8.46804 5.99164 8.40511 6.00717C8.35792 6.00717 8.32645 6.00717 8.29499 6.0227C8.24779 6.0227 8.21632 6.03823 8.18486 6.03823C8.16913 6.03823 8.15339 6.05376 8.13766 6.05376C8.12193 6.05376 8.10619 6.06929 8.09046 6.06929C8.07473 6.06929 8.07473 6.06929 8.059 6.06929C8.02753 6.06929 7.99607 6.08483 7.98033 6.08483C7.9646 6.08483 7.94887 6.08483 7.9174 6.08483H7.90167C7.88594 6.08483 7.88594 6.08483 7.87021 6.10036V6.11589C7.87021 6.11589 7.87021 6.11589 7.85447 6.11589C7.83874 6.11589 7.83874 6.11589 7.82301 6.11589C7.80728 6.14695 7.77581 6.14695 7.74435 6.14695C7.72861 6.14695 7.71288 6.14695 7.71288 6.16249C7.69715 6.16249 7.69715 6.16249 7.68142 6.16249C7.66568 6.16249 7.64995 6.17802 7.63422 6.19355C7.63422 6.20908 7.61849 6.20908 7.60275 6.22461C7.58702 6.22461 7.58702 6.22461 7.58702 6.22461C7.57129 6.22461 7.57129 6.22461 7.57129 6.22461C7.47689 6.25567 7.41396 6.27121 7.36677 6.30227C7.35103 6.30227 7.31957 6.30227 7.2881 6.3178C7.27237 6.3178 7.25664 6.3178 7.2409 6.33333C7.22517 6.33333 7.22517 6.33333 7.20944 6.34886C7.19371 6.34886 7.19371 6.34886 7.17797 6.3644C7.16224 6.3644 7.16224 6.3644 7.14651 6.37993C7.14651 6.3644 7.14651 6.3644 7.13078 6.37993H7.11504C7.11504 6.37993 7.11504 6.37993 7.09931 6.37993C7.08358 6.3644 7.06785 6.33333 7.05211 6.3178C7.05211 6.28674 7.03638 6.28674 7.02065 6.28674C7.02065 6.28674 7.02065 6.28674 7.00492 6.27121C6.97345 6.22461 6.94199 6.17802 6.87906 6.14695C6.84759 6.13142 6.83186 6.10036 6.81613 6.08483C6.78466 6.03823 6.7532 6.0227 6.72173 6.0227C6.72173 6.0227 6.72173 6.0227 6.706 6.0227H6.69027C6.69027 5.99164 6.67453 5.9761 6.64307 5.96057C6.64307 5.96057 6.64307 5.96057 6.62734 5.94504C6.59587 5.89845 6.54867 5.85185 6.48574 5.83632C6.47001 5.83632 6.43854 5.82079 6.42281 5.82079C6.40708 5.82079 6.40708 5.82079 6.39135 5.82079C6.37561 5.82079 6.37561 5.82079 6.35988 5.80526C6.34415 5.78973 6.31268 5.78973 6.29695 5.78973C6.26549 5.80526 6.23402 5.78973 6.20256 5.77419C6.17109 5.77419 6.15536 5.75866 6.12389 5.74313C6.10816 5.74313 6.10816 5.7276 6.09243 5.7276L6.06096 5.71207C6.04523 5.69654 6.0295 5.681 6.01377 5.66547C5.99803 5.64994 5.96657 5.64994 5.95084 5.64994C5.9351 5.64994 5.91937 5.63441 5.88791 5.63441H5.87217C5.85644 5.63441 5.82498 5.63441 5.80924 5.64994C5.79351 5.64994 5.79351 5.64994 5.77778 5.64994C5.77778 5.63441 5.76205 5.63441 5.74631 5.61888C5.73058 5.60335 5.71485 5.58781 5.68338 5.57228C5.68338 5.54122 5.66765 5.52569 5.66765 5.52569H5.65192C5.63618 5.51016 5.62045 5.49462 5.60472 5.49462C5.57325 5.47909 5.55752 5.44803 5.54179 5.4325C5.54179 5.41697 5.52606 5.41697 5.52606 5.40143C5.52606 5.3859 5.52606 5.37037 5.52606 5.35484C5.52606 5.33931 5.52606 5.30824 5.52606 5.29271C5.52606 5.27718 5.52606 5.26165 5.52606 5.26165C5.52606 5.24612 5.52606 5.24612 5.51032 5.23059C5.51032 5.21505 5.49459 5.18399 5.47886 5.16846C5.47886 5.1374 5.46313 5.1374 5.44739 5.12186C5.43166 5.12186 5.41593 5.10633 5.41593 5.10633C5.4002 5.0908 5.36873 5.0908 5.353 5.10633C5.3058 5.12186 5.27434 5.15293 5.24287 5.19952C5.22714 5.18399 5.19567 5.18399 5.19567 5.18399C5.17994 5.18399 5.17994 5.18399 5.16421 5.16846H5.14848C5.13274 5.16846 5.11701 5.18399 5.11701 5.18399L5.10128 5.19952C5.10128 5.19952 5.10128 5.19952 5.08555 5.19952C5.08555 5.19952 5.08555 5.19952 5.06981 5.19952L5.05408 5.18399C5.02262 5.16846 4.99115 5.1374 4.99115 5.10633C4.99115 5.0908 4.97542 5.0908 4.97542 5.07527C4.97542 5.07527 4.97542 5.07527 4.97542 5.05974C4.97542 5.04421 4.95969 5.02867 4.94395 5.02867C4.94395 5.01314 4.92822 5.01314 4.91249 5.01314C4.89676 5.01314 4.86529 5.02867 4.84956 5.02867C4.83383 5.02867 4.83382 5.02867 4.81809 5.02867C4.80236 5.02867 4.7237 4.98208 4.7237 4.95102C4.7237 4.93548 4.7237 4.90442 4.70796 4.88889V4.87336C4.70796 4.85783 4.69223 4.84229 4.6765 4.82676C4.64503 4.82676 4.61357 4.7957 4.59784 4.78017C4.5821 4.76464 4.56637 4.7491 4.55064 4.73357C4.55064 4.71804 4.53491 4.70251 4.53491 4.70251C4.51917 4.67145 4.50344 4.65591 4.48771 4.64038C4.47198 4.62485 4.45624 4.59379 4.44051 4.57826C4.44051 4.56272 4.44051 4.56272 4.44051 4.54719C4.44051 4.53166 4.44051 4.51613 4.44051 4.5006V4.48507C4.44051 4.46953 4.44051 4.46953 4.45624 4.46953C4.47198 4.46953 4.48771 4.454 4.48771 4.42294V4.40741L4.50344 4.42294C4.51917 4.42294 4.53491 4.42294 4.53491 4.40741C4.55064 4.37634 4.55064 4.36081 4.53491 4.34528C4.53491 4.32975 4.51917 4.32975 4.50344 4.32975C4.48771 4.32975 4.48771 4.34528 4.48771 4.34528C4.48771 4.36081 4.48771 4.36081 4.47198 4.37634C4.47198 4.36081 4.47198 4.36081 4.45624 4.36081H4.44051V4.34528C4.44051 4.32975 4.44051 4.32975 4.44051 4.32975C4.44051 4.31422 4.42478 4.31422 4.42478 4.31422C4.39331 4.29869 4.37758 4.31422 4.37758 4.32975C4.37758 4.32975 4.37758 4.32975 4.36185 4.32975L4.34612 4.34528V4.37634C4.34612 4.37634 4.33038 4.37634 4.31465 4.37634C4.31465 4.37634 4.29892 4.37634 4.28319 4.39188C4.28319 4.40741 4.28319 4.40741 4.28319 4.40741C4.28319 4.40741 4.28319 4.40741 4.28319 4.42294C4.28319 4.42294 4.26745 4.43847 4.26745 4.454C4.26745 4.46953 4.28319 4.46953 4.28319 4.46953V4.48507C4.29892 4.454 4.29892 4.43847 4.29892 4.43847C4.29892 4.42294 4.29892 4.40741 4.28319 4.40741C4.26745 4.39188 4.26745 4.36081 4.28319 4.34528C4.28319 4.32975 4.29892 4.31422 4.28319 4.28315C4.28319 4.28315 4.28319 4.26762 4.29892 4.26762C4.29892 4.25209 4.31465 4.25209 4.31465 4.23656H4.33038C4.34612 4.23656 4.34612 4.23656 4.34612 4.22103C4.34612 4.2055 4.34612 4.2055 4.36185 4.18996V4.17443C4.36185 4.17443 4.36185 4.17443 4.37758 4.1589L4.39331 4.14337C4.39331 4.14337 4.39331 4.12784 4.37758 4.12784C4.36185 4.12784 4.36185 4.12784 4.34612 4.12784C4.33038 4.12784 4.33038 4.14337 4.33038 4.14337C4.31465 4.1589 4.29892 4.14337 4.28319 4.14337C4.26745 4.14337 4.25172 4.12784 4.22026 4.14337C4.17306 4.1589 4.15733 4.22103 4.17306 4.23656C4.18879 4.25209 4.18879 4.26762 4.17306 4.28315C4.17306 4.29869 4.15733 4.31422 4.15733 4.32975C4.15733 4.36081 4.14159 4.37634 4.14159 4.39188V4.40741C4.12586 4.43847 4.14159 4.43847 4.15733 4.454L4.17306 4.46953C4.17306 4.46953 4.17306 4.48507 4.15733 4.48507C4.15733 4.48507 4.14159 4.5006 4.15733 4.51613C4.15733 4.53166 4.17306 4.53166 4.17306 4.53166C4.17306 4.53166 4.15733 4.53166 4.15733 4.54719C4.14159 4.54719 4.14159 4.54719 4.14159 4.54719C4.14159 4.54719 4.14159 4.54719 4.14159 4.56272C4.14159 4.56272 4.14159 4.56272 4.14159 4.57826V4.62485L4.15733 4.60932C4.14159 4.62485 4.14159 4.65591 4.14159 4.67145C4.14159 4.68698 4.14159 4.68698 4.14159 4.68698C4.14159 4.70251 4.14159 4.71804 4.15733 4.71804C4.15733 4.7491 4.17306 4.7491 4.18879 4.7491C4.18879 4.7491 4.18879 4.7491 4.18879 4.76464V4.78017C4.18879 4.78017 4.18879 4.78017 4.18879 4.7957C4.17306 4.7957 4.17306 4.81123 4.17306 4.81123C4.17306 4.82676 4.18879 4.84229 4.18879 4.84229V4.85783C4.18879 4.87336 4.18879 4.87336 4.18879 4.87336C4.17306 4.88889 4.12586 4.90442 4.0944 4.91995C4.0472 4.91995 4 4.93548 4 4.98208C4 4.99761 4 5.01314 4.01573 5.02867C4.03147 5.04421 4.0472 5.05974 4.07866 5.05974C4.0944 5.05974 4.11013 5.02867 4.14159 5.02867C4.15733 5.01314 4.18879 5.01314 4.20452 5.01314L4.18879 5.02867C4.18879 5.04421 4.20452 5.04421 4.20452 5.04421C4.20452 5.04421 4.20452 5.04421 4.22026 5.04421V5.05974H4.25172C4.25172 5.05974 4.25172 5.05974 4.25172 5.07527V5.0908V5.10633V5.12186V5.1374L4.26745 5.12186L4.28319 5.1374L4.26745 5.15293C4.25172 5.15293 4.23599 5.18399 4.23599 5.18399C4.23599 5.21505 4.25172 5.23059 4.26745 5.24612H4.28319C4.26745 5.32378 4.28319 5.33931 4.31465 5.33931V5.35484C4.31465 5.35484 4.31465 5.37037 4.31465 5.3859C4.31465 5.3859 4.31465 5.3859 4.33038 5.3859C4.33038 5.40143 4.33038 5.40143 4.33038 5.41697L4.34612 5.4325V5.44803C4.34612 5.44803 4.34612 5.46356 4.36185 5.46356C4.36185 5.47909 4.37758 5.49462 4.37758 5.52569C4.37758 5.54122 4.37758 5.55675 4.37758 5.55675C4.37758 5.55675 4.37758 5.55675 4.39331 5.55675C4.39331 5.57228 4.40905 5.57228 4.40905 5.58781C4.40905 5.60335 4.40905 5.60335 4.42478 5.61888C4.42478 5.61888 4.42478 5.61888 4.42478 5.63441C4.42478 5.63441 4.42478 5.64994 4.44051 5.64994C4.45624 5.69654 4.47198 5.71207 4.48771 5.74313C4.48771 5.74313 4.48771 5.74313 4.48771 5.75866V5.77419C4.48771 5.78973 4.50344 5.78973 4.50344 5.78973H4.51917C4.51917 5.78973 4.51917 5.78973 4.53491 5.80526C4.53491 5.82079 4.55064 5.82079 4.55064 5.83632C4.55064 5.83632 4.55064 5.83632 4.53491 5.83632C4.53491 5.83632 4.51917 5.83632 4.51917 5.85185C4.51917 5.86738 4.51917 5.89845 4.53491 5.91398C4.53491 5.91398 4.53491 5.91398 4.53491 5.92951C4.51917 5.94504 4.51917 5.96057 4.53491 5.96057C4.51917 5.96057 4.50344 5.96057 4.48771 5.96057L4.47198 5.94504C4.47198 5.92951 4.45624 5.91398 4.45624 5.91398C4.45624 5.89845 4.44051 5.89845 4.42478 5.89845C4.40905 5.91398 4.40905 5.92951 4.40905 5.92951C4.40905 5.94504 4.40905 5.96057 4.40905 5.96057V5.9761C4.40905 6.00717 4.42478 6.0227 4.44051 6.05376C4.47198 6.06929 4.48771 6.08483 4.50344 6.08483L4.51917 6.10036L4.53491 6.11589L4.55064 6.13142C4.5821 6.16249 4.59784 6.17802 4.61357 6.19355C4.64503 6.20908 4.69223 6.20908 4.7237 6.19355L4.73943 6.17802V6.16249C4.73943 6.14695 4.7237 6.11589 4.70796 6.11589C4.70796 6.10036 4.70796 6.08483 4.70796 6.06929C4.6765 6.0227 4.66077 6.0227 4.64503 6.0227C4.64503 6.0227 4.6293 6.0227 4.6293 6.03823H4.64503C4.66077 6.03823 4.66077 6.03823 4.69223 6.03823C4.70796 6.03823 4.7237 6.05376 4.7237 6.05376C4.73943 6.06929 4.73943 6.06929 4.75516 6.06929C4.77089 6.06929 4.77089 6.06929 4.78663 6.05376C4.80236 6.03823 4.80236 6.0227 4.78663 5.99164C4.78663 5.99164 4.78663 5.9761 4.77089 5.9761V5.96057C4.77089 5.96057 4.77089 5.96057 4.77089 5.94504C4.78663 5.94504 4.78663 5.96057 4.80236 5.96057C4.80236 5.96057 4.81809 5.96057 4.81809 5.9761C4.83382 5.99164 4.83382 5.99164 4.83382 5.99164V6.00717L4.84956 6.0227C4.88102 6.03823 4.89676 6.03823 4.92822 6.0227C4.92822 6.0227 4.91249 6.03823 4.92822 6.05376C4.94395 6.06929 4.94395 6.05376 4.95969 6.05376C4.95969 6.05376 4.95969 6.05376 4.97542 6.05376C4.97542 6.06929 4.99115 6.08483 5.00688 6.08483H5.02262C5.03835 6.08483 5.03835 6.08483 5.05408 6.08483C5.05408 6.08483 5.05408 6.08483 5.05408 6.10036C5.05408 6.10036 5.05408 6.10036 5.05408 6.11589C5.05408 6.13142 5.05408 6.13142 5.05408 6.14695C5.10128 6.16249 5.13274 6.17802 5.16421 6.19355L5.19567 6.24014C5.19567 6.25567 5.17994 6.25567 5.16421 6.25567C5.14848 6.25567 5.14848 6.25567 5.13274 6.25567C5.11701 6.25567 5.11701 6.27121 5.11701 6.27121V6.28674H5.13274C5.13274 6.28674 5.14848 6.3178 5.16421 6.30227C5.17994 6.30227 5.17994 6.30227 5.17994 6.30227C5.17994 6.30227 5.17994 6.30227 5.17994 6.3178C5.17994 6.3178 5.17994 6.3178 5.17994 6.33333C5.17994 6.33333 5.17994 6.33333 5.17994 6.34886C5.17994 6.3644 5.17994 6.3644 5.17994 6.37993C5.17994 6.39546 5.19567 6.39546 5.21141 6.39546H5.22714C5.24287 6.39546 5.2586 6.39546 5.27434 6.39546C5.3058 6.39546 5.32153 6.41099 5.33727 6.42652C5.33727 6.44205 5.33727 6.44205 5.353 6.44205H5.33727H5.32153C5.3058 6.44205 5.3058 6.44205 5.29007 6.44205C5.24287 6.42652 5.19567 6.42652 5.14848 6.44205H5.13274C5.13274 6.44205 5.11701 6.44205 5.11701 6.45759H5.10128C5.10128 6.45759 5.10128 6.45759 5.08555 6.45759C5.06981 6.45759 5.06981 6.45759 5.05408 6.45759H5.03835C5.00688 6.42652 4.99115 6.41099 4.95969 6.44205C4.95969 6.44205 4.94395 6.44205 4.94395 6.45759H4.92822V6.47312C4.92822 6.48865 4.92822 6.50418 4.92822 6.50418C4.92822 6.50418 4.92822 6.50418 4.92822 6.51971C4.92822 6.51971 4.92822 6.51971 4.92822 6.53524V6.55078C4.92822 6.56631 4.92822 6.56631 4.92822 6.58184C4.92822 6.59737 4.92822 6.59737 4.92822 6.59737C4.92822 6.59737 4.91249 6.59737 4.91249 6.6129C4.88102 6.6129 4.88102 6.62843 4.88102 6.64397C4.88102 6.69056 4.88102 6.75269 4.92822 6.78375C4.94395 6.79928 4.97542 6.79928 4.99115 6.81481C5.03835 6.84588 5.05408 6.92354 5.05408 6.98566C5.05408 7.00119 5.05408 7.03226 5.06981 7.04779C5.06981 7.06332 5.06981 7.07885 5.06981 7.09438C5.06981 7.10992 5.06981 7.12545 5.08555 7.12545C5.08555 7.14098 5.10128 7.14098 5.10128 7.15651C5.10128 7.18757 5.11701 7.18757 5.14848 7.18757C5.16421 7.18757 5.19567 7.17204 5.19567 7.14098V7.12545C5.19567 7.10992 5.21141 7.10992 5.21141 7.09438C5.22714 7.09438 5.24287 7.10992 5.24287 7.10992C5.27434 7.12545 5.3058 7.14098 5.32153 7.14098C5.32153 7.14098 5.32153 7.14098 5.33727 7.14098C5.353 7.14098 5.36873 7.15651 5.36873 7.15651C5.36873 7.15651 5.36873 7.15651 5.36873 7.17204C5.36873 7.18757 5.36873 7.20311 5.36873 7.20311C5.353 7.23417 5.36873 7.26523 5.36873 7.28076C5.36873 7.2963 5.38446 7.31183 5.4002 7.31183C5.41593 7.31183 5.43166 7.31183 5.46313 7.2963C5.49459 7.28076 5.49459 7.2497 5.49459 7.21864C5.49459 7.18757 5.49459 7.15651 5.49459 7.12545C5.49459 7.10992 5.49459 7.07885 5.47886 7.06332C5.47886 7.04779 5.46313 7.03226 5.46313 7.01673C5.46313 7.01673 5.46313 7.01673 5.47886 7.01673C5.47886 7.01673 5.47886 7.01673 5.49459 7.01673C5.51032 7.01673 5.52606 7.01673 5.54179 7.00119C5.55752 7.03226 5.55752 7.06332 5.57325 7.09438C5.57325 7.09438 5.57325 7.10992 5.58899 7.10992C5.58899 7.12545 5.58899 7.12545 5.60472 7.14098L5.62045 7.15651L5.63618 7.17204C5.60472 7.20311 5.62045 7.23417 5.63618 7.2497C5.63618 7.2497 5.63618 7.26523 5.65192 7.26523C5.66765 7.26523 5.68338 7.26523 5.68338 7.26523C5.69912 7.28076 5.71485 7.2963 5.74631 7.28076C5.74631 7.28076 5.74631 7.28076 5.76205 7.28076V7.2963C5.76205 7.34289 5.76205 7.38949 5.77778 7.42055C5.79351 7.43608 5.80924 7.45161 5.82498 7.46714L5.84071 7.48268H5.82498C5.80924 7.48268 5.80924 7.49821 5.80924 7.49821C5.80924 7.49821 5.80924 7.51374 5.82498 7.51374C5.84071 7.52927 5.84071 7.52927 5.84071 7.56033C5.82498 7.5914 5.80924 7.5914 5.80924 7.5914C5.79351 7.60693 5.76205 7.62246 5.76205 7.63799C5.76205 7.65352 5.77778 7.66906 5.79351 7.68459C5.79351 7.68459 5.80924 7.70012 5.82498 7.70012C5.82498 7.70012 5.84071 7.70012 5.84071 7.68459C5.85644 7.66906 5.87217 7.66906 5.90364 7.66906C5.91937 7.66906 5.91937 7.66906 5.91937 7.68459C5.9351 7.71565 5.9351 7.73118 5.95084 7.73118C5.96657 7.73118 5.9823 7.73118 6.01377 7.71565C6.01377 7.71565 6.0295 7.71565 6.0295 7.70012C6.04523 7.70012 6.06096 7.68459 6.06096 7.68459C6.06096 7.66906 6.06096 7.66906 6.04523 7.66906C6.04523 7.63799 6.04523 7.62246 6.06096 7.60693V7.62246C6.06096 7.63799 6.0767 7.65352 6.09243 7.65352H6.10816V7.66906L6.09243 7.68459C6.0767 7.68459 6.0767 7.70012 6.06096 7.70012H6.04523C6.04523 7.70012 6.04523 7.70012 6.04523 7.71565C6.0295 7.71565 6.0295 7.71565 6.01377 7.73118C6.01377 7.73118 5.99803 7.73118 5.99803 7.74671C5.96657 7.77778 5.95084 7.79331 5.95084 7.80884C5.95084 7.82437 5.95084 7.8399 5.96657 7.8399C5.9823 7.85544 5.99803 7.85544 6.01377 7.8399H6.0295C6.04523 7.8399 6.04523 7.82437 6.06096 7.82437C6.06096 7.82437 6.06096 7.82437 6.06096 7.8399C6.06096 7.8399 6.06096 7.8399 6.04523 7.85544C6.0295 7.8865 6.0295 7.90203 6.0295 7.91756C6.0295 7.93309 6.04523 7.93309 6.06096 7.93309H6.0767H6.09243C6.10816 7.93309 6.12389 7.93309 6.13963 7.91756C6.13963 7.91756 6.13963 7.91756 6.15536 7.91756C6.17109 7.93309 6.17109 7.93309 6.17109 7.94863C6.17109 7.96416 6.17109 7.96416 6.17109 7.96416C6.17109 7.96416 6.17109 7.96416 6.17109 7.97969C6.17109 7.97969 6.17109 7.97969 6.17109 7.99522C6.12389 7.99522 6.09243 7.99522 6.04523 7.99522C6.04523 8.05735 6.0295 8.08841 6.0295 8.13501C6.0295 8.15054 6.0295 8.1816 6.01377 8.19713C5.99803 8.24373 5.96657 8.25926 5.9351 8.29032C5.88791 8.35245 5.82498 8.39904 5.76205 8.46117C5.73058 8.49223 5.69912 8.50777 5.69912 8.55436C5.68338 8.60096 5.71485 8.64755 5.71485 8.69415C5.69912 8.70968 5.69912 8.72521 5.69912 8.74074C5.69912 8.75627 5.69912 8.75627 5.71485 8.7718C5.71485 8.80287 5.71485 8.8184 5.71485 8.84946C5.71485 8.89606 5.73058 8.92712 5.74631 8.95818C5.74631 8.95818 5.74631 8.95818 5.74631 8.97372C5.74631 8.98925 5.74631 9.00478 5.73058 9.02031C5.71485 9.03584 5.71485 9.05137 5.73058 9.06691C5.73058 9.08244 5.73058 9.09797 5.73058 9.1135C5.73058 9.12903 5.73058 9.12903 5.73058 9.14456C5.71485 9.17563 5.69912 9.20669 5.74631 9.23775L5.76205 9.25329C5.76205 9.25329 5.76205 9.25329 5.74631 9.25329C5.74631 9.25329 5.74631 9.25329 5.73058 9.26882C5.73058 9.26882 5.73058 9.26882 5.71485 9.28435C5.68338 9.26882 5.68338 9.28435 5.66765 9.29988C5.65192 9.28435 5.62045 9.28435 5.62045 9.29988H5.60472C5.60472 9.29988 5.58899 9.29988 5.58899 9.31541C5.55752 9.31541 5.54179 9.31541 5.51032 9.31541C5.49459 9.31541 5.46313 9.31541 5.44739 9.31541C5.44739 9.33094 5.43166 9.36201 5.44739 9.36201C5.51032 9.42413 5.51032 9.53286 5.52606 9.62604V9.64158C5.52606 9.67264 5.54179 9.68817 5.54179 9.71923C5.55752 9.78136 5.57325 9.82796 5.60472 9.85902C5.60472 9.85902 5.60472 9.87455 5.62045 9.87455V9.89008C5.63618 9.92115 5.66765 9.95221 5.69912 9.96774C5.71485 9.96774 5.71485 9.96774 5.73058 9.96774H5.74631C5.74631 9.96774 5.74631 9.96774 5.76205 9.96774C5.77778 9.98327 5.77778 9.98327 5.77778 9.99881C5.77778 10.0143 5.76205 10.0299 5.76205 10.0454C5.76205 10.0609 5.76205 10.0609 5.76205 10.0765C5.77778 10.092 5.77778 10.092 5.79351 10.092C5.80924 10.092 5.80924 10.0765 5.82498 10.0765L5.84071 10.0609C5.84071 10.0454 5.85644 10.0454 5.85644 10.0299C5.87217 10.0299 5.88791 10.0143 5.90364 10.0143H5.91937C5.91937 10.0299 5.9351 10.0454 5.9351 10.0454C5.95084 10.0609 5.95084 10.0609 5.96657 10.0454C5.96657 10.0454 5.96657 10.0454 5.9823 10.0454C5.9823 10.0454 5.99803 10.0454 6.01377 10.0299L6.06096 10.0143C6.0767 10.0143 6.09243 10.0143 6.09243 9.99881C6.12389 9.95221 6.13963 9.93668 6.12389 9.89008C6.13963 9.89008 6.15536 9.87455 6.17109 9.87455C6.17109 9.89008 6.17109 9.90561 6.17109 9.92115C6.17109 9.96774 6.17109 10.0299 6.21829 10.0609C6.24975 10.092 6.28122 10.1075 6.31268 10.1231C6.34415 10.1386 6.37561 10.1697 6.39135 10.2007C6.40708 10.2318 6.37561 10.2784 6.34415 10.3094C6.31268 10.3405 6.29695 10.3716 6.28122 10.4182C6.28122 10.4648 6.29695 10.4958 6.32842 10.5269C6.34415 10.5424 6.35988 10.5579 6.37561 10.5735C6.39135 10.5735 6.40708 10.5735 6.42281 10.5735C6.50147 10.5735 6.56441 10.5579 6.64307 10.5579C6.62734 10.5735 6.64307 10.6045 6.6588 10.6201V10.6356C6.69027 10.6977 6.706 10.7288 6.69027 10.7599C6.69027 10.7599 6.69027 10.7599 6.67453 10.7754C6.67453 10.7754 6.6588 10.7909 6.6588 10.822C6.6588 10.8375 6.6588 10.8375 6.64307 10.8375L6.62734 10.853C6.6116 10.8686 6.62734 10.8841 6.64307 10.8996H6.6588C6.6588 10.9152 6.6588 10.9152 6.67453 10.9152C6.67453 10.9152 6.69027 10.9152 6.706 10.9152C6.72173 10.9152 6.73746 10.9152 6.73746 10.9152V10.9307C6.73746 10.9618 6.73746 10.9928 6.72173 11.0084L6.706 11.055L6.72173 11.0705C6.72173 11.0705 6.73746 11.0705 6.73746 11.086C6.7532 11.086 6.76893 11.1016 6.78466 11.1016C6.78466 11.1326 6.78466 11.1637 6.78466 11.1792C6.78466 11.3035 6.7532 11.4122 6.72173 11.5364C6.72173 11.5675 6.72173 11.6141 6.7532 11.6296C6.76893 11.6452 6.78466 11.6452 6.80039 11.6452C6.87906 11.6452 6.97345 11.6607 7.05211 11.6452C7.05211 11.6452 7.05211 11.6452 7.05211 11.6607C7.05211 11.6607 7.05211 11.6762 7.03638 11.6762V11.6918H7.05211C7.06785 11.7073 7.06785 11.7073 7.06785 11.7228C7.06785 11.7384 7.06785 11.7384 7.06785 11.7539C7.06785 11.7539 7.06785 11.7539 7.06785 11.7694V11.7849C7.06785 11.8005 7.06785 11.816 7.06785 11.816C7.06785 11.8315 7.06785 11.8315 7.05211 11.8315C7.03638 11.8315 7.03638 11.8471 7.03638 11.8626C7.03638 11.8781 7.03638 11.8781 7.05211 11.8937L7.03638 11.9092V11.9247C7.05211 11.9403 7.05211 11.9403 7.06785 11.9558C7.08358 11.9713 7.09931 11.9713 7.11504 11.9558C7.11504 11.9558 7.13078 11.9558 7.13078 11.9403C7.13078 11.9403 7.13078 11.9403 7.14651 11.9403H7.16224L7.17797 11.9558L7.16224 11.9713V11.9869C7.16224 11.9869 7.16224 11.9869 7.17797 11.9869C7.19371 11.9869 7.20944 11.9713 7.20944 11.9558C7.22517 11.9558 7.22517 11.9558 7.2409 11.9403C7.22517 11.9558 7.22517 11.9403 7.2409 11.9403C7.27237 11.9403 7.30383 11.9247 7.3353 11.9247H7.35103C7.3825 11.9092 7.41396 11.9092 7.44543 11.9092H7.47689L7.49263 11.9247C7.50836 11.9247 7.50836 11.9247 7.50836 11.9403C7.50836 11.9869 7.52409 12.0179 7.55556 12.049C7.57129 12.0645 7.57129 12.0645 7.58702 12.0645C7.60275 12.0645 7.60275 12.0645 7.61849 12.08C7.60275 12.0956 7.60275 12.0956 7.61849 12.0956C7.61849 12.0956 7.63422 12.0956 7.63422 12.08C7.63422 12.08 7.63422 12.08 7.63422 12.0956C7.63422 12.0956 7.63422 12.1111 7.64995 12.1266C7.66568 12.1266 7.68142 12.1266 7.68142 12.1266C7.68142 12.1422 7.69715 12.1422 7.69715 12.1577C7.69715 12.1577 7.71288 12.1732 7.72861 12.1732C7.76008 12.1732 7.79154 12.2043 7.80728 12.2198H7.82301C7.83874 12.2354 7.87021 12.2509 7.88594 12.2664C7.90167 12.2664 7.90167 12.282 7.9174 12.2975C7.9174 12.2975 7.93314 12.313 7.94887 12.313C7.9646 12.313 7.98033 12.313 7.98033 12.2975C7.98033 12.2975 7.98033 12.2975 7.99607 12.282C7.99607 12.282 7.99607 12.2975 8.0118 12.2975C8.02753 12.2975 8.02753 12.313 8.04326 12.313H8.059C8.059 12.313 8.059 12.313 8.059 12.3286C8.059 12.3441 8.07473 12.3441 8.09046 12.3441C8.10619 12.3441 8.10619 12.3441 8.10619 12.3441C8.12193 12.3286 8.12193 12.3286 8.13766 12.3441C8.15339 12.3596 8.16913 12.3596 8.18486 12.3596C8.18486 12.3596 8.18486 12.3596 8.20059 12.3596C8.21632 12.3596 8.21632 12.3751 8.23206 12.3751C8.24779 12.4062 8.27925 12.4217 8.31072 12.4217C8.31072 12.4217 8.32645 12.4217 8.32645 12.4373C8.32645 12.4528 8.34218 12.4528 8.34218 12.4528C8.35792 12.4528 8.35792 12.4528 8.37365 12.4373C8.37365 12.4373 8.38938 12.4373 8.38938 12.4217C8.40511 12.4217 8.42085 12.4062 8.43658 12.4062H8.45231C8.46804 12.4062 8.46804 12.4062 8.48378 12.4217C8.48378 12.4217 8.48378 12.4217 8.48378 12.4373C8.48378 12.4373 8.48378 12.4373 8.48378 12.4528C8.48378 12.4528 8.48378 12.4528 8.48378 12.4683V12.4839C8.48378 12.4994 8.46804 12.5149 8.46804 12.5305C8.46804 12.546 8.48378 12.5615 8.49951 12.5615H8.51524C8.53097 12.5615 8.53097 12.5615 8.54671 12.5615C8.56244 12.5615 8.56244 12.546 8.56244 12.5305C8.56244 12.5149 8.56244 12.5149 8.56244 12.5149C8.56244 12.5305 8.57817 12.5305 8.5939 12.546C8.60964 12.546 8.62537 12.5615 8.62537 12.5771C8.6411 12.5926 8.6411 12.5926 8.65683 12.6081C8.6883 12.5926 8.70403 12.5926 8.71976 12.5926C8.7355 12.5926 8.7355 12.5926 8.7355 12.5926C8.75123 12.6081 8.76696 12.6081 8.78269 12.6237C8.78269 12.6237 8.79843 12.6237 8.79843 12.6392C8.81416 12.6547 8.82989 12.6547 8.84562 12.6392C8.86136 12.6392 8.87709 12.6392 8.87709 12.6392C8.87709 12.6392 8.87709 12.6392 8.89282 12.6392C8.92429 12.6547 8.94002 12.6547 8.97149 12.6547H8.98722C9.03442 12.6547 9.06588 12.6392 9.09735 12.6237C9.09735 12.6237 9.11308 12.6237 9.11308 12.6081H9.12881C9.14454 12.6081 9.16028 12.6081 9.17601 12.5926C9.17601 12.5926 9.17601 12.5926 9.19174 12.5926C9.20747 12.5926 9.20747 12.5926 9.20747 12.5926C9.22321 12.6081 9.25467 12.6081 9.28614 12.5926C9.30187 12.5926 9.3176 12.5926 9.33333 12.5926C9.39626 12.6081 9.47493 12.5926 9.52212 12.5926C9.60079 12.5926 9.67945 12.5926 9.75811 12.5771C9.75811 12.5926 9.77384 12.5926 9.78958 12.5926C9.82104 12.5926 9.83677 12.5926 9.85251 12.6081C9.86824 12.6081 9.86824 12.6081 9.88397 12.6237C9.88397 12.6237 9.88397 12.6237 9.89971 12.6237C9.89971 12.6392 9.91544 12.6392 9.91544 12.6392C9.93117 12.6392 9.9469 12.6392 9.9469 12.6237C9.9469 12.6237 9.9469 12.6237 9.96264 12.6237C9.96264 12.6237 9.96264 12.6237 9.96264 12.6392C9.96264 12.6547 9.97837 12.6547 9.97837 12.6547C9.9941 12.6547 9.9941 12.6392 9.9941 12.6392C9.9941 12.6237 9.9941 12.6081 10.0098 12.6081C10.0256 12.5771 10.0413 12.5615 10.0413 12.546V12.5305C10.0413 12.5305 10.057 12.5149 10.057 12.4994C10.0728 12.4839 10.0885 12.4683 10.0885 12.4683L10.1042 12.4528V12.4839H10.12C10.12 12.4839 10.12 12.4839 10.1357 12.4839C10.1514 12.4839 10.1514 12.4839 10.1672 12.4839H10.1829C10.2144 12.4994 10.2458 12.4994 10.2773 12.4994C10.293 12.4994 10.3088 12.4994 10.3402 12.4839H10.3559H10.3717H10.3874C10.4031 12.4839 10.4031 12.4839 10.4031 12.4683C10.4189 12.4683 10.4346 12.4839 10.4503 12.4839H10.4661C10.4975 12.4994 10.529 12.4839 10.5447 12.4373V12.4217V12.4062C10.5447 12.3907 10.5447 12.3751 10.529 12.3596C10.529 12.3596 10.529 12.3596 10.5133 12.3596C10.5133 12.3596 10.5133 12.3596 10.529 12.3596C10.5605 12.4062 10.6234 12.4217 10.6706 12.4373C10.6706 12.4373 10.6706 12.4373 10.6863 12.4373C10.8122 12.4839 10.9381 12.4994 11.0796 12.5149C11.0954 12.5149 11.0954 12.5149 11.1111 12.5305C11.1583 12.5615 11.1898 12.5615 11.2212 12.5771C11.237 12.5771 11.237 12.5771 11.2527 12.5771C11.2842 12.5926 11.3156 12.5926 11.3314 12.5926C11.3786 12.5926 11.4258 12.5926 11.4572 12.6081C11.4887 12.6237 11.5202 12.6237 11.5516 12.6392C11.5674 12.6392 11.5831 12.6547 11.5831 12.6547C11.5988 12.6547 11.6146 12.6703 11.646 12.6703C11.6618 12.6703 11.6775 12.6703 11.6775 12.6858C11.6775 12.7013 11.6932 12.7013 11.7089 12.7168C11.7561 12.7168 11.7719 12.7324 11.7876 12.7479C11.8191 12.779 11.8348 12.7945 11.882 12.7945C11.8977 12.7945 11.8977 12.7945 11.9135 12.7945C11.9449 12.7945 11.9764 12.81 12.0079 12.81C12.0236 12.81 12.0551 12.81 12.0708 12.81C12.0708 12.81 12.0708 12.81 12.0865 12.81C12.0865 12.81 12.0865 12.81 12.0865 12.8256L12.0708 12.8566H12.1023H12.118C12.1337 12.8566 12.1495 12.8566 12.1495 12.8566C12.1652 12.8566 12.1967 12.8566 12.2124 12.8566C12.2439 12.8722 12.2596 12.8566 12.2911 12.8566C12.3225 12.8566 12.3225 12.8411 12.3225 12.8256C12.354 12.8256 12.3854 12.81 12.4169 12.7945C12.4484 12.81 12.4798 12.7945 12.5113 12.779C12.5113 12.779 12.5113 12.779 12.527 12.7945C12.527 12.7945 12.527 12.7945 12.527 12.81C12.527 12.81 12.527 12.8256 12.5428 12.8256C12.5585 12.8411 12.5742 12.8411 12.59 12.8411C12.6057 12.8256 12.6057 12.81 12.6214 12.81C12.6214 12.7945 12.6214 12.7945 12.6057 12.779C12.59 12.7634 12.59 12.7479 12.6057 12.7324C12.6057 12.7168 12.6214 12.7013 12.59 12.6858C12.59 12.6858 12.59 12.6858 12.59 12.6703C12.6057 12.6237 12.6214 12.5926 12.6529 12.5615C12.6686 12.5305 12.7001 12.4994 12.7158 12.4839C12.7158 12.4994 12.7316 12.4994 12.7316 12.4994C12.7316 12.4994 12.7316 12.4994 12.7316 12.5149C12.7316 12.5149 12.7316 12.5305 12.7158 12.5305C12.7001 12.5305 12.6844 12.546 12.6844 12.5615C12.6844 12.546 12.6686 12.546 12.6686 12.546H12.6529V12.5615V12.5771H12.6686C12.6844 12.5771 12.7001 12.5771 12.7001 12.5615C12.7001 12.5771 12.7158 12.5926 12.7316 12.5926C12.7473 12.5926 12.7473 12.5926 12.7473 12.5926C12.763 12.5926 12.763 12.5771 12.763 12.5615C12.7788 12.5615 12.7788 12.5615 12.7788 12.5615C12.7788 12.5615 12.7788 12.5615 12.763 12.5771C12.763 12.5771 12.763 12.5771 12.763 12.5926C12.763 12.5926 12.763 12.5926 12.763 12.6081C12.763 12.6081 12.763 12.6081 12.7788 12.6081C12.763 12.6237 12.763 12.6392 12.763 12.6547C12.763 12.6703 12.763 12.6858 12.7788 12.7013C12.7788 12.7013 12.7945 12.7013 12.7945 12.7168V12.7324C12.7945 12.7479 12.7945 12.7634 12.8102 12.779C12.8102 12.779 12.826 12.7945 12.826 12.81C12.8417 12.8256 12.8417 12.8411 12.8574 12.8411V12.8566C12.8574 12.8722 12.8574 12.8722 12.8732 12.8722H12.8889C12.9046 12.8722 12.9204 12.8722 12.9361 12.8722V12.8877V12.9032C12.9204 12.9032 12.9204 12.9188 12.9204 12.9188C12.9204 12.9188 12.9204 12.9498 12.9361 12.9654C12.9361 12.9654 12.9361 12.9809 12.9518 12.9809V12.9964C12.9518 12.9964 12.9518 12.9964 12.9518 13.0119C12.9518 13.0275 12.9518 13.043 12.9676 13.043C12.9676 13.0741 12.9676 13.0741 12.9833 13.1051V13.1207V13.1517C12.9833 13.1673 12.999 13.1828 12.999 13.2139C12.999 13.2294 12.999 13.2294 13.0147 13.2294C13.0147 13.2294 13.0147 13.2294 12.999 13.2294C12.9518 13.2294 12.8889 13.2294 12.8417 13.2449C12.8417 13.2449 12.826 13.2449 12.826 13.2605V13.276C12.826 13.2915 12.826 13.307 12.8574 13.307C12.8889 13.3381 12.9204 13.3381 12.9361 13.3381C12.9361 13.3381 12.9361 13.3381 12.9518 13.3381C12.9676 13.3381 12.9676 13.3381 12.9676 13.3381C12.9676 13.3536 12.999 13.3536 12.999 13.3536H13.0147V13.3692C13.0147 13.3847 13.0147 13.4002 13.0147 13.4158C13.0147 13.4313 13.0147 13.4468 13.0147 13.4624C13.0147 13.4624 12.999 13.4779 12.999 13.4934V13.509V13.5245H12.9833C12.9676 13.5245 12.9676 13.54 12.9676 13.54C12.9676 13.54 12.9518 13.54 12.9361 13.5556C12.9204 13.5556 12.9204 13.5556 12.9046 13.5711C12.9046 13.5711 12.8889 13.5711 12.8889 13.5866H12.8732L12.9046 13.6021C12.9204 13.6177 12.9204 13.6332 12.9361 13.6487C12.9518 13.6643 12.9518 13.6643 12.9676 13.6798C12.9676 13.6798 12.9518 13.6798 12.9518 13.6953C12.9518 13.7109 12.9518 13.7264 12.9518 13.7264C12.9518 13.7264 12.9518 13.7264 12.9361 13.7264H12.9204C12.9046 13.7264 12.8889 13.7264 12.8732 13.7264C12.8574 13.7264 12.8417 13.7419 12.8417 13.7575C12.8417 13.773 12.8417 13.773 12.8574 13.7885C12.8732 13.7885 12.8732 13.8041 12.8889 13.8041C12.8889 13.8196 12.8732 13.8196 12.8732 13.8351C12.8732 13.8351 12.8732 13.8351 12.8574 13.8351C12.8417 13.8351 12.8417 13.8351 12.826 13.8507C12.826 13.8662 12.8102 13.8662 12.7945 13.8817C12.7788 13.8817 12.7788 13.8973 12.763 13.8973C12.7473 13.9128 12.7316 13.9283 12.7001 13.9283C12.6844 13.9283 12.6844 13.9438 12.6844 13.9438L12.6686 13.9594V13.9749C12.6529 13.9749 12.6529 13.9749 12.6529 13.9749H12.6372C12.6214 13.9749 12.6057 14.006 12.6057 14.006V14.0215L12.6214 14.037H12.6372C12.6372 14.0526 12.6372 14.0681 12.6372 14.0836C12.6214 14.1147 12.6214 14.1147 12.6057 14.1613C12.6057 14.1768 12.6057 14.1768 12.6057 14.1924C12.6057 14.2079 12.6057 14.2079 12.6057 14.2234L12.59 14.2389V14.2545C12.59 14.2545 12.59 14.2545 12.59 14.27V14.2855C12.5585 14.3011 12.5113 14.3166 12.4641 14.3321C12.4169 14.3321 12.3697 14.3632 12.3697 14.4098C12.3697 14.4253 12.3854 14.4409 12.3854 14.4719C12.4326 14.5185 12.4956 14.5496 12.5585 14.5651C12.5742 14.5651 12.5742 14.5651 12.59 14.5651L12.6057 14.5806C12.6214 14.5806 12.6214 14.5806 12.6214 14.5806H12.6372H12.6529C12.6686 14.5806 12.6686 14.5806 12.6844 14.5962L12.7001 14.6117L12.7158 14.5962C12.7316 14.5962 12.7473 14.6117 12.763 14.6117C12.763 14.6117 12.763 14.6272 12.7788 14.6272C12.7945 14.6272 12.7945 14.6428 12.8102 14.6428C12.826 14.6428 12.826 14.6428 12.8417 14.6583L12.8574 14.6738C12.8732 14.6894 12.8732 14.6894 12.8889 14.7049C12.8889 14.736 12.8889 14.767 12.9046 14.7981C12.9204 14.8292 12.9518 14.8447 12.9676 14.8292C12.9833 14.8292 12.9833 14.8136 12.999 14.8136C13.0147 14.7981 13.0305 14.7981 13.0462 14.7981C13.0619 14.8136 13.0777 14.8136 13.0777 14.8136C13.0934 14.8136 13.1091 14.8136 13.1249 14.7981C13.1563 14.7981 13.1878 14.8136 13.235 14.8136C13.2822 14.8292 13.3137 14.8447 13.3609 14.8447C13.4081 14.8447 13.471 14.8136 13.5182 14.8136C13.5654 14.8136 13.6126 14.8447 13.6598 14.8292C13.6598 14.8136 13.6598 14.7981 13.6598 14.7826C13.6912 14.7981 13.707 14.7981 13.7384 14.7981C13.7542 14.7981 13.7542 14.7981 13.7699 14.7981C13.7856 14.7981 13.8014 14.7981 13.8171 14.7981C13.8171 14.7981 13.8171 14.7981 13.8328 14.7981V14.8136C13.8171 14.8136 13.8171 14.8292 13.8171 14.8447C13.8171 14.8447 13.8328 14.8602 13.8486 14.8602C13.8486 14.8602 13.8486 14.8602 13.8643 14.8602C13.8643 14.8602 13.8643 14.8602 13.88 14.8757C13.88 14.8757 13.8958 14.8913 13.9115 14.8913C13.9115 14.8913 13.9272 14.9068 13.9587 14.8913H13.9744C13.9744 14.9068 13.9902 14.9223 14.0059 14.9223C14.0216 14.9223 14.0374 14.9223 14.0531 14.9223H14.0688C14.0846 14.9223 14.0846 14.9223 14.1003 14.9068L14.116 14.9223C14.1318 14.9223 14.1318 14.9223 14.1318 14.9068C14.1475 14.8913 14.1632 14.8913 14.1632 14.9068C14.1632 14.9068 14.179 14.9379 14.2104 14.9223C14.2262 14.9223 14.2262 14.8913 14.2262 14.8757C14.2262 14.8913 14.2419 14.8913 14.2419 14.9068C14.2419 14.9068 14.2419 14.9223 14.2576 14.9379C14.2734 14.9379 14.2891 14.9223 14.2891 14.9223C14.3206 14.8913 14.3363 14.8913 14.352 14.8757C14.3677 14.8757 14.3835 14.8602 14.3992 14.8757C14.4149 14.8913 14.4307 14.8757 14.4307 14.8757C14.4464 14.8757 14.4779 14.8757 14.4936 14.8913H14.5093C14.5251 14.8913 14.5251 14.8913 14.5408 14.9068C14.5408 14.9068 14.5565 14.9223 14.5723 14.9223C14.588 14.9223 14.6037 14.9379 14.6195 14.9534C14.6195 14.9534 14.6352 14.9689 14.6509 14.9689C14.6667 14.9689 14.6824 14.9689 14.7139 14.9845C14.7296 14.9845 14.7453 15 14.7611 15C14.7768 14.9845 14.7768 14.9845 14.7768 14.9689V14.9534C14.824 14.9223 14.8555 14.8757 14.9027 14.8602C14.9341 14.8447 14.9656 14.8136 14.9813 14.7826C14.9813 14.7826 14.9813 14.7826 14.9971 14.7826C14.9971 14.7826 15.0128 14.7826 15.0128 14.767H15.0285C15.0285 14.767 15.0285 14.767 15.0285 14.7826V14.7981C15.0285 14.7981 15.0285 14.8136 15.0442 14.8136C15.0442 14.8292 15.06 14.8292 15.0757 14.8292C15.0914 14.8292 15.0914 14.8292 15.1072 14.8136C15.1229 14.7981 15.1229 14.7981 15.1386 14.7826L15.1544 14.767L15.1701 14.7515H15.1858C15.2016 14.7515 15.2016 14.736 15.2016 14.736C15.2488 14.736 15.2488 14.7204 15.296 14.6738C15.3274 14.6738 15.3589 14.6583 15.3746 14.6428C15.3904 14.6428 15.4061 14.6272 15.4061 14.6428C15.4218 14.6583 15.4218 14.6583 15.4376 14.6583H15.4533C15.4848 14.6894 15.5005 14.7204 15.5005 14.736L15.5162 14.7515H15.532C15.6264 14.7515 15.705 14.7515 15.7994 14.736C15.7994 14.7515 15.7994 14.7515 15.7994 14.767C15.7994 14.7826 15.7837 14.7826 15.7837 14.7981C15.7679 14.8292 15.7837 14.8757 15.8151 14.8913C15.8309 14.9223 15.8781 14.9223 15.9095 14.8913C15.9253 14.8757 15.941 14.8447 15.9567 14.8292C15.9725 14.7981 16.0197 14.7826 16.0511 14.7515C16.0669 14.736 16.0983 14.7204 16.1141 14.7049H16.1298C16.1613 14.7049 16.177 14.6894 16.1927 14.6583C16.1927 14.6428 16.1927 14.6428 16.2085 14.6272C16.2085 14.6117 16.2085 14.6117 16.2242 14.5962C16.2242 14.5806 16.2399 14.5806 16.2557 14.5651C16.2714 14.5651 16.2871 14.5651 16.3029 14.5651C16.3029 14.5651 16.3186 14.5651 16.3186 14.5806C16.3343 14.5962 16.35 14.5962 16.3815 14.5806C16.3972 14.5651 16.4287 14.5651 16.4287 14.534C16.4444 14.534 16.4602 14.5185 16.4602 14.5185C16.4602 14.5185 16.4759 14.5185 16.4916 14.5185C16.5231 14.4719 16.586 14.4409 16.649 14.4253C16.6804 14.4253 16.6962 14.4098 16.7119 14.3787C16.7119 14.3632 16.7276 14.3632 16.7434 14.3632C16.7591 14.3477 16.7906 14.3477 16.8063 14.3321C16.822 14.3321 16.822 14.3321 16.822 14.3166C16.8692 14.3166 16.9164 14.3011 16.9479 14.2545C16.9636 14.2545 16.9794 14.2389 16.9794 14.2079H16.9951C17.0108 14.2079 17.0265 14.2079 17.0423 14.2079C17.058 14.2079 17.0737 14.2079 17.0895 14.1924C17.1052 14.2079 17.1367 14.2079 17.1524 14.2234C17.2311 14.2545 17.294 14.27 17.3727 14.27H17.3884C17.4041 14.27 17.4041 14.2545 17.4041 14.2389C17.4041 14.2234 17.3884 14.2234 17.3884 14.2079C17.3412 14.1613 17.3097 14.1302 17.2625 14.0992V14.0836C17.2625 14.0681 17.2625 14.0681 17.2625 14.0526C17.2625 14.037 17.2625 14.037 17.2783 14.037H17.294C17.3255 14.037 17.3412 14.0215 17.3569 14.006C17.3569 14.006 17.3569 14.006 17.3727 13.9904C17.3884 13.9594 17.3884 13.9283 17.3884 13.9283C17.3884 13.9128 17.3884 13.9128 17.4041 13.9128C17.4513 13.8973 17.4513 13.8662 17.4671 13.8351C17.4671 13.8196 17.4671 13.8196 17.4828 13.8041C17.4985 13.7885 17.5143 13.773 17.53 13.7575C17.53 13.7419 17.5457 13.7264 17.5615 13.7264C17.5929 13.7264 17.6244 13.6953 17.6401 13.6798C17.6401 13.6798 17.6401 13.6798 17.6559 13.6643L17.6716 13.6487H17.6401L17.6244 13.6332C17.6244 13.6332 17.6244 13.6177 17.6401 13.6177L17.6559 13.6021C17.6559 13.6021 17.6716 13.6022 17.6716 13.5866C17.6873 13.5866 17.703 13.5866 17.7188 13.6021C17.7188 13.6021 17.7345 13.6177 17.7502 13.6177H17.766C17.766 13.6177 17.7817 13.6021 17.7974 13.6021C17.8132 13.6021 17.8289 13.5866 17.8446 13.5711C17.8446 13.5711 17.8604 13.5711 17.8604 13.5556C17.8604 13.5556 17.8604 13.5556 17.8604 13.54C17.8604 13.54 17.8761 13.54 17.8761 13.5245C17.9076 13.5245 17.939 13.54 17.9548 13.4934C17.9705 13.4934 17.9862 13.4779 18.002 13.4624C18.0177 13.4468 18.0334 13.4313 18.0492 13.4468H18.0649C18.0806 13.4468 18.0964 13.4313 18.1121 13.4158C18.1121 13.4158 18.1278 13.4002 18.1278 13.3847L18.1436 13.3692V13.3536C18.1436 13.3536 18.1436 13.3536 18.1278 13.3381C18.1278 13.3381 18.1278 13.3381 18.1278 13.3226C18.1593 13.307 18.175 13.2915 18.175 13.2449V13.2294V13.2139C18.175 13.2139 18.175 13.2139 18.175 13.1983L18.1908 13.1828H18.2065V13.1673V13.1517C18.2065 13.1362 18.2065 13.1362 18.2065 13.1207V13.1051V13.0896C18.2065 13.0741 18.2065 13.0741 18.2065 13.0585C18.1908 13.043 18.1908 13.0585 18.175 13.0585C18.1593 13.0585 18.1593 13.0585 18.1593 13.0585V13.043C18.1593 13.0275 18.1436 13.0119 18.1278 12.9964C18.1278 12.9964 18.1278 12.9964 18.1436 12.9809L18.1593 12.9654C18.1593 12.9498 18.1593 12.9343 18.1593 12.9343C18.1593 12.9188 18.1436 12.9188 18.1278 12.9188C18.1593 12.8877 18.1436 12.8722 18.1278 12.8722C18.1593 12.8411 18.175 12.81 18.175 12.7945C18.175 12.7945 18.175 12.7945 18.175 12.779C18.2065 12.779 18.2537 12.7945 18.2852 12.779C18.3009 12.779 18.3166 12.7634 18.3166 12.7634C18.3324 12.7479 18.3166 12.7168 18.3166 12.7013C18.3009 12.6703 18.2852 12.6547 18.2694 12.6392C18.2537 12.6081 18.2537 12.5615 18.2537 12.5149C18.2537 12.4683 18.2537 12.4217 18.2537 12.3907C18.2537 12.3751 18.2694 12.3596 18.2852 12.3441C18.3166 12.313 18.3323 12.282 18.3323 12.2354C18.3323 12.2198 18.3324 12.2198 18.3481 12.2043C18.3795 12.1732 18.411 12.1422 18.4425 12.1111C18.4425 12.1111 18.4582 12.1111 18.4582 12.0956C18.4582 12.0956 18.4739 12.0956 18.4897 12.0956C18.5054 12.0956 18.5211 12.1111 18.5211 12.1111C18.5683 12.1111 18.5841 12.08 18.6155 12.049C18.6627 11.9869 18.7414 11.9403 18.8201 11.9247C18.8515 11.9092 18.883 11.9092 18.9145 11.8937C18.9459 11.8781 18.9774 11.8626 18.9774 11.8315C18.9774 11.816 18.9774 11.8005 18.9774 11.7694C18.9774 11.7539 18.9774 11.7539 18.9774 11.7384C18.9774 11.6762 18.9931 11.6141 19.0088 11.552C19.0088 11.5364 19.0088 11.5209 19.0088 11.5054C19.0088 11.5054 19.0088 11.5054 19.0088 11.4898C19.0088 11.4588 18.9931 11.4277 18.9774 11.4122L18.9617 11.3967C18.9617 11.3811 18.9459 11.3811 18.9302 11.3811H18.9145C18.9302 11.3501 18.9145 11.3345 18.8987 11.3035C18.8987 11.3035 18.883 11.2879 18.9145 11.2724C18.9302 11.2569 18.9302 11.2569 18.9302 11.2413C18.9302 11.2258 18.9145 11.2258 18.9145 11.2103C18.9145 11.2103 18.9145 11.2103 18.8987 11.2103C18.8515 11.2103 18.8358 11.1947 18.8515 11.1637C18.8515 11.1481 18.8515 11.1481 18.8515 11.1326C18.8515 11.1326 18.8515 11.1326 18.8515 11.1171C18.883 11.1171 18.8987 11.1016 18.9145 11.086C18.9302 11.086 18.9459 11.0705 18.9459 11.0705C18.9617 11.0705 18.9774 11.0705 18.9931 11.055C19.0088 11.055 19.0089 11.0394 19.0246 11.0394C19.0246 11.0239 19.0246 11.0239 19.0246 11.0084V10.9928C19.056 10.9618 19.0718 10.9307 19.0718 10.9152C19.0875 10.8996 19.0875 10.8996 19.1032 10.8841C19.119 10.853 19.1347 10.8375 19.1504 10.8065C19.2134 10.7443 19.2606 10.6822 19.3078 10.6045C19.3235 10.6045 19.3392 10.6201 19.355 10.6201C19.4022 10.6201 19.4651 10.589 19.4808 10.5424C19.4966 10.5113 19.4966 10.4958 19.4808 10.4648C19.4808 10.4182 19.4808 10.3716 19.4808 10.325C19.4966 10.3094 19.5123 10.3094 19.528 10.2939C19.528 10.2784 19.5438 10.2784 19.5595 10.2784C19.591 10.2473 19.591 10.2318 19.6067 10.2162C19.6067 10.2007 19.6067 10.1697 19.5752 10.1541C19.5595 10.1386 19.5595 10.1231 19.5438 10.1231C19.5438 10.1075 19.5595 10.1075 19.5595 10.092C19.5595 10.0765 19.5595 10.0765 19.5595 10.0609L19.5438 10.0454C19.528 10.0299 19.5123 10.0299 19.4966 10.0143C19.5123 9.95221 19.528 9.90562 19.5595 9.84349C19.591 9.84349 19.6382 9.82796 19.6539 9.81243C19.6696 9.79689 19.6853 9.79689 19.7168 9.78136C19.764 9.76583 19.8112 9.7503 19.8427 9.73477C19.8584 9.73477 19.8584 9.73477 19.8741 9.73477C19.8899 9.73477 19.8899 9.7503 19.8899 9.7503C19.8899 9.79689 19.9213 9.81243 19.9371 9.82796H19.9528L19.9685 9.81243C19.9843 9.78136 19.9843 9.76583 20 9.73477C20 9.73477 20 9.73477 20 9.71923C20 9.7037 19.9843 9.68817 19.9528 9.68817Z"
    fill="white"/>
  <defs>
    <filter id="filter0_d" x="-1" y="0" width="26" height="19.1167" filterUnits="userSpaceOnUse"
            color-interpolation-filters="sRGB">
      <feFlood flood-opacity="0" result="BackgroundImageFix"/>
      <feColorMatrix in="SourceAlpha" type="matrix" values="0 0 0 0 0 0 0 0 0 0 0 0 0 0 0 0 0 0 127 0"/>
      <feOffset dy="1"/>
      <feGaussianBlur stdDeviation="0.5"/>
      <feColorMatrix type="matrix" values="0 0 0 0 0 0 0 0 0 0 0 0 0 0 0 0 0 0 0.16 0"/>
      <feBlend mode="normal" in2="BackgroundImageFix" result="effect1_dropShadow"/>
      <feBlend mode="normal" in="SourceGraphic" in2="effect1_dropShadow" result="shape"/>
    </filter>
  </defs>
</svg>
