<svg width="24" height="18" viewBox="0 0 24 18" fill="none" xmlns="http://www.w3.org/2000/svg">
  <path
    d="M22.2026 17.14H1.79742C0.804703 17.14 0 16.2628 0 15.1807V1.95927C0 0.877214 0.804703 0 1.79742 0H22.2026C23.1952 0 24 0.877162 24 1.95927V15.1808C24 16.2628 23.1953 17.14 22.2026 17.14Z"
    fill="#41479B"/>
  <path
    d="M23.7836 16.1135L2.65842 8.56997L23.7836 1.02649C23.636 0.729773 23.4198 0.479659 23.1586 0.300415L0 8.56997L23.1586 16.8395C23.4199 16.6603 23.636 16.4102 23.7836 16.1135Z"
    fill="#FF4B55"/>
  <path
    d="M23.7834 16.1135C23.9214 15.8361 23.9998 15.5184 23.9998 15.1808V1.95932C23.9998 1.62162 23.9214 1.30396 23.7834 1.02661L2.6582 8.56999L23.7834 16.1135Z"
    fill="#F5F5F5"/>
  <path
    d="M21.4735 6.3502C21.4735 6.3502 22.8905 6.41565 23.0226 6.29782C23.1547 6.18005 23.1787 5.39465 22.7104 5.27688C22.2421 5.1591 20.9692 5.91828 20.9692 5.91828L21.4735 6.3502Z"
    fill="#FFF5DC"/>
  <path
    d="M18.6997 7.56757C18.6997 7.56757 18.6837 7.6112 18.6757 7.80317C18.6677 7.99514 18.6997 8.49255 19.2522 8.71068L19.1241 9.29537L19.7085 9.67931C19.7085 9.67931 20.1408 8.98118 20.1648 8.39649C20.1888 7.81191 18.6997 7.56757 18.6997 7.56757Z"
    fill="#D27D69"/>
  <path
    d="M16.9464 7.17484L17.1746 6.92615C17.1746 6.92615 16.7075 7.23676 16.5301 6.95671C16.298 6.59025 16.6102 6.20626 16.9344 6.03606C17.2586 5.86591 17.9071 5.99682 17.9071 5.99682L18.3154 7.13559L17.0785 7.98639L16.9464 7.17484Z"
    fill="#D27D69"/>
  <path
    d="M20.777 5.00196L21.8817 4.85797C21.8817 4.85797 21.5576 5.36847 20.9211 5.74806C20.9211 5.74806 21.5816 5.74806 21.7737 5.99674C21.9658 6.24543 21.5815 6.48108 21.4375 6.55962C21.2934 6.63815 20.0445 7.47587 20.0445 7.47587L18.9277 7.33188L20.777 5.00196Z"
    fill="#D27D69"/>
  <path
    d="M21.5977 4.077C21.5977 4.077 21.8378 3.46614 21.8298 3.03857L21.0213 3.64943C21.0213 3.64943 21.2054 3.55347 21.1413 3.20438L18.4995 4.76638L17.9631 5.8048L19.5963 6.35459L21.5977 4.077Z"
    fill="#D27D69"/>
  <path
    d="M19.6065 8.83716L19.3303 9.31495C19.3303 9.31495 18.8379 9.19718 18.6698 9.32804C18.5017 9.45894 18.4837 9.94982 18.7779 9.98906C18.7779 9.98906 18.982 10.1265 19.102 10.0152C19.102 10.0152 19.3482 10.1199 19.3902 9.94977C19.4323 9.77962 19.3782 9.63563 19.3782 9.63563H19.5523L19.8585 9.04006L19.6065 8.83716Z"
    fill="#FFE15A"/>
  <path
    d="M17.1387 7.80319C17.1387 7.80319 17.9072 7.3843 17.9072 6.75603C17.9072 6.1277 17.1947 6.0928 16.6183 6.30225C16.6183 6.30225 16.2741 6.00558 16.5623 5.70882C16.9573 5.3021 18.6757 4.45222 18.6757 4.45222L18.4836 5.49938C18.4836 5.49938 19.1681 5.8921 19.4443 5.70882C19.6763 5.55482 21.9419 3.6145 21.9419 3.6145C21.9419 3.6145 21.7498 4.66166 20.4049 5.70882L20.2624 6.48553C20.2311 6.65619 20.1293 6.8015 19.9865 6.87927L19.4443 7.17476C19.4443 7.17476 20.9813 7.3842 20.9813 7.59364C20.9813 7.80303 20.597 8.85024 19.8285 9.26907L19.4443 8.85019L19.6364 8.22187C19.6364 8.22187 19.06 8.01242 18.6757 7.80298C18.6757 7.80298 18.0993 8.01242 17.7151 8.01242C17.3308 8.01258 17.1387 7.80319 17.1387 7.80319Z"
    fill="#B95546"/>
  <path
    d="M15.9858 8.85029V8.41516C15.9858 8.2915 16.0309 8.17286 16.1111 8.08543L16.9465 7.1748L17.1387 7.59369H17.9072L17.7151 7.80313V8.01257L16.7544 8.6409L15.9858 8.85029Z"
    fill="#FFF5DC"/>
  <path
    d="M16.3701 8.64088H15.9859C15.9859 8.64088 15.6016 9.2692 15.9859 9.2692C15.9859 9.2692 16.5623 8.85032 16.7544 8.64088C16.7544 8.64088 16.7544 8.43143 16.3701 8.64088Z"
    fill="#FFE15A"/>
  <path
    d="M21.0566 9.56987H18.4005C18.3786 9.54416 18.348 9.52756 18.3133 9.52756C18.3133 9.52756 17.8481 9.31735 17.7819 9.31735H17.7274C17.6613 9.31735 17.6076 9.3758 17.6076 9.44795V9.56987H17.0004V9.44795C17.0004 9.37586 16.9468 9.31735 16.8806 9.31735H16.8261C16.76 9.31735 16.7063 9.3758 16.7063 9.44795V9.45015C16.4461 9.4386 15.8897 9.40242 15.6015 9.29773L14.0645 9.71661L15.6015 10.1355C15.8896 10.0308 16.446 9.99457 16.7063 9.98303V9.98522C16.7063 10.0573 16.7599 10.1158 16.8261 10.1158H16.8806C16.9468 10.1158 17.0004 10.0574 17.0004 9.98522V9.86331H17.6076V9.98522C17.6076 10.0573 17.6612 10.1158 17.7274 10.1158H17.7819C17.8481 10.1158 18.3133 9.90562 18.3133 9.90562C18.348 9.90562 18.3787 9.88906 18.4005 9.86331H21.0566C21.131 9.86331 21.1912 9.79755 21.1912 9.71656C21.1913 9.63557 21.131 9.56987 21.0566 9.56987Z"
    fill="#FFE15A"/>
  <path
    d="M20.9413 10.133C20.7811 10.0981 18.9479 10.4471 18.9479 10.4471C18.9479 10.4471 18.8358 10.325 19.172 9.98462L19.0119 9.94098C19.0119 9.94098 18.6597 10.2115 18.5156 10.2464C18.3915 10.2764 18.1142 10.4234 18.0547 10.6195L16.9385 10.8223L16.9625 10.927L18.0573 10.7871C18.1096 10.9705 18.2817 11.0079 18.4035 10.9532C18.4035 10.9532 18.5636 11.023 18.7077 10.9008C18.7077 10.9008 18.9959 10.9532 19.0119 10.6652L21.0212 10.3336C21.0213 10.3337 21.1014 10.1679 20.9413 10.133Z"
    fill="#FFE15A"/>
  <path
    d="M19.8046 11.6078C19.8046 11.6078 19.6525 11.8259 19.2762 11.634C18.9 11.442 18.4597 11.6514 18.2195 11.5903C17.9794 11.5292 17.6191 11.3722 17.2829 11.5118C16.9467 11.6514 16.7626 11.6427 16.8346 11.4682C16.9067 11.2937 16.9467 11.1628 16.8346 11.1017L16.9627 10.9272L16.9387 10.8225C16.9387 10.8225 16.2982 10.552 15.866 10.9272C15.4337 11.3024 15.5618 12.1576 16.2823 12.2187C16.2823 12.2187 16.5064 12.5241 17.0588 12.4368C17.0588 12.4368 17.4191 12.7073 18.0355 12.5851C18.0355 12.5851 18.0595 12.6637 18.4598 12.6288C18.8601 12.5939 19.3083 12.6462 19.2283 12.9429C19.2283 12.9429 19.5245 12.8818 19.3484 12.5851C19.3484 12.5851 19.7006 12.5676 19.9408 12.7945C19.9408 12.7945 19.9568 12.5327 19.7246 12.393C19.7246 12.393 20.1169 12.2447 20.3331 12.393C20.3331 12.393 20.189 12.0615 19.8047 12.1051C19.8047 12.1051 20.0849 11.8608 20.213 11.9219C20.213 11.9219 20.0929 11.7648 19.7406 11.9219C19.7406 11.9219 19.9647 11.7736 19.8046 11.6078Z"
    fill="#FFE15A"/>
</svg>
