<svg width="24" height="18" viewBox="0 0 24 18" fill="none" xmlns="http://www.w3.org/2000/svg">
  <rect width="24" height="17.1429" rx="2" fill="white"/>
  <mask id="mask0" mask-type="alpha" maskUnits="userSpaceOnUse" x="0" y="0" width="24" height="18">
    <rect width="24" height="17.1429" rx="2" fill="white"/>
  </mask>
  <g mask="url(#mask0)">
    <rect width="24" height="17.1429" fill="url(#paint0_linear)"/>
    <rect x="11.4286" width="12.5714" height="17.1429" fill="#08379D"/>
    <path fill-rule="evenodd" clip-rule="evenodd" d="M0 17.1429H8V0H0V17.1429Z" fill="#08379D"/>
    <path fill-rule="evenodd" clip-rule="evenodd" d="M8.00003 17.1429H16V0H8.00003V17.1429Z" fill="#FFCC50"/>
    <path fill-rule="evenodd" clip-rule="evenodd"
          d="M11.7418 5.55633C11.8755 5.35963 12.1664 5.36233 12.2965 5.56148L12.8495 6.40806C12.9756 6.60114 12.8371 6.85711 12.6065 6.85711V6.85711C12.4347 6.85711 12.3005 7.0054 12.3176 7.17629L12.5414 9.41409C12.5584 9.58449 12.7018 9.71426 12.8731 9.71426H13.0058C13.0936 9.71426 13.1779 9.67963 13.2403 9.6179L13.6154 9.24681C13.6787 9.1842 13.7143 9.09887 13.7143 9.00984V8.13804C13.7143 8.04964 13.6792 7.96485 13.6166 7.90234L13.5242 7.80992C13.349 7.6347 13.4194 7.33635 13.6545 7.25799L14.3218 7.03555C14.5625 6.95534 14.801 7.1626 14.7551 7.41207L14.3511 9.60866C14.3385 9.67732 14.3046 9.74028 14.2543 9.78867L13.2396 10.7641C13.1775 10.8238 13.0947 10.8571 13.0086 10.8571H12.9048C12.7207 10.8571 12.5714 11.0064 12.5714 11.1904V11.6666C12.5714 11.8507 12.4222 12 12.2381 12H11.7619C11.5778 12 11.4286 11.8507 11.4286 11.6666V11.1904C11.4286 11.0064 11.2793 10.8571 11.0952 10.8571H10.9952C10.9068 10.8571 10.822 10.822 10.7595 10.7595L9.78564 9.78562C9.73911 9.73909 9.70739 9.67982 9.69449 9.61529L9.2555 7.42035C9.2053 7.16938 9.44496 6.95782 9.68777 7.03875L10.3455 7.25799C10.5805 7.33635 10.651 7.6347 10.4758 7.80992L10.3833 7.90234C10.3208 7.96485 10.2857 8.04964 10.2857 8.13804V9.00984C10.2857 9.09887 10.3213 9.1842 10.3846 9.24681L10.7597 9.6179C10.8221 9.67963 10.9064 9.71426 10.9942 9.71426H11.1269C11.2982 9.71426 11.4415 9.58449 11.4586 9.41409L11.6828 7.17185C11.6997 7.00334 11.5673 6.85711 11.398 6.85711V6.85711C11.1682 6.85711 11.032 6.59993 11.1613 6.40989L11.7418 5.55633Z"
          fill="#262626"/>
  </g>
  <defs>
    <linearGradient id="paint0_linear" x1="0" y1="0" x2="0" y2="17.1429" gradientUnits="userSpaceOnUse">
      <stop stop-color="#1132C7"/>
      <stop offset="1" stop-color="#0522A5"/>
    </linearGradient>
  </defs>
</svg>
