<svg width="24" height="18" viewBox="0 0 24 18" fill="none" xmlns="http://www.w3.org/2000/svg">
  <rect width="24" height="17.1429" rx="2" fill="white"/>
  <mask id="mask0" mask-type="alpha" maskUnits="userSpaceOnUse" x="0" y="0" width="24" height="18">
    <rect width="24" height="17.1429" rx="2" fill="white"/>
  </mask>
  <g mask="url(#mask0)">
    <rect width="24" height="17.1429" fill="#E4233B"/>
    <path fill-rule="evenodd" clip-rule="evenodd" d="M0 0L10.2857 8.57143L0 17.1429V0Z" fill="#34CD4E"/>
    <path fill-rule="evenodd" clip-rule="evenodd" d="M24 0L13.7143 8.57143L24 17.1429V0Z" fill="#34CD4E"/>
    <path fill-rule="evenodd" clip-rule="evenodd"
          d="M14.5389 5.48041C13.8482 4.91246 12.9639 4.57146 11.9999 4.57146C11.036 4.57146 10.1517 4.91244 9.46103 5.48036L-1.09926 -1.64264L-2.37742 0.252304L8.18202 7.37474C8.0637 7.7526 7.99993 8.15459 7.99993 8.57146C7.99993 8.98833 8.0637 9.39031 8.18202 9.76817L-2.37744 16.8906L-1.09929 18.7856L9.46101 11.6625C10.1517 12.2305 11.036 12.5715 11.9999 12.5715C12.9639 12.5715 13.8483 12.2305 14.5389 11.6625L25.0993 18.7856L26.3774 16.8906L15.8179 9.7681C15.9362 9.39026 15.9999 8.98831 15.9999 8.57146C15.9999 8.15461 15.9362 7.75265 15.8179 7.3748L26.3774 0.25231L25.0992 -1.64263L14.5389 5.48041Z"
          fill="white"/>
    <path fill-rule="evenodd" clip-rule="evenodd"
          d="M12 7.42856L11.1919 7.66525L11.4286 6.85713L11.1919 6.04901L12 6.2857L12.8082 6.04901L12.5715 6.85713L12.8082 7.66525L12 7.42856ZM10.2858 10.2857L9.47763 10.5224L9.71432 9.71427L9.47763 8.90615L10.2858 9.14284L11.0939 8.90615L10.8572 9.71427L11.0939 10.5224L10.2858 10.2857ZM12.9062 10.5224L13.7143 10.2857L14.5224 10.5224L14.2858 9.71427L14.5224 8.90615L13.7143 9.14284L12.9062 8.90615L13.1429 9.71427L12.9062 10.5224Z"
          fill="#DF2239"/>
  </g>
</svg>
