<svg width="24" height="18" viewBox="0 0 24 18" fill="none" xmlns="http://www.w3.org/2000/svg">
  <rect width="24" height="17.1429" rx="2" fill="white"/>
  <mask id="mask0" mask-type="alpha" maskUnits="userSpaceOnUse" x="0" y="0" width="24" height="18">
    <rect width="24" height="17.1429" rx="2" fill="white"/>
  </mask>
  <g mask="url(#mask0)">
    <rect width="24" height="17.1429" fill="#DC1F37"/>
    <rect width="10.2857" height="8" fill="#042C90"/>
    <path fill-rule="evenodd" clip-rule="evenodd"
          d="M14.8571 8.57144C14.8571 6.85715 14.8571 5.71429 14.8571 5.71429H17.1428H19.4285C19.4285 5.71429 19.4285 6.85715 19.4285 8.57144C19.4285 10.2857 17.1428 11.4286 17.1428 11.4286C17.1428 11.4286 14.8571 10.2857 14.8571 8.57144Z"
          fill="white"/>
    <mask id="mask1" mask-type="alpha" maskUnits="userSpaceOnUse" x="14" y="5" width="6" height="7">
      <path fill-rule="evenodd" clip-rule="evenodd"
            d="M14.8571 8.57144C14.8571 6.85715 14.8571 5.71429 14.8571 5.71429H17.1428H19.4285C19.4285 5.71429 19.4285 6.85715 19.4285 8.57144C19.4285 10.2857 17.1428 11.4286 17.1428 11.4286C17.1428 11.4286 14.8571 10.2857 14.8571 8.57144Z"
            fill="white"/>
    </mask>
    <g mask="url(#mask1)">
      <path fill-rule="evenodd" clip-rule="evenodd"
            d="M17.1426 10.2857C17.7738 10.2857 18.2855 9.77404 18.2855 9.14286C18.2855 8.51167 17.7738 8 17.1426 8C16.5114 8 15.9998 8.51167 15.9998 9.14286C15.9998 9.77404 16.5114 10.2857 17.1426 10.2857Z"
            fill="#65B5D2"/>
      <path fill-rule="evenodd" clip-rule="evenodd"
            d="M17.1428 7.99997C17.4584 7.99997 17.7142 7.74414 17.7142 7.42855C17.7142 7.11295 17.4584 6.85712 17.1428 6.85712C16.8272 6.85712 16.5714 7.11295 16.5714 7.42855C16.5714 7.74414 16.8272 7.99997 17.1428 7.99997ZM16 9.14283C16.3156 9.14283 16.5714 8.88699 16.5714 8.5714C16.5714 8.25581 16.3156 7.99997 16 7.99997C15.6844 7.99997 15.4286 8.25581 15.4286 8.5714C15.4286 8.88699 15.6844 9.14283 16 9.14283ZM18.8572 8.5714C18.8572 8.88699 18.6014 9.14283 18.2858 9.14283C17.9702 9.14283 17.7144 8.88699 17.7144 8.5714C17.7144 8.25581 17.9702 7.99997 18.2858 7.99997C18.6014 7.99997 18.8572 8.25581 18.8572 8.5714Z"
            fill="url(#paint0_linear)"/>
      <rect x="14.857" y="10.2857" width="4.57143" height="1.14286" fill="#2F8F22"/>
    </g>
    <path
      d="M0 -0.333333H-0.901086L-0.21693 0.253086L3.66667 3.58188V4.39989L-0.193746 7.15733L-0.333333 7.25703V7.42857V8V8.60141L0.176666 8.28267L4.66703 5.47619H5.60746L9.47126 8.23604C9.55984 8.29932 9.66599 8.33333 9.77485 8.33333C10.2598 8.33333 10.4829 7.73003 10.1148 7.41445L6.61905 4.41812V3.60011L10.3399 0.942378C10.5151 0.817237 10.619 0.61519 10.619 0.399889V0V-0.601416L10.109 -0.282666L5.61869 2.52381H4.67825L0.765175 -0.271244L0.67825 -0.333333H0.571429H0Z"
      fill="#DB1E36" stroke="white" stroke-width="0.666667"/>
    <path fill-rule="evenodd" clip-rule="evenodd"
          d="M0 2.85714V5.14286H4V7.90476C4 8.27295 4.29848 8.57143 4.66667 8.57143H5.61905C5.98724 8.57143 6.28571 8.27295 6.28571 7.90476V5.14286H10.1905C10.5587 5.14286 10.8571 4.84438 10.8571 4.47619V3.52381C10.8571 3.15562 10.5587 2.85714 10.1905 2.85714H6.28571V0H4V2.85714H0Z"
          fill="white"/>
    <path fill-rule="evenodd" clip-rule="evenodd"
          d="M0 3.42857H4.57143V2.85714V0H5.71429V2.85714V3.42857H10.2857V4.57143H5.71429V5.14286V8H4.57143V5.14286V4.57143H0V3.42857Z"
          fill="url(#paint1_linear)"/>
  </g>
  <defs>
    <linearGradient id="paint0_linear" x1="15.4286" y1="6.85712" x2="15.4286" y2="9.14283"
                    gradientUnits="userSpaceOnUse">
      <stop stop-color="#E20B0C"/>
      <stop offset="1" stop-color="#D40001"/>
    </linearGradient>
    <linearGradient id="paint1_linear" x1="0" y1="0" x2="0" y2="8" gradientUnits="userSpaceOnUse">
      <stop stop-color="#DB1E36"/>
      <stop offset="1" stop-color="#D51931"/>
    </linearGradient>
  </defs>
</svg>
