<svg width="24" height="18" viewBox="0 0 24 18" fill="none" xmlns="http://www.w3.org/2000/svg">
  <rect width="24" height="17.1429" rx="2" fill="white"/>
  <mask id="mask0" mask-type="alpha" maskUnits="userSpaceOnUse" x="0" y="0" width="24" height="18">
    <rect width="24" height="17.1429" rx="2" fill="white"/>
  </mask>
  <g mask="url(#mask0)">
    <path fill-rule="evenodd" clip-rule="evenodd" d="M0 11.4286H24V0H0V11.4286Z" fill="#E54252"/>
    <path fill-rule="evenodd" clip-rule="evenodd" d="M0 17.1429H24V11.4286H0V17.1429Z" fill="#5CBE6B"/>
    <path fill-rule="evenodd" clip-rule="evenodd"
          d="M0 0H3.42857V2.57148L2.85718 3.42857L3.42857 4.28566V6.00005L2.85718 6.85714L3.42857 7.71423V9.42862L2.85718 10.2857L3.42857 11.1428V12.8572L2.85718 13.7143L3.42857 14.5714V17.1429H0V0Z"
          fill="white"/>
    <path fill-rule="evenodd" clip-rule="evenodd"
          d="M-0.571376 1.71429L-1.71423 3.42858L-0.571376 5.14287L0.571481 3.42858L-0.571376 1.71429ZM-0.571429 5.14287L-1.71429 6.85716L-0.571429 8.57144L0.571429 6.85716L-0.571429 5.14287ZM-1.71429 10.2857L-0.571429 8.57144L0.571429 10.2857L-0.571429 12L-1.71429 10.2857ZM-0.571429 12L0.571429 13.7143L-0.571429 15.4286L-1.71429 13.7143L-0.571429 12Z"
          fill="#E54252"/>
    <path fill-rule="evenodd" clip-rule="evenodd"
          d="M0.571411 1.71429L1.71427 0L2.85713 1.71429L1.71427 3.42857L0.571411 1.71429ZM0.571394 5.14286L1.71425 3.42857L2.85711 5.14286L1.71425 6.85714L0.571394 5.14286ZM1.71425 10.2857L0.571394 8.57143L1.71425 6.85714L2.85711 8.57143L1.71425 10.2857ZM1.71425 13.7143L2.85711 12L1.71425 10.2857L0.571394 12L1.71425 13.7143ZM1.71425 13.7143L2.85711 15.4286L1.71425 17.1429L0.571394 15.4286L1.71425 13.7143Z"
          fill="#E54252"/>
  </g>
</svg>
