<svg width="24" height="18" viewBox="0 0 24 18" fill="none" xmlns="http://www.w3.org/2000/svg">
  <rect width="24" height="17.1429" rx="2" fill="white"/>
  <mask id="mask0" mask-type="alpha" maskUnits="userSpaceOnUse" x="0" y="0" width="24" height="18">
    <rect width="24" height="17.1429" rx="2" fill="white"/>
  </mask>
  <g mask="url(#mask0)">
    <path fill-rule="evenodd" clip-rule="evenodd" d="M0 14.8571H24V2.28571H0V14.8571Z" fill="#094995"/>
    <path fill-rule="evenodd" clip-rule="evenodd" d="M0 2.28571H24V0H0V2.28571Z" fill="#D5182F"/>
    <path fill-rule="evenodd" clip-rule="evenodd" d="M0 17.1428H24V14.8571H0V17.1428Z" fill="#D5182F"/>
    <path fill-rule="evenodd" clip-rule="evenodd"
          d="M12 13.7143C14.8403 13.7143 17.1429 11.4118 17.1429 8.57145C17.1429 5.73112 14.8403 3.42859 12 3.42859C9.15968 3.42859 6.85714 5.73112 6.85714 8.57145C6.85714 11.4118 9.15968 13.7143 12 13.7143Z"
          fill="white"/>
    <path fill-rule="evenodd" clip-rule="evenodd"
          d="M12 12C13.8935 12 15.4286 10.465 15.4286 8.57145C15.4286 6.67791 13.8935 5.14288 12 5.14288C10.1065 5.14288 8.57143 6.67791 8.57143 8.57145C8.57143 10.465 10.1065 12 12 12Z"
          stroke="#118014" stroke-width="1.33333" stroke-linecap="round" stroke-dasharray="0.67 2"/>
  </g>
</svg>
