<svg width="24" height="18" viewBox="0 0 24 18" fill="none" xmlns="http://www.w3.org/2000/svg">
  <rect x="0.25" y="0.25" width="23.5" height="16.6429" rx="1.75" fill="white" stroke="#F5F5F5" stroke-width="0.5"/>
  <mask id="mask0" mask-type="alpha" maskUnits="userSpaceOnUse" x="0" y="0" width="24" height="18">
    <rect x="0.25" y="0.25" width="23.5" height="16.6429" rx="1.75" fill="white" stroke="white" stroke-width="0.5"/>
  </mask>
  <g mask="url(#mask0)">
    <rect x="17.1429" width="6.85714" height="17.1429" fill="#FF3131"/>
    <path fill-rule="evenodd" clip-rule="evenodd" d="M0 17.1429H6.85714V0H0V17.1429Z" fill="#FF3131"/>
    <path fill-rule="evenodd" clip-rule="evenodd"
          d="M13.9214 7.79294C13.6882 8.02615 13.2941 7.81526 13.3588 7.49187L13.7143 5.71427L12.5715 6.2857L12 4.57141L11.4286 6.2857L10.2857 5.71427L10.6413 7.49187C10.7059 7.81526 10.3119 8.02614 10.0787 7.79294L9.95002 7.66426C9.81984 7.53408 9.60879 7.53408 9.47861 7.66426L9.14289 7.99998L8.00003 7.42855L8.57146 8.57141L8.23573 8.90714C8.10556 9.03731 8.10556 9.24837 8.23573 9.37854L9.71432 10.8571H11.4286L11.7143 12.5714H12.2857L12.5715 10.8571H14.2857L15.7643 9.37854C15.8945 9.24837 15.8945 9.03731 15.7643 8.90714L15.4286 8.57141L16 7.42855L14.8572 7.99998L14.5214 7.66426C14.3913 7.53408 14.1802 7.53408 14.05 7.66426L13.9214 7.79294Z"
          fill="#FF3131"/>
  </g>
</svg>
