<svg width="24" height="18" viewBox="0 0 24 18" fill="none" xmlns="http://www.w3.org/2000/svg">
  <path
    d="M24 1.95732C23.9991 0.876138 23.1947 2.23205e-09 22.2026 2.23205e-09H1.79742C0.804703 -5.10935e-05 0 0.87716 0 1.95921V15.1807C0 16.2627 0.804703 17.14 1.79742 17.14H22.2026C23.1947 17.14 23.9991 16.2638 24 15.1827V1.95732V1.95732Z"
    fill="#73AF00"/>
  <path
    d="M13.2943 11.2088C11.9573 11.2088 10.8734 10.0274 10.8734 8.56998C10.8734 7.11258 11.9572 5.93115 13.2943 5.93115C13.4717 5.93115 13.6436 5.95434 13.8093 5.99578C13.8753 6.01229 13.9103 5.91566 13.8527 5.87678C13.3457 5.53413 12.7352 5.35642 12.0834 5.41421C10.6649 5.54001 9.52439 6.80064 9.42782 8.34854C9.31242 10.1976 10.6543 11.7366 12.3259 11.7366C12.8863 11.7366 13.4092 11.5631 13.8528 11.2632C13.9104 11.2243 13.8756 11.1276 13.8095 11.1442C13.6437 11.1856 13.4717 11.2088 13.2943 11.2088Z"
    fill="#FFE15A"/>
  <path
    d="M15.4046 6.33564L15.5864 6.83761L16.0598 6.67957C16.0861 6.67078 16.1087 6.70169 16.095 6.72765L15.8483 7.19558L16.2568 7.50047C16.2795 7.51738 16.2714 7.55591 16.2443 7.56041L15.7548 7.64196L15.7908 8.1802C15.7928 8.21009 15.7602 8.22721 15.74 8.20687L15.3765 7.84062L15.0129 8.20687C14.9927 8.22721 14.9601 8.21009 14.9621 8.1802L14.9981 7.64196L14.5087 7.56041C14.4815 7.55591 14.4735 7.51738 14.4961 7.50047L14.9046 7.19558L14.658 6.72765C14.6443 6.70164 14.6668 6.67083 14.6931 6.67957L15.1665 6.83761L15.3483 6.33564C15.3583 6.3078 15.3945 6.3078 15.4046 6.33564Z"
    fill="#FFE15A"/>
  <path
    d="M22.0252 4.98239L22.207 5.48436L22.6804 5.32632C22.7067 5.31753 22.7293 5.34844 22.7156 5.3744L22.4689 5.84234L22.8774 6.14722C22.9001 6.16414 22.892 6.20266 22.8649 6.20716L22.3754 6.28871L22.4114 6.82695C22.4135 6.85684 22.3808 6.87396 22.3606 6.85362L21.9971 6.48737L21.6335 6.85362C21.6133 6.87396 21.5807 6.85684 21.5827 6.82695L21.6187 6.28871L21.1293 6.20716C21.1021 6.20266 21.0941 6.16414 21.1167 6.14722L21.5252 5.84234L21.2786 5.3744C21.2649 5.34839 21.2874 5.31758 21.3137 5.32632L21.7871 5.48436L21.9689 4.98239C21.9789 4.9546 22.0151 4.9546 22.0252 4.98239Z"
    fill="#FFE15A"/>
  <path
    d="M18.7149 1.7284L18.8967 2.23037L19.3701 2.07233C19.3964 2.06354 19.419 2.09445 19.4053 2.12041L19.1586 2.58835L19.5671 2.89323C19.5898 2.91015 19.5818 2.94867 19.5546 2.95317L19.0652 3.03472L19.1012 3.57296C19.1032 3.60285 19.0705 3.61997 19.0503 3.59963L18.6868 3.23338L18.3232 3.59963C18.303 3.61997 18.2704 3.60285 18.2724 3.57296L18.3084 3.03472L17.819 2.95317C17.7918 2.94867 17.7838 2.91015 17.8064 2.89323L18.2149 2.58835L17.9683 2.12041C17.9546 2.0944 17.9771 2.06359 18.0034 2.07233L18.4768 2.23037L18.6587 1.7284C18.6686 1.70056 18.7048 1.70056 18.7149 1.7284Z"
    fill="#FFE15A"/>
  <path
    d="M18.7151 13.5525L18.897 14.0545L19.3703 13.8964C19.3966 13.8876 19.4192 13.9186 19.4055 13.9445L19.1588 14.4124L19.5674 14.7173C19.5901 14.7342 19.582 14.7728 19.5548 14.7773L19.0654 14.8588L19.1014 15.3971C19.1034 15.4269 19.0708 15.4441 19.0506 15.4237L18.687 15.0575L18.3234 15.4237C18.3032 15.4441 18.2706 15.4269 18.2726 15.3971L18.3086 14.8588L17.8192 14.7773C17.792 14.7728 17.784 14.7342 17.8066 14.7173L18.2152 14.4124L17.9685 13.9445C17.9548 13.9185 17.9774 13.8877 18.0037 13.8964L18.4771 14.0545L18.6589 13.5525C18.6688 13.5247 18.705 13.5247 18.7151 13.5525Z"
    fill="#FFE15A"/>
  <path
    d="M20.0699 6.78985L20.1968 7.20465L20.5979 7.20802C20.629 7.20832 20.6419 7.2515 20.6169 7.27163L20.2942 7.5314L20.4152 7.94829C20.4246 7.98059 20.3908 8.00731 20.3655 7.98759L20.0392 7.73328L19.7128 7.98759C19.6875 8.00726 19.6537 7.98059 19.6631 7.94829L19.7841 7.5314L19.4614 7.27163C19.4364 7.2515 19.4493 7.20827 19.4804 7.20802L19.8815 7.20465L20.0085 6.78985C20.0183 6.75771 20.0601 6.75771 20.0699 6.78985Z"
    fill="#FFE15A"/>
  <path
    d="M4.34496 7.66819C5.83043 7.66819 7.03465 6.35554 7.03465 4.73631C7.03465 3.11709 5.83043 1.80444 4.34496 1.80444C2.85949 1.80444 1.65527 3.11709 1.65527 4.73631C1.65527 6.35554 2.85949 7.66819 4.34496 7.66819Z"
    fill="#FFE15A"/>
  <path
    d="M4.06836 7.02011H4.79473C4.79473 7.02011 5.20742 5.00469 4.82773 4.28485L4.59664 4.44677C4.59664 4.44693 4.97633 5.83244 4.06836 7.02011Z"
    fill="#964B50"/>
  <path
    d="M4.09555 4.37492C4.09555 4.37492 3.67738 4.68681 3.80943 5.61057C3.80943 5.61057 4.12855 5.32264 4.30471 4.68681C4.30471 4.68681 4.05158 5.21468 4.40375 5.63453C4.40375 5.63453 4.77791 5.05868 4.72288 4.55483C4.72288 4.55483 5.96689 5.97089 5.70238 5.61051C5.65836 5.55053 5.76843 4.95066 5.33919 4.45887C5.33919 4.45887 6.04358 4.65078 6.30768 4.57884C6.30768 4.57884 6.32971 3.96697 5.65832 3.859L5.81239 3.37916C5.81239 3.37916 5.29513 3.34319 5.01997 3.63107C5.01997 3.63107 4.95393 2.88727 5.22908 2.5274C5.22908 2.5274 4.41468 2.39542 4.38163 3.55912C4.38163 3.55912 4.08449 2.81532 3.17104 2.99528C3.17104 2.99528 3.6883 3.40313 3.77638 3.58314C3.77638 3.58314 3.05 3.04326 2.70885 3.79907C2.70885 3.79907 3.29216 3.63112 3.50127 3.93105C3.50127 3.93105 2.56579 3.82308 2.48877 4.69886C2.48877 4.69881 3.35825 4.25495 4.09555 4.37492Z"
    fill="#73AF00"/>
</svg>
