<svg width="24" height="18" viewBox="0 0 24 18" fill="none" xmlns="http://www.w3.org/2000/svg">
  <rect x="0.25" y="0.25" width="23.5" height="16.6429" rx="1.75" fill="white" stroke="#F5F5F5" stroke-width="0.5"/>
  <mask id="mask0" mask-type="alpha" maskUnits="userSpaceOnUse" x="0" y="0" width="24" height="18">
    <rect x="0.25" y="0.25" width="23.5" height="16.6429" rx="1.75" fill="white" stroke="white" stroke-width="0.5"/>
  </mask>
  <g mask="url(#mask0)">
    <path fill-rule="evenodd" clip-rule="evenodd" d="M0 4.57143H24V0H0V4.57143Z" fill="#083D96"/>
    <path fill-rule="evenodd" clip-rule="evenodd" d="M0 12.5714H24V8H0V12.5714Z" fill="#37AE39"/>
    <path fill-rule="evenodd" clip-rule="evenodd" d="M0 17.1428H24V12.5714H0V17.1428Z" fill="#FFD13F"/>
    <path fill-rule="evenodd" clip-rule="evenodd" d="M9.14282 17.1429H14.8571V0H9.14282V17.1429Z" fill="#E42346"/>
    <path fill-rule="evenodd" clip-rule="evenodd"
          d="M3.99996 2.95427L2.99233 3.67258L3.36411 2.4923L2.36958 1.75595L3.60698 1.74481L3.99996 0.571411L4.39294 1.74481L5.63034 1.75595L4.63581 2.4923L5.00759 3.67258L3.99996 2.95427Z"
          fill="#FFD03B"/>
  </g>
</svg>
