<svg width="24" height="18" viewBox="0 0 24 18" fill="none" xmlns="http://www.w3.org/2000/svg">
  <rect width="24" height="17.1429" rx="2" fill="white"/>
  <mask id="mask0" mask-type="alpha" maskUnits="userSpaceOnUse" x="0" y="0" width="24" height="18">
    <rect width="24" height="17.1429" rx="2" fill="white"/>
  </mask>
  <g mask="url(#mask0)">
    <rect width="24" height="17.1429" fill="#FF0000"/>
    <path fill-rule="evenodd" clip-rule="evenodd"
          d="M10.2857 10.2857H7.19048C7.00639 10.2857 6.85715 10.1365 6.85715 9.9524V7.19049C6.85715 7.0064 7.00639 6.85716 7.19048 6.85716H10.2857V3.76192C10.2857 3.57783 10.435 3.42859 10.6191 3.42859H13.381C13.5651 3.42859 13.7143 3.57783 13.7143 3.76192V6.85716H16.8095C16.9936 6.85716 17.1429 7.0064 17.1429 7.19049V9.9524C17.1429 10.1365 16.9936 10.2857 16.8095 10.2857H13.7143V13.381C13.7143 13.5651 13.5651 13.7143 13.381 13.7143H10.6191C10.435 13.7143 10.2857 13.5651 10.2857 13.381V10.2857Z"
          fill="white"/>
  </g>
</svg>
