<svg width="24" height="18" viewBox="0 0 24 18" fill="none" xmlns="http://www.w3.org/2000/svg">
  <path
    d="M22.2026 17.14H1.79742C0.804703 17.14 0 16.2628 0 15.1807V1.95927C0 0.877214 0.804703 0 1.79742 0H22.2026C23.1952 0 24 0.877162 24 1.95927V15.1808C24 16.2628 23.1953 17.14 22.2026 17.14Z"
    fill="#41479B"/>
  <path
    d="M0.413813 8.57H1.13259L4.96556 5.83259V8.57H7.03453V5.83259L10.8675 8.57H11.5862C11.8148 8.57 12 8.36802 12 8.11893V7.76115L8.71158 5.41263H12V3.15737H8.71148L12 0.808847V0.451074C12 0.202033 11.8148 0.000153288 11.5864 0H10.8675L7.03448 2.73741V0H4.96552V2.73741L1.25831 0.0898263C0.825469 0.238004 0.463594 0.560062 0.240516 0.980632L3.28852 3.15737H0V5.41263H3.28852L0 7.76115V8.11893C0 8.36802 0.185297 8.57 0.413813 8.57Z"
    fill="#F5F5F5"/>
  <path d="M12 3.60844H6.62067V0H5.37933V3.60844H0V4.96156H5.37933V8.57H6.62067V4.96156H12V3.60844Z" fill="#FF4B55"/>
  <path
    d="M0.385742 0.747349L3.79177 3.15739H4.5518L0.684805 0.421204C0.573758 0.516753 0.473398 0.626251 0.385742 0.747349Z"
    fill="#FF4B55"/>
  <path d="M7.79452 3.15737L11.937 0.226201C11.865 0.0934033 11.738 0 11.5862 0H11.4967L7.03448 3.15737H7.79452Z"
        fill="#FF4B55"/>
  <path
    d="M4.19418 5.41266L0.0595703 8.3382C0.130867 8.47422 0.259867 8.57002 0.413898 8.57002H0.491945L4.95426 5.41266H4.19418Z"
    fill="#FF4B55"/>
  <path d="M11.9934 8.15436L8.11843 5.41266H7.3584L11.7587 8.52618C11.8906 8.4595 11.981 8.31976 11.9934 8.15436Z"
        fill="#FF4B55"/>
  <path
    d="M17.6779 3.15962L17.8297 3.65565L18.3093 3.65969C18.3465 3.66005 18.3619 3.71166 18.332 3.73577L17.9461 4.04638L18.0908 4.54493C18.102 4.58356 18.0617 4.61554 18.0314 4.59194L17.6411 4.28786L17.2508 4.59194C17.2205 4.61549 17.1803 4.58356 17.1914 4.54493L17.3361 4.04638L16.9502 3.73577C16.9203 3.71171 16.9357 3.66 16.9728 3.65969L17.4525 3.65565L17.6043 3.15962C17.6163 3.12119 17.6662 3.12119 17.6779 3.15962Z"
    fill="#F5F5F5"/>
  <path
    d="M15.6383 3.7696L15.962 4.15547L16.4017 3.94654C16.4358 3.93035 16.4691 3.97071 16.4508 4.00597L16.2141 4.46082L16.5323 4.85212C16.557 4.88247 16.532 4.92953 16.4957 4.9214L16.0257 4.81665L15.7826 5.26742C15.7638 5.30232 15.7151 5.29103 15.7108 5.25076L15.657 4.73122L15.1886 4.61856C15.1522 4.60982 15.1471 4.55576 15.1809 4.539L15.6176 4.32261L15.5711 3.8022C15.5676 3.76183 15.6132 3.73976 15.6383 3.7696Z"
    fill="#F5F5F5"/>
  <path
    d="M14.0025 5.2313L14.4422 5.44023L14.7659 5.05435C14.7909 5.02446 14.8365 5.04659 14.8329 5.0869L14.7864 5.60731L15.2231 5.8237C15.257 5.84046 15.2517 5.89452 15.2155 5.90326L14.7471 6.01592L14.6932 6.53547C14.689 6.57573 14.6402 6.58702 14.6214 6.55212L14.3784 6.10136L13.9084 6.2061C13.872 6.21423 13.847 6.16717 13.8717 6.13682L14.1899 5.74553L13.9533 5.29067C13.935 5.25552 13.9684 5.2151 14.0025 5.2313Z"
    fill="#F5F5F5"/>
  <path
    d="M13.0536 7.29181L13.5333 7.28777L13.685 6.79173C13.6968 6.75326 13.7466 6.75326 13.7584 6.79173L13.9102 7.28777L14.3898 7.29181C14.427 7.29217 14.4424 7.34377 14.4125 7.36789L14.0266 7.6785L14.1713 8.17705C14.1825 8.21567 14.1422 8.24766 14.1119 8.22405L13.7216 7.91998L13.3313 8.22405C13.301 8.24761 13.2608 8.21567 13.2719 8.17705L13.4166 7.6785L13.0307 7.36789C13.0011 7.34377 13.0165 7.29207 13.0536 7.29181Z"
    fill="#F5F5F5"/>
  <path
    d="M12.9558 9.59474L13.3925 9.37835L13.3461 8.85793C13.3425 8.81762 13.388 8.79555 13.4131 8.82539L13.7368 9.21126L14.1765 9.00233C14.2106 8.98613 14.244 9.0265 14.2256 9.06176L13.989 9.51661L14.3071 9.9079C14.3318 9.93825 14.3069 9.98531 14.2705 9.97719L13.8005 9.87244L13.5575 10.3232C13.5386 10.3581 13.4899 10.3468 13.4857 10.3066L13.4318 9.78701L12.9634 9.67434C12.9271 9.66556 12.922 9.6115 12.9558 9.59474Z"
    fill="#F5F5F5"/>
  <path
    d="M13.7257 11.7422L14.0439 11.3509L13.8073 10.896C13.7889 10.8608 13.8223 10.8204 13.8563 10.8366L14.296 11.0455L14.6198 10.6596C14.6448 10.6297 14.6904 10.6519 14.6868 10.6922L14.6403 11.2126L15.077 11.429C15.1109 11.4457 15.1056 11.4998 15.0694 11.5085L14.601 11.6212L14.5471 12.1408C14.5429 12.181 14.4941 12.1923 14.4753 12.1574L14.2322 11.7066L13.7623 11.8114C13.726 11.8195 13.7011 11.7725 13.7257 11.7422Z"
    fill="#F5F5F5"/>
  <path
    d="M15.2301 13.3625L15.3748 12.864L14.9889 12.5534C14.959 12.5293 14.9744 12.4776 15.0116 12.4773L15.4912 12.4733L15.643 11.9772C15.6547 11.9387 15.7046 11.9387 15.7164 11.9772L15.8681 12.4733L16.3478 12.4773C16.3849 12.4777 16.4003 12.5293 16.3704 12.5534L15.9846 12.864L16.1292 13.3625C16.1404 13.4012 16.1001 13.4331 16.0698 13.4095L15.6795 13.1055L15.2893 13.4095C15.2593 13.4331 15.219 13.4012 15.2301 13.3625Z"
    fill="#F5F5F5"/>
  <path
    d="M17.2094 14.1758L17.1555 13.6563L16.6871 13.5436C16.6508 13.5349 16.6456 13.4808 16.6795 13.4641L17.1161 13.2477L17.0697 12.7273C17.0661 12.6869 17.1116 12.6649 17.1367 12.6947L17.4604 13.0806L17.9001 12.8717C17.9342 12.8555 17.9676 12.8958 17.9492 12.9311L17.7126 13.3859L18.0308 13.7772C18.0554 13.8076 18.0305 13.8546 17.9941 13.8465L17.5241 13.7418L17.2811 14.1925C17.2623 14.2273 17.2135 14.216 17.2094 14.1758Z"
    fill="#F5F5F5"/>
  <path
    d="M19.3206 14.0413L19.0776 13.5905L18.6076 13.6952C18.5712 13.7034 18.5462 13.6563 18.5709 13.626L18.8891 13.2347L18.6525 12.7799C18.6342 12.7446 18.6676 12.7042 18.7016 12.7204L19.1413 12.9294L19.465 12.5435C19.4901 12.5136 19.5356 12.5357 19.532 12.576L19.4856 13.0964L19.9223 13.3128C19.9561 13.3296 19.9509 13.3837 19.9146 13.3924L19.4462 13.5051L19.3923 14.0246C19.3882 14.0649 19.3395 14.0762 19.3206 14.0413Z"
    fill="#F5F5F5"/>
  <path
    d="M21.1995 12.9824L20.8092 12.6783L20.4189 12.9824C20.3886 13.0059 20.3484 12.974 20.3595 12.9353L20.5042 12.4368L20.1183 12.1262C20.0884 12.1021 20.1038 12.0504 20.141 12.0501L20.6206 12.0461L20.7724 11.55C20.7841 11.5116 20.834 11.5116 20.8458 11.55L20.9976 12.0461L21.4772 12.0501C21.5144 12.0505 21.5298 12.1021 21.4999 12.1262L21.114 12.4368L21.2586 12.9353C21.27 12.9739 21.2297 13.0059 21.1995 12.9824Z"
    fill="#F5F5F5"/>
  <path
    d="M22.5206 11.1819L22.0506 11.0771L21.8076 11.5279C21.7887 11.5628 21.74 11.5515 21.7357 11.5112L21.6819 10.9917L21.2135 10.879C21.1771 10.8703 21.172 10.8162 21.2058 10.7995L21.6425 10.5831L21.5961 10.0627C21.5924 10.0224 21.638 10.0002 21.6631 10.0301L21.9868 10.416L22.4265 10.2071C22.4606 10.1909 22.4939 10.2312 22.4756 10.2665L22.2389 10.7213L22.5571 11.1126C22.5819 11.1429 22.557 11.19 22.5206 11.1819Z"
    fill="#F5F5F5"/>
  <path
    d="M23.0558 8.95141L22.5874 9.06407L22.5335 9.58361C22.5294 9.62388 22.4806 9.63517 22.4617 9.60027L22.2187 9.1495L21.7487 9.25425C21.7123 9.26237 21.6874 9.21531 21.7121 9.18496L22.0302 8.79367L21.7936 8.33882C21.7753 8.30356 21.8087 8.2632 21.8427 8.27939L22.2824 8.48832L22.6061 8.10245C22.6312 8.07256 22.6767 8.09468 22.6731 8.135L22.6267 8.65541L23.0634 8.8718C23.0973 8.88861 23.0921 8.94267 23.0558 8.95141Z"
    fill="#F5F5F5"/>
  <path
    d="M22.712 6.67648L22.3261 6.9871L22.4708 7.48564C22.482 7.52427 22.4417 7.55625 22.4114 7.53265L22.0211 7.22858L21.6308 7.53265C21.6006 7.5562 21.5603 7.52427 21.5715 7.48564L21.7161 6.9871L21.3302 6.67648C21.3003 6.65242 21.3157 6.60071 21.3529 6.6004L21.8325 6.59637L21.9843 6.10033C21.996 6.06185 22.0459 6.06185 22.0577 6.10033L22.2095 6.59637L22.6892 6.6004C22.7265 6.60076 22.7419 6.65247 22.712 6.67648Z"
    fill="#F5F5F5"/>
  <path
    d="M21.5494 4.75051L21.3128 5.20536L21.631 5.59666C21.6556 5.62701 21.6307 5.67407 21.5943 5.66594L21.1243 5.5612L20.8813 6.01196C20.8624 6.04686 20.8137 6.03557 20.8095 5.99531L20.7556 5.47576L20.2872 5.3631C20.2509 5.35436 20.2457 5.3003 20.2795 5.28354L20.7162 5.06715L20.6698 4.54674C20.6662 4.50642 20.7117 4.4843 20.7368 4.51419L21.0605 4.90007L21.5002 4.69114C21.5343 4.67489 21.5677 4.7153 21.5494 4.75051Z"
    fill="#F5F5F5"/>
  <path
    d="M19.7689 3.50656L19.7225 4.02697L20.1592 4.24336C20.193 4.26012 20.1878 4.31418 20.1515 4.32291L19.6831 4.43558L19.6292 4.95512C19.6251 4.99539 19.5763 5.00668 19.5574 4.97178L19.3144 4.52101L18.8444 4.62576C18.808 4.63388 18.7831 4.58682 18.8078 4.55647L19.126 4.16518L18.8893 3.71033C18.871 3.67507 18.9044 3.6347 18.9384 3.6509L19.3781 3.85983L19.7018 3.47396C19.727 3.44407 19.7725 3.46624 19.7689 3.50656Z"
    fill="#F5F5F5"/>
  <path
    d="M17.6779 3.15962L17.8297 3.65565L18.3093 3.65969C18.3465 3.66005 18.3619 3.71166 18.332 3.73577L17.9461 4.04638L18.0908 4.54493C18.102 4.58356 18.0617 4.61554 18.0314 4.59194L17.6411 4.28786L17.2508 4.59194C17.2205 4.61549 17.1803 4.58356 17.1914 4.54493L17.3361 4.04638L16.9502 3.73577C16.9203 3.71171 16.9357 3.66 16.9728 3.65969L17.4525 3.65565L17.6043 3.15962C17.6163 3.12119 17.6662 3.12119 17.6779 3.15962Z"
    fill="#F5F5F5"/>
</svg>
