<svg width="24" height="18" viewBox="0 0 24 18" fill="none" xmlns="http://www.w3.org/2000/svg">
  <rect width="24" height="17.1429" rx="2" fill="white"/>
  <mask id="mask0" mask-type="alpha" maskUnits="userSpaceOnUse" x="0" y="0" width="24" height="18">
    <rect width="24" height="17.1429" rx="2" fill="white"/>
  </mask>
  <g mask="url(#mask0)">
    <rect width="24" height="17.1429" fill="#F1361D"/>
    <path fill-rule="evenodd" clip-rule="evenodd"
          d="M8.63368 2.65781L9.46378 2.79933L10.0864 3.36632L10.2279 2.53623L10.7949 1.91365L9.96477 1.77214L9.3422 1.20514L9.20068 2.03523L8.63368 2.65781ZM10.8571 5.56119L11.5764 5.1234L12.4182 5.14287L11.9805 4.42355L11.9999 3.5817L11.2806 4.01949L10.4388 4.00002L10.8765 4.71934L10.8571 5.56119ZM9.88133 10.2608L9.17772 10.7234L9.1678 9.88136L8.70517 9.17776L9.54719 9.16784L10.2508 8.70521L10.2607 9.54723L10.7233 10.2508L9.88133 10.2608ZM10.4924 8.08411L11.3293 7.99134L12.0841 8.36476L11.9913 7.52782L12.3647 6.77308L11.5278 6.86584L10.773 6.49242L10.8658 7.32936L10.4924 8.08411Z"
          fill="#FFDC42"/>
    <path fill-rule="evenodd" clip-rule="evenodd"
          d="M5.71425 7.05142L3.69898 8.48805L4.44255 6.12748L2.45348 4.65479L4.92829 4.63251L5.71425 2.28571L6.5002 4.63251L8.97501 4.65479L6.98595 6.12748L7.72951 8.48805L5.71425 7.05142Z"
          fill="#FFDC42"/>
  </g>
</svg>
