<svg width="24" height="18" viewBox="0 0 24 18" fill="none" xmlns="http://www.w3.org/2000/svg">
  <rect x="0.25" y="0.25" width="23.5" height="16.6429" rx="1.75" fill="white" stroke="#F5F5F5" stroke-width="0.5"/>
  <mask id="mask0" mask-type="alpha" maskUnits="userSpaceOnUse" x="0" y="0" width="24" height="18">
    <rect x="0.25" y="0.25" width="23.5" height="16.6429" rx="1.75" fill="white" stroke="white" stroke-width="0.5"/>
  </mask>
  <g mask="url(#mask0)">
    <path fill-rule="evenodd" clip-rule="evenodd" d="M0 3.42857H24V0H0V3.42857Z" fill="#0B389F"/>
    <path fill-rule="evenodd" clip-rule="evenodd" d="M0 10.2857H24V6.85712H0V10.2857Z" fill="#0B389F"/>
    <path fill-rule="evenodd" clip-rule="evenodd" d="M0 17.1429H24V13.7143H0V17.1429Z" fill="#0B389F"/>
    <path fill-rule="evenodd" clip-rule="evenodd" d="M0 0L11.4286 8.57143L0 17.1429V0Z" fill="#E12A43"/>
    <path fill-rule="evenodd" clip-rule="evenodd"
          d="M3.99999 9.44801L2.65648 10.4206L3.16631 8.8423L1.82615 7.8651L3.48475 7.86224L3.99999 6.28571L4.51524 7.86224L6.17384 7.8651L4.83368 8.8423L5.3435 10.4206L3.99999 9.44801Z"
          fill="white"/>
  </g>
</svg>
