<svg width="24" height="18" viewBox="0 0 24 18" fill="none" xmlns="http://www.w3.org/2000/svg">
  <path
    d="M22.2134 0H1.78664C0.798984 0.006336 0 0.880806 0 1.95895V15.1807C0 16.2628 0.804703 17.14 1.79742 17.14H22.2026C23.1952 17.14 24 16.2628 24 15.1807V1.95895C24 0.880806 23.201 0.006336 22.2134 0Z"
    fill="#41479B"/>
  <path d="M24 11.7275H0V13.9829H24V11.7275Z" fill="#FFE15A"/>
  <path
    d="M5.57544 4.2199L5.16843 5.55015L3.88204 5.56104C3.75866 5.56206 3.70752 5.73369 3.80675 5.81356L4.84161 6.64653L4.45358 7.98348C4.41641 8.11168 4.55029 8.21776 4.65065 8.13953L5.69722 7.32413L6.7438 8.13953C6.84416 8.21771 6.97808 8.11168 6.94086 7.98348L6.55283 6.64653L7.58769 5.81356C7.68697 5.73364 7.63579 5.56211 7.51241 5.56104L6.22602 5.55015L5.819 4.2199C5.78 4.09231 5.61449 4.09231 5.57544 4.2199Z"
    fill="#F5F5F5"/>
  <path
    d="M2.64334 1.76515L2.40779 2.53513L1.66323 2.54147C1.59184 2.54208 1.56221 2.64136 1.61968 2.6876L2.21865 3.16975L1.99407 3.94361C1.97255 4.01781 2.05004 4.07922 2.10812 4.03395L2.71383 3.56197L3.31955 4.03395C3.37763 4.07922 3.45516 4.01781 3.4336 3.94361L3.20902 3.16975L3.80799 2.6876C3.86541 2.64136 3.83583 2.54203 3.76444 2.54147L3.01988 2.53513L2.78434 1.76515C2.76174 1.69132 2.66593 1.69132 2.64334 1.76515Z"
    fill="#F5F5F5"/>
</svg>
