<svg width="24" height="18" viewBox="0 0 24 18" fill="none" xmlns="http://www.w3.org/2000/svg">
  <path
    d="M1.79742 17.14H22.2026C22.6425 17.14 23.0454 16.9674 23.3578 16.6813L0.642187 0.458618C0.249656 0.818077 0 1.35678 0 1.9593V15.1808C0 16.2629 0.804703 17.14 1.79742 17.14Z"
    fill="#41479B"/>
  <path
    d="M24 15.1807V1.95927C24 0.877213 23.1953 0 22.2026 0H1.79743C1.35746 0 0.954617 0.172551 0.642242 0.458585L23.3579 16.6813C23.7503 16.322 24 15.7832 24 15.1807Z"
    fill="#73AF00"/>
  <path
    d="M11.9999 11.2763C13.3711 11.2763 14.4827 10.0647 14.4827 8.56999C14.4827 7.07532 13.3711 5.86365 11.9999 5.86365C10.6287 5.86365 9.51709 7.07532 9.51709 8.56999C9.51709 10.0647 10.6287 11.2763 11.9999 11.2763Z"
    fill="#FFE15A"/>
  <path
    d="M1.81015 8.6006L1.95378 8.99716L2.32775 8.87233C2.34856 8.86538 2.36633 8.88975 2.35555 8.91034L2.16064 9.27997L2.48333 9.52084C2.50128 9.53422 2.4949 9.56457 2.47339 9.5682L2.08676 9.63258L2.11522 10.0578C2.11681 10.0814 2.09103 10.0949 2.07509 10.0789L1.78789 9.7895L1.50069 10.0789C1.48475 10.0949 1.45897 10.0814 1.46056 10.0578L1.48901 9.63258L1.10239 9.5682C1.08092 9.56463 1.07455 9.53422 1.09245 9.52084L1.41514 9.27997L1.22023 8.91034C1.2094 8.8898 1.22722 8.86543 1.24803 8.87233L1.622 8.99716L1.76562 8.6006C1.77355 8.57853 1.80214 8.57853 1.81015 8.6006Z"
    fill="#F5F5F5"/>
  <path
    d="M7.04013 7.53159L7.18376 7.92815L7.55773 7.80332C7.57854 7.79637 7.59631 7.82074 7.58553 7.84134L7.39062 8.21096L7.71331 8.45183C7.73126 8.46522 7.72488 8.49557 7.70337 8.49919L7.31674 8.56358L7.3452 8.98874C7.34679 9.01235 7.32101 9.02589 7.30507 9.00985L7.01787 8.72049L6.73067 9.00985C6.71468 9.02589 6.68895 9.0124 6.69054 8.98874L6.71899 8.56358L6.33237 8.49919C6.3109 8.49562 6.30453 8.46522 6.32243 8.45183L6.64512 8.21096L6.45021 7.84134C6.43939 7.8208 6.4572 7.79642 6.47801 7.80332L6.85198 7.92815L6.9956 7.53159C7.00353 7.50957 7.03217 7.50957 7.04013 7.53159Z"
    fill="#F5F5F5"/>
  <path
    d="M4.42516 4.96091L4.56879 5.35747L4.94275 5.23264C4.96357 5.22569 4.98133 5.25006 4.97055 5.27066L4.77564 5.64028L5.09833 5.88115C5.11628 5.89454 5.10991 5.92489 5.08839 5.92852L4.70177 5.9929L4.73022 6.41806C4.73182 6.44167 4.70603 6.45521 4.6901 6.43917L4.40289 6.14981L4.11569 6.43917C4.09975 6.45521 4.07397 6.44172 4.07557 6.41806L4.10402 5.9929L3.71739 5.92852C3.69593 5.92494 3.68955 5.89454 3.70746 5.88115L4.03014 5.64028L3.83524 5.27066C3.82441 5.25012 3.84222 5.22574 3.86304 5.23264L4.237 5.35747L4.38063 4.96091C4.3886 4.93889 4.41719 4.93889 4.42516 4.96091Z"
    fill="#F5F5F5"/>
  <path
    d="M4.42539 14.3017L4.56901 14.6983L4.94298 14.5735C4.96379 14.5665 4.98156 14.5909 4.97078 14.6114L4.77587 14.9811L5.09856 15.2219C5.11651 15.2353 5.11014 15.2657 5.08862 15.2693L4.702 15.3337L4.73045 15.7588C4.73205 15.7824 4.70626 15.796 4.69033 15.7799L4.40312 15.4906L4.11592 15.7799C4.09998 15.796 4.0742 15.7825 4.0758 15.7588L4.10425 15.3337L3.71762 15.2693C3.69615 15.2657 3.68978 15.2353 3.70769 15.2219L4.03037 14.9811L3.83547 14.6114C3.82464 14.5909 3.84245 14.5665 3.86326 14.5735L4.23723 14.6983L4.38086 14.3017C4.38883 14.2797 4.41742 14.2797 4.42539 14.3017Z"
    fill="#F5F5F5"/>
  <path
    d="M5.49544 8.95941L5.59565 9.28709L5.91258 9.2898C5.93714 9.29 5.94726 9.32414 5.92758 9.34003L5.67262 9.54528L5.7682 9.87459C5.77561 9.90014 5.74898 9.92124 5.72901 9.90566L5.4712 9.70475L5.21339 9.90566C5.19342 9.92124 5.16679 9.90014 5.1742 9.87459L5.26978 9.54528L5.01483 9.34003C4.99504 9.32414 5.00526 9.28995 5.02983 9.2898L5.34675 9.28709L5.44697 8.95941C5.45475 8.93402 5.4877 8.93402 5.49544 8.95941Z"
    fill="#F5F5F5"/>
  <path
    d="M10.5269 7.40582C10.4254 7.38001 10.3233 7.66472 10.4364 7.76333C10.5495 7.86195 10.7531 8.04687 10.6287 8.15785C10.5043 8.26883 10.4591 8.28114 10.4364 8.41675C10.4138 8.55236 10.4364 8.57704 10.3346 8.63866C10.2328 8.70028 9.99529 8.82357 10.0971 8.94692C10.1989 9.07021 10.3346 8.99628 10.4251 8.799C10.4251 8.799 11.0585 8.77437 11.0811 8.82362C11.1037 8.87298 11.1603 9.0579 11.296 9.00854C11.4317 8.95918 11.4317 8.95918 11.4317 8.95918C11.4317 8.95918 11.5109 8.92219 11.5674 8.99617C11.624 9.07016 11.7597 9.09479 11.9181 9.09479C12.0764 9.09479 12.2121 9.19341 12.2009 9.42768C12.1936 9.57775 12.1585 9.88974 12.1342 10.0946C12.1213 10.2043 12.1903 10.3052 12.2903 10.3234L12.5799 10.376C12.6561 10.3898 12.7269 10.3306 12.7337 10.2467C12.7473 10.0781 12.7671 9.83098 12.7664 9.82224C12.7599 9.73359 12.9247 9.27981 12.9134 9.07016C12.9021 8.86057 12.9021 8.86057 12.9021 8.86057C12.9021 8.86057 13.0717 8.83594 13.1396 8.71264C13.2075 8.58935 13.3545 8.28114 13.6486 8.17021L13.7278 7.96062C13.7278 7.96062 13.5016 7.84964 13.5468 7.7757C13.5921 7.70171 13.6146 7.50443 13.5807 7.34419C13.5468 7.18396 13.5354 6.962 13.5354 6.962C13.5354 6.962 13.4548 6.92485 13.4378 6.97595C13.4208 7.02704 13.4037 7.05484 13.3611 7.04559C13.3186 7.03629 13.2547 7.03164 13.2377 6.9899C13.2207 6.94815 13.1738 6.90636 13.1312 6.92955C13.0887 6.9528 13.0162 7.26372 12.9141 7.29622C12.9141 7.29622 12.9056 7.16163 12.8417 7.18948C12.7779 7.21732 12.7821 7.28227 12.7736 7.39831C12.7651 7.51434 12.0497 8.29872 11.4238 8.08989C11.4238 8.08989 11.3557 7.9414 11.2152 7.9553C11.0746 7.9692 10.9384 7.9646 10.8575 7.85781C10.7765 7.75097 10.6477 7.43653 10.5269 7.40582Z"
    fill="#73AF00"/>
  <path
    d="M15.1331 8.69553C15.3217 8.91401 17.3943 9.52926 19.4893 8.33305C21.5843 7.13685 22.8313 6.79251 22.8313 6.79251C22.8313 6.79251 22.8478 6.4844 23.1056 6.43913C23.3633 6.39381 23.2386 6.27603 23.1721 6.18539C23.1056 6.0948 22.7814 5.8501 22.3408 6.05852C22.3408 6.05852 21.8281 6.07967 21.7505 5.30639C21.673 4.53311 21.6397 3.74771 21.4624 3.40941C21.285 3.0711 19.8219 1.37957 19.6445 1.51242C19.4671 1.64532 20.0879 3.32479 20.6643 3.91689C20.6643 3.91689 20.7973 4.95603 20.631 5.00431C20.4647 5.05265 19.5448 4.13435 17.9042 3.91689C17.9042 3.91689 18.6026 4.95603 19.4561 5.391C20.3096 5.82598 20.5423 6.22473 20.5202 6.39386C20.498 6.56299 20.2098 7.37255 19.7332 7.74714C19.2566 8.12167 18.0594 9.13658 15.3437 8.60498C15.3437 8.60493 15.0445 8.59282 15.1331 8.69553Z"
    fill="#FFE15A"/>
</svg>
