<svg width="24" height="18" viewBox="0 0 24 18" fill="none" xmlns="http://www.w3.org/2000/svg">
  <rect x="0.25" y="0.25" width="23.5" height="16.6429" rx="1.75" fill="white" stroke="#F5F5F5" stroke-width="0.5"/>
  <mask id="mask0" mask-type="alpha" maskUnits="userSpaceOnUse" x="0" y="0" width="24" height="18">
    <rect x="0.25" y="0.25" width="23.5" height="16.6429" rx="1.75" fill="white" stroke="white" stroke-width="0.5"/>
  </mask>
  <g mask="url(#mask0)">
    <path fill-rule="evenodd" clip-rule="evenodd"
          d="M17.1428 2.85713C17.454 2.70152 17.7699 3.05934 17.5769 3.34886L17.2004 3.91353C17.1624 3.97061 17.1134 4.01958 17.0563 4.05763L15.4834 5.10623C15.4469 5.13058 15.4129 5.15848 15.3818 5.18953L15.3285 5.24287C15.0681 5.50322 15.0681 5.92533 15.3285 6.18568L15.5285 6.38573C15.7889 6.64608 15.7889 7.06819 15.5285 7.32854L15.1968 7.66022C14.9939 7.86313 14.684 7.91343 14.4273 7.7851L14.3105 7.72671C13.9812 7.56205 13.5807 7.69553 13.4161 8.02485L13.2663 8.32443C13.1872 8.48258 13.0486 8.60283 12.8808 8.65874L11.5311 9.10864C11.4632 9.1313 11.392 9.14285 11.3203 9.14285H10.6977C10.4452 9.14285 10.2143 9.28552 10.1014 9.51137L10.0124 9.68942C9.8477 10.0187 9.44725 10.1522 9.11793 9.98756L7.52527 9.19123C7.46118 9.15919 7.40267 9.11702 7.352 9.06635L6.48091 8.19525C6.35588 8.07023 6.28564 7.90066 6.28564 7.72385V7.2612C6.28564 7.03804 6.46655 6.85713 6.68971 6.85713V6.85713C6.79687 6.85713 6.89964 6.81456 6.97542 6.73879L7.80467 5.90954C7.92969 5.78451 8.09926 5.71428 8.27607 5.71428H8.66228C8.94923 5.71428 9.20399 5.53066 9.29474 5.25843L9.52811 4.55831C9.63443 4.23935 9.96162 4.04947 10.2913 4.11541L12.4244 4.54202C12.5212 4.56138 12.621 4.559 12.7168 4.53506L14.7861 4.01774C14.8333 4.00594 14.879 3.98902 14.9225 3.96726L15.9999 3.42856L17.1428 2.85713V2.85713Z"
          fill="#E7832C"/>
    <path fill-rule="evenodd" clip-rule="evenodd"
          d="M11.9999 13.7143C12.3155 13.7143 12.5714 13.4584 12.5714 13.1428C12.5714 12.8272 12.3155 12.5714 11.9999 12.5714C11.6843 12.5714 11.4285 12.8272 11.4285 13.1428C11.4285 13.4584 11.6843 13.7143 11.9999 13.7143Z"
          fill="#445128"/>
    <path opacity="0.75" d="M13.7143 12.5714C13.7143 12.5714 15.4286 12 16 10.8571" stroke="#445128"
          stroke-width="1.33333" stroke-linecap="round"/>
    <path opacity="0.75" d="M10.2857 12.5714C10.2857 12.5714 8.57144 12 8.00001 10.8571" stroke="#445128"
          stroke-width="1.33333" stroke-linecap="round"/>
  </g>
</svg>
