<svg width="24" height="18" viewBox="0 0 24 18" fill="none" xmlns="http://www.w3.org/2000/svg">
  <rect width="24" height="17.1429" rx="2" fill="white"/>
  <mask id="mask0" mask-type="alpha" maskUnits="userSpaceOnUse" x="0" y="0" width="24" height="18">
    <rect width="24" height="17.1429" rx="2" fill="white"/>
  </mask>
  <g mask="url(#mask0)">
    <path fill-rule="evenodd" clip-rule="evenodd" d="M0 6.85714H24V0H0V6.85714Z" fill="#108753"/>
    <path fill-rule="evenodd" clip-rule="evenodd" d="M0 17.1428H24V10.2857H0V17.1428Z" fill="#108753"/>
    <path fill-rule="evenodd" clip-rule="evenodd"
          d="M13.7143 17.1429H10.2857V10.2857H0V6.85714H10.2857V0H13.7143V6.85714H24V10.2857H13.7143V17.1429Z"
          fill="white"/>
    <path fill-rule="evenodd" clip-rule="evenodd"
          d="M12.5715 17.1429H11.4286V9.14287H0V8.00001H11.4286V0H12.5715V8.00001H24V9.14287H12.5715V17.1429Z"
          fill="#262626"/>
    <path fill-rule="evenodd" clip-rule="evenodd"
          d="M11.4286 17.1429H10.2857V8H0V6.85714H10.2857V0H11.4286V6.85714H24V8H11.4286V17.1429Z" fill="#FCD449"/>
    <path fill-rule="evenodd" clip-rule="evenodd"
          d="M12 12.5714C14.2092 12.5714 16 10.7806 16 8.57144C16 6.3623 14.2092 4.57144 12 4.57144C9.79089 4.57144 8.00003 6.3623 8.00003 8.57144C8.00003 10.7806 9.79089 12.5714 12 12.5714Z"
          fill="url(#paint0_linear)"/>
    <path fill-rule="evenodd" clip-rule="evenodd"
          d="M12 11.4285C13.5779 11.4285 14.8571 10.1494 14.8571 8.57141C14.8571 6.99345 13.5779 5.71426 12 5.71426C10.422 5.71426 9.14282 6.99345 9.14282 8.57141C9.14282 10.1494 10.422 11.4285 12 11.4285Z"
          stroke="#0E673F" stroke-width="1.33333" stroke-linecap="round" stroke-dasharray="0.67 2.67"/>
    <path fill-rule="evenodd" clip-rule="evenodd"
          d="M12 9.71427C12.6312 9.71427 12.5714 9.2026 12.5714 8.57142C12.5714 7.94023 12.6312 7.42856 12 7.42856C11.3688 7.42856 11.4285 7.94023 11.4285 8.57142C11.4285 9.2026 11.3688 9.71427 12 9.71427Z"
          fill="#0E673F"/>
  </g>
  <defs>
    <linearGradient id="paint0_linear" x1="8.00003" y1="4.57144" x2="8.00003" y2="12.5714"
                    gradientUnits="userSpaceOnUse">
      <stop stop-color="#E02C42"/>
      <stop offset="1" stop-color="#D22036"/>
    </linearGradient>
  </defs>
</svg>
