<svg width="24" height="18" viewBox="0 0 24 18" fill="none" xmlns="http://www.w3.org/2000/svg">
  <rect x="0.25" y="0.25" width="23.5" height="16.6429" rx="1.75" fill="white" stroke="#F5F5F5" stroke-width="0.5"/>
  <mask id="mask0" mask-type="alpha" maskUnits="userSpaceOnUse" x="0" y="0" width="24" height="18">
    <rect x="0.25" y="0.25" width="23.5" height="16.6429" rx="1.75" fill="white" stroke="white" stroke-width="0.5"/>
  </mask>
  <g mask="url(#mask0)">
    <path fill-rule="evenodd" clip-rule="evenodd" d="M0 5.71429H24V0H0V5.71429Z" fill="#E41D33"/>
    <path fill-rule="evenodd" clip-rule="evenodd" d="M0 17.1429H24V11.4286H0V17.1429Z" fill="#262626"/>
    <path
      d="M10.559 8.14908L10.8432 8.7176L11.1492 8.16068L11.1492 8.16064L11.1492 8.16058L11.1493 8.16049L11.1493 8.16047L11.1502 8.15884L11.1546 8.151L11.1732 8.11846C11.1899 8.08982 11.2146 8.0482 11.246 7.99799C11.3091 7.89693 11.3972 7.764 11.4989 7.63271C11.6021 7.49946 11.7112 7.37855 11.8149 7.29397C11.927 7.20245 11.9876 7.19048 12 7.19048C12.0335 7.19048 12.1034 7.20965 12.2114 7.29601C12.3147 7.37866 12.4204 7.49713 12.519 7.62858C12.6161 7.75809 12.6984 7.88941 12.7567 7.98939C12.7856 8.03903 12.8082 8.08012 12.8233 8.1083C12.8309 8.12238 12.8365 8.13319 12.8401 8.14018L12.844 8.14771L12.8447 8.14908L12.8447 8.14918L12.8447 8.14919L12.8448 8.14926L12.8448 8.14934L13.1428 8.74536L13.441 8.14908L13.9203 7.19048L14.1904 7.19048C14.3745 7.19048 14.5238 7.33972 14.5238 7.52381V9.04004C14.5238 9.30627 14.2271 9.46507 14.0055 9.31739L13.3277 8.86551L13.2437 8.80953H13.1428H12.5714H12.2381V9.14286V9.71429C12.2381 9.84579 12.1315 9.95239 12 9.95239C11.8685 9.95239 11.7619 9.84579 11.7619 9.71429V9.14286V8.80953H11.4285H10.8571H10.7562L10.6722 8.86551L9.99439 9.31739C9.77287 9.46507 9.47616 9.30627 9.47616 9.04004V7.52381C9.47616 7.33972 9.62539 7.19048 9.80949 7.19048H10.0797L10.559 8.14908Z"
      fill="#F4B32E" fill-opacity="0.25" stroke="#C6A846" stroke-width="0.666667"/>
  </g>
</svg>
