<svg width="24" height="18" viewBox="0 0 24 18" fill="none" xmlns="http://www.w3.org/2000/svg">
  <rect width="24" height="17.1429" rx="2" fill="white"/>
  <mask id="mask0" mask-type="alpha" maskUnits="userSpaceOnUse" x="0" y="0" width="24" height="18">
    <rect width="24" height="17.1429" rx="2" fill="white"/>
  </mask>
  <g mask="url(#mask0)">
    <path fill-rule="evenodd" clip-rule="evenodd" d="M24 0V8.57143H0V0H24Z" fill="#29C53F"/>
    <path fill-rule="evenodd" clip-rule="evenodd" d="M24 8.57144V17.7143H0V8.57144H24Z" fill="#579DED"/>
    <path fill-rule="evenodd" clip-rule="evenodd" d="M0 17.1429L24 8.57143L0 0V17.1429Z" fill="#F42D56"/>
    <path
      d="M10.7619 8.57144C10.7619 10.4124 9.26951 11.9048 7.42856 11.9048C5.58761 11.9048 4.09523 10.4124 4.09523 8.57144C4.09523 6.73049 5.58761 5.23811 7.42856 5.23811C9.26951 5.23811 10.7619 6.73049 10.7619 8.57144Z"
      stroke="#FFC63C" stroke-width="1.33333"/>
    <path fill-rule="evenodd" clip-rule="evenodd"
          d="M6.85716 8C7.17276 8 7.42859 7.74417 7.42859 7.42858C7.42859 7.11298 7.17276 6.85715 6.85716 6.85715C6.54157 6.85715 6.28574 7.11298 6.28574 7.42858C6.28574 7.74417 6.54157 8 6.85716 8Z"
          fill="#FFC63C"/>
    <path fill-rule="evenodd" clip-rule="evenodd"
          d="M7.99996 8.57142C8.31555 8.57142 8.57139 8.31558 8.57139 7.99999C8.57139 7.6844 8.31555 7.42856 7.99996 7.42856C7.68437 7.42856 7.42853 7.6844 7.42853 7.99999C7.42853 8.31558 7.68437 8.57142 7.99996 8.57142Z"
          fill="#FFC63C"/>
    <path fill-rule="evenodd" clip-rule="evenodd"
          d="M7.42858 7.42859C7.74417 7.42859 8 7.17276 8 6.85716C8 6.54157 7.74417 6.28574 7.42858 6.28574C7.11298 6.28574 6.85715 6.54157 6.85715 6.85716C6.85715 7.17276 7.11298 7.42859 7.42858 7.42859Z"
          fill="#FFC63C"/>
    <path fill-rule="evenodd" clip-rule="evenodd"
          d="M6.85716 9.14286C7.17276 9.14286 7.42859 8.88702 7.42859 8.57143C7.42859 8.25584 7.17276 8 6.85716 8C6.54157 8 6.28574 8.25584 6.28574 8.57143C6.28574 8.88702 6.54157 9.14286 6.85716 9.14286Z"
          fill="#FFC63C"/>
    <path fill-rule="evenodd" clip-rule="evenodd"
          d="M7.99996 9.7143C8.31555 9.7143 8.57139 9.45846 8.57139 9.14287C8.57139 8.82728 8.31555 8.57144 7.99996 8.57144C7.68437 8.57144 7.42853 8.82728 7.42853 9.14287C7.42853 9.45846 7.68437 9.7143 7.99996 9.7143Z"
          fill="#FFC63C"/>
    <path fill-rule="evenodd" clip-rule="evenodd"
          d="M6.85716 10.2857C7.17276 10.2857 7.42859 10.0299 7.42859 9.71428C7.42859 9.39869 7.17276 9.14285 6.85716 9.14285C6.54157 9.14285 6.28574 9.39869 6.28574 9.71428C6.28574 10.0299 6.54157 10.2857 6.85716 10.2857Z"
          fill="#FFC63C"/>
    <path fill-rule="evenodd" clip-rule="evenodd"
          d="M7.99996 10.8572C8.31555 10.8572 8.57139 10.6013 8.57139 10.2857C8.57139 9.97013 8.31555 9.71429 7.99996 9.71429C7.68437 9.71429 7.42853 9.97013 7.42853 10.2857C7.42853 10.6013 7.68437 10.8572 7.99996 10.8572Z"
          fill="#FFC63C"/>
  </g>
</svg>
