<svg width="24" height="18" viewBox="0 0 24 18" fill="none" xmlns="http://www.w3.org/2000/svg">
  <rect width="24" height="17.1429" rx="2" fill="white"/>
  <mask id="mask0" mask-type="alpha" maskUnits="userSpaceOnUse" x="0" y="0" width="24" height="18">
    <rect width="24" height="17.1429" rx="2" fill="white"/>
  </mask>
  <g mask="url(#mask0)">
    <path fill-rule="evenodd" clip-rule="evenodd" d="M0 5.71429H24V0H0V5.71429Z" fill="#20AA46"/>
    <path fill-rule="evenodd" clip-rule="evenodd" d="M0 17.1429H24V11.4286H0V17.1429Z" fill="#E92F3B"/>
    <path fill-rule="evenodd" clip-rule="evenodd" d="M0 11.4285H24V5.71426H0V11.4285Z" fill="#FADF50"/>
    <path fill-rule="evenodd" clip-rule="evenodd"
          d="M12 12.5714C14.2092 12.5714 16 10.7806 16 8.57144C16 6.3623 14.2092 4.57144 12 4.57144C9.79089 4.57144 8.00003 6.3623 8.00003 8.57144C8.00003 10.7806 9.79089 12.5714 12 12.5714Z"
          fill="#205CCA"/>
    <path
      d="M12.1935 9.41427L12 9.27633L11.8065 9.41427L10.9375 10.0337L11.2581 9.01589L11.3295 8.78924L11.1386 8.64784L10.2809 8.01286L11.348 8.00325L11.5856 8.00111L11.6611 7.77579L12 6.76391L12.3388 7.77579L12.4143 8.00111L12.6519 8.00325L13.719 8.01286L12.8614 8.64784L12.6704 8.78924L12.7418 9.01589L13.0624 10.0337L12.1935 9.41427Z"
      stroke="#FFDB3D" stroke-width="0.666667"/>
  </g>
</svg>
