<svg width="24" height="18" viewBox="0 0 24 18" fill="none" xmlns="http://www.w3.org/2000/svg">
  <rect width="24" height="17.1429" rx="2" fill="white"/>
  <mask id="mask0" mask-type="alpha" maskUnits="userSpaceOnUse" x="0" y="0" width="24" height="18">
    <rect width="24" height="17.1429" rx="2" fill="white"/>
  </mask>
  <g mask="url(#mask0)">
    <rect width="24" height="17.1429" fill="#043CAE"/>
    <path fill-rule="evenodd" clip-rule="evenodd"
          d="M11.1918 3.66526L11.9999 3.42856L12.8081 3.66526L12.5714 2.85713L12.8081 2.04901L11.9999 2.2857L11.1918 2.04901L11.4285 2.85713L11.1918 3.66526ZM11.1918 15.0938L11.9999 14.8571L12.8081 15.0938L12.5714 14.2856L12.8081 13.4775L11.9999 13.7142L11.1918 13.4775L11.4285 14.2856L11.1918 15.0938ZM17.7142 9.14281L16.9061 9.37951L17.1428 8.57138L16.9061 7.76326L17.7142 7.99996L18.5223 7.76326L18.2856 8.57138L18.5223 9.37951L17.7142 9.14281ZM5.47757 9.37951L6.28569 9.14281L7.09381 9.37951L6.85712 8.57138L7.09381 7.76326L6.28569 7.99996L5.47757 7.76326L5.71426 8.57138L5.47757 9.37951ZM16.9487 6.28563L16.1406 6.52233L16.3773 5.71421L16.1406 4.90608L16.9487 5.14278L17.7568 4.90608L17.5201 5.71421L17.7568 6.52233L16.9487 6.28563ZM6.24316 12.2367L7.05128 12L7.8594 12.2367L7.62271 11.4286L7.8594 10.6204L7.05128 10.8571L6.24316 10.6204L6.47985 11.4286L6.24316 12.2367ZM14.8571 4.19415L14.049 4.43085L14.2857 3.62272L14.049 2.8146L14.8571 3.05129L15.6652 2.8146L15.4285 3.62272L15.6652 4.43085L14.8571 4.19415ZM8.33464 14.3283L9.14276 14.0916L9.95089 14.3283L9.71419 13.5202L9.95089 12.712L9.14276 12.9487L8.33464 12.712L8.57134 13.5202L8.33464 14.3283ZM16.9487 12L16.1406 12.2367L16.3773 11.4286L16.1406 10.6204L16.9487 10.8571L17.7568 10.6204L17.5201 11.4286L17.7568 12.2367L16.9487 12ZM6.24316 6.52233L7.05128 6.28563L7.8594 6.52233L7.62271 5.71421L7.8594 4.90608L7.05128 5.14278L6.24316 4.90608L6.47985 5.71421L6.24316 6.52233ZM14.8571 14.0916L14.049 14.3283L14.2857 13.5202L14.049 12.712L14.8571 12.9487L15.6652 12.712L15.4285 13.5202L15.6652 14.3283L14.8571 14.0916ZM8.33464 4.43085L9.14276 4.19415L9.95089 4.43085L9.71419 3.62272L9.95089 2.8146L9.14276 3.05129L8.33464 2.8146L8.57134 3.62272L8.33464 4.43085Z"
          fill="#FFD429"/>
  </g>
</svg>
