<svg width="24" height="18" viewBox="0 0 24 18" fill="none" xmlns="http://www.w3.org/2000/svg">
  <rect width="24" height="17.1429" rx="2" fill="white"/>
  <mask id="mask0" mask-type="alpha" maskUnits="userSpaceOnUse" x="0" y="0" width="24" height="18">
    <rect width="24" height="17.1429" rx="2" fill="white"/>
  </mask>
  <g mask="url(#mask0)">
    <rect width="24" height="17.1429" fill="#79CFF6"/>
    <rect width="10.2857" height="8" fill="url(#paint0_linear)"/>
    <path fill-rule="evenodd" clip-rule="evenodd"
          d="M14.8572 8.57144C14.8572 6.85716 14.8572 4.57144 14.8572 4.57144H20.5715C20.5715 4.57144 20.5715 6.85716 20.5715 8.57144C20.5715 11.4286 17.7143 12.5714 17.7143 12.5714C17.7143 12.5714 14.8572 11.4286 14.8572 8.57144Z"
          fill="white"/>
    <mask id="mask1" mask-type="alpha" maskUnits="userSpaceOnUse" x="14" y="4" width="7" height="9">
      <path fill-rule="evenodd" clip-rule="evenodd"
            d="M14.8572 8.57144C14.8572 6.85716 14.8572 4.57144 14.8572 4.57144H20.5715C20.5715 4.57144 20.5715 6.85716 20.5715 8.57144C20.5715 11.4286 17.7143 12.5714 17.7143 12.5714C17.7143 12.5714 14.8572 11.4286 14.8572 8.57144Z"
            fill="white"/>
    </mask>
    <g mask="url(#mask1)">
      <path fill-rule="evenodd" clip-rule="evenodd"
            d="M20 6.85716C20 7.17276 19.7441 7.42859 19.4285 7.42859C19.1129 7.42859 18.8571 7.17276 18.8571 6.85716C18.8571 6.54157 19.1129 6.28574 19.4285 6.28574C19.7441 6.28574 20 6.54157 20 6.85716ZM16.5714 6.85718C16.5714 7.17277 16.3156 7.42861 16 7.42861C15.6844 7.42861 15.4286 7.17277 15.4286 6.85718C15.4286 6.54159 15.6844 6.28575 16 6.28575C16.3156 6.28575 16.5714 6.54159 16.5714 6.85718Z"
            fill="#2A915C"/>
      <path fill-rule="evenodd" clip-rule="evenodd"
            d="M14.8572 4.57144H20.5715V5.7143H18.2857V8.00001H20.5715V9.14287H18.2857V12.5714H17.1429V9.14287H14.8572V8.00001H17.1429V5.7143H14.8572V4.57144Z"
            fill="#EB1D43"/>
    </g>
    <path
      d="M0 -0.333333H-0.901086L-0.21693 0.253086L3.66667 3.58188V4.39989L-0.193746 7.15733L-0.333333 7.25703V7.42857V8V8.60141L0.176666 8.28267L4.66703 5.47619H5.60746L9.47126 8.23604C9.55984 8.29932 9.66599 8.33333 9.77485 8.33333C10.2598 8.33333 10.4829 7.73003 10.1148 7.41445L6.61905 4.41812V3.60011L10.3399 0.942378C10.5151 0.817237 10.619 0.61519 10.619 0.399889V0V-0.601416L10.109 -0.282666L5.61869 2.52381H4.67825L0.765175 -0.271244L0.67825 -0.333333H0.571429H0Z"
      fill="#DB1E36" stroke="white" stroke-width="0.666667"/>
    <path fill-rule="evenodd" clip-rule="evenodd"
          d="M0 2.85714V5.14286H4V7.90476C4 8.27295 4.29848 8.57143 4.66667 8.57143H5.61905C5.98724 8.57143 6.28571 8.27295 6.28571 7.90476V5.14286H10.1905C10.5587 5.14286 10.8571 4.84438 10.8571 4.47619V3.52381C10.8571 3.15562 10.5587 2.85714 10.1905 2.85714H6.28571V0H4V2.85714H0Z"
          fill="url(#paint1_linear)"/>
    <path fill-rule="evenodd" clip-rule="evenodd"
          d="M0 3.42857H4.57143V2.85714V0H5.71429V2.85714V3.42857H10.2857V4.57143H5.71429V5.14286V8H4.57143V5.14286V4.57143H0V3.42857Z"
          fill="#DB1E36"/>
  </g>
  <defs>
    <linearGradient id="paint0_linear" x1="0" y1="0" x2="0" y2="8" gradientUnits="userSpaceOnUse">
      <stop stop-color="#042C90"/>
      <stop offset="1" stop-color="#00247E"/>
    </linearGradient>
    <linearGradient id="paint1_linear" x1="0" y1="0" x2="0" y2="8.57143" gradientUnits="userSpaceOnUse">
      <stop stop-color="white"/>
      <stop offset="1" stop-color="#F0F0F0"/>
    </linearGradient>
  </defs>
</svg>
