<svg width="24" height="18" viewBox="0 0 24 18" fill="none" xmlns="http://www.w3.org/2000/svg">
  <rect width="24" height="17.1429" rx="2" fill="white"/>
  <mask id="mask0" mask-type="alpha" maskUnits="userSpaceOnUse" x="0" y="0" width="24" height="18">
    <rect width="24" height="17.1429" rx="2" fill="white"/>
  </mask>
  <g mask="url(#mask0)">
    <rect width="24" height="17.1429" fill="#07319C"/>
    <path fill-rule="evenodd" clip-rule="evenodd"
          d="M14.8572 8.57144C14.8572 7.70548 14.8572 6.69372 14.8572 5.90442C14.8572 5.16804 15.4541 4.57144 16.1905 4.57144H19.2381C19.9745 4.57144 20.5715 5.16804 20.5715 5.90442C20.5715 6.69372 20.5715 7.70549 20.5715 8.57144C20.5715 11.4286 17.7143 12.5714 17.7143 12.5714C17.7143 12.5714 14.8572 11.4286 14.8572 8.57144Z"
          fill="#0072C4"/>
    <mask id="mask1" mask-type="alpha" maskUnits="userSpaceOnUse" x="14" y="4" width="7" height="9">
      <path fill-rule="evenodd" clip-rule="evenodd"
            d="M14.8572 8.57144C14.8572 7.70548 14.8572 6.69372 14.8572 5.90442C14.8572 5.16804 15.4541 4.57144 16.1905 4.57144H19.2381C19.9745 4.57144 20.5715 5.16804 20.5715 5.90442C20.5715 6.69372 20.5715 7.70549 20.5715 8.57144C20.5715 11.4286 17.7143 12.5714 17.7143 12.5714C17.7143 12.5714 14.8572 11.4286 14.8572 8.57144Z"
            fill="white"/>
    </mask>
    <g mask="url(#mask1)">
      <path fill-rule="evenodd" clip-rule="evenodd"
            d="M16.1736 7.94375C15.588 8.53524 16.7357 8.46022 16.7357 8.46022L17.5531 8.19851C17.5531 8.19851 17.9206 8.24297 18.1686 8.31775C18.3329 8.36728 18.7902 8.57144 18.7902 8.57144C18.7902 8.57144 19.7559 8.37864 19.4164 7.94375C19.0768 7.50886 16.7592 7.35227 16.1736 7.94375Z"
            fill="#005121"/>
      <path fill-rule="evenodd" clip-rule="evenodd"
            d="M18.6085 7.32931C18.632 7.32398 18.6869 7.32517 18.7073 7.3501C18.7394 7.38906 18.8052 7.37611 18.8374 7.41366C18.8694 7.45132 18.9066 7.48604 18.9066 7.53959C18.9066 7.59315 18.9003 7.72593 18.9015 7.7551C18.9031 7.80006 18.9109 7.80702 18.9571 7.80583C19.0128 7.80441 19.0898 7.80006 19.0922 7.70025C19.0939 7.6307 19.0247 7.58727 19.0045 7.33987C19.0348 7.31385 19.0619 7.29067 19.0517 7.25606C19.0415 7.22134 19.1091 7.20392 19.1024 7.15178C19.0955 7.09976 19.1698 7.06787 19.1394 7.01007C19.1091 6.95217 19.1765 6.94934 19.1496 6.90297C19.1226 6.85671 19.1934 6.81611 19.1631 6.77573C19.1327 6.73513 19.2036 6.69758 19.1665 6.64838C19.1293 6.59919 19.1867 6.57023 19.1496 6.53257C19.1732 6.49502 19.1529 6.38792 19.0786 6.32719C19.0045 6.26634 18.8998 6.23456 18.839 6.21138C18.7259 6.16827 18.5149 6.18819 18.3664 6.20561C18.2178 6.22291 17.941 6.24033 17.8565 6.22879C17.7722 6.21725 17.5731 6.20561 17.416 6.23162C17.3623 6.24055 17.3012 6.22444 17.2692 6.19407C17.2436 6.1698 17.2287 6.17241 17.2051 6.17383C17.1815 6.17524 17.1679 6.16795 17.1561 6.139C17.1353 6.08806 17.0887 6.1231 17.0667 6.05943C17.052 6.01687 16.9754 6.05366 16.9519 6.01753C16.9281 5.98139 16.8996 5.97704 16.8353 5.98139C16.832 5.95962 16.7966 5.94373 16.7645 5.9495C16.7695 5.91336 16.7341 5.88441 16.6751 5.88583C16.6818 5.84098 16.5991 5.80626 16.5568 5.8338C16.5299 5.80049 16.4758 5.80768 16.4624 5.8338C16.4337 5.80049 16.3425 5.81061 16.3205 5.84675C16.2818 5.82509 16.2064 5.87832 16.2126 5.96256C16.2142 5.98574 16.2158 6.0098 16.177 6.01753C16.1045 6.032 16.0624 6.11298 15.9998 6.12452C15.9374 6.13617 15.8749 6.15641 15.8631 6.19113C15.8513 6.22585 15.8733 6.2621 15.8497 6.2794C15.826 6.29682 15.8648 6.31271 15.8766 6.32131C15.8884 6.33002 15.9069 6.34449 15.9104 6.36474C15.9152 6.39347 15.9626 6.40207 16.0117 6.37051C16.0319 6.35755 16.0673 6.39663 16.1247 6.36909C16.1821 6.34166 16.2636 6.35614 16.2497 6.40098C16.2429 6.42264 16.258 6.44583 16.2767 6.46749C16.2953 6.48915 16.3231 6.55456 16.3071 6.59189C16.2834 6.64686 16.3307 6.67734 16.3189 6.72642C16.3071 6.77573 16.3256 6.82057 16.3003 6.88708C16.2749 6.95358 16.2746 7.03685 16.3121 7.06068C16.3645 7.09399 16.3328 7.15995 16.3779 7.18803C16.415 7.2111 16.3932 7.26759 16.4624 7.2849C16.5316 7.30232 16.4911 7.34857 16.5636 7.3587C16.6362 7.36882 16.6615 7.42095 16.7374 7.40931C16.7934 7.40082 16.8229 7.41442 16.8555 7.42727C16.8622 7.47364 16.8473 7.64376 16.8438 7.68719C16.8408 7.72561 16.8202 7.78689 16.8202 7.82466C16.8202 7.84773 16.8674 7.8535 16.9215 7.8535C16.9754 7.8535 16.9991 7.83184 16.9855 7.7711C16.9721 7.71026 16.9688 7.56212 16.9722 7.4695C17.0191 7.49203 17.0636 7.52359 17.0616 7.55842C17.0582 7.61481 17.0591 7.71603 17.0497 7.76817C17.0431 7.80583 17.0531 7.86515 17.0565 7.90422C17.06 7.91859 17.151 7.91717 17.1882 7.90422C17.2253 7.89116 17.2253 7.85644 17.2219 7.69872C17.2202 7.62068 17.1374 7.5409 17.2422 7.50193C17.2928 7.4831 17.3637 7.43968 17.3907 7.39929C17.4177 7.3587 17.4768 7.37459 17.519 7.39494C17.5612 7.41519 17.6287 7.4461 17.671 7.43249C17.725 7.41519 17.7824 7.45851 17.8296 7.43249C17.8768 7.40648 17.9377 7.45132 17.9764 7.41954C18.0153 7.38765 18.0828 7.41802 18.1115 7.38765C18.1402 7.35728 18.2583 7.40506 18.3006 7.36457C18.3427 7.32398 18.4001 7.37611 18.439 7.34574C18.4492 7.33769 18.4612 7.33595 18.4744 7.33693C18.4729 7.40539 18.4601 7.51434 18.4575 7.5483C18.4545 7.58683 18.4339 7.648 18.4339 7.68566C18.4339 7.70885 18.4812 7.71461 18.5351 7.71461C18.5892 7.71461 18.6128 7.69295 18.5994 7.63222C18.5858 7.57149 18.6052 7.42204 18.6085 7.32931"
            fill="#A3A3A3"/>
      <path fill-rule="evenodd" clip-rule="evenodd"
            d="M15.8771 6.27428C15.8997 6.25784 15.8787 6.22366 15.89 6.19079C15.9013 6.15803 15.9611 6.13887 16.021 6.12799C16.0808 6.117 16.1211 6.04048 16.1907 6.02677C16.2278 6.01947 16.2263 5.99672 16.2246 5.97485C16.2188 5.89528 16.2909 5.845 16.3281 5.86557C16.3491 5.83128 16.4364 5.8217 16.4639 5.85316C16.4768 5.82856 16.5285 5.8217 16.5544 5.85316C16.5948 5.82726 16.674 5.86002 16.6676 5.90236C16.7242 5.90105 16.7581 5.92837 16.7533 5.96255C16.784 5.95711 16.8179 5.97213 16.8212 5.99259C16.816 6.02622 16.8928 6.03482 16.8573 6.05659C16.8262 6.07564 16.7966 6.06813 16.7611 6.04211C16.7257 6.01599 16.6075 6.03917 16.5906 6.05224C16.5737 6.0653 16.5552 6.07107 16.5416 6.06094C16.5281 6.05082 16.4961 6.03482 16.4809 6.03634C16.4657 6.03776 16.4337 6.03776 16.415 6.00739C16.3964 5.97702 16.3492 5.97267 16.3408 5.98421C16.3324 5.99575 16.3594 6.03776 16.3864 6.05365C16.4133 6.06965 16.3999 6.10002 16.432 6.11732C16.453 6.12875 16.4337 6.16794 16.4218 6.19112C16.41 6.2143 16.3644 6.20701 16.361 6.1897C16.3577 6.1724 16.3458 6.16075 16.3189 6.18677C16.2918 6.21289 16.2345 6.2056 16.221 6.19841C16.2075 6.19112 16.1703 6.17817 16.145 6.18535C16.1196 6.19264 16.1568 6.20418 16.1603 6.2143C16.1636 6.22443 16.1196 6.22878 16.0944 6.22878C16.0691 6.22878 16.0606 6.24315 16.0758 6.24609C16.0911 6.24902 16.15 6.25196 16.1737 6.24032C16.1973 6.22878 16.2698 6.24032 16.2767 6.26209C16.2834 6.28375 16.2345 6.29245 16.2057 6.28951C16.1633 6.28527 16.1011 6.30834 16.0707 6.31553C16.0404 6.32282 15.9594 6.30399 15.9272 6.3127C15.8952 6.3213 15.8636 6.28723 15.8771 6.27428"
            fill="#A3A3A3"/>
      <path fill-rule="evenodd" clip-rule="evenodd"
            d="M16.4201 6.4516C16.3898 6.46314 16.3999 6.49786 16.427 6.51234C16.454 6.52681 16.5147 6.53258 16.5536 6.5254C16.5923 6.51811 16.6008 6.52975 16.5756 6.54423C16.5502 6.5586 16.6143 6.56154 16.6092 6.58472C16.6043 6.60779 16.6328 6.60344 16.6599 6.60203C16.6869 6.60061 16.7224 6.5832 16.7527 6.5673C16.7831 6.55141 16.805 6.56295 16.7763 6.59049C16.7478 6.61792 16.6515 6.65275 16.5756 6.64839C16.4995 6.64404 16.459 6.66135 16.4759 6.68594C16.4928 6.71054 16.5738 6.7149 16.6159 6.70184C16.6582 6.68888 16.6515 6.71207 16.6194 6.72785C16.5872 6.74385 16.5417 6.74526 16.5029 6.74385C16.4641 6.74243 16.4303 6.77574 16.481 6.79446C16.5316 6.81329 16.5992 6.80175 16.6245 6.81764C16.6498 6.83354 16.7274 6.80894 16.7291 6.83647C16.7307 6.8639 16.7071 6.87403 16.6615 6.8712C16.6159 6.86826 16.6294 6.88883 16.6633 6.90004C16.6937 6.91027 16.7478 6.91027 16.7763 6.90733C16.805 6.9045 16.7966 6.93335 16.7679 6.94347C16.7392 6.95359 16.6464 6.96807 16.6008 6.96665C16.5552 6.96524 16.5771 6.99419 16.6363 6.99419C16.8168 6.99419 16.8777 6.90875 16.9232 6.84943C16.9456 6.82037 16.989 6.80458 16.9992 6.822C17.0093 6.8393 17.011 6.84366 16.9908 6.85813C16.9705 6.87261 16.9754 6.88132 17.0126 6.88273C17.0497 6.88415 17.1038 6.87403 17.1359 6.86543C17.1679 6.85672 17.2624 6.91147 17.1848 6.9131C17.0481 6.91604 16.8793 6.96524 16.8237 6.98548C16.7679 7.00573 16.675 7.04382 16.6177 7.04186C16.5756 7.04045 16.5585 7.05634 16.5756 7.07517C16.5923 7.094 16.6464 7.094 16.6768 7.08529C16.7071 7.07658 16.7138 7.08529 16.6937 7.1026C16.6735 7.12001 16.6228 7.1272 16.5872 7.13307C16.5519 7.13884 16.5344 7.16148 16.562 7.17062C16.6143 7.18804 16.5671 7.20393 16.6043 7.21264C16.6413 7.22135 16.6008 7.24877 16.6413 7.25748C16.6818 7.26619 16.7055 7.26184 16.7358 7.24159C16.7663 7.22135 16.7831 7.2097 16.8152 7.21264C16.8473 7.21558 16.8693 7.20099 16.8878 7.17933C16.9064 7.15767 16.9688 7.1186 16.989 7.13743C17.0093 7.15626 17.0515 7.12143 17.06 7.14026C17.0684 7.15909 17.1038 7.14755 17.1123 7.17356C17.1216 7.20252 17.1612 7.20828 17.1883 7.19816C17.2152 7.18804 17.2372 7.16344 17.2372 7.1272C17.2372 7.09106 17.2473 7.07658 17.2575 7.11566C17.2675 7.15473 17.3047 7.16627 17.3232 7.14755C17.3418 7.12872 17.3485 7.06363 17.3351 7.03326C17.3216 7.00279 17.3198 6.96371 17.3334 6.95653C17.3469 6.94935 17.379 7.01585 17.3925 7.0448C17.406 7.07375 17.4413 7.06505 17.4431 7.03609C17.4448 7.00714 17.4769 6.99267 17.5005 7.01443C17.5241 7.03609 17.5107 7.10847 17.5174 7.1432C17.5241 7.17792 17.5899 7.13449 17.5968 7.14603C17.6035 7.15767 17.6288 7.1605 17.6389 7.1359C17.6491 7.1113 17.6727 7.08964 17.6862 7.10412C17.6998 7.1186 17.7199 7.1432 17.7283 7.17062C17.7368 7.19816 17.7672 7.21264 17.7857 7.18369C17.8043 7.15473 17.8178 7.09835 17.8111 7.05917C17.8043 7.0202 17.8162 6.9956 17.833 7.01585C17.8498 7.03609 17.8482 7.09106 17.8498 7.1359C17.8516 7.18075 17.9072 7.1765 17.9072 7.10989C17.9072 7.07952 17.9241 7.07375 17.9292 7.09106C17.9343 7.10847 17.9343 7.13743 17.9394 7.15038C17.9518 7.18249 17.9951 7.16486 18.0001 7.1432C18.0052 7.12143 17.9968 7.04328 17.9866 7.00866C17.9765 6.97384 17.9968 6.94935 18.0137 6.96807C18.0305 6.9869 18.0338 7.03609 18.0373 7.09106C18.0406 7.14603 18.076 7.14896 18.0947 7.13307C18.1132 7.11707 18.1132 7.07081 18.1048 7.03751C18.0963 7.00431 18.1234 7.00431 18.1352 7.02456C18.147 7.0448 18.1673 7.03174 18.1639 7.01585C18.1606 6.99996 18.1773 6.98548 18.1942 7.00714C18.2111 7.02891 18.206 7.07811 18.1977 7.11707C18.1892 7.15626 18.2398 7.15179 18.2634 7.1186C18.2871 7.08529 18.2752 6.99419 18.2551 6.96524C18.2347 6.93628 18.2365 6.89862 18.2482 6.86543C18.2601 6.83212 18.2821 6.8306 18.2838 6.84518C18.2854 6.85955 18.2956 6.88415 18.3141 6.90298C18.3326 6.92181 18.3428 6.92475 18.3461 6.89569C18.3495 6.86684 18.3664 6.87403 18.3732 6.89569C18.38 6.91745 18.3917 6.93476 18.4086 6.91604C18.4255 6.89721 18.4474 6.91169 18.434 6.94064C18.4204 6.96959 18.4204 6.9956 18.4305 7.02456C18.4407 7.05351 18.4761 7.04915 18.4796 7.01585C18.4865 6.94662 18.4965 6.99266 18.5048 7.02303C18.5132 7.05351 18.5386 7.05198 18.5437 7.03468C18.5488 7.01726 18.5538 7.01302 18.5538 7.03174C18.5538 7.05057 18.5622 7.06646 18.5842 7.06646C18.6062 7.06646 18.6011 7.02891 18.6111 7.00573C18.6213 6.98254 18.6398 7.01443 18.6652 7.06788C18.6905 7.12143 18.709 7.07081 18.7682 7.19239C18.7923 7.24192 18.8272 7.19958 18.8256 7.18227C18.8238 7.16486 18.8289 7.15332 18.8576 7.15332C18.8863 7.15332 18.9099 7.14755 18.8999 7.12872C18.8897 7.10989 18.8965 7.07517 18.8948 7.03609C18.8932 6.99702 18.8981 6.97536 18.9032 6.99702C18.9083 7.01868 18.9252 7.04915 18.9521 7.06505C18.9791 7.08094 18.9977 7.03751 18.9757 7.01008C18.9538 6.98254 18.9235 6.91745 18.9252 6.86249C18.9264 6.822 18.9453 6.83495 18.9453 6.8639C18.9453 6.89286 18.9622 6.94499 18.9876 6.95653C19.0129 6.96807 19.0231 6.91452 19.0112 6.88709C18.9994 6.85955 18.9927 6.822 19.018 6.81471C19.0432 6.80752 19.0112 6.77715 18.9893 6.75539C18.9673 6.73373 18.9538 6.71207 18.9927 6.71348C19.0314 6.7149 18.9994 6.6903 18.9808 6.67441C18.9622 6.65852 18.9302 6.62662 18.9808 6.63098C19.0314 6.63533 19.0147 6.60932 18.9944 6.59484C18.974 6.58037 18.9622 6.55283 18.9977 6.55435C19.0332 6.55577 19.0551 6.53835 19.0518 6.5254C19.0388 6.47522 18.9538 6.41688 18.9015 6.37204C18.8492 6.3272 18.7648 6.28235 18.7192 6.27506C18.6736 6.26777 18.6719 6.29683 18.6838 6.31413C18.6956 6.33144 18.7192 6.34309 18.7226 6.32567C18.7259 6.30837 18.7613 6.3272 18.7782 6.35027C18.7951 6.37345 18.8525 6.40241 18.8881 6.42842C18.9235 6.45443 18.8407 6.44148 18.8002 6.40676C18.7771 6.38684 18.7799 6.41101 18.8104 6.43854C18.8407 6.46608 18.8018 6.47762 18.7698 6.45443C18.7377 6.43136 18.6551 6.36627 18.6027 6.32426C18.5504 6.28235 18.5419 6.29247 18.5403 6.3199C18.5386 6.34744 18.5572 6.36627 18.5909 6.38935C18.6247 6.41253 18.6669 6.44867 18.699 6.47326C18.731 6.49786 18.7041 6.51375 18.6838 6.49634C18.6634 6.47903 18.5944 6.43136 18.5538 6.39805C18.5132 6.36475 18.4761 6.34886 18.4509 6.35321C18.4255 6.35756 18.4272 6.38216 18.4576 6.40818C18.4879 6.43419 18.5252 6.48339 18.5252 6.51234C18.5252 6.54129 18.4981 6.56154 18.4845 6.50951C18.4711 6.45737 18.4069 6.39664 18.3597 6.35027C18.3125 6.30401 18.2651 6.2953 18.2297 6.29824C18.1942 6.30107 18.1959 6.33579 18.1959 6.36333C18.1959 6.39076 18.1723 6.37487 18.1706 6.35462C18.169 6.33438 18.1419 6.31707 18.1267 6.31849C18.1116 6.3199 18.1166 6.36192 18.1116 6.38075C18.1065 6.39947 18.0829 6.41688 18.0829 6.37345C18.0829 6.33003 18.0271 6.30837 18.0035 6.30684C17.9799 6.30543 17.9579 6.31413 17.9697 6.33296C17.9815 6.35169 17.9765 6.40241 17.9681 6.43136C17.9596 6.4602 17.9343 6.40959 17.9292 6.35604C17.9241 6.3026 17.8449 6.26494 17.7892 6.28083C17.7334 6.29683 17.7757 6.33144 17.7655 6.36475C17.7554 6.39805 17.7401 6.36769 17.7351 6.33296C17.7301 6.29824 17.7031 6.27647 17.666 6.28518C17.6288 6.29389 17.6035 6.3112 17.6052 6.33438C17.6068 6.35756 17.6068 6.37781 17.5984 6.41536C17.5899 6.45302 17.5748 6.43419 17.5765 6.40959C17.5782 6.38499 17.5697 6.3445 17.5612 6.32132C17.5528 6.29824 17.5392 6.3199 17.5427 6.34886C17.5461 6.37781 17.5376 6.44431 17.5241 6.48491C17.5107 6.5254 17.4904 6.52681 17.5005 6.47185C17.5107 6.41688 17.4853 6.33579 17.46 6.29824C17.4418 6.27136 17.401 6.26211 17.401 6.29966C17.401 6.33732 17.4128 6.36475 17.4431 6.39228C17.4735 6.41971 17.4498 6.48774 17.4195 6.52398C17.389 6.56012 17.3908 6.50798 17.401 6.46891C17.411 6.42984 17.3554 6.41688 17.3334 6.40959C17.3114 6.40241 17.357 6.36333 17.3672 6.3112C17.3721 6.28551 17.3654 6.26929 17.3452 6.26777C17.3249 6.26635 17.2709 6.31555 17.2473 6.35169C17.254 6.31413 17.2473 6.28083 17.227 6.28083C17.2068 6.28083 17.1848 6.31707 17.1697 6.34309C17.1545 6.3691 17.1392 6.35462 17.1545 6.3272C17.1697 6.29966 17.1932 6.22586 17.1629 6.20997C17.1325 6.19408 17.1055 6.25917 17.0735 6.24752C17.0553 6.24099 17.0802 6.19985 17.0904 6.18102C17.1004 6.16219 17.0802 6.14771 17.0346 6.18243C16.989 6.21726 16.9688 6.27364 16.9569 6.30837C16.9452 6.34309 16.8642 6.39947 16.8203 6.42984C16.7763 6.4602 16.7578 6.44867 16.7798 6.4356C16.8017 6.42265 16.8455 6.38216 16.8675 6.36627C16.8895 6.35027 16.8793 6.34091 16.8372 6.36834C16.795 6.39588 16.7182 6.44584 16.6396 6.46314C16.5935 6.47337 16.5872 6.46467 16.6328 6.4516C16.6784 6.43854 16.7831 6.37628 16.8085 6.34744C16.8243 6.32926 16.7831 6.3445 16.7629 6.34886C16.7427 6.35321 16.7258 6.34744 16.7663 6.33296C16.8067 6.31849 16.9351 6.2042 16.9621 6.16219C16.989 6.12028 16.9654 6.10428 16.9485 6.10581C16.9316 6.10722 16.908 6.11735 16.9131 6.10004C16.9182 6.08262 16.9064 6.05944 16.8844 6.06673C16.8624 6.07392 16.8642 6.11593 16.8557 6.13901C16.8473 6.16219 16.7999 6.19267 16.7696 6.19267C16.7392 6.19267 16.6971 6.19843 16.665 6.22009C16.6328 6.24175 16.6177 6.22151 16.6328 6.2042C16.6481 6.18679 16.6818 6.18243 16.7156 6.18102C16.7494 6.1796 16.7865 6.17525 16.8152 6.14771C16.8439 6.12028 16.8455 6.09852 16.8237 6.0971C16.8017 6.09569 16.7645 6.07109 16.7527 6.06096C16.6928 6.00948 16.5829 6.08121 16.54 6.12311C16.5164 6.1463 16.4354 6.21291 16.4101 6.23022C16.3847 6.24752 16.3949 6.27212 16.437 6.23892C16.4793 6.20562 16.4928 6.2288 16.454 6.2534C16.4151 6.278 16.3865 6.31413 16.3999 6.3272C16.4134 6.34015 16.4657 6.32426 16.4944 6.30837C16.5231 6.29247 16.5367 6.33144 16.4657 6.3445C16.4181 6.35332 16.4015 6.37008 16.4388 6.37204C16.4675 6.37345 16.5113 6.36192 16.5519 6.34167C16.5923 6.32132 16.6245 6.33296 16.5907 6.35321C16.5569 6.37345 16.4826 6.40099 16.4455 6.40099C16.4144 6.40099 16.4506 6.44007 16.4201 6.4516Z"
            fill="white"/>
      <path fill-rule="evenodd" clip-rule="evenodd"
            d="M16.6159 6.1282C16.6566 6.08591 16.692 6.0674 16.7291 6.0978C16.7627 6.12534 16.7663 6.13734 16.724 6.1282C16.6819 6.11905 16.6532 6.1282 16.6279 6.15551C16.6025 6.18294 16.5738 6.1722 16.6159 6.1282"
            fill="#A3A3A3"/>
      <path fill-rule="evenodd" clip-rule="evenodd"
            d="M15.9476 6.23559C15.978 6.20519 16.0269 6.20519 16.0488 6.17182C16.0708 6.13833 16.0944 6.15056 16.0674 6.18245C16.0405 6.21433 15.9882 6.2205 15.9662 6.24325C15.9442 6.26599 15.9324 6.25079 15.9476 6.23559"
            fill="#A3A3A3"/>
      <path fill-rule="evenodd" clip-rule="evenodd"
            d="M16.1366 6.11944C16.1549 6.11693 16.1906 6.0951 16.2126 6.06927C16.2345 6.04344 16.2818 6.0343 16.3103 6.0647C16.339 6.0951 16.3543 6.10573 16.3695 6.1119C16.3846 6.11796 16.3846 6.13773 16.361 6.14367C16.3374 6.14984 16.3054 6.15442 16.2885 6.14676C16.2716 6.13922 16.2462 6.13316 16.226 6.13773C16.2057 6.14219 16.1973 6.13316 16.2142 6.1255C16.2311 6.11796 16.2513 6.0951 16.2615 6.08596C16.2716 6.07693 16.2985 6.08447 16.2834 6.09362C16.2682 6.10276 16.2749 6.12242 16.2902 6.13007C16.3054 6.13773 16.3357 6.13773 16.3492 6.12402C16.329 6.10424 16.2952 6.07842 16.2818 6.07087C16.2682 6.06322 16.2564 6.06013 16.2395 6.07842C16.2226 6.0967 16.1821 6.1407 16.1434 6.13922C16.1045 6.13773 16.1147 6.12242 16.1366 6.11944"
            fill="#A3A3A3"/>
      <path fill-rule="evenodd" clip-rule="evenodd"
            d="M17.2033 6.39203C17.1884 6.41295 17.1746 6.43992 17.173 6.46118C17.1713 6.48243 17.1908 6.49695 17.1932 6.47032C17.1957 6.44369 17.1983 6.4278 17.2193 6.40803C17.2406 6.38826 17.2202 6.36849 17.2033 6.39203"
            fill="#A3A3A3"/>
      <path fill-rule="evenodd" clip-rule="evenodd"
            d="M16.9966 6.39154C17.0141 6.38445 17.0438 6.368 17.0581 6.3528C17.0725 6.33771 17.0818 6.34754 17.0674 6.36422C17.0531 6.38091 17.0202 6.40068 17.0049 6.40525C16.9898 6.40982 16.978 6.3992 16.9966 6.39154"
            fill="#A3A3A3"/>
      <path fill-rule="evenodd" clip-rule="evenodd"
            d="M17.0228 6.47606C16.9986 6.50523 16.9029 6.57456 16.8742 6.58751C16.8455 6.60058 16.8557 6.61941 16.8878 6.60928C16.8642 6.628 16.8118 6.65848 16.7781 6.66708C16.7443 6.67579 16.7375 6.7018 16.7881 6.68591C16.8388 6.67002 16.9097 6.628 16.9282 6.60928C16.9469 6.59045 16.9233 6.58175 16.952 6.5615C16.9807 6.54126 17.0337 6.50425 17.0413 6.48912C17.0532 6.46605 17.0397 6.45581 17.0228 6.47606"
            fill="#A3A3A3"/>
      <path fill-rule="evenodd" clip-rule="evenodd"
            d="M16.9182 6.71206C16.9544 6.69443 17.0219 6.63206 17.0414 6.59625C17.0532 6.5746 17.0768 6.57742 17.0582 6.61073C17.0397 6.64404 16.9705 6.70336 16.9469 6.71925C16.9233 6.73514 16.8793 6.73079 16.9182 6.71206"
            fill="#A3A3A3"/>
      <path fill-rule="evenodd" clip-rule="evenodd"
            d="M17.6861 6.36908C17.6762 6.38944 17.6743 6.43711 17.6778 6.46018C17.6811 6.48337 17.7014 6.50078 17.6979 6.46606C17.6946 6.43134 17.6946 6.39662 17.7063 6.3865C17.7183 6.37627 17.703 6.33436 17.6861 6.36908"
            fill="#A3A3A3"/>
      <path fill-rule="evenodd" clip-rule="evenodd"
            d="M17.8921 6.4544C17.9092 6.47019 17.9173 6.5442 17.9157 6.57163C17.914 6.59916 17.9427 6.59916 17.941 6.56009C17.9393 6.52102 17.9359 6.47182 17.9208 6.4458C17.9055 6.41968 17.8684 6.43274 17.8921 6.4544"
            fill="#A3A3A3"/>
      <path fill-rule="evenodd" clip-rule="evenodd"
            d="M18.0727 6.5022C18.0831 6.52114 18.0963 6.55717 18.0963 6.58318C18.0963 6.6093 18.1183 6.59766 18.1199 6.56729C18.1216 6.53692 18.1166 6.51091 18.1048 6.49067C18.093 6.47042 18.0575 6.47467 18.0727 6.5022"
            fill="#A3A3A3"/>
      <path fill-rule="evenodd" clip-rule="evenodd"
            d="M18.1842 6.4796C18.1749 6.45628 18.1605 6.43548 18.1503 6.43857C18.1402 6.44165 18.147 6.46291 18.1605 6.48565C18.1739 6.50851 18.1942 6.50543 18.1842 6.4796"
            fill="#A3A3A3"/>
      <path fill-rule="evenodd" clip-rule="evenodd"
            d="M17.4785 6.64108C17.4735 6.70171 17.4413 6.75537 17.4026 6.7742C17.3637 6.79303 17.3705 6.8234 17.4177 6.79303C17.4651 6.76266 17.5005 6.71053 17.5107 6.66427C17.5207 6.6179 17.482 6.60059 17.4785 6.64108"
            fill="#A3A3A3"/>
      <path fill-rule="evenodd" clip-rule="evenodd"
            d="M17.3941 6.61367C17.3739 6.63391 17.3621 6.67734 17.3621 6.71054C17.3621 6.74384 17.3755 6.71924 17.379 6.70041C17.3824 6.68158 17.389 6.65557 17.406 6.64686C17.4228 6.63815 17.4144 6.59342 17.3941 6.61367"
            fill="#A3A3A3"/>
      <path fill-rule="evenodd" clip-rule="evenodd"
            d="M18.8559 6.65557C18.8737 6.68485 18.8999 6.73231 18.9082 6.75974C18.9167 6.78727 18.8964 6.79446 18.8897 6.76986C18.8828 6.74526 18.8508 6.69029 18.839 6.67146C18.8272 6.65274 18.8356 6.62227 18.8559 6.65557"
            fill="#A3A3A3"/>
      <path
        d="M13.7143 8C13.7143 8 15.6582 8.57754 15.9863 8.57754C16.0785 8.57754 17.3377 8.28877 17.7152 8.28877C17.8564 8.28877 19.1597 8.48659 19.5 8.57754C19.8403 8.6685 21.7161 8 21.7161 8"
        stroke="white" stroke-width="0.666667" stroke-linecap="round" stroke-linejoin="round"/>
      <path
        d="M13.7143 9.14286C13.7143 9.14286 15.6582 9.7204 15.9863 9.7204C16.0785 9.7204 17.3377 9.43163 17.7152 9.43163C17.8564 9.43163 19.1597 9.62944 19.5 9.7204C19.8403 9.81136 21.7161 9.14286 21.7161 9.14286"
        stroke="white" stroke-width="0.666667" stroke-linecap="round" stroke-linejoin="round"/>
      <path
        d="M13.7143 11.4286C13.7143 11.4286 15.6582 12.0061 15.9863 12.0061C16.0785 12.0061 16.8291 11.5388 17.7152 11.5388C18.6012 11.5388 19.1597 11.9151 19.5 12.0061C19.8403 12.0971 21.7161 11.4286 21.7161 11.4286L27.8681 12.4125"
        stroke="white" stroke-width="1.33333" stroke-linecap="round" stroke-linejoin="round"/>
    </g>
    <path
      d="M15.1905 8.57144V8.48984V8.44874V8.40746V8.32435V8.24059V8.15625V8.11388V8.07139V8.02879V7.98608V7.94328V7.90039V7.85742V7.81438V7.80361V7.79823V7.79284V7.77128V7.72813V7.68493V7.64169V7.59843V7.55515V7.51185V7.4902V7.48479V7.47938V7.47397V7.46856V7.46314V7.45773V7.45232V7.44691V7.4415V7.43609V7.43067V7.42526V7.41985V7.41444V7.40903V7.40362V7.39821V7.3928V7.38739V7.38199V7.37658V7.37117V7.36576V7.36036V7.35495V7.34954V7.34414V7.33873V7.33333V7.32792V7.32252V7.31711V7.31171V7.30631V7.30091V7.29551V7.29011V7.28471V7.27931V7.27391V7.26851V7.26311V7.25772V7.25232V7.24693V7.24153V7.23614V7.23075V7.22535V7.21996V7.21457V7.20918V7.20379V7.19841V7.19302V7.18764V7.18225V7.17687V7.17148V7.1661V7.16072V7.15534V7.14996V7.14459V7.13921V7.13383V7.12846V7.12309V7.11771V7.11234V7.10697V7.1016V7.09624V7.09087V7.08551V7.08014V7.07478V7.06942V7.06406V7.0587V7.05334V7.04799V7.04263V7.03728V7.03193V7.02658V7.02123V7.01588V7.01054V7.00519V6.99985V6.99451V6.98917V6.98383V6.97849V6.97316V6.96782V6.96249V6.95716V6.95183V6.94651V6.94118V6.93586V6.93053V6.92521V6.9199V6.91458V6.90927V6.90395V6.89864V6.89333V6.88802V6.88272V6.87741V6.87211V6.86681V6.86151V6.85622V6.85092V6.84563V6.84034V6.83505V6.82977V6.82448V6.8192V6.81392V6.80864V6.80337V6.79809V6.79282V6.78755V6.78229V6.77702V6.77176V6.76124V6.74023V6.69832V6.65657V6.65137V6.64616V6.63576V6.61499V6.57358V6.53235V6.49131V6.45048V6.36943V6.28929V6.21011V6.13197V6.05493V5.97905V5.90442C15.1905 5.35225 15.6381 4.90477 16.1905 4.90477H19.2381C19.7905 4.90477 20.2381 5.35225 20.2381 5.90442V5.90904V5.91368V5.91831V5.92296V5.9276V5.93226V5.93691V5.94158V5.94624V5.95092V5.95559V5.96028V5.96496V5.96965V5.97435V5.97905V5.98376V5.98847V5.99319V5.99791V6.00263V6.00736V6.0121V6.01684V6.02158V6.02633V6.03109V6.03585V6.04061V6.04538V6.05015V6.05493V6.05971V6.0645V6.06929V6.07408V6.07888V6.08368V6.08849V6.09331V6.09812V6.10295V6.10777V6.1126V6.11744V6.12228V6.12712V6.13197V6.13682V6.14168V6.14654V6.1514V6.15627V6.16115V6.16603V6.17091V6.17579V6.18068V6.18558V6.19048V6.19538V6.20029V6.2052V6.21011V6.21503V6.21996V6.22488V6.22981V6.23475V6.23969V6.24463V6.24958V6.25453V6.25948V6.26444V6.2694V6.27437V6.27934V6.28431V6.28929V6.29427V6.29926V6.30425V6.30924V6.31423V6.31923V6.32424V6.32925V6.33426V6.33927V6.34429V6.34931V6.35434V6.35937V6.3644V6.36943V6.37447V6.37952V6.38456V6.38961V6.39467V6.39972V6.40478V6.40985V6.41491V6.41998V6.42506V6.43014V6.43522V6.4403V6.44539V6.45048V6.45557V6.46067V6.46577V6.47087V6.47598V6.48109V6.4862V6.49131V6.49643V6.50155V6.50668V6.51181V6.51694V6.52207V6.52721V6.53235V6.53749V6.54264V6.54779V6.55294V6.5581V6.56325V6.56841V6.57358V6.57874V6.58391V6.58909V6.59426V6.59944V6.60462V6.6098V6.61499V6.62018V6.62537V6.63056V6.63576V6.64096V6.64616V6.65137V6.65657V6.66178V6.667V6.67221V6.67743V6.68265V6.68787V6.6931V6.69832V6.70355V6.70879V6.71402V6.71926V6.7245V6.72974V6.73498V6.74023V6.74548V6.75073V6.75599V6.76124V6.7665V6.77176V6.77702V6.78229V6.78755V6.79282V6.79809V6.80337V6.80864V6.81392V6.8192V6.82448V6.82977V6.83505V6.84034V6.84563V6.85092V6.85622V6.86151V6.86681V6.87211V6.87741V6.88272V6.88802V6.89333V6.89864V6.90395V6.90927V6.91458V6.9199V6.92522V6.93054V6.93586V6.94118V6.94651V6.95183V6.95716V6.96249V6.96782V6.97316V6.97849V6.98383V6.98917V6.99451V6.99985V7.00519V7.01054V7.01588V7.02123V7.02658V7.03193V7.03728V7.04263V7.04799V7.05334V7.0587V7.06406V7.06942V7.07478V7.08014V7.08551V7.09087V7.09624V7.1016V7.10697V7.11234V7.11771V7.12309V7.12846V7.13383V7.13921V7.14459V7.14996V7.15534V7.16072V7.1661V7.17148V7.17687V7.18225V7.18764V7.19302V7.19841V7.2038V7.20918V7.21457V7.21996V7.22535V7.23075V7.23614V7.24153V7.24693V7.25232V7.25772V7.26311V7.26851V7.27391V7.27931V7.28471V7.29011V7.29551V7.30091V7.30631V7.31171V7.31711V7.32252V7.32792V7.33333V7.33873V7.34414V7.34954V7.35495V7.36036V7.36576V7.37117V7.37658V7.38199V7.38739V7.3928V7.39821V7.40362V7.40903V7.41444V7.41985V7.42526V7.43067V7.43609V7.4415V7.44691V7.45232V7.45773V7.46314V7.46856V7.47397V7.47938V7.48479V7.4902V7.49562V7.50103V7.50644V7.51185V7.51727V7.52268V7.52809V7.5335V7.53891V7.54432V7.54974V7.55515V7.56056V7.56597V7.57138V7.57679V7.5822V7.58761V7.59302V7.59843V7.60384V7.60925V7.61466V7.62007V7.62547V7.63088V7.63629V7.64169V7.6471V7.65251V7.65791V7.66332V7.66872V7.67412V7.67953V7.68493V7.69033V7.69573V7.70113V7.70653V7.71193V7.71733V7.72273V7.72813V7.73353V7.73892V7.74432V7.74971V7.75511V7.7605V7.76589V7.77128V7.77667V7.78206V7.78745V7.79284V7.79823V7.80361V7.809V7.81438V7.81977V7.82515V7.83053V7.83591V7.84129V7.84667V7.85204V7.85742V7.8628V7.86817V7.87354V7.87891V7.88428V7.88965V7.89502V7.90039V7.90575V7.91112V7.91648V7.92184V7.9272V7.93256V7.93792V7.94328V7.94863V7.95399V7.95934V7.96469V7.97004V7.97539V7.98074V7.98608V7.99142V7.99677V8.00211V8.00745V8.01278V8.01812V8.02345V8.02879V8.03412V8.03945V8.04478V8.0501V8.05543V8.06075V8.06607V8.07139V8.07671V8.08202V8.08734V8.09265V8.09796V8.10327V8.10858V8.11388V8.11918V8.12448V8.12978V8.13508V8.14038V8.14567V8.15096V8.15625V8.16154V8.16682V8.17211V8.17739V8.18267V8.18794V8.19322V8.19849V8.20376V8.20903V8.21429V8.21956V8.22482V8.23008V8.23534V8.24059V8.24584V8.2511V8.25634V8.26159V8.26683V8.27207V8.27731V8.28255V8.28778V8.29301V8.29824V8.30347V8.30869V8.31391V8.31913V8.32435V8.32956V8.33478V8.33998V8.34519V8.35039V8.35559V8.36079V8.36599V8.37118V8.37637V8.38156V8.38674V8.39193V8.39711V8.40228V8.40746V8.41263V8.41779V8.42296V8.42812V8.43328V8.43844V8.44359V8.44874V8.45389V8.45904V8.46418V8.46932V8.47445V8.47959V8.48472V8.48984V8.49497V8.50009V8.5052V8.51032V8.51543V8.52054V8.52564V8.53074V8.53584V8.54094V8.54603V8.55112V8.5562V8.56129V8.56637V8.57144C20.2381 9.87602 19.5894 10.7926 18.9199 11.3951C18.5849 11.6966 18.2488 11.9152 17.9964 12.0582C17.8815 12.1233 17.7847 12.1724 17.7143 12.206C17.644 12.1724 17.5472 12.1233 17.4322 12.0582C17.1798 11.9152 16.8437 11.6966 16.5087 11.3951C15.8393 10.7926 15.1905 9.87602 15.1905 8.57144Z"
      stroke="white" stroke-width="0.666667"/>
    <mask id="mask2" mask-type="alpha" maskUnits="userSpaceOnUse" x="14" y="4" width="7" height="9">
      <path
        d="M15.1905 8.57144V8.48984V8.44874V8.40746V8.32435V8.24059V8.15625V8.11388V8.07139V8.02879V7.98608V7.94328V7.90039V7.85742V7.81438V7.80361V7.79823V7.79284V7.77128V7.72813V7.68493V7.64169V7.59843V7.55515V7.51185V7.4902V7.48479V7.47938V7.47397V7.46856V7.46314V7.45773V7.45232V7.44691V7.4415V7.43609V7.43067V7.42526V7.41985V7.41444V7.40903V7.40362V7.39821V7.3928V7.38739V7.38199V7.37658V7.37117V7.36576V7.36036V7.35495V7.34954V7.34414V7.33873V7.33333V7.32792V7.32252V7.31711V7.31171V7.30631V7.30091V7.29551V7.29011V7.28471V7.27931V7.27391V7.26851V7.26311V7.25772V7.25232V7.24693V7.24153V7.23614V7.23075V7.22535V7.21996V7.21457V7.20918V7.20379V7.19841V7.19302V7.18764V7.18225V7.17687V7.17148V7.1661V7.16072V7.15534V7.14996V7.14459V7.13921V7.13383V7.12846V7.12309V7.11771V7.11234V7.10697V7.1016V7.09624V7.09087V7.08551V7.08014V7.07478V7.06942V7.06406V7.0587V7.05334V7.04799V7.04263V7.03728V7.03193V7.02658V7.02123V7.01588V7.01054V7.00519V6.99985V6.99451V6.98917V6.98383V6.97849V6.97316V6.96782V6.96249V6.95716V6.95183V6.94651V6.94118V6.93586V6.93053V6.92521V6.9199V6.91458V6.90927V6.90395V6.89864V6.89333V6.88802V6.88272V6.87741V6.87211V6.86681V6.86151V6.85622V6.85092V6.84563V6.84034V6.83505V6.82977V6.82448V6.8192V6.81392V6.80864V6.80337V6.79809V6.79282V6.78755V6.78229V6.77702V6.77176V6.76124V6.74023V6.69832V6.65657V6.65137V6.64616V6.63576V6.61499V6.57358V6.53235V6.49131V6.45048V6.36943V6.28929V6.21011V6.13197V6.05493V5.97905V5.90442C15.1905 5.35225 15.6381 4.90477 16.1905 4.90477H19.2381C19.7905 4.90477 20.2381 5.35225 20.2381 5.90442V5.90904V5.91368V5.91831V5.92296V5.9276V5.93226V5.93691V5.94158V5.94624V5.95092V5.95559V5.96028V5.96496V5.96965V5.97435V5.97905V5.98376V5.98847V5.99319V5.99791V6.00263V6.00736V6.0121V6.01684V6.02158V6.02633V6.03109V6.03585V6.04061V6.04538V6.05015V6.05493V6.05971V6.0645V6.06929V6.07408V6.07888V6.08368V6.08849V6.09331V6.09812V6.10295V6.10777V6.1126V6.11744V6.12228V6.12712V6.13197V6.13682V6.14168V6.14654V6.1514V6.15627V6.16115V6.16603V6.17091V6.17579V6.18068V6.18558V6.19048V6.19538V6.20029V6.2052V6.21011V6.21503V6.21996V6.22488V6.22981V6.23475V6.23969V6.24463V6.24958V6.25453V6.25948V6.26444V6.2694V6.27437V6.27934V6.28431V6.28929V6.29427V6.29926V6.30425V6.30924V6.31423V6.31923V6.32424V6.32925V6.33426V6.33927V6.34429V6.34931V6.35434V6.35937V6.3644V6.36943V6.37447V6.37952V6.38456V6.38961V6.39467V6.39972V6.40478V6.40985V6.41491V6.41998V6.42506V6.43014V6.43522V6.4403V6.44539V6.45048V6.45557V6.46067V6.46577V6.47087V6.47598V6.48109V6.4862V6.49131V6.49643V6.50155V6.50668V6.51181V6.51694V6.52207V6.52721V6.53235V6.53749V6.54264V6.54779V6.55294V6.5581V6.56325V6.56841V6.57358V6.57874V6.58391V6.58909V6.59426V6.59944V6.60462V6.6098V6.61499V6.62018V6.62537V6.63056V6.63576V6.64096V6.64616V6.65137V6.65657V6.66178V6.667V6.67221V6.67743V6.68265V6.68787V6.6931V6.69832V6.70355V6.70879V6.71402V6.71926V6.7245V6.72974V6.73498V6.74023V6.74548V6.75073V6.75599V6.76124V6.7665V6.77176V6.77702V6.78229V6.78755V6.79282V6.79809V6.80337V6.80864V6.81392V6.8192V6.82448V6.82977V6.83505V6.84034V6.84563V6.85092V6.85622V6.86151V6.86681V6.87211V6.87741V6.88272V6.88802V6.89333V6.89864V6.90395V6.90927V6.91458V6.9199V6.92522V6.93054V6.93586V6.94118V6.94651V6.95183V6.95716V6.96249V6.96782V6.97316V6.97849V6.98383V6.98917V6.99451V6.99985V7.00519V7.01054V7.01588V7.02123V7.02658V7.03193V7.03728V7.04263V7.04799V7.05334V7.0587V7.06406V7.06942V7.07478V7.08014V7.08551V7.09087V7.09624V7.1016V7.10697V7.11234V7.11771V7.12309V7.12846V7.13383V7.13921V7.14459V7.14996V7.15534V7.16072V7.1661V7.17148V7.17687V7.18225V7.18764V7.19302V7.19841V7.2038V7.20918V7.21457V7.21996V7.22535V7.23075V7.23614V7.24153V7.24693V7.25232V7.25772V7.26311V7.26851V7.27391V7.27931V7.28471V7.29011V7.29551V7.30091V7.30631V7.31171V7.31711V7.32252V7.32792V7.33333V7.33873V7.34414V7.34954V7.35495V7.36036V7.36576V7.37117V7.37658V7.38199V7.38739V7.3928V7.39821V7.40362V7.40903V7.41444V7.41985V7.42526V7.43067V7.43609V7.4415V7.44691V7.45232V7.45773V7.46314V7.46856V7.47397V7.47938V7.48479V7.4902V7.49562V7.50103V7.50644V7.51185V7.51727V7.52268V7.52809V7.5335V7.53891V7.54432V7.54974V7.55515V7.56056V7.56597V7.57138V7.57679V7.5822V7.58761V7.59302V7.59843V7.60384V7.60925V7.61466V7.62007V7.62547V7.63088V7.63629V7.64169V7.6471V7.65251V7.65791V7.66332V7.66872V7.67412V7.67953V7.68493V7.69033V7.69573V7.70113V7.70653V7.71193V7.71733V7.72273V7.72813V7.73353V7.73892V7.74432V7.74971V7.75511V7.7605V7.76589V7.77128V7.77667V7.78206V7.78745V7.79284V7.79823V7.80361V7.809V7.81438V7.81977V7.82515V7.83053V7.83591V7.84129V7.84667V7.85204V7.85742V7.8628V7.86817V7.87354V7.87891V7.88428V7.88965V7.89502V7.90039V7.90575V7.91112V7.91648V7.92184V7.9272V7.93256V7.93792V7.94328V7.94863V7.95399V7.95934V7.96469V7.97004V7.97539V7.98074V7.98608V7.99142V7.99677V8.00211V8.00745V8.01278V8.01812V8.02345V8.02879V8.03412V8.03945V8.04478V8.0501V8.05543V8.06075V8.06607V8.07139V8.07671V8.08202V8.08734V8.09265V8.09796V8.10327V8.10858V8.11388V8.11918V8.12448V8.12978V8.13508V8.14038V8.14567V8.15096V8.15625V8.16154V8.16682V8.17211V8.17739V8.18267V8.18794V8.19322V8.19849V8.20376V8.20903V8.21429V8.21956V8.22482V8.23008V8.23534V8.24059V8.24584V8.2511V8.25634V8.26159V8.26683V8.27207V8.27731V8.28255V8.28778V8.29301V8.29824V8.30347V8.30869V8.31391V8.31913V8.32435V8.32956V8.33478V8.33998V8.34519V8.35039V8.35559V8.36079V8.36599V8.37118V8.37637V8.38156V8.38674V8.39193V8.39711V8.40228V8.40746V8.41263V8.41779V8.42296V8.42812V8.43328V8.43844V8.44359V8.44874V8.45389V8.45904V8.46418V8.46932V8.47445V8.47959V8.48472V8.48984V8.49497V8.50009V8.5052V8.51032V8.51543V8.52054V8.52564V8.53074V8.53584V8.54094V8.54603V8.55112V8.5562V8.56129V8.56637V8.57144C20.2381 9.87602 19.5894 10.7926 18.9199 11.3951C18.5849 11.6966 18.2488 11.9152 17.9964 12.0582C17.8815 12.1233 17.7847 12.1724 17.7143 12.206C17.644 12.1724 17.5472 12.1233 17.4322 12.0582C17.1798 11.9152 16.8437 11.6966 16.5087 11.3951C15.8393 10.7926 15.1905 9.87602 15.1905 8.57144Z"
        fill="white" stroke="white" stroke-width="0.666667"/>
    </mask>
    <g mask="url(#mask2)">
    </g>
    <path
      d="M0 -0.333333H-0.901086L-0.21693 0.253086L3.66667 3.58188V4.39989L-0.193746 7.15733L-0.333333 7.25703V7.42857V8V8.60141L0.176666 8.28267L4.66703 5.47619H5.60746L9.47126 8.23604C9.55984 8.29932 9.66599 8.33333 9.77485 8.33333C10.2598 8.33333 10.4829 7.73003 10.1148 7.41445L6.61905 4.41812V3.60011L10.3399 0.942378C10.5151 0.817237 10.619 0.61519 10.619 0.399889V0V-0.601416L10.109 -0.282666L5.61869 2.52381H4.67825L0.765175 -0.271244L0.67825 -0.333333H0.571429H0Z"
      fill="#DB1E36" stroke="white" stroke-width="0.666667"/>
    <path fill-rule="evenodd" clip-rule="evenodd"
          d="M0 2.85714V5.14286H4V7.90476C4 8.27295 4.29848 8.57143 4.66667 8.57143H5.61905C5.98724 8.57143 6.28571 8.27295 6.28571 7.90476V5.14286H10.1905C10.5587 5.14286 10.8571 4.84438 10.8571 4.47619V3.52381C10.8571 3.15562 10.5587 2.85714 10.1905 2.85714H6.28571V0H4V2.85714H0Z"
          fill="white"/>
    <path fill-rule="evenodd" clip-rule="evenodd"
          d="M0 3.42857H4.57143V2.85714V0H5.71429V2.85714V3.42857H10.2857V4.57143H5.71429V5.14286V8H4.57143V5.14286V4.57143H0V3.42857Z"
          fill="#DB1E36"/>
  </g>
</svg>
