<svg width="24" height="18" viewBox="0 0 24 18" fill="none" xmlns="http://www.w3.org/2000/svg">
  <rect width="24" height="17.1429" rx="2" fill="white"/>
  <mask id="mask0" mask-type="alpha" maskUnits="userSpaceOnUse" x="0" y="0" width="24" height="18">
    <rect width="24" height="17.1429" rx="2" fill="white"/>
  </mask>
  <g mask="url(#mask0)">
    <rect width="24" height="17.1429" fill="#95CEF5"/>
    <path fill-rule="evenodd" clip-rule="evenodd"
          d="M10.6564 5.84919L11.9999 4.93715L13.3434 5.84919L12.8912 4.2896L14.1737 3.29368L12.5507 3.24184L11.9999 1.71429L11.4491 3.24184L9.82606 3.29368L11.1086 4.2896L10.6564 5.84919ZM10.6564 14.992L11.9999 14.08L13.3434 14.992L12.8912 13.4324L14.1737 12.4365L12.5507 12.3847L11.9999 10.8571L11.4491 12.3847L9.82606 12.4365L11.1086 13.4324L10.6564 14.992ZM16.5714 9.50859L15.2279 10.4206L15.6801 8.86104L14.3975 7.86512L16.0205 7.81328L16.5714 6.28573L17.1222 7.81328L18.7452 7.86512L17.4626 8.86104L17.9149 10.4206L16.5714 9.50859ZM6.08503 10.4206L7.42854 9.50859L8.77205 10.4206L8.31982 8.86104L9.60239 7.86512L7.97938 7.81328L7.42854 6.28573L6.8777 7.81328L5.2547 7.86512L6.53727 8.86104L6.08503 10.4206Z"
          fill="white"/>
  </g>
</svg>
