<svg width="24" height="18" viewBox="0 0 24 18" fill="none" xmlns="http://www.w3.org/2000/svg">
  <path
    d="M22.2026 17.1397H1.79742C0.804703 17.1397 0 16.2625 0 15.1805V1.95923C0 0.877195 0.804703 0 1.79742 0H22.2026C23.1952 0 24 0.877144 24 1.95923V15.1805C24 16.2625 23.1953 17.1397 22.2026 17.1397Z"
    fill="#F5F5F5"/>
  <path d="M24 6.31497H10.7586V0.000366211H6.62067V6.31497H0V10.8254H6.62067V17.14H10.7586V10.8254H24V6.31497Z"
        fill="#41479B"/>
  <path d="M24 7.21705H9.93103V0.000366211H7.4483V7.21705H0V9.92334H7.4483V17.14H9.93103V9.92334H24V7.21705Z"
        fill="#FF4B55"/>
</svg>
