<svg width="24" height="18" viewBox="0 0 24 18" fill="none" xmlns="http://www.w3.org/2000/svg">
  <rect width="24" height="17.1429" rx="2" fill="white"/>
  <mask id="mask0" mask-type="alpha" maskUnits="userSpaceOnUse" x="0" y="0" width="24" height="18">
    <rect width="24" height="17.1429" rx="2" fill="white"/>
  </mask>
  <g mask="url(#mask0)">
    <rect width="24" height="17.1429" fill="#E42235"/>
    <rect x="2.28568" y="2.28571" width="19.4286" height="12.5714" fill="#079B77"/>
    <mask id="mask1" mask-type="alpha" maskUnits="userSpaceOnUse" x="2" y="2" width="20" height="13">
      <rect x="2.28568" y="2.28571" width="19.4286" height="12.5714" fill="white"/>
    </mask>
    <g mask="url(#mask1)">
      <path fill-rule="evenodd" clip-rule="evenodd"
            d="M3.76555 8.68439C4.08912 9.20221 4.55367 9.54403 4.98636 9.63175C5.22457 9.68004 4.78843 8.5876 4.97849 8.46884C5.14065 8.3675 5.92087 9.27597 5.98919 9.08644C6.14639 8.65035 6.05366 8.03281 5.70394 7.47314C5.20223 6.67023 5.18264 7.20017 3.82631 6.62497C3.96812 7.44755 3.26383 7.88148 3.76555 8.68439V8.68439Z"
            fill="#FFD938"/>
      <path fill-rule="evenodd" clip-rule="evenodd"
            d="M12 8.57142L21.7143 2.28571H2.28568L12 8.57142ZM12 8.57143L21.7143 14.8571H2.28571L12 8.57143Z"
            fill="#FFD93B"/>
      <path fill-rule="evenodd" clip-rule="evenodd"
            d="M12 11.4285C13.578 11.4285 14.8571 10.1494 14.8571 8.57141C14.8571 6.99345 13.578 5.71426 12 5.71426C10.422 5.71426 9.14286 6.99345 9.14286 8.57141C9.14286 10.1494 10.422 11.4285 12 11.4285Z"
            fill="url(#paint0_linear)"/>
      <path fill-rule="evenodd" clip-rule="evenodd"
            d="M12 9.4529L10.6565 10.4206L11.1616 8.84381L9.82612 7.8651L11.4818 7.85829L12 6.28571L12.5181 7.85829L14.1738 7.8651L12.8383 8.84381L13.3435 10.4206L12 9.4529Z"
            fill="#FFD938"/>
    </g>
  </g>
  <defs>
    <linearGradient id="paint0_linear" x1="9.14286" y1="5.71426" x2="9.14286" y2="11.4285"
                    gradientUnits="userSpaceOnUse">
      <stop stop-color="#E21C30"/>
      <stop offset="1" stop-color="#CE1225"/>
    </linearGradient>
  </defs>
</svg>
