<svg width="24" height="18" viewBox="0 0 24 18" fill="none" xmlns="http://www.w3.org/2000/svg">
  <rect x="0.25" y="0.25" width="23.5" height="16.6429" rx="1.75" fill="white" stroke="#F5F5F5" stroke-width="0.5"/>
  <mask id="mask0" mask-type="alpha" maskUnits="userSpaceOnUse" x="0" y="0" width="24" height="18">
    <rect x="0.25" y="0.25" width="23.5" height="16.6429" rx="1.75" fill="white" stroke="white" stroke-width="0.5"/>
  </mask>
  <g mask="url(#mask0)">
    <path fill-rule="evenodd" clip-rule="evenodd"
          d="M13.7143 18.2857H10.2857V10.2857H-1.1429V6.85716H10.2857V-1.14285H13.7143V6.85716H25.1428V10.2857H13.7143V18.2857Z"
          fill="#FF2B37"/>
    <path fill-rule="evenodd" clip-rule="evenodd"
          d="M18.5143 3.77144L17.1429 4.00002V2.85716L18.5143 3.08574L18.2857 1.71429H19.4286L19.2 3.08573L20.5714 2.85716V4.00002L19.2 3.77145L19.4286 5.14287H18.2857L18.5143 3.77144Z"
          fill="#FD0D1B"/>
    <path fill-rule="evenodd" clip-rule="evenodd"
          d="M4.80004 3.77144L3.42857 4.00002V2.85716L4.80004 3.08574L4.57147 1.71429H5.71432L5.48575 3.08573L6.85715 2.85716V4.00002L5.48575 3.77145L5.71432 5.14287H4.57147L4.80004 3.77144Z"
          fill="#FD0D1B"/>
    <path fill-rule="evenodd" clip-rule="evenodd"
          d="M4.80004 14.0571L3.42857 14.2857V13.1429L4.80004 13.3714L4.57147 12H5.71432L5.48575 13.3714L6.85715 13.1429V14.2857L5.48575 14.0572L5.71432 15.4286H4.57147L4.80004 14.0571Z"
          fill="#FD0D1B"/>
    <path fill-rule="evenodd" clip-rule="evenodd"
          d="M18.5143 14.0571L17.1429 14.2857V13.1429L18.5143 13.3714L18.2857 12H19.4286L19.2 13.3714L20.5714 13.1429V14.2857L19.2 14.0572L19.4286 15.4286H18.2857L18.5143 14.0571Z"
          fill="#FD0D1B"/>
  </g>
</svg>
