<svg width="24" height="18" viewBox="0 0 24 18" fill="none" xmlns="http://www.w3.org/2000/svg">
  <rect x="0.25" y="0.25" width="23.5" height="16.6429" rx="1.75" fill="white" stroke="#F5F5F5" stroke-width="0.5"/>
  <mask id="mask0" mask-type="alpha" maskUnits="userSpaceOnUse" x="0" y="0" width="24" height="18">
    <rect x="0.25" y="0.25" width="23.5" height="16.6429" rx="1.75" fill="white" stroke="white" stroke-width="0.5"/>
  </mask>
  <g mask="url(#mask0)">
    <path fill-rule="evenodd" clip-rule="evenodd" d="M0 17.1429H24V11.4286H0V17.1429Z" fill="#E34F4F"/>
    <path fill-rule="evenodd" clip-rule="evenodd" d="M7.99992 11.4286H14.8571V6.85715H7.99992V11.4286Z" fill="#E34F4F"/>
    <path fill-rule="evenodd" clip-rule="evenodd" d="M9.14293 11.4286H10.2858V10.2857H9.14293V11.4286Z" fill="#181A1A"/>
    <path fill-rule="evenodd" clip-rule="evenodd" d="M12.5715 11.4286H13.7144V10.2857H12.5715V11.4286Z" fill="#181A1A"/>
    <path fill-rule="evenodd" clip-rule="evenodd" d="M7.99992 6.85712H9.14278V5.71426H7.99992V6.85712Z" fill="#181A1A"/>
    <path fill-rule="evenodd" clip-rule="evenodd" d="M11.4285 6.85712H12.5714V5.71426H11.4285V6.85712Z" fill="#181A1A"/>
    <path fill-rule="evenodd" clip-rule="evenodd" d="M10.2857 6.85712H11.4286V5.71426H10.2857V6.85712Z" fill="#181A1A"/>
    <path fill-rule="evenodd" clip-rule="evenodd" d="M13.7143 6.85712H14.8571V5.71426H13.7143V6.85712Z" fill="#181A1A"/>
    <path fill-rule="evenodd" clip-rule="evenodd" d="M7.99992 5.7143H9.14278V4.57144H7.99992V5.7143Z" fill="#E34F4F"/>
    <path fill-rule="evenodd" clip-rule="evenodd" d="M11.4285 5.7143H12.5714V4.57144H11.4285V5.7143Z" fill="#E34F4F"/>
    <path fill-rule="evenodd" clip-rule="evenodd" d="M10.2857 5.7143H11.4286V4.57144H10.2857V5.7143Z" fill="#E34F4F"/>
    <path fill-rule="evenodd" clip-rule="evenodd" d="M13.7143 5.7143H14.8571V4.57144H13.7143V5.7143Z" fill="#E34F4F"/>
  </g>
</svg>
