<svg width="24" height="18" viewBox="0 0 24 18" fill="none" xmlns="http://www.w3.org/2000/svg">
  <path
    d="M22.2134 0H1.78664C0.798984 0.00633599 0 0.880805 0 1.95895V8.57009H24V1.95895C24 0.880805 23.201 0.00633599 22.2134 0Z"
    fill="#F5F5F5"/>
  <path
    d="M0 15.1805C0 16.2626 0.804703 17.1398 1.79742 17.1398H22.2026C23.1952 17.1398 24 16.2627 24 15.1805V8.57001H0V15.1805Z"
    fill="#FF4B55"/>
  <path
    d="M8.27587 2.70642C5.30494 2.70642 2.89655 5.33177 2.89655 8.57023H13.6552C13.6552 5.33167 11.2468 2.70642 8.27587 2.70642Z"
    fill="#FF4B55"/>
  <path
    d="M8.27581 14.4339C11.2468 14.4339 13.6551 11.8086 13.6551 8.57013H2.89648C2.89648 11.8086 5.30492 14.4339 8.27581 14.4339Z"
    fill="#F5F5F5"/>
</svg>
