<svg width="24" height="18" viewBox="0 0 24 18" fill="none" xmlns="http://www.w3.org/2000/svg">
  <rect x="0.25" y="0.25" width="23.5" height="16.6429" rx="1.75" fill="white" stroke="#F5F5F5" stroke-width="0.5"/>
  <mask id="mask0" mask-type="alpha" maskUnits="userSpaceOnUse" x="0" y="0" width="24" height="18">
    <rect x="0.25" y="0.25" width="23.5" height="16.6429" rx="1.75" fill="white" stroke="white" stroke-width="0.5"/>
  </mask>
  <g mask="url(#mask0)">
    <path fill-rule="evenodd" clip-rule="evenodd"
          d="M4.57143 0H0V4.57143H4.57143V0ZM11.4286 0H6.85714V4.57143H11.4286V0ZM11.4286 0H24V2.28571H11.4286V0ZM24 4.57144H11.4286V6.85715H24V4.57144ZM11.4286 9.14285H24V11.4286H11.4286V9.14285ZM24 13.7143H0V16H24V13.7143ZM6.85714 6.85714H11.4286V11.4286H6.85714V6.85714ZM4.57143 6.85714H0V11.4286H4.57143V6.85714Z"
          fill="#1C6DC1"/>
  </g>
</svg>
