<svg width="24" height="18" viewBox="0 0 24 18" fill="none" xmlns="http://www.w3.org/2000/svg">
  <path
    d="M22.2026 17.14H1.79742C0.804703 17.14 0 16.2628 0 15.1807V1.95927C0 0.877214 0.804703 0 1.79742 0H22.2026C23.1952 0 24 0.877163 24 1.95927V15.1808C24 16.2628 23.1953 17.14 22.2026 17.14Z"
    fill="#41479B"/>
  <path
    d="M0.413813 8.57H1.13259L4.96556 5.83259V8.57H7.03453V5.83259L10.8675 8.57H11.5862C11.8148 8.57 12 8.36802 12 8.11893V7.76115L8.71158 5.41263H12V3.15737H8.71148L12 0.808847V0.451074C12 0.201982 11.8148 0.000102192 11.5863 0H10.8674L7.03448 2.73741V0H4.96552V2.73741L1.25831 0.0898263C1.15111 0.126513 1.04822 0.173981 0.950719 0.230902C0.949781 0.231464 0.948797 0.231975 0.947812 0.232537C0.925734 0.245465 0.903938 0.259107 0.882422 0.273005C0.879797 0.274691 0.877078 0.276275 0.874453 0.277962C0.853594 0.291604 0.833109 0.30586 0.812859 0.320371C0.809766 0.322619 0.806531 0.324714 0.803437 0.326962C0.783234 0.341627 0.763406 0.356853 0.743766 0.372387C0.740859 0.374686 0.737859 0.376883 0.734953 0.379233C0.715125 0.395073 0.695766 0.411475 0.676547 0.428183C0.674062 0.43038 0.671484 0.432475 0.669 0.434672C0.649594 0.451738 0.630562 0.469418 0.611812 0.487352C0.609797 0.489345 0.607687 0.491184 0.605672 0.493228C0.586688 0.511623 0.568125 0.530426 0.549844 0.549587C0.54825 0.551273 0.546562 0.552959 0.544922 0.554645C0.526406 0.574317 0.508313 0.594398 0.490547 0.614836C0.489375 0.616165 0.488156 0.617544 0.486984 0.618975C0.468984 0.639873 0.451359 0.661282 0.434156 0.6831C0.433359 0.684122 0.432609 0.685093 0.431812 0.686064C0.414375 0.708291 0.397359 0.730875 0.380859 0.754021C0.380437 0.754583 0.379969 0.755197 0.379547 0.75581C0.362859 0.779212 0.346547 0.803022 0.330844 0.827242C0.330656 0.8276 0.330375 0.827906 0.330187 0.828315C0.31425 0.85279 0.298828 0.877673 0.284016 0.902966C0.283969 0.903017 0.283922 0.903119 0.283875 0.90317C0.268875 0.928667 0.254438 0.954522 0.240516 0.980734L3.28852 3.15737H0V5.41263H3.28847L0 7.76115V8.11923C0.000140625 8.36822 0.185344 8.57 0.413813 8.57Z"
    fill="#F5F5F5"/>
  <path d="M12 3.60844H6.62067V0H5.37933V3.60844H0V4.96156H5.37933V8.57H6.62067V4.96156H12V3.60844Z" fill="#FF4B55"/>
  <path
    d="M0.385742 0.7474L3.79173 3.15739H4.55176L0.684758 0.421204C0.573711 0.516753 0.473398 0.626302 0.385742 0.7474Z"
    fill="#FF4B55"/>
  <path d="M7.79451 3.15737L11.937 0.226201C11.865 0.0934033 11.738 0 11.5862 0H11.4967L7.03448 3.15737H7.79451Z"
        fill="#FF4B55"/>
  <path
    d="M4.19418 5.41266L0.0595703 8.3382C0.130867 8.47422 0.259867 8.57002 0.413898 8.57002H0.491945L4.95426 5.41266H4.19418Z"
    fill="#FF4B55"/>
  <path d="M11.9934 8.1544L8.11843 5.4126H7.3584L11.7587 8.52612C11.8906 8.45949 11.981 8.31975 11.9934 8.1544Z"
        fill="#FF4B55"/>
  <g clip-path="url(#clip0)">
    <path
      d="M17.6952 12.4426C17.6952 12.4426 17.631 12.6333 17.5931 12.6333C17.5552 12.6333 17.421 12.5497 17.421 12.5497C17.421 12.5497 17.3247 12.7248 17.2722 12.7352C17.2227 12.7457 17.0885 12.7091 17.0885 12.7091C17.0885 12.7091 16.9601 12.7091 16.9543 12.6882C16.9485 12.6673 16.9601 12.6255 16.9601 12.6255C16.9601 12.6255 16.7764 12.7901 16.7326 12.7796C16.6918 12.7692 16.5518 12.5733 16.5518 12.5733L16.5284 12.6777L16.2659 12.6673L16.0355 12.5027C16.0355 12.5027 15.9071 12.7404 15.9013 12.7352C15.8955 12.73 15.6738 12.7927 15.6738 12.7927L15.6592 12.7457L15.5105 12.6464C15.5105 12.6464 15.6271 12.4662 15.6271 12.4609C15.6271 12.4557 15.5717 12.4348 15.5717 12.4348L15.49 12.5132L15.3179 12.6359L15.1458 12.5471L15.2188 12.393L15.2333 12.2807L15.3675 12.0534L17.0068 10.2693L17.8148 11.9411L17.6952 12.4426Z"
      fill="#6B4C2E"/>
    <path
      d="M18.859 12.5498L19.2849 12.5315L19.104 12.4322L20.7287 12.3643L20.4983 12.265L20.2941 11.9568L19.4511 11.8863C19.4511 11.8863 19.387 11.8314 19.2849 11.8601C19.282 11.787 19.2032 11.6903 19.2032 11.6903L18.684 11.6459L18.3602 11.8941L18.579 12.521L18.859 12.5498Z"
      fill="white"/>
    <path
      d="M17.1993 7.20256L17.2431 7.03799C17.2431 7.03799 17.3189 6.89693 17.3189 6.83424C17.3189 6.77155 17.3743 6.69841 17.3743 6.69841C17.3743 6.69841 17.5464 6.64355 17.5814 6.7611C17.7652 6.44763 17.984 6.74543 17.984 6.74543L18.0452 6.66706L18.1677 6.49988C18.1677 6.49988 18.3427 6.68273 18.3427 6.71408C18.3456 6.74543 18.3719 6.72453 18.3719 6.72453L18.5615 6.70885C18.5615 6.70885 18.6519 6.78722 18.6315 6.93612C18.6986 6.98053 18.7569 7.23913 18.7569 7.23913L17.1993 7.20256Z"
      fill="url(#paint0_linear)"/>
    <path
      d="M18.859 9.14866C18.8911 9.12515 18.9932 9.08858 18.9815 8.9214C18.9699 8.75422 18.8386 8.73332 18.7657 8.73855C18.6928 8.74377 18.6286 8.8143 18.6286 8.8143L18.3894 8.64451C18.3894 8.64451 18.509 7.79554 18.6373 7.74069C18.7598 7.64142 18.7803 7.59963 18.7803 7.57873C18.7803 7.55522 18.7365 7.50036 18.7365 7.50036L17.9519 7.39587L17.211 7.49514C17.211 7.49514 17.1527 7.5944 17.1614 7.63358C17.1702 7.67277 17.1702 7.71456 17.3043 7.8295C17.4502 7.95489 17.5523 8.68108 17.5523 8.68108C17.5523 8.68108 17.3452 8.79602 17.3306 8.78296C17.3189 8.76989 17.2547 8.75422 17.2227 8.75945C17.1906 8.76467 17.0826 8.82736 17.0826 8.98671C17.0826 9.14605 17.1906 9.24009 17.1906 9.24009C17.1906 9.24009 17.8994 9.14866 18.0044 9.36548C18.1065 9.09903 18.7803 9.19307 18.859 9.14866Z"
      fill="#666364"/>
    <path
      d="M19.6232 8.2631C19.6232 8.2631 19.632 8.17167 19.6903 8.12726C19.7487 8.08286 20.1424 8.06196 20.2358 8.12726C20.3291 8.19257 20.3641 8.51909 20.3641 8.51909C20.3641 8.51909 20.4225 8.63403 20.4283 8.71762C20.4312 8.80121 20.44 8.85868 20.44 8.85868C20.44 8.85868 20.755 9.31582 20.7579 9.72855C20.7929 10.0107 20.7841 10.7604 20.6879 11.0451C20.685 11.4004 20.5508 11.6328 20.5508 11.6328C20.5508 11.6328 20.5829 11.6955 20.5771 11.7608C20.5741 11.8262 20.5421 11.8888 20.5421 11.8888L21 12.1448L20.8308 12.0743C20.8308 12.0743 21.0029 12.2363 21 12.2337C20.9971 12.2284 20.8075 12.1318 20.8075 12.1318L20.9212 12.2598C20.9183 12.2546 20.6412 12.1187 20.6412 12.1187C20.6412 12.1187 20.7696 12.2546 20.7637 12.2519C20.755 12.2467 20.5566 12.1422 20.5566 12.1422C20.5566 12.1422 20.6821 12.2911 20.6791 12.2833C20.6762 12.2755 20.4983 12.1945 20.4983 12.1945L20.507 12.2702C20.507 12.2702 20.367 12.2624 20.367 12.1422C20.297 12.0978 20.2504 12.0377 20.2504 12.0377L19.9237 11.975L19.5532 10.7395L19.6407 8.65232L19.6641 8.54783L19.6232 8.2631Z"
      fill="#010101"/>
    <path
      d="M19.3753 14.9321C19.3753 14.9321 19.1857 14.488 19.0924 14.4802C19.0078 14.2999 19.387 12.8162 20.1249 12.73C20.5304 12.7666 20.157 13.2524 19.8916 13.1035C19.9237 13.2341 20.0579 13.4196 20.0579 13.4196C20.0579 13.4196 19.5328 13.6782 19.3753 14.9321Z"
      fill="#FEBB12"/>
    <path
      d="M16.8435 14.9974C16.8435 14.9974 17.001 14.4906 17.0943 14.4854C17.1906 14.4802 16.8435 12.7979 16.088 12.7849C15.6796 12.8214 16.0559 13.3099 16.3213 13.161C16.2893 13.2916 16.1551 13.4797 16.1551 13.4797C16.1551 13.4797 16.6859 13.7357 16.8435 14.9974Z"
      fill="#FEBB12"/>
    <path
      d="M17.5348 11.834C17.5318 11.8288 17.3481 11.8993 17.4677 12.124C17.4764 12.0378 17.561 11.9829 17.561 11.9829C17.561 11.9829 17.4327 12.1527 17.5698 12.2938C17.5873 12.1605 17.6631 12.1161 17.6631 12.1161C17.6631 12.1161 17.5698 12.427 17.666 12.4897C17.6777 12.3643 17.7477 12.312 17.7477 12.312C17.7477 12.312 17.6631 12.5915 17.7389 12.6542C17.7477 12.5498 17.8119 12.5027 17.8119 12.5027C17.8119 12.5027 17.7739 12.7927 17.8731 12.811C17.876 12.7091 17.949 12.6098 17.949 12.6098C17.949 12.6098 17.9169 12.8449 18.0715 12.8554C18.0744 12.7666 18.1035 12.6647 18.1035 12.6647C18.1035 12.6647 18.1736 12.9155 18.2786 12.8737C18.2756 12.8005 18.2815 12.6621 18.2786 12.6621C18.2756 12.6621 18.3427 12.8998 18.4682 12.8554C18.4507 12.7875 18.474 12.7091 18.474 12.7091C18.474 12.7091 18.5382 12.858 18.6578 12.8084C18.6782 12.764 18.6519 12.6751 18.6519 12.6751C18.6519 12.6751 18.824 12.8737 18.8765 12.7535C18.929 12.6333 18.7394 12.5915 18.7394 12.5915H18.8678C18.8678 12.5915 18.8269 12.4688 18.6519 12.4427C18.7132 12.4113 18.7744 12.4348 18.7744 12.4348C18.7744 12.4348 18.7394 12.2833 18.5586 12.265C18.6286 12.2389 18.7044 12.2572 18.7044 12.2572C18.7044 12.2572 18.6811 12.1135 18.4857 12.0717C18.5177 12.0325 18.5994 12.0456 18.5994 12.0456C18.5994 12.0456 18.5207 11.9098 18.4332 11.9176C18.3369 11.9307 17.5318 11.8314 17.5348 11.834Z"
      fill="#07723E"/>
    <path
      d="M16.9572 9.23488C17.1585 9.22966 17.3568 9.22705 17.5581 9.22182C17.5581 9.22182 17.9548 9.22182 17.9985 9.3655C18.0744 9.17219 18.4157 9.18525 18.4157 9.18525C18.6228 9.17742 18.8299 9.16958 19.0369 9.16174C19.0399 9.72337 19.0428 10.2824 19.0486 10.844C18.9261 11.4971 18.5061 11.9568 18.0394 12.1527C17.4852 11.9516 17.1352 11.4291 17.0214 10.8309C17.001 10.3007 16.9806 9.76778 16.9572 9.23488Z"
      fill="white"/>
    <path
      d="M17.1731 9.22965L18.0481 11.8419L18.8386 9.17218C18.5936 9.19047 18.0656 9.12777 18.0015 9.37854C17.8994 9.15651 17.3452 9.24532 17.1731 9.22965Z"
      fill="#0D6C37"/>
    <path
      d="M17.7681 10.6429C17.8031 10.6638 17.8002 9.93496 17.8439 9.91145C17.8556 9.85137 17.8614 9.82525 17.879 9.75994C17.841 9.68419 17.6719 9.68941 17.6077 9.75211C17.6369 9.85398 17.6485 9.88794 17.6485 9.88794C17.736 10.0447 17.7185 10.6585 17.7681 10.6429Z"
      fill="#FFCA06"/>
    <path
      d="M17.5348 5.0133C17.5348 5.0133 17.596 4.93493 17.5989 4.91665C17.6018 4.89836 17.8789 4.8853 18.0452 4.53788C18.1386 4.35502 18.0452 4.46212 18.0452 4.46212L18.0394 4.37331C18.0394 4.37331 18.1561 4.25054 18.1123 4.18523C18.0685 4.11993 18.0831 4.27143 18.016 4.26621C17.949 4.2636 17.984 4.10164 17.984 4.10164C17.984 4.10164 17.9781 4.08335 17.9577 4.07291C17.9285 4.07552 17.9373 4.13299 17.914 4.13821C17.8877 4.14344 17.8673 4.00499 17.8673 4.00499C17.8673 4.00499 17.8264 3.94752 17.7885 4.14343C17.8089 4.35502 17.9285 4.31323 17.9285 4.45168C17.9285 4.59012 17.8206 4.69722 17.7914 4.69983C17.7594 4.70245 17.771 4.58229 17.771 4.58229C17.771 4.58229 17.7535 4.52482 17.7419 4.52482C17.7302 4.52482 17.8031 4.51176 17.7914 4.35502C17.7652 4.16694 17.7477 4.39943 17.701 4.38898C17.6573 4.37853 17.6894 4.21658 17.7069 4.19829C17.7244 4.18001 17.6864 4.10164 17.5902 4.30278C17.5814 4.39943 17.5698 4.27666 17.5493 4.28449C17.5143 4.36286 17.5202 4.42033 17.5698 4.49086C17.6398 4.564 17.6864 4.63453 17.6835 4.67371C17.6806 4.71028 17.6427 4.79649 17.5931 4.79649C17.5435 4.79649 17.596 4.692 17.5931 4.65804C17.5902 4.62408 17.5056 4.4987 17.5056 4.4987C17.5056 4.4987 17.4473 4.39159 17.4531 4.38898C17.4589 4.38637 17.4473 4.3707 17.4181 4.48041C17.3889 4.59012 17.3568 4.40727 17.3568 4.40727C17.3568 4.40727 17.3189 4.5431 17.4006 4.62408C17.3364 4.61363 17.3306 4.64237 17.3306 4.64237C17.3306 4.67894 17.4181 4.69461 17.4298 4.76253C17.4414 4.82783 17.3393 4.86702 17.3393 4.86702C17.3393 4.86702 17.3831 4.93232 17.4998 4.80432C17.5027 4.8853 17.456 4.94277 17.456 4.94277C17.4968 4.96367 17.5289 4.96106 17.5348 5.0133Z"
      fill="#CEAD56"/>
    <path
      d="M17.1468 5.01354C17.1468 5.01354 17.0943 4.92733 17.0914 4.90905C17.0885 4.89076 16.8318 4.92995 16.7122 4.58252C16.6334 4.41534 16.7122 4.5146 16.7122 4.5146L16.718 4.43363C16.718 4.43363 16.6334 4.31869 16.6714 4.25861C16.7064 4.19853 16.6918 4.33697 16.7385 4.33697C16.7968 4.33436 16.7647 4.18808 16.7647 4.18808C16.7647 4.18808 16.7705 4.16979 16.7851 4.16196C16.8085 4.16457 16.8201 4.25077 16.8405 4.256C16.861 4.26122 16.9076 4.15412 16.9193 4.13322C16.9397 4.13061 16.9368 4.04441 16.9689 4.22465C16.9514 4.41534 16.8114 4.37877 16.8114 4.50416C16.8114 4.62954 16.9018 4.72619 16.9281 4.73142C16.9543 4.73403 16.9456 4.62432 16.9456 4.62432C16.9456 4.62432 16.9601 4.57207 16.9689 4.57207C16.9776 4.57207 16.8843 4.59297 16.896 4.4493C16.9164 4.31608 16.966 4.45714 17.0039 4.4493C17.0418 4.44146 16.9981 4.30824 17.0097 4.28734C17.0126 4.26644 17.0681 4.18024 17.0914 4.37355C17.0972 4.46236 17.141 4.29779 17.1585 4.30302C17.1877 4.37355 17.1468 4.4702 17.106 4.5355C17.0476 4.60081 17.0185 4.67395 17.0214 4.70791C17.0243 4.74187 17.0389 4.78366 17.0797 4.78366C17.1235 4.78366 17.0943 4.72358 17.0972 4.69223C17.1001 4.66089 17.1702 4.55901 17.1702 4.55901C17.1847 4.53289 17.1731 4.48587 17.1877 4.46497C17.211 4.46497 17.2197 4.4284 17.2431 4.53028C17.2664 4.62954 17.2956 4.46497 17.2956 4.46497C17.2956 4.46497 17.3277 4.58775 17.2577 4.6635C17.3131 4.65566 17.316 4.68179 17.316 4.68179C17.316 4.71574 17.2897 4.73142 17.281 4.7915C17.2722 4.85158 17.3102 4.88554 17.3102 4.88554C17.3102 4.88554 17.2752 4.94039 17.1731 4.82546C17.1702 4.8986 17.211 4.95084 17.211 4.95084C17.1789 4.96913 17.1526 4.96652 17.1468 5.01354Z"
      fill="#CEAD56"/>
    <path
      d="M18.6928 9.61886C18.6403 9.56661 18.6344 9.61102 18.6082 9.60057C18.5965 9.59535 18.5848 9.58229 18.5732 9.56922C18.5644 9.55878 18.5527 9.55355 18.5411 9.54833C18.5352 9.564 18.5323 9.57967 18.5265 9.59535C18.5207 9.61102 18.5411 9.63714 18.5382 9.66065C18.5352 9.69461 18.5207 9.72596 18.4827 9.73641C18.4944 9.71028 18.5002 9.71028 18.4973 9.67894C18.4944 9.66326 18.4565 9.63714 18.4623 9.62147C18.4682 9.59796 18.4798 9.57184 18.4711 9.54833C18.4565 9.56139 18.4332 9.55355 18.4186 9.56139C18.404 9.56922 18.404 9.59535 18.3865 9.60841C18.3661 9.61886 18.3252 9.61363 18.2873 9.59012C18.3077 9.57184 18.3281 9.5849 18.3486 9.56661C18.3602 9.55616 18.3602 9.51698 18.369 9.50914C18.3807 9.49869 18.4069 9.49086 18.4157 9.48041C18.4069 9.46735 18.4069 9.44906 18.3952 9.436C18.3865 9.42294 18.3427 9.42555 18.3311 9.41249C18.3106 9.38637 18.3165 9.35502 18.2961 9.3289C18.3456 9.3498 18.3398 9.37592 18.3515 9.37592C18.3748 9.36286 18.3982 9.36025 18.4127 9.36547C18.4244 9.3707 18.4507 9.40727 18.4623 9.41249C18.4682 9.39682 18.474 9.37592 18.4798 9.36025C18.4857 9.34457 18.4594 9.31845 18.4623 9.30017C18.4711 9.26882 18.4944 9.24009 18.5061 9.20874C18.509 9.24009 18.5148 9.2636 18.5177 9.29494C18.5207 9.31062 18.5469 9.31845 18.5469 9.33413C18.5498 9.3498 18.5323 9.38376 18.5352 9.39943C18.5498 9.39682 18.5702 9.39943 18.5848 9.39421C18.5994 9.39159 18.6082 9.35241 18.6228 9.3498C18.6519 9.34457 18.6723 9.34457 18.7015 9.35241C18.6811 9.37592 18.6636 9.37331 18.649 9.39421C18.6373 9.40466 18.6519 9.43339 18.6228 9.45429C18.6111 9.46212 18.579 9.45168 18.5702 9.46212C18.579 9.47519 18.5907 9.48825 18.5994 9.49869C18.6082 9.51176 18.6519 9.51698 18.6636 9.53004C18.6869 9.56139 18.6986 9.59273 18.6928 9.61886Z"
      fill="#FFCA06"/>
    <path
      d="M17.3452 9.64498C17.3977 9.59274 17.4035 9.63714 17.4298 9.62669C17.4414 9.62147 17.4531 9.60841 17.4618 9.59535C17.4706 9.5849 17.4823 9.57967 17.4939 9.57445C17.4998 9.59012 17.5027 9.6058 17.5085 9.62147C17.5143 9.63714 17.4939 9.66327 17.4968 9.68678C17.4998 9.72073 17.5143 9.75208 17.5523 9.76253C17.5406 9.73641 17.5348 9.73641 17.5377 9.70506C17.5406 9.68939 17.5785 9.66327 17.5727 9.64759C17.5668 9.62408 17.5552 9.59796 17.5639 9.57445C17.5814 9.58751 17.6018 9.57967 17.6164 9.58751C17.631 9.59535 17.631 9.62147 17.6485 9.63453C17.6689 9.64498 17.7098 9.63976 17.7477 9.61625C17.7273 9.59796 17.7069 9.61102 17.6864 9.59274C17.6748 9.5849 17.6748 9.5431 17.666 9.53527C17.6544 9.52482 17.6281 9.51698 17.6193 9.50653C17.6281 9.49347 17.6281 9.47519 17.6398 9.46213C17.6485 9.44906 17.6923 9.45168 17.7039 9.43862C17.7244 9.41249 17.7185 9.38115 17.7389 9.35502C17.6894 9.37592 17.6952 9.40204 17.6835 9.40204C17.6602 9.38898 17.6369 9.38637 17.6223 9.3916C17.6106 9.39682 17.5843 9.43339 17.5727 9.43862C17.5668 9.42294 17.561 9.40204 17.5552 9.38637C17.5493 9.3707 17.5756 9.34458 17.5727 9.32629C17.5639 9.29494 17.5406 9.26621 17.5289 9.23486C17.526 9.26621 17.5202 9.28972 17.5173 9.32107C17.5143 9.33674 17.4881 9.34458 17.4881 9.36025C17.4852 9.37592 17.5027 9.40988 17.4998 9.42555C17.4852 9.42294 17.4648 9.42555 17.4502 9.42033C17.4356 9.41772 17.4268 9.37853 17.4123 9.37592C17.3831 9.3707 17.3627 9.3707 17.3335 9.37853C17.3539 9.40204 17.3714 9.39943 17.386 9.42033C17.3977 9.43078 17.3831 9.45951 17.4123 9.48041C17.4239 9.48825 17.456 9.4778 17.4648 9.48825C17.456 9.50131 17.4443 9.51437 17.4356 9.52482C17.4268 9.53788 17.3831 9.5431 17.3714 9.55616C17.351 9.58751 17.3422 9.61886 17.3452 9.64498Z"
      fill="#FFCA06"/>
    <path
      d="M18.6461 9.78604C18.5994 9.82784 18.2931 9.91404 18.2902 10.2118C18.2873 10.5096 18.3427 10.5775 18.2873 10.5854C18.1765 10.5854 18.1619 10.2536 18.1648 10.1073C18.1677 9.96106 18.1706 9.98196 18.1706 9.98196C18.1706 9.98196 18.2465 10.0055 18.2406 10.076C18.2348 10.1465 18.3165 9.89837 18.2873 9.83045C18.3369 9.88792 18.404 9.86441 18.404 9.86179C18.404 9.85918 18.3661 9.81216 18.3515 9.7782C18.3369 9.74424 18.4069 9.79649 18.4069 9.79649C18.4069 9.79649 18.4098 9.73902 18.3457 9.74424C18.264 9.74424 18.3573 9.7129 18.3573 9.7129C18.3573 9.7129 18.404 9.76253 18.4361 9.71029C18.4011 9.66849 18.3515 9.64498 18.3515 9.64498C18.3515 9.64498 18.3077 9.55094 18.2465 9.53266C18.1765 9.51437 18.1852 9.56661 18.1065 9.55878C18.0919 9.59274 18.0919 9.59535 18.1211 9.60841C18.0685 9.65021 18.0948 9.7338 18.0948 9.7338C18.0948 9.7338 18.1794 9.692 18.1765 9.75992C18.1736 9.82784 18.1269 9.81739 18.0948 9.77559C18.0656 9.75731 18.0569 9.79388 18.0569 9.79388L18.1006 9.84612C18.1006 9.84612 18.016 9.84351 17.9927 9.9062C18.0394 9.90359 18.0656 9.91665 18.0656 9.91665C18.0656 9.91665 17.9665 9.96628 17.9577 9.9924C17.949 10.0185 17.946 9.96106 17.9431 9.96106C17.9402 9.96106 17.8469 9.92449 17.8469 9.92449L17.8148 10.0864C17.8148 10.0864 17.879 10.157 17.914 10.1335C17.949 10.11 18.0131 10.042 18.051 10.0629C17.9402 10.157 17.8294 10.2928 17.771 10.3111C17.7564 10.2954 17.701 10.2353 17.6806 10.2667C17.6573 10.298 17.6748 10.3346 17.7039 10.332C17.7331 10.3294 17.6135 10.3633 17.6369 10.4182C17.6631 10.4757 17.6602 10.4704 17.6806 10.4548C17.7039 10.4391 17.6631 10.4365 17.7448 10.4104C17.8264 10.3842 17.8235 10.3581 17.8235 10.3581C17.8235 10.3581 17.8089 10.3999 17.7623 10.4104C17.7185 10.4208 17.6835 10.4208 17.6923 10.4365C17.701 10.4522 17.7214 10.4783 17.7156 10.4939C17.7098 10.5096 17.806 10.4156 17.8323 10.4913C17.8994 10.4887 17.9431 10.3973 17.911 10.3451C17.914 10.4025 17.946 10.4208 17.9256 10.4469C17.9081 10.4731 18.0744 10.3607 17.9927 10.2928C18.016 10.3503 18.019 10.3947 18.019 10.3947C18.019 10.3947 18.0569 10.3921 18.0656 10.3764C18.0744 10.3607 18.0481 10.4182 18.0598 10.4286C18.0715 10.4391 18.1327 10.5044 18.1065 10.5488C18.0919 10.5227 18.089 10.4809 18.0685 10.4835C18.051 10.4861 17.9694 10.5514 17.9227 10.554C17.876 10.5566 17.9781 10.7499 17.9781 10.7499C17.9781 10.7499 17.9052 10.7395 17.8965 10.7473C17.8877 10.7552 17.841 10.6794 17.8294 10.7238C17.8148 10.7813 17.8439 10.7578 17.8439 10.7578C17.8439 10.7578 17.8031 10.7343 17.7798 10.7604C17.7564 10.7865 17.736 10.8126 17.7506 10.8257C17.7652 10.8361 17.8352 10.8361 17.8439 10.8335C17.8527 10.8309 17.7652 10.8414 17.7594 10.8518C17.7535 10.8623 17.7419 10.9041 17.7594 10.9197C17.7769 10.9354 17.8264 10.9119 17.8294 10.9015C17.8323 10.891 17.8352 10.9432 17.8352 10.9432C17.8352 10.9432 17.9169 10.9511 17.9169 10.857C17.9169 10.763 17.9227 10.925 17.9227 10.925C17.9227 10.925 18.0044 10.9406 18.0073 10.8466C18.0102 10.7526 18.016 10.9119 18.016 10.9119C18.016 10.9119 18.0685 10.8936 18.0685 10.8779C18.0685 10.8623 18.0656 11.066 18.0277 11.1235C17.9665 11.0791 17.9285 11.1548 17.9285 11.1548C17.9285 11.1548 17.9315 11.2645 17.9256 11.2907C17.9198 11.3168 17.9665 11.275 17.9694 11.2645C17.9723 11.2541 18.0306 11.2228 18.0335 11.2149C18.0365 11.2071 18.051 11.1705 18.051 11.1705C18.051 11.1705 18.0394 11.2228 18.016 11.2306C17.9927 11.2384 17.9723 11.2645 17.981 11.2881C17.9898 11.3116 18.0248 11.3246 18.0365 11.3481C18.0481 11.3716 18.0919 11.2149 18.0919 11.2149L18.0948 11.2489C18.0948 11.2489 18.1502 11.2332 18.159 11.2045C18.1648 11.1731 18.0977 11.147 18.1531 11.1C18.2056 11.0503 18.1531 11.1444 18.1531 11.1444C18.1531 11.1444 18.1706 11.2149 18.1852 11.2149C18.1969 11.2149 18.229 11.0791 18.1969 11.0451C18.1648 11.0112 18.2436 11.0869 18.2436 11.0869C18.2436 11.0869 18.2873 10.9485 18.2406 10.9276C18.194 10.9093 18.1706 10.9015 18.1706 10.9015C18.1706 10.9015 18.1969 10.8649 18.1823 10.8597C18.1706 10.857 18.2494 10.9432 18.2611 10.9197C18.2727 10.8962 18.2931 10.8283 18.1998 10.7917C18.1094 10.7552 18.1969 10.6481 18.1969 10.6481C18.1969 10.6481 18.2552 10.7238 18.2961 10.682C18.3369 10.6402 18.2931 10.6402 18.2931 10.6402C18.2931 10.6402 18.4098 10.5566 18.4127 10.5148C18.3894 10.5122 18.3515 10.5175 18.3515 10.5175C18.3515 10.5175 18.4186 10.4678 18.4011 10.3895C18.3748 10.4313 18.3398 10.4313 18.3398 10.4313C18.3398 10.4313 18.3982 10.366 18.3865 10.3059C18.3515 10.3372 18.3544 10.3581 18.334 10.3503C18.3106 10.3424 18.2727 10.1047 18.3632 10.0891C18.4507 10.0734 18.404 10.2066 18.4069 10.2066C18.4098 10.2066 18.5411 10.1465 18.4069 10.0473C18.439 10.0368 18.5061 10.1047 18.5061 10.1047C18.5061 10.1047 18.4769 9.93755 18.3369 10.0394C18.3719 9.99763 18.3952 9.97151 18.4215 9.97934C18.4477 9.98718 18.5498 9.97673 18.5498 9.94277C18.5236 9.91926 18.4711 9.95322 18.4419 9.94277C18.4332 9.93494 18.6636 9.91404 18.6461 9.78604Z"
      fill="#FFCA06"/>
    <path d="M18.0365 11.1208C18.0365 11.1208 17.9956 11.1731 17.946 11.1783L18.0365 11.1208Z" fill="#E61E25"/>
    <path
      d="M18.1444 9.86963C18.1444 9.86963 18.2115 9.83828 18.2231 9.82522C18.2348 9.80955 18.2581 9.78081 18.264 9.7573C18.2698 9.73379 18.2202 9.69983 18.2436 9.65281C18.2581 9.6293 18.2815 9.62669 18.3194 9.65281C18.3573 9.67894 18.2844 9.56922 18.2465 9.56661C18.2086 9.564 18.1823 9.59796 18.1736 9.59012C18.1648 9.58228 18.1765 9.62147 18.1619 9.62147C18.1473 9.62147 18.194 9.65281 18.1911 9.6711C18.1881 9.68938 18.2406 9.75469 18.2377 9.77036C18.2348 9.7782 18.159 9.86701 18.1444 9.86963Z"
      fill="#0D6C37"/>
    <path
      d="M18.1911 9.62148C18.2202 9.61364 18.2231 9.62148 18.2202 9.65282C18.2056 9.64238 18.1998 9.63715 18.1911 9.62148Z"
      fill="#FFCA06"/>
    <path
      d="M17.9898 11.3011C17.9898 11.3011 17.9781 11.3795 18.0044 11.3873C18.0044 11.356 18.0102 11.3351 18.016 11.3273C18.0102 11.3247 17.9898 11.3011 17.9898 11.3011Z"
      fill="#E61E25"/>
    <path
      d="M17.9315 11.2045C17.9081 11.1992 17.8673 11.2228 17.8789 11.2515C17.8994 11.2306 17.9169 11.2541 17.9315 11.2332C17.9315 11.228 17.9315 11.2097 17.9315 11.2045Z"
      fill="#E61E25"/>
    <path
      d="M17.9285 11.147C17.9285 11.147 17.8906 11.1392 17.8848 11.1705C17.911 11.1653 17.9198 11.1627 17.9285 11.1705C17.9315 11.1627 17.9285 11.1496 17.9285 11.147Z"
      fill="#E61E25"/>
    <path d="M17.771 10.703C17.771 10.703 17.7944 10.7134 17.8002 10.7395C17.8177 10.7265 17.8264 10.669 17.771 10.703Z"
          fill="#E61E25"/>
    <path
      d="M17.7156 10.7708C17.7156 10.7708 17.7623 10.7369 17.7681 10.7682C17.7594 10.7787 17.7535 10.7865 17.7477 10.7891C17.7389 10.7891 17.7273 10.7682 17.7156 10.7708Z"
      fill="#E61E25"/>
    <path
      d="M17.7098 10.8779C17.7098 10.8779 17.7389 10.8466 17.7506 10.8675C17.7623 10.8884 17.7419 10.8858 17.7419 10.8858C17.7419 10.8858 17.7302 10.8805 17.7098 10.8779Z"
      fill="#E61E25"/>
    <path
      d="M17.6689 10.2719C17.6689 10.2719 17.631 10.2562 17.6164 10.285C17.6398 10.2876 17.6485 10.298 17.6602 10.3085C17.6573 10.2954 17.6514 10.2771 17.6689 10.2719Z"
      fill="#E61E25"/>
    <path
      d="M17.5989 10.4992C17.5989 10.4992 17.6018 10.4469 17.6223 10.426C17.6339 10.4339 17.6368 10.4469 17.6456 10.46C17.6281 10.4678 17.6077 10.4678 17.5989 10.4992Z"
      fill="#E61E25"/>
    <path
      d="M17.6952 10.4626C17.6952 10.4626 17.6543 10.4861 17.6689 10.5096C17.6835 10.4939 17.6981 10.4992 17.6981 10.4965C17.6952 10.4965 17.6952 10.4652 17.6952 10.4626Z"
      fill="#E61E25"/>
    <path
      d="M17.6369 9.97149C17.6223 9.98978 17.6544 10.0342 17.6894 10.0263C17.6981 9.98194 17.6456 9.95843 17.6369 9.97149Z"
      fill="#FFCA06"/>
    <path
      d="M17.6748 9.93751C17.6748 9.93751 17.6806 9.97408 17.7098 9.96363C17.7039 9.9349 17.6835 9.914 17.6835 9.914C17.6835 9.92184 17.6894 9.9349 17.6748 9.93751Z"
      fill="#E61E25"/>
    <path
      d="M17.6952 10.042C17.6952 10.042 17.7127 10.0629 17.7448 10.0211C17.7302 10.0264 17.7039 10.0107 17.7039 10.0107C17.7039 10.0107 17.7039 10.0394 17.6952 10.042Z"
      fill="#E61E25"/>
    <path
      d="M17.6368 9.88792C17.6223 9.9062 17.6427 9.93494 17.6777 9.9271C17.6835 9.88269 17.6427 9.87485 17.6368 9.88792Z"
      fill="#FFCA06"/>
    <path
      d="M17.6485 9.70767C17.6485 9.70767 17.7856 9.66326 17.8556 9.72856C17.9285 9.79387 17.9285 9.73379 17.9285 9.73379C17.9285 9.73379 18.0335 9.7782 18.0656 9.76775C18.0948 9.7573 18.0423 9.77036 18.086 9.74162C18.1269 9.71289 18.0015 9.74685 17.9927 9.68938C17.9723 9.65281 17.9956 9.60579 17.9519 9.62146C17.9227 9.57706 17.9723 9.54832 17.9606 9.5013C17.9315 9.52743 17.914 9.49085 17.8877 9.55355C17.8294 9.54049 17.879 9.45167 17.8148 9.44122C17.8148 9.50653 17.7681 9.50914 17.7652 9.54571C17.736 9.57183 17.6135 9.65281 17.6485 9.70767Z"
      fill="url(#paint1_linear)"/>
    <path
      d="M16.0851 14.6604C16.1726 14.6369 16.6509 14.778 16.8347 15C16.7968 14.6056 16.6976 14.3052 16.6976 14.3052C16.6976 14.3052 16.4118 14.2137 16.3738 14.2581C16.3155 14.3234 16.1434 14.5272 16.0851 14.6604Z"
      fill="#BF2026"/>
    <path
      d="M15.9392 12.8397C15.9071 12.8449 15.8721 12.8711 15.8401 12.9338C15.8021 13.0409 15.773 13.3099 15.7176 13.37C15.6621 13.4301 15.6125 13.4379 15.6125 13.4954C15.6125 13.5529 15.6184 13.6835 15.7701 13.7331C15.9217 13.7383 16.1609 13.464 16.1609 13.464C16.1609 13.464 16.2834 13.3151 16.333 13.1506C16.0384 13.2655 15.8313 12.9651 15.9392 12.8397Z"
      fill="#BF2026"/>
    <path
      d="M20.1395 14.5977C20.052 14.5742 19.5678 14.7153 19.387 14.9347C19.4249 14.5429 19.5241 14.2425 19.5241 14.2425C19.5591 14.232 19.8041 14.151 19.842 14.1955C19.8974 14.2634 20.0783 14.4645 20.1395 14.5977Z"
      fill="#BF2026"/>
    <path
      d="M20.2737 12.7874C20.3058 12.7926 20.3175 12.8423 20.3466 12.905C20.3845 13.0095 20.4254 13.1636 20.4808 13.2263C20.5362 13.289 20.5858 13.3804 20.5858 13.4352C20.5858 13.4901 20.5741 13.5659 20.4254 13.6155C20.2766 13.6207 20.0579 13.4065 20.0579 13.4065C20.0579 13.4065 19.9353 13.2576 19.8858 13.0957C20.1745 13.2106 20.3612 12.9232 20.2737 12.7874Z"
      fill="#BF2026"/>
    <path
      d="M15.7701 14.3156C15.7701 14.3156 16.0705 14.5481 16.0763 14.6526C16.8872 13.3073 18.9524 12.8893 20.1308 14.5585C20.2883 14.326 20.4487 14.2529 20.4487 14.2529C19.212 12.44 16.7414 12.6647 15.7701 14.3156Z"
      fill="#FEBB12"/>
    <path
      d="M18.8444 9.17217L18.9611 9.16956L18.7511 9.46735L19.0049 9.7991L18.5061 10.5018L18.9757 11.1339C18.9232 11.275 18.8649 11.4056 18.7832 11.5205L18.5148 11.1862L19.0049 10.5044L18.6023 9.99501L18.8444 9.17217Z"
      fill="#215BA7"/>
    <path
      d="M17.1556 9.23224L17.0301 9.23485L17.2664 9.52219L17.0156 9.87223L17.5377 10.5044L17.1089 11.1496C17.1614 11.2907 17.2343 11.4474 17.3131 11.5649L17.5698 11.2018L17.0447 10.5462L17.4298 9.99762L17.1556 9.23224Z"
      fill="#215BA7"/>
    <path
      d="M17.7419 10.9328L17.5552 11.2097L18.2173 12.0691C18.334 12.0038 18.4273 11.928 18.5265 11.8366L18.1794 11.3899L18.3194 10.9276L18.5207 11.1888L17.8877 12.0926C17.7827 12.043 17.666 11.9646 17.5581 11.8653L17.8935 11.3899L17.7419 10.9328Z"
      fill="#215BA7"/>
    <path d="M17.5377 10.5018L17.6573 10.6716L17.5785 10.4417L17.5377 10.5018Z" fill="#215BA7"/>
    <path d="M18.4011 10.6507C18.404 10.6481 18.4973 10.507 18.4973 10.507L18.4594 10.4495L18.4011 10.6507Z"
          fill="#215BA7"/>
    <path
      d="M19.6349 8.64972C19.6349 8.64972 20.0345 8.668 20.0345 8.71241C20.0345 8.75682 19.737 8.84041 19.7312 9.02326C19.7282 9.20873 19.9587 9.22179 19.9733 9.45428C19.9878 9.68677 19.7924 9.72334 19.7545 9.78342C19.7137 9.81476 19.6203 10.1439 19.632 10.3372C19.6437 10.5305 19.6962 11.1862 19.7837 11.3168C19.8537 11.3795 19.9616 11.5754 20.0754 11.5153C20.1891 11.4526 20.1104 11.2306 20.0987 11.1679C20.087 11.1052 20.1454 11.0059 20.1454 10.9119C20.1454 10.8205 20.1016 10.7447 20.1074 10.7238C20.1104 10.7029 20.4254 10.8074 20.405 11.1548C20.3845 11.5022 20.2591 11.3951 20.2591 11.3951C20.2591 11.3951 20.297 11.8209 20.2008 11.8784C20.0228 11.9829 19.8945 11.8575 19.8945 11.8575L19.912 11.9437L19.7778 11.8653C19.7778 11.8653 19.6057 11.5885 19.5649 11.4657C19.527 11.3429 19.4774 10.7943 19.4949 10.6742C19.5095 10.5566 19.5211 9.86178 19.5153 9.82521C19.5066 9.79125 19.4774 9.21134 19.4949 9.12253C19.5182 9.03633 19.6378 8.64972 19.6349 8.64972Z"
      fill="url(#paint2_linear)"/>
    <path
      d="M19.2032 8.5374C19.2032 8.5374 19.4832 8.23438 19.6437 8.26834C19.7253 8.26834 19.6466 8.33365 19.6466 8.33365C19.6466 8.33365 19.7866 8.34671 19.807 8.41724C19.8099 8.44858 19.7399 8.45642 19.7399 8.45642C19.7399 8.45642 19.7983 8.46948 19.8041 8.52695C19.807 8.58442 19.2061 8.54001 19.2032 8.5374Z"
      fill="#F37121"/>
    <path
      d="M20.3029 12.0247C20.3029 12.0247 20.4925 11.9751 20.5421 11.9019C20.5741 11.8758 20.7375 12.1788 20.3029 12.0247Z"
      fill="white"/>
    <path
      d="M19.842 8.43032C19.842 8.43032 19.8945 8.58967 20.0579 8.43816C19.9528 8.27882 19.842 8.43555 19.842 8.43032Z"
      fill="#C65E28"/>
    <path
      d="M19.9645 8.4251C19.9645 8.43293 19.9558 8.44077 19.947 8.44077C19.9383 8.44077 19.9295 8.43293 19.9295 8.4251C19.9295 8.41726 19.9383 8.40942 19.947 8.40942C19.9558 8.40942 19.9645 8.41726 19.9645 8.4251Z"
      fill="#010101"/>
    <path
      d="M18.4944 8.06458C18.4944 8.06458 18.8065 8.44334 19.0107 8.43812C19.0486 8.55044 18.9174 8.65232 18.8678 8.70195C18.7657 8.66538 18.6723 8.70979 18.4332 8.38065C18.4477 8.16906 18.5002 8.07241 18.4944 8.06458Z"
      fill="white"/>
    <path
      d="M18.9174 7.18425C18.9582 7.04319 19.0399 6.93348 19.1099 6.92042C19.0924 6.81332 19.2557 6.34051 19.7399 6.15765C19.7691 6.40059 19.5328 6.6383 19.5328 6.6383C19.5328 6.6383 20.2416 6.50247 20.3845 6.30133C20.37 6.39275 20.227 6.95699 19.4686 6.95177C19.7545 7.25739 19.3782 7.50033 19.2149 7.42458C19.5124 7.17119 19.1303 7.01968 18.9174 7.18425Z"
      fill="white"/>
    <path
      d="M19.1595 6.98574C19.3024 6.88386 19.3549 6.88386 19.4716 6.90215C19.387 6.91521 19.387 6.91782 19.387 6.91782C19.387 6.91782 19.3782 6.93088 19.4307 6.98312C19.3753 6.97006 19.3228 6.93349 19.1595 6.98574Z"
      fill="#CDCDCD"/>
    <path
      d="M18.8619 8.70198C18.8619 8.70198 19.2528 8.82214 19.2966 8.19521C19.212 7.92354 19.0953 7.33841 19.2732 7.17123C19.107 7.04323 18.9261 7.17645 18.9261 7.17645C18.9144 7.20518 18.7686 7.44028 18.9669 7.8504C18.4973 7.70934 18.6869 8.20827 18.6869 8.20827C18.7044 8.12991 18.9553 8.05676 19.0165 8.45643C19.0457 8.55308 18.8532 8.7072 18.8619 8.70198Z"
      fill="#3A53A4"/>
    <path
      d="M19.2995 8.20045C19.2995 8.20045 19.7107 7.95229 19.6991 7.37238C19.3491 7.38021 19.2236 7.88698 19.2236 7.88698L19.2995 8.20045Z"
      fill="#3A53A4"/>
    <path
      d="M17.456 8.17169C17.456 8.17169 17.1497 8.46687 16.9776 8.37283C16.8493 8.45903 16.6976 8.30753 16.6976 8.30753C16.6976 8.30753 16.8726 9.03633 17.5056 8.50867C17.4939 8.34932 17.4618 8.18475 17.456 8.17169Z"
      fill="white"/>
    <path
      d="M16.9718 8.35976C16.9981 8.20825 17.1031 8.1325 17.1877 8.27617C17.3014 8.30229 17.4152 7.77724 17.0097 7.86344C17.1235 7.17904 16.7822 6.92566 16.7822 6.92566C16.7822 6.92566 16.6597 7.6832 16.7151 7.82426C16.7705 7.96532 16.6334 7.56565 16.1959 7.45332C16.1872 8.0254 16.6859 8.29184 16.6859 8.29184C16.6859 8.29184 16.8289 8.43813 16.9718 8.35976Z"
      fill="#3A53A4"/>
    <path
      d="M16.7297 7.213C16.7297 7.20777 16.438 7.213 16.613 7.54214C16.4847 7.58654 16.1988 7.37757 16.3972 7.09806C15.7467 7.08239 15.4813 6.73235 15.4813 6.41105C15.6738 6.63309 16.1288 6.54166 16.2893 6.6775C16.0909 6.47113 16.1317 6.1864 16.1317 6.1864C16.1317 6.1864 16.6859 6.37187 16.7851 6.92304C16.753 7.03014 16.7385 7.22084 16.7297 7.213Z"
      fill="white"/>
    <path
      d="M16.4088 7.02234C16.4088 7.02234 16.6364 6.98839 16.7035 7.07981C16.613 7.07981 16.5839 7.0563 16.4555 7.10855C16.4905 7.08765 16.4818 7.05108 16.5022 7.05108C16.5226 7.05108 16.4205 7.02234 16.4088 7.02234Z"
      fill="#CDCDCD"/>
    <path
      d="M17.5464 5.02662C17.5464 5.02662 17.6719 4.90385 17.806 5.01356C17.7448 5.21993 17.5231 5.14156 17.5231 5.14156C17.5231 5.14156 17.5318 5.24344 17.5085 5.29307C17.5523 5.32964 17.5902 5.45241 17.5902 5.45241C17.5902 5.45241 17.8177 5.38972 17.8673 5.50205C17.9548 5.48898 18.019 5.50205 18.019 5.50205C18.019 5.50205 18.1969 5.45241 18.2581 5.45241C18.3194 5.45241 18.5177 5.50988 18.5382 5.55168C18.5557 5.59347 18.6228 5.86775 18.6665 5.86514C18.7103 5.85992 18.5586 5.93045 18.5207 5.85992C18.4798 5.78939 18.4915 5.95135 18.4915 5.95135C18.4915 5.95135 18.6169 6.10024 18.6315 6.13159C18.6461 6.16555 18.5557 6.43199 18.6228 6.61746C18.5615 6.62268 18.5557 6.69582 18.5557 6.69582C18.5527 6.7768 18.4594 6.7977 18.4594 6.7977L18.4361 6.68538L18.3748 6.72717L18.4011 6.64097C18.4011 6.64097 18.4857 6.41109 18.4944 6.33534C18.5032 6.2622 18.4186 6.12898 18.3515 6.12898C18.2844 6.12898 18.2377 6.36407 18.2377 6.36407C18.2377 6.36407 18.2056 6.5417 18.2144 6.55738C18.2261 6.57305 18.1706 6.49991 18.1706 6.49991C18.1706 6.49991 18.1415 6.60701 18.1181 6.64097C18.0948 6.67493 18.0481 6.68538 18.0481 6.68538C18.0481 6.68538 18.016 6.57827 18.0248 6.53648C18.0335 6.49468 18.2056 6.33534 18.1911 6.2204C18.1765 6.10547 18.1911 6.1342 18.1881 6.12898C18.1852 6.12375 18.1006 6.04277 18.0977 5.99837C18.0948 5.95396 17.9869 6.05583 17.8469 6.02187C17.8031 6.10547 17.8002 6.31444 17.8002 6.31444C17.8002 6.31444 17.7856 6.56521 17.8148 6.59395C17.8439 6.62268 17.7419 6.68538 17.7419 6.68538L17.6689 6.7977C17.6689 6.7977 17.6427 6.72717 17.6427 6.73239C17.6427 6.73762 17.5902 6.77419 17.5902 6.77419L17.6193 6.6906C17.6164 6.62791 17.6923 6.45811 17.6923 6.31444C17.6923 6.17077 17.701 6.01665 17.701 6.01665C17.701 6.01665 17.5639 6.00881 17.5698 6.16555C17.5727 6.32228 17.5377 6.33012 17.5435 6.37452C17.5523 6.41893 17.5873 6.54693 17.5756 6.5835C17.5639 6.62007 17.5202 6.63313 17.5202 6.63313L17.5085 6.65403C17.5085 6.65403 17.3714 6.72456 17.3772 6.75329C17.3802 6.78203 17.3743 6.6697 17.3743 6.6697L17.3627 6.55476C17.3627 6.55476 17.4443 6.4973 17.4443 6.35363C17.4443 6.20995 17.4268 6.18906 17.4298 6.1551C17.4327 6.12114 17.4531 6.00359 17.4473 5.99053C17.4443 5.97747 17.3714 6.02449 17.3481 6.02449C17.3247 6.02449 17.3889 5.93828 17.3948 5.87559C17.4035 5.8129 17.3218 5.93306 17.2547 5.86253C17.2868 5.78678 17.3306 5.76327 17.3393 5.7058C17.3481 5.64833 17.2868 5.75543 17.2372 5.71363C17.2402 5.65878 17.2927 5.61176 17.2927 5.61176C17.2927 5.61176 17.2518 5.60653 17.2343 5.61176C17.2022 5.5987 17.2722 5.54123 17.2752 5.46025C17.2781 5.37666 17.2343 5.34531 17.2343 5.34009C17.2343 5.33486 17.1614 5.26695 17.1497 5.23821C17.1381 5.20948 17.1381 5.17552 17.1381 5.17552C17.1381 5.17552 17.0156 5.27478 16.8726 5.0632C17.0039 4.93781 17.1439 5.02924 17.1439 5.02924C17.1439 5.02924 17.1818 4.9143 17.351 4.92214C17.5202 4.93259 17.5552 5.03969 17.5464 5.02662Z"
      fill="#924220"/>
    <path
      d="M18.4711 7.15558C18.474 7.15558 18.7832 7.16603 18.7861 7.35149C18.789 7.53696 18.6898 7.48733 18.6869 7.48733C18.684 7.48733 18.4594 7.45598 18.4594 7.45598L18.4711 7.15558Z"
      fill="#3A53A4"/>
    <path
      d="M18.1706 7.10333C18.1706 7.10333 18.5557 7.10072 18.5352 7.2888C18.5148 7.47688 18.4157 7.44031 18.4157 7.44031L18.229 7.42202L18.1706 7.10333Z"
      fill="white"/>
    <path
      d="M17.9548 7.0824L18.1794 7.1033C18.1794 7.1033 18.3136 7.12419 18.3077 7.26787C18.3019 7.41154 18.1706 7.41415 18.1706 7.41415L17.9519 7.40109L17.9548 7.0824Z"
      fill="#3A53A4"/>
    <path
      d="M17.4298 7.15558C17.4268 7.15558 17.1176 7.16603 17.1147 7.35149C17.1118 7.53696 17.211 7.48733 17.2139 7.48733C17.2168 7.48733 17.4414 7.45598 17.4414 7.45598L17.4298 7.15558Z"
      fill="white"/>
    <path
      d="M17.7302 7.10333C17.7302 7.10333 17.3452 7.10072 17.3656 7.2888C17.386 7.47688 17.4852 7.44031 17.4852 7.44031L17.6719 7.42202L17.7302 7.10333Z"
      fill="#3A53A4"/>
    <path
      d="M17.949 7.0824L17.7244 7.1033C17.7244 7.1033 17.5902 7.12419 17.596 7.26787C17.6018 7.41154 17.7331 7.41415 17.7331 7.41415L17.9519 7.40109L17.949 7.0824Z"
      fill="white"/>
    <path
      d="M18.5469 9.16438C18.5469 9.16438 18.7073 8.89793 18.7744 8.92667C18.8328 8.94756 18.789 9.15393 18.7598 9.17221L18.5469 9.16438Z"
      fill="#5E1044"/>
    <path
      d="M17.4443 9.21137C17.3948 9.13301 17.3189 8.91358 17.2518 8.97366C17.1935 8.99456 17.2372 9.20093 17.2664 9.21921L17.4443 9.21137Z"
      fill="#5E1044"/>
    <path
      d="M17.5814 7.83994L17.6427 7.75635L17.9431 7.92614L18.2494 7.77463L18.3106 7.84516L17.9694 8.11422L17.5814 7.83994Z"
      fill="#5E1044"/>
    <path
      d="M17.3422 7.83733C17.3656 7.87128 17.561 8.13512 17.596 8.35454C17.631 8.57397 17.5756 8.05414 17.5756 8.05414C17.5756 8.05414 17.8148 8.18736 17.8235 8.27095C17.8323 8.35454 17.9373 8.26573 17.9431 8.25005L17.246 7.74329L17.3422 7.83733Z"
      fill="#484848"/>
    <path
      d="M18.5323 7.82166C18.5323 7.82166 18.2786 8.1952 18.3106 8.60009C18.2581 8.40418 18.3019 8.08288 18.3019 8.08288L18.2465 8.12206C18.2465 8.12206 18.1881 8.39634 18.1152 8.43814C18.1035 8.40418 18.1065 8.39373 18.1065 8.39373C18.1065 8.39373 18.0277 8.50605 18.0131 8.5165C17.9985 8.52695 18.019 8.89527 18.019 8.89527C18.019 8.89527 18.0452 9.16172 18.0744 9.1591C18.0394 9.17739 17.9985 9.20612 17.9985 9.20612L17.9665 8.4956L18.0365 8.41463C18.0365 8.41463 18.1327 8.28663 18.1386 8.15863C18.0977 8.19781 18.051 8.20826 18.051 8.20826C18.051 8.20826 18.0394 8.3885 18.0015 8.41201C17.9635 8.43814 17.9635 8.48516 17.9635 8.48516L17.9548 8.25006L18.5323 7.82166Z"
      fill="#484848"/>
    <path
      d="M17.1789 7.68843L17.9519 8.25528L18.649 7.73023C18.649 7.73023 18.7948 7.64141 18.7832 7.57611C18.7715 7.5108 18.7219 7.53693 18.6957 7.54737C18.6694 7.55782 17.9665 8.11684 17.9665 8.11684L17.2168 7.58656C17.2168 7.58656 17.1614 7.56827 17.1526 7.60746C17.141 7.64664 17.1701 7.67015 17.1789 7.68843Z"
      fill="#B5B6B9"/>
    <path
      d="M18.5615 7.54212C18.5615 7.54212 18.3632 7.44808 18.3632 7.52906C18.3632 7.61004 18.369 7.61788 18.4011 7.67012C18.4332 7.72236 18.3777 7.75632 18.3777 7.75632C18.3777 7.75632 18.369 7.73281 18.3602 7.69885C18.3486 7.66228 18.2436 7.63877 18.2319 7.59698C18.2231 7.55518 18.2552 7.48727 18.1911 7.47943C18.1269 7.47159 18.0656 7.50816 18.054 7.58914C18.0394 7.67012 17.9577 7.86081 17.9577 7.86081L17.9694 7.42719C18.1094 7.43763 18.369 7.47159 18.5673 7.49771C18.509 7.48727 18.5907 7.50294 18.5878 7.52384C18.5819 7.54735 18.5615 7.54735 18.5615 7.54212Z"
      fill="#484848"/>
    <path
      d="M17.8615 7.43243C17.8264 7.43243 17.6485 7.45594 17.6048 7.48468C17.561 7.51341 17.6777 7.56043 17.6631 7.59961C17.6485 7.6388 17.6456 7.71977 17.5902 7.70149C17.5348 7.68582 17.3452 7.58133 17.3393 7.54476C17.3335 7.50819 17.2956 7.50819 17.2956 7.50819C17.2956 7.50819 17.8352 7.42721 17.8615 7.43243Z"
      fill="#484848"/>
    <path
      d="M17.981 6.74805C17.981 6.74805 18.0744 6.89172 18.0656 6.93351C18.1035 6.96747 18.1473 7.10069 18.1473 7.10069"
      fill="url(#paint3_linear)"/>
    <path
      d="M17.3014 5.19115C17.2956 5.20944 17.2693 5.21727 17.2431 5.20683C17.2168 5.19638 17.1964 5.17548 17.2022 5.15719C17.2081 5.13891 17.2314 5.13107 17.2606 5.14152C17.2868 5.15197 17.3043 5.17287 17.3014 5.19115Z"
      fill="#010101"/>
    <path
      d="M17.3831 5.18596C17.3889 5.20425 17.4123 5.21209 17.4414 5.20164C17.4677 5.19119 17.4881 5.17029 17.4823 5.15201C17.4764 5.13372 17.4531 5.12588 17.4239 5.13633C17.3977 5.14417 17.3772 5.16768 17.3831 5.18596Z"
      fill="#010101"/>
    <path
      d="M19.772 11.8601C19.772 11.8601 19.6962 11.8758 19.6991 11.8836C19.702 11.8915 19.4803 11.8993 19.4745 11.8915C19.4686 11.8836 19.4424 11.9332 19.4424 11.9332L19.4774 11.9097C19.4774 11.9097 19.5328 11.9724 19.5474 11.9672C19.5649 11.962 19.5416 11.9907 19.5445 11.9959C19.5503 12.0012 19.5649 11.9855 19.5649 11.9855L19.9324 11.9777L19.772 11.8601Z"
      fill="#F37121"/>
    <path
      d="M19.9091 11.9882L19.6087 11.9986C19.6087 11.9986 19.5328 12.0744 19.527 12.0926C19.5211 12.1109 19.5766 12.1162 19.5766 12.1162L19.5941 12.1789L19.632 12.1632C19.632 12.1632 19.8887 12.205 20.122 12.1475C20.2416 12.1005 20.262 12.0456 20.1774 12.0117C20.0958 11.9803 19.912 11.9908 19.9091 11.9882Z"
      fill="#F37121"/>
    <path
      d="M18.8794 12.6778L19.4191 12.6516L19.317 12.555L20.7783 12.4897L20.7287 12.3591L19.0924 12.4322L19.2878 12.5341L18.8444 12.5498L18.859 12.602L18.7423 12.5968C18.7482 12.5968 18.8765 12.6542 18.8794 12.6778Z"
      fill="url(#paint4_linear)"/>
    <path
      d="M19.4861 9.33674C19.4424 9.31323 19.2557 9.28449 19.0428 9.43861L19.0515 9.98195C19.0515 9.98195 19.3607 9.79387 19.5095 9.83828C19.5036 9.66849 19.5036 9.45168 19.4861 9.33674Z"
      fill="url(#paint5_linear)"/>
    <path
      d="M16.4351 8.80904C16.4351 8.80904 16.3972 8.94748 16.4351 9.0154C16.473 9.08332 16.721 9.63972 16.721 9.63972C16.721 9.63972 16.8872 9.40723 16.9514 9.40201C17.0126 9.39678 16.9835 10.0028 16.9835 10.0028C16.9835 10.0028 16.8843 10.1099 16.8201 10.1021C16.7589 10.0969 16.9718 10.3398 16.966 10.5462C16.9601 10.7525 16.6859 11.7791 16.5868 11.7974C16.4876 11.8157 16.6305 11.6093 16.6247 11.5545C16.6189 11.497 16.5926 11.5362 16.5693 11.4735C16.5459 11.4108 16.6014 11.3168 16.5926 11.2541C16.5809 11.1914 16.5314 11.2044 16.5255 11.16C16.5197 11.1156 16.5576 11.1026 16.5547 11.0529C16.5489 11.0033 16.4876 11.0164 16.4934 10.9719C16.4993 10.9275 16.5051 10.9458 16.4993 10.8648C16.4934 10.7839 16.4818 10.9223 16.4205 10.9275C16.3593 10.9328 16.3097 11.0895 16.3097 11.0895C16.3097 11.0895 16.1872 11.2828 16.0647 11.1966C16.1376 11.3716 16.0822 11.4474 16.053 11.4526C16.0238 11.4578 16.0763 11.591 16.0092 11.5963C15.9421 11.6015 16.0588 11.8914 15.9801 11.915C16.0647 11.9594 15.9976 12.0142 15.9976 12.0142C15.9976 12.0142 15.8051 12.0325 15.8459 12.3146C15.2742 12.09 14.9942 11.7034 15 11.3089C15.0058 10.9145 15.1167 10.5592 15.3909 10.4286C15.4696 10.1021 15.6038 9.75204 15.6038 9.75204C15.6038 9.75204 15.5805 9.60837 15.598 9.51433C15.6155 9.42029 15.6942 9.32625 15.6942 9.32625C15.6942 9.32625 15.6825 9.1016 15.6884 8.98928C15.6942 8.87695 15.7321 8.82732 15.738 8.76463C15.7438 8.70194 15.7205 8.38325 15.7759 8.32578C15.8313 8.26831 15.9392 8.27615 15.9946 8.23958C16.0501 8.20301 16.123 8.13248 16.1959 8.14031C16.2688 8.14554 16.3301 8.203 16.3301 8.203C16.3301 8.203 16.6043 8.203 16.6218 8.32055C16.6393 8.44072 16.5664 8.48251 16.5664 8.48251C16.5664 8.48251 16.6043 8.65231 16.4351 8.80904Z"
      fill="#8A9395"/>
    <path
      d="M16.193 8.37546C16.2017 8.39375 16.1813 8.4251 16.1492 8.44599C16.1172 8.46689 16.0822 8.46689 16.0734 8.44861C16.0647 8.43032 16.0851 8.39897 16.1172 8.37808C16.1492 8.35718 16.1842 8.35718 16.193 8.37546Z"
      fill="#CED0D0"/>
    <path
      d="M16.1463 8.40682C16.1463 8.41727 16.1376 8.42772 16.1259 8.42772C16.1142 8.42772 16.1055 8.41727 16.1055 8.40682C16.1055 8.39637 16.1142 8.38593 16.1259 8.38593C16.1376 8.38593 16.1463 8.39376 16.1463 8.40682Z"
      fill="#010101"/>
    <path
      d="M16.7239 9.65545C16.7239 9.65545 16.9076 9.39684 16.9514 9.40729C16.9951 9.41774 16.9806 10.0055 16.9806 10.0055C16.9806 10.0055 16.8435 10.1204 16.8143 10.1152C16.7851 10.11 16.9689 10.3921 16.9631 10.4966C16.9601 10.6011 16.9543 10.6011 16.9543 10.6011C16.9543 10.6011 16.9543 10.5384 16.9106 10.4391C16.8668 10.3398 16.893 10.2249 16.6159 9.97153C16.5489 9.81479 16.753 10.0682 16.7939 10.029C16.8405 9.98981 16.721 9.66067 16.7239 9.65545Z"
      fill="#2B2C2B"/>
    <path
      d="M15.9596 8.50342C15.9596 8.50342 15.843 8.63403 15.9013 8.6497C15.9567 8.66538 16.018 8.54783 16.018 8.54783C16.018 8.54783 16.018 8.74897 16.0676 8.71762C16.1172 8.68627 16.2601 8.57134 16.2601 8.57134C16.2601 8.57134 16.3097 8.56611 16.3184 8.57134C16.3301 8.57395 16.4526 8.69411 16.5314 8.6497C16.4847 8.78292 16.4322 8.7986 16.4322 8.7986C16.4322 8.7986 16.3476 8.92137 16.2397 8.89264C16.1317 8.8639 16.1026 8.81427 16.1026 8.81427C16.1026 8.81427 16.0122 8.82211 15.983 8.77509C15.9538 8.72807 15.9451 8.69933 15.9451 8.69933C15.9451 8.69933 15.8926 8.75942 15.878 8.73068C15.8663 8.70456 15.878 8.5426 15.9596 8.50342Z"
      fill="#2B2C2B"/>
    <path
      d="M16.648 8.31537C16.648 8.3441 16.6305 8.36761 16.6072 8.36761C16.5839 8.36761 16.5664 8.3441 16.5664 8.31537C16.5664 8.28663 16.5839 8.26312 16.6072 8.26312C16.6305 8.26312 16.648 8.28924 16.648 8.31537Z"
      fill="#010101"/>
    <path
      d="M16.0267 8.92658C16.0267 8.92658 16.1142 9.07809 16.2193 9.11727C16.3243 9.15907 16.1463 9.19303 16.0442 9.11466C15.9684 8.99973 15.9888 8.91613 15.9888 8.91613C15.9888 8.91613 16.0063 8.89785 16.0267 8.92658Z"
      fill="#2B2C2B"/>
    <path
      d="M16.7735 9.81478C16.7735 9.81478 16.5284 9.43339 16.4584 9.4125C16.3884 9.3916 16.5109 9.37593 16.5868 9.4569C16.6626 9.53788 16.5664 9.32629 16.5664 9.32629L16.7735 9.81478Z"
      fill="#2B2C2B"/>
    <path
      d="M16.0034 12.0169C16.0967 11.9881 16.508 12.2807 16.5984 12.3538C16.6918 12.427 16.8843 12.38 16.8843 12.38C16.8843 12.38 16.7939 12.44 16.7414 12.4557C16.686 12.4714 16.9047 12.4714 16.9047 12.4714C16.9047 12.4714 16.3797 12.6334 15.8488 12.3199C15.7992 12.0743 15.9626 12.0195 16.0034 12.0169Z"
      fill="#2B2C2B"/>
    <path
      d="M16.6014 9.9088C16.6014 9.9088 16.5314 9.89313 16.4964 9.84872C16.4614 9.80431 16.4118 9.69199 16.3593 9.64497C16.3068 9.59795 16.0472 9.43861 15.9538 9.44905C15.8605 9.4595 15.8313 9.43861 15.8196 9.42554C15.808 9.41248 15.7701 9.43077 15.7759 9.48562C15.7817 9.54048 15.703 9.66064 15.7321 9.7155C15.7613 9.77297 15.8955 10.0002 15.9217 10.0081C15.948 10.0159 15.9305 10.1413 15.9305 10.1413C15.9305 10.1413 16.0501 10.2771 16.0792 10.285C16.1084 10.2928 16.1405 10.3163 16.1376 10.3477C16.1347 10.379 16.0063 10.554 16.0063 10.554C16.0063 10.554 15.8692 10.635 15.8663 10.6794C15.8634 10.7238 15.9013 10.8178 16.0092 10.8492C16.1172 10.8805 16.4118 10.8544 16.4263 10.8257C16.4409 10.7969 16.4643 10.6272 16.4555 10.6115C16.4468 10.5958 16.3738 10.5436 16.3359 10.5514C16.298 10.5592 16.2659 10.5932 16.2688 10.601C16.2718 10.6089 16.2163 10.6402 16.2163 10.6115C16.2163 10.5801 16.3243 10.4469 16.3359 10.4574C16.3447 10.4678 16.4993 10.4861 16.5284 10.5723C16.5576 10.6585 16.5576 10.7212 16.6364 10.7107C16.718 10.7003 16.8289 10.6193 16.8405 10.4469C16.8493 10.2745 16.7501 10.157 16.7239 10.1413C16.6976 10.1256 16.6159 10.0681 16.6072 10.042C16.6043 10.0159 16.5897 9.9297 16.6014 9.9088Z"
      fill="#2B2C2B"/>
    <path
      d="M15.1488 10.6716C15.1488 10.6716 15.4084 10.5958 15.4755 10.5985C15.5425 10.6011 15.7963 10.7317 15.8692 10.8127C15.9422 10.8936 16.0938 11.0843 16.193 11.0687C16.2922 11.053 16.3213 11.0295 16.3213 11.0295L16.2834 11.1131C16.2834 11.1131 16.2018 11.1366 16.1638 11.1261C16.123 11.1157 16.0442 11.0869 15.9655 11.0007C15.8867 10.9145 15.6446 10.682 15.4375 10.6977C15.2304 10.716 15.1108 10.9433 15.1108 10.9433C15.1108 10.9433 15.1138 10.8336 15.1196 10.8074C15.1283 10.7839 15.0758 10.8597 15.0758 10.8597L15.1488 10.6716Z"
      fill="#2B2C2B"/>
    <path
      d="M16.1084 10.8962C16.1113 10.8988 16.1726 10.9171 16.2805 10.9171C16.3884 10.9171 16.4438 10.8649 16.4438 10.8649L16.438 10.8179L16.4555 10.7526C16.4555 10.7526 16.5372 10.8466 16.5372 10.8649C16.5343 10.8832 16.5022 10.891 16.5022 10.891L16.4905 10.8466L16.4613 10.8858C16.4613 10.8858 16.3038 11.0242 16.2192 11.0033C16.1347 10.9824 16.0559 10.9197 16.0763 10.9067C16.0997 10.891 16.1113 10.8962 16.1084 10.8962Z"
      fill="#2B2C2B"/>
    <path
      d="M15.7292 11.1418C15.7292 11.1418 15.6359 11.1392 15.5921 11.1627C15.5513 11.1862 15.5338 11.2123 15.5075 11.2097C15.4784 11.2071 15.4579 11.1653 15.4667 11.147C15.4784 11.1209 15.5338 11.0869 15.6388 11.0974C15.7438 11.1078 15.7292 11.1418 15.7292 11.1418Z"
      fill="#2B2C2B"/>
    <path
      d="M16.0588 11.4291C16.0588 11.4239 16.053 11.275 16.0005 11.2149C15.948 11.1548 15.8838 11.1548 15.8576 11.1627C15.8284 11.1705 15.9626 11.2358 15.9771 11.2802C15.9917 11.3246 16.0355 11.4448 16.0238 11.4735C16.0122 11.5023 15.9888 11.3899 15.9071 11.356C15.8255 11.3246 15.7117 11.3403 15.735 11.3821C15.7584 11.4239 15.8517 11.3847 15.8984 11.4735C15.9451 11.5623 15.9801 11.6564 15.9801 11.6564L15.9946 11.5911L16.0355 11.578L16.0413 11.4552L16.0588 11.4291Z"
      fill="#2B2C2B"/>
    <path
      d="M15.9917 11.9098L15.9071 11.7191C15.9071 11.7191 15.8809 11.5963 15.808 11.5623C15.735 11.5284 15.6388 11.5336 15.6388 11.5754C15.6359 11.6172 15.7934 11.6694 15.8021 11.6929C15.8109 11.7165 15.808 11.753 15.7934 11.7556C15.7788 11.7582 15.7117 11.7269 15.6767 11.7374C15.6417 11.7478 15.6213 11.7974 15.5688 11.7818C15.5163 11.7661 15.4725 11.5806 15.4929 11.5623C15.5134 11.544 15.455 11.5963 15.4434 11.5467C15.4317 11.497 15.4609 11.3455 15.4404 11.3272C15.42 11.3089 15.3238 11.2436 15.3209 11.2306C15.3179 11.2175 15.3267 10.4835 15.8751 11.0921C15.6388 10.7813 15.5484 10.8152 15.5046 10.8126C15.4725 10.8126 15.2596 10.8335 15.2071 11.1365C15.1546 11.4396 15.0904 11.2515 15.0904 11.2515C15.0904 11.2515 15.0788 11.3821 15.1371 11.4213C15.1954 11.4578 15.1108 11.5676 15.1108 11.5676C15.1108 11.5676 15.0087 11.2881 15.0233 11.1653C15.0029 11.2619 15.0058 11.5049 15.1342 11.7713C15.2859 11.9489 15.4288 12.1161 15.808 12.3016C16.0005 11.9542 15.9917 11.9124 15.9917 11.9098Z"
      fill="#2B2C2B"/>
    <path
      d="M15.633 11.9098C15.633 11.9098 15.7438 11.9255 15.773 11.9882C15.8021 12.0508 15.8167 12.1501 15.8167 12.1501C15.8342 12.1083 15.843 12.0744 15.8809 12.043C15.9188 12.0117 15.9451 12.0091 15.9421 11.9855C15.9392 11.962 15.8255 11.8262 15.7671 11.8184C15.7088 11.8105 15.6067 11.8889 15.6067 11.8889C15.6067 11.8889 15.5863 11.9228 15.633 11.9098Z"
      fill="#8A9395"/>
  </g>
  <defs>
    <linearGradient id="paint0_linear" x1="17.9981" y1="7.00944" x2="18.0068" y2="6.3723"
                    gradientUnits="userSpaceOnUse">
      <stop stop-color="#484848"/>
      <stop offset="1" stop-color="#F15822"/>
    </linearGradient>
    <linearGradient id="paint1_linear" x1="17.8652" y1="9.41386" x2="17.8663" y2="9.77409"
                    gradientUnits="userSpaceOnUse">
      <stop stop-color="#B41F24"/>
      <stop offset="1" stop-color="#FFC60A"/>
    </linearGradient>
    <linearGradient id="paint2_linear" x1="20.0486" y1="10.2653" x2="20.573" y2="10.2576"
                    gradientUnits="userSpaceOnUse">
      <stop stop-color="#D7DEF1"/>
      <stop offset="1" stop-color="white"/>
    </linearGradient>
    <linearGradient id="paint3_linear" x1="18.7272" y1="6.9244" x2="18.9153" y2="6.9244" gradientUnits="userSpaceOnUse">
      <stop stop-color="#484848"/>
      <stop offset="1" stop-color="#F15822"/>
    </linearGradient>
    <linearGradient id="paint4_linear" x1="20.8912" y1="12.6541" x2="20.8143" y2="12.1199"
                    gradientUnits="userSpaceOnUse">
      <stop stop-color="#D7DEF1"/>
      <stop offset="1" stop-color="white"/>
    </linearGradient>
    <linearGradient id="paint5_linear" x1="19.5336" y1="10.2563" x2="19.3053" y2="9.8447"
                    gradientUnits="userSpaceOnUse">
      <stop stop-color="#D7DEF1"/>
      <stop offset="1" stop-color="white"/>
    </linearGradient>
    <clipPath id="clip0">
      <rect width="6" height="11" fill="white" transform="translate(15 4)"/>
    </clipPath>
  </defs>
</svg>
