<svg width="24" height="18" viewBox="0 0 24 18" fill="none" xmlns="http://www.w3.org/2000/svg">
  <rect x="0.25" y="0.25" width="23.5" height="16.6429" rx="1.75" fill="white" stroke="#F5F5F5" stroke-width="0.5"/>
  <mask id="mask0" mask-type="alpha" maskUnits="userSpaceOnUse" x="0" y="0" width="24" height="18">
    <rect x="0.25" y="0.25" width="23.5" height="16.6429" rx="1.75" fill="white" stroke="white" stroke-width="0.5"/>
  </mask>
  <g mask="url(#mask0)">
    <rect x="16" width="8" height="17.1429" fill="#63AEE3"/>
    <path fill-rule="evenodd" clip-rule="evenodd" d="M0 17.1429H8V0H0V17.1429Z" fill="#63AEE3"/>
    <path
      d="M10.381 8C10.381 7.63181 10.0825 7.33333 9.71432 7.33333C9.34613 7.33333 9.04765 7.63181 9.04765 8H10.381ZM10.52 10.555C10.8384 10.7398 11.2464 10.6315 11.4312 10.313C11.616 9.99453 11.5076 9.58657 11.1891 9.40178L10.52 10.555ZM12.8707 9.36535C12.5605 9.56373 12.4699 9.976 12.6683 10.2862C12.8667 10.5964 13.2789 10.687 13.5891 10.4886L12.8707 9.36535ZM14.9524 8.00001C14.9524 7.63182 14.6539 7.33334 14.2858 7.33334C13.9176 7.33334 13.6191 7.63182 13.6191 8.00001H14.9524ZM9.04765 8C9.04765 9.09224 9.64112 10.0451 10.52 10.555L11.1891 9.40178C10.7045 9.12057 10.381 8.59767 10.381 8H9.04765ZM13.5891 10.4886C14.4075 9.96518 14.9524 9.04645 14.9524 8.00001H13.6191C13.6191 8.57277 13.3222 9.07661 12.8707 9.36535L13.5891 10.4886Z"
      fill="#628A40"/>
    <path fill-rule="evenodd" clip-rule="evenodd"
          d="M12 9.14286C12.6311 9.14286 13.1428 8.63119 13.1428 8C13.1428 7.36882 12.6311 6.85715 12 6.85715C11.3688 6.85715 10.8571 7.36882 10.8571 8C10.8571 8.63119 11.3688 9.14286 12 9.14286Z"
          fill="#DCC26D"/>
  </g>
</svg>
