<svg width="24" height="18" viewBox="0 0 24 18" fill="none" xmlns="http://www.w3.org/2000/svg">
  <path
    d="M22.2026 17.1399H1.79742C0.804703 17.1399 0 16.2628 0 15.1807V1.95926C0 0.877211 0.804703 0 1.79742 0H22.2026C23.1952 0 24 0.87716 24 1.95926V15.1807C24 16.2628 23.1953 17.1399 22.2026 17.1399Z"
    fill="#41479B"/>
  <path
    d="M12.0028 4.05945C10.4302 4.96134 9.36963 7.10935 9.36963 8.56997C9.36963 10.0306 10.4302 12.1787 12.0028 13.0805C13.5754 12.1786 14.636 10.0306 14.636 8.56997C14.636 7.10935 13.5755 4.96129 12.0028 4.05945Z"
    fill="#3CC8FF"/>
  <path
    d="M12.3424 7.0255C12.5965 6.87952 13.0303 6.71888 13.5232 6.91606C13.5232 6.91606 13.0485 6.33964 12.3897 6.80926C12.5669 6.57499 12.8331 6.28497 13.1213 6.20419C13.1213 6.20419 12.5477 5.97068 12.2007 6.80456C12.2679 6.384 12.2556 5.7218 11.6338 5.3374C11.6338 5.3374 11.9815 6.1508 12.0156 6.82577C11.9954 6.706 11.955 6.58082 11.8482 6.45941C11.5194 6.08544 11.2335 6.05428 11.2335 6.05428C11.2335 6.05428 11.6894 6.60498 11.9134 7.12601C11.7844 6.9577 11.5569 6.74218 11.1906 6.75546C10.3328 6.78663 10.147 7.34766 10.147 7.34766C10.5026 7.18446 11.0669 7.10317 11.5044 7.14348C10.9396 7.25196 10.7389 8.01896 10.7389 8.01896C11.1924 7.40254 11.6874 7.30239 11.8851 7.28773C11.524 7.61326 11.546 8.21276 11.546 8.21276C11.6299 7.87527 11.9549 7.49063 12.1133 7.31823C12.5398 7.82116 12.5903 8.38649 12.5903 8.38649C12.5903 8.38649 12.6836 8.21639 12.6406 7.87022C12.5999 7.54341 12.4117 7.32886 12.2682 7.2028C13.0212 7.31593 13.5125 7.9113 13.5125 7.9113C13.2661 7.12774 12.6496 7.02576 12.3424 7.0255Z"
    fill="#73AF00"/>
  <path
    d="M22.2026 0H1.79742C0.837325 0 0.0532004 0.820597 0.00271606 1.85339V15.2866C0.0532004 16.3195 0.837325 17.14 1.79742 17.14H22.2026C23.1952 17.14 24 16.2628 24 15.1807V1.95926C24 0.87716 23.1953 0 22.2026 0ZM23.1751 16.2379H0.830341V0.902094H23.1752L23.1751 16.2379Z"
    fill="#FF4B55"/>
  <path d="M11.1621 9.65999L11.5415 8.94588L14.6579 8.87067L14.451 9.81037L11.1621 9.65999Z" fill="#FF965A"/>
  <path
    d="M9.48291 9.47205C9.79529 10.8084 10.7312 12.3514 12.0024 13.0805C13.2736 12.3514 14.2096 10.8084 14.522 9.47205H9.48291Z"
    fill="#4173CD"/>
  <path
    d="M9.93359 10.8253C9.93359 10.8253 10.8362 10.7766 11.3784 11.0194C11.5139 11.08 11.5314 11.2794 11.4091 11.3672C11.1449 11.5566 10.7612 11.8827 10.7612 12.1786L9.93359 10.8253Z"
    fill="#FFE15A"/>
  <path
    d="M11.5199 12.6294C11.4854 12.2535 11.7906 11.9801 12.2096 11.8025C12.7527 11.5723 12.4552 11.2058 12.1837 10.9662C11.8598 10.6805 12.2785 10.5997 14.0371 10.5621L13.1751 12.0281L12.0027 13.0805L11.5199 12.6294Z"
    fill="#FFE15A"/>
  <path
    d="M12.0028 13.3356L11.9064 13.2801C10.2651 12.3392 9.1626 10.0848 9.1626 8.57005C9.1626 7.05526 10.2651 4.80082 11.9064 3.85999L12.0028 3.8045L12.0992 3.85999C13.7404 4.80087 14.843 7.05526 14.843 8.57005C14.843 10.0848 13.7405 12.3393 12.0992 13.2801L12.0028 13.3356ZM12.0028 4.31628C10.547 5.21224 9.57641 7.21642 9.57641 8.56999C9.57641 9.92357 10.5471 11.9278 12.0028 12.8237C13.4586 11.9277 14.4292 9.92357 14.4292 8.56999C14.4292 7.21642 13.4586 5.21219 12.0028 4.31628Z"
    fill="#FF4B55"/>
  <path
    d="M12.8821 11.1448C12.8631 11.1448 12.8441 11.1393 12.8271 11.1276C12.2648 10.7424 11.9424 10.1048 11.9424 9.37824V7.30161C11.9424 7.23933 11.9887 7.18884 12.0458 7.18884C12.103 7.18884 12.1493 7.23933 12.1493 7.30161V9.37824C12.1493 10.0255 12.4364 10.5936 12.9371 10.9365C12.9856 10.9697 13.0001 11.0393 12.9698 11.0919C12.95 11.1261 12.9164 11.1448 12.8821 11.1448Z"
    fill="#A54B37"/>
  <path
    d="M12.0461 7.55509C12.1711 7.55509 12.2725 7.44464 12.2725 7.3084C12.2725 7.17215 12.1711 7.06171 12.0461 7.06171C11.9211 7.06171 11.8198 7.17215 11.8198 7.3084C11.8198 7.44464 11.9211 7.55509 12.0461 7.55509Z"
    fill="#A54B37"/>
</svg>
