<svg width="24" height="18" viewBox="0 0 24 18" fill="none" xmlns="http://www.w3.org/2000/svg">
  <rect width="24" height="17.1429" rx="2" fill="white"/>
  <mask id="mask0" mask-type="alpha" maskUnits="userSpaceOnUse" x="0" y="0" width="24" height="18">
    <rect width="24" height="17.1429" rx="2" fill="white"/>
  </mask>
  <g mask="url(#mask0)">
    <path fill-rule="evenodd" clip-rule="evenodd" d="M0 17.1429H24V0H0V17.1429Z" fill="#F0371D"/>
    <path fill-rule="evenodd" clip-rule="evenodd"
          d="M11.9864 6.98204C12.8116 6.29128 12.8618 6.1368 13.0596 5.52823C13.1256 5.3251 13.079 5.15827 13.024 4.96124C12.9448 4.67714 12.848 4.33026 13.0459 3.72127C12.1454 3.4287 11.0992 4.16479 10.7091 5.36537C10.3191 6.56595 10.7328 7.77639 11.6332 8.06896C11.7944 8.12133 11.7763 8.08346 11.7274 7.98092C11.6416 7.80101 11.4607 7.42202 11.9864 6.98204ZM10.2774 8.24365C9.87545 7.24531 9.74405 7.14984 9.22637 6.77372C9.05357 6.64818 8.88052 6.6409 8.67614 6.6323C8.38145 6.6199 8.02164 6.60476 7.5036 6.22839C6.9471 6.99434 7.32388 8.21678 8.34515 8.95878C9.36643 9.70078 10.6455 9.68136 11.202 8.91541C11.3016 8.77829 11.26 8.78377 11.1473 8.79862C10.9497 8.82467 10.5334 8.87955 10.2774 8.24365ZM15.4286 8.78897C14.7887 8.78897 14.6263 8.78897 13.7143 8.21754C13.1334 7.85356 12.8289 8.14268 12.6843 8.27992C12.6019 8.35814 12.5715 8.38703 12.5715 8.21754C12.5715 7.27077 13.5948 6.50326 14.8572 6.50326C16.1196 6.50326 17.1429 7.27077 17.1429 8.21754C16.5026 8.21754 16.2026 8.41678 15.9569 8.57997C15.7865 8.69314 15.6422 8.78897 15.4286 8.78897ZM15.4286 7.71421C15.4286 7.87201 15.3007 7.99992 15.1429 7.99992C14.9851 7.99992 14.8571 7.87201 14.8571 7.71421C14.8571 7.55641 14.9851 7.4285 15.1429 7.4285C15.3007 7.4285 15.4286 7.55641 15.4286 7.71421ZM13.0732 10.2428C12.8115 11.2867 12.8617 11.4412 13.0595 12.0497C13.1255 12.2529 13.2612 12.3605 13.4215 12.4876C13.6526 12.6708 13.9348 12.8946 14.1327 13.5035C15.0331 13.211 15.4468 12.0005 15.0567 10.8C14.6666 9.59937 13.6205 8.86328 12.72 9.15585C12.5588 9.20823 12.5957 9.22824 12.6956 9.28244C12.8708 9.37753 13.2398 9.57784 13.0732 10.2428ZM14.0817 11.7176C13.9316 11.7664 13.7704 11.6842 13.7217 11.5342C13.6729 11.3841 13.755 11.2229 13.9051 11.1741C14.0552 11.1254 14.2164 11.2075 14.2651 11.3576C14.3139 11.5076 14.2318 11.6688 14.0817 11.7176ZM10.9491 10.2589C9.8754 10.3326 9.74399 10.4281 9.22631 10.8042C9.05352 10.9298 8.99311 11.0921 8.92178 11.2838C8.81892 11.5602 8.69333 11.8978 8.1753 12.2741C8.7318 13.0401 10.0108 13.0595 11.0321 12.3175C12.0534 11.5755 12.4302 10.3531 11.8737 9.58712C11.774 9.45001 11.7664 9.49126 11.7457 9.60298C11.7094 9.79899 11.633 10.2119 10.9491 10.2589ZM9.85803 11.6737C9.76528 11.546 9.79358 11.3673 9.92124 11.2746C10.0489 11.1818 10.2276 11.2101 10.3203 11.3378C10.4131 11.4655 10.3848 11.6441 10.2571 11.7369C10.1295 11.8296 9.95078 11.8013 9.85803 11.6737ZM8.59459 7.64321C8.68734 7.51555 8.86602 7.48725 8.99368 7.58C9.12134 7.67275 9.14964 7.85143 9.05689 7.97909C8.96414 8.10675 8.78546 8.13505 8.6578 8.0423C8.53014 7.94955 8.50184 7.77087 8.59459 7.64321ZM12.0375 5.19612C12.1875 5.24488 12.2697 5.40607 12.2209 5.55614C12.1721 5.70621 12.0109 5.78834 11.8609 5.73958C11.7108 5.69082 11.6287 5.52963 11.6774 5.37956C11.7262 5.22949 11.8874 5.14736 12.0375 5.19612Z"
          fill="white"/>
  </g>
</svg>
