<svg width="24" height="18" viewBox="0 0 24 18" fill="none" xmlns="http://www.w3.org/2000/svg">
  <rect x="0.25" y="0.25" width="23.5" height="16.6429" rx="1.75" fill="white" stroke="#F5F5F5" stroke-width="0.5"/>
  <mask id="mask0" mask-type="alpha" maskUnits="userSpaceOnUse" x="0" y="0" width="24" height="18">
    <rect x="0.25" y="0.25" width="23.5" height="16.6429" rx="1.75" fill="white" stroke="white" stroke-width="0.5"/>
  </mask>
  <g mask="url(#mask0)">
    <path fill-rule="evenodd" clip-rule="evenodd" d="M0 5.71429H24V0H0V5.71429Z" fill="#0884E6"/>
    <path fill-rule="evenodd" clip-rule="evenodd" d="M0 17.1428H24V11.4286H0V17.1428Z" fill="#0884E6"/>
    <path fill-rule="evenodd" clip-rule="evenodd"
          d="M12 9.14287L11.1919 9.37957L11.4285 8.57145L11.1919 7.76332L12 8.00002L12.8081 7.76332L12.5714 8.57145L12.8081 9.37957L12 9.14287Z"
          fill="#0E88E9"/>
    <path fill-rule="evenodd" clip-rule="evenodd"
          d="M16.5714 7.99999L15.7633 8.23668L16 7.42856L15.7633 6.62044L16.5714 6.85713L17.3795 6.62044L17.1428 7.42856L17.3795 8.23668L16.5714 7.99999Z"
          fill="#0E88E9"/>
    <path fill-rule="evenodd" clip-rule="evenodd"
          d="M16.5714 10.2857L15.7633 10.5224L16 9.7143L15.7633 8.90618L16.5714 9.14287L17.3795 8.90618L17.1428 9.7143L17.3795 10.5224L16.5714 10.2857Z"
          fill="#0E88E9"/>
    <path fill-rule="evenodd" clip-rule="evenodd"
          d="M7.42859 10.2857L6.62047 10.5224L6.85716 9.7143L6.62047 8.90618L7.42859 9.14287L8.23672 8.90618L8.00002 9.7143L8.23672 10.5224L7.42859 10.2857Z"
          fill="#0E88E9"/>
    <path fill-rule="evenodd" clip-rule="evenodd"
          d="M7.42859 7.99999L6.62047 8.23668L6.85716 7.42856L6.62047 6.62044L7.42859 6.85713L8.23672 6.62044L8.00002 7.42856L8.23672 8.23668L7.42859 7.99999Z"
          fill="#0E88E9"/>
  </g>
</svg>
