<svg width="24" height="18" viewBox="0 0 24 18" fill="none" xmlns="http://www.w3.org/2000/svg">
  <rect x="0.25" y="0.25" width="23.5" height="16.6429" rx="1.75" fill="white" stroke="#F5F5F5" stroke-width="0.5"/>
  <mask id="mask0" mask-type="alpha" maskUnits="userSpaceOnUse" x="0" y="0" width="24" height="18">
    <rect x="0.25" y="0.25" width="23.5" height="16.6429" rx="1.75" fill="white" stroke="white" stroke-width="0.5"/>
  </mask>
  <g mask="url(#mask0)">
    <path fill-rule="evenodd" clip-rule="evenodd" d="M0 5.71429H24V0H0V5.71429Z" fill="#FF202D"/>
    <path opacity="0.5" fill-rule="evenodd" clip-rule="evenodd"
          d="M9.14282 4.57146L9.71425 4.00003L10.2857 4.57146V5.71432H9.14282V4.57146ZM11.4285 4.57148L11.9999 4.00005L12.5714 4.57148V5.71433H11.4285V4.57148ZM14.2857 4.00005L13.7143 4.57148V5.71433H14.8571V4.57148L14.2857 4.00005Z"
          fill="#1895DB"/>
    <path opacity="0.5" fill-rule="evenodd" clip-rule="evenodd"
          d="M10.8571 4.00003L10.2857 4.57146V5.71432H11.4286V4.57146L10.8571 4.00003ZM13.1428 4.00005L12.5713 4.57148V5.71433H13.7142V4.57148L13.1428 4.00005Z"
          fill="#191F94"/>
    <path fill-rule="evenodd" clip-rule="evenodd" d="M0 17.1428H24V11.4286H0V17.1428Z" fill="#2027AC"/>
    <path fill-rule="evenodd" clip-rule="evenodd"
          d="M10.2857 5.71429H9.71425L9.14282 6.85715H10.2857V5.71429ZM11.4285 5.7143H12.5714V6.85716H11.4286V8H10.2857V6.85714H11.4285V5.7143ZM13.7143 5.7143H14.2857L14.8571 6.85716H13.7143V5.7143ZM13.7143 6.85714H12.5714V8H13.7143V6.85714ZM11.4285 8.00003H12.5714V9.14289H11.4286V10.2857H12.5714V11.4286H11.4285V10.2857H10.2857V9.14287H11.4285V8.00003ZM14.8571 8.00003H13.7143V9.14289H14.8571V8.00003ZM12.5714 9.14287H13.7143V10.2857H12.5714V9.14287ZM10.2857 9.14289V8.00003H9.14282V9.14289H10.2857ZM10.2857 11.4286V10.2857H9.14282V11.4286H10.2857ZM14.8571 10.2857H13.7143V11.4286H14.8571V10.2857ZM12.5714 11.4286H13.7143V12.5715H12.5714V11.4286ZM11.4286 11.4286H10.2857V12.5715H11.4286V11.4286Z"
          fill="url(#paint0_linear)"/>
  </g>
  <defs>
    <linearGradient id="paint0_linear" x1="9.14282" y1="5.71429" x2="9.14282" y2="12.5714"
                    gradientUnits="userSpaceOnUse">
      <stop stop-color="#FF212E"/>
      <stop offset="1" stop-color="#FD0D1B"/>
    </linearGradient>
  </defs>
</svg>
