<svg width="24" height="18" viewBox="0 0 24 18" fill="none" xmlns="http://www.w3.org/2000/svg">
  <rect width="24" height="17.1429" rx="2" fill="white"/>
  <mask id="mask0" mask-type="alpha" maskUnits="userSpaceOnUse" x="0" y="0" width="24" height="18">
    <rect width="24" height="17.1429" rx="2" fill="white"/>
  </mask>
  <g mask="url(#mask0)">
    <path fill-rule="evenodd" clip-rule="evenodd" d="M0 8H24V0H0V8Z" fill="#112EBC"/>
    <path fill-rule="evenodd" clip-rule="evenodd" d="M0 17.1428H24V7.99997H0V17.1428Z" fill="#E3264A"/>
    <rect x="8.00003" y="5.71429" width="8" height="6.85714" rx="0.666667" fill="url(#paint0_linear)"/>
    <mask id="mask1" mask-type="alpha" maskUnits="userSpaceOnUse" x="8" y="5" width="8" height="8">
      <rect x="8.00003" y="5.71429" width="8" height="6.85714" rx="0.666667" fill="white"/>
    </mask>
    <g mask="url(#mask1)">
      <path
        d="M8.33339 12.2381V11.6346L9.87179 10.8654C10.1958 10.7034 10.5531 10.619 10.9153 10.619H13.0848C13.4471 10.619 13.8043 10.7034 14.1283 10.8654L15.6667 11.6346V12.2381H8.33339Z"
        fill="#AABCAE" stroke="#366C14" stroke-width="0.666667"/>
      <path fill-rule="evenodd" clip-rule="evenodd"
            d="M12 10.2857C12.9468 10.2857 13.7143 9.51821 13.7143 8.57143C13.7143 7.62466 12.9468 6.85715 12 6.85715C11.0532 6.85715 10.2857 7.62466 10.2857 8.57143C10.2857 9.51821 11.0532 10.2857 12 10.2857Z"
            fill="#D4B872"/>
      <path
        d="M10.0178 9.69821L11.3754 10.7842C11.7406 11.0764 12.2596 11.0764 12.6248 10.7842L13.9823 9.69821C14.2006 9.5236 14.5239 9.67899 14.5239 9.9585V10.7619C14.5239 10.946 14.3747 11.0952 14.1906 11.0952H9.80961C9.62552 11.0952 9.47628 10.946 9.47628 10.7619V9.9585C9.47628 9.67899 9.79959 9.5236 10.0178 9.69821Z"
        fill="#C28321" stroke="#0D3488" stroke-width="0.666667"/>
      <path fill-rule="evenodd" clip-rule="evenodd"
            d="M10.8548 7.42618C10.6448 7.21619 10.7935 6.85715 11.0905 6.85715H12.9096C13.2065 6.85715 13.3553 7.21619 13.1453 7.42618L12.2357 8.33573C12.1055 8.46591 11.8945 8.46591 11.7643 8.33573L10.8548 7.42618Z"
            fill="#216C30"/>
    </g>
  </g>
  <defs>
    <linearGradient id="paint0_linear" x1="8.00003" y1="5.71429" x2="8.00003" y2="12.5714"
                    gradientUnits="userSpaceOnUse">
      <stop stop-color="white"/>
      <stop offset="1" stop-color="#F0F0F0"/>
    </linearGradient>
  </defs>
</svg>
