<svg width="24" height="18" viewBox="0 0 24 18" fill="none" xmlns="http://www.w3.org/2000/svg">
  <rect x="0.25" y="0.25" width="23.5" height="16.6429" rx="1.75" fill="white" stroke="#F5F5F5" stroke-width="0.5"/>
  <mask id="mask0" mask-type="alpha" maskUnits="userSpaceOnUse" x="0" y="0" width="24" height="18">
    <rect x="0.25" y="0.25" width="23.5" height="16.6429" rx="1.75" fill="white" stroke="white" stroke-width="0.5"/>
  </mask>
  <g mask="url(#mask0)">
    <path fill-rule="evenodd" clip-rule="evenodd" d="M0 3.42857H24V0H0V3.42857Z" fill="#0E46D4"/>
    <path fill-rule="evenodd" clip-rule="evenodd" d="M0 17.1429H24V13.7143H0V17.1429Z" fill="#0E46D4"/>
    <path
      d="M8.85152 10.1238L8.5764 10.619L9.1429 10.619L14.8572 10.619L15.4237 10.619L15.1486 10.1238L12.2914 4.98097L12 4.45647L11.7087 4.98097L8.85152 10.1238Z"
      stroke="#093EC5" stroke-width="0.666667"/>
    <path
      d="M8.85152 7.01903L8.5764 6.52382L9.1429 6.52382L14.8572 6.52382L15.4237 6.52382L15.1486 7.01903L12.2914 12.1619L12 12.6864L11.7087 12.1619L8.85152 7.01903Z"
      stroke="#093EC5" stroke-width="0.666667"/>
  </g>
</svg>
