<svg width="24" height="18" viewBox="0 0 24 18" fill="none" xmlns="http://www.w3.org/2000/svg">
  <rect width="24" height="17.1429" rx="2" fill="#D01129"/>
  <mask id="mask0" mask-type="alpha" maskUnits="userSpaceOnUse" x="0" y="0" width="24" height="18">
    <rect width="24" height="17.1429" rx="2" fill="white"/>
  </mask>
  <g mask="url(#mask0)">
    <path fill-rule="evenodd" clip-rule="evenodd"
          d="M11.9042 8.60649C12.4707 8.60649 12.93 8.12429 12.93 7.52959C12.93 6.93478 12.4707 6.45258 11.9042 6.45258C11.3377 6.45258 10.8785 6.93478 10.8785 7.52959C10.8785 8.12429 11.3377 8.60649 11.9042 8.60649"
          fill="#FFF101"/>
    <path fill-rule="evenodd" clip-rule="evenodd"
          d="M10.9692 7.0966C11.2597 6.9993 11.6366 7.11254 11.8845 7.36239C12.1478 7.31207 12.4117 6.96501 12.4935 6.65602C12.4036 5.62923 11.7639 4.85136 11.5694 4.31757C11.5078 4.14887 11.2226 3.8836 10.9261 4.00711C10.6822 4.10871 10.5589 4.02965 9.7398 4.45859C9.29692 4.69052 8.92414 4.92874 8.72771 4.97026C8.53118 5.01178 8.32387 5.04879 8.16669 4.91951C7.95049 4.74169 7.70803 4.69251 7.56522 4.55851C7.39027 4.39432 7.27802 4.27039 7.15969 4.22017C7.04135 4.16984 6.84103 4.28161 6.92561 4.54761C7.11645 5.1484 7.56632 5.2457 7.75945 5.80727C7.85063 6.07275 7.98025 6.27228 8.26995 6.07107C8.55964 5.86986 8.96907 5.6026 9.66711 5.5745C10.1359 5.55553 10.6203 5.37456 10.8429 5.07762C10.8407 5.3345 10.927 5.54504 10.9042 5.8792C10.8815 6.21345 10.8851 6.62918 10.9692 7.0966"
          fill="white"/>
    <path fill-rule="evenodd" clip-rule="evenodd"
          d="M11.5184 7.12476C11.4323 6.61928 11.5884 6.54641 11.402 5.95391C11.29 5.59763 11.2184 5.15108 11.2166 4.94327L11.1417 4.96612C11.1435 5.17394 11.2152 5.62059 11.3271 5.97687C11.5074 6.54977 11.3673 6.63679 11.4358 7.09907C11.457 7.10358 11.5014 7.11847 11.5184 7.12476"
          fill="#FFF101"/>
    <path fill-rule="evenodd" clip-rule="evenodd"
          d="M11.0774 7.06932C11.078 7.00505 11.0741 6.93795 11.0646 6.88028C11.1963 6.84704 11.4219 6.97485 11.4156 6.87986C11.4137 6.84977 11.4166 6.75247 11.4184 6.70088C11.4155 6.78151 11.1018 6.64542 11.0478 6.68054C10.9898 6.38644 11.0617 6.08384 11.0157 5.89921C11.1204 5.86911 11.313 5.93475 11.2894 5.84856C11.276 5.80442 11.2504 5.69464 11.2336 5.62597C11.25 5.69789 11.0972 5.63834 11.0454 5.67944C11.0186 5.51997 10.9793 5.21737 10.9801 5.07907L10.8429 5.07761C10.8407 5.33449 10.927 5.54502 10.9042 5.87918C10.8816 6.21344 10.8851 6.62917 10.9692 7.09658C10.9993 7.08736 11.0488 7.07551 11.0774 7.06932"
          fill="#FFF101"/>
    <path fill-rule="evenodd" clip-rule="evenodd"
          d="M10.7308 4.7212C10.5263 5.03124 10.0378 5.24523 9.58612 5.29252C9.05745 5.34788 8.70254 5.53263 8.44121 5.71349C8.41874 5.67103 8.3782 5.64817 8.34235 5.62018C7.95998 5.32282 8.11716 4.91989 8.26196 4.97745C8.20733 4.95522 8.17558 4.92523 8.14572 4.90269C8.09519 4.86337 7.94939 5.01404 7.96767 5.25331C7.97545 5.35522 8.05854 5.50557 8.12615 5.58526C8.00272 5.56167 7.9436 5.52854 7.8711 5.43658C7.91184 5.40995 7.96457 5.39485 8.00711 5.39139C7.99263 5.35491 7.97246 5.31443 7.96767 5.25331C7.90725 5.25278 7.83355 5.27491 7.77034 5.31999C7.61865 5.16135 7.46247 5.0348 7.37189 4.84754C7.22699 4.54757 7.37439 4.35821 7.56522 4.55847C7.39027 4.39428 7.27802 4.27035 7.15969 4.22012C7.04135 4.1698 6.84103 4.28156 6.92561 4.54757C7.11645 5.14835 7.56632 5.24565 7.75945 5.80723C7.85063 6.0727 7.98504 6.27957 8.26995 6.07103C8.30749 6.04356 8.31748 6.03706 8.35013 6.01273C8.44051 5.95789 8.58371 6.04995 8.56843 6.25011C8.64163 6.06631 8.59489 6.01 8.53278 5.89981C8.48684 5.9255 8.49054 5.77504 8.46218 5.75522C8.62475 5.64911 8.82248 5.54269 9.07193 5.46689C9.08112 5.55674 9.10469 5.65215 9.18348 5.63831C9.22572 5.62846 9.26856 5.61955 9.3136 5.61168C9.23481 5.62552 9.21264 5.52109 9.20355 5.43134C9.32178 5.40282 9.45101 5.38122 9.59261 5.36906C9.75578 5.35501 9.92445 5.3202 10.0828 5.2662C10.1064 5.35239 10.1551 5.49761 10.2363 5.46909C10.3083 5.44487 10.3783 5.4175 10.444 5.38573C10.3311 5.44225 10.2866 5.28088 10.2595 5.19554C10.4659 5.10128 10.6418 4.97273 10.7469 4.81934L10.7308 4.7212"
          fill="#FFF101"/>
    <path fill-rule="evenodd" clip-rule="evenodd"
          d="M11.6342 4.87511C11.7339 4.79396 11.8195 4.75559 11.7335 4.58374C11.5929 4.30274 11.6802 4.30178 11.3724 4.12301C11.0588 3.9412 11.0985 3.92694 10.6835 4.08054C10.5815 4.11829 10.6042 4.15688 10.6221 4.31226C10.6606 4.64715 10.7337 4.91683 10.8005 5.19238C11.0613 5.15662 11.4626 5.01509 11.6342 4.87511Z"
          fill="#FFF101"/>
    <path fill-rule="evenodd" clip-rule="evenodd"
          d="M10.6608 4.79902C10.6061 4.63461 10.6208 4.65695 10.8191 4.70707C10.884 4.49034 10.9737 4.30742 11.0239 4.13201C11.08 3.93563 11.0976 3.90029 11.1802 3.94842C11.2858 4.00986 11.4019 4.07476 11.4775 4.11377C11.6095 4.18171 11.59 4.20551 11.527 4.3135C11.464 4.4215 11.2579 4.64038 11.1308 4.86874C11.2985 4.99268 11.3523 5.00389 11.2331 5.05726C11.0998 5.11692 10.8783 5.19084 10.7851 5.20835C10.768 5.10046 10.7129 4.95493 10.6608 4.79902Z"
          fill="#FFF101"/>
    <path fill-rule="evenodd" clip-rule="evenodd"
          d="M8.6923 6.34498L8.67912 6.5141L8.56039 6.40086L8.42757 6.49554L8.43636 6.32674L8.28347 6.27819L8.41409 6.17984L8.35647 6.02299L8.50976 6.06996L8.59074 5.92474L8.65226 6.07982L8.81044 6.05476L8.73295 6.2027L8.84958 6.31698L8.6923 6.34498"
          fill="#FFF101"/>
    <path fill-rule="evenodd" clip-rule="evenodd"
          d="M12.0146 8.59632C11.789 8.38075 11.694 7.98148 11.7761 7.63107C11.603 7.41697 11.1848 7.35039 10.889 7.4305C10.087 8.02573 9.76523 8.99632 9.42221 9.44014C9.31376 9.58043 9.23757 9.97225 9.48782 10.1803C9.69353 10.3512 9.69004 10.5028 10.4533 11.0331C10.866 11.3199 11.2489 11.5398 11.3814 11.6977C11.514 11.8556 11.6481 12.0256 11.6201 12.2331C11.5815 12.5186 11.6621 12.7638 11.6231 12.9605C11.575 13.2016 11.529 13.3657 11.5467 13.4984C11.5644 13.6312 11.7567 13.7574 11.9338 13.5475C12.3339 13.0736 12.1893 12.6159 12.556 12.1595C12.7292 11.9438 12.8291 11.7262 12.5183 11.5633C12.2074 11.4006 11.7823 11.1619 11.41 10.5414C11.1601 10.1246 10.7686 9.77451 10.4123 9.72062C10.6253 9.59427 10.756 9.41047 11.043 9.264C11.33 9.11752 11.6711 8.90657 12.0146 8.59632"
          fill="white"/>
    <path fill-rule="evenodd" clip-rule="evenodd"
          d="M11.7631 8.08289C11.3894 8.41389 11.2512 8.30831 10.8556 8.77405C10.6178 9.0541 10.2853 9.34254 10.1147 9.44802L10.1711 9.50464C10.3416 9.39916 10.6742 9.11072 10.912 8.83067C11.2945 8.38034 11.4363 8.46422 11.7834 8.17075C11.7765 8.14936 11.7664 8.10144 11.7631 8.08289"
          fill="#FFF101"/>
    <path fill-rule="evenodd" clip-rule="evenodd"
          d="M11.9379 8.5116C11.8847 8.54316 11.8313 8.58028 11.7884 8.61771C11.6951 8.51454 11.6878 8.2455 11.6127 8.29886C11.5887 8.31543 11.507 8.36156 11.4635 8.38568C11.5316 8.34804 11.576 8.70127 11.632 8.73283C11.4184 8.93268 11.1329 9.01855 11.0037 9.15276C10.9265 9.07244 10.8844 8.86473 10.8251 8.92922C10.7954 8.9634 10.7176 9.04151 10.6694 9.09121C10.7205 9.04025 10.7478 9.20906 10.8075 9.23548C10.6894 9.3397 10.4595 9.52665 10.3449 9.59511L10.4123 9.72062C10.6253 9.59428 10.756 9.41048 11.043 9.264C11.33 9.11753 11.6711 8.90657 12.0146 8.59632C11.9919 8.57357 11.9573 8.53446 11.9379 8.5116"
          fill="#FFF101"/>
    <path fill-rule="evenodd" clip-rule="evenodd"
          d="M10.1745 10.0007C10.5325 10.0316 10.9532 10.3688 11.218 10.7559C11.528 11.2089 11.8579 11.4392 12.1377 11.5864C12.114 11.6281 12.1154 11.6764 12.1103 11.723C12.0562 12.2194 11.6452 12.2779 11.6203 12.1175C11.6293 12.1783 11.6204 12.2221 11.6168 12.2606C11.6096 12.3262 11.8068 12.3834 11.9949 12.2472C12.0751 12.1891 12.1575 12.0384 12.1896 11.9371C12.2317 12.0611 12.2339 12.1314 12.1945 12.2433C12.152 12.2196 12.1133 12.1791 12.0891 12.1423C12.0662 12.1737 12.043 12.2122 11.9949 12.2472C12.0247 12.3024 12.0798 12.3583 12.1486 12.3932C12.0936 12.6105 12.0673 12.8158 11.9581 12.9917C11.7832 13.2734 11.5533 13.2341 11.6231 12.9605C11.575 13.2016 11.529 13.3657 11.5467 13.4984C11.5644 13.6312 11.7567 13.7574 11.9338 13.5475C12.3339 13.0736 12.1893 12.6159 12.556 12.1595C12.7292 11.9438 12.8328 11.7182 12.5183 11.5633C12.4768 11.543 12.4665 11.5372 12.4301 11.5196C12.3397 11.4649 12.3441 11.2886 12.5167 11.2024C12.3286 11.2278 12.3055 11.2985 12.2457 11.41C12.2897 11.4389 12.1638 11.5108 12.1616 11.5466C11.9929 11.4518 11.8063 11.3252 11.619 11.1362C11.6886 11.083 11.7555 11.0138 11.7046 10.9491C11.6753 10.9157 11.6465 10.8811 11.6175 10.8441C11.6684 10.9089 11.5934 10.9811 11.5238 11.0344C11.4412 10.9412 11.3588 10.8344 11.2779 10.7118C11.1848 10.5703 11.0717 10.4344 10.948 10.3174C11.0073 10.2528 11.1027 10.136 11.0386 10.0764C10.9827 10.023 10.925 9.97298 10.866 9.92926C10.9691 10.0037 10.8581 10.1248 10.8014 10.1921C10.6204 10.0516 10.4264 9.95589 10.2474 9.93712L10.1745 10.0007"
          fill="#FFF101"/>
    <path fill-rule="evenodd" clip-rule="evenodd"
          d="M9.70445 9.16955C9.58762 9.11954 9.64527 9.05193 9.5465 9.21602C9.38503 9.48433 9.35383 9.42255 9.36042 9.79193C9.36711 10.1678 9.43663 10.1078 9.77086 10.4083C10.0278 10.2061 10.3345 9.90035 10.5283 9.70176C10.3684 9.48252 9.90567 9.25584 9.70445 9.16955Z"
          fill="#FFF101"/>
    <path fill-rule="evenodd" clip-rule="evenodd"
          d="M10.2737 10.0254C10.1654 10.1574 10.1765 10.133 10.1187 9.92748C9.90747 9.97676 9.74456 10.0337 9.57489 10.0757C9.38476 10.1228 9.34691 10.1245 9.34521 10.0254C9.34311 9.89854 9.33872 9.76066 9.33303 9.67238C9.32314 9.51846 9.3524 9.52412 9.47303 9.52748C9.59367 9.53073 9.84426 9.56187 10.0962 9.56323C10.1146 9.34881 10.0969 9.29429 10.2006 9.37597C10.3163 9.46729 10.4881 9.6318 10.5492 9.70782C10.4687 9.77723 10.3763 9.90022 10.2737 10.0254Z"
          fill="#FFF101"/>
    <path fill-rule="evenodd" clip-rule="evenodd"
          d="M12.5332 11.0426L12.6793 10.9699L12.6452 11.1344L12.7898 11.2079L12.6461 11.2842L12.6825 11.4476L12.536 11.378L12.4354 11.5088L12.3976 11.3459L12.2373 11.3448L12.3345 11.2115L12.2347 11.0802L12.3956 11.0766L12.4315 10.9135L12.5332 11.0426"
          fill="#FFF101"/>
    <path fill-rule="evenodd" clip-rule="evenodd"
          d="M12.7289 6.89588C12.664 7.20864 12.3821 7.49478 12.052 7.59533C11.962 7.85976 12.1162 8.27318 12.3302 8.50227C13.222 8.93383 14.1836 8.74112 14.7211 8.83108C14.8911 8.8595 15.2524 8.73284 15.2988 8.40141C15.337 8.12891 15.4637 8.05635 15.5195 7.09708C15.5497 6.57839 15.5396 6.12031 15.6036 5.92088C15.6676 5.72146 15.7408 5.51438 15.926 5.43617C16.1807 5.32849 16.3426 5.13252 16.5245 5.06972C16.7473 4.99276 16.9057 4.9526 17.0063 4.87019C17.1069 4.78778 17.1149 4.54977 16.8533 4.49368C16.2623 4.36681 15.9571 4.72717 15.3973 4.62191C15.1328 4.57221 14.9033 4.59014 14.9245 4.95428C14.9456 5.31832 14.9613 5.82421 14.6356 6.47292C14.4168 6.90867 14.3238 7.43963 14.4574 7.79056C14.2467 7.66002 14.0298 7.63318 13.7656 7.4455C13.5012 7.25771 13.1566 7.05315 12.7289 6.89588"
          fill="white"/>
    <path fill-rule="evenodd" clip-rule="evenodd"
          d="M12.4311 7.38114C12.891 7.55551 12.8731 7.73396 13.4549 7.86083C13.8049 7.93705 14.209 8.09517 14.3814 8.1975L14.3998 8.11792C14.2276 8.01558 13.8233 7.85758 13.4735 7.78125C12.9108 7.65857 12.9091 7.48767 12.4935 7.31876C12.4793 7.33585 12.4447 7.36887 12.4311 7.38114"
          fill="#FFF101"/>
    <path fill-rule="evenodd" clip-rule="evenodd"
          d="M12.6973 7.00788C12.75 7.04049 12.8073 7.07048 12.8596 7.09082C12.8212 7.22712 12.6029 7.36846 12.6845 7.41009C12.7102 7.42361 12.789 7.47478 12.8306 7.50225C12.7656 7.45915 13.0346 7.24212 13.0327 7.17533C13.3044 7.26969 13.5179 7.48642 13.6933 7.53685C13.6657 7.64715 13.5153 7.78933 13.5982 7.81103C13.6413 7.82088 13.7446 7.85255 13.8097 7.87153C13.7421 7.85056 13.8678 7.7413 13.8597 7.67389C14.0047 7.72904 14.2738 7.84469 14.3875 7.91462L14.4573 7.79058C14.2466 7.66005 14.0297 7.6332 13.7655 7.44552C13.5012 7.25774 13.1565 7.05318 12.7288 6.8959C12.7214 6.92778 12.7065 6.97884 12.6973 7.00788"
          fill="#FFF101"/>
    <path fill-rule="evenodd" clip-rule="evenodd"
          d="M14.8073 7.86678C14.6538 7.52581 14.7216 6.97462 14.9085 6.54023C15.1272 6.03181 15.1522 5.61672 15.1336 5.28875C15.18 5.28959 15.219 5.26411 15.2602 5.24544C15.6965 5.04655 15.9503 5.39087 15.8304 5.49373C15.8761 5.45514 15.9167 5.44141 15.9502 5.42547C16.0079 5.39905 15.9565 5.19124 15.7501 5.08828C15.6621 5.04434 15.4966 5.04476 15.397 5.06626C15.4783 4.96592 15.5351 4.9288 15.6471 4.90877C15.6488 4.95921 15.6348 5.01467 15.6165 5.05504C15.6538 5.06007 15.6972 5.06196 15.7501 5.08828C15.7807 5.03354 15.7993 4.95554 15.7937 4.87543C16.0004 4.81693 16.1829 4.73818 16.3826 4.74951C16.7025 4.76765 16.785 4.99643 16.5245 5.06972C16.7473 4.99276 16.9057 4.9526 17.0062 4.87019C17.1069 4.78778 17.1149 4.54977 16.8532 4.49368C16.2623 4.36681 15.9571 4.72717 15.3973 4.62191C15.1327 4.57221 14.8949 4.59087 14.9244 4.95428C14.9283 5.00219 14.9287 5.01446 14.9324 5.0563C14.9324 5.16597 14.7849 5.25006 14.6275 5.13609C14.7425 5.29462 14.8123 5.28025 14.9342 5.27889C14.936 5.22427 15.0582 5.3028 15.0888 5.28697C15.0951 5.48786 15.0839 5.72083 15.0217 5.98558C14.943 5.94898 14.8526 5.92267 14.8246 6.0013C14.8116 6.04461 14.7975 6.08801 14.7815 6.13289C14.8095 6.05425 14.9066 6.08644 14.9852 6.12303C14.9497 6.24476 14.9029 6.3731 14.8421 6.50794C14.772 6.66332 14.7165 6.83402 14.6819 7.00513C14.599 6.98343 14.4549 6.95512 14.4377 7.0433C14.4217 7.12078 14.4092 7.19816 14.4026 7.27375C14.4125 7.1428 14.5678 7.18306 14.6518 7.20099C14.6264 7.43585 14.6444 7.66002 14.7184 7.83239L14.8073 7.86678"
          fill="#FFF101"/>
    <path fill-rule="evenodd" clip-rule="evenodd"
          d="M14.1931 8.57957C14.2103 8.71084 14.1991 8.80783 14.3839 8.81548C14.686 8.82817 14.6614 8.86728 14.9628 8.67666C15.2695 8.48259 15.2776 8.52091 15.3584 8.06681C15.3783 7.95514 15.3351 7.95651 15.1979 7.89507C14.9027 7.76254 14.6445 7.77159 14.3839 7.69452C14.2829 7.94962 14.1636 8.35352 14.1931 8.57957Z"
          fill="#FFF101"/>
    <path fill-rule="evenodd" clip-rule="evenodd"
          d="M14.7781 7.76438C14.9412 7.79667 14.9155 7.79888 14.7749 7.95426C14.9212 8.1216 15.0332 8.23934 15.1529 8.37271C15.2868 8.52201 15.307 8.55556 15.2262 8.60663C15.1226 8.67195 15.0112 8.74492 14.9412 8.79431C14.819 8.88028 14.8091 8.85072 14.7515 8.73937C14.6939 8.62812 14.6105 8.38645 14.4857 8.15683C14.2996 8.24721 14.2635 8.29062 14.279 8.15557C14.2965 8.00459 14.3463 7.76616 14.3785 7.67264C14.476 7.71101 14.6236 7.73356 14.7781 7.76438Z"
          fill="#FFF101"/>
    <path fill-rule="evenodd" clip-rule="evenodd"
          d="M14.4873 5.20129L14.3544 5.10473L14.5072 5.05335L14.4954 4.88517L14.6302 4.97765L14.7469 4.86295L14.7626 5.03091L14.9208 5.05692L14.8054 5.17288L14.8847 5.31904L14.726 5.29734L14.6676 5.45377L14.5843 5.30929L14.4317 5.35825L14.4873 5.20129"
          fill="#FFF101"/>
    <path fill-rule="evenodd" clip-rule="evenodd"
          d="M11.8802 7.36709C11.632 7.11693 11.2572 7.00699 10.9711 7.10281L10.9631 7.09778C10.8879 6.68007 10.871 6.27663 10.898 5.87869C10.9085 5.72476 10.8994 5.61209 10.8693 5.41118C10.8568 5.32786 10.8551 5.3162 10.8506 5.2817C10.8417 5.21251 10.837 5.15393 10.8366 5.09615C10.6169 5.37468 10.1523 5.56139 9.66735 5.58102C9.09371 5.60411 8.73547 5.75557 8.27339 6.0765C8.01668 6.2548 7.87009 6.14869 7.75359 5.80946C7.67645 5.58516 7.58238 5.45568 7.35675 5.21733L7.33939 5.19899C7.10309 4.94928 7.00037 4.80361 6.9197 4.54965C6.84436 4.31273 7.00712 4.14817 7.16203 4.21406C7.17258 4.21853 7.18317 4.22362 7.19386 4.22934C7.24375 4.25603 7.29494 4.29547 7.36269 4.3573C7.38589 4.37848 7.45388 4.44343 7.50654 4.49372L7.50654 4.49372L7.56939 4.55359C7.57705 4.56078 7.58497 4.56774 7.59324 4.57454C7.58147 4.56681 7.56922 4.56175 7.55668 4.55918L7.49799 4.50323C7.44538 4.45297 7.37761 4.38824 7.35453 4.36718C7.28749 4.30599 7.23703 4.26711 7.18823 4.24101C7.17785 4.23546 7.16759 4.23052 7.15739 4.22619C7.01243 4.16454 6.85959 4.31909 6.93158 4.54549C7.01149 4.79708 7.11323 4.94134 7.34829 5.18974L7.36564 5.20808C7.59246 5.44768 7.68744 5.57842 7.76537 5.805C7.87952 6.1374 8.01839 6.23791 8.26654 6.06556C8.73035 5.74342 9.09061 5.59111 9.66691 5.56791C10.1569 5.54807 10.6258 5.3566 10.838 5.07352L10.8492 5.07763C10.8486 5.14086 10.8533 5.20388 10.863 5.27994C10.8674 5.31429 10.8691 5.32593 10.8816 5.40913C10.9119 5.61094 10.921 5.72445 10.9105 5.87961C10.8837 6.27418 10.9002 6.67414 10.9741 7.0881L10.9673 7.09031L10.9754 7.09534L10.9741 7.0881C11.2638 6.99469 11.6394 7.10621 11.8834 7.3559C12.13 7.30877 12.4008 6.98197 12.4873 6.65658C12.4446 6.16821 12.2868 5.72662 12.0033 5.18416C11.9595 5.10046 11.84 4.88087 11.7821 4.77429L11.7502 4.71566C11.6598 4.54659 11.6028 4.42743 11.5636 4.31987C11.4824 4.09716 11.1787 3.9089 10.9284 4.01316C10.8943 4.02734 10.8612 4.03865 10.8249 4.0488C10.8017 4.05531 10.778 4.06115 10.7457 4.06856C10.4123 4.14487 10.2278 4.21032 9.74263 4.46441L9.70168 4.48597C9.60842 4.53535 9.38375 4.65936 9.24392 4.73655L9.24388 4.73657L9.24373 4.73666L9.24338 4.73685L9.24337 4.73686L9.24302 4.73705C9.18408 4.76958 9.14038 4.79371 9.12822 4.80026C8.93612 4.90376 8.81581 4.95828 8.72898 4.97663C8.44187 5.03729 8.29672 5.0347 8.16288 4.92462C8.12074 4.88996 8.07569 4.85861 8.02607 4.82874C8.01326 4.82103 8.00028 4.81349 7.98688 4.80596L7.99086 4.80105L7.98913 4.7924C8.00392 4.80065 8.01818 4.80892 8.03224 4.81738C8.08236 4.84755 8.1279 4.87924 8.17054 4.91432C8.30047 5.02118 8.44285 5.02372 8.72648 4.9638C8.81179 4.94577 8.93142 4.89156 9.12249 4.78861C9.13465 4.78205 9.17859 4.7578 9.23782 4.7251L9.2379 4.72506C9.37771 4.64789 9.60262 4.52373 9.69603 4.47428L9.73702 4.45269C10.2232 4.19809 10.4087 4.13229 10.743 4.05577C10.7751 4.0484 10.7987 4.0426 10.8217 4.03615C10.8575 4.02612 10.8902 4.01498 10.9238 4.00099C11.1813 3.89375 11.4917 4.08623 11.5752 4.31519C11.6141 4.42202 11.6709 4.5407 11.7611 4.70926L11.7927 4.76758C11.8507 4.87404 11.9703 5.094 12.0142 5.17786C12.2985 5.72176 12.4568 6.1649 12.4995 6.65774C12.4116 6.9899 12.1375 7.32065 11.8802 7.36709ZM7.97553 4.78489L7.98913 4.7924L7.98883 4.79091C7.9844 4.78865 7.97996 4.78664 7.97553 4.78489ZM7.93058 4.77565C7.9455 4.77589 7.96051 4.77895 7.97553 4.78489C7.9527 4.77241 7.92847 4.75982 7.90175 4.74643C7.88875 4.73992 7.85994 4.72583 7.8331 4.71272L7.83279 4.70999C7.82209 4.7049 7.81165 4.70064 7.80142 4.69724L7.77743 4.6855C7.69894 4.64655 7.64533 4.61563 7.60203 4.58161L7.60205 4.5809C7.59914 4.57861 7.59621 4.57649 7.59324 4.57454L7.60203 4.58161L7.60176 4.59159L7.59764 4.59447C7.59408 4.59172 7.59059 4.58895 7.58716 4.58615L7.58724 4.58609C7.58973 4.58773 7.59219 4.58951 7.59461 4.59142L7.5949 4.58073L7.58724 4.58609C7.58698 4.58591 7.58671 4.58573 7.58643 4.58555C7.57764 4.57836 7.56924 4.57099 7.56111 4.56335L7.55668 4.55918C7.47649 4.54273 7.38477 4.62806 7.33266 4.76542L7.34192 4.7733L7.59764 4.59447C7.63745 4.6253 7.68567 4.65367 7.7528 4.68765C7.65517 4.6829 7.57315 4.77404 7.46837 5.00726L7.47787 5.01521L7.82912 4.7252C7.85558 4.73812 7.88366 4.75186 7.89641 4.75825L7.93058 4.77565ZM7.9709 4.7971C7.95798 4.79003 7.94461 4.78292 7.93058 4.77565C7.81925 4.7738 7.71331 4.92819 7.6498 5.20301L7.66062 5.2088L7.98688 4.80596L7.97554 4.79965L7.97592 4.79918L7.98332 4.80269L7.98129 4.79255L7.97592 4.79918L7.9709 4.7971ZM7.66839 5.1789C7.73962 4.89243 7.85688 4.75258 7.9709 4.7971L7.97554 4.79965L7.66839 5.1789ZM7.66839 5.1789L7.66187 5.2061L7.65105 5.20031L7.66839 5.1789ZM7.81643 4.71901L7.82912 4.7252L7.83407 4.72111L7.8331 4.71272L7.81641 4.70457L7.81641 4.70457L7.80142 4.69724C7.7847 4.69168 7.76855 4.68842 7.7528 4.68765L7.77213 4.69734L7.79736 4.70968C7.68789 4.67366 7.60435 4.74298 7.49119 4.98754L7.47014 5.00492L7.47965 5.01287L7.49119 4.98754L7.81643 4.71901ZM7.81812 4.71762C7.81109 4.71457 7.80417 4.71192 7.79736 4.70968L7.81128 4.71649L7.81643 4.71901L7.81812 4.71762ZM7.81812 4.71762L7.82763 4.72194L7.82635 4.71082L7.81812 4.71762ZM7.35233 4.75036L7.58716 4.58615C7.58692 4.58595 7.58668 4.58575 7.58643 4.58555C7.51132 4.53688 7.41141 4.61102 7.35233 4.75036ZM7.35233 4.75036L7.33506 4.76243L7.34432 4.77031C7.3469 4.76352 7.34957 4.75687 7.35233 4.75036Z"
          fill="black"/>
    <path fill-rule="evenodd" clip-rule="evenodd"
          d="M11.5007 6.65191C11.4919 6.84566 11.4949 6.94992 11.5245 7.12361L11.5163 7.13094C11.5069 7.12745 11.4947 7.12326 11.482 7.11892C11.4631 7.11242 11.4431 7.10556 11.4296 7.10008C11.407 6.94777 11.4052 6.85293 11.4134 6.6741L11.4151 6.63695C11.425 6.40716 11.4075 6.25327 11.3212 5.97892C11.2172 5.64783 11.1374 5.1959 11.14 4.95983L11.2228 4.94321C11.2248 5.17166 11.3043 5.62214 11.408 5.95185C11.4948 6.22787 11.5124 6.38338 11.5024 6.61471L11.5007 6.65191ZM11.5205 7.11855L11.5123 7.12588C11.5117 7.1222 11.5111 7.11855 11.5104 7.11492C11.514 7.11618 11.5174 7.1174 11.5205 7.11855ZM11.4371 7.09262C11.453 7.09601 11.4863 7.10641 11.5104 7.11492C11.4824 6.94657 11.4796 6.8418 11.4883 6.65125L11.49 6.61408C11.4999 6.38428 11.4825 6.23034 11.3962 5.95593C11.2921 5.625 11.2124 5.1732 11.2184 4.94953L11.148 4.96603C11.15 5.1943 11.2295 5.64491 11.3331 5.97478C11.4199 6.25072 11.4376 6.4062 11.4276 6.63751L11.4259 6.67469C11.4178 6.85272 11.4196 6.94677 11.4371 7.09262Z"
          fill="black"/>
    <path fill-rule="evenodd" clip-rule="evenodd"
          d="M10.0447 4.29486C9.97475 4.32635 9.9753 4.43797 10.0318 4.61185C10.077 4.75089 10.1571 4.92558 10.2534 5.10401L10.2649 5.09902L10.0532 4.29913L10.0447 4.29486ZM11.0708 6.87918C11.08 6.93488 11.0843 7.00157 11.0837 7.0694L11.0787 7.07576L11.0574 7.08049C11.0261 7.08749 10.9907 7.09543 10.9632 7.09782C10.888 6.68011 10.8711 6.27667 10.8981 5.87873C10.9086 5.72479 10.8995 5.61212 10.8694 5.41122C10.8569 5.32789 10.8552 5.31623 10.8507 5.28174C10.8409 5.20511 10.8362 5.14149 10.8431 5.07107L10.9864 5.07913C10.9858 5.19769 11.0171 5.47033 11.05 5.66869C11.0678 5.65882 11.0927 5.65613 11.1319 5.65688L11.148 5.65729C11.1846 5.65834 11.1986 5.65797 11.2114 5.6544C11.2256 5.65046 11.2307 5.64345 11.228 5.6293L11.2343 5.6556C11.2299 5.66084 11.2232 5.66464 11.2146 5.66705C11.2001 5.67108 11.1856 5.67147 11.1476 5.67037L11.1316 5.66997C11.0888 5.66915 11.0643 5.67268 11.0492 5.68466L11.0393 5.68058C11.0056 5.48078 10.9732 5.20052 10.9801 5.08562L10.8492 5.07766C10.8486 5.14089 10.8533 5.20391 10.863 5.27997C10.8675 5.31432 10.8692 5.32595 10.8816 5.40916C10.9119 5.61097 10.921 5.72448 10.9105 5.87964C10.8835 6.27651 10.9004 6.67883 10.9675 7.09029C10.9928 7.08252 11.0363 7.07167 11.0712 7.06398L11.0712 7.06926L11.0761 7.0629L11.0712 7.06398C11.0716 6.99872 11.0674 6.93462 11.0632 6.87391C11.0982 6.86506 11.1406 6.86651 11.1951 6.87601C11.2134 6.8792 11.2316 6.88299 11.2572 6.88873C11.3358 6.90636 11.3475 6.90864 11.3706 6.9091C11.3992 6.90967 11.4108 6.90146 11.4094 6.88029C11.408 6.8577 11.409 6.79767 11.4114 6.72524C11.4197 6.72 11.4243 6.7121 11.4247 6.70114L11.4247 6.70114C11.4218 6.78368 11.4204 6.85502 11.4219 6.87942C11.4239 6.90982 11.4055 6.92292 11.3704 6.92222C11.3461 6.92174 11.3346 6.91948 11.2547 6.90157C11.2292 6.89586 11.2112 6.89211 11.1931 6.88896C11.1402 6.87972 11.0992 6.87832 11.0708 6.87918ZM11.4121 6.70222L11.4114 6.72524C11.4001 6.73228 11.3821 6.73451 11.358 6.73291C11.3276 6.73088 11.2933 6.72416 11.2278 6.70881L11.2207 6.70713C11.1088 6.68083 11.0687 6.67469 11.0511 6.68611L11.0417 6.68187C11.0379 6.66234 11.0345 6.64246 11.0317 6.62217C11.0157 6.50957 11.0148 6.41457 11.0218 6.22901C11.0288 6.04033 11.0277 5.97334 11.014 5.89288C11.0415 5.88499 11.0748 5.88294 11.1213 5.88457C11.1321 5.88495 11.1419 5.88543 11.1593 5.88638C11.2175 5.88955 11.2379 5.88975 11.2577 5.88572C11.2812 5.88094 11.289 5.87095 11.2835 5.85055C11.2766 5.8279 11.2667 5.78928 11.2516 5.72701L11.2499 5.71977C11.2507 5.72307 11.2414 5.68473 11.2343 5.6556C11.2407 5.64814 11.2427 5.63777 11.2396 5.62443L11.2276 5.62759L11.2276 5.62752L11.2397 5.62435C11.2441 5.64212 11.2632 5.72138 11.262 5.71656L11.2638 5.7238C11.2788 5.78578 11.2887 5.82429 11.2955 5.84677C11.3034 5.87566 11.2902 5.8925 11.2601 5.89861C11.2389 5.90293 11.2182 5.90273 11.1588 5.89949C11.1414 5.89854 11.1317 5.89807 11.121 5.89769C11.0929 5.89671 11.0698 5.8971 11.0512 5.89741H11.0512C11.0398 5.8976 11.03 5.89776 11.0218 5.89756C11.0403 5.97183 11.0414 6.03935 11.0343 6.22955C11.0274 6.41431 11.0283 6.50872 11.0441 6.62026C11.0465 6.63748 11.0493 6.65439 11.0524 6.67104C11.0759 6.66215 11.1176 6.66947 11.2235 6.69436L11.2306 6.69604C11.2954 6.71123 11.3293 6.71788 11.3589 6.71985C11.3933 6.72214 11.4105 6.71625 11.4121 6.70222ZM11.4121 6.70222L11.4123 6.70065L11.4247 6.70114L11.4247 6.70113L11.4122 6.70064L11.4121 6.70222ZM11.2276 5.62759L11.228 5.6293L11.2275 5.6276L11.2276 5.62759ZM10.0431 4.31026L10.0411 4.30266L10.0496 4.30692C10.0473 4.30793 10.0452 4.30904 10.0431 4.31026ZM10.2389 5.04992C10.1543 4.88891 10.0845 4.7334 10.0436 4.60763C9.99113 4.44624 9.98873 4.34221 10.0431 4.31026L10.2389 5.04992ZM10.2389 5.04992C10.2472 5.06576 10.2557 5.08165 10.2642 5.09757L10.2528 5.10255L10.2389 5.04992ZM10.0817 5.26987L10.0809 5.27019L10.0809 5.27024L10.0807 5.27034L10.0849 5.28448C10.1439 5.26137 10.203 5.23424 10.2621 5.20335L10.2574 5.18946L10.257 5.18961L10.257 5.18957L10.2562 5.19001L10.0817 5.26987ZM10.0817 5.26987C10.1398 5.2471 10.198 5.22039 10.2562 5.19001L10.257 5.18961L10.2617 5.20345L10.0851 5.28433L10.0809 5.27024L10.0817 5.26987ZM9.20223 5.42499C9.15712 5.43738 9.11326 5.45094 9.07028 5.46577L9.07355 5.48024L9.07376 5.48018L9.07376 5.48019C9.0739 5.48014 9.07403 5.4801 9.07417 5.48005L9.20462 5.43973C9.20477 5.43969 9.20491 5.43965 9.20505 5.43961L9.20505 5.4396L9.20517 5.43956L9.20223 5.42499ZM9.20505 5.4396L9.2021 5.42504L9.07049 5.46572L9.07376 5.48018L9.07417 5.48005C9.11667 5.4654 9.16004 5.45199 9.20462 5.43973L9.20505 5.4396Z"
          fill="black"/>
    <path fill-rule="evenodd" clip-rule="evenodd"
          d="M9.58554 5.28601C10.0633 5.23599 10.5325 5.01039 10.7257 4.71748L10.737 4.7201L10.752 4.82318C10.6499 4.97212 10.478 5.1029 10.2654 5.19347C10.2649 5.1919 10.2741 5.22095 10.2769 5.22972C10.2818 5.24461 10.2862 5.25737 10.2908 5.26954C10.3283 5.36916 10.3725 5.41173 10.4374 5.38172C10.4216 5.38933 10.4053 5.39676 10.3886 5.40404C10.343 5.39841 10.3084 5.35199 10.2792 5.27433C10.2745 5.26195 10.2701 5.249 10.2652 5.23393C10.2623 5.2251 10.2531 5.19598 10.2571 5.18952C10.4712 5.09174 10.6413 4.96231 10.7408 4.82044L10.7273 4.73785C10.7303 4.73356 10.7332 4.72925 10.736 4.72492L10.7248 4.7223L10.7273 4.73785C10.5266 5.02806 10.0609 5.2494 9.58681 5.29904C9.12843 5.34704 8.77709 5.48893 8.43583 5.71667C8.42161 5.68979 8.40453 5.67395 8.36159 5.64254L8.36142 5.64242C8.35005 5.6341 8.34493 5.6303 8.33871 5.62543C8.16589 5.49104 8.08681 5.32183 8.09832 5.16521C8.10635 5.05577 8.16062 4.97411 8.22312 4.96593C8.23476 4.97246 8.24681 4.97828 8.25978 4.98355L8.26423 4.97134C8.26424 4.97135 8.26425 4.97135 8.26425 4.97135L8.25979 4.98359C8.19145 4.95642 8.11995 5.0407 8.11073 5.16623C8.09956 5.31821 8.17663 5.48313 8.34611 5.61493C8.35221 5.61969 8.35725 5.62344 8.36852 5.63168L8.36869 5.6318C8.41317 5.66434 8.43125 5.68111 8.43781 5.70803C8.77179 5.47689 9.12502 5.33424 9.58554 5.28601ZM8.26279 4.97075C8.24944 4.9657 8.2361 4.96423 8.22312 4.96593C8.21183 4.9596 8.20094 4.9526 8.18998 4.94479C8.17965 4.93743 8.15229 4.91596 8.14429 4.90968C8.14298 4.90866 8.14219 4.90804 8.14208 4.90795C8.08171 4.86097 7.95859 5.05154 7.97396 5.25278C7.98093 5.34388 8.0546 5.49099 8.13088 5.5809L8.1251 5.5917C7.99889 5.56758 7.93906 5.53295 7.86788 5.43101C7.90454 5.40705 7.95321 5.39076 7.99807 5.38569L8.00143 5.39391L8.0016 5.3936L8.0067 5.38485C8.00389 5.38508 8.00105 5.38536 7.9982 5.38568C7.99816 5.38568 7.99811 5.38569 7.99807 5.38569L7.98887 5.36316C7.98006 5.34124 7.97353 5.32194 7.97001 5.30345C7.96721 5.28872 7.96631 5.27449 7.96769 5.25985C7.96581 5.25984 7.96392 5.25984 7.96203 5.25987C7.9012 5.26076 7.83143 5.28419 7.76601 5.32463L7.73686 5.29455C7.71936 5.27671 7.67397 5.23153 7.64218 5.19988C7.62649 5.18427 7.61412 5.17195 7.61003 5.16783C7.4877 5.04455 7.41833 4.95786 7.3664 4.8505C7.29778 4.70843 7.28963 4.57903 7.33774 4.51149C7.3698 4.46647 7.42053 4.45715 7.47789 4.484C7.48476 4.49056 7.49151 4.497 7.49803 4.50323C7.5098 4.51447 7.52081 4.52499 7.53039 4.53413C7.45451 4.46933 7.38571 4.46598 7.3477 4.51935C7.30297 4.58216 7.3108 4.7065 7.3775 4.84459C7.42864 4.95032 7.49723 5.03605 7.61864 5.15839C7.6227 5.16248 7.63501 5.17474 7.65064 5.19029C7.68243 5.22195 7.72795 5.26726 7.74552 5.28517C7.75573 5.29557 7.76542 5.30557 7.76687 5.31458C7.82486 5.27323 7.89429 5.24916 7.96134 5.25194C7.94622 5.0424 8.07676 4.84085 8.1494 4.89738C8.14955 4.89749 8.1505 4.89824 8.15206 4.89946C8.16057 4.90614 8.18704 4.9269 8.19695 4.93397C8.21803 4.94899 8.23879 4.96085 8.26279 4.97075ZM8.00367 5.39829C7.95945 5.40256 7.91064 5.41824 7.87595 5.43242C7.94325 5.51778 7.99829 5.55188 8.10977 5.57531C8.06975 5.525 8.03141 5.46081 8.00367 5.39829ZM7.53039 4.53413C7.54389 4.54701 7.55455 4.55715 7.5605 4.56275C7.55038 4.55215 7.54033 4.54262 7.53039 4.53413ZM7.56087 4.5631L7.56085 4.56312C7.56074 4.563 7.56062 4.56287 7.5605 4.56275C7.56063 4.56287 7.56075 4.56298 7.56087 4.5631ZM7.53802 4.52375C7.51753 4.50634 7.49733 4.49309 7.47789 4.484C7.42931 4.43761 7.37479 4.38563 7.35457 4.36718C7.28753 4.30599 7.23706 4.26711 7.18827 4.241C7.17789 4.23545 7.16763 4.23052 7.15742 4.22619C7.01247 4.16454 6.85962 4.31909 6.93161 4.54549C7.01152 4.79708 7.11327 4.94134 7.34832 5.18974L7.36568 5.20808C7.5925 5.44768 7.68748 5.57842 7.7654 5.805C7.81822 5.95881 7.87451 6.05955 7.94569 6.1115C8.03037 6.1733 8.1346 6.16216 8.26645 6.06564C8.28206 6.05422 8.29291 6.0464 8.31116 6.03332L8.3117 6.03293C8.32396 6.02411 8.33359 6.01707 8.34709 6.00705C8.44761 5.94606 8.57076 6.04782 8.57563 6.21315C8.57181 6.22414 8.56752 6.23559 8.56275 6.24758L8.57473 6.25063C8.57571 6.23782 8.57599 6.22531 8.57563 6.21315C8.60878 6.11774 8.60645 6.05738 8.5758 5.99138C8.57 5.9789 8.56319 5.96596 8.5538 5.94927C8.55364 5.94897 8.55344 5.94863 8.55323 5.94826C8.54833 5.93957 8.53231 5.91118 8.53579 5.90559C8.51992 5.91446 8.50709 5.90733 8.49806 5.88859C8.49187 5.87574 8.48779 5.86035 8.48126 5.82932L8.47967 5.82177C8.4714 5.78238 8.46609 5.76577 8.4588 5.76067L8.45896 5.74965C8.65178 5.6238 8.84661 5.52855 9.07821 5.46618C9.09018 5.58319 9.12034 5.64277 9.1822 5.63191C9.2117 5.62503 9.24053 5.61883 9.26931 5.61322C9.28226 5.61948 9.2973 5.62119 9.31466 5.61815L9.31466 5.61816C9.27149 5.6257 9.22895 5.63444 9.18455 5.64479C9.11187 5.65755 9.07844 5.59153 9.07371 5.47319C8.85385 5.54 8.66201 5.63331 8.47233 5.75636C8.47963 5.76629 8.48451 5.78412 8.49183 5.81896L8.49341 5.82652C8.49969 5.85638 8.50363 5.8712 8.50917 5.88269C8.51539 5.89561 8.52125 5.89887 8.53819 5.89648L8.56452 5.94262C8.57406 5.95959 8.58101 5.97281 8.58698 5.98565C8.62284 6.06286 8.62174 6.13335 8.57423 6.25265L8.56225 6.2496C8.57579 6.07217 8.45145 5.95886 8.35379 6.01809C8.34072 6.02782 8.33103 6.0349 8.31873 6.04376L8.31818 6.04415C8.29993 6.05724 8.28912 6.06503 8.27355 6.07641C8.13776 6.17581 8.02797 6.18755 7.93853 6.12228C7.86466 6.06836 7.80726 5.96563 7.75362 5.80946C7.67648 5.58516 7.58242 5.45568 7.35679 5.21734L7.33943 5.199C7.10313 4.94928 7.0004 4.80362 6.91973 4.54965C6.8444 4.31274 7.00715 4.14818 7.16207 4.21406C7.17261 4.21853 7.1832 4.22362 7.1939 4.22934C7.24378 4.25603 7.29498 4.29548 7.36272 4.3573C7.38592 4.37848 7.45392 4.44343 7.50657 4.49372C7.51798 4.50462 7.52867 4.51483 7.53802 4.52375ZM9.31119 5.60547C9.29719 5.60792 9.28325 5.6105 9.26931 5.61322C9.22855 5.59351 9.20854 5.52867 9.20223 5.42495C9.32508 5.39532 9.45479 5.37432 9.59217 5.36252C9.75662 5.34836 9.92469 5.31325 10.0889 5.26439C10.1272 5.40444 10.1736 5.48424 10.2345 5.46284C10.2897 5.44428 10.3409 5.42481 10.3886 5.40404C10.405 5.40607 10.4229 5.4028 10.4424 5.39377C10.3808 5.42329 10.3131 5.45016 10.2383 5.47531C10.1664 5.50058 10.1174 5.41621 10.0848 5.27245C9.92758 5.32605 9.75857 5.36136 9.59316 5.3756C9.45637 5.38735 9.32725 5.40825 9.2098 5.43066C9.22209 5.55209 9.25096 5.615 9.31119 5.60547ZM9.31119 5.60547C9.31168 5.60538 9.31216 5.6053 9.31265 5.60521L9.3147 5.61814C9.31469 5.61814 9.31467 5.61814 9.31466 5.61815L9.31261 5.60523C9.31213 5.60531 9.31166 5.60539 9.31119 5.60547ZM7.53802 4.52375C7.54853 4.53268 7.55911 4.54271 7.56971 4.55383L7.56114 4.56335C7.56105 4.56327 7.56096 4.56318 7.56087 4.5631L7.56942 4.5536C7.56354 4.54807 7.55234 4.53742 7.53802 4.52375ZM8.26279 4.97075C8.26327 4.97093 8.26376 4.97112 8.26424 4.97131L8.26423 4.97134C8.26375 4.97115 8.26327 4.97095 8.26279 4.97075ZM10.4424 5.39377C10.4438 5.39308 10.4452 5.39239 10.4467 5.3917L10.4414 5.37983C10.4401 5.38049 10.4387 5.38112 10.4374 5.38172C10.4388 5.38107 10.4401 5.38042 10.4415 5.37977L10.4468 5.39164C10.4453 5.39238 10.4438 5.39309 10.4424 5.39377Z"
          fill="black"/>
    <path fill-rule="evenodd" clip-rule="evenodd"
          d="M11.7823 7.63268C11.7 7.98349 11.7967 8.37921 12.0189 8.5915L12.0187 8.60132C11.7119 8.87844 11.3878 9.09535 11.0458 9.26993C10.9453 9.32122 10.8595 9.37874 10.7659 9.45386C10.7427 9.47248 10.7197 9.49156 10.69 9.51668C10.6927 9.5144 10.6335 9.56466 10.6172 9.57836C10.5441 9.63965 10.4896 9.68093 10.4309 9.71706C10.7705 9.77752 11.1568 10.1067 11.4154 10.5379C11.7214 11.0479 12.0258 11.2982 12.5212 11.5575C12.7965 11.7018 12.7823 11.8881 12.5608 12.1638C12.4133 12.3473 12.3547 12.4956 12.2691 12.8268C12.1759 13.1876 12.111 13.3476 11.9386 13.5519C11.7808 13.7388 11.5638 13.6732 11.5405 13.4994C11.5323 13.4372 11.5371 13.3669 11.5541 13.269C11.5618 13.225 11.5931 13.0746 11.6085 13.0002L11.617 12.9592C11.6191 12.9487 11.6209 12.9386 11.6224 12.9284C11.622 12.9425 11.624 12.9557 11.628 12.9679L11.6206 13.0034C11.6052 13.0779 11.574 13.2277 11.5664 13.2713C11.5496 13.368 11.5448 13.4371 11.5529 13.4976C11.5747 13.6602 11.7784 13.7219 11.9292 13.5432C12.1001 13.3408 12.1644 13.1824 12.2571 12.8234C12.3431 12.4905 12.4023 12.3408 12.5512 12.1553C12.7683 11.8852 12.7818 11.7087 12.5156 11.5693C12.0184 11.309 11.7122 11.0573 11.4048 10.5449C11.1435 10.1092 10.7512 9.77852 10.4115 9.72715L10.4093 9.71496C10.4734 9.67695 10.5304 9.63434 10.6094 9.56813C10.6257 9.55447 10.6849 9.50423 10.6822 9.50649C10.712 9.4813 10.735 9.46216 10.7583 9.44346C10.8526 9.36784 10.939 9.30986 11.0403 9.25815C11.3795 9.08505 11.7009 8.87024 12.0053 8.5962L12.0105 8.60121L12.0106 8.5914L12.0053 8.5962C11.7833 8.37935 11.6875 7.98214 11.7714 7.63536C11.6093 7.43483 11.2043 7.35194 10.8926 7.4359C10.5928 7.6584 10.3432 7.94342 10.1064 8.30721C10.0412 8.40738 9.9093 8.63688 9.78092 8.86026L9.78091 8.86027C9.64753 9.09236 9.51794 9.31785 9.47087 9.38484C9.45606 9.40591 9.4415 9.42571 9.42712 9.44432C9.28397 9.6295 9.28051 9.99959 9.49175 10.1752C9.50162 10.1834 9.51117 10.1917 9.52051 10.2001C9.54907 10.226 9.575 10.2527 9.60551 10.287L9.64151 10.3284L9.64153 10.3284L9.64159 10.3285L9.64163 10.3285L9.64163 10.3285L9.64168 10.3286L9.64176 10.3287C9.66576 10.3564 9.69454 10.3896 9.70768 10.4043C9.7535 10.4556 9.79918 10.5029 9.85385 10.5545C9.99496 10.6878 10.1859 10.8395 10.4568 11.0277C10.5946 11.1235 11.028 11.4097 11.0258 11.4082C11.2174 11.5375 11.326 11.6217 11.3861 11.6934C11.5796 11.9237 11.6502 12.0574 11.6263 12.2341C11.6164 12.3073 11.6135 12.3722 11.6163 12.4535L11.6103 12.4524L11.604 12.4583C11.6009 12.3742 11.6038 12.3076 11.6139 12.2322C11.6371 12.0607 11.5679 11.9296 11.3768 11.702C11.3176 11.6316 11.2097 11.5478 11.0191 11.4193C11.0214 11.4208 10.5879 11.1345 10.4499 11.0386C10.1786 10.8501 9.98712 10.698 9.84551 10.5642C9.79056 10.5123 9.74464 10.4648 9.69858 10.4132C9.68531 10.3984 9.65626 10.3649 9.63219 10.3371L9.63216 10.3371L9.59639 10.296C9.56616 10.262 9.54054 10.2355 9.51236 10.21C9.50316 10.2017 9.49374 10.1935 9.48401 10.1854C9.26672 10.0048 9.27026 9.62642 9.41743 9.43605C9.43169 9.4176 9.44613 9.39796 9.46083 9.37704C9.50754 9.31056 9.63652 9.08612 9.76957 8.85462L9.76957 8.85462C9.89816 8.63085 10.0306 8.40049 10.0961 8.2998C10.3337 7.93482 10.5843 7.64869 10.8875 7.42419C11.2054 7.3381 11.6153 7.42198 11.7823 7.63268ZM11.6047 12.4748L11.604 12.4583L11.603 12.4593C11.6033 12.4646 11.6039 12.4697 11.6047 12.4748ZM11.6197 12.5202C11.6124 12.5065 11.6074 12.4914 11.6047 12.4748C11.6068 12.52 11.6104 12.5705 11.6155 12.63L11.6164 12.6399L11.6143 12.6416C11.6154 12.6539 11.6171 12.6656 11.6194 12.6767C11.6291 12.7959 11.6311 12.8578 11.6241 12.9154L11.6232 12.9159C11.6227 12.9201 11.6224 12.9243 11.6224 12.9284L11.6241 12.9154L11.6322 12.9108L11.6369 12.9133C11.6364 12.9179 11.6358 12.9224 11.6352 12.927L11.6348 12.9268C11.635 12.9238 11.6352 12.9206 11.6356 12.9175L11.6266 12.9226L11.6348 12.9268C11.6348 12.9278 11.6348 12.9288 11.6348 12.9298C11.6332 12.9404 11.6314 12.951 11.6292 12.9618L11.628 12.9679C11.6544 13.0492 11.7708 13.0899 11.91 13.0685L11.9119 13.0561L11.6369 12.9133C11.6426 12.8644 11.6419 12.812 11.6357 12.7253C11.6805 12.8165 11.7968 12.8456 12.0417 12.8243L12.0435 12.8116L11.6287 12.6373L11.628 12.6288C11.6245 12.5889 11.6218 12.553 11.6197 12.5202ZM11.6171 12.4729C11.6178 12.488 11.6186 12.5037 11.6197 12.5202C11.6741 12.622 11.8542 12.641 12.1123 12.5615L12.1117 12.5487L11.6163 12.4535L11.6169 12.467L11.6162 12.4668L11.6154 12.4583L11.6081 12.4653L11.6162 12.4668L11.6171 12.4729ZM12.0831 12.5566C11.8117 12.6349 11.6378 12.5984 11.6171 12.4729L11.6169 12.467L12.0831 12.5566ZM12.0831 12.5566L12.1089 12.5489L12.1095 12.5616L12.0831 12.5566ZM11.6299 12.652L11.6287 12.6373L11.6228 12.6349L11.6164 12.6399L11.6194 12.6767C11.6232 12.6945 11.6285 12.7107 11.6357 12.7253L11.6318 12.6746C11.657 12.7916 11.7561 12.8327 12.014 12.8134L12.0388 12.8238L12.0406 12.8112L12.014 12.8134L11.6299 12.652ZM11.6278 12.6511C11.6289 12.6592 11.6302 12.6671 11.6318 12.6746L11.6299 12.652L11.6278 12.6511ZM11.6278 12.6511L11.6267 12.6403L11.6181 12.647L11.6278 12.6511ZM11.8877 13.0582L11.6352 12.927C11.635 12.9279 11.6349 12.9289 11.6348 12.9298C11.6338 13.0213 11.7444 13.0742 11.8877 13.0582ZM11.8877 13.0582L11.9063 13.0679L11.9082 13.0555C11.9013 13.0566 11.8945 13.0575 11.8877 13.0582Z"
          fill="black"/>
    <path fill-rule="evenodd" clip-rule="evenodd"
          d="M11.3672 8.34334C11.5504 8.24419 11.6266 8.19534 11.7592 8.07785L11.7694 8.08166C11.7712 8.0919 11.7739 8.10531 11.7768 8.11928C11.7809 8.13954 11.7852 8.161 11.7874 8.17583C11.669 8.27598 11.6 8.31923 11.4292 8.41168L11.394 8.43086C11.2149 8.52962 11.0937 8.62668 10.9168 8.83501C10.6958 9.09524 10.3629 9.39365 10.1668 9.50935L10.1117 9.44235C10.2991 9.32645 10.631 9.0289 10.8511 8.76966C11.0291 8.56002 11.1514 8.46202 11.3321 8.36251L11.3672 8.34334ZM11.7572 8.08408L11.7674 8.08789C11.7646 8.09031 11.7619 8.09269 11.7593 8.09505C11.7585 8.09114 11.7578 8.08745 11.7572 8.08408ZM11.7593 8.09505C11.6306 8.20819 11.5532 8.25749 11.373 8.35502L11.3379 8.37413C11.1586 8.47294 11.0375 8.56998 10.8605 8.77841C10.6395 9.03861 10.3067 9.33703 10.1192 9.44329L10.1681 9.49899C10.3555 9.38312 10.6873 9.08558 10.9076 8.82631C11.0855 8.61676 11.2078 8.51875 11.3883 8.41928L11.4236 8.40005C11.5937 8.30798 11.6621 8.2651 11.7777 8.17285C11.7725 8.15672 11.7643 8.12097 11.7593 8.09505Z"
          fill="black"/>
    <path fill-rule="evenodd" clip-rule="evenodd"
          d="M11.7845 8.61271C11.8259 8.57655 11.8788 8.53923 11.935 8.50593L11.9427 8.50728L11.9574 8.52449C11.9786 8.5491 12.003 8.57747 12.0188 8.60132C11.712 8.87844 11.3879 9.09535 11.0458 9.26993C10.9453 9.32122 10.8596 9.37874 10.766 9.45387C10.7428 9.47249 10.7198 9.49157 10.6901 9.51669C10.6928 9.5144 10.6336 9.56467 10.6172 9.57837C10.5378 9.64497 10.4803 9.68794 10.407 9.72387L10.342 9.58945C10.4403 9.53068 10.6499 9.36553 10.7964 9.2368C10.7788 9.22525 10.7639 9.20307 10.7433 9.16347L10.7318 9.14113C10.7274 9.13282 10.7239 9.12643 10.7206 9.12072C10.7016 9.08822 10.6891 9.08076 10.6738 9.096L10.6651 9.08657L10.6652 9.08652L10.6738 9.09593L10.6939 9.07538C10.7062 9.07847 10.7183 9.09185 10.7312 9.11388C10.7346 9.1198 10.7382 9.12636 10.7426 9.13484L10.7542 9.1572C10.7767 9.20038 10.7918 9.22147 10.81 9.22949L10.8116 9.24054C10.6643 9.37061 10.4488 9.54062 10.3504 9.59194L10.4093 9.71496C10.4734 9.67695 10.5304 9.63434 10.6094 9.56813C10.6257 9.55446 10.6849 9.50423 10.6822 9.50649C10.712 9.4813 10.735 9.46216 10.7583 9.44346C10.8526 9.36784 10.939 9.30986 11.0403 9.25815C11.3814 9.08404 11.7046 8.86774 12.0104 8.6011C11.9911 8.5818 11.9601 8.54736 11.9367 8.51995L11.941 8.51735L11.9333 8.516L11.9367 8.51995C11.8828 8.55222 11.832 8.58809 11.784 8.62226C11.7554 8.5907 11.7338 8.5448 11.7112 8.47647C11.7082 8.46725 11.7013 8.44514 11.6947 8.4238L11.6947 8.4238C11.6883 8.40339 11.6822 8.38368 11.6798 8.37662C11.6686 8.34288 11.6593 8.32181 11.6494 8.30963C11.6391 8.29693 11.6293 8.29506 11.6162 8.30438C11.5981 8.3169 11.5443 8.34807 11.4872 8.37997C11.479 8.37516 11.4705 8.37482 11.4615 8.37943C11.5252 8.34419 11.5896 8.30705 11.6093 8.29347C11.6278 8.28031 11.6447 8.28351 11.659 8.30112C11.6701 8.31492 11.68 8.33708 11.6917 8.37229C11.6941 8.37948 11.7003 8.3994 11.7067 8.41993L11.7067 8.41999L11.7067 8.42C11.7133 8.44124 11.7201 8.4631 11.7231 8.47217C11.7451 8.53886 11.7661 8.58339 11.7845 8.61271ZM11.4665 8.3915L11.4872 8.37997C11.4987 8.38673 11.5097 8.40229 11.5206 8.42537C11.5342 8.45434 11.5456 8.48853 11.566 8.55706C11.5799 8.60369 11.5802 8.60463 11.5853 8.62079C11.6055 8.68486 11.6209 8.71912 11.6351 8.7271L11.6363 8.73777C11.5748 8.79527 11.5047 8.84634 11.419 8.89858C11.3836 8.9202 11.2963 8.96921 11.2316 9.00548L11.2316 9.00548L11.2316 9.00548L11.2316 9.00549C11.1959 9.02555 11.1671 9.04171 11.1578 9.04718C11.0898 9.08752 11.0427 9.12154 10.9994 9.15745C10.9774 9.13462 10.9582 9.10306 10.9334 9.05312L10.9262 9.03833L10.9261 9.03828L10.9261 9.03827C10.9185 9.02256 10.9072 8.99948 10.9031 8.99145C10.8921 8.96994 10.8834 8.95486 10.875 8.94381C10.8577 8.92082 10.8447 8.91745 10.8297 8.93367C10.814 8.95178 10.7863 8.98087 10.7396 9.02862L10.7381 9.03011C10.7436 9.02454 10.7153 9.05347 10.6939 9.07538C10.6848 9.07312 10.6757 9.07635 10.666 9.08569C10.6802 9.07106 10.7375 9.01249 10.7294 9.02082L10.7309 9.01923C10.7774 8.97169 10.8051 8.94268 10.8207 8.9247C10.8419 8.90162 10.8634 8.90718 10.8849 8.93567C10.8938 8.94748 10.9029 8.96312 10.9141 8.98526C10.9183 8.99342 10.9297 9.01679 10.9374 9.03251L10.9445 9.04704C10.963 9.0842 10.9782 9.11085 10.9897 9.13099L10.9897 9.13099L10.9897 9.13099L10.9897 9.13099L10.9994 9.14813C11.035 9.11123 11.0828 9.07663 11.1518 9.03576C11.1611 9.03021 11.1902 9.0139 11.2262 8.9937C11.2908 8.95745 11.3777 8.9087 11.4128 8.88724C11.4951 8.83705 11.5628 8.78803 11.6222 8.73337C11.6066 8.71866 11.5922 8.68436 11.5735 8.62489C11.5684 8.60863 11.5681 8.6077 11.5542 8.56097C11.5339 8.49313 11.5226 8.45929 11.5094 8.43115C11.4934 8.39702 11.4794 8.38438 11.4665 8.39151L11.4665 8.3915ZM11.4665 8.3915L11.4607 8.37992L11.4615 8.37943L11.4606 8.37992L11.4664 8.39152L11.4665 8.3915ZM10.666 9.08569L10.6652 9.08652L10.6651 9.0865L10.666 9.08569ZM10.1659 10.8378C10.2269 10.8857 10.3187 10.8294 10.4339 10.691C10.526 10.5804 10.6301 10.4202 10.729 10.2436L10.7192 10.2357L10.1652 10.828L10.1659 10.8378ZM10.1794 10.8315L10.1741 10.8371L10.1734 10.8273C10.1753 10.8288 10.1773 10.8302 10.1794 10.8315ZM10.4245 10.6824C10.3176 10.8108 10.233 10.865 10.1794 10.8315L10.6916 10.2838C10.6012 10.4411 10.5078 10.5823 10.4245 10.6824ZM10.6916 10.2838C10.7005 10.2683 10.7094 10.2527 10.7182 10.2369L10.728 10.2449L10.6916 10.2838ZM10.7978 10.1974C10.8492 10.2373 10.8981 10.2789 10.9439 10.3223L10.9521 10.3124L10.8055 10.1871L10.7978 10.1974ZM10.7975 10.1972L10.8052 10.1869C10.8569 10.227 10.9061 10.2689 10.9523 10.3126L10.9441 10.3225L10.7975 10.1972ZM11.6227 11.1486C11.6231 11.149 11.6235 11.1494 11.6239 11.1498L11.6335 11.1397C11.6336 11.1398 11.6336 11.1398 11.6337 11.1399L11.624 11.1499L11.6227 11.1486ZM11.5205 11.041L11.6227 11.1486C11.5893 11.1153 11.5555 11.0797 11.5205 11.041ZM11.5194 11.0397C11.5194 11.0397 11.5193 11.0396 11.5193 11.0396L11.5292 11.0298L11.6336 11.1397L11.6335 11.1397C11.5995 11.1059 11.565 11.0695 11.5293 11.0299L11.5194 11.0397ZM11.5194 11.0397C11.5198 11.0401 11.5202 11.0406 11.5205 11.041L11.5194 11.0397L11.5194 11.0397Z"
          fill="black"/>
    <path fill-rule="evenodd" clip-rule="evenodd"
          d="M10.1793 10.0057L10.1758 9.99416C10.1808 9.99459 10.1859 9.99508 10.1909 9.99564L10.1793 10.0057ZM10.9086 9.96967C10.919 9.99488 10.9172 10.0238 10.9046 10.0557C10.8932 10.0847 10.8738 10.1148 10.8459 10.1498C10.8355 10.1628 10.8252 10.175 10.7985 10.1974C10.6105 10.0515 10.4188 9.96162 10.2522 9.94219L10.1909 9.99564C10.5306 10.033 10.946 10.3458 11.2239 10.7521C11.4926 11.1448 11.7853 11.3932 12.1439 11.5898C12.1289 11.6163 12.1243 11.6398 12.1199 11.6948L12.1198 11.6962C12.1188 11.7092 12.1182 11.716 12.1173 11.7238C12.0929 11.9481 11.9928 12.1046 11.8579 12.1725C11.7637 12.2198 11.6693 12.2114 11.6312 12.1588C11.6309 12.1481 11.63 12.1374 11.6286 12.126C11.6475 12.194 11.7483 12.2127 11.8517 12.1607C11.9827 12.0948 12.0802 11.9423 12.1042 11.7223C12.105 11.7147 12.1056 11.708 12.1066 11.6951L12.1067 11.6937C12.1113 11.6367 12.1161 11.6119 12.135 11.5923C11.7772 11.404 11.483 11.1543 11.213 10.7598C10.9329 10.3503 10.5123 10.0365 10.1741 10.0072L10.1706 9.99566L10.2481 9.93064C10.4218 9.94885 10.6155 10.0397 10.7968 10.1878C10.8151 10.1663 10.8253 10.1542 10.8355 10.1414C10.8627 10.1073 10.8815 10.0782 10.8923 10.0507C10.9112 10.0026 10.9036 9.96433 10.8626 9.93469L10.8697 9.92394C10.8699 9.92405 10.87 9.92416 10.8701 9.92427L10.8633 9.93464C10.8783 9.94578 10.8934 9.95746 10.9086 9.96967ZM11.6418 10.8837C11.646 10.9306 11.6026 10.9812 11.5201 11.0389C11.4344 10.9422 11.3522 10.8347 11.2737 10.7155C11.1799 10.5731 11.0669 10.4379 10.9444 10.3129C11.0408 10.2079 11.0833 10.126 11.0352 10.0812C10.992 10.04 10.9499 10.0028 10.9086 9.96967C10.9031 9.95634 10.8942 9.94405 10.8816 9.93287C10.9341 9.97264 10.9875 10.0187 11.0428 10.0715C11.0996 10.1243 11.0546 10.2109 10.9523 10.3126C11.0752 10.4288 11.1888 10.5648 11.2832 10.7081C11.3614 10.8267 11.4432 10.9337 11.5202 11.0291C11.6151 10.9565 11.6523 10.8986 11.6128 10.8483L11.6224 10.8399C11.6225 10.8401 11.6226 10.8402 11.6227 10.8403L11.6135 10.8483C11.6229 10.8603 11.6324 10.8721 11.6418 10.8837ZM12.4837 11.2144C12.3748 11.2341 12.3291 11.2713 12.2822 11.3565C12.2816 11.3575 12.2809 11.3588 12.2801 11.3604C12.2722 11.3749 12.2539 11.4084 12.2498 11.4045C12.2643 11.414 12.2655 11.4284 12.256 11.4449C12.2493 11.4565 12.2386 11.4685 12.2191 11.4874L12.2134 11.4929C12.1799 11.5251 12.1693 11.5372 12.1687 11.547L12.1595 11.5524C11.9593 11.4399 11.7835 11.3104 11.6161 11.1309C11.7066 11.0618 11.7408 11.0044 11.7008 10.9536C11.6807 10.9306 11.6612 10.9075 11.6418 10.8837C11.6408 10.872 11.6368 10.8605 11.6297 10.8492C11.6557 10.8821 11.682 10.9136 11.7095 10.945C11.7565 11.0047 11.7186 11.0683 11.6234 11.1315C11.7885 11.2981 11.9612 11.4258 12.1575 11.5368C12.1619 11.525 12.1744 11.5118 12.2042 11.4832L12.2099 11.4778C12.2285 11.4598 12.2387 11.4484 12.2446 11.4382C12.2509 11.4272 12.2504 11.4208 12.2404 11.4069C12.241 11.4057 12.243 11.4019 12.2457 11.3967C12.2532 11.3825 12.2661 11.3581 12.2706 11.35C12.3242 11.2527 12.3778 11.2146 12.516 11.196L12.5195 11.2084C12.5191 11.2086 12.5187 11.2088 12.5184 11.209L12.5149 11.1966C12.5039 11.202 12.4935 11.208 12.4837 11.2144ZM11.6062 13.077C11.5908 13.1513 11.5728 13.2395 11.5672 13.2713C11.5503 13.368 11.5456 13.437 11.5537 13.4976C11.5755 13.6602 11.7792 13.7218 11.93 13.5432C12.1009 13.3408 12.1651 13.1824 12.2579 12.8234C12.3439 12.4905 12.4031 12.3407 12.552 12.1553C12.6525 12.0303 12.7074 11.9288 12.7147 11.8381C12.7233 11.7302 12.662 11.641 12.5165 11.5693C12.4985 11.5605 12.4955 11.559 12.4671 11.5447L12.4666 11.5445C12.4527 11.5375 12.4425 11.5324 12.4279 11.5253C12.3272 11.4644 12.3496 11.3015 12.4837 11.2144C12.4946 11.2124 12.5061 11.2106 12.5184 11.209C12.3663 11.2857 12.3354 11.4547 12.4329 11.5137C12.447 11.5206 12.4572 11.5256 12.4713 11.5327L12.4717 11.5329C12.5001 11.5471 12.5031 11.5486 12.5211 11.5574C12.6709 11.6312 12.7355 11.7252 12.7264 11.8392C12.7188 11.9333 12.6628 12.0368 12.5608 12.1638C12.4134 12.3473 12.3547 12.4956 12.2692 12.8268C12.176 13.1876 12.1111 13.3476 11.9386 13.5519C11.7808 13.7388 11.5639 13.6732 11.5406 13.4994C11.5323 13.4372 11.5371 13.3669 11.5542 13.269C11.5618 13.225 11.5931 13.0746 11.6085 13.0002C11.613 12.9786 11.6162 12.9634 11.617 12.9591L11.6177 12.9593C11.6064 13.0039 11.6029 13.0435 11.6062 13.077ZM12.0038 12.2487C12.0349 12.3037 12.0892 12.3555 12.1555 12.3949C12.1442 12.4395 12.1416 12.4507 12.1169 12.5598C12.0671 12.7791 12.0333 12.884 11.9642 12.9953C11.8814 13.1287 11.7787 13.2008 11.6989 13.1909C11.6457 13.1842 11.6126 13.1427 11.6062 13.077C11.6109 13.0542 11.6153 13.0328 11.6191 13.0147C11.6072 13.1101 11.6388 13.1703 11.6997 13.1779C11.7738 13.1871 11.8725 13.1178 11.953 12.9882C12.0211 12.8785 12.0546 12.7747 12.104 12.5568C12.1288 12.4475 12.1314 12.4363 12.146 12.3992C12.0828 12.3671 12.0283 12.316 11.9971 12.2537C11.8319 12.3722 11.6003 12.3543 11.6107 12.26C11.6113 12.253 11.612 12.2465 11.6137 12.2325C11.6191 12.1857 11.6199 12.157 11.6142 12.1185L11.6265 12.1164C11.6265 12.1165 11.6265 12.1166 11.6265 12.1166L11.615 12.1185C11.6173 12.1339 11.623 12.1474 11.6312 12.1588C11.6319 12.1814 11.6303 12.2042 11.6268 12.2341C11.6252 12.2481 11.6245 12.2544 11.6238 12.2614C11.6152 12.3396 11.8335 12.3563 11.9917 12.2422C11.9919 12.2421 11.9921 12.2419 11.9922 12.2418C12.0001 12.2361 12.0082 12.2293 12.0163 12.2216C12.0296 12.2089 12.0431 12.1938 12.0565 12.1768C12.066 12.1648 12.0754 12.1519 12.0845 12.1384C12.1261 12.0768 12.1635 12.0016 12.1845 11.9351L12.1963 11.9349C12.2394 12.0616 12.2407 12.1334 12.1924 12.2491C12.1543 12.2278 12.1166 12.1918 12.0898 12.1534C12.0923 12.15 12.0941 12.1474 12.0949 12.1463L12.0937 12.1463L12.0848 12.1461C12.0863 12.1483 12.0878 12.1505 12.0893 12.1527C12.0895 12.153 12.0897 12.1532 12.0898 12.1534C12.0892 12.1544 12.0885 12.1553 12.0877 12.1564C12.0819 12.1645 12.0743 12.1752 12.0711 12.1795C12.061 12.1933 12.0516 12.2047 12.0412 12.2157C12.0343 12.2231 12.027 12.2301 12.0196 12.2353C12.0135 12.2396 12.0074 12.2428 12.0012 12.244C12.0021 12.2455 12.0029 12.2471 12.0038 12.2487ZM12.0966 12.142C12.1224 12.1802 12.1597 12.2167 12.1887 12.241C12.2253 12.1372 12.226 12.07 12.1896 11.957C12.1681 12.0186 12.1343 12.0856 12.0966 12.142ZM11.6191 13.0147C11.6211 12.9982 11.6245 12.9807 11.6292 12.9622L11.6177 12.9593C11.6178 12.9591 11.6178 12.959 11.6179 12.9588L11.63 12.9618C11.6292 12.9661 11.626 12.9815 11.6214 13.0034C11.6207 13.007 11.6199 13.0107 11.6191 13.0147ZM12.5184 11.209C12.5184 11.209 12.5184 11.209 12.5184 11.209L12.5184 11.209C12.5184 11.209 12.5184 11.209 12.5184 11.209ZM11.6297 10.8492C11.6273 10.8462 11.625 10.8433 11.6227 10.8403L11.6231 10.8399C11.6255 10.843 11.6277 10.8461 11.6297 10.8492ZM10.8816 9.93287C10.8778 9.92997 10.874 9.9271 10.8701 9.92427L10.8704 9.92389C10.8744 9.9268 10.8782 9.92979 10.8816 9.93287ZM11.6265 12.1166L11.6273 12.1165C11.6278 12.1197 11.6282 12.1229 11.6286 12.126C11.6277 12.123 11.6271 12.1198 11.6265 12.1166Z"
          fill="black"/>
    <path fill-rule="evenodd" clip-rule="evenodd"
          d="M12.5349 11.0344L12.4364 10.9093L12.4255 10.912L12.3895 11.0751L12.2346 11.0736L12.2298 11.0843L12.3297 11.2155L12.2324 11.3408L12.2373 11.3514L12.3976 11.3524L12.4294 11.5104L12.4403 11.5129L12.5409 11.3821L12.6799 11.4536L12.6886 11.4461L12.6522 11.2827L12.7927 11.2137L12.7926 11.202L12.648 11.1285L12.6854 10.9713L12.6766 10.964L12.5349 11.0344ZM12.6713 10.9825L12.5367 11.0494L12.5292 11.0477L12.4353 10.9285L12.4385 10.9159L12.4276 10.9186L12.4353 10.9285L12.3966 11.0841L12.2479 11.0874L12.2404 11.077L12.2357 11.0877L12.2479 11.0874L12.3404 11.2164L12.2505 11.3397L12.2382 11.3392L12.2431 11.3498L12.2505 11.3397L12.4045 11.3453L12.4394 11.4958L12.4314 11.5056L12.4423 11.5082L12.4394 11.4958L12.5394 11.3729L12.6748 11.4373L12.6773 11.45L12.6859 11.4426L12.6748 11.4373L12.6442 11.2793L12.777 11.2088L12.788 11.2147L12.7879 11.203L12.777 11.2088L12.64 11.1339L12.6713 10.9825ZM12.6713 10.9825L12.6828 10.9768L12.674 10.9694L12.6713 10.9825Z"
          fill="black"/>
    <path fill-rule="evenodd" clip-rule="evenodd"
          d="M12.0503 7.58905C12.3807 7.48837 12.6589 7.20247 12.7228 6.89449L12.7309 6.8897C13.1132 7.03027 13.4544 7.21657 13.769 7.44008C13.8996 7.5328 13.9775 7.57003 14.2065 7.66281C14.3156 7.70701 14.3798 7.73646 14.4452 7.77557C14.3253 7.43647 14.4037 6.92061 14.63 6.46987C14.8977 5.93672 14.9519 5.535 14.9182 4.95469C14.8994 4.63208 15.0601 4.55192 15.3984 4.61547C15.619 4.65695 15.7765 4.63643 16.0739 4.55393L16.097 4.54752C16.4343 4.45378 16.6013 4.43292 16.8545 4.48727C17.0875 4.53723 17.1418 4.76748 17.0101 4.87537C16.9601 4.91629 16.8958 4.94821 16.7965 4.98439C16.7652 4.99578 16.6687 5.02814 16.5989 5.05154L16.5989 5.05154L16.5264 5.07595L16.5159 5.07974C16.5262 5.07317 16.535 5.06547 16.5424 5.05679L16.5953 5.03894C16.6651 5.01556 16.7612 4.98331 16.7923 4.97198C16.8905 4.93623 16.9537 4.90485 17.0023 4.865C17.1256 4.76406 17.0746 4.54782 16.8519 4.50008C16.6012 4.44624 16.4358 4.4669 16.1002 4.56016L16.0771 4.56658C15.778 4.64952 15.619 4.67025 15.3961 4.62834C15.0647 4.56607 14.9125 4.642 14.9306 4.95386C14.9645 5.53636 14.91 5.94033 14.641 6.47595C14.4123 6.9314 14.3357 7.45354 14.4631 7.78811L14.4541 7.79618C14.384 7.7527 14.319 7.72242 14.202 7.67501C13.9721 7.58188 13.8936 7.54436 13.762 7.45091C13.45 7.22929 13.1119 7.04437 12.7334 6.90449L12.7349 6.89725L12.7268 6.90204L12.7334 6.90449C12.6656 7.21461 12.3858 7.50039 12.0578 7.59752C11.9735 7.84517 12.1076 8.25469 12.3327 8.4963C12.4543 8.55516 12.5807 8.60406 12.7123 8.64397C13.1178 8.76691 13.4499 8.79369 14.1098 8.79531C14.4486 8.79615 14.5808 8.80095 14.722 8.82459C14.9464 8.8621 15.2534 8.68021 15.2926 8.40044C15.2991 8.35398 15.3083 8.31141 15.3218 8.26267C15.3302 8.23253 15.3669 8.11246 15.3634 8.12426C15.382 8.06199 15.3967 8.00754 15.4109 7.94467C15.4572 7.74014 15.4911 7.47602 15.5132 7.09667C15.5217 6.95043 15.524 6.8925 15.5351 6.5803C15.5489 6.18928 15.5618 6.03042 15.5976 5.91877C15.6911 5.62747 15.7659 5.49667 15.9236 5.43007C15.9867 5.40338 16.0452 5.37132 16.1095 5.3293L16.1116 5.33537L16.1197 5.33815C16.0534 5.38168 15.9933 5.41476 15.9283 5.44226C15.7752 5.50691 15.7019 5.63521 15.6095 5.92299C15.5742 6.03287 15.5614 6.19148 15.5476 6.58081C15.5365 6.89314 15.5342 6.95111 15.5257 7.09749C15.5036 7.47755 15.4696 7.74241 15.4231 7.94773C15.4088 8.01093 15.3941 8.06568 15.3753 8.12822C15.3788 8.1166 15.3422 8.23643 15.3339 8.26637C15.3205 8.31456 15.3114 8.35656 15.305 8.40237C15.2647 8.69015 14.9508 8.87612 14.7201 8.83756C14.5797 8.81407 14.4479 8.80928 14.1098 8.80845C13.4488 8.80682 13.1159 8.77997 12.7089 8.65659C12.5767 8.61651 12.4497 8.56738 12.3257 8.50687C12.0956 8.26063 11.9599 7.84615 12.0503 7.58905ZM16.132 5.32996L16.1197 5.33815L16.1209 5.33859C16.1248 5.33583 16.1285 5.33295 16.132 5.32996ZM16.1626 5.29329C16.1548 5.30691 16.1446 5.31917 16.132 5.32996C16.1529 5.31598 16.1745 5.30095 16.197 5.28473C16.2096 5.27567 16.2373 5.25527 16.2633 5.23615L16.2657 5.23723C16.2752 5.23009 16.2839 5.22277 16.2918 5.21522L16.3179 5.19604C16.3631 5.16324 16.398 5.13985 16.4318 5.12033C16.4516 5.10885 16.4707 5.099 16.4893 5.09068L16.4916 5.092C16.5005 5.08852 16.5086 5.08442 16.5159 5.07974C16.5071 5.08303 16.4983 5.08668 16.4893 5.09068L16.4817 5.08639L16.4813 5.08C16.4859 5.07791 16.4904 5.07591 16.495 5.074L16.4951 5.07587C16.4921 5.07731 16.4891 5.07866 16.4859 5.07991L16.4958 5.08552L16.4951 5.07587C16.4994 5.07377 16.5035 5.07149 16.5074 5.06901C16.5124 5.06706 16.5175 5.06521 16.5225 5.06347L16.5424 5.05679C16.5981 4.99076 16.569 4.86796 16.4716 4.75478L16.4588 4.75926L16.4813 5.08C16.4632 5.08819 16.4448 5.09778 16.4257 5.10882C16.395 5.1266 16.3634 5.14748 16.3242 5.17553C16.3768 5.08915 16.3425 4.96892 16.2027 4.75718L16.1914 4.76185L16.255 5.2262C16.2294 5.24508 16.2023 5.265 16.1899 5.27389L16.1626 5.29329ZM16.1249 5.31909C16.1372 5.31087 16.1498 5.30228 16.1626 5.29329C16.2198 5.19297 16.1454 5.01943 15.9505 4.82431L15.9403 4.83125L16.1095 5.3293L16.1203 5.32217L16.1205 5.32278L16.1139 5.32776L16.1233 5.33098L16.1205 5.32278L16.1249 5.31909ZM15.961 4.85334C16.1615 5.06112 16.2183 5.23756 16.1249 5.31909L16.1203 5.32217L15.961 4.85334ZM15.961 4.85334L15.9419 4.83381L15.952 4.82687L15.961 4.85334ZM16.2665 5.21777L16.255 5.2262L16.2559 5.23283L16.2633 5.23615L16.2769 5.22616L16.2772 5.22591L16.2772 5.2259L16.2918 5.21522C16.3048 5.20272 16.3157 5.18957 16.3242 5.17553L16.3107 5.18522L16.2841 5.20477C16.368 5.12334 16.3524 5.01258 16.2076 4.78785L16.2038 4.76001L16.1925 4.76468L16.2076 4.78785L16.2665 5.21777ZM16.2668 5.22011C16.273 5.2151 16.2788 5.20999 16.2841 5.20477L16.2699 5.21521L16.2699 5.21523L16.2665 5.21777L16.2668 5.22011ZM16.2668 5.22011L16.2585 5.2266L16.2683 5.23099L16.2668 5.22011ZM16.4745 4.78011L16.495 5.074C16.4991 5.07226 16.5033 5.0706 16.5074 5.06901C16.5837 5.01996 16.5678 4.89792 16.4745 4.78011ZM16.4745 4.78011L16.4729 4.75839L16.4602 4.76287C16.4651 4.7686 16.4699 4.77435 16.4745 4.78011Z"
          fill="black"/>
    <path fill-rule="evenodd" clip-rule="evenodd"
          d="M12.5227 7.42562C12.493 7.4125 12.4619 7.39974 12.429 7.38728L12.4271 7.37614C12.4351 7.36894 12.4452 7.35936 12.4557 7.34949C12.47 7.33594 12.485 7.32185 12.4958 7.31262C12.5121 7.31925 12.528 7.32597 12.5435 7.3328C12.6643 7.38592 12.7172 7.41792 12.8771 7.52559C13.0688 7.6547 13.2013 7.71518 13.4748 7.77481C13.8001 7.84579 14.2127 7.99919 14.406 8.11945L14.3783 8.20318C14.1889 8.09073 13.7776 7.93778 13.4537 7.86722C13.1786 7.80723 13.0447 7.74612 12.8517 7.61615C12.6933 7.50949 12.6414 7.47803 12.5227 7.42562ZM12.4352 7.38608L12.4332 7.37493C12.4366 7.3762 12.4399 7.37747 12.4432 7.37874C12.4404 7.38137 12.4377 7.38383 12.4352 7.38608ZM12.4982 7.32302C12.4876 7.33586 12.4624 7.36095 12.4432 7.37874C12.4726 7.39007 12.5007 7.40164 12.5276 7.41352C12.6471 7.4663 12.6995 7.49805 12.8584 7.6051C13.0502 7.73425 13.1827 7.79472 13.4563 7.85437C13.7814 7.92519 14.1939 8.07858 14.3754 8.1959L14.3968 8.12358C14.2078 8.01129 13.7964 7.85833 13.4723 7.78762C13.1972 7.72764 13.0633 7.66653 12.8703 7.5366C12.711 7.42932 12.6586 7.39761 12.5387 7.34486C12.5378 7.34449 12.537 7.34412 12.5362 7.34375C12.5216 7.33735 12.507 7.33095 12.4982 7.32302Z"
          fill="black"/>
    <path fill-rule="evenodd" clip-rule="evenodd"
          d="M14.9929 6.12496C15.0091 6.07671 15.0229 6.03116 15.0348 5.98716L15.0209 5.98383L15.0209 5.98404L15.0208 5.98403C15.0207 5.98444 15.0206 5.98485 15.0205 5.98526L14.9797 6.11975C14.9795 6.12022 14.9794 6.12068 14.9792 6.12114L14.9793 6.12115L14.9792 6.12128L14.9929 6.12496ZM14.9793 6.12115L14.9929 6.12482L15.0347 5.98736L15.0209 5.98404L15.0205 5.98526C15.0089 6.02821 14.9954 6.07269 14.9797 6.11975L14.9793 6.12115ZM12.8574 7.09692C12.8068 7.07723 12.7496 7.04779 12.6941 7.01348L12.6914 7.00577L12.6983 6.98359C12.708 6.95199 12.7192 6.9158 12.7309 6.88967C13.1132 7.03024 13.4544 7.21654 13.769 7.44005C13.8995 7.53277 13.9774 7.57 14.2065 7.66278C14.3241 7.71044 14.3896 7.74095 14.4627 7.79387L14.3844 7.92023C14.2866 7.86013 14.0452 7.75193 13.8662 7.68333C13.8655 7.70186 13.8574 7.72311 13.8423 7.75077C13.8388 7.75707 13.8352 7.76343 13.8302 7.77207C13.8067 7.81236 13.8021 7.82098 13.7979 7.83504C13.793 7.85182 13.7965 7.86055 13.8115 7.8652L13.8081 7.8778L13.808 7.87776L13.8114 7.86518L13.7849 7.85736C13.7826 7.85008 13.7831 7.84129 13.786 7.83121C13.7906 7.81557 13.7952 7.80691 13.8195 7.76524C13.8245 7.75669 13.8281 7.75043 13.8314 7.74427C13.8481 7.71369 13.8555 7.69195 13.8535 7.67467L13.8618 7.66769C14.0422 7.73633 14.2905 7.84735 14.3821 7.91125L14.4542 7.79619C14.384 7.7527 14.319 7.72243 14.202 7.67502C13.9721 7.58189 13.8936 7.54437 13.762 7.45091C13.4482 7.228 13.1079 7.04222 12.7349 6.89742C12.7286 6.92441 12.7158 6.96972 12.7048 7.00487L12.7004 7.0022L12.7032 7.00991L12.7048 7.00487C12.7583 7.03767 12.8133 7.06596 12.8655 7.09264L12.8634 7.0998L12.8574 7.09692ZM13.0264 7.17842L13.0265 7.17549L13.0347 7.16907C13.1354 7.20406 13.2295 7.25463 13.3517 7.33369L13.356 7.33657L13.3561 7.33658C13.3806 7.35279 13.5007 7.43206 13.5349 7.45308C13.5992 7.49261 13.6494 7.51739 13.6993 7.53847C13.6939 7.56033 13.6836 7.58422 13.6685 7.61207C13.6609 7.62624 13.6524 7.64073 13.6408 7.65962L13.6402 7.6606L13.6402 7.6606C13.6025 7.72212 13.595 7.73437 13.5895 7.74745L13.5851 7.75865C13.575 7.78566 13.5788 7.79914 13.5995 7.80459C13.6225 7.80984 13.6605 7.82058 13.7241 7.83937L13.729 7.84081L13.7722 7.85364L13.7849 7.85736C13.7878 7.86678 13.7952 7.87368 13.8074 7.87762L13.7688 7.86625L13.7256 7.85342L13.7207 7.85198C13.6574 7.83327 13.6195 7.82256 13.5967 7.81734C13.5672 7.8096 13.5609 7.78736 13.5735 7.75383L13.5739 7.75297C13.5755 7.74857 13.5768 7.74506 13.5783 7.74161C13.584 7.72817 13.5917 7.71558 13.6294 7.654L13.6294 7.65399L13.6294 7.65399L13.6294 7.65398L13.6303 7.65252C13.6418 7.63381 13.6502 7.61951 13.6577 7.60559C13.6629 7.59594 13.6675 7.58681 13.6717 7.57848C13.6793 7.56355 13.6855 7.5512 13.6916 7.54312C13.6448 7.52965 13.5938 7.50444 13.5286 7.46438C13.4941 7.44314 13.3727 7.36303 13.3491 7.34746L13.3451 7.34484C13.2268 7.26826 13.1351 7.21867 13.0383 7.18417L13.0264 7.17842ZM12.814 7.48361C12.7582 7.44702 12.7066 7.41439 12.6873 7.40419C12.6678 7.39427 12.6679 7.378 12.6864 7.34863C12.6946 7.33567 12.7059 7.32086 12.7227 7.30091L12.7487 7.2705L12.7705 7.24508C12.8156 7.19165 12.8428 7.15247 12.8586 7.11299C12.8603 7.10855 12.8619 7.10415 12.8634 7.0998L13.0264 7.17842C13.0248 7.20039 12.999 7.2339 12.922 7.32187L12.9164 7.32826C12.8728 7.3781 12.8499 7.40634 12.8335 7.43264C12.8207 7.45308 12.8138 7.47017 12.814 7.48361ZM12.814 7.48361L12.8339 7.49666L12.8273 7.50774L12.8272 7.50775C12.8184 7.50191 12.8142 7.49381 12.814 7.48361ZM13.8074 7.87762L13.808 7.87776L13.808 7.87777L13.8074 7.87762ZM15.5021 7.45601C15.5112 7.37668 15.4188 7.32138 15.2471 7.28586C15.1098 7.25745 14.9257 7.24294 14.7305 7.24129L14.7288 7.25419L15.4944 7.46158L15.5021 7.45601ZM15.4902 7.44692L15.4975 7.44889L15.4897 7.45446C15.49 7.45192 15.4901 7.44941 15.4902 7.44692ZM14.7823 7.25515C14.9573 7.25874 15.1205 7.27302 15.2447 7.29872C15.404 7.33169 15.491 7.3815 15.4902 7.44692L14.7823 7.25515ZM14.7823 7.25515C14.7651 7.25479 14.7477 7.25454 14.7303 7.2544L14.7319 7.2415L14.7823 7.25515ZM14.6597 7.20173C14.668 7.13482 14.6793 7.06968 14.694 7.0065L14.68 7.0041L14.6801 7.00378L14.6941 7.00618L14.6597 7.20204L14.6456 7.20026L14.6456 7.19995L14.6597 7.20173ZM14.6457 7.1992L14.6456 7.19995L14.6456 7.19995L14.6457 7.1992ZM14.6457 7.1992L14.6798 7.00477L14.68 7.0041L14.68 7.00409L14.6798 7.00477C14.6653 7.06774 14.654 7.1326 14.6457 7.1992Z"
          fill="black"/>
    <path fill-rule="evenodd" clip-rule="evenodd"
          d="M14.9143 6.54294C14.7165 7.00245 14.6679 7.54185 14.8129 7.86399L14.8051 7.87294L14.7127 7.8351C14.6409 7.66786 14.619 7.44633 14.6506 7.20742L14.619 7.20062C14.5931 7.19517 14.5727 7.19162 14.5528 7.18946C14.4663 7.18006 14.4167 7.20152 14.4093 7.26925C14.411 7.25136 14.4129 7.23319 14.4152 7.2147C14.44 7.17977 14.4878 7.16919 14.5541 7.1764C14.5744 7.1786 14.5952 7.18221 14.6215 7.18774C14.6287 7.18926 14.6512 7.19415 14.658 7.20171C14.6317 7.44561 14.6534 7.66484 14.7206 7.82622L14.7954 7.85516C14.7974 7.86001 14.7995 7.86481 14.8017 7.86956L14.8095 7.86062L14.7954 7.85516C14.6563 7.52759 14.7067 6.99346 14.9029 6.53751C15.0925 6.09673 15.1511 5.70636 15.1338 5.28218C15.1627 5.2827 15.1848 5.27501 15.2302 5.25265L15.2323 5.25159C15.2448 5.24545 15.2506 5.24266 15.2577 5.23942C15.4549 5.14952 15.634 5.16224 15.7574 5.251C15.8432 5.31269 15.8834 5.40218 15.8598 5.46308C15.8491 5.46999 15.8396 5.47752 15.8265 5.4886L15.8265 5.48861L15.8343 5.49879C15.8461 5.4887 15.8545 5.47659 15.8598 5.46308C15.8767 5.45212 15.8967 5.44275 15.9394 5.4233L15.9477 5.41945C16.0167 5.3879 15.9211 5.1808 15.7474 5.09418C15.7474 5.09418 15.7474 5.09418 15.7474 5.09418C15.7459 5.09343 15.7444 5.0927 15.7429 5.09199C15.6629 5.0547 15.5088 5.04882 15.3983 5.07266L15.3922 5.06199C15.4754 4.9594 15.5338 4.92238 15.6534 4.90852C15.6549 4.95381 15.644 5.00616 15.6257 5.04959L15.6173 5.04852L15.6175 5.04894L15.6221 5.05785C15.6233 5.0552 15.6245 5.05252 15.6257 5.0498C15.6257 5.04973 15.6257 5.04966 15.6257 5.04959L15.6302 5.05015C15.666 5.05446 15.6895 5.05831 15.7096 5.06588C15.7219 5.07052 15.7329 5.07655 15.7447 5.08494C15.7457 5.08326 15.7466 5.08156 15.7475 5.07984C15.7772 5.02402 15.7928 4.94891 15.7921 4.86909C15.8251 4.85975 15.8574 4.84998 15.9035 4.83557C16.0504 4.7897 16.0756 4.78221 16.1381 4.76776C16.2272 4.74716 16.3055 4.73855 16.383 4.74295C16.5344 4.75154 16.6453 4.80881 16.677 4.88633C16.6981 4.93797 16.6804 4.98873 16.6297 5.02745C16.6179 5.03142 16.6063 5.03529 16.5954 5.03894C16.5837 5.04286 16.5728 5.04653 16.563 5.04981C16.6537 5.01321 16.6904 4.95255 16.6655 4.89153C16.636 4.81945 16.5295 4.76441 16.3823 4.75606C16.306 4.75174 16.2288 4.76023 16.1408 4.78059C16.0787 4.79494 16.0536 4.80241 15.9071 4.84816C15.8608 4.86261 15.8285 4.8724 15.8 4.87496C15.8051 4.94845 15.7902 5.02357 15.7544 5.08319M16.5265 5.07594C16.5264 5.07597 16.5263 5.076 16.5261 5.07603L16.5226 5.06347C16.5296 5.06106 16.5441 5.05616 16.563 5.04981C16.5506 5.05481 16.5373 5.05936 16.5229 5.0634L16.5265 5.07594ZM16.5267 5.07588C16.5266 5.0759 16.5265 5.07593 16.5265 5.07595L16.5265 5.07594C16.5265 5.07592 16.5266 5.0759 16.5267 5.07588ZM16.5658 5.06265C16.5909 5.05264 16.6122 5.04075 16.6297 5.02745C16.6936 5.00599 16.7662 4.98154 16.7924 4.97198C16.8906 4.93623 16.9538 4.90485 17.0024 4.865C17.1257 4.76406 17.0747 4.54782 16.852 4.50008C16.6012 4.44624 16.4359 4.4669 16.1002 4.56016L16.0772 4.56658C15.7781 4.64952 15.6191 4.67025 15.3962 4.62834C15.2429 4.59953 15.1317 4.60036 15.0533 4.63909C14.9599 4.68519 14.917 4.78553 14.9307 4.9537L14.9348 5.0083L14.935 5.01103C14.9362 5.02678 14.9372 5.03899 14.9387 5.05628C14.9387 5.1782 14.7933 5.23925 14.6546 5.16107C14.6474 5.15209 14.64 5.14244 14.6325 5.1321L14.624 5.14146C14.6341 5.14878 14.6443 5.15531 14.6546 5.16107C14.6955 5.21221 14.7322 5.24204 14.7704 5.25754C14.8063 5.27208 14.8336 5.27423 14.9093 5.27274C14.9215 5.2725 14.9269 5.2724 14.928 5.27865C14.9286 5.25998 14.9407 5.25182 14.9603 5.25279C14.9739 5.25347 14.9889 5.25745 15.0168 5.26671L15.0205 5.26793C15.0622 5.28179 15.0778 5.28534 15.0861 5.28107L15.0951 5.28673C15.1025 5.52458 15.0836 5.74957 15.0192 5.99155C14.9167 5.94388 14.8526 5.94152 14.8305 6.00325C14.8215 6.03333 14.8122 6.06263 14.8024 6.09173C14.7908 6.10038 14.7819 6.11323 14.7757 6.13058L14.7874 6.13516C14.7874 6.13517 14.7874 6.13518 14.7874 6.13519L14.7757 6.13061C14.7911 6.08733 14.8052 6.0442 14.8187 5.99902C14.8446 5.9265 14.9157 5.92911 15.0156 5.98402C15.0705 5.75054 15.0895 5.52927 15.0828 5.2957C15.0709 5.29749 15.0537 5.29275 15.0167 5.28046L15.0131 5.27924C14.9862 5.27034 14.9718 5.26652 14.9597 5.26591C14.9463 5.26525 14.9408 5.26895 14.9343 5.28546L14.9095 5.28587C14.8321 5.2874 14.8038 5.28516 14.7659 5.2698C14.7185 5.25059 14.674 5.21103 14.6226 5.14007L14.6311 5.1307C14.7706 5.23175 14.9262 5.17539 14.9262 5.05691C14.9247 5.04016 14.9238 5.02788 14.9226 5.01207L14.9224 5.00934L14.9182 4.95485C14.9041 4.78165 14.9493 4.67595 15.0479 4.62726C15.1293 4.58706 15.2427 4.58622 15.3984 4.61547C15.619 4.65695 15.7765 4.63643 16.0739 4.55393L16.097 4.54752C16.4344 4.45378 16.6014 4.43292 16.8545 4.48727C17.0875 4.53723 17.1419 4.76748 17.0101 4.87537C16.9602 4.91629 16.8958 4.94821 16.7965 4.98439C16.7652 4.99578 16.6687 5.02814 16.599 5.05154C16.587 5.05556 16.5758 5.05931 16.5658 5.06265ZM14.7877 6.13419C14.7928 6.12004 14.7977 6.10591 14.8024 6.09173C14.839 6.06453 14.9024 6.07878 14.9912 6.12494C14.9544 6.25119 14.9068 6.37971 14.8478 6.51072C14.7773 6.6671 14.7222 6.8374 14.6804 7.01147C14.5458 6.97622 14.4567 6.97848 14.4438 7.04466C14.4315 7.10451 14.4219 7.16095 14.4152 7.2147C14.4047 7.22959 14.3983 7.24891 14.3965 7.27317L14.3965 7.27317C14.4027 7.20126 14.4145 7.12481 14.4316 7.04199C14.4468 6.96388 14.541 6.96149 14.6758 7.00378C14.7102 6.8337 14.7656 6.66243 14.8365 6.50515C14.8953 6.3747 14.9426 6.24677 14.9827 6.12904C14.876 6.07934 14.8098 6.0742 14.7877 6.13419ZM14.7877 6.13419C14.7876 6.13452 14.7875 6.13484 14.7874 6.13517L14.7874 6.13516C14.7875 6.13484 14.7876 6.13451 14.7877 6.13419ZM16.5267 5.07588C16.5406 5.07195 16.5537 5.06752 16.5658 5.06265C16.5476 5.06877 16.5336 5.07349 16.5267 5.07588ZM15.6125 5.04846C15.6312 5.006 15.6426 4.95384 15.6482 4.91525C15.5442 4.93384 15.4886 4.96678 15.4134 5.05635C15.475 5.04517 15.5471 5.04242 15.6125 5.04846ZM14.3965 7.27317L14.4089 7.27428C14.409 7.27258 14.4092 7.2709 14.4093 7.26925C14.4092 7.27095 14.409 7.27264 14.4089 7.27433L14.3965 7.27322C14.3965 7.2732 14.3965 7.27319 14.3965 7.27317Z"
          fill="black"/>
  </g>
</svg>
