<svg width="24" height="18" viewBox="0 0 24 18" fill="none" xmlns="http://www.w3.org/2000/svg">
  <rect x="0.25" y="0.25" width="23.5" height="16.6429" rx="1.75" fill="white" stroke="#F5F5F5" stroke-width="0.5"/>
  <mask id="mask0" mask-type="alpha" maskUnits="userSpaceOnUse" x="0" y="0" width="24" height="18">
    <rect x="0.25" y="0.25" width="23.5" height="16.6429" rx="1.75" fill="white" stroke="white" stroke-width="0.5"/>
  </mask>
  <g mask="url(#mask0)">
    <path fill-rule="evenodd" clip-rule="evenodd" d="M0 5.71429H24V0H0V5.71429Z" fill="#FFA44A"/>
    <path fill-rule="evenodd" clip-rule="evenodd" d="M0 17.1428H24V11.4286H0V17.1428Z" fill="#1A9F0B"/>
    <path
      d="M12 10.6191C13.1309 10.6191 14.0476 9.7023 14.0476 8.57143C14.0476 7.44056 13.1309 6.52381 12 6.52381C10.8691 6.52381 9.95237 7.44056 9.95237 8.57143C9.95237 9.7023 10.8691 10.6191 12 10.6191Z"
      fill="#181A93" fill-opacity="0.15" stroke="#181A93" stroke-width="0.666667"/>
    <path fill-rule="evenodd" clip-rule="evenodd"
          d="M12 9.14283C12.3156 9.14283 12.5715 8.88699 12.5715 8.5714C12.5715 8.25581 12.3156 7.99997 12 7.99997C11.6845 7.99997 11.4286 8.25581 11.4286 8.5714C11.4286 8.88699 11.6845 9.14283 12 9.14283Z"
          fill="#181A93"/>
  </g>
</svg>
