<svg width="24" height="18" viewBox="0 0 24 18" fill="none" xmlns="http://www.w3.org/2000/svg">
  <path
    d="M1.79742 17.14H22.2025C23.1952 17.14 24 16.2628 24 15.1807V1.95927C24 0.877265 23.1952 0 22.2025 0H1.79742C0.804703 0 0 0.877265 0 1.95927V15.1807C0 16.2628 0.804703 17.14 1.79742 17.14Z"
    fill="#F5F5F5"/>
  <path
    d="M23.9999 13.5315C22.7985 13.5315 22.7985 13.0805 21.5972 13.0805C20.3959 13.0805 20.3959 13.5315 19.1946 13.5315C17.9941 13.5315 17.9941 13.0805 16.7936 13.0805C15.5941 13.0805 15.5941 13.5315 14.3947 13.5315C13.1946 13.5315 13.1946 13.0805 11.9945 13.0805C10.7947 13.0805 10.7947 13.5315 9.59494 13.5315C8.39517 13.5315 8.39512 13.0805 7.19541 13.0805C5.99569 13.0805 5.99559 13.5315 4.79583 13.5315C3.59653 13.5315 3.59653 13.0805 2.39733 13.0805C1.19869 13.0805 1.19869 13.5315 0 13.5315V12.1784C1.19864 12.1784 1.19864 11.7273 2.39733 11.7273C3.59658 11.7273 3.59658 12.1784 4.79583 12.1784C5.99564 12.1784 5.99564 11.7273 7.19541 11.7273C8.39517 11.7273 8.39522 12.1784 9.59494 12.1784C10.7947 12.1784 10.7947 11.7273 11.9945 11.7273C13.1946 11.7273 13.1946 12.1784 14.3947 12.1784C15.5942 12.1784 15.5942 11.7273 16.7936 11.7273C17.9941 11.7273 17.9941 12.1784 19.1946 12.1784C20.396 12.1784 20.396 11.7273 21.5972 11.7273C22.7986 11.7273 22.7986 12.1784 23.9999 12.1784V13.5315Z"
    fill="#41479B"/>
  <path
    d="M23.9999 8.11895C22.7985 8.11895 22.7985 7.66788 21.5972 7.66788C20.3959 7.66788 20.3959 8.11895 19.1946 8.11895C17.9941 8.11895 17.9941 7.66788 16.7936 7.66788C15.5941 7.66788 15.5941 8.11895 14.3947 8.11895C13.1946 8.11895 13.1946 7.66788 11.9945 7.66788C10.7947 7.66788 10.7947 8.11895 9.59494 8.11895C8.39517 8.11895 8.39512 7.66788 7.19541 7.66788C5.99569 7.66788 5.99559 8.11895 4.79583 8.11895C3.59653 8.11895 3.59653 7.66788 2.39733 7.66788C1.19869 7.66788 1.19869 8.11895 0 8.11895V6.76583C1.19864 6.76583 1.19864 6.31476 2.39733 6.31476C3.59658 6.31476 3.59658 6.76583 4.79583 6.76583C5.99564 6.76583 5.99564 6.31476 7.19541 6.31476C8.39517 6.31476 8.39522 6.76583 9.59494 6.76583C10.7947 6.76583 10.7947 6.31476 11.9945 6.31476C13.1946 6.31476 13.1946 6.76583 14.3947 6.76583C15.5942 6.76583 15.5942 6.31476 16.7936 6.31476C17.9941 6.31476 17.9941 6.76583 19.1946 6.76583C20.396 6.76583 20.396 6.31476 21.5972 6.31476C22.7986 6.31476 22.7986 6.76583 23.9999 6.76583V8.11895Z"
    fill="#41479B"/>
  <path
    d="M23.9999 5.41264C22.7985 5.41264 22.7985 4.96157 21.5972 4.96157C20.3959 4.96157 20.3959 5.41264 19.1946 5.41264C17.9941 5.41264 17.9941 4.96157 16.7936 4.96157C15.5941 4.96157 15.5941 5.41264 14.3947 5.41264C13.1946 5.41264 13.1946 4.96157 11.9945 4.96157C10.7947 4.96157 10.7947 5.41264 9.59494 5.41264C8.39517 5.41264 8.39512 4.96157 7.19541 4.96157C5.99569 4.96157 5.99559 5.41264 4.79583 5.41264C3.59653 5.41264 3.59653 4.96157 2.39733 4.96157C1.19869 4.96157 1.19869 5.41264 0 5.41264V4.05947C1.19864 4.05947 1.19864 3.6084 2.39733 3.6084C3.59658 3.6084 3.59658 4.05947 4.79583 4.05947C5.99564 4.05947 5.99564 3.6084 7.19541 3.6084C8.39517 3.6084 8.39522 4.05947 9.59494 4.05947C10.7947 4.05947 10.7947 3.6084 11.9945 3.6084C13.1946 3.6084 13.1946 4.05947 14.3947 4.05947C15.5942 4.05947 15.5942 3.6084 16.7936 3.6084C17.9941 3.6084 17.9941 4.05947 19.1946 4.05947C20.396 4.05947 20.396 3.6084 21.5972 3.6084C22.7986 3.6084 22.7986 4.05947 23.9999 4.05947V5.41264Z"
    fill="#41479B"/>
  <path
    d="M23.9999 2.70635C22.7985 2.70635 22.7985 2.25527 21.5972 2.25527C20.3959 2.25527 20.3959 2.70635 19.1946 2.70635C17.9941 2.70635 17.9941 2.25527 16.7936 2.25527C15.5941 2.25527 15.5941 2.70635 14.3947 2.70635C13.1946 2.70635 13.1946 2.25527 11.9945 2.25527C10.7947 2.25527 10.7947 2.70635 9.59494 2.70635C8.39517 2.70635 8.39512 2.25527 7.19541 2.25527C5.99569 2.25527 5.99559 2.70635 4.79583 2.70635C3.59653 2.70635 3.59653 2.25527 2.39733 2.25527C1.19869 2.25527 1.19869 2.70635 0 2.70635V1.35317C1.19864 1.35317 1.19864 0.9021 2.39733 0.9021C3.59658 0.9021 3.59658 1.35317 4.79583 1.35317C5.99564 1.35317 5.99564 0.9021 7.19541 0.9021C8.39517 0.9021 8.39522 1.35317 9.59494 1.35317C10.7947 1.35317 10.7947 0.9021 11.9945 0.9021C13.1946 0.9021 13.1946 1.35317 14.3947 1.35317C15.5942 1.35317 15.5942 0.9021 16.7936 0.9021C17.9941 0.9021 17.9941 1.35317 19.1946 1.35317C20.396 1.35317 20.396 0.9021 21.5972 0.9021C22.7986 0.9021 22.7986 1.35317 23.9999 1.35317V2.70635Z"
    fill="#41479B"/>
  <path
    d="M23.9999 10.8252C22.7985 10.8252 22.7985 10.3742 21.5972 10.3742C20.3959 10.3742 20.3959 10.8252 19.1946 10.8252C17.9941 10.8252 17.9941 10.3742 16.7936 10.3742C15.5941 10.3742 15.5941 10.8252 14.3947 10.8252C13.1946 10.8252 13.1946 10.3742 11.9945 10.3742C10.7947 10.3742 10.7947 10.8252 9.59494 10.8252C8.39517 10.8252 8.39512 10.3742 7.19541 10.3742C5.99569 10.3742 5.99559 10.8252 4.79583 10.8252C3.59653 10.8252 3.59653 10.3742 2.39733 10.3742C1.19869 10.3742 1.19869 10.8252 0 10.8252V9.47207C1.19864 9.47207 1.19864 9.021 2.39733 9.021C3.59658 9.021 3.59658 9.47207 4.79583 9.47207C5.99564 9.47207 5.99564 9.021 7.19541 9.021C8.39517 9.021 8.39522 9.47207 9.59494 9.47207C10.7947 9.47207 10.7947 9.021 11.9945 9.021C13.1946 9.021 13.1946 9.47207 14.3947 9.47207C15.5942 9.47207 15.5942 9.021 16.7936 9.021C17.9941 9.021 17.9941 9.47207 19.1946 9.47207C20.396 9.47207 20.396 9.021 21.5972 9.021C22.7986 9.021 22.7986 9.47207 23.9999 9.47207V10.8252Z"
    fill="#41479B"/>
  <path
    d="M23.9999 16.2379C22.7985 16.2379 22.7985 15.7868 21.5972 15.7868C20.3959 15.7868 20.3959 16.2379 19.1946 16.2379C17.9941 16.2379 17.9941 15.7868 16.7936 15.7868C15.5941 15.7868 15.5941 16.2379 14.3947 16.2379C13.1946 16.2379 13.1946 15.7868 11.9945 15.7868C10.7947 15.7868 10.7947 16.2379 9.59494 16.2379C8.39517 16.2379 8.39512 15.7868 7.19541 15.7868C5.99569 15.7868 5.99559 16.2379 4.79583 16.2379C3.59653 16.2379 3.59653 15.7868 2.39733 15.7868C1.19869 15.7868 1.19869 16.2379 0 16.2379V14.8847C1.19864 14.8847 1.19864 14.4337 2.39733 14.4337C3.59658 14.4337 3.59658 14.8847 4.79583 14.8847C5.99564 14.8847 5.99564 14.4337 7.19541 14.4337C8.39517 14.4337 8.39522 14.8847 9.59494 14.8847C10.7947 14.8847 10.7947 14.4337 11.9945 14.4337C13.1946 14.4337 13.1946 14.8847 14.3947 14.8847C15.5942 14.8847 15.5942 14.4337 16.7936 14.4337C17.9941 14.4337 17.9941 14.8847 19.1946 14.8847C20.396 14.8847 20.396 14.4337 21.5972 14.4337C22.7986 14.4337 22.7986 14.8847 23.9999 14.8847V16.2379Z"
    fill="#41479B"/>
  <path
    d="M0.413813 8.57H11.5862C11.8147 8.57 12 8.36802 12 8.11893V0.451074C12 0.202033 11.8148 0.000153288 11.5864 0H1.79742C0.804703 0 0 0.877265 0 1.95927V8.11893C0 8.36812 0.185297 8.57 0.413813 8.57Z"
    fill="#41479B"/>
  <path
    d="M0.413812 8.57H1.13255L4.96552 5.83264V8.57H7.03448V5.83264L10.8674 8.57H11.5861C11.8147 8.57 12 8.36802 12 8.11893V7.76115L8.71148 5.41263H12V3.15737H8.71144L12 0.808847V0.451074C12 0.202033 11.8148 0.000153288 11.5864 0H10.8674L7.03444 2.73736V0H4.96547V2.73736L1.25831 0.0898263C0.825469 0.238004 0.463594 0.560062 0.240516 0.980632L3.28852 3.15737H0V5.41263H3.28852L0 7.76115V8.11893C0 8.36802 0.185297 8.57 0.413812 8.57Z"
    fill="#F5F5F5"/>
  <path d="M12 3.60844H6.62067V0H5.37928V3.60844H0V4.96156H5.37928V8.57H6.62067V4.96156H12V3.60844Z" fill="#FF4B55"/>
  <path
    d="M0.385742 0.747349L3.79177 3.15739H4.5518L0.684805 0.421204C0.573758 0.516753 0.473398 0.626251 0.385742 0.747349Z"
    fill="#FF4B55"/>
  <path d="M7.79452 3.15737L11.937 0.226201C11.865 0.0934033 11.738 0 11.5862 0H11.4967L7.03448 3.15737H7.79452Z"
        fill="#FF4B55"/>
  <path
    d="M4.19418 5.41266L0.0595703 8.3382C0.130867 8.47422 0.259867 8.57002 0.413898 8.57002H0.491945L4.95421 5.41266H4.19418Z"
    fill="#FF4B55"/>
  <path d="M11.9934 8.15447L8.11838 5.41272H7.3584L11.7587 8.52619C11.8906 8.45951 11.9809 8.31977 11.9934 8.15447Z"
        fill="#FF4B55"/>
  <path
    d="M18.2069 15.2833C18.0487 15.2833 17.9204 15.1435 17.9204 14.9711V4.97919H18.4933V14.9711C18.4934 15.1436 18.3651 15.2833 18.2069 15.2833Z"
    fill="#965032"/>
  <path
    d="M22.217 6.22814L21.6441 5.9159L19.5347 5.62853L20.8398 3.79946L21.0424 3.13705L20.4347 3.35789L18.7568 4.78044L18.4931 2.48123L18.2066 1.85669L17.9202 2.48123L17.6566 4.78044L15.9786 3.35789L15.3709 3.13705L15.5735 3.79946L16.8786 5.62853L14.7692 5.9159L14.1963 6.22814L14.7692 6.54039L16.8786 6.82786L15.5735 8.65683L15.3709 9.31929L15.9786 9.0985L17.8015 7.55296L18.2066 6.85269L18.6117 7.55296L20.4347 9.0985L21.0424 9.31929L20.8398 8.65683L19.5347 6.82786L21.6441 6.54039L22.217 6.22814Z"
    fill="#73AF00"/>
  <path
    d="M19.4537 9.86478C19.1963 9.58468 18.6451 9.68764 18.3499 9.76888V9.50681C18.3499 9.42061 18.2858 9.35071 18.2067 9.35071C18.1276 9.35071 18.0635 9.42061 18.0635 9.50681V9.76883C17.7684 9.68738 17.2171 9.58442 16.9596 9.86478C16.7141 10.1323 16.892 10.7773 17.0609 11.2257V11.6409C17.0609 11.7557 17.1463 11.8486 17.2515 11.8486H19.1619C19.2672 11.8486 19.3525 11.7556 19.3525 11.6409V11.2257C19.5214 10.7773 19.6993 10.1323 19.4537 9.86478ZM19.2512 10.0856C19.3606 10.2049 19.2381 10.7277 19.0407 11.2242H18.3498V10.0914C18.6714 9.99211 19.112 9.93346 19.2512 10.0856ZM17.1621 10.0856C17.3012 9.93351 17.7418 9.99217 18.0635 10.0914V11.2241H17.3726C17.1752 10.7277 17.0528 10.2049 17.1621 10.0856Z"
    fill="#FFE15A"/>
</svg>
