<svg width="24" height="18" viewBox="0 0 24 18" fill="none" xmlns="http://www.w3.org/2000/svg">
  <rect x="0.25" y="0.25" width="23.5" height="16.6429" rx="1.75" fill="white" stroke="#F5F5F5" stroke-width="0.5"/>
  <mask id="mask0" mask-type="alpha" maskUnits="userSpaceOnUse" x="0" y="0" width="24" height="18">
    <rect x="0.25" y="0.25" width="23.5" height="16.6429" rx="1.75" fill="white" stroke="white" stroke-width="0.5"/>
  </mask>
  <g mask="url(#mask0)">
    <path fill-rule="evenodd" clip-rule="evenodd" d="M0 5.71429H24V0H0V5.71429Z" fill="#DF1E35"/>
    <path fill-rule="evenodd" clip-rule="evenodd" d="M0 17.1428H24V11.4286H0V17.1428Z" fill="#262626"/>
    <path fill-rule="evenodd" clip-rule="evenodd"
          d="M16 7.39649C16 7.1487 16.2607 6.98753 16.4824 7.09835L16.9586 7.33644C17.0715 7.39291 17.1428 7.50833 17.1428 7.63459V9.95238C17.1428 10.1365 16.9936 10.2857 16.8095 10.2857H16.3333C16.1492 10.2857 16 10.1365 16 9.95239V7.39649Z"
          fill="#0F7A40"/>
    <path fill-rule="evenodd" clip-rule="evenodd"
          d="M9.14282 7.39649C9.14282 7.1487 9.40359 6.98753 9.62523 7.09835L10.1014 7.33644C10.2143 7.39291 10.2857 7.50833 10.2857 7.63459V9.95238C10.2857 10.1365 10.1364 10.2857 9.95235 10.2857H9.47616C9.29206 10.2857 9.14282 10.1365 9.14282 9.95239V7.39649Z"
          fill="#0F7A40"/>
    <path fill-rule="evenodd" clip-rule="evenodd"
          d="M13.7143 7.63459C13.7143 7.50833 13.7856 7.39291 13.8985 7.33644L14.3747 7.09835C14.5964 6.98753 14.8571 7.1487 14.8571 7.39649V9.95239C14.8571 10.1365 14.7079 10.2857 14.5238 10.2857H14.0476C13.8635 10.2857 13.7143 10.1365 13.7143 9.95239V7.63459Z"
          fill="#0F7A40"/>
    <path fill-rule="evenodd" clip-rule="evenodd"
          d="M11.4286 8.77742C11.4286 8.65116 11.4999 8.53574 11.6129 8.47928L12.0891 8.24118C12.3107 8.13037 12.5715 8.29153 12.5715 8.53933V9.19402H14.2857V10.2857H12.5715H11.7619C11.5778 10.2857 11.4286 10.1365 11.4286 9.95236V8.77742Z"
          fill="#0F7A40"/>
    <path fill-rule="evenodd" clip-rule="evenodd"
          d="M6.85715 8.77742C6.85715 8.65116 6.92848 8.53574 7.04141 8.47928L7.5176 8.24118C7.73923 8.13037 8 8.29153 8 8.53933V9.19402H9.71429V10.2857H8H7.19048C7.00639 10.2857 6.85715 10.1365 6.85715 9.95236V8.77742Z"
          fill="#0F7A40"/>
  </g>
</svg>
