<svg width="24" height="18" viewBox="0 0 24 18" fill="none" xmlns="http://www.w3.org/2000/svg">
  <rect x="0.25" y="0.25" width="23.5" height="16.6429" rx="1.75" fill="white" stroke="#F5F5F5" stroke-width="0.5"/>
  <mask id="mask0" mask-type="alpha" maskUnits="userSpaceOnUse" x="0" y="0" width="24" height="18">
    <rect x="0.25" y="0.25" width="23.5" height="16.6429" rx="1.75" fill="white" stroke="white" stroke-width="0.5"/>
  </mask>
  <g mask="url(#mask0)">
    <path fill-rule="evenodd" clip-rule="evenodd" d="M0 5.71429H24V0H0V5.71429Z" fill="#38BB56"/>
    <path fill-rule="evenodd" clip-rule="evenodd" d="M0 17.1428H24V11.4286H0V17.1428Z" fill="#DE1B27"/>
    <path fill-rule="evenodd" clip-rule="evenodd"
          d="M1.47627 4.57141C1.29217 4.57141 1.14294 4.72065 1.14294 4.90474V5.38094C1.14294 5.56503 1.29217 5.71427 1.47627 5.71427H1.95246C2.13655 5.71427 2.28579 5.56503 2.28579 5.38093V4.90474C2.28579 4.72065 2.13655 4.57141 1.95246 4.57141H1.47627ZM3.7619 4.57141C3.5778 4.57141 3.42856 4.72065 3.42856 4.90474V5.38094C3.42856 5.56503 3.5778 5.71427 3.7619 5.71427H4.23809C4.42218 5.71427 4.57142 5.56503 4.57142 5.38093V4.90474C4.57142 4.72065 4.42218 4.57141 4.23809 4.57141H3.7619ZM5.71435 4.90474C5.71435 4.72065 5.86359 4.57141 6.04768 4.57141H6.52387C6.70797 4.57141 6.8572 4.72065 6.8572 4.90474V5.38093C6.8572 5.56503 6.70797 5.71427 6.52387 5.71427H6.04768C5.86359 5.71427 5.71435 5.56503 5.71435 5.38094V4.90474ZM8.33336 4.57141C8.14926 4.57141 8.00003 4.72065 8.00003 4.90474V5.38094C8.00003 5.56503 8.14926 5.71427 8.33336 5.71427H8.80955C8.99365 5.71427 9.14288 5.56503 9.14288 5.38093V4.90474C9.14288 4.72065 8.99364 4.57141 8.80955 4.57141H8.33336ZM10.2857 4.90474C10.2857 4.72065 10.4349 4.57141 10.619 4.57141H11.0952C11.2793 4.57141 11.4286 4.72065 11.4286 4.90474V5.38093C11.4286 5.56503 11.2793 5.71427 11.0952 5.71427H10.619C10.4349 5.71427 10.2857 5.56503 10.2857 5.38094V4.90474ZM12.9048 4.57141C12.7207 4.57141 12.5715 4.72065 12.5715 4.90474V5.38094C12.5715 5.56503 12.7207 5.71427 12.9048 5.71427H13.381C13.5651 5.71427 13.7143 5.56503 13.7143 5.38093V4.90474C13.7143 4.72065 13.5651 4.57141 13.381 4.57141H12.9048ZM14.8572 4.90474C14.8572 4.72065 15.0064 4.57141 15.1905 4.57141H15.6667C15.8508 4.57141 16 4.72065 16 4.90474V5.38093C16 5.56503 15.8508 5.71427 15.6667 5.71427H15.1905C15.0064 5.71427 14.8572 5.56503 14.8572 5.38094V4.90474ZM17.4762 4.57141C17.2921 4.57141 17.1428 4.72065 17.1428 4.90474V5.38094C17.1428 5.56503 17.2921 5.71427 17.4762 5.71427H17.9524C18.1365 5.71427 18.2857 5.56503 18.2857 5.38093V4.90474C18.2857 4.72065 18.1365 4.57141 17.9524 4.57141H17.4762ZM19.4286 4.90474C19.4286 4.72065 19.5779 4.57141 19.762 4.57141H20.2382C20.4222 4.57141 20.5715 4.72065 20.5715 4.90474V5.38093C20.5715 5.56503 20.4222 5.71427 20.2382 5.71427H19.762C19.5779 5.71427 19.4286 5.56503 19.4286 5.38094V4.90474ZM22.0476 4.57141C21.8636 4.57141 21.7143 4.72065 21.7143 4.90474V5.38094C21.7143 5.56503 21.8636 5.71427 22.0476 5.71427H22.5238C22.7079 5.71427 22.8572 5.56503 22.8572 5.38093V4.90474C22.8572 4.72065 22.7079 4.57141 22.5238 4.57141H22.0476ZM1.14288 11.7619C1.14288 11.5778 1.29212 11.4286 1.47622 11.4286H1.95241C2.1365 11.4286 2.28574 11.5778 2.28574 11.7619V12.2381C2.28574 12.4222 2.1365 12.5714 1.95241 12.5714H1.47622C1.29212 12.5714 1.14288 12.4222 1.14288 12.2381V11.7619ZM3.7619 11.4286C3.5778 11.4286 3.42856 11.5778 3.42856 11.7619V12.2381C3.42856 12.4222 3.5778 12.5714 3.7619 12.5714H4.23809C4.42218 12.5714 4.57142 12.4222 4.57142 12.2381V11.7619C4.57142 11.5778 4.42218 11.4286 4.23809 11.4286H3.7619ZM5.71435 11.7619C5.71435 11.5778 5.86359 11.4286 6.04768 11.4286H6.52387C6.70797 11.4286 6.8572 11.5778 6.8572 11.7619V12.2381C6.8572 12.4222 6.70797 12.5714 6.52387 12.5714H6.04768C5.86359 12.5714 5.71435 12.4222 5.71435 12.2381V11.7619ZM8.33336 11.4286C8.14926 11.4286 8.00003 11.5778 8.00003 11.7619V12.2381C8.00003 12.4222 8.14926 12.5714 8.33336 12.5714H8.80955C8.99365 12.5714 9.14288 12.4222 9.14288 12.2381V11.7619C9.14288 11.5778 8.99364 11.4286 8.80955 11.4286H8.33336ZM10.2857 11.7619C10.2857 11.5778 10.4349 11.4286 10.619 11.4286H11.0952C11.2793 11.4286 11.4286 11.5778 11.4286 11.7619V12.2381C11.4286 12.4222 11.2793 12.5714 11.0952 12.5714H10.619C10.4349 12.5714 10.2857 12.4222 10.2857 12.2381V11.7619ZM12.9048 11.4286C12.7207 11.4286 12.5715 11.5778 12.5715 11.7619V12.2381C12.5715 12.4222 12.7207 12.5714 12.9048 12.5714H13.381C13.5651 12.5714 13.7143 12.4222 13.7143 12.2381V11.7619C13.7143 11.5778 13.5651 11.4286 13.381 11.4286H12.9048ZM14.8572 11.7619C14.8572 11.5778 15.0064 11.4286 15.1905 11.4286H15.6667C15.8508 11.4286 16 11.5778 16 11.7619V12.2381C16 12.4222 15.8508 12.5714 15.6667 12.5714H15.1905C15.0064 12.5714 14.8572 12.4222 14.8572 12.2381V11.7619ZM17.4762 11.4286C17.2921 11.4286 17.1428 11.5778 17.1428 11.7619V12.2381C17.1428 12.4222 17.2921 12.5714 17.4762 12.5714H17.9524C18.1365 12.5714 18.2857 12.4222 18.2857 12.2381V11.7619C18.2857 11.5778 18.1365 11.4286 17.9524 11.4286H17.4762ZM19.4286 11.7619C19.4286 11.5778 19.5779 11.4286 19.762 11.4286H20.2382C20.4222 11.4286 20.5715 11.5778 20.5715 11.7619V12.2381C20.5715 12.4222 20.4222 12.5714 20.2382 12.5714H19.762C19.5779 12.5714 19.4286 12.4222 19.4286 12.2381V11.7619ZM22.0476 11.4286C21.8636 11.4286 21.7143 11.5778 21.7143 11.7619V12.2381C21.7143 12.4222 21.8636 12.5714 22.0476 12.5714H22.5238C22.7079 12.5714 22.8572 12.4222 22.8572 12.2381V11.7619C22.8572 11.5778 22.7079 11.4286 22.5238 11.4286H22.0476Z"
          fill="white" fill-opacity="0.5"/>
    <mask id="path-6-inside-1" fill="white">
      <path fill-rule="evenodd" clip-rule="evenodd"
            d="M10.8459 7.3038C10.5017 7.61734 10.2857 8.06914 10.2857 8.57139C10.2857 9.51817 11.0532 10.2857 12 10.2857V10.2857C12.9468 10.2857 13.7143 9.51817 13.7143 8.57139C13.7143 8.07862 13.5064 7.63441 13.1735 7.3217"/>
    </mask>
    <path
      d="M10.3969 6.81098C9.9199 7.24553 9.61904 7.8738 9.61904 8.57139H10.9524C10.9524 8.26449 11.0835 7.98915 11.2948 7.79662L10.3969 6.81098ZM9.61904 8.57139C9.61904 9.88636 10.685 10.9523 12 10.9523V9.61901C11.4214 9.61901 10.9524 9.14998 10.9524 8.57139H9.61904ZM12 10.9523C13.315 10.9523 14.3809 9.88636 14.3809 8.57139H13.0476C13.0476 9.14998 12.5786 9.61901 12 9.61901V10.9523ZM14.3809 8.57139C14.3809 7.88703 14.0913 7.26925 13.6299 6.8358L12.717 7.8076C12.9214 7.99957 13.0476 8.27021 13.0476 8.57139H14.3809Z"
      fill="#D80915" mask="url(#path-6-inside-1)"/>
    <rect x="11.4286" y="7.99997" width="1.14286" height="2.28571" rx="0.571429" fill="#D80915"/>
  </g>
</svg>
