<svg width="24" height="18" viewBox="0 0 24 18" fill="none" xmlns="http://www.w3.org/2000/svg">
  <rect x="0.25" y="0.25" width="23.5" height="16.6429" rx="1.75" fill="white" stroke="#F5F5F5" stroke-width="0.5"/>
  <mask id="mask0" mask-type="alpha" maskUnits="userSpaceOnUse" x="0" y="0" width="24" height="18">
    <rect x="0.25" y="0.25" width="23.5" height="16.6429" rx="1.75" fill="white" stroke="white" stroke-width="0.5"/>
  </mask>
  <g mask="url(#mask0)">
    <rect x="-5.40988" y="-2.21385" width="2.28571" height="42.2857" transform="rotate(-55 -5.40988 -2.21385)"
          fill="#E3243B"/>
    <rect width="2.28571" height="42.2857" transform="matrix(-0.573576 -0.819152 -0.819152 0.573576 30.5396 -2.21385)"
          fill="#E3243B"/>
    <path fill-rule="evenodd" clip-rule="evenodd"
          d="M13.4921 2.28571H11.6508L11.7256 2.24182L10.8798 1.75339L11.9733 1.8755L11.8196 1.14285L12.5714 1.75339L13.3233 1.14285L13.1695 1.8755L14.2631 1.75339L13.4173 2.24182L13.4921 2.28571Z"
          fill="#FAEF32"/>
    <path fill-rule="evenodd" clip-rule="evenodd"
          d="M10.8572 4.42855C10.8572 4.1715 10.8572 3.89046 10.8572 3.61901C10.8572 2.88263 11.4541 2.28569 12.1905 2.28569H12.9524C13.6888 2.28569 14.2857 2.88263 14.2857 3.61901C14.2857 3.89046 14.2857 4.1715 14.2857 4.42855C14.2857 5.95916 12.5715 6.5714 12.5715 6.5714C12.5715 6.5714 10.8572 5.95916 10.8572 4.42855Z"
          fill="#E3243B"/>
    <mask id="mask1" mask-type="alpha" maskUnits="userSpaceOnUse" x="10" y="2" width="5" height="5">
      <path fill-rule="evenodd" clip-rule="evenodd"
            d="M10.8572 4.42855C10.8572 4.1715 10.8572 3.89046 10.8572 3.61901C10.8572 2.88263 11.4541 2.28569 12.1905 2.28569H12.9524C13.6888 2.28569 14.2857 2.88263 14.2857 3.61901C14.2857 3.89046 14.2857 4.1715 14.2857 4.42855C14.2857 5.95916 12.5715 6.5714 12.5715 6.5714C12.5715 6.5714 10.8572 5.95916 10.8572 4.42855Z"
            fill="white"/>
    </mask>
    <g mask="url(#mask1)">
      <rect x="12.2857" y="5.71426" width="0.571429" height="0.571429" rx="0.285714" fill="#FAEF32"/>
      <rect x="11.4286" y="4.57143" width="2.28571" height="0.571429" rx="0.285714" fill="#FAEF32"/>
      <rect x="11.4286" y="3.42859" width="2.28571" height="0.571429" rx="0.285714" fill="#FAEF32"/>
    </g>
  </g>
</svg>
