<svg width="24" height="18" viewBox="0 0 24 18" fill="none" xmlns="http://www.w3.org/2000/svg">
  <rect width="24" height="17.1429" rx="2" fill="white"/>
  <mask id="mask0" mask-type="alpha" maskUnits="userSpaceOnUse" x="0" y="0" width="24" height="18">
    <rect width="24" height="17.1429" rx="2" fill="white"/>
  </mask>
  <g mask="url(#mask0)">
    <path fill-rule="evenodd" clip-rule="evenodd" d="M0 4.57143H24V0H0V4.57143Z" fill="#262626"/>
    <path fill-rule="evenodd" clip-rule="evenodd" d="M0 17.1429H24V12.5714H0V17.1429Z" fill="#018301"/>
    <path fill-rule="evenodd" clip-rule="evenodd" d="M0 12.5714H24V4.57141H0V12.5714Z" fill="white"/>
    <path fill-rule="evenodd" clip-rule="evenodd" d="M0 11.4286H24V5.71431H0V11.4286Z" fill="#DC0808"/>
    <path fill-rule="evenodd" clip-rule="evenodd"
          d="M12 14.2857C13.1428 14.2857 14.8571 12.0429 14.8571 8.57142C14.8571 5.09991 13.1428 2.85713 12 2.85713C10.8571 2.85713 9.14282 5.09991 9.14282 8.57142C9.14282 12.0429 10.8571 14.2857 12 14.2857Z"
          fill="#BC0000"/>
    <mask id="mask1" mask-type="alpha" maskUnits="userSpaceOnUse" x="9" y="2" width="6" height="13">
      <path fill-rule="evenodd" clip-rule="evenodd"
            d="M12 14.2857C13.1428 14.2857 14.8571 12.0429 14.8571 8.57142C14.8571 5.09991 13.1428 2.85713 12 2.85713C10.8571 2.85713 9.14282 5.09991 9.14282 8.57142C9.14282 12.0429 10.8571 14.2857 12 14.2857Z"
            fill="white"/>
    </mask>
    <g mask="url(#mask1)">
      <path fill-rule="evenodd" clip-rule="evenodd"
            d="M7.42849 14.8571C9.00645 14.8571 10.2856 12.0429 10.2856 8.5714C10.2856 5.0999 9.00645 2.28569 7.42849 2.28569C5.85054 2.28569 4.57135 5.0999 4.57135 8.5714C4.57135 12.0429 5.85054 14.8571 7.42849 14.8571Z"
            fill="#262626"/>
      <path fill-rule="evenodd" clip-rule="evenodd"
            d="M16.5714 14.8571C18.1494 14.8571 19.4286 12.0429 19.4286 8.5714C19.4286 5.0999 18.1494 2.28569 16.5714 2.28569C14.9935 2.28569 13.7143 5.0999 13.7143 8.5714C13.7143 12.0429 14.9935 14.8571 16.5714 14.8571Z"
            fill="#262626"/>
      <g filter="url(#filter0_d)">
        <path fill-rule="evenodd" clip-rule="evenodd"
              d="M12.5714 4.5714C12.5714 5.83014 12.317 6.85123 12.0026 6.85709C12.317 6.86143 12.5714 7.62727 12.5714 8.57136C12.5714 9.51814 12.3156 10.2856 12 10.2856C11.6844 10.2856 11.4285 9.51814 11.4285 8.57136C11.4285 7.62731 11.6829 6.8615 11.9972 6.85709C11.6829 6.8513 11.4285 5.83018 11.4285 4.5714C11.4285 3.30904 11.6843 2.28569 11.9999 2.28569C12.3155 2.28569 12.5714 3.30904 12.5714 4.5714ZM12.5714 12.5714C12.5714 13.8337 12.3156 14.8571 12 14.8571C11.6844 14.8571 11.4285 13.8337 11.4285 12.5714C11.4285 11.309 11.6844 10.2856 12 10.2856C12.3156 10.2856 12.5714 11.309 12.5714 12.5714Z"
              fill="url(#paint0_linear)"/>
      </g>
    </g>
  </g>
  <defs>
    <filter id="filter0_d" x="11.4285" y="2.28569" width="1.14289" height="13.5714" filterUnits="userSpaceOnUse"
            color-interpolation-filters="sRGB">
      <feFlood flood-opacity="0" result="BackgroundImageFix"/>
      <feColorMatrix in="SourceAlpha" type="matrix" values="0 0 0 0 0 0 0 0 0 0 0 0 0 0 0 0 0 0 127 0"/>
      <feOffset dy="1"/>
      <feColorMatrix type="matrix" values="0 0 0 0 0 0 0 0 0 0 0 0 0 0 0 0 0 0 0.06 0"/>
      <feBlend mode="normal" in2="BackgroundImageFix" result="effect1_dropShadow"/>
      <feBlend mode="normal" in="SourceGraphic" in2="effect1_dropShadow" result="shape"/>
    </filter>
    <linearGradient id="paint0_linear" x1="11.4285" y1="2.28569" x2="11.4285" y2="14.8571"
                    gradientUnits="userSpaceOnUse">
      <stop stop-color="white"/>
      <stop offset="1" stop-color="#F0F0F0"/>
    </linearGradient>
  </defs>
</svg>
