<svg width="24" height="18" viewBox="0 0 24 18" fill="none" xmlns="http://www.w3.org/2000/svg">
  <rect width="24" height="17.1429" rx="2" fill="white"/>
  <mask id="mask0" mask-type="alpha" maskUnits="userSpaceOnUse" x="0" y="0" width="24" height="18">
    <rect width="24" height="17.1429" rx="2" fill="white"/>
  </mask>
  <g mask="url(#mask0)">
    <rect width="24" height="17.1429" fill="#F22A46"/>
    <path fill-rule="evenodd" clip-rule="evenodd"
          d="M12 11.4286C13.5779 11.4286 14.8571 10.1494 14.8571 8.57145C14.8571 6.9935 13.5779 5.71431 12 5.71431C10.422 5.71431 9.14282 6.9935 9.14282 8.57145C9.14282 10.1494 10.422 11.4286 12 11.4286Z"
          fill="#FFF04D"/>
    <path fill-rule="evenodd" clip-rule="evenodd"
          d="M10.6013 14.6995L12 12.6117L13.3987 14.6995L13.753 12.2116L15.9191 13.4858L15.1588 11.0905L17.6632 11.2987L15.9389 9.47047L18.2857 8.57143L15.9389 7.67239L17.6632 5.84416L15.1588 6.05238L15.9191 3.65706L13.753 4.9313L13.3987 2.44331L12 4.53119L10.6013 2.44331L10.247 4.9313L8.0809 3.65706L8.84119 6.05238L6.33675 5.84416L8.06104 7.67239L5.71426 8.57143L8.06104 9.47047L6.33675 11.2987L8.84119 11.0905L8.0809 13.4858L10.247 12.2116L10.6013 14.6995ZM15.9999 8.5714C15.9999 10.7805 14.2091 12.5714 11.9999 12.5714C9.7908 12.5714 7.99994 10.7805 7.99994 8.5714C7.99994 6.36226 9.7908 4.5714 11.9999 4.5714C14.2091 4.5714 15.9999 6.36226 15.9999 8.5714Z"
          fill="#FFF04D"/>
  </g>
</svg>
