<svg width="24" height="18" viewBox="0 0 24 18" fill="none" xmlns="http://www.w3.org/2000/svg">
  <path
    d="M22.2026 0H1.79743C0.804705 0 0 0.877162 0 1.95922V15.1807C0 16.2627 0.804705 17.1399 1.79743 17.1399H22.2026C23.1952 17.1399 24 16.2628 24 15.1807V1.95922C24 0.877162 23.1952 0 22.2026 0Z"
    fill="#FF4B55"/>
  <path
    d="M14.3187 8.71196C14.2137 8.61355 14.0947 8.54192 13.9752 8.48954C14.6506 8.34438 15.1938 7.72229 15.1938 7.72229C14.8654 7.87931 14.7128 7.91109 14.1902 7.72387C14.0587 7.67676 13.9236 7.66021 13.7948 7.66169C14.3678 7.24577 14.6513 6.44459 14.6513 6.44459C14.4031 6.72659 14.2732 6.81968 13.7247 6.8647C13.5866 6.87604 13.456 6.91712 13.3375 6.9722C13.7209 6.34899 13.7015 5.49037 13.7015 5.49037C13.5712 5.85448 13.4839 5.99464 12.9929 6.26499C12.8693 6.33305 12.763 6.42558 12.6729 6.52583C12.8083 5.7901 12.489 5.00507 12.489 5.00507C12.4964 5.3958 12.4649 5.5617 12.1063 6.01641C12.016 6.13081 11.9503 6.26059 11.9023 6.39084C11.7691 5.6546 11.1984 5.0625 11.1984 5.0625C11.3424 5.42042 11.3716 5.58679 11.1998 6.15646C11.1566 6.29978 11.1414 6.44709 11.1428 6.58745C10.7612 5.96286 10.0262 5.65383 10.0262 5.65383C10.2849 5.92438 10.3703 6.06597 10.4116 6.66389C10.422 6.81437 10.4597 6.95677 10.5102 7.08589C9.93838 6.66798 9.15083 6.68913 9.15083 6.68913C9.48486 6.83118 9.61344 6.92632 9.86146 7.46155C9.9239 7.59624 10.0088 7.71207 10.1008 7.81033C9.4258 7.66271 8.70557 8.01083 8.70557 8.01083C9.06407 8.0027 9.21622 8.03704 9.63337 8.42797C9.73832 8.52638 9.85738 8.59797 9.97687 8.65039C9.30144 8.79556 8.75825 9.41765 8.75825 9.41765C9.08661 9.26063 9.23924 9.22885 9.76185 9.41606C9.89338 9.46318 10.0285 9.47973 10.1573 9.47825C9.58429 9.89412 9.30074 10.6954 9.30074 10.6954C9.54894 10.4134 9.67883 10.3203 10.2274 10.2753C10.3654 10.2639 10.4961 10.2229 10.6145 10.1678C10.2311 10.7912 10.2505 11.6496 10.2505 11.6496C10.3808 11.2855 10.4681 11.1454 10.9591 10.875C11.0827 10.8069 11.189 10.7144 11.2791 10.6141C11.1437 11.3499 11.463 12.1349 11.463 12.1349C11.4556 11.7441 11.4871 11.5783 11.8457 11.1236C11.936 11.0092 12.0017 10.8794 12.0498 10.7492C12.1829 11.4853 12.7537 12.0775 12.7537 12.0775C12.6096 11.7196 12.5804 11.5531 12.7522 10.9835C12.7954 10.8402 12.8106 10.6929 12.8092 10.5525C13.1908 11.1771 13.9258 11.4862 13.9258 11.4862C13.6671 11.2156 13.5817 11.074 13.5404 10.4761C13.53 10.3257 13.4923 10.1832 13.4418 10.0541C14.0136 10.472 14.8012 10.4509 14.8012 10.4509C14.4672 10.3088 14.3386 10.2137 14.0905 9.67844C14.0281 9.54375 13.9432 9.42787 13.8512 9.32966C14.5262 9.47723 15.2464 9.12916 15.2464 9.12916C14.888 9.13724 14.7358 9.10295 14.3187 8.71196Z"
    fill="#FFE15A"/>
  <path
    d="M13.6599 8.92986L15.3106 8.57L13.6599 8.21013L15.0586 7.18913L13.4073 7.54517L14.3411 6.01842L12.9404 7.0363L13.2671 5.23625L12.3304 6.76085L12.0003 4.96161L11.6702 6.7609L10.7335 5.2363L11.0602 7.03635L9.65955 6.01847L10.5934 7.54522L8.94199 7.18918L10.3407 8.21018L8.68994 8.57L10.3406 8.92986L8.9419 9.95086L10.5933 9.59477L9.65946 11.1215L11.0601 10.1036L10.7334 11.9037L11.6701 10.3791L12.0003 12.1784L12.3304 10.3791L13.2671 11.9037L12.9404 10.1036L14.341 11.1215L13.4072 9.59477L15.0586 9.95086L13.6599 8.92986Z"
    fill="#FFD25A"/>
  <path
    d="M11.9999 10.3742C12.914 10.3742 13.655 9.56643 13.655 8.57C13.655 7.57357 12.914 6.76581 11.9999 6.76581C11.0858 6.76581 10.3447 7.57357 10.3447 8.57C10.3447 9.56643 11.0858 10.3742 11.9999 10.3742Z"
    fill="#FFE15A"/>
  <path
    d="M4.79368 13.9828C5.99415 13.9828 5.99415 14.4338 7.19467 14.4338C8.39603 14.4338 8.39603 13.9828 9.5973 13.9828C10.7986 13.9828 10.7987 14.4338 11.9999 14.4338C13.1986 14.4338 13.1986 13.9828 14.3973 13.9828C15.5966 13.9828 15.5966 14.4338 16.7958 14.4338C17.9956 14.4338 17.9956 13.9828 19.1954 13.9828C20.3952 13.9828 20.3952 14.4338 21.5949 14.4338C22.7947 14.4338 22.7947 13.9828 23.9946 13.9828C23.9965 13.9828 23.9981 13.9829 24 13.9829V12.6297C23.9981 12.6297 23.9965 12.6296 23.9946 12.6296C22.7947 12.6296 22.7947 13.0807 21.5949 13.0807C20.3952 13.0807 20.3952 12.6296 19.1954 12.6296C17.9956 12.6296 17.9956 13.0807 16.7958 13.0807C15.5965 13.0807 15.5965 12.6296 14.3973 12.6296C13.1986 12.6296 13.1986 13.0807 11.9999 13.0807C10.7986 13.0807 10.7986 12.6296 9.5973 12.6296C8.39603 12.6296 8.39594 13.0807 7.19467 13.0807C5.99415 13.0807 5.99415 12.6296 4.79368 12.6296C3.59424 12.6296 3.59424 13.0807 2.39475 13.0807C1.19658 13.0807 1.19433 12.6312 0 12.6298V13.983C1.19438 13.9844 1.19658 14.4339 2.39475 14.4339C3.59424 14.4338 3.59424 13.9828 4.79368 13.9828Z"
    fill="#41479B"/>
  <path
    d="M0 11.2764C1.19438 11.2778 1.19658 11.7273 2.39475 11.7273C3.59424 11.7273 3.59424 11.2762 4.79368 11.2762C5.99415 11.2762 5.99415 11.7273 7.19467 11.7273C8.39603 11.7273 8.39603 11.2762 9.5973 11.2762C10.7986 11.2762 10.7987 11.7273 11.9999 11.7273C13.1986 11.7273 13.1986 11.2762 14.3973 11.2762C15.5966 11.2762 15.5966 11.7273 16.7958 11.7273C17.9956 11.7273 17.9956 11.2762 19.1954 11.2762C20.3952 11.2762 20.3952 11.7273 21.5949 11.7273C22.7947 11.7273 22.7947 11.2762 23.9946 11.2762C23.9965 11.2762 23.9981 11.2763 24 11.2763V9.92314C23.9981 9.92314 23.9965 9.92303 23.9946 9.92303C22.7947 9.92303 22.7947 10.3741 21.5949 10.3741C20.3952 10.3741 20.3952 9.92303 19.1954 9.92303C17.9956 9.92303 17.9956 10.3741 16.7958 10.3741C15.5965 10.3741 15.5965 9.92303 14.3973 9.92303C13.1986 9.92303 13.1986 10.3741 11.9999 10.3741C10.7986 10.3741 10.7986 9.92303 9.5973 9.92303C8.39603 9.92303 8.39594 10.3741 7.19467 10.3741C5.99415 10.3741 5.99415 9.92303 4.79368 9.92303C3.59424 9.92303 3.59424 10.3741 2.39475 10.3741C1.19658 10.3741 1.19433 9.92462 0 9.92319L0 11.2764Z"
    fill="#41479B"/>
  <path
    d="M0 15.3359C1.19438 15.3373 1.19658 15.7868 2.39475 15.7868C3.59424 15.7868 3.59424 15.3357 4.79368 15.3357C5.99415 15.3357 5.99415 15.7868 7.19467 15.7868C8.39603 15.7868 8.39603 15.3357 9.5973 15.3357C10.7986 15.3357 10.7987 15.7868 11.9999 15.7868C13.1986 15.7868 13.1986 15.3357 14.3973 15.3357C15.5966 15.3357 15.5966 15.7868 16.7958 15.7868C17.9956 15.7868 17.9956 15.3357 19.1954 15.3357C20.3952 15.3357 20.3952 15.7868 21.5949 15.7868C22.7947 15.7868 22.7947 15.3357 23.9946 15.3357C23.9965 15.3357 23.9981 15.3358 24 15.3358V13.9826C23.9981 13.9826 23.9965 13.9825 23.9946 13.9825C22.7947 13.9825 22.7947 14.4336 21.5949 14.4336C20.3952 14.4336 20.3952 13.9825 19.1954 13.9825C17.9956 13.9825 17.9956 14.4336 16.7958 14.4336C15.5965 14.4336 15.5965 13.9825 14.3973 13.9825C13.1986 13.9825 13.1986 14.4336 11.9999 14.4336C10.7986 14.4336 10.7986 13.9825 9.5973 13.9825C8.39603 13.9825 8.39594 14.4336 7.19467 14.4336C5.99415 14.4336 5.99415 13.9825 4.79368 13.9825C3.59424 13.9825 3.59424 14.4336 2.39475 14.4336C1.19658 14.4336 1.19433 13.9841 0 13.9827L0 15.3359Z"
    fill="#F5F5F5"/>
  <path
    d="M0 12.6297C1.19438 12.6311 1.19658 13.0806 2.39475 13.0806C3.59424 13.0806 3.59424 12.6295 4.79368 12.6295C5.99415 12.6295 5.99415 13.0806 7.19467 13.0806C8.39603 13.0806 8.39603 12.6295 9.5973 12.6295C10.7986 12.6295 10.7987 13.0806 11.9999 13.0806C13.1986 13.0806 13.1986 12.6295 14.3973 12.6295C15.5966 12.6295 15.5966 13.0806 16.7958 13.0806C17.9956 13.0806 17.9956 12.6295 19.1954 12.6295C20.3952 12.6295 20.3952 13.0806 21.5949 13.0806C22.7947 13.0806 22.7947 12.6295 23.9946 12.6295C23.9965 12.6295 23.9981 12.6296 24 12.6296V11.2764C23.9981 11.2764 23.9965 11.2763 23.9946 11.2763C22.7947 11.2763 22.7947 11.7274 21.5949 11.7274C20.3952 11.7274 20.3952 11.2763 19.1954 11.2763C17.9956 11.2763 17.9956 11.7274 16.7958 11.7274C15.5965 11.7274 15.5965 11.2763 14.3973 11.2763C13.1986 11.2763 13.1986 11.7274 11.9999 11.7274C10.7986 11.7274 10.7986 11.2763 9.5973 11.2763C8.39603 11.2763 8.39594 11.7274 7.19467 11.7274C5.99415 11.7274 5.99415 11.2763 4.79368 11.2763C3.59424 11.2763 3.59424 11.7274 2.39475 11.7274C1.19658 11.7274 1.19433 11.2779 0 11.2765L0 12.6297Z"
    fill="#F5F5F5"/>
  <path
    d="M0 9.92321C1.19438 9.92464 1.19658 10.3741 2.39475 10.3741C3.59424 10.3741 3.59424 9.92301 4.79368 9.92301C5.99415 9.92301 5.99415 10.3741 7.19467 10.3741C8.39603 10.3741 8.39603 9.92301 9.5973 9.92301C10.7986 9.92301 10.7987 10.3741 11.9999 10.3741C13.1986 10.3741 13.1986 9.92301 14.3973 9.92301C15.5966 9.92301 15.5966 10.3741 16.7958 10.3741C17.9956 10.3741 17.9956 9.92301 19.1954 9.92301C20.3952 9.92301 20.3952 10.3741 21.5949 10.3741C22.7947 10.3741 22.7947 9.92301 23.9946 9.92301C23.9965 9.92301 23.9981 9.92311 24 9.92311V8.56999C23.9981 8.56999 23.9965 8.56989 23.9946 8.56989C22.7947 8.56989 22.7947 9.02096 21.5949 9.02096C20.3952 9.02096 20.3952 8.56989 19.1954 8.56989C17.9956 8.56989 17.9956 9.02096 16.7958 9.02096C15.5965 9.02096 15.5965 8.56989 14.3973 8.56989C13.1986 8.56989 13.1986 9.02096 11.9999 9.02096C10.7986 9.02096 10.7986 8.56989 9.5973 8.56989C8.39603 8.56989 8.39594 9.02096 7.19467 9.02096C5.99415 9.02096 5.99415 8.56989 4.79368 8.56989C3.59424 8.56989 3.59424 9.02096 2.39475 9.02096C1.19658 9.02096 1.19433 8.57147 0 8.57004L0 9.92321Z"
    fill="#F5F5F5"/>
  <path
    d="M21.5951 15.7868C20.3954 15.7868 20.3954 15.3358 19.1956 15.3358C17.9957 15.3358 17.9957 15.7868 16.796 15.7868C15.5967 15.7868 15.5967 15.3358 14.3974 15.3358C13.1988 15.3358 13.1988 15.7868 12.0001 15.7868C10.7988 15.7868 10.7988 15.3358 9.59751 15.3358C8.39615 15.3358 8.39615 15.7868 7.19488 15.7868C5.99436 15.7868 5.99436 15.3358 4.79389 15.3358C3.5944 15.3358 3.5944 15.7868 2.39496 15.7868C1.1989 15.7868 1.1944 15.339 0.00634766 15.336C0.0789572 16.3454 0.852865 17.14 1.79754 17.14H22.2027C23.1474 17.14 23.9214 16.3453 23.994 15.3358C22.795 15.336 22.7947 15.7868 21.5951 15.7868Z"
    fill="#41479B"/>
  <path
    d="M12.8616 2.39579C14.8738 2.31097 15.8966 1.35364 15.8966 1.35364C15.7521 1.41419 13.4953 1.6202 12.8505 1.6808C12.4433 1.71902 11.9353 2.22513 11.6154 2.59363C11.5292 2.33846 11.3608 2.07378 11.0273 2.02013C10.3492 1.91109 8.54817 1.78995 8.10352 1.55961C8.10352 1.55961 8.39053 2.04323 9.87394 2.26248C10.5847 2.36753 10.9765 2.63323 11.1631 2.81411L10.994 2.80777C10.994 2.80777 10.994 2.80777 10.7049 2.65019C10.4159 2.49267 10.1268 2.75923 10.1268 2.75923H9.66643C9.60877 2.75923 9.57586 2.83102 9.61046 2.88125L9.65475 2.94563C9.69994 3.01139 9.77096 3.05007 9.84633 3.05007H10.3158C10.4826 3.36513 11.1162 3.69234 11.6387 3.69234C12.1612 3.69234 13.7621 2.91681 13.9178 2.91681L12.4696 2.8628L12.8616 2.39579Z"
    fill="#FFE15A"/>
</svg>
