<svg width="24" height="18" viewBox="0 0 24 18" fill="none" xmlns="http://www.w3.org/2000/svg">
  <rect x="0.25" y="0.25" width="23.5" height="16.6429" rx="1.75" fill="white" stroke="#F5F5F5" stroke-width="0.5"/>
  <mask id="mask0" mask-type="alpha" maskUnits="userSpaceOnUse" x="0" y="0" width="24" height="18">
    <rect x="0.25" y="0.25" width="23.5" height="16.6429" rx="1.75" fill="white" stroke="white" stroke-width="0.5"/>
  </mask>
  <g mask="url(#mask0)">
    <path fill-rule="evenodd" clip-rule="evenodd" d="M0 4.57143H24V0H0V4.57143Z" fill="#FFCB49"/>
    <path fill-rule="evenodd" clip-rule="evenodd" d="M0 12.5714H24V8H0V12.5714Z" fill="#DC1D34"/>
    <path fill-rule="evenodd" clip-rule="evenodd" d="M0 17.1428H24V12.5714H0V17.1428Z" fill="#4985D4"/>
    <path fill-rule="evenodd" clip-rule="evenodd" d="M0 17.1429L11.4286 8.57143L0 0V17.1429Z" fill="#4BA343"/>
    <path fill-rule="evenodd" clip-rule="evenodd"
          d="M4.57146 12C4.86742 12 5.15462 11.9625 5.42857 11.892C3.9498 11.5114 2.85712 10.169 2.85712 8.57146C2.85712 6.97387 3.94981 5.63149 5.42859 5.25089C5.15463 5.18038 4.86743 5.14288 4.57146 5.14288C2.67791 5.14288 1.14289 6.67791 1.14289 8.57145C1.14289 10.465 2.67791 12 4.57146 12ZM6.85716 6.28574C6.85716 6.60133 6.60132 6.85716 6.28573 6.85716C5.97014 6.85716 5.7143 6.60133 5.7143 6.28574C5.7143 5.97014 5.97014 5.71431 6.28573 5.71431C6.60132 5.71431 6.85716 5.97014 6.85716 6.28574ZM6.28573 9.1429C6.60132 9.1429 6.85716 8.88706 6.85716 8.57147C6.85716 8.25588 6.60132 8.00004 6.28573 8.00004C5.97014 8.00004 5.7143 8.25588 5.7143 8.57147C5.7143 8.88706 5.97014 9.1429 6.28573 9.1429ZM6.85716 10.8572C6.85716 11.1728 6.60132 11.4286 6.28573 11.4286C5.97014 11.4286 5.7143 11.1728 5.7143 10.8572C5.7143 10.5416 5.97014 10.2857 6.28573 10.2857C6.60132 10.2857 6.85716 10.5416 6.85716 10.8572Z"
          fill="white"/>
  </g>
</svg>
