<svg width="24" height="18" viewBox="0 0 24 18" fill="none" xmlns="http://www.w3.org/2000/svg">
  <rect x="0.25" y="0.25" width="23.5" height="16.6429" rx="1.75" fill="white" stroke="#F5F5F5" stroke-width="0.5"/>
  <mask id="mask0" mask-type="alpha" maskUnits="userSpaceOnUse" x="0" y="0" width="24" height="18">
    <rect x="0.25" y="0.25" width="23.5" height="16.6429" rx="1.75" fill="white" stroke="white" stroke-width="0.5"/>
  </mask>
  <g mask="url(#mask0)">
    <path fill-rule="evenodd" clip-rule="evenodd"
          d="M12 12.5714C14.2092 12.5714 16 10.7805 16 8.57141C16 6.36227 14.2092 4.57141 12 4.57141C9.79089 4.57141 8.00003 6.36227 8.00003 8.57141C8.00003 10.7805 9.79089 12.5714 12 12.5714Z"
          fill="#E01B41"/>
    <mask id="mask1" mask-type="alpha" maskUnits="userSpaceOnUse" x="8" y="4" width="8" height="9">
      <path fill-rule="evenodd" clip-rule="evenodd"
            d="M12 12.5714C14.2092 12.5714 16 10.7805 16 8.57141C16 6.36227 14.2092 4.57141 12 4.57141C9.79089 4.57141 8.00003 6.36227 8.00003 8.57141C8.00003 10.7805 9.79089 12.5714 12 12.5714Z"
            fill="white"/>
    </mask>
    <g mask="url(#mask1)">
      <path fill-rule="evenodd" clip-rule="evenodd"
            d="M8 9.14282C9.14286 10.2142 10.8571 10.8571 12 9.14282C13.1429 7.42853 15.4286 7.42853 16 9.14282C16.5714 10.8571 16 12.5714 16 12.5714H8C8 12.5714 6.85714 8.07139 8 9.14282Z"
            fill="#0E4B9C"/>
    </g>
    <path opacity="0.75" fill-rule="evenodd" clip-rule="evenodd"
          d="M5.26734 3.08976C5.35939 2.93033 5.56325 2.8757 5.72268 2.96775L6.13508 3.20584C6.29451 3.29789 6.34913 3.50175 6.25708 3.66119L4.87613 6.05307C4.78408 6.2125 4.58022 6.26712 4.42079 6.17507L4.0084 5.93698C3.84897 5.84493 3.79434 5.64107 3.88639 5.48164L5.26734 3.08976ZM17.8648 3.20586C17.7053 3.29791 17.6507 3.50177 17.7428 3.6612L19.1237 6.05308C19.2158 6.21251 19.4196 6.26714 19.5791 6.17509L19.9915 5.937C20.1509 5.84495 20.2055 5.64109 20.1135 5.48165L18.7325 3.08977C18.6405 2.93034 18.4366 2.87572 18.2772 2.96777L17.8648 3.20586ZM16.3802 4.063C16.2207 4.15505 16.1661 4.35891 16.2581 4.51835L17.6391 6.91023C17.7311 7.06966 17.935 7.12428 18.0944 7.03223L18.5068 6.79414C18.6663 6.70209 18.7209 6.49823 18.6288 6.3388L17.2479 3.94692C17.1558 3.78749 16.952 3.73286 16.7925 3.82491L16.3802 4.063ZM3.88639 11.6612C3.79434 11.5018 3.84897 11.2979 4.0084 11.2058L4.42079 10.9677C4.58022 10.8757 4.78408 10.9303 4.87613 11.0898L6.25708 13.4816C6.34913 13.6411 6.29451 13.8449 6.13508 13.937L5.72268 14.1751C5.56325 14.2671 5.35939 14.2125 5.26734 14.0531L3.88639 11.6612ZM5.49302 10.3487C5.33359 10.4407 5.27896 10.6446 5.37101 10.804L6.75196 13.1959C6.84401 13.3554 7.04787 13.41 7.2073 13.3179L7.6197 13.0798C7.77913 12.9878 7.83375 12.7839 7.7417 12.6245L6.36075 10.2326C6.2687 10.0732 6.06484 10.0186 5.90541 10.1106L5.49302 10.3487ZM17.6391 10.2326C17.7311 10.0732 17.935 10.0185 18.0944 10.1106L18.5068 10.3487C18.6663 10.4407 18.7209 10.6446 18.6288 10.804L17.2479 13.1959C17.1558 13.3553 16.952 13.41 16.7925 13.3179L16.3802 13.0798C16.2207 12.9878 16.1661 12.7839 16.2581 12.6245L17.6391 10.2326ZM19.5791 10.9677C19.4196 10.8757 19.2158 10.9303 19.1237 11.0897L17.7428 13.4816C17.6507 13.6411 17.7053 13.8449 17.8648 13.937L18.2772 14.1751C18.4366 14.2671 18.6405 14.2125 18.7325 14.053L20.1135 11.6612C20.2055 11.5017 20.1509 11.2979 19.9915 11.2058L19.5791 10.9677ZM7.2073 3.82489C7.04787 3.73284 6.84401 3.78747 6.75196 3.9469L5.37101 6.33878C5.27896 6.49821 5.33359 6.70207 5.49302 6.79412L5.90541 7.03222C6.06484 7.12426 6.2687 7.06964 6.36075 6.91021L7.7417 4.51833C7.83375 4.3589 7.77913 4.15503 7.6197 4.06299L7.2073 3.82489Z"
          fill="#262626"/>
  </g>
</svg>
