<svg width="24" height="18" viewBox="0 0 24 18" fill="none" xmlns="http://www.w3.org/2000/svg">
<path d="M0 0H24V18H0V0Z" fill="#244AA5"/>
<path d="M12.1314 5.70316C12.2318 5.82621 12.2991 5.94916 12.2991 6.09871C12.2148 6.14248 12.0983 6.16035 12.031 6.23944C12.4497 6.17777 12.533 6.68745 13.0019 6.49404C13.0189 6.56462 13.0861 6.62623 13.1695 6.5996L13.2197 6.45922C13.4035 6.40651 13.3533 6.72274 13.5549 6.6611C13.6553 6.74912 13.5881 6.89831 13.6553 7.00419C13.6553 7.12702 13.7056 7.23245 13.7557 7.33785C13.806 7.27666 13.8391 7.18865 13.9565 7.21503C14.0399 7.31151 14.1071 7.39952 14.1241 7.50492C14.0901 7.70728 14.0399 7.88282 14.2407 7.98822V8.04986C14.3751 8.1115 14.6763 7.98822 14.6763 8.23435C14.6593 8.32236 14.7597 8.2433 14.7937 8.29599C14.8771 8.26069 14.9945 8.2786 15.0949 8.2786C15.1783 8.46309 14.9945 8.59483 14.9443 8.7619C15.0277 8.84946 14.9945 9.00803 14.9775 9.11295L14.9273 9.13932C15.0609 9.16566 15.2285 9.12238 15.3459 9.20144L15.5637 9.28897C15.6641 9.22781 15.7807 9.21841 15.9151 9.22781C16.0155 9.3069 15.8811 9.43865 15.9654 9.49983C16.0828 9.49983 16.1832 9.51774 16.1993 9.62317L16.2163 9.65798C16.2997 9.49983 16.5346 9.60523 16.635 9.49139C16.8026 9.49139 16.8357 9.68436 16.9191 9.78979C16.9532 10.0627 16.635 10.186 16.7354 10.458C16.6681 10.5898 16.5346 10.6952 16.4342 10.8185C16.4673 10.8364 16.4503 10.8797 16.4503 10.906C16.3499 10.9682 16.4342 11.1527 16.2997 11.1697C16.2836 11.2844 16.0828 11.2402 16.1491 11.3635C16.2835 11.548 16.0828 11.6619 16.0828 11.8294C15.9985 11.9263 15.8309 11.7409 15.8309 11.9263C15.7305 11.9527 15.6301 11.8294 15.5637 11.9348C15.5297 12.0581 15.6301 12.1014 15.6139 12.2247C15.7807 12.2068 15.8309 12.3828 15.8981 12.4883L16.0657 12.6643C15.8981 12.8045 15.6803 12.6464 15.4795 12.7254C15.4293 12.6991 15.4795 12.6294 15.4293 12.6031C15.379 12.5409 15.2787 12.5409 15.1953 12.524C15.2114 12.6031 15.0609 12.6294 15.1281 12.7254C15.1281 12.7517 15.1612 12.8308 15.0949 12.8308C14.9604 12.8751 14.9775 12.7085 14.86 12.7696C14.7094 12.8308 14.8269 13.068 14.6091 13.0417C14.6422 13.2534 14.2747 13.3937 14.5257 13.5782C14.5588 13.613 14.5418 13.6836 14.5418 13.7363C14.3912 13.8775 14.124 13.8248 13.9564 13.772C13.822 13.7363 13.9062 13.5603 13.856 13.4643C13.8058 13.3758 13.6553 13.3146 13.6553 13.1913C13.5548 13.148 13.4706 13.1208 13.4034 13.0332C13.1694 13.2704 12.8844 13.4991 12.55 13.5076C12.3994 13.5866 12.3151 13.9039 12.0812 13.772C11.9893 13.9302 11.7127 13.772 11.6961 13.9999C11.5872 14.0441 11.6374 14.1937 11.5707 14.2634C11.5455 14.4394 11.5707 14.589 11.7127 14.6945C11.7714 14.8262 11.5872 14.8262 11.6625 14.9495C11.6796 14.9929 11.6625 15.055 11.6374 15.0728C11.5872 15.0992 11.5707 15.1256 11.5872 15.1783C11.5455 15.1783 11.5286 15.2046 11.4953 15.2394C11.4532 15.327 11.3196 15.3712 11.2273 15.4324C11.1354 15.4587 11.0682 15.3891 11.0099 15.327C10.9929 15.4239 10.9176 15.4766 10.8257 15.4766C10.6917 15.4766 10.7168 15.3533 10.6164 15.3006C10.6581 15.1425 10.5241 15.0728 10.5662 14.9316C10.6751 14.8441 10.8589 14.782 10.8087 14.5975C10.6917 14.4488 10.7334 14.2286 10.6164 14.0526C10.5411 13.9829 10.4156 13.8775 10.4573 13.71C10.5662 13.5782 10.4573 13.4201 10.3986 13.2798C10.3735 13.165 10.3067 13.0596 10.3067 12.9278C10.1225 12.8139 10.114 12.5146 9.85448 12.4883C9.67028 12.4883 9.63709 12.2426 9.45289 12.2595C9.43587 12.2247 9.39419 12.1984 9.36057 12.1635C9.227 12.2595 9.05939 12.1372 8.89218 12.1805C8.78327 11.9875 8.98407 11.724 8.69096 11.6091V11.4868C8.72457 11.5037 8.74117 11.4689 8.74966 11.451C8.76625 11.3192 8.54034 11.3023 8.63269 11.1526C8.58248 11.1084 8.52378 11.0905 8.55739 11.003C8.43146 10.731 8.05496 10.7573 7.97114 10.4844C8.03837 10.4232 8.03837 10.3611 8.06349 10.3084C8.00475 10.203 7.98819 10.0891 8.00475 9.97518C8.06349 9.95728 8.09664 9.87825 8.13025 9.8161C8.05496 9.76342 7.96304 9.68436 7.87925 9.7107C7.72866 9.68436 7.61973 9.56198 7.48573 9.49139C7.45212 9.45655 7.46917 9.39446 7.46917 9.35115C7.65334 9.289 7.44408 9.01653 7.66996 9.05186C7.7287 8.9728 7.85417 8.94642 7.94608 8.88479C8.0384 8.8674 8.11369 8.90266 8.20558 8.92903C8.28087 9.03399 8.4149 8.99022 8.49016 9.0782C8.56546 9.06033 8.6578 9.01653 8.74969 9.06033C8.74969 8.91113 8.81649 8.82312 8.9173 8.71769C8.93389 8.6565 9.02578 8.61229 9.10107 8.57744C9.24363 8.61229 9.41081 8.61229 9.51165 8.50685C9.57845 8.55107 9.63715 8.46309 9.71245 8.46309C9.8043 8.44522 9.87963 8.47156 9.94685 8.5158C9.95492 8.33978 10.248 8.48943 10.3068 8.2786C10.3736 8.13787 10.1226 8.08519 10.1391 7.96188C10.0974 7.82115 10.1979 7.75105 10.248 7.65457C10.3067 7.62819 10.3735 7.59293 10.4488 7.61032C10.6416 7.54018 10.4909 7.12702 10.8007 7.27666C10.8007 7.32046 10.7836 7.37315 10.8087 7.3821C10.9176 7.3821 10.9344 7.25019 11.01 7.20611C11.0431 7.08328 10.9679 6.93364 11.0683 6.83713C11.1185 6.82821 11.1606 6.81078 11.1938 6.76654C11.1938 6.67006 11.1436 6.61737 11.0683 6.5557C11.0432 6.59963 10.9764 6.56466 10.9344 6.58208C10.9344 6.47665 10.876 6.40654 10.8589 6.30958C10.8087 6.28323 10.7836 6.23947 10.8007 6.1778C10.876 6.09874 10.8007 5.90533 10.9764 5.94919C11.0432 5.88791 11.1606 5.93167 11.2274 5.82624C11.4031 5.72084 11.6375 5.72084 11.7715 5.52743C11.8302 5.53635 11.897 5.47471 11.9557 5.52743C11.9723 5.64175 12.1314 5.5975 12.1314 5.70316" fill="#D0A650"/>
<path d="M13.4234 3.32121L13.192 2.57422L12.9634 3.32121H12.2148L12.8206 3.78321L12.5891 4.5302L13.192 4.06821L13.7977 4.5302L13.5663 3.78321L14.172 3.32121H13.4234Z" fill="white"/>
<path d="M15.7789 3.75572L15.5475 3.01172L15.3189 3.75572H14.5703L15.176 4.21771L14.9446 4.96471L15.5475 4.50271L16.1532 4.96471L15.9217 4.21771L16.5275 3.75572H15.7789Z" fill="white"/>
<path d="M18.025 4.61314L17.7964 3.86914L17.565 4.61314H16.8164L17.4221 5.07514L17.1907 5.82214L17.7964 5.36014L18.3993 5.82214L18.1678 5.07514L18.7735 4.61314H18.025Z" fill="white"/>
<path d="M11.0367 3.32121L10.8081 2.57422L10.5767 3.32121H9.82812L10.4338 3.78321L10.2024 4.5302L10.8081 4.06821L11.411 4.5302L11.1796 3.78321L11.7853 3.32121H11.0367Z" fill="white"/>
<path d="M8.68123 3.75572L8.45266 3.01172L8.22123 3.75572H7.47266L8.07837 4.21771L7.84694 4.96471L8.45266 4.50271L9.05551 4.96471L8.82408 4.21771L9.4298 3.75572H8.68123Z" fill="white"/>
<path d="M6.43513 4.61314L6.20371 3.86914L5.97513 4.61314H5.22656L5.83228 5.07514L5.60085 5.82214L6.20371 5.36014L6.80942 5.82214L6.57799 5.07514L7.18371 4.61314H6.43513Z" fill="white"/>
</svg>
