<svg width="24" height="18" viewBox="0 0 24 18" fill="none" xmlns="http://www.w3.org/2000/svg">
  <rect width="24" height="17.1429" rx="2" fill="white"/>
  <mask id="mask0" mask-type="alpha" maskUnits="userSpaceOnUse" x="0" y="0" width="24" height="18">
    <rect width="24" height="17.1429" rx="2" fill="white"/>
  </mask>
  <g mask="url(#mask0)">
    <rect width="24" height="17.1429" fill="#07319C"/>
    <path fill-rule="evenodd" clip-rule="evenodd"
          d="M17.7143 5.71429C18.661 5.71429 19.4285 5.20261 19.4285 4.57143C19.4285 3.94025 18.661 3.42857 17.7143 3.42857C16.7675 3.42857 16 3.94025 16 4.57143C16 5.20261 16.7675 5.71429 17.7143 5.71429Z"
          fill="#FAD051"/>
    <path fill-rule="evenodd" clip-rule="evenodd"
          d="M14.8572 8.57141C14.8572 6.85713 14.8572 4.57141 14.8572 4.57141H20.5715C20.5715 4.57141 20.5715 6.85713 20.5715 8.57141C20.5715 11.4286 17.7143 12.5714 17.7143 12.5714C17.7143 12.5714 14.8572 11.4286 14.8572 8.57141Z"
          fill="url(#paint0_linear)"/>
    <mask id="mask1" mask-type="alpha" maskUnits="userSpaceOnUse" x="14" y="4" width="7" height="9">
      <path fill-rule="evenodd" clip-rule="evenodd"
            d="M14.8572 8.57141C14.8572 6.85713 14.8572 4.57141 14.8572 4.57141H20.5715C20.5715 4.57141 20.5715 6.85713 20.5715 8.57141C20.5715 11.4286 17.7143 12.5714 17.7143 12.5714C17.7143 12.5714 14.8572 11.4286 14.8572 8.57141Z"
            fill="white"/>
    </mask>
    <g mask="url(#mask1)">
      <path fill-rule="evenodd" clip-rule="evenodd"
            d="M14.8572 4.57141H20.5715V5.71427H18.2857H17.1429H14.8572V4.57141Z" fill="#CF142C"/>
      <path fill-rule="evenodd" clip-rule="evenodd"
            d="M20.5715 6.85715H14.8572V8H17.1429H18.2857H20.5715V6.85715ZM14.8572 9.1429H20.5715V10.2858H18.2857H17.1429H14.8572V9.1429ZM14.8572 11.4286H20.5715V12.5714H18.2857H17.1429H14.8572V11.4286Z"
            fill="#125FBA"/>
    </g>
    <path
      d="M0 -0.333333H-0.901086L-0.21693 0.253086L3.66667 3.58188V4.39989L-0.193746 7.15733L-0.333333 7.25703V7.42857V8V8.60141L0.176666 8.28267L4.66703 5.47619H5.60746L9.47126 8.23604C9.55984 8.29932 9.66599 8.33333 9.77485 8.33333C10.2598 8.33333 10.4829 7.73003 10.1148 7.41445L6.61905 4.41812V3.60011L10.3399 0.942378C10.5151 0.817237 10.619 0.61519 10.619 0.399889V0V-0.601416L10.109 -0.282666L5.61869 2.52381H4.67825L0.765175 -0.271244L0.67825 -0.333333H0.571429H0Z"
      fill="#DB1E36" stroke="white" stroke-width="0.666667"/>
    <path fill-rule="evenodd" clip-rule="evenodd"
          d="M0 2.85714V5.14286H4V7.90476C4 8.27295 4.29848 8.57143 4.66667 8.57143H5.61905C5.98724 8.57143 6.28571 8.27295 6.28571 7.90476V5.14286H10.1905C10.5587 5.14286 10.8571 4.84438 10.8571 4.47619V3.52381C10.8571 3.15562 10.5587 2.85714 10.1905 2.85714H6.28571V0H4V2.85714H0Z"
          fill="white"/>
    <path fill-rule="evenodd" clip-rule="evenodd"
          d="M0 3.42857H4.57143V2.85714V0H5.71429V2.85714V3.42857H10.2857V4.57143H5.71429V5.14286V8H4.57143V5.14286V4.57143H0V3.42857Z"
          fill="#DB1E36"/>
  </g>
  <defs>
    <linearGradient id="paint0_linear" x1="14.8572" y1="4.57141" x2="14.8572" y2="12.5714"
                    gradientUnits="userSpaceOnUse">
      <stop stop-color="white"/>
      <stop offset="1" stop-color="#F0F0F0"/>
    </linearGradient>
  </defs>
</svg>
