<svg width="24" height="18" viewBox="0 0 24 18" fill="none" xmlns="http://www.w3.org/2000/svg">
  <rect width="24" height="17.1429" rx="2" fill="white"/>
  <mask id="mask0" mask-type="alpha" maskUnits="userSpaceOnUse" x="0" y="0" width="24" height="18">
    <rect width="24" height="17.1429" rx="2" fill="white"/>
  </mask>
  <g mask="url(#mask0)">
    <rect width="24" height="17.1429" fill="#30C6E0"/>
    <path fill-rule="evenodd" clip-rule="evenodd"
          d="M12 12C13.8936 12 15.4286 10.465 15.4286 8.57142C15.4286 6.67788 13.8936 5.14285 12 5.14285C10.1065 5.14285 8.57144 6.67788 8.57144 8.57142C8.57144 10.465 10.1065 12 12 12Z"
          fill="#FFCD4B"/>
    <path fill-rule="evenodd" clip-rule="evenodd"
          d="M10.6013 14.6995L12 12.6117L13.3987 14.6995L13.753 12.2116L15.9191 13.4858L15.1588 11.0905L17.6632 11.2987L15.9389 9.47047L18.2857 8.57143L15.9389 7.67239L17.6632 5.84416L15.1588 6.05238L15.9191 3.65706L13.753 4.9313L13.3987 2.44331L12 4.53119L10.6013 2.44331L10.247 4.9313L8.0809 3.65706L8.84119 6.05238L6.33675 5.84416L8.06104 7.67239L5.71426 8.57143L8.06104 9.47047L6.33675 11.2987L8.84119 11.0905L8.0809 13.4858L10.247 12.2116L10.6013 14.6995ZM15.9999 8.5714C15.9999 10.7805 14.2091 12.5714 11.9999 12.5714C9.7908 12.5714 7.99994 10.7805 7.99994 8.5714C7.99994 6.36226 9.7908 4.5714 11.9999 4.5714C14.2091 4.5714 15.9999 6.36226 15.9999 8.5714Z"
          fill="#FFCD4B"/>
    <path fill-rule="evenodd" clip-rule="evenodd"
          d="M1.14294 1.47617C1.14294 1.29208 1.29217 1.14284 1.47627 1.14284H1.95246C2.13655 1.14284 2.28579 1.29208 2.28579 1.47617V1.95236C2.28579 2.13646 2.13655 2.28569 1.95246 2.28569H1.47627C1.29217 2.28569 1.14294 2.13646 1.14294 1.95236V1.47617ZM1.14288 3.76192C1.14288 3.57783 1.29212 3.42859 1.47622 3.42859H1.95241C2.1365 3.42859 2.28574 3.57783 2.28574 3.76192V4.23811C2.28574 4.42221 2.1365 4.57144 1.95241 4.57144H1.47622C1.29212 4.57144 1.14288 4.42221 1.14288 4.23811V3.76192ZM1.47622 5.71427C1.29212 5.71427 1.14288 5.8635 1.14288 6.0476V6.52379C1.14288 6.70789 1.29212 6.85712 1.47622 6.85712H1.95241C2.1365 6.85712 2.28574 6.70788 2.28574 6.52379V6.0476C2.28574 5.8635 2.1365 5.71427 1.95241 5.71427H1.47622ZM1.14288 8.33333C1.14288 8.14924 1.29212 8 1.47622 8H1.95241C2.1365 8 2.28574 8.14924 2.28574 8.33333V8.80952C2.28574 8.99362 2.1365 9.14285 1.95241 9.14285H1.47622C1.29212 9.14285 1.14288 8.99362 1.14288 8.80952V8.33333ZM1.47622 10.2857C1.29212 10.2857 1.14288 10.435 1.14288 10.6191V11.0953C1.14288 11.2793 1.29212 11.4286 1.47622 11.4286H1.95241C2.1365 11.4286 2.28574 11.2793 2.28574 11.0953V10.6191C2.28574 10.435 2.1365 10.2857 1.95241 10.2857H1.47622ZM1.14288 12.9047C1.14288 12.7206 1.29212 12.5714 1.47622 12.5714H1.95241C2.1365 12.5714 2.28574 12.7206 2.28574 12.9047V13.3809C2.28574 13.565 2.1365 13.7143 1.95241 13.7143H1.47622C1.29212 13.7143 1.14288 13.565 1.14288 13.3809V12.9047ZM1.47622 14.8571C1.29212 14.8571 1.14288 15.0064 1.14288 15.1905V15.6667C1.14288 15.8508 1.29212 16 1.47622 16H1.95241C2.1365 16 2.28574 15.8508 2.28574 15.6667V15.1905C2.28574 15.0064 2.1365 14.8571 1.95241 14.8571H1.47622ZM2.28578 14.0476C2.28578 13.8635 2.43501 13.7143 2.61911 13.7143H3.0953C3.27939 13.7143 3.42863 13.8635 3.42863 14.0476V14.5238C3.42863 14.7079 3.27939 14.8572 3.0953 14.8572H2.61911C2.43501 14.8572 2.28578 14.7079 2.28578 14.5238V14.0476ZM2.61911 11.4286C2.43501 11.4286 2.28578 11.5778 2.28578 11.7619V12.2381C2.28578 12.4222 2.43501 12.5714 2.61911 12.5714H3.0953C3.27939 12.5714 3.42863 12.4222 3.42863 12.2381V11.7619C3.42863 11.5778 3.27939 11.4286 3.0953 11.4286H2.61911ZM2.28578 9.47617C2.28578 9.29208 2.43501 9.14284 2.61911 9.14284H3.0953C3.27939 9.14284 3.42863 9.29208 3.42863 9.47617V9.95236C3.42863 10.1365 3.27939 10.2857 3.0953 10.2857H2.61911C2.43501 10.2857 2.28578 10.1365 2.28578 9.95236V9.47617ZM2.61911 6.85716C2.43501 6.85716 2.28578 7.0064 2.28578 7.19049V7.66668C2.28578 7.85078 2.43501 8.00002 2.61911 8.00002H3.0953C3.27939 8.00002 3.42863 7.85078 3.42863 7.66668V7.19049C3.42863 7.0064 3.27939 6.85716 3.0953 6.85716H2.61911ZM2.28578 4.90476C2.28578 4.72066 2.43501 4.57143 2.61911 4.57143H3.0953C3.27939 4.57143 3.42863 4.72066 3.42863 4.90476V5.38095C3.42863 5.56504 3.27939 5.71428 3.0953 5.71428H2.61911C2.43501 5.71428 2.28578 5.56505 2.28578 5.38095V4.90476ZM2.61911 2.28569C2.43501 2.28569 2.28578 2.43493 2.28578 2.61903V3.09522C2.28578 3.27931 2.43501 3.42855 2.61911 3.42855H3.0953C3.27939 3.42855 3.42863 3.27931 3.42863 3.09522V2.61903C3.42863 2.43493 3.27939 2.28569 3.0953 2.28569H2.61911Z"
          fill="#FFCD4B"/>
  </g>
</svg>
