<svg width="24" height="18" viewBox="0 0 24 18" fill="none" xmlns="http://www.w3.org/2000/svg">
  <rect x="0.25" y="0.25" width="23.5" height="16.6429" rx="1.75" fill="white" stroke="#F5F5F5" stroke-width="0.5"/>
  <mask id="mask0" mask-type="alpha" maskUnits="userSpaceOnUse" x="0" y="0" width="24" height="18">
    <rect x="0.25" y="0.25" width="23.5" height="16.6429" rx="1.75" fill="white" stroke="white" stroke-width="0.5"/>
  </mask>
  <g mask="url(#mask0)">
    <path fill-rule="evenodd" clip-rule="evenodd" d="M0 4.57143H24V0H0V4.57143Z" fill="#F03340"/>
    <path fill-rule="evenodd" clip-rule="evenodd" d="M0 17.1429H24V12.5714H0V17.1429Z" fill="#F03340"/>
    <path fill-rule="evenodd" clip-rule="evenodd"
          d="M11.0938 10.6205C11.2787 10.4356 11.2787 10.1359 11.0938 9.951L11.0281 9.88524C10.922 9.77919 10.7681 9.73656 10.6226 9.77293L10.2975 9.8542C9.91725 9.94927 9.68122 9.45338 9.99482 9.21819L10.2886 8.99788C10.4707 8.86128 10.3741 8.57144 10.1464 8.57144V8.57144C9.89642 8.57144 9.81687 8.23444 10.0405 8.12264L10.531 7.87739C10.7546 7.76559 10.675 7.42859 10.425 7.42859V7.42859C10.1973 7.42859 10.1007 7.13876 10.2829 7.00215L11.6 6.0143C11.837 5.83652 12.163 5.83652 12.4 6.0143L13.7171 7.00215C13.8993 7.13876 13.8027 7.42859 13.575 7.42859V7.42859C13.325 7.42859 13.2454 7.76559 13.469 7.87739L13.9595 8.12264C14.1831 8.23444 14.1036 8.57144 13.8536 8.57144V8.57144C13.6259 8.57144 13.5293 8.86128 13.7114 8.99788L14.0052 9.21819C14.3188 9.45338 14.0827 9.94927 13.7025 9.8542L13.3774 9.77293C13.2319 9.73656 13.078 9.77919 12.9719 9.88524L12.9062 9.951C12.7213 10.1359 12.7213 10.4356 12.9062 10.6205V10.6205C13.2044 10.9187 12.9932 11.4286 12.5714 11.4286H11.4286C11.0068 11.4286 10.7956 10.9187 11.0938 10.6205V10.6205Z"
          fill="#1FC065"/>
  </g>
</svg>
