<svg width="24" height="18" viewBox="0 0 24 18" fill="none" xmlns="http://www.w3.org/2000/svg">
  <rect width="24" height="17.1429" rx="2" fill="white"/>
  <mask id="mask0" mask-type="alpha" maskUnits="userSpaceOnUse" x="0" y="0" width="24" height="18">
    <rect width="24" height="17.1429" rx="2" fill="white"/>
  </mask>
  <g mask="url(#mask0)">
    <rect width="24" height="17.1429" fill="#FFBF19"/>
    <path fill-rule="evenodd" clip-rule="evenodd"
          d="M9.14282 1.14284H21.5238C22.2602 1.14284 22.8571 1.73979 22.8571 2.47617V14.6666C22.8571 15.403 22.2602 16 21.5238 16H9.14282V1.14284Z"
          fill="#A52531"/>
    <path
      d="M1.14289 2.47617C1.14289 1.73979 1.73984 1.14284 2.47622 1.14284H4.57146V16H2.47622C1.73984 16 1.14289 15.403 1.14289 14.6666V2.47617Z"
      fill="#03664F"/>
    <rect x="4.57146" y="1.14284" width="3.42857" height="14.8571" rx="0.666667" fill="#FF6816"/>
    <path fill-rule="evenodd" clip-rule="evenodd"
          d="M11.4286 2.85716C11.4286 3.17275 11.1728 3.42859 10.8572 3.42859C10.5416 3.42859 10.2858 3.17275 10.2858 2.85716V2.28573H10.8572C11.1728 2.28573 11.4286 2.54157 11.4286 2.85716ZM20.5715 2.85718C20.5715 3.17277 20.8273 3.42861 21.1429 3.42861C21.4585 3.42861 21.7143 3.17277 21.7143 2.85718V2.28575H21.1429C20.8273 2.28575 20.5715 2.54159 20.5715 2.85718ZM21.1429 13.7143C20.8273 13.7143 20.5715 13.9702 20.5715 14.2858C20.5715 14.6014 20.8273 14.8572 21.1429 14.8572H21.7143V14.2858C21.7143 13.9702 21.4585 13.7143 21.1429 13.7143ZM11.4286 14.2858C11.4286 13.9702 11.1727 13.7143 10.8571 13.7143C10.5416 13.7143 10.2857 13.9702 10.2857 14.2858V14.8572H10.8571C11.1727 14.8572 11.4286 14.6014 11.4286 14.2858Z"
          fill="#FFBF18"/>
    <path fill-rule="evenodd" clip-rule="evenodd"
          d="M13.7143 10.7774C13.7143 10.5059 13.4942 10.2857 13.2226 10.2857V10.2857C13.1698 10.2857 13.1174 10.2773 13.0677 10.2595C12.737 10.1413 11.4286 9.64211 11.4286 9.14288C11.4286 8.85466 11.5739 8.56645 11.718 8.35156C11.8698 8.12517 11.9296 7.83625 11.8343 7.58086C11.6394 7.05823 11.3514 6.17738 11.4286 5.7143C11.4635 5.50458 11.5841 5.31618 11.7346 5.15571C12.0648 4.80379 12.5714 5.11509 12.5714 5.59761V7.588C12.5714 7.84051 12.7141 8.07135 12.9399 8.18428L13.4672 8.44789C13.6147 8.52168 13.793 8.49275 13.9096 8.37608V8.37608C14.0946 8.19108 14.044 7.87918 13.81 7.76217L13.1428 7.42859V6.85716V6.85716C13.4275 6.85716 13.5181 6.47338 13.2635 6.34606L13.1428 6.28573V5.7143H14.0096C14.1864 5.7143 14.3559 5.64407 14.481 5.51904L14.6619 5.33814C14.7869 5.21311 14.9565 5.14288 15.1333 5.14288H15.588C15.8405 5.14288 16.0713 5.28554 16.1843 5.5114L16.4479 6.03874C16.527 6.19689 16.54 6.37997 16.4841 6.5477L16.2925 7.12253C16.1486 7.55422 16.4699 8.00002 16.9249 8.00002H18.6713C18.7903 8.00002 18.9044 7.95276 18.9885 7.86864V7.86864C19.205 7.65215 19.1458 7.2872 18.8719 7.15028L18.4265 6.92754C18.3339 6.88126 18.2318 6.85716 18.1283 6.85716H17.8095C17.4413 6.85716 17.1428 6.55868 17.1428 6.1905V5.99045C17.1428 5.81364 17.2131 5.64407 17.3381 5.51904L17.7143 5.14288V5.7143C17.7143 6.0299 17.9701 6.28573 18.2857 6.28573V6.28573H19.0165C19.2691 6.28573 19.4999 6.4284 19.6128 6.65426L19.9465 7.32166C19.9819 7.39238 20.0044 7.46831 20.0115 7.54706C20.0385 7.84898 20.097 8.65764 20 9.14288C19.9234 9.52566 19.7152 9.88127 19.5725 10.0911C19.4844 10.2205 19.4286 10.3715 19.4286 10.5281V12.1349C19.4286 12.376 19.2331 12.5714 18.992 12.5714V12.5714C18.6675 12.5714 18.4565 12.2299 18.6016 11.9397L18.7968 11.5492C18.8348 11.4733 18.8348 11.3839 18.7968 11.3079L18.7698 11.254C18.6492 11.0128 18.2857 11.0986 18.2857 11.3683V11.3683C18.2857 11.4079 18.2765 11.4471 18.2587 11.4825L17.8555 12.2889C17.769 12.4621 17.592 12.5714 17.3984 12.5714V12.5714C17.0185 12.5714 16.7713 12.1716 16.9413 11.8318L17.0725 11.5694C17.1187 11.4768 17.1428 11.3747 17.1428 11.2712L17.1428 10.9524C17.1428 10.5842 16.8444 10.2857 16.4762 10.2857H15.5238C15.1556 10.2857 14.8571 10.5842 14.8571 10.9524V11.2712C14.8571 11.3747 14.833 11.4768 14.7867 11.5694L14.427 12.2889C14.3404 12.4621 14.1634 12.5714 13.9698 12.5714V12.5714C13.5899 12.5714 13.3428 12.1716 13.5127 11.8318L13.6439 11.5694C13.6902 11.4768 13.7143 11.3747 13.7143 11.2712V10.7774Z"
          fill="#FFBF18"/>
  </g>
</svg>
