<svg width="24" height="18" viewBox="0 0 24 18" fill="none" xmlns="http://www.w3.org/2000/svg">
  <rect x="0.25" y="0.25" width="23.5" height="16.6429" rx="1.75" fill="white" stroke="#F5F5F5" stroke-width="0.5"/>
  <mask id="mask0" mask-type="alpha" maskUnits="userSpaceOnUse" x="0" y="0" width="24" height="18">
    <rect x="0.25" y="0.25" width="23.5" height="16.6429" rx="1.75" fill="white" stroke="white" stroke-width="0.5"/>
  </mask>
  <g mask="url(#mask0)">
    <path fill-rule="evenodd" clip-rule="evenodd"
          d="M24 0H11.4286V2.28571H24V0ZM24 4.57141H11.4286V6.85713H24V4.57141ZM11.4286 9.14287H24V11.4286H11.4286V9.14287ZM24 13.7143H0V16H24V13.7143Z"
          fill="#E1244A"/>
    <rect width="11.4286" height="11.4286" fill="#0C3F8E"/>
    <path fill-rule="evenodd" clip-rule="evenodd"
          d="M5.71425 7.05144L3.69898 8.48807L4.44255 6.1275L2.45348 4.65481L4.92829 4.63253L5.71425 2.28573L6.5002 4.63253L8.97501 4.65481L6.98595 6.1275L7.72951 8.48807L5.71425 7.05144Z"
          fill="white"/>
  </g>
</svg>
