<svg width="24" height="18" viewBox="0 0 24 18" fill="none" xmlns="http://www.w3.org/2000/svg">
  <rect width="24" height="17.1429" rx="2" fill="white"/>
  <mask id="mask0" mask-type="alpha" maskUnits="userSpaceOnUse" x="0" y="0" width="24" height="18">
    <rect width="24" height="17.1429" rx="2" fill="white"/>
  </mask>
  <g mask="url(#mask0)">
    <g filter="url(#filter0_d)">
      <path fill-rule="evenodd" clip-rule="evenodd" d="M0 11.4286H24V5.7143H0V11.4286Z" fill="#262626"/>
    </g>
    <g filter="url(#filter1_d)">
      <path fill-rule="evenodd" clip-rule="evenodd" d="M0 17.1428H24V11.4286H0V17.1428Z" fill="#34B857"/>
    </g>
    <path fill-rule="evenodd" clip-rule="evenodd" d="M0 5.71429H24V0H0V5.71429Z" fill="#F41F34"/>
    <path fill-rule="evenodd" clip-rule="evenodd"
          d="M12 10.2857C12.3525 10.2857 12.6802 10.1793 12.9526 9.99686C12.9211 9.99895 12.8892 10 12.8571 10C12.0681 10 11.4285 9.36041 11.4285 8.57143C11.4285 7.78246 12.0681 7.14286 12.8571 7.14286C12.8892 7.14286 12.9211 7.14392 12.9527 7.14601C12.6802 6.96355 12.3525 6.85714 12 6.85714C11.0532 6.85714 10.2857 7.62465 10.2857 8.57143C10.2857 9.5182 11.0532 10.2857 12 10.2857ZM13.7142 8.57143C13.7142 8.88703 13.4584 9.14286 13.1428 9.14286C12.8272 9.14286 12.5713 8.88703 12.5713 8.57143C12.5713 8.25584 12.8272 8.00001 13.1428 8.00001C13.4584 8.00001 13.7142 8.25584 13.7142 8.57143Z"
          fill="white"/>
  </g>
  <defs>
    <filter id="filter0_d" x="0" y="5.7143" width="24" height="5.71429" filterUnits="userSpaceOnUse"
            color-interpolation-filters="sRGB">
      <feFlood flood-opacity="0" result="BackgroundImageFix"/>
      <feColorMatrix in="SourceAlpha" type="matrix" values="0 0 0 0 0 0 0 0 0 0 0 0 0 0 0 0 0 0 127 0"/>
      <feOffset/>
      <feColorMatrix type="matrix" values="0 0 0 0 0 0 0 0 0 0 0 0 0 0 0 0 0 0 0.06 0"/>
      <feBlend mode="normal" in2="BackgroundImageFix" result="effect1_dropShadow"/>
      <feBlend mode="normal" in="SourceGraphic" in2="effect1_dropShadow" result="shape"/>
    </filter>
    <filter id="filter1_d" x="0" y="11.4286" width="24" height="5.71429" filterUnits="userSpaceOnUse"
            color-interpolation-filters="sRGB">
      <feFlood flood-opacity="0" result="BackgroundImageFix"/>
      <feColorMatrix in="SourceAlpha" type="matrix" values="0 0 0 0 0 0 0 0 0 0 0 0 0 0 0 0 0 0 127 0"/>
      <feOffset/>
      <feColorMatrix type="matrix" values="0 0 0 0 0 0 0 0 0 0 0 0 0 0 0 0 0 0 0.06 0"/>
      <feBlend mode="normal" in2="BackgroundImageFix" result="effect1_dropShadow"/>
      <feBlend mode="normal" in="SourceGraphic" in2="effect1_dropShadow" result="shape"/>
    </filter>
  </defs>
</svg>
