<svg width="24" height="18" viewBox="0 0 24 18" fill="none" xmlns="http://www.w3.org/2000/svg">
  <rect width="24" height="17.1429" rx="2" fill="white"/>
  <mask id="mask0" mask-type="alpha" maskUnits="userSpaceOnUse" x="0" y="0" width="24" height="18">
    <rect width="24" height="17.1429" rx="2" fill="white"/>
  </mask>
  <g mask="url(#mask0)">
    <rect width="24" height="17.1429" fill="#E6BE53"/>
    <path fill-rule="evenodd" clip-rule="evenodd"
          d="M1.14289 15C1.14289 15.5523 1.59061 16 2.14289 16H21.8572C22.4095 16 22.8572 15.5523 22.8572 15V2.14284C22.8572 1.59055 22.4095 1.14284 21.8572 1.14284H2.14289C1.59061 1.14284 1.14289 1.59055 1.14289 2.14284V15Z"
          fill="#E01826"/>
    <path fill-rule="evenodd" clip-rule="evenodd"
          d="M11.309 3.08743C10.8389 3.24415 10.698 3.84085 11.0484 4.19129L11.2333 4.37614C11.3583 4.50116 11.5279 4.5714 11.7047 4.5714H12.2953C12.4721 4.5714 12.6416 4.50116 12.7667 4.37614L12.9515 4.19129C13.3019 3.84086 13.1611 3.24415 12.6909 3.08743L12.2108 2.92738C12.074 2.88177 11.926 2.88177 11.7892 2.92738L11.309 3.08743ZM12.4714 5.8143C12.2111 6.07465 11.789 6.07465 11.5286 5.8143L11.4286 5.71427L10.5946 4.88031C10.4102 4.69584 10.1283 4.65011 9.895 4.76678L9.86568 4.78144C9.51009 4.95924 9.43318 5.43315 9.7143 5.71427L10.5174 6.51736C10.7203 6.72027 10.7706 7.03025 10.6423 7.28691L10.3183 7.93491C10.2969 7.97771 10.2857 8.0249 10.2857 8.07274C10.2857 8.30185 10.0446 8.45086 9.8397 8.3484L9.56292 8.21001C9.35627 8.10669 9.31158 7.83128 9.47495 7.66791C9.60714 7.53572 9.60714 7.3214 9.47495 7.18921L9.21937 6.93363C9.1687 6.88296 9.12653 6.82445 9.09449 6.76036L8.60417 5.77973C8.58242 5.73622 8.56549 5.69046 8.55369 5.64328L8.33972 4.78738C8.20357 4.24279 7.49644 4.09999 7.15963 4.54908L6.41906 5.53649C6.33251 5.65189 6.28573 5.79225 6.28573 5.93649V7.84261C6.28573 7.9461 6.30983 8.04818 6.35611 8.14075L6.80878 9.04608C6.84082 9.11017 6.88299 9.16867 6.93366 9.21934L7.92352 10.2092C7.97418 10.2599 8.03269 10.302 8.09678 10.3341L9.08891 10.8301C9.1244 10.8479 9.16353 10.8571 9.2032 10.8571C9.47286 10.8571 9.55868 11.2207 9.31748 11.3413L9.18504 11.4075C9.15711 11.4214 9.13161 11.4398 9.10954 11.4619L8.85716 11.7143C8.69936 11.8721 8.44352 11.8721 8.28573 11.7143C8.12793 11.5565 7.8721 11.5565 7.7143 11.7143L7.66793 11.7606C7.525 11.9036 7.48956 12.1219 7.57996 12.3027L7.81575 12.7743C7.92868 13.0002 8.15952 13.1428 8.41204 13.1428H8.98549C9.08899 13.1428 9.19106 13.1187 9.28363 13.0725L10.087 12.6708C10.216 12.6063 10.3206 12.5017 10.3851 12.3727L10.63 11.8829C10.7417 11.6594 11.0396 11.611 11.2163 11.7877C11.3398 11.9112 11.3589 12.1045 11.2621 12.2497L10.6555 13.1596C10.4513 13.4659 10.5341 13.8798 10.8404 14.0841L11.6302 14.6106C11.8541 14.7599 12.1459 14.7599 12.3698 14.6106L13.1596 14.0841C13.466 13.8798 13.5487 13.4659 13.3445 13.1596L12.7379 12.2497C12.6411 12.1045 12.6603 11.9112 12.7837 11.7877C12.9604 11.611 13.2583 11.6594 13.37 11.8829L13.6149 12.3727C13.6794 12.5017 13.784 12.6063 13.9131 12.6708L14.7164 13.0725C14.809 13.1187 14.911 13.1428 15.0145 13.1428H15.588C15.8405 13.1428 16.0713 13.0002 16.1843 12.7743L16.4201 12.3027C16.5105 12.1219 16.475 11.9036 16.3321 11.7606L16.2857 11.7143C16.1279 11.5565 15.8721 11.5565 15.7143 11.7143C15.5565 11.8721 15.3007 11.8721 15.1429 11.7143L14.8905 11.4619C14.8684 11.4398 14.8429 11.4214 14.815 11.4075L14.6825 11.3413C14.4413 11.2207 14.5272 10.8571 14.7968 10.8571C14.8365 10.8571 14.8756 10.8479 14.9111 10.8301L15.9032 10.3341C15.9673 10.302 16.0258 10.2599 16.0765 10.2092L17.0664 9.21934C17.117 9.16867 17.1592 9.11017 17.1913 9.04608L17.6439 8.14075C17.6902 8.04818 17.7143 7.9461 17.7143 7.84261V5.93649C17.7143 5.79225 17.6675 5.65189 17.581 5.53649L16.8404 4.54908C16.5036 4.09999 15.7965 4.24279 15.6603 4.78738L15.4463 5.64328C15.4345 5.69046 15.4176 5.73622 15.3959 5.77973L14.9055 6.76037C14.8735 6.82446 14.8313 6.88296 14.7807 6.93363L14.5251 7.18921C14.3929 7.3214 14.3929 7.53572 14.5251 7.66791C14.6884 7.83128 14.6438 8.10669 14.4371 8.21001L14.1603 8.3484C13.9554 8.45086 13.7143 8.30185 13.7143 8.07274C13.7143 8.0249 13.7032 7.97771 13.6818 7.93491L13.3578 7.28691C13.2294 7.03025 13.2797 6.72027 13.4826 6.51736L14.2857 5.71427C14.5668 5.43315 14.4899 4.95924 14.1343 4.78144L14.105 4.76678C13.8717 4.65011 13.5899 4.69584 13.4054 4.88031L12.5714 5.71427L12.4714 5.8143Z"
          fill="#E6BE53"/>
    <path fill-rule="evenodd" clip-rule="evenodd"
          d="M10.8571 9.71427C10.8571 9.92466 11.2114 9.99466 11.3139 9.81094C11.5132 9.45386 11.7566 9.14284 12 9.14284C12.2434 9.14284 12.4868 9.45386 12.686 9.81094C12.7885 9.99466 13.1428 9.92466 13.1428 9.71427V9.71427C13.1428 8.7675 12.6311 7.99998 12 7.99998C11.3688 7.99998 10.8571 8.7675 10.8571 9.71427V9.71427Z"
          fill="#215F90"/>
  </g>
</svg>
