<svg width="24" height="18" viewBox="0 0 24 18" fill="none" xmlns="http://www.w3.org/2000/svg">
  <path
    d="M22.2026 17.14H1.79742C0.804703 17.14 0 16.2628 0 15.1807V1.95927C0 0.877214 0.804703 0 1.79742 0H22.2026C23.1952 0 24 0.877162 24 1.95927V15.1808C24 16.2628 23.1953 17.14 22.2026 17.14Z"
    fill="#41479B"/>
  <path
    d="M0.773933 16.7912L23.9999 6.31508V3.15771L0.427246 16.4484C0.528543 16.5783 0.645074 16.6937 0.773933 16.7912Z"
    fill="#F5F5F5"/>
  <path
    d="M23.3428 0.444824L0.208496 16.097C0.269715 16.2229 0.343215 16.3405 0.427168 16.4482L23.9998 3.15761V1.9592C23.9998 1.34907 23.7439 0.804181 23.3428 0.444824Z"
    fill="#FF9B55"/>
  <path
    d="M6.83902 6.22856L9.51704 5.86399L6.83902 5.49947L8.19629 4.59201L6.50752 5.04211L7.5353 3.51369L6.13313 4.63396L6.54601 2.79318L5.7136 4.27266L5.37915 1.35345L5.04469 4.27266L4.21224 2.79318L4.62516 4.63396L3.22294 3.51369L4.25073 5.04211L2.56196 4.59201L3.91923 5.49947L1.24121 5.86399L3.91923 6.22856L2.56196 7.13597L4.25073 6.68587L3.22294 8.2143L4.62516 7.09402L4.21224 8.9348L5.04469 7.45537L5.37915 10.3745L5.7136 7.45537L6.54601 8.9348L6.13313 7.09402L7.5353 8.2143L6.50752 6.68587L8.19629 7.13597L6.83902 6.22856Z"
    fill="#F5F5F5"/>
</svg>
