<svg width="24" height="18" viewBox="0 0 24 18" fill="none" xmlns="http://www.w3.org/2000/svg">
  <rect width="24" height="17.1429" rx="2" fill="white"/>
  <mask id="mask0" mask-type="alpha" maskUnits="userSpaceOnUse" x="0" y="0" width="24" height="18">
    <rect width="24" height="17.1429" rx="2" fill="white"/>
  </mask>
  <g mask="url(#mask0)">
    <rect width="24" height="17.1429" fill="#E81B26"/>
    <path fill-rule="evenodd" clip-rule="evenodd"
          d="M12 11.4286C13.5779 11.4286 14.8571 10.1494 14.8571 8.57144C14.8571 6.99349 13.5779 5.7143 12 5.7143C10.422 5.7143 9.14282 6.99349 9.14282 8.57144C9.14282 10.1494 10.422 11.4286 12 11.4286Z"
          fill="#FFE94F"/>
    <path fill-rule="evenodd" clip-rule="evenodd"
          d="M15.2503 10.9035L24.6128 17.6212L22.3186 20.1691L14.6589 11.5599C14.8792 11.3637 15.0777 11.1436 15.2503 10.9035ZM15.9604 9.13721L24 10.2857V6.85716L15.9604 8.00567C15.9865 8.19049 16.0001 8.37938 16.0001 8.57143C16.0001 8.76348 15.9865 8.95238 15.9604 9.13721ZM15.2503 6.23935L24.6128 -0.478335L22.3186 -3.02626L14.6589 5.58296C14.8792 5.77912 15.0777 5.99929 15.2503 6.23935ZM12.7847 4.64835L13.7143 1.75756e-05H10.2858L11.2154 4.64836C11.4691 4.59789 11.7315 4.57143 12.0001 4.57143C12.2686 4.57143 12.531 4.59789 12.7847 4.64835ZM9.34119 5.58301L1.68144 -3.02626L-0.612724 -0.478335L8.74984 6.2394C8.92239 5.99934 9.12087 5.77917 9.34119 5.58301ZM8.03978 9.1372C8.01361 8.95237 8.00008 8.76348 8.00008 8.57143C8.00008 8.37939 8.01361 8.19051 8.03977 8.00569L4.12586e-05 6.85716V10.2857L8.03978 9.1372ZM12.7847 12.4945C12.531 12.545 12.2686 12.5714 12.0001 12.5714C11.7315 12.5714 11.4692 12.545 11.2154 12.4945L10.2858 17.1429H13.7143L12.7847 12.4945ZM9.34121 11.5599C9.12089 11.3637 8.92241 11.1435 8.74986 10.9035L-0.612682 17.6212L1.68148 20.1691L9.34121 11.5599Z"
          fill="#FFE94F"/>
  </g>
</svg>
