<svg width="24" height="18" viewBox="0 0 24 18" fill="none" xmlns="http://www.w3.org/2000/svg">
  <rect width="24" height="17.1429" rx="2" fill="white"/>
  <mask id="mask0" mask-type="alpha" maskUnits="userSpaceOnUse" x="0" y="0" width="24" height="18">
    <rect width="24" height="17.1429" rx="2" fill="white"/>
  </mask>
  <g mask="url(#mask0)">
    <path fill-rule="evenodd" clip-rule="evenodd" d="M0 17.1429H24V0H0V17.1429Z" fill="#079D7B"/>
    <path fill-rule="evenodd" clip-rule="evenodd"
          d="M13.6159 7.42862C13.6159 7.67881 13.5977 7.92149 13.5635 8.15275C13.6512 8.12579 13.7405 8.10008 13.8313 8.07575C15.3555 7.66735 16.7159 7.8021 16.8699 8.37673C17.0091 8.89606 16.1152 9.59695 14.8167 10.0285C14.5874 9.34817 13.4136 9.14289 12.0002 9.14289C10.5851 9.14289 9.41038 9.34862 9.18285 10.0307C7.90201 9.59835 7.02419 8.90484 7.16218 8.38985C7.31615 7.81522 8.67657 7.68047 10.2008 8.08887C10.2808 8.11031 10.3596 8.13282 10.4372 8.15631C10.4027 7.92398 10.3844 7.6801 10.3844 7.42862C10.3844 5.85067 11.1078 4.57148 12.0001 4.57148C12.8925 4.57148 13.6159 5.85067 13.6159 7.42862ZM9.65924 10.1741C9.82281 10.2175 9.98444 10.2547 10.1429 10.2858H7.42872C7.56427 10.6927 7.74671 11.0761 7.96916 11.4286H16.0312C16.2536 11.0761 16.436 10.6927 16.5716 10.2858H13.8205C13.9839 10.2554 14.151 10.2184 14.3202 10.1747C14.1401 10.1807 13.9206 10.1959 13.6707 10.2132C13.2009 10.2458 12.6239 10.2857 12.0002 10.2857C11.3764 10.2857 10.7994 10.2458 10.3296 10.2132C10.07 10.1952 9.84314 10.1795 9.65924 10.1741ZM12.0002 13.7143C13.1545 13.7143 14.2146 13.2862 15.0471 12.5715H8.95321C9.78571 13.2862 10.8458 13.7143 12.0002 13.7143Z"
          fill="white"/>
    <path fill-rule="evenodd" clip-rule="evenodd"
          d="M11.9999 3.42859C12.3155 3.42859 12.5714 3.17275 12.5714 2.85716C12.5714 2.54157 12.3155 2.28573 11.9999 2.28573C11.6843 2.28573 11.4285 2.54157 11.4285 2.85716C11.4285 3.17275 11.6843 3.42859 11.9999 3.42859ZM7.42858 6.28571C7.74417 6.28571 8 6.02987 8 5.71428C8 5.39869 7.74417 5.14285 7.42858 5.14285C7.11298 5.14285 6.85715 5.39869 6.85715 5.71428C6.85715 6.02987 7.11298 6.28571 7.42858 6.28571ZM17.1429 5.71428C17.1429 6.02987 16.8871 6.28571 16.5715 6.28571C16.2559 6.28571 16.0001 6.02987 16.0001 5.71428C16.0001 5.39869 16.2559 5.14285 16.5715 5.14285C16.8871 5.14285 17.1429 5.39869 17.1429 5.71428ZM14.8572 4.57143C15.1728 4.57143 15.4286 4.31559 15.4286 4C15.4286 3.68441 15.1728 3.42857 14.8572 3.42857C14.5416 3.42857 14.2858 3.68441 14.2858 4C14.2858 4.31559 14.5416 4.57143 14.8572 4.57143ZM9.71429 4C9.71429 4.31559 9.45845 4.57143 9.14286 4.57143C8.82727 4.57143 8.57143 4.31559 8.57143 4C8.57143 3.68441 8.82727 3.42857 9.14286 3.42857C9.45845 3.42857 9.71429 3.68441 9.71429 4Z"
          fill="#FCD117"/>
  </g>
</svg>
