<svg width="24" height="18" viewBox="0 0 24 18" fill="none" xmlns="http://www.w3.org/2000/svg">
  <path
    d="M22.2026 17.14H1.79742C0.804703 17.14 0 16.2628 0 15.1807V1.95927C0 0.877214 0.804703 0 1.79742 0H22.2026C23.1952 0 24 0.877162 24 1.95927V15.1808C24 16.2628 23.1953 17.14 22.2026 17.14Z"
    fill="#4173CD"/>
  <path
    d="M12 15.1103C8.69166 15.1103 6 12.1762 6 8.56999C6 4.96375 8.69166 2.02972 12 2.02972C15.3083 2.02972 18 4.96375 18 8.56999C18 12.1762 15.3083 15.1103 12 15.1103ZM12 3.3829C9.37598 3.3829 7.24139 5.70975 7.24139 8.56999C7.24139 11.4302 9.37603 13.7571 12 13.7571C14.624 13.7571 16.7586 11.4302 16.7586 8.56999C16.7586 5.70975 14.624 3.3829 12 3.3829Z"
    fill="#F5F5F5"/>
  <path
    d="M12.0002 14.659C8.92005 14.659 6.41406 11.9274 6.41406 8.56985C6.41406 5.21229 8.92005 2.48065 12.0002 2.48065C15.0805 2.48065 17.5864 5.21229 17.5864 8.56985C17.5864 11.9274 15.0805 14.659 12.0002 14.659ZM12.0002 2.93167C9.14814 2.93167 6.82783 5.46092 6.82783 8.56985C6.82783 11.6788 9.14814 14.208 12.0002 14.208C14.8524 14.208 17.1727 11.6788 17.1727 8.56985C17.1727 5.46092 14.8524 2.93167 12.0002 2.93167Z"
    fill="#FFDC00"/>
  <path
    d="M6.62084 9.02086C6.84939 9.02086 7.03466 8.81891 7.03466 8.56979C7.03466 8.32067 6.84939 8.11871 6.62084 8.11871C6.3923 8.11871 6.20703 8.32067 6.20703 8.56979C6.20703 8.81891 6.3923 9.02086 6.62084 9.02086Z"
    fill="#FFDC00"/>
  <path
    d="M17.3791 9.02086C17.6077 9.02086 17.793 8.81891 17.793 8.56979C17.793 8.32067 17.6077 8.11871 17.3791 8.11871C17.1506 8.11871 16.9653 8.32067 16.9653 8.56979C16.9653 8.81891 17.1506 9.02086 17.3791 9.02086Z"
    fill="#FFDC00"/>
  <path
    d="M12 3.15734C12.2285 3.15734 12.4138 2.95538 12.4138 2.70626C12.4138 2.45714 12.2285 2.25519 12 2.25519C11.7715 2.25519 11.5862 2.45714 11.5862 2.70626C11.5862 2.95538 11.7715 3.15734 12 3.15734Z"
    fill="#FFDC00"/>
  <path
    d="M8.19604 4.87444C8.42458 4.87444 8.60985 4.67249 8.60985 4.42336C8.60985 4.17424 8.42458 3.97229 8.19604 3.97229C7.9675 3.97229 7.78223 4.17424 7.78223 4.42336C7.78223 4.67249 7.9675 4.87444 8.19604 4.87444Z"
    fill="#FFDC00"/>
  <path
    d="M15.8039 4.87444C16.0325 4.87444 16.2178 4.67249 16.2178 4.42336C16.2178 4.17424 16.0325 3.97229 15.8039 3.97229C15.5754 3.97229 15.3901 4.17424 15.3901 4.42336C15.3901 4.67249 15.5754 4.87444 15.8039 4.87444Z"
    fill="#FFDC00"/>
  <path
    d="M16.9695 6.77678C17.198 6.77678 17.3833 6.57483 17.3833 6.32571C17.3833 6.07659 17.198 5.87463 16.9695 5.87463C16.7409 5.87463 16.5557 6.07659 16.5557 6.32571C16.5557 6.57483 16.7409 6.77678 16.9695 6.77678Z"
    fill="#FFDC00"/>
  <path
    d="M9.94116 3.60369C10.1697 3.60369 10.355 3.40173 10.355 3.15261C10.355 2.90349 10.1697 2.70154 9.94116 2.70154C9.71261 2.70154 9.52734 2.90349 9.52734 3.15261C9.52734 3.40173 9.71261 3.60369 9.94116 3.60369Z"
    fill="#FFDC00"/>
  <path
    d="M7.03051 6.77678C7.25905 6.77678 7.44432 6.57483 7.44432 6.32571C7.44432 6.07659 7.25905 5.87463 7.03051 5.87463C6.80197 5.87463 6.6167 6.07659 6.6167 6.32571C6.6167 6.57483 6.80197 6.77678 7.03051 6.77678Z"
    fill="#FFDC00"/>
  <path
    d="M14.0588 3.60369C14.2874 3.60369 14.4726 3.40173 14.4726 3.15261C14.4726 2.90349 14.2874 2.70154 14.0588 2.70154C13.8303 2.70154 13.645 2.90349 13.645 3.15261C13.645 3.40173 13.8303 3.60369 14.0588 3.60369Z"
    fill="#FFDC00"/>
  <path
    d="M17.2756 7.87688C17.5042 7.87688 17.6894 7.67493 17.6894 7.42581C17.6894 7.17668 17.5042 6.97473 17.2756 6.97473C17.0471 6.97473 16.8618 7.17668 16.8618 7.42581C16.8618 7.67493 17.0471 7.87688 17.2756 7.87688Z"
    fill="#FFDC00"/>
  <path
    d="M10.9504 3.27007C11.179 3.27007 11.3642 3.06812 11.3642 2.81899C11.3642 2.56987 11.179 2.36792 10.9504 2.36792C10.7219 2.36792 10.5366 2.56987 10.5366 2.81899C10.5366 3.06812 10.7219 3.27007 10.9504 3.27007Z"
    fill="#FFDC00"/>
  <path
    d="M7.52758 5.76305C7.75612 5.76305 7.94139 5.5611 7.94139 5.31198C7.94139 5.06285 7.75612 4.8609 7.52758 4.8609C7.29904 4.8609 7.11377 5.06285 7.11377 5.31198C7.11377 5.5611 7.29904 5.76305 7.52758 5.76305Z"
    fill="#FFDC00"/>
  <path
    d="M14.9885 4.14586C15.2171 4.14586 15.4023 3.94391 15.4023 3.69479C15.4023 3.44567 15.2171 3.24371 14.9885 3.24371C14.76 3.24371 14.5747 3.44567 14.5747 3.69479C14.5747 3.94391 14.76 4.14586 14.9885 4.14586Z"
    fill="#FFDC00"/>
  <path
    d="M16.4729 5.76305C16.7014 5.76305 16.8867 5.5611 16.8867 5.31198C16.8867 5.06285 16.7014 4.8609 16.4729 4.8609C16.2444 4.8609 16.0591 5.06285 16.0591 5.31198C16.0591 5.5611 16.2444 5.76305 16.4729 5.76305Z"
    fill="#FFDC00"/>
  <path
    d="M9.01147 4.14586C9.24001 4.14586 9.42528 3.94391 9.42528 3.69479C9.42528 3.44567 9.24001 3.24371 9.01147 3.24371C8.78293 3.24371 8.59766 3.44567 8.59766 3.69479C8.59766 3.94391 8.78293 4.14586 9.01147 4.14586Z"
    fill="#FFDC00"/>
  <path
    d="M6.72436 7.87688C6.9529 7.87688 7.13817 7.67493 7.13817 7.42581C7.13817 7.17668 6.9529 6.97473 6.72436 6.97473C6.49582 6.97473 6.31055 7.17668 6.31055 7.42581C6.31055 7.67493 6.49582 7.87688 6.72436 7.87688Z"
    fill="#FFDC00"/>
  <path
    d="M13.0496 3.27007C13.2781 3.27007 13.4634 3.06812 13.4634 2.81899C13.4634 2.56987 13.2781 2.36792 13.0496 2.36792C12.821 2.36792 12.6357 2.56987 12.6357 2.81899C12.6357 3.06812 12.821 3.27007 13.0496 3.27007Z"
    fill="#FFDC00"/>
  <path
    d="M17.3791 8.79557C17.2648 8.79557 17.1722 8.6947 17.1722 8.57003C17.1722 5.4611 14.8519 2.93186 11.9998 2.93186C9.1477 2.93186 6.82739 5.4611 6.82739 8.57003C6.82739 8.6947 6.73486 8.79557 6.62048 8.79557C6.50611 8.79557 6.41357 8.6947 6.41357 8.57003C6.41357 5.21247 8.91956 2.48083 11.9998 2.48083C15.08 2.48083 17.586 5.21247 17.586 8.57003C17.586 8.6947 17.4935 8.79557 17.3791 8.79557Z"
    fill="#FFA000"/>
  <path
    d="M13.1495 15.3358H10.8501C10.3588 15.3358 9.97563 14.8719 10.0271 14.3393L10.7585 6.76581H13.2413L13.9726 14.3393C14.024 14.8719 13.6409 15.3358 13.1495 15.3358Z"
    fill="#B4B4B4"/>
  <path
    d="M13.2296 6.76583H10.7606C10.6519 6.76583 10.5605 6.67651 10.5488 6.55863L10.3946 5.01033C10.368 4.7435 10.5597 4.51056 10.8059 4.51056H13.194C13.4402 4.51056 13.6319 4.74345 13.6054 5.01033L13.4522 6.54821C13.4398 6.67202 13.3439 6.76583 13.2296 6.76583Z"
    fill="#AAAAAA"/>
  <path
    d="M12.0959 5.03588L12.8629 7.44142L15.1987 7.49328C15.2949 7.49543 15.3346 7.62858 15.2579 7.69199L13.3962 9.23054L14.0728 11.6681C14.1007 11.7684 13.9967 11.8507 13.9177 11.7909L12 10.3363L10.0823 11.7909C10.0034 11.8507 9.89939 11.7684 9.92723 11.6681L10.6038 9.23054L8.742 7.69199C8.66536 7.62868 8.70506 7.49543 8.8012 7.49328L11.137 7.44142L11.9041 5.03588C11.9358 4.93685 12.0642 4.93685 12.0959 5.03588Z"
    fill="#F5F5F5"/>
</svg>
