<svg width="24" height="18" viewBox="0 0 24 18" fill="none" xmlns="http://www.w3.org/2000/svg">
  <path
    d="M22.2025 17.14H1.79742C0.804703 17.14 0 16.2628 0 15.1807V1.95927C0 0.877214 0.804703 0 1.79742 0H22.2025C23.1952 0 24 0.877162 24 1.95927V15.1807C24 16.2628 23.1952 17.14 22.2025 17.14Z"
    fill="#41479B"/>
  <path d="M24 7.6679H12.8276V0H11.1724V7.6679H0V9.4721H11.1724V17.14H12.8276V9.4721H24V7.6679Z" fill="#F5F5F5"/>
  <path
    d="M8.08171 5.86804C8.06985 5.7913 8.04313 5.7004 8.00938 5.64189C7.9423 5.54082 7.86468 5.47006 7.78949 5.42601C7.19704 5.12935 6.70105 5.1875 6.22775 5.18545C5.76027 5.19858 5.32293 5.28647 4.9679 5.37119C4.87152 5.39234 4.78804 5.40813 4.69874 5.42642C4.7429 5.32699 4.90475 5.20257 5.12272 5.12715C5.6541 4.92931 6.26066 4.84985 6.85682 4.72324C7.00738 4.6911 7.16 4.65344 7.31629 4.605C7.40043 4.57358 7.47125 4.54905 7.57035 4.49888C7.63391 4.45969 7.69649 4.41038 7.75002 4.3577C7.80702 4.3018 7.80266 4.28617 7.832 4.24846C7.96738 3.96758 7.83922 3.76759 7.73179 3.66315C7.62824 3.57052 7.541 3.53434 7.45799 3.49709C7.29683 3.43547 7.14754 3.39684 7.00344 3.36409C6.7258 3.30354 6.45285 3.24401 6.18561 3.18571C6.05868 3.15368 5.93591 3.11811 5.82819 3.07499C5.73308 3.04735 5.59869 2.9449 5.61866 2.97285C5.37308 2.94975 5.95499 2.6512 6.37457 2.48442C6.48608 2.43077 6.59694 2.37661 6.71052 2.30017C6.82194 2.2199 6.93674 2.15179 7.06054 1.92697C7.08486 1.88032 7.08383 1.86897 7.09658 1.83847L7.11074 1.79969C7.14144 1.68018 7.12457 1.71242 7.13169 1.66061C7.14618 1.53522 7.10104 1.40119 7.0296 1.28955C6.88377 1.11776 6.73874 1.06861 6.63102 1.0357C6.18552 0.920635 5.86499 0.95211 5.5865 0.953285C5.05841 0.980366 4.75658 0.995797 4.75658 0.995797L4.73619 0.996819C4.73558 0.99687 4.73502 0.99687 4.73436 0.996922C4.56557 1.0077 4.4368 1.16554 4.44669 1.34948C4.44763 1.36747 4.45536 1.38254 4.45879 1.39956C4.21963 1.4714 3.84121 1.54487 3.46682 1.44866C3.40982 1.43435 3.35718 1.4717 3.344 1.53118C3.33088 1.59117 3.36515 1.6511 3.41971 1.66505C3.5668 1.70286 3.71272 1.71768 3.85185 1.71768C4.14739 1.71768 4.39986 1.65212 4.57227 1.59454C4.62786 1.63955 4.69546 1.66791 4.76999 1.66316C4.76999 1.66316 5.07496 1.64369 5.60868 1.60966C5.85857 1.59985 6.19438 1.58549 6.4715 1.65647C6.49443 1.66035 6.50671 1.66812 6.5219 1.67512C6.52405 1.64834 6.47718 1.72376 6.40391 1.76254C6.3328 1.81256 6.24027 1.86049 6.14399 1.90811C5.94711 2.00535 5.72183 2.08894 5.47208 2.23543C5.35152 2.313 5.20246 2.39179 5.07861 2.62228C5.02072 2.72907 4.99325 2.90172 5.02368 3.02343L5.03268 3.07305L5.03779 3.09757L5.0405 3.10973C5.02133 3.06635 5.06966 3.18301 5.06586 3.17248L5.09085 3.21785C5.11302 3.25239 5.10955 3.2667 5.1628 3.32699C5.2055 3.37738 5.25374 3.42561 5.30347 3.46771C5.34707 3.50041 5.3796 3.51584 5.41883 3.54006C5.49613 3.58973 5.5663 3.61272 5.63952 3.64404C5.7839 3.69948 5.92447 3.73714 6.06486 3.77097C6.33585 3.82656 6.61274 3.88333 6.89432 3.94112C7.01239 3.966 7.12288 3.99737 7.22502 4.03166C7.09419 4.08306 6.9111 4.13487 6.75318 4.16803C6.17872 4.30017 5.56958 4.38008 4.95004 4.61727C4.79497 4.6816 4.63611 4.7585 4.48035 4.88853C4.33368 5.00968 4.1795 5.25131 4.19924 5.51676C4.14669 5.52478 4.08632 5.53648 4.03775 5.54236C3.51219 5.61818 3.29132 5.51732 3.30557 5.51441C3.23694 5.47026 3.14849 5.49499 3.10799 5.56985C3.06744 5.6446 3.09018 5.74107 3.1588 5.78522C3.1588 5.78522 3.2489 5.8519 3.40972 5.89032C3.56975 5.92977 3.7949 5.94785 4.06911 5.9243C4.14463 5.91868 4.23308 5.90636 4.31615 5.89681C4.37357 5.98704 4.44046 6.08658 4.50275 6.13481C4.64755 6.2672 4.80088 6.35187 4.95369 6.42601C5.56883 6.68537 6.18364 6.73984 6.78308 6.71414C7.08402 6.68951 7.38018 6.65124 7.6843 6.50332C7.8261 6.43122 8.02072 6.31769 8.08082 5.98929C8.081 5.94724 8.08761 5.92808 8.08171 5.86804ZM7.6393 5.97146C7.63147 5.92292 7.60696 6.03303 7.49211 6.06338C7.29444 6.15806 7.02463 6.20139 6.75941 6.21662C6.22457 6.23578 5.6405 6.16772 5.13969 5.94632C5.06099 5.90667 4.99677 5.85675 4.92922 5.80903C4.96635 5.80284 4.99855 5.79855 5.03661 5.79201C5.40875 5.72738 5.79665 5.65129 6.24219 5.64327C6.66655 5.63479 7.20693 5.64118 7.56575 5.83575C7.60743 5.86022 7.62566 5.88572 7.63944 5.9011C7.63944 5.9011 7.62754 5.88552 7.6408 5.8756C7.64671 5.88552 7.6393 5.9409 7.6393 5.97146Z"
    fill="#F5F5F5"/>
  <path
    d="M20.9093 5.86804C20.8974 5.7913 20.8707 5.7004 20.837 5.64189C20.7699 5.54082 20.6923 5.47006 20.6171 5.42601C20.0246 5.12935 19.5286 5.1875 19.0553 5.18545C18.5879 5.19858 18.1505 5.28647 17.7955 5.37119C17.6991 5.39234 17.6156 5.40813 17.5263 5.42642C17.5705 5.32699 17.7323 5.20257 17.9503 5.12715C18.4817 4.92931 19.0882 4.84985 19.6844 4.72324C19.835 4.6911 19.9876 4.65344 20.1439 4.605C20.228 4.57358 20.2988 4.54905 20.3979 4.49888C20.4615 4.45969 20.5241 4.41038 20.5776 4.3577C20.6346 4.3018 20.6303 4.28617 20.6596 4.24846C20.795 3.96758 20.6669 3.76759 20.5594 3.66315C20.4558 3.57052 20.3686 3.53434 20.2856 3.49709C20.1244 3.43547 19.9751 3.39684 19.831 3.36409C19.5534 3.30354 19.2804 3.24401 19.0132 3.18571C18.8863 3.15368 18.7635 3.11811 18.6558 3.07499C18.5607 3.04735 18.4263 2.9449 18.4463 2.97285C18.2007 2.94975 18.7826 2.6512 19.2022 2.48442C19.3137 2.43077 19.4245 2.37661 19.5381 2.30017C19.6495 2.2199 19.7643 2.15179 19.8881 1.92697C19.9125 1.88032 19.9114 1.86897 19.9242 1.83847L19.9383 1.79969C19.969 1.68018 19.9522 1.71242 19.9593 1.66061C19.9738 1.53522 19.9286 1.40119 19.8572 1.28955C19.7114 1.11776 19.5663 1.06861 19.4586 1.0357C19.0131 0.920635 18.6926 0.95211 18.4141 0.953285C17.886 0.980366 17.5842 0.995797 17.5842 0.995797L17.5638 0.996819C17.5632 0.99687 17.5626 0.99687 17.562 0.996922C17.3932 1.0077 17.2644 1.16554 17.2743 1.34948C17.2752 1.36747 17.283 1.38254 17.2864 1.39956C17.0472 1.4714 16.6688 1.54487 16.2944 1.44866C16.2374 1.43435 16.1848 1.4717 16.1716 1.53118C16.1585 1.59117 16.1927 1.6511 16.2473 1.66505C16.3944 1.70286 16.5403 1.71768 16.6794 1.71768C16.975 1.71768 17.2275 1.65212 17.3999 1.59454C17.4555 1.63955 17.523 1.66791 17.5976 1.66316C17.5976 1.66316 17.9025 1.64369 18.4363 1.60966C18.6862 1.59985 19.022 1.58549 19.2991 1.65647C19.322 1.66035 19.3343 1.66812 19.3495 1.67512C19.3516 1.64834 19.3048 1.72376 19.2315 1.76254C19.1604 1.81256 19.0679 1.86049 18.9716 1.90811C18.7747 2.00535 18.5494 2.08894 18.2997 2.23543C18.1791 2.313 18.03 2.39179 17.9062 2.62228C17.8483 2.72907 17.8208 2.90172 17.8513 3.02343L17.8603 3.07305L17.8654 3.09757L17.8681 3.10973C17.849 3.06635 17.8973 3.18301 17.8935 3.17248L17.9185 3.21785C17.9407 3.25239 17.9372 3.2667 17.9904 3.32699C18.0331 3.37738 18.0814 3.42561 18.1311 3.46771C18.1747 3.50041 18.2072 3.51584 18.2465 3.54006C18.3238 3.58973 18.3939 3.61272 18.4672 3.64404C18.6115 3.69948 18.7521 3.73714 18.8925 3.77097C19.1635 3.82656 19.4404 3.88333 19.722 3.94112C19.84 3.966 19.9505 3.99737 20.0527 4.03166C19.9218 4.08306 19.7387 4.13487 19.5808 4.16803C19.0064 4.30017 18.3972 4.38008 17.7777 4.61727C17.6226 4.6816 17.4638 4.7585 17.308 4.88853C17.1613 5.00968 17.0071 5.25131 17.0269 5.51676C16.9743 5.52478 16.914 5.53648 16.8654 5.54236C16.3398 5.61818 16.119 5.51732 16.1332 5.51441C16.0646 5.47026 15.9761 5.49499 15.9356 5.56985C15.8951 5.6446 15.9178 5.74107 15.9864 5.78522C15.9864 5.78522 16.0765 5.8519 16.2374 5.89032C16.3974 5.92977 16.6225 5.94785 16.8968 5.9243C16.9723 5.91868 17.0607 5.90636 17.1438 5.89681C17.2012 5.98704 17.2681 6.08658 17.3304 6.13481C17.4752 6.2672 17.6285 6.35187 17.7813 6.42601C18.3965 6.68537 19.0113 6.73984 19.6107 6.71414C19.9117 6.68951 20.2078 6.65124 20.5119 6.50332C20.6537 6.43122 20.8484 6.31769 20.9085 5.98929C20.9085 5.94724 20.9151 5.92808 20.9093 5.86804ZM20.4668 5.97146C20.459 5.92292 20.4345 6.03303 20.3197 6.06338C20.122 6.15806 19.8522 6.20139 19.587 6.21662C19.0521 6.23578 18.468 6.16772 17.9672 5.94632C17.8885 5.90667 17.8243 5.85675 17.7568 5.80903C17.7939 5.80284 17.8261 5.79855 17.8642 5.79201C18.2363 5.72738 18.6242 5.65129 19.0697 5.64327C19.4941 5.63479 20.0345 5.64118 20.3933 5.83575C20.435 5.86022 20.4532 5.88572 20.467 5.9011C20.467 5.9011 20.4551 5.88552 20.4683 5.8756C20.4742 5.88552 20.4669 5.9409 20.4668 5.97146Z"
    fill="#F5F5F5"/>
  <path
    d="M8.08171 15.3401C8.06985 15.2633 8.04313 15.1724 8.00938 15.1139C7.9423 15.0129 7.86468 14.9421 7.78949 14.8981C7.19704 14.6014 6.70105 14.6595 6.22775 14.6575C5.76027 14.6706 5.32293 14.7585 4.9679 14.8432C4.87152 14.8644 4.78804 14.8802 4.69874 14.8985C4.7429 14.799 4.90475 14.6746 5.12272 14.5992C5.6541 14.4014 6.26066 14.3219 6.85682 14.1953C7.00738 14.1631 7.16 14.1255 7.31629 14.077C7.40043 14.0456 7.47125 14.0211 7.57035 13.9709C7.63391 13.9317 7.69649 13.8824 7.75002 13.8297C7.80702 13.7738 7.80266 13.7582 7.832 13.7205C7.96738 13.4396 7.83922 13.2396 7.73179 13.1352C7.62824 13.0426 7.541 13.0064 7.45799 12.9691C7.29683 12.9075 7.14754 12.8689 7.00344 12.8361C6.7258 12.7756 6.45285 12.7161 6.18561 12.6578C6.05868 12.6257 5.93591 12.5902 5.82819 12.547C5.73308 12.5194 5.59869 12.4169 5.61866 12.4449C5.37308 12.4218 5.95499 12.1232 6.37457 11.9565C6.48608 11.9028 6.59694 11.8486 6.71052 11.7722C6.82194 11.6919 6.93674 11.6238 7.06054 11.399C7.08486 11.3524 7.08383 11.341 7.09658 11.3105L7.11074 11.2717C7.14144 11.1522 7.12457 11.1845 7.13169 11.1327C7.14618 11.0073 7.10104 10.8732 7.0296 10.7616C6.88377 10.5898 6.73874 10.5407 6.63102 10.5077C6.18552 10.3927 5.86499 10.4242 5.5865 10.4253C5.05841 10.4524 4.75658 10.4678 4.75658 10.4678L4.73619 10.4689C4.73558 10.4689 4.73502 10.4689 4.73436 10.469C4.56557 10.4797 4.4368 10.6376 4.44669 10.8215C4.44763 10.8395 4.45536 10.8546 4.45879 10.8716C4.21963 10.9434 3.84121 11.0169 3.46682 10.9207C3.40982 10.9064 3.35718 10.9437 3.344 11.0032C3.33088 11.0632 3.36515 11.1231 3.41971 11.1371C3.5668 11.1749 3.71272 11.1897 3.85185 11.1897C4.14739 11.1897 4.39986 11.1242 4.57227 11.0666C4.62786 11.1116 4.69546 11.14 4.76999 11.1352C4.76999 11.1352 5.07496 11.1157 5.60868 11.0817C5.85857 11.0719 6.19438 11.0575 6.4715 11.1285C6.49443 11.1324 6.50671 11.1402 6.5219 11.1472C6.52405 11.1204 6.47718 11.1958 6.40391 11.2346C6.3328 11.2846 6.24027 11.3325 6.14399 11.3802C5.94711 11.4774 5.72183 11.561 5.47208 11.7074C5.35152 11.785 5.20246 11.8638 5.07861 12.0943C5.02072 12.2011 4.99325 12.3737 5.02368 12.4954L5.03268 12.545L5.03779 12.5696L5.0405 12.5817C5.02133 12.5383 5.06966 12.655 5.06586 12.6445L5.09085 12.6898C5.11302 12.7244 5.10955 12.7387 5.1628 12.799C5.2055 12.8494 5.25374 12.8976 5.30347 12.9397C5.34707 12.9724 5.3796 12.9878 5.41883 13.0121C5.49613 13.0617 5.5663 13.0847 5.63952 13.116C5.7839 13.1715 5.92447 13.2091 6.06486 13.243C6.33585 13.2986 6.61274 13.3553 6.89432 13.4131C7.01239 13.438 7.12288 13.4694 7.22502 13.5037C7.09419 13.5551 6.9111 13.6069 6.75318 13.64C6.17872 13.7722 5.56958 13.8521 4.95004 14.0893C4.79497 14.1536 4.63611 14.2305 4.48035 14.3605C4.33368 14.4817 4.1795 14.7233 4.19924 14.9888C4.14669 14.9968 4.08632 15.0085 4.03775 15.0144C3.51219 15.0902 3.29132 14.9893 3.30557 14.9864C3.23694 14.9423 3.14849 14.967 3.10799 15.0418C3.06744 15.1166 3.09018 15.2131 3.1588 15.2572C3.1588 15.2572 3.2489 15.3239 3.40972 15.3623C3.56975 15.4018 3.7949 15.4198 4.06911 15.3963C4.14463 15.3907 4.23308 15.3784 4.31615 15.3688C4.37357 15.459 4.44046 15.5586 4.50275 15.6068C4.64755 15.7392 4.80088 15.8239 4.95369 15.898C5.56883 16.1574 6.18364 16.2118 6.78308 16.1861C7.08402 16.1615 7.38018 16.1232 7.6843 15.9753C7.8261 15.9032 8.02072 15.7897 8.08082 15.4613C8.081 15.4193 8.08761 15.4002 8.08171 15.3401ZM7.6393 15.4436C7.63147 15.395 7.60696 15.5051 7.49211 15.5355C7.29444 15.6302 7.02463 15.6735 6.75941 15.6887C6.22457 15.7079 5.6405 15.6398 5.13969 15.4184C5.06099 15.3788 4.99677 15.3288 4.92922 15.2811C4.96635 15.2749 4.99855 15.2706 5.03661 15.2641C5.40875 15.1995 5.79665 15.1234 6.24219 15.1154C6.66655 15.1069 7.20693 15.1133 7.56575 15.3078C7.60743 15.3323 7.62566 15.3578 7.63944 15.3732C7.63944 15.3732 7.62754 15.3576 7.6408 15.3477C7.64671 15.3576 7.6393 15.413 7.6393 15.4436Z"
    fill="#F5F5F5"/>
  <path
    d="M20.9093 15.3401C20.8974 15.2633 20.8707 15.1724 20.837 15.1139C20.7699 15.0129 20.6923 14.9421 20.6171 14.8981C20.0246 14.6014 19.5286 14.6595 19.0553 14.6575C18.5879 14.6706 18.1505 14.7585 17.7955 14.8432C17.6991 14.8644 17.6156 14.8802 17.5263 14.8985C17.5705 14.799 17.7323 14.6746 17.9503 14.5992C18.4817 14.4014 19.0882 14.3219 19.6844 14.1953C19.835 14.1631 19.9876 14.1255 20.1439 14.077C20.228 14.0456 20.2988 14.0211 20.3979 13.9709C20.4615 13.9317 20.5241 13.8824 20.5776 13.8297C20.6346 13.7738 20.6303 13.7582 20.6596 13.7205C20.795 13.4396 20.6669 13.2396 20.5594 13.1352C20.4558 13.0426 20.3686 13.0064 20.2856 12.9691C20.1244 12.9075 19.9751 12.8689 19.831 12.8361C19.5534 12.7756 19.2804 12.7161 19.0132 12.6578C18.8863 12.6257 18.7635 12.5902 18.6558 12.547C18.5607 12.5194 18.4263 12.4169 18.4463 12.4449C18.2007 12.4218 18.7826 12.1232 19.2022 11.9565C19.3137 11.9028 19.4245 11.8486 19.5381 11.7722C19.6495 11.6919 19.7643 11.6238 19.8881 11.399C19.9125 11.3524 19.9114 11.341 19.9242 11.3105L19.9383 11.2717C19.969 11.1522 19.9522 11.1845 19.9593 11.1327C19.9738 11.0073 19.9286 10.8732 19.8572 10.7616C19.7114 10.5898 19.5663 10.5407 19.4586 10.5077C19.0131 10.3927 18.6926 10.4242 18.4141 10.4253C17.886 10.4524 17.5842 10.4678 17.5842 10.4678L17.5638 10.4689C17.5632 10.4689 17.5626 10.4689 17.562 10.469C17.3932 10.4797 17.2644 10.6376 17.2743 10.8215C17.2752 10.8395 17.283 10.8546 17.2864 10.8716C17.0472 10.9434 16.6688 11.0169 16.2944 10.9207C16.2374 10.9064 16.1848 10.9437 16.1716 11.0032C16.1585 11.0632 16.1927 11.1231 16.2473 11.1371C16.3944 11.1749 16.5403 11.1897 16.6794 11.1897C16.975 11.1897 17.2275 11.1242 17.3999 11.0666C17.4555 11.1116 17.523 11.14 17.5976 11.1352C17.5976 11.1352 17.9025 11.1157 18.4363 11.0817C18.6862 11.0719 19.022 11.0575 19.2991 11.1285C19.322 11.1324 19.3343 11.1402 19.3495 11.1472C19.3516 11.1204 19.3048 11.1958 19.2315 11.2346C19.1604 11.2846 19.0679 11.3325 18.9716 11.3802C18.7747 11.4774 18.5494 11.561 18.2997 11.7074C18.1791 11.785 18.03 11.8638 17.9062 12.0943C17.8483 12.2011 17.8208 12.3737 17.8513 12.4954L17.8603 12.545L17.8654 12.5696L17.8681 12.5817C17.849 12.5383 17.8973 12.655 17.8935 12.6445L17.9185 12.6898C17.9407 12.7244 17.9372 12.7387 17.9904 12.799C18.0331 12.8494 18.0814 12.8976 18.1311 12.9397C18.1747 12.9724 18.2072 12.9878 18.2465 13.0121C18.3238 13.0617 18.3939 13.0847 18.4672 13.116C18.6115 13.1715 18.7521 13.2091 18.8925 13.243C19.1635 13.2986 19.4404 13.3553 19.722 13.4131C19.84 13.438 19.9505 13.4694 20.0527 13.5037C19.9218 13.5551 19.7387 13.6069 19.5808 13.64C19.0064 13.7722 18.3972 13.8521 17.7777 14.0893C17.6226 14.1536 17.4638 14.2305 17.308 14.3605C17.1613 14.4817 17.0071 14.7233 17.0269 14.9888C16.9743 14.9968 16.914 15.0085 16.8654 15.0144C16.3398 15.0902 16.119 14.9893 16.1332 14.9864C16.0646 14.9423 15.9761 14.967 15.9356 15.0418C15.8951 15.1166 15.9178 15.2131 15.9864 15.2572C15.9864 15.2572 16.0765 15.3239 16.2374 15.3623C16.3974 15.4018 16.6225 15.4198 16.8968 15.3963C16.9723 15.3907 17.0607 15.3784 17.1438 15.3688C17.2012 15.459 17.2681 15.5586 17.3304 15.6068C17.4752 15.7392 17.6285 15.8239 17.7813 15.898C18.3965 16.1574 19.0113 16.2118 19.6107 16.1861C19.9117 16.1615 20.2078 16.1232 20.5119 15.9753C20.6537 15.9032 20.8484 15.7897 20.9085 15.4613C20.9085 15.4193 20.9151 15.4002 20.9093 15.3401ZM20.4668 15.4436C20.459 15.395 20.4345 15.5051 20.3197 15.5355C20.122 15.6302 19.8522 15.6735 19.587 15.6887C19.0521 15.7079 18.468 15.6398 17.9672 15.4184C17.8885 15.3788 17.8243 15.3288 17.7568 15.2811C17.7939 15.2749 17.8261 15.2706 17.8642 15.2641C18.2363 15.1995 18.6242 15.1234 19.0697 15.1154C19.4941 15.1069 20.0345 15.1133 20.3933 15.3078C20.435 15.3323 20.4532 15.3578 20.467 15.3732C20.467 15.3732 20.4551 15.3576 20.4683 15.3477C20.4742 15.3576 20.4669 15.413 20.4668 15.4436Z"
    fill="#F5F5F5"/>
</svg>
