<svg width="24" height="18" viewBox="0 0 24 18" fill="none" xmlns="http://www.w3.org/2000/svg">
  <rect width="24" height="17.1429" rx="2" fill="white"/>
  <mask id="mask0" mask-type="alpha" maskUnits="userSpaceOnUse" x="0" y="0" width="24" height="18">
    <rect width="24" height="17.1429" rx="2" fill="white"/>
  </mask>
  <g mask="url(#mask0)">
    <rect width="24" height="17.1429" fill="#108B4D"/>
    <path fill-rule="evenodd" clip-rule="evenodd"
          d="M16.9831 6.62857C17.0248 6.89209 17.0464 7.16226 17.0464 7.43748C17.0464 10.2778 14.7439 12.5803 11.9035 12.5803C9.06322 12.5803 6.76068 10.2778 6.76068 7.43748C6.76068 7.16226 6.7823 6.89209 6.82393 6.62857C7.21195 9.08459 9.33844 10.9625 11.9035 10.9625C14.4686 10.9625 16.5951 9.08459 16.9831 6.62857V6.62857ZM11.9999 7.34066L10.5873 8.3477L11.1085 6.693L9.71422 5.66068L11.449 5.64506L11.9999 4.00002L12.5509 5.64506L14.2857 5.66068L12.8914 6.693L13.4126 8.3477L11.9999 7.34066V7.34066Z"
          fill="#FFC941"/>
  </g>
</svg>
