<svg width="24" height="18" viewBox="0 0 24 18" fill="none" xmlns="http://www.w3.org/2000/svg">
  <rect x="0.25" y="0.25" width="23.5" height="16.6429" rx="1.75" fill="white" stroke="#F5F5F5" stroke-width="0.5"/>
  <mask id="mask0" mask-type="alpha" maskUnits="userSpaceOnUse" x="0" y="0" width="24" height="18">
    <rect x="0.25" y="0.25" width="23.5" height="16.6429" rx="1.75" fill="white" stroke="white" stroke-width="0.5"/>
  </mask>
  <g mask="url(#mask0)">
    <path fill-rule="evenodd" clip-rule="evenodd" d="M12.5714 17.1429H24V0H12.5714V17.1429Z" fill="#DE233C"/>
    <mask id="path-4-outside-1" maskUnits="userSpaceOnUse" x="1.28568" y="1.28573" width="6" height="6" fill="black">
      <rect fill="white" x="1.28568" y="1.28573" width="6" height="6"/>
      <path fill-rule="evenodd" clip-rule="evenodd"
            d="M4.57143 2.28573H3.42857V3.42857H2.28568V4.57143H3.42857V5.7143H4.57143V4.57143H5.71425V3.42857H4.57143V2.28573Z"/>
    </mask>
    <path fill-rule="evenodd" clip-rule="evenodd"
          d="M4.57143 2.28573H3.42857V3.42857H2.28568V4.57143H3.42857V5.7143H4.57143V4.57143H5.71425V3.42857H4.57143V2.28573Z"
          fill="#CCCCCD"/>
    <path
      d="M3.42857 2.28573V1.61906H2.7619V2.28573H3.42857ZM4.57143 2.28573H5.23809V1.61906H4.57143V2.28573ZM3.42857 3.42857V4.09523H4.09524V3.42857H3.42857ZM2.28568 3.42857V2.7619H1.61901V3.42857H2.28568ZM2.28568 4.57143H1.61901V5.23809H2.28568V4.57143ZM3.42857 4.57143H4.09524V3.90476H3.42857V4.57143ZM3.42857 5.7143H2.7619V6.38097H3.42857V5.7143ZM4.57143 5.7143V6.38097H5.23809V5.7143H4.57143ZM4.57143 4.57143V3.90476H3.90476V4.57143H4.57143ZM5.71425 4.57143V5.23809H6.38092V4.57143H5.71425ZM5.71425 3.42857H6.38092V2.7619H5.71425V3.42857ZM4.57143 3.42857H3.90476V4.09523H4.57143V3.42857ZM3.42857 2.9524H4.57143V1.61906H3.42857V2.9524ZM4.09524 3.42857V2.28573H2.7619V3.42857H4.09524ZM2.28568 4.09523H3.42857V2.7619H2.28568V4.09523ZM2.95235 4.57143V3.42857H1.61901V4.57143H2.95235ZM3.42857 3.90476H2.28568V5.23809H3.42857V3.90476ZM4.09524 5.7143V4.57143H2.7619V5.7143H4.09524ZM4.57143 5.04763H3.42857V6.38097H4.57143V5.04763ZM3.90476 4.57143V5.7143H5.23809V4.57143H3.90476ZM5.71425 3.90476H4.57143V5.23809H5.71425V3.90476ZM5.04758 3.42857V4.57143H6.38092V3.42857H5.04758ZM4.57143 4.09523H5.71425V2.7619H4.57143V4.09523ZM3.90476 2.28573V3.42857H5.23809V2.28573H3.90476Z"
      fill="#7B716A" fill-opacity="0.66" mask="url(#path-4-outside-1)"/>
    <path fill-rule="evenodd" clip-rule="evenodd"
          d="M4 4.57143C4.31559 4.57143 4.57143 4.31559 4.57143 4C4.57143 3.68441 4.31559 3.42857 4 3.42857C3.68441 3.42857 3.42857 3.68441 3.42857 4C3.42857 4.31559 3.68441 4.57143 4 4.57143Z"
          fill="#7B716A"/>
  </g>
</svg>
