<svg width="24" height="18" viewBox="0 0 24 18" fill="none" xmlns="http://www.w3.org/2000/svg">
  <rect x="0.25" y="0.25" width="23.5" height="16.6429" rx="1.75" fill="white" stroke="#F5F5F5" stroke-width="0.5"/>
  <mask id="mask0" mask-type="alpha" maskUnits="userSpaceOnUse" x="0" y="0" width="24" height="18">
    <rect x="0.25" y="0.25" width="23.5" height="16.6429" rx="1.75" fill="white" stroke="white" stroke-width="0.5"/>
  </mask>
  <g mask="url(#mask0)">
    <rect x="16" width="8" height="17.1429" fill="#E3283E"/>
    <path fill-rule="evenodd" clip-rule="evenodd" d="M0 17.1429H8V0H0V17.1429Z" fill="#128A60"/>
    <path
      d="M10.381 8C10.381 7.63181 10.0825 7.33334 9.71432 7.33334C9.34614 7.33334 9.04766 7.63181 9.04766 8H10.381ZM10.52 10.555C10.8384 10.7398 11.2464 10.6315 11.4312 10.313C11.616 9.99453 11.5076 9.58657 11.1891 9.40178L10.52 10.555ZM12.8707 9.36533C12.5605 9.56371 12.4699 9.97597 12.6683 10.2862C12.8667 10.5963 13.2789 10.687 13.5891 10.4886L12.8707 9.36533ZM14.9524 7.99998C14.9524 7.63179 14.6539 7.33332 14.2858 7.33332C13.9176 7.33332 13.6191 7.63179 13.6191 7.99998H14.9524ZM9.04766 8C9.04766 9.09224 9.64112 10.0451 10.52 10.555L11.1891 9.40178C10.7045 9.12057 10.381 8.59768 10.381 8H9.04766ZM13.5891 10.4886C14.4075 9.96515 14.9524 9.04642 14.9524 7.99998H13.6191C13.6191 8.57274 13.3222 9.07659 12.8707 9.36533L13.5891 10.4886Z"
      fill="#8C9157"/>
    <path fill-rule="evenodd" clip-rule="evenodd"
          d="M12 9.14287C12.6311 9.14287 13.1428 8.37536 13.1428 7.42859C13.1428 6.48181 12.6311 5.7143 12 5.7143C11.3688 5.7143 10.8571 6.48181 10.8571 7.42859C10.8571 8.37536 11.3688 9.14287 12 9.14287Z"
          fill="#C59262"/>
  </g>
</svg>
