<svg width="24" height="18" viewBox="0 0 24 18" fill="none" xmlns="http://www.w3.org/2000/svg">
  <rect width="24" height="17.1429" rx="2" fill="white"/>
  <mask id="mask0" mask-type="alpha" maskUnits="userSpaceOnUse" x="0" y="0" width="24" height="18">
    <rect width="24" height="17.1429" rx="2" fill="white"/>
  </mask>
  <g mask="url(#mask0)">
    <path fill-rule="evenodd" clip-rule="evenodd"
          d="M24 0H11.4286V1.14286H24V0ZM24 2.28573H11.4286V3.42859H24V2.28573ZM11.4286 4.57141H24V5.71427H11.4286V4.57141ZM24 6.85714H11.4286V8H24V6.85714ZM0 9.14287H24V10.2857H0V9.14287ZM24 11.4286H0V12.5714H24V11.4286ZM0 13.7143H24V14.8571H0V13.7143ZM24 16H0V17.1429H24V16Z"
          fill="#E1244A"/>
    <rect width="13.7143" height="9.14286" fill="#0C3F8E"/>
    <path fill-rule="evenodd" clip-rule="evenodd"
          d="M5.71425 7.99998C6.52429 7.99998 7.26872 7.71906 7.85543 7.24933C7.54467 7.36523 7.2083 7.42859 6.85714 7.42859C5.27918 7.42859 4 6.1494 4 4.57144C4 2.99349 5.27918 1.7143 6.85714 1.7143C7.20836 1.7143 7.54479 1.77768 7.8556 1.89361C7.26886 1.42381 6.52436 1.14284 5.71425 1.14284C3.8207 1.14284 2.28568 2.67786 2.28568 4.57141C2.28568 6.46496 3.8207 7.99998 5.71425 7.99998ZM8.15115 6.63077L9.14289 5.50855L10.1346 6.63077L9.87558 5.15571L11.3713 5.08003L10.0565 4.36287L10.9299 3.14629L9.5495 3.72707L9.14289 2.28569L8.73628 3.72707L7.35584 3.14629L8.22924 4.36287L6.91448 5.08003L8.4102 5.15571L8.15115 6.63077Z"
          fill="#FFD34F"/>
  </g>
</svg>
