<svg width="24" height="18" viewBox="0 0 24 18" fill="none" xmlns="http://www.w3.org/2000/svg">
  <rect width="24" height="17.1429" rx="2" fill="white"/>
  <mask id="mask0" mask-type="alpha" maskUnits="userSpaceOnUse" x="0" y="0" width="24" height="18">
    <rect width="24" height="17.1429" rx="2" fill="white"/>
  </mask>
  <g mask="url(#mask0)">
    <path fill-rule="evenodd" clip-rule="evenodd" d="M0 11.4286L24 0H0V11.4286Z" fill="#0C4799"/>
    <path fill-rule="evenodd" clip-rule="evenodd"
          d="M4.00001 5.14286L3.1253 6.11172L3.19189 4.80812L1.88828 4.8747L2.85715 4L1.88828 3.12529L3.19189 3.19188L3.1253 1.88827L4.00001 2.85714L4.87471 1.88827L4.80813 3.19188L6.11173 3.12529L5.14287 4L6.11173 4.8747L4.80813 4.80812L4.87471 6.11172L4.00001 5.14286Z"
          fill="#FFD243"/>
    <path fill-rule="evenodd" clip-rule="evenodd" d="M0 17.1429H24V5.7143L0 17.1429Z" fill="#1BAC55"/>
    <path fill-rule="evenodd" clip-rule="evenodd"
          d="M2.642 19.4286L25.8606 4.92003L21.3579 -2.28573L-1.86066 12.2228L2.642 19.4286V19.4286Z" fill="white"/>
    <path fill-rule="evenodd" clip-rule="evenodd"
          d="M-0.539303 19.7759L27.5674 2.21288L24.5393 -2.63311L-3.56741 14.9299L-0.539303 19.7759V19.7759Z"
          fill="#E52347"/>
  </g>
</svg>
