<svg width="24" height="18" viewBox="0 0 24 18" fill="none" xmlns="http://www.w3.org/2000/svg">
  <mask id="mask0" mask-type="alpha" maskUnits="userSpaceOnUse" x="0" y="0" width="24" height="18">
    <path
      d="M22.2025 17.14H1.79742C0.804703 17.14 0 16.2628 0 15.1807V1.95927C0 0.877214 0.804703 0 1.79742 0H22.2025C23.1952 0 24 0.877163 24 1.95927V15.1807C24 16.2628 23.1952 17.14 22.2025 17.14Z"
      fill="white"/>
  </mask>
  <g mask="url(#mask0)">
    <path d="M18.5048 0H5.87647V17H18.5048V0Z" fill="white"/>
    <path
      d="M12.0811 3C12.0615 3.21891 12.0419 3.43782 12.0211 3.65557C11.9485 3.66605 11.8759 3.67769 11.8021 3.68817C11.8021 3.68817 11.9543 3.77434 11.9808 3.86167C11.9854 3.87564 11.9831 3.88728 11.9773 3.89544C11.975 3.89776 11.9727 3.90126 11.9693 3.90359C11.9255 3.93735 11.7952 3.92105 11.7952 3.92105C11.7952 3.92105 11.967 4.06893 11.9808 4.1225C11.9808 4.12366 11.9808 4.12483 11.9808 4.12599C11.9808 4.12715 11.9808 4.12832 11.9808 4.12948C11.9808 4.13065 11.9796 4.13181 11.9796 4.13298C11.9785 4.13531 11.9762 4.1388 11.9739 4.14113C11.9335 4.17955 11.7422 4.18887 11.7422 4.18887C11.7422 4.18887 11.9543 4.34257 11.967 4.42874C11.9785 4.50792 11.9681 4.55333 11.967 4.56148C11.952 4.54867 11.6108 4.25757 11.3907 4.34257C11.3791 4.34839 11.3734 4.35422 11.3699 4.35887C11.3688 4.3612 11.3688 4.36469 11.3699 4.36702C11.3849 4.41476 11.6972 4.46483 11.9139 4.6558C11.9082 4.70354 11.295 4.50326 11.2731 4.62902C11.2915 4.66395 11.9335 4.75827 11.9808 4.84327C11.7445 4.85142 11.257 4.78971 11.2731 4.86889C11.2235 4.95971 11.7341 4.90848 11.9474 4.983C12.0096 5.05519 12.0038 5.11574 11.8943 5.12273C11.688 5.02259 11.2258 4.94923 11.2247 5.07615H11.2258V5.07732C11.2258 5.07732 11.2281 5.07848 11.2293 5.07965C11.2812 5.10643 11.7111 5.09362 11.8736 5.20191C11.6442 5.25547 10.8662 5.09478 10.8616 5.1728C10.8835 5.2089 11.0068 5.36842 11.2189 5.3626C11.431 5.35561 11.9209 5.44993 11.9543 5.5163C11.9543 5.51863 11.9543 5.52096 11.9543 5.52212C11.9393 5.5687 11.3088 5.38007 11.0656 5.49651C10.8143 5.61644 11.7872 5.54308 11.9462 5.69096C12.1053 5.83768 11.6281 5.67699 11.6281 5.67699C11.6281 5.67699 10.9665 5.58384 10.8674 5.63041C10.7682 5.67699 10.6553 5.78412 10.6553 5.78412C10.6553 5.78412 10.721 5.91803 10.7878 5.89124C10.7971 5.88659 10.804 5.88659 10.8086 5.88775C10.8086 5.88775 10.8086 5.88775 10.8097 5.88891C10.8097 5.89008 10.8097 5.89124 10.8109 5.89241C10.812 5.9122 10.7648 5.97042 10.7648 5.97042C10.7648 5.97042 11.6926 6.19749 11.8978 6.39893C12.103 6.59921 10.7187 6.08454 10.7187 6.08454C10.7187 6.08454 10.1631 6.2918 10.7521 6.30578C10.6864 6.40242 10.7798 6.46181 10.7855 6.46646C10.7855 6.46646 11.7653 6.67373 11.8655 6.83442C11.9647 6.99511 11.1959 6.68072 11.0241 6.59339C10.8581 6.50955 10.396 6.63763 10.3694 6.67722V6.67839V6.67955V6.68072C10.3694 6.68072 10.3706 6.68188 10.3706 6.68305C10.3706 6.68305 10.3706 6.68305 10.3706 6.68421C10.4006 6.71681 10.6057 6.76223 10.6126 6.81928C10.6126 6.82278 10.6126 6.82627 10.6103 6.8286C10.585 6.87983 10.3383 6.90079 10.3279 6.9497C10.3279 6.9497 10.3268 6.95086 10.3268 6.95203C10.3268 7.00559 11.5659 7.26642 11.8967 7.54704C12.2274 7.82767 10.9238 7.21169 10.9238 7.21169C10.9238 7.21169 10.9965 7.31183 10.9238 7.33861C10.8512 7.36539 10.5919 6.96367 10.1689 7.21169C10.0917 7.31416 10.5389 7.3945 10.653 7.40615C10.6138 7.50629 10.5804 7.54006 10.7394 7.6402C10.7567 7.65068 10.7659 7.65766 10.7694 7.66116H10.7706C10.7706 7.66116 10.7706 7.66116 10.7706 7.66232H10.7694C10.7452 7.65883 10.4593 7.50978 10.4294 7.50396H10.4282C10.4282 7.51793 10.4617 7.67862 10.4617 7.67862C10.3153 7.55752 10.1378 7.52143 9.97179 7.64485C9.97179 7.65184 9.97064 7.76712 10.1366 7.83815C10.0433 8.0326 10.2438 7.97205 10.5608 8.15254C10.0882 8.02795 10.0513 8.25966 10.3879 8.31323C10.7256 8.36679 11.6523 8.39939 11.8713 8.68817C11.9174 8.74872 11.9301 8.77899 11.9209 8.78831C11.884 8.82208 11.5486 8.57639 11.5002 8.56707C11.5002 8.56707 11.5002 8.56707 11.5002 8.56823C11.5002 8.56823 11.499 8.57056 11.4978 8.57173C11.4863 8.59851 11.4748 8.71379 11.4748 8.71379C11.333 8.63111 11.2039 8.55775 11.0345 8.52166C11.0207 8.54844 11.0241 8.58687 11.0114 8.61365C10.8581 8.50186 10.7244 8.42385 10.502 8.41337C10.4939 8.44946 10.4847 8.4844 10.4755 8.52049C10.4755 8.52049 10.2899 8.28645 9.92569 8.52049C9.72168 8.66721 10.6933 8.57406 10.8524 8.74756C11.0114 8.92105 10.8858 8.94783 10.8858 8.94783C10.7533 8.89893 10.6207 8.85002 10.4893 8.80112C10.4893 8.80112 10.019 8.71379 9.8865 8.82091C9.75395 8.92804 11.8194 9.18887 11.8794 9.47648C11.9197 9.63251 11.3941 9.31346 10.9388 9.17606C10.9215 9.22729 10.9031 9.27736 10.8858 9.32976C10.8754 9.31928 10.6991 9.14578 10.502 9.11551C10.502 9.11551 10.502 9.11551 10.502 9.11667V9.11784C10.502 9.13996 10.5423 9.29599 10.5423 9.29599C10.5423 9.29599 10.0329 9.05496 9.7747 9.18188C9.51651 9.3088 10.6749 9.37517 10.7809 9.49627C10.7925 9.51025 10.7971 9.51956 10.7959 9.52538C10.7959 9.52655 10.7948 9.52771 10.7948 9.52888C10.7694 9.5673 10.4236 9.42641 10.3902 9.49627C10.351 9.57662 9.78737 9.34956 9.79429 9.45668C9.80121 9.56381 9.87382 9.6232 9.87382 9.6232C9.87382 9.6232 11.046 9.73731 11.0852 9.87704C11.1256 10.0168 10.4363 9.79669 10.4363 9.79669C10.4363 9.79669 10.3694 9.89683 10.4225 9.94341C10.4236 9.94574 10.4259 9.9469 10.4271 9.94807V9.94923H10.4259C10.4029 9.94108 10.0294 9.69422 10.0652 9.88402C9.91877 9.82464 9.54187 9.64299 9.59489 9.78389C9.64676 9.92245 10.6299 10.1192 10.6587 10.1251C10.6334 10.1274 10.2173 10.1623 10.2357 10.2729C9.67903 9.92944 9.68018 10.1355 9.69286 10.1518C9.66174 10.1472 8.97594 9.97485 9.52112 10.2729C9.81273 10.4325 9.88419 10.4953 9.8865 10.5186C9.8865 10.5186 9.8865 10.5198 9.8865 10.521C9.8865 10.5221 9.8865 10.5221 9.8865 10.5233C9.8865 10.5233 9.8865 10.5233 9.88535 10.5245V10.5256V10.5268C9.88535 10.5268 9.88535 10.5268 9.88419 10.5268V10.5279C9.87267 10.5349 9.845 10.5326 9.83809 10.5326H9.83694C9.83694 10.5326 9.83694 10.5326 9.83694 10.5338C9.84501 10.5454 9.88765 10.663 9.88535 10.684C9.88535 10.684 9.88535 10.6851 9.88419 10.6851C9.88419 10.6851 9.88419 10.6851 9.88419 10.6863H9.88304C9.85999 10.6793 9.49807 10.4849 9.37474 10.4721C9.24911 10.4581 8.65205 10.6386 9.28829 10.9192C9.92338 11.201 10.3141 10.8528 10.6657 10.8924C11.0161 10.932 11.1832 10.9925 11.1498 11.1067C11.1163 11.2208 10.7913 10.734 10.4478 11.1544C10.0582 11.0764 9.79429 11.0321 9.99484 11.3209C9.3586 11.081 8.97017 11.3943 9.77124 11.5212C10.5585 11.5445 11.0426 11.3267 11.0426 11.3267C11.0426 11.3267 11.1751 11.5748 11.3676 11.4013C11.5497 11.2359 11.5647 11.4467 11.5716 11.4665V11.4676C11.5866 11.4641 11.756 11.3873 11.756 11.3873H11.8021V12.993C12.0165 12.9953 12.2298 12.9977 12.4441 13C12.4441 13 12.239 11.6015 12.3519 11.4152C12.4614 11.2336 12.564 11.2534 12.5709 11.2545C12.5709 11.2545 12.9882 11.3815 13.0343 11.3617H13.0366C13.0366 11.3617 13.0377 11.3617 13.0377 11.3605C13.0377 11.3605 13.04 11.3593 13.04 11.3582C13.0746 11.3267 13.04 11.2033 13.2521 11.2219C13.3178 11.1986 13.2925 11.0927 13.3351 11.0671C13.3363 11.0671 13.3374 11.0659 13.3386 11.0659C13.3397 11.0659 13.342 11.0647 13.3443 11.0636C13.3466 11.0636 13.3501 11.0624 13.3524 11.0624C13.4192 11.0554 14.6963 11.4234 14.9741 11.0752C14.9015 10.8819 14.6491 11.0612 14.5834 11.0682C14.5234 11.0682 14.2722 10.9471 14.127 11.0682C13.9944 10.9681 13.3927 10.9006 13.3927 10.9006C13.3132 10.8202 14.83 10.9401 14.9153 10.8808C15.094 10.7003 14.5845 10.7201 14.505 10.7806C14.3632 10.6933 14.1857 10.7003 14.0785 10.7597C14.0267 10.6351 13.5345 10.6886 13.2602 10.6525C13.1726 10.6001 13.1876 10.571 13.2464 10.5384C13.8181 10.5629 14.3863 10.6386 14.9614 10.6129C15.117 10.408 14.7655 10.3312 14.5511 10.5047C14.4243 10.2951 14.1673 10.4977 13.9944 10.4779C13.8227 10.4581 13.9022 10.2438 14.12 10.2776C14.339 10.3102 14.7286 10.2636 14.8024 10.1635C14.875 10.0633 14.7586 9.96204 14.399 10.0564C14.2779 9.93526 14.0094 10.0564 13.8826 10.0959C13.7155 10.0016 13.3259 10.082 13.1933 10.1157C13.0642 10.0342 13.8757 9.90149 13.8757 9.90149C14.1892 9.89567 14.3655 9.84094 14.4647 9.81416C14.9384 9.55799 14.4578 9.53004 14.2099 9.71751C14.0555 9.59525 13.9091 9.72799 13.7696 9.77457C13.6394 9.81882 13.3973 9.85026 13.3685 9.83745H13.3674V9.83628V9.83512C13.387 9.80484 13.7443 9.58244 13.7443 9.58244C13.7443 9.58244 14.2076 9.54867 14.2998 9.53586C14.3563 9.52771 14.5546 9.4334 14.5546 9.3973C14.5534 9.37517 14.4704 9.3775 14.2203 9.44155C13.9956 9.46134 13.863 9.44853 13.7777 9.45552C13.6394 9.44038 13.5806 9.42641 13.5691 9.4136C13.5691 9.4136 13.5679 9.41244 13.5679 9.41127C13.5668 9.40894 13.5679 9.40661 13.5691 9.40312C13.5691 9.40312 13.5702 9.40196 13.5714 9.40079C13.6048 9.37401 13.8238 9.35422 13.8238 9.35422C13.8238 9.35422 14.4923 9.2925 14.5373 9.2564V9.25524H14.5384C14.5523 8.97927 13.9713 9.10619 13.9552 9.10852C13.9564 8.91407 13.4308 9.10619 13.4066 9.10852H13.4054C13.3824 9.09455 13.3731 9.08058 13.3708 9.06777C13.3708 9.06311 13.3708 9.05729 13.372 9.05263C13.3847 9.01304 13.4642 8.9816 13.4642 8.9816C13.6094 8.94551 13.8273 8.93503 13.8849 8.88845C13.8849 8.88845 14.2952 8.88496 14.3448 8.77434C14.2445 8.49255 13.4746 8.82441 13.372 8.87448C13.3512 8.87448 13.3386 8.86865 13.3328 8.8605C13.2994 8.81043 13.4654 8.64625 13.4711 8.64043C13.4965 8.63228 14.1108 8.60084 14.4036 8.19912C14.4243 7.95109 14.0532 8.33884 14.0532 8.33884C14.0255 8.0163 13.6498 8.3598 13.4308 8.38542C13.2118 8.4122 13.206 8.28528 13.3582 8.26549C13.5103 8.24569 13.682 8.2585 13.7685 8.02445C13.8538 7.79041 14.1131 8.03843 14.1592 7.95109C14.2042 7.86609 14.0751 7.79506 14.067 7.79041C14.067 7.79041 14.2583 7.58896 13.9483 7.59595C13.6405 7.60293 13.2417 7.55752 13.2337 7.55636C13.2533 7.54937 13.5668 7.42944 13.8619 7.43526C14.1661 7.44225 14.0002 7.21518 13.7097 7.21518C13.4192 7.21518 13.2671 7.11504 13.2671 7.11504C13.4319 7.05333 13.5979 6.99045 13.7627 6.92757C13.7524 6.881 13.7408 6.83442 13.7305 6.78784C13.7305 6.78784 14.0209 6.5538 13.6106 6.60736C13.2003 6.66092 13.1541 6.66791 13.1541 6.66791C13.1541 6.66791 12.3462 6.7925 12.3266 6.79483H12.3254C12.3174 6.79367 12.2378 6.76921 12.2228 6.73777C12.2228 6.73777 12.2217 6.73545 12.2217 6.73428C12.2217 6.73312 12.2217 6.73079 12.2217 6.72962C12.2217 6.72846 12.2217 6.72613 12.2217 6.7238C12.2251 6.7075 12.2493 6.69003 12.3127 6.67373C12.5248 6.62017 13.2729 6.46646 13.3858 6.50605C13.4008 6.51188 13.4112 6.51071 13.4169 6.50489C13.4596 6.46646 13.319 6.22077 12.9743 6.18468C12.5767 6.14509 12.3323 6.28482 12.3323 6.28482C12.3323 6.28482 12.0742 6.19166 12.3116 6.11015C12.5502 6.02981 12.9282 6.13694 12.9282 6.13694C12.9282 6.13694 13.3512 6.01001 13.0009 5.95645C12.6493 5.90289 12.5387 6.00419 12.3784 6.01001C12.3139 5.92967 12.9294 5.90987 12.9674 5.8435C12.9029 5.7224 12.5214 5.8435 12.2989 5.8435C12.2044 5.80275 12.1975 5.73638 12.3058 5.69562C12.534 5.68747 12.7473 5.70028 12.9743 5.69096C12.9674 5.5687 12.9743 5.42315 12.9674 5.30088C12.6793 5.24732 12.3404 5.33931 12.179 5.33232C12.2228 5.19842 12.8452 5.16348 12.9144 5.12739C13.0573 4.9469 12.3174 5.12506 12.2989 5.12739C12.1675 5.10759 12.1756 5.02375 12.2586 4.97368C12.4499 4.9504 12.881 5.00163 12.8487 4.87005C12.8245 4.74662 12.5502 4.81299 12.4384 4.83978C12.3254 4.86656 12.1606 4.84676 12.1606 4.84676C12.088 4.74895 12.8095 4.78854 12.8026 4.71286C12.7934 4.62669 12.3462 4.68607 12.194 4.69306C12.0765 4.61155 12.745 4.55682 12.7761 4.54634V4.54518C12.8015 4.32278 12.3127 4.54518 12.2205 4.54518C12.2055 4.54518 12.1929 4.54169 12.1837 4.5347C12.1813 4.53354 12.179 4.53121 12.1779 4.52888C12.1468 4.49162 12.1744 4.40545 12.1744 4.40545C12.1744 4.40545 12.3485 4.32627 12.3588 4.30764V4.30647H12.3577C12.3577 4.30647 12.3565 4.30531 12.3554 4.30415C12.3346 4.28784 12.2148 4.24825 12.1998 4.24709H12.1986C12.1986 4.24709 12.1986 4.24709 12.1986 4.24592C12.1894 4.22729 12.2009 4.09339 12.2009 4.09339C12.2009 4.09339 12.3381 3.98859 12.3473 3.94783V3.94667V3.94551V3.94434V3.94318V3.94201C12.3473 3.94201 12.3473 3.94201 12.3473 3.94085C12.3473 3.94085 12.3473 3.94085 12.3462 3.94085V3.93968C12.3462 3.93968 12.345 3.93852 12.3439 3.93852H12.3427C12.3081 3.92222 12.1641 3.97229 12.1641 3.97229V3.83838C12.1641 3.83838 12.2908 3.82441 12.3035 3.76386C12.3047 3.76036 12.3035 3.75687 12.3035 3.75338C12.3035 3.75221 12.3035 3.74988 12.3035 3.74872C12.3024 3.74639 12.3012 3.7429 12.3001 3.74057L12.2989 3.7394C12.2701 3.70098 12.1525 3.69632 12.1525 3.69632C12.1249 3.4681 12.103 3.23405 12.0811 3ZM11.9635 5.29273V5.38472C11.9635 5.38472 11.8148 5.37774 11.7883 5.35328H11.7872C11.7872 5.35328 11.7872 5.35328 11.7872 5.35212H11.786V5.35096C11.786 5.35096 11.786 5.35095 11.786 5.34979V5.34863C11.786 5.34863 11.786 5.34863 11.786 5.34746C11.786 5.34746 11.786 5.3463 11.786 5.34513C11.786 5.34513 11.7872 5.34397 11.7872 5.3428C11.7872 5.3428 11.7872 5.3428 11.7872 5.34164L11.7883 5.34047C11.7895 5.33931 11.7906 5.33815 11.7918 5.33698C11.8413 5.30205 11.9404 5.30321 11.96 5.29739L11.9635 5.29273ZM12.1733 5.415C12.179 5.415 12.4695 5.41733 12.4949 5.45575V5.45692C12.4949 5.45692 12.4949 5.45808 12.496 5.45925V5.46041C12.496 5.46041 12.496 5.46157 12.496 5.46274C12.496 5.46274 12.496 5.4639 12.4949 5.46507C12.473 5.51281 12.179 5.54192 12.179 5.54192L12.1733 5.415ZM12.1571 5.59781C12.1756 5.60247 12.2955 5.60596 12.3104 5.62692C12.3104 5.62692 12.3104 5.62692 12.3104 5.62809V5.62925C12.3104 5.62925 12.3104 5.62925 12.3104 5.63041V5.63158C12.3104 5.63158 12.3104 5.63158 12.3104 5.63274C12.2862 5.66302 12.1744 5.67117 12.1687 5.67117C12.1687 5.67117 12.1675 5.67117 12.1675 5.67C12.1618 5.66418 12.1571 5.59781 12.1571 5.59781ZM11.2708 5.84001C11.3665 5.83535 11.5543 5.85748 11.9082 5.95645C11.9082 5.96344 11.9151 6.05659 11.9128 6.07173C11.9128 6.07173 11.9128 6.07173 11.9128 6.07289C11.9128 6.07289 11.9128 6.07289 11.9116 6.07289C11.9059 6.07056 11.2685 5.88542 11.2108 5.88775C11.2097 5.88775 11.2074 5.88775 11.2062 5.88775C11.2051 5.88775 11.2028 5.88775 11.2016 5.88775C11.2005 5.88775 11.1982 5.88659 11.1959 5.88542C11.1959 5.88542 11.1947 5.88542 11.1936 5.88426C11.1913 5.88309 11.1901 5.88076 11.1878 5.8796C11.1878 5.8796 11.1878 5.8796 11.1878 5.87844V5.87727C11.1878 5.87727 11.1878 5.87727 11.1878 5.87611V5.87494C11.1878 5.87494 11.1878 5.87494 11.1878 5.87378V5.87261V5.87145C11.1878 5.87028 11.1878 5.86912 11.1878 5.86912C11.1878 5.86679 11.1901 5.86446 11.1924 5.86213C11.1993 5.85282 11.2247 5.8435 11.2708 5.84001ZM11.6016 6.11481C11.703 6.11132 11.9462 6.1707 11.96 6.16721C11.96 6.18701 11.9704 6.27899 11.9589 6.29762V6.29879L11.9577 6.29995C11.9577 6.29995 11.9577 6.29995 11.9566 6.29995H11.9554H11.9543C11.9335 6.29413 11.5739 6.17885 11.5601 6.13228C11.5601 6.13111 11.5601 6.12995 11.5601 6.12995C11.5601 6.12762 11.5612 6.12646 11.5624 6.12413C11.5624 6.12413 11.5624 6.12413 11.5635 6.12296C11.5693 6.1183 11.5831 6.11481 11.6016 6.11481ZM12.602 6.36865C12.6989 6.36632 12.768 6.37448 12.7415 6.40475C12.6724 6.48626 12.194 6.55263 12.194 6.55263L12.186 6.40475C12.1952 6.40359 12.4384 6.37098 12.602 6.36865ZM11.2304 6.82976C11.3123 6.82511 11.5025 6.87052 11.9243 7.051L11.9266 7.15813C11.9266 7.15813 11.212 6.93922 11.1866 6.90312C11.1751 6.88449 11.1521 6.83442 11.2304 6.82976ZM12.632 6.98929C12.6539 6.98812 12.6701 6.99045 12.6747 6.99627H12.6758C12.6758 6.99627 12.6758 6.99744 12.6758 6.9986C12.6758 6.9986 12.677 6.99977 12.677 7.00093C12.677 7.00442 12.6747 7.00792 12.6701 7.01258C12.6032 7.08826 12.2459 7.16395 12.2459 7.16395V7.06614C12.2632 7.06497 12.526 6.99511 12.632 6.98929ZM11.0645 7.0021C11.1717 6.99627 11.4126 7.05333 11.9531 7.31183C11.9531 7.31416 11.9577 7.40382 11.9566 7.41197H11.9554C11.9232 7.40149 10.9826 7.0673 10.9826 7.0673C10.9815 7.06497 10.9676 7.00675 11.0645 7.0021ZM12.8545 7.42012C12.8821 7.41896 12.8994 7.42129 12.904 7.42711C12.904 7.42827 12.9052 7.42944 12.9052 7.4306C12.9052 7.43293 12.9029 7.43759 12.8971 7.44108C12.8118 7.5191 12.2678 7.61341 12.2493 7.61458L12.2482 7.61341V7.61225V7.61109V7.60992C12.2447 7.59245 12.2563 7.52841 12.2563 7.52026C12.2563 7.52026 12.2563 7.52026 12.2574 7.52026C12.2908 7.5191 12.7081 7.42594 12.8545 7.42012ZM11.2558 7.66232C11.4172 7.65417 11.9082 7.88123 11.9324 7.88822C11.9301 7.89753 11.9301 7.98021 11.9278 7.99301V7.99418H11.9266C11.9139 7.98719 11.242 7.7054 11.212 7.72753C11.1936 7.68444 11.2132 7.66581 11.2558 7.66232ZM12.7023 7.7217C12.7358 7.72054 12.7611 7.7217 12.7692 7.72636C12.7703 7.72753 12.7703 7.72753 12.7715 7.72869V7.72986C12.7715 7.72986 12.7703 7.73102 12.7692 7.73218C12.7185 7.7776 12.2563 7.86959 12.2563 7.86959C12.2563 7.86959 12.254 7.78342 12.254 7.7741C12.2655 7.7741 12.564 7.72869 12.7023 7.7217ZM12.6643 8.02212C12.6966 8.02096 12.7196 8.02329 12.7254 8.02911V8.03027V8.03144C12.7254 8.03144 12.7242 8.0326 12.7242 8.03377C12.7242 8.03377 12.7231 8.03493 12.7219 8.0361C12.6724 8.08034 12.2793 8.16302 12.2793 8.16302C12.2793 8.16302 12.2678 8.06754 12.2678 8.06521C12.2793 8.06754 12.5421 8.02678 12.6643 8.02212ZM11.0068 8.04658C11.1014 8.04075 11.3365 8.07918 11.9162 8.29227L11.9358 8.40638C11.9358 8.40638 10.9711 8.09199 10.9434 8.08267C10.9434 8.08267 10.9434 8.08267 10.9434 8.08151C10.9434 8.08151 10.9434 8.08035 10.9434 8.07802C10.9434 8.07452 10.9446 8.06987 10.9481 8.06637C10.955 8.05822 10.9711 8.04891 11.0068 8.04658ZM12.2782 8.29576C12.2897 8.29809 12.4522 8.30391 12.4822 8.32953H12.4833C12.4833 8.32953 12.4833 8.32953 12.4833 8.33069V8.33186C12.4833 8.33186 12.4833 8.33186 12.4845 8.33302C12.4845 8.33302 12.4845 8.33419 12.4845 8.33535V8.33652V8.33768V8.33884C12.4591 8.37844 12.2897 8.39241 12.2897 8.39241C12.2897 8.39241 12.2828 8.31905 12.2782 8.29576ZM12.6701 8.51933C12.7081 8.51817 12.7346 8.52282 12.7404 8.53447C12.7438 8.54262 12.7369 8.5531 12.7196 8.56823C12.5813 8.68351 12.2793 8.70564 12.2793 8.70564V8.57988C12.2978 8.57522 12.5456 8.52166 12.6701 8.51933ZM13.055 8.63577C13.1023 8.63461 13.123 8.64276 13.1299 8.65324C13.1299 8.65324 13.1311 8.65557 13.1311 8.65673C13.1311 8.65906 13.1322 8.66139 13.1322 8.66372C13.1311 8.67885 13.115 8.69516 13.1034 8.7068C13.0562 8.75105 12.3047 8.99208 12.3047 8.99208C12.3047 8.99208 12.2989 8.83256 12.3012 8.81858C12.7404 8.68468 12.9559 8.64043 13.055 8.63577ZM12.5686 9.08873C12.6159 9.0864 12.6539 9.08989 12.6654 9.10154C12.6654 9.10154 12.6666 9.1027 12.6677 9.10387C12.6677 9.10387 12.6677 9.10503 12.6677 9.10619C12.6677 9.10619 12.6677 9.10736 12.6677 9.10852C12.6677 9.10969 12.6677 9.11085 12.6677 9.11202C12.6677 9.11435 12.6666 9.11667 12.6643 9.119C12.5997 9.18305 12.2874 9.19236 12.2874 9.19236V9.11318C12.3462 9.11085 12.4776 9.09106 12.5686 9.08873ZM12.8821 9.21798C12.8971 9.21798 12.9052 9.22031 12.9075 9.22497V9.22613C12.9063 9.22962 12.9017 9.23545 12.8925 9.24127C12.768 9.33093 12.2989 9.42292 12.2989 9.42292C12.2989 9.42292 12.3047 9.36004 12.307 9.3449C12.3208 9.34606 12.7692 9.22031 12.8821 9.21798ZM13.1449 9.31812C13.2003 9.31812 13.2429 9.32627 13.266 9.34374V9.3449C13.2636 9.36237 13.2279 9.44388 13.1046 9.47881C12.9513 9.46484 12.2966 9.66046 12.2839 9.66395V9.66279C12.2839 9.64998 12.292 9.58361 12.292 9.58361C12.5191 9.44737 12.9282 9.31928 13.1449 9.31812ZM11.4702 9.70121C11.4713 9.70121 11.4736 9.70121 11.4748 9.70121C11.7572 9.73149 11.8632 9.83978 11.8932 9.8817C11.8367 9.98184 11.3907 9.7571 11.4368 9.70936C11.4425 9.7047 11.454 9.70121 11.4702 9.70121ZM13.0908 9.71984C13.1023 9.71984 13.1127 9.72101 13.1196 9.72683C13.123 9.72916 13.1253 9.73149 13.1276 9.73498C13.1299 9.73964 13.1322 9.74546 13.1322 9.75245C13.1023 9.79902 12.9501 9.77806 12.9409 9.7769C12.949 9.77341 13.0377 9.72217 13.0908 9.71984ZM12.4856 10.0307C12.5064 10.0296 12.5237 10.0319 12.5329 10.0377C12.534 10.0389 12.5352 10.0401 12.5363 10.0412L12.5375 10.0424L12.5387 10.0447C12.5387 10.0447 12.5387 10.0459 12.5387 10.047C12.5398 10.0529 12.5398 10.0599 12.5352 10.0692C12.4902 10.153 12.2966 10.1227 12.2966 10.1227V10.0633C12.3104 10.0633 12.4176 10.0331 12.4856 10.0307ZM11.3411 10.252C11.401 10.2497 11.4529 10.2892 11.5082 10.3207C11.6304 10.2962 11.8805 10.3405 11.8805 10.3405V10.4523C11.8575 10.4569 11.5635 10.4441 11.499 10.4022C11.446 10.4022 11.2938 10.3218 11.2823 10.2799V10.2788C11.2823 10.2788 11.2823 10.2776 11.2823 10.2764V10.2741V10.2729V10.2718C11.3019 10.259 11.3227 10.2531 11.3411 10.252ZM12.6251 10.3067C12.6712 10.3044 12.6896 10.3184 12.6539 10.3696C12.5548 10.5128 12.2966 10.4534 12.2966 10.4534L12.2862 10.3649C12.3761 10.3696 12.5421 10.3114 12.6251 10.3067ZM11.6604 10.5966C11.7653 10.592 11.8782 10.6339 11.8782 10.6339C11.8805 10.6397 11.9335 10.7457 11.8863 10.7806C11.8851 10.7818 11.8828 10.783 11.8805 10.7841C11.8217 10.8156 11.544 10.7597 11.5278 10.6467C11.5612 10.6129 11.6085 10.599 11.6604 10.5966ZM10.5838 10.6514C10.6795 10.6456 10.7855 10.7049 10.7982 10.7108C10.7982 10.7143 10.7948 10.819 10.7948 10.819C10.7948 10.819 10.6057 10.7655 10.5458 10.6584C10.5585 10.6549 10.5711 10.6525 10.5838 10.6514ZM12.4015 10.6665C12.5075 10.6665 12.6366 10.691 12.6551 10.7282C12.6585 10.7352 12.6574 10.7434 12.6505 10.7515C12.5974 10.8156 12.2989 10.7573 12.2989 10.7573V10.6793C12.3254 10.6712 12.3623 10.6665 12.4015 10.6665Z"
      fill="#337B40"/>
    <path d="M6.87647 0H-4V17H6.87647V0Z" fill="#337B40"/>
    <path d="M27 0H16.5048V17H27V0Z" fill="#337B40"/>
    <path d="M18.5048 0H5.87647V0.0147224H18.5048V0Z" fill="#231F20"/>
    <path d="M18.5048 16.9853H5.87647V17H18.5048V16.9853Z" fill="#231F20"/>
  </g>
</svg>
