<svg width="24" height="18" viewBox="0 0 24 18" fill="none" xmlns="http://www.w3.org/2000/svg">
  <rect x="0.25" y="0.25" width="23.5" height="16.6429" rx="1.75" fill="white" stroke="#F5F5F5" stroke-width="0.5"/>
  <path fill-rule="evenodd" clip-rule="evenodd"
        d="M0 2C0 0.895429 0.895431 -7.88659e-10 2 2.82181e-10L2.08386 3.63484e-10C2.21548 4.91081e-10 2.34415 0.0389587 2.45366 0.111966L12.3359 6.70012C13.4335 7.43189 12.9155 9.14286 11.5963 9.14286H6.85714L13.3294 14.8061C14.2559 15.6168 13.6826 17.1429 12.4514 17.1429H2C0.89543 17.1429 0 16.2474 0 15.1429V2Z"
        fill="white"/>
  <mask id="mask0" mask-type="alpha" maskUnits="userSpaceOnUse" x="0" y="0" width="14" height="18">
    <path fill-rule="evenodd" clip-rule="evenodd"
          d="M0 2C0 0.895429 0.895431 -7.88659e-10 2 2.82181e-10L2.08386 3.63484e-10C2.21548 4.91081e-10 2.34415 0.0389587 2.45366 0.111966L12.3359 6.70012C13.4335 7.43189 12.9155 9.14286 11.5963 9.14286H6.85714L13.3294 14.8061C14.2559 15.6168 13.6826 17.1429 12.4514 17.1429H2C0.89543 17.1429 0 16.2474 0 15.1429V2Z"
          fill="white"/>
  </mask>
  <g mask="url(#mask0)">
    <path
      d="M12.4514 16.4762H0.666667V0.666667H2.08386L11.9661 7.25482C12.5149 7.62071 12.2559 8.47619 11.5963 8.47619H6.85714C6.5794 8.47619 6.33076 8.64838 6.23307 8.90837C6.13539 9.16836 6.20912 9.46168 6.41814 9.64458L12.8904 15.3078C13.3537 15.7132 13.067 16.4762 12.4514 16.4762Z"
      fill="#EE1B44" stroke="#0543A8" stroke-width="1.33333" stroke-linejoin="round"/>
    <path fill-rule="evenodd" clip-rule="evenodd"
          d="M5.87241 6.68636C6.20162 6.59614 6.50513 6.47275 6.77358 6.32243C6.50728 7.28957 5.62143 7.99996 4.56966 7.99996C3.51786 7.99996 2.63199 7.28952 2.36572 6.32234C2.63495 6.47311 2.93945 6.5968 3.26979 6.6871L3.71437 6.28573L2.98772 5.6297L3.96542 5.67964L3.91548 4.70194L4.57151 5.42859L5.22754 4.70194L5.1776 5.67964L6.1553 5.6297L5.42865 6.28573L5.87241 6.68636ZM3.6967 14.6831L4.57141 13.7142L5.44611 14.6831L5.37953 13.3795L6.68313 13.4461L5.71426 12.5714L6.68313 11.6967L5.37953 11.7632L5.44611 10.4596L4.57141 11.4285L3.6967 10.4596L3.76328 11.7632L2.45968 11.6967L3.42855 12.5714L2.45968 13.4461L3.76328 13.3795L3.6967 14.6831Z"
          fill="white"/>
  </g>
</svg>
