<svg width="24" height="18" viewBox="0 0 24 18" fill="none" xmlns="http://www.w3.org/2000/svg">
  <path
    d="M22.2025 17.14H1.79742C0.804703 17.14 0 16.2628 0 15.1807V1.95927C0 0.877214 0.804703 0 1.79742 0H22.2025C23.1952 0 24 0.877162 24 1.95927V15.1807C24 16.2628 23.1952 17.14 22.2025 17.14Z"
    fill="#41479B"/>
  <path d="M24 7.66772H0V9.47192H24V7.66772Z" fill="#FFE15A"/>
  <path
    d="M5.58618 11.2764L5.82717 12.3258L6.51721 11.5483L6.24454 12.5885L7.19878 12.2912L6.48553 13.0435L7.44825 13.3061L6.48553 13.5688L7.19878 14.321L6.24454 14.0237L6.51721 15.0639L5.82717 14.2864L5.58618 15.3358L5.3452 14.2864L4.65515 15.0639L4.92787 14.0237L3.97359 14.321L4.68689 13.5688L3.72412 13.3061L4.68689 13.0435L3.97359 12.2912L4.92787 12.5885L4.65515 11.5483L5.3452 12.3258L5.58618 11.2764Z"
    fill="#F5F5F5"/>
</svg>
