<svg width="24" height="18" viewBox="0 0 24 18" fill="none" xmlns="http://www.w3.org/2000/svg">
  <path
    d="M22.2026 17.1409H1.79742C0.804703 17.1409 0 16.2638 0 15.1817V1.96025C0 0.87819 0.804703 0.000976562 1.79742 0.000976562H22.2026C23.1952 0.000976562 24 0.878139 24 1.96025V15.1817C24 16.2638 23.1953 17.1409 22.2026 17.1409Z"
    fill="#FFE15A"/>
  <path
    d="M0.413813 8.57H11.5862C11.8148 8.57 12 8.36802 12 8.11893V0.451074C12 0.202033 11.8149 0.000102192 11.5864 0H1.79742C0.804703 5.10959e-05 0 0.877214 0 1.95932V8.11903C0 8.36807 0.185297 8.57 0.413813 8.57Z"
    fill="#41479B"/>
  <path
    d="M0.413813 8.57093H1.13259L4.96556 5.83352V8.57093H7.03453V5.83352L10.8675 8.57093H11.5862C11.8148 8.57093 12 8.36894 12 8.11985V7.76208L8.71158 5.41356H12V3.15834H8.71148L12 0.809824V0.452051C12 0.202959 11.8148 0.00107875 11.5863 0.000976562H10.8674L7.03448 2.73839V0.000976562H4.96552V2.73839L1.25831 0.0908032C0.825469 0.238981 0.463594 0.561038 0.240609 0.981608L3.28856 3.15834H0V5.41361H3.28852L0 7.76213V8.1199C0 8.36899 0.185297 8.57093 0.413813 8.57093Z"
    fill="#F5F5F5"/>
  <path d="M12 3.60942H6.62067V0.000976562H5.37933V3.60942H0V4.96254H5.37933V8.57093H6.62067V4.96254H12V3.60942Z"
        fill="#FF4B55"/>
  <path
    d="M0.385742 0.74741L3.79177 3.15745H4.5518L0.684805 0.421265C0.573758 0.516814 0.473398 0.626312 0.385742 0.74741Z"
    fill="#FF4B55"/>
  <path
    d="M7.79452 3.15834L11.937 0.227178C11.865 0.0943799 11.738 0.000976562 11.5862 0.000976562H11.4967L7.03448 3.15834H7.79452Z"
    fill="#FF4B55"/>
  <path
    d="M4.19418 5.41271L0.0595703 8.33825C0.130867 8.47427 0.259867 8.57002 0.413898 8.57002H0.491945L4.95426 5.41266H4.19418V5.41271Z"
    fill="#FF4B55"/>
  <path d="M11.9934 8.15442L8.11843 5.41272H7.3584L11.7587 8.52625C11.8906 8.45957 11.981 8.31982 11.9934 8.15442Z"
        fill="#FF4B55"/>
  <path
    d="M6.00018 5.63835C6.68578 5.63835 7.24157 5.03251 7.24157 4.28518C7.24157 3.53784 6.68578 2.93201 6.00018 2.93201C5.31458 2.93201 4.75879 3.53784 4.75879 4.28518C4.75879 5.03251 5.31458 5.63835 6.00018 5.63835Z"
    fill="#41479B"/>
  <path
    d="M6.08366 3.18823L6.29109 3.86607L6.94659 3.87158C7.03148 3.8723 7.06663 3.99038 6.99838 4.04531L6.47104 4.46976L6.66876 5.15102C6.69435 5.23922 6.60224 5.31218 6.5332 5.25838L5.99985 4.84297L5.46656 5.25843C5.39751 5.31223 5.3054 5.23927 5.33099 5.15108L5.52871 4.46981L5.00137 4.04536C4.93307 3.99038 4.96827 3.87235 5.05316 3.87164L5.70866 3.86612L5.91609 3.18828C5.9429 3.1005 6.0568 3.1005 6.08366 3.18823Z"
    fill="#FFE15A"/>
  <path
    d="M2.64845 3.74043L2.75997 4.10489L3.11242 4.10786C3.15803 4.10827 3.17697 4.17173 3.14027 4.20126L2.85677 4.4295L2.96308 4.79576C2.97686 4.84318 2.92727 4.88242 2.89019 4.8535L2.6035 4.63011L2.31681 4.8535C2.27969 4.88242 2.23019 4.84318 2.24392 4.79576L2.35024 4.4295L2.06674 4.20126C2.03003 4.17173 2.04892 4.10821 2.09458 4.10786L2.44703 4.10489L2.55855 3.74043C2.57284 3.69321 2.63402 3.69321 2.64845 3.74043Z"
    fill="#FFE15A"/>
  <path
    d="M9.47267 3.74043L9.58419 4.10489L9.93664 4.10786C9.98225 4.10827 10.0012 4.17173 9.96449 4.20126L9.68099 4.4295L9.7873 4.79576C9.80108 4.84318 9.75149 4.88242 9.71441 4.8535L9.42772 4.63011L9.14103 4.8535C9.10391 4.88242 9.05441 4.84318 9.06814 4.79576L9.17445 4.4295L8.89095 4.20126C8.85425 4.17173 8.87314 4.10821 8.9188 4.10786L9.27125 4.10489L9.38277 3.74043C9.39702 3.69321 9.45824 3.69321 9.47267 3.74043Z"
    fill="#FFE15A"/>
  <path
    d="M6.05042 1.00246L6.16193 1.36692L6.51439 1.36989C6.56 1.3703 6.57893 1.43376 6.54223 1.46329L6.25868 1.69148L6.365 2.05774C6.37878 2.10516 6.32918 2.1444 6.29211 2.11548L6.00542 1.89209L5.71873 2.11548C5.68161 2.1444 5.63211 2.10516 5.64584 2.05774L5.75215 1.69148L5.46865 1.46324C5.43195 1.43371 5.45084 1.37019 5.4965 1.36984L5.84895 1.36687L5.96046 1.00241C5.97471 0.955244 6.03598 0.955244 6.05042 1.00246Z"
    fill="#FFE15A"/>
  <path
    d="M6.05036 6.54258L6.16187 6.90705L6.51433 6.91001C6.55994 6.91042 6.57887 6.97388 6.54217 7.00341L6.25862 7.23161L6.36493 7.59786C6.37872 7.64528 6.32912 7.68452 6.29204 7.6556L6.00536 7.43221L5.71867 7.6556C5.68154 7.68452 5.63204 7.64528 5.64578 7.59786L5.75209 7.23161L5.46859 7.00336C5.43189 6.97383 5.45078 6.91032 5.49643 6.90996L5.84889 6.907L5.9604 6.54253C5.97465 6.49542 6.03592 6.49542 6.05036 6.54258Z"
    fill="#FFE15A"/>
</svg>
