<svg width="24" height="18" viewBox="0 0 24 18" fill="none" xmlns="http://www.w3.org/2000/svg">
  <rect width="24" height="17.1429" rx="2" fill="white"/>
  <mask id="mask0" mask-type="alpha" maskUnits="userSpaceOnUse" x="0" y="0" width="24" height="18">
    <rect width="24" height="17.1429" rx="2" fill="white"/>
  </mask>
  <g mask="url(#mask0)">
    <rect width="24" height="17.1429" fill="#0A17A7"/>
    <path
      d="M0 -0.333333H-0.901086L-0.21693 0.253086L3.66667 3.58188V4.39989L-0.193746 7.15733L-0.333333 7.25703V7.42857V8V8.60141L0.176666 8.28267L4.66703 5.47619H5.60746L9.47126 8.23604C9.55984 8.29932 9.66599 8.33333 9.77485 8.33333C10.2598 8.33333 10.4829 7.73003 10.1148 7.41445L6.61905 4.41812V3.60011L10.3399 0.942378C10.5151 0.817237 10.619 0.61519 10.619 0.399889V0V-0.601416L10.109 -0.282666L5.61869 2.52381H4.67825L0.765175 -0.271244L0.67825 -0.333333H0.571429H0Z"
      fill="#FF2E3B" stroke="white" stroke-width="0.666667"/>
    <path fill-rule="evenodd" clip-rule="evenodd"
          d="M0 2.85714V5.14286H4V7.90476C4 8.27295 4.29848 8.57143 4.66667 8.57143H5.61905C5.98724 8.57143 6.28571 8.27295 6.28571 7.90476V5.14286H10.1905C10.5587 5.14286 10.8571 4.84438 10.8571 4.47619V3.52381C10.8571 3.15562 10.5587 2.85714 10.1905 2.85714H6.28571V0H4V2.85714H0Z"
          fill="white"/>
    <path fill-rule="evenodd" clip-rule="evenodd"
          d="M0 3.42857H4.57143V2.85714V0H5.71429V2.85714V3.42857H10.2857V4.57143H5.71429V5.14286V8H4.57143V5.14286V4.57143H0V3.42857Z"
          fill="#FF2E3B"/>
    <path fill-rule="evenodd" clip-rule="evenodd"
          d="M17.1428 14.8571L16.3347 15.0938L16.5714 14.2857L16.3347 13.4776L17.1428 13.7143L17.9509 13.4776L17.7143 14.2857L17.9509 15.0938L17.1428 14.8571Z"
          fill="#CA1931"/>
    <path fill-rule="evenodd" clip-rule="evenodd"
          d="M17.1428 4.00002L16.3347 4.23671L16.5714 3.42859L16.3347 2.62047L17.1428 2.85716L17.9509 2.62047L17.7143 3.42859L17.9509 4.23671L17.1428 4.00002Z"
          fill="#CA1931"/>
    <path fill-rule="evenodd" clip-rule="evenodd"
          d="M20.5714 7.42859L19.7633 7.66528L20 6.85716L19.7633 6.04904L20.5714 6.28573L21.3795 6.04904L21.1428 6.85716L21.3795 7.66528L20.5714 7.42859Z"
          fill="#CA1931"/>
    <path fill-rule="evenodd" clip-rule="evenodd"
          d="M13.7143 8.57143L12.9061 8.80812L13.1428 8L12.9061 7.19188L13.7143 7.42857L14.5224 7.19188L14.2857 8L14.5224 8.80812L13.7143 8.57143Z"
          fill="#CA1931"/>
  </g>
</svg>
