<svg width="24" height="18" viewBox="0 0 24 18" fill="none" xmlns="http://www.w3.org/2000/svg">
  <rect x="0.25" y="0.25" width="23.5" height="16.6429" rx="1.75" fill="white" stroke="#F5F5F5" stroke-width="0.5"/>
  <mask id="mask0" mask-type="alpha" maskUnits="userSpaceOnUse" x="0" y="0" width="24" height="18">
    <rect x="0.25" y="0.25" width="23.5" height="16.6429" rx="1.75" fill="white" stroke="white" stroke-width="0.5"/>
  </mask>
  <g mask="url(#mask0)">
    <path fill-rule="evenodd" clip-rule="evenodd" d="M0 4.57143H24V0H0V4.57143Z" fill="#D82332"/>
    <path fill-rule="evenodd" clip-rule="evenodd" d="M0 17.1429H24V12.5714H0V17.1429Z" fill="#D82332"/>
    <path fill-rule="evenodd" clip-rule="evenodd"
          d="M11.2007 9.2166L10.9569 9.44397C11.1773 9.50582 11.4831 9.43383 11.6048 9.2166H11.2007" fill="#064A89"/>
    <path fill-rule="evenodd" clip-rule="evenodd"
          d="M9.23354 9.37151C9.39853 9.53649 9.67182 9.51722 9.8368 9.4128C10.0019 9.30828 10.1232 9.30165 10.226 9.31261C10.2369 9.4057 10.2612 9.52506 10.3029 9.64303H9.32415C9.29984 9.58257 9.25241 9.44165 9.23354 9.37151"
          fill="#064A89"/>
    <path fill-rule="evenodd" clip-rule="evenodd"
          d="M9.41497 9.81243C9.60708 9.72165 9.80345 9.79363 9.88844 9.85907C10.0454 9.98008 10.3046 9.94727 10.4318 9.87861C10.4803 9.95778 10.5392 10.0357 10.6103 10.0951H9.56309C9.52055 10.0264 9.42858 9.85768 9.41497 9.81243"
          fill="#064A89"/>
    <path fill-rule="evenodd" clip-rule="evenodd"
          d="M13.9697 10.5642C14.0157 10.5175 14.0779 10.4405 14.1186 10.3856C14.0509 10.3773 13.9723 10.3284 13.8886 10.2866C13.7344 10.2095 13.587 10.2095 13.4557 10.3003C13.261 10.435 13.0174 10.468 12.8281 10.3333C12.6203 10.1855 12.4277 10.2178 12.2653 10.3114C12.103 10.4048 12.0002 10.4103 11.9028 10.4103C11.8054 10.4103 11.7026 10.4048 11.5403 10.3114C11.3779 10.2178 11.1853 10.1855 10.9775 10.3333C10.7881 10.468 10.5446 10.435 10.3499 10.3003C10.2186 10.2095 10.0712 10.2095 9.91694 10.2866C9.83322 10.3284 9.75468 10.3773 9.68701 10.3856C9.72765 10.4405 9.78987 10.5175 9.83586 10.5642H13.9697"
          fill="#064A89"/>
    <path fill-rule="evenodd" clip-rule="evenodd"
          d="M13.4629 11.0239C13.5061 10.9964 13.6252 10.9057 13.6847 10.859C13.6198 10.8728 13.4717 10.8245 13.3953 10.7847C13.1733 10.6692 13.0273 10.6803 12.8623 10.7682C12.6972 10.8563 12.4646 10.903 12.2942 10.8095C12.1237 10.7161 12.0019 10.6913 11.9127 10.6913C11.8234 10.6913 11.7016 10.7161 11.5312 10.8095C11.3607 10.903 11.1281 10.8563 10.963 10.7682C10.798 10.6803 10.652 10.6692 10.43 10.7847C10.3536 10.8245 10.2055 10.8728 10.1406 10.859C10.2001 10.9057 10.3192 10.9964 10.3625 11.0239H13.4629"
          fill="#064A89"/>
    <path fill-rule="evenodd" clip-rule="evenodd"
          d="M12.4871 10.1101C12.4411 10.0854 12.3874 10.0278 12.3383 9.95386C12.2598 9.83561 12.1354 9.76962 11.9487 9.76962C11.7621 9.76962 11.6376 9.83561 11.5592 9.95386C11.5101 10.0278 11.4563 10.0854 11.4104 10.1101H12.4871"
          fill="#064A89"/>
    <path fill-rule="evenodd" clip-rule="evenodd"
          d="M12.1803 9.68567C12.1614 9.65267 12.1208 9.54816 12.1073 9.49313C12.064 9.50696 11.9801 9.5124 11.9314 9.5124C11.8827 9.5124 11.7989 9.50696 11.7556 9.49313C11.742 9.54816 11.7015 9.65267 11.6825 9.68567H12.1803"
          fill="#064A89"/>
    <path fill-rule="evenodd" clip-rule="evenodd"
          d="M12.6308 9.2166L12.8746 9.44397C12.6542 9.50582 12.3485 9.43383 12.2267 9.2166H12.6308" fill="#064A89"/>
    <path fill-rule="evenodd" clip-rule="evenodd"
          d="M14.6566 9.37151C14.4917 9.53649 14.2184 9.51722 14.0534 9.4128C13.8883 9.30828 13.767 9.30165 13.6642 9.31261C13.6532 9.4057 13.629 9.52506 13.5873 9.64303H14.566C14.5903 9.58257 14.6377 9.44165 14.6566 9.37151"
          fill="#064A89"/>
    <path fill-rule="evenodd" clip-rule="evenodd"
          d="M14.5105 9.81243C14.3184 9.72165 14.122 9.79363 14.037 9.85907C13.8801 9.98008 13.6209 9.94727 13.4937 9.87861C13.4452 9.95778 13.3862 10.0357 13.3151 10.0951H14.3624C14.4049 10.0264 14.497 9.85768 14.5105 9.81243"
          fill="#064A89"/>
    <path fill-rule="evenodd" clip-rule="evenodd"
          d="M12.9933 11.2042C12.6652 11.3403 12.3062 11.4154 11.93 11.4154C11.5534 11.4154 11.1946 11.3404 10.8662 11.204C10.9365 11.1958 11.0297 11.1614 11.1048 11.1189C11.2266 11.0501 11.4483 11.0364 11.5539 11.1052C11.6594 11.1739 11.7866 11.2426 11.93 11.2426C12.0734 11.2426 12.2005 11.1739 12.306 11.1052C12.4115 11.0364 12.6334 11.0501 12.7552 11.1189C12.8302 11.1614 12.9229 11.196 12.9933 11.2042"
          fill="#064A89"/>
    <path fill-rule="evenodd" clip-rule="evenodd"
          d="M12.5358 5.76596C11.9434 5.64227 11.4104 5.7137 11.4104 6.28006C11.4104 6.83536 11.4104 7.66006 11.4104 7.83057C11.4104 8.00098 11.4138 8.02255 11.6133 8.06974C12.0461 8.17213 12.0867 8.18245 12.5574 8.29232V6.69794C12.1895 6.65665 12.0489 6.44688 12.0489 6.2031C12.0489 5.96669 12.2111 5.81268 12.5358 5.76596"
          fill="#514537"/>
    <path fill-rule="evenodd" clip-rule="evenodd"
          d="M11.0175 10.1387C10.6875 10.1387 10.3412 9.84732 10.3412 9.29202C10.3412 8.73663 10.3412 8.03838 10.3412 7.91192C10.3412 7.78686 10.355 7.76925 10.3263 7.74013C10.3094 7.72298 10.3452 7.69755 10.3695 7.67275C10.4061 7.63561 10.4311 7.60474 10.3818 7.55451C10.3324 7.50437 10.3534 7.49128 10.3845 7.45976C10.4156 7.42805 10.4278 7.39653 10.398 7.36621C10.3683 7.33598 10.3615 7.32639 10.3939 7.2934C10.4264 7.2604 10.4129 7.24667 10.3859 7.21911C10.3588 7.19165 10.346 7.17174 10.3804 7.13672C10.4143 7.10234 10.4169 7.09681 10.4562 7.09681C10.4954 7.09681 10.5806 7.09681 10.6185 7.09681C10.6564 7.09681 10.6571 7.10851 10.6252 7.14086C10.584 7.18271 10.5718 7.19921 10.6185 7.24667C10.6651 7.29404 10.6632 7.3099 10.6334 7.34013C10.5887 7.38547 10.5691 7.41644 10.6144 7.46252C10.6598 7.50851 10.6638 7.52916 10.6293 7.56418C10.5949 7.59921 10.5914 7.63017 10.6293 7.66861C10.6584 7.69819 10.6604 7.71543 10.6604 7.76759C10.6604 8.08243 10.6604 8.94013 10.6604 9.17653C10.6604 9.41294 10.8281 9.55589 11.1474 9.55589C11.4667 9.55589 11.5749 9.42391 11.6669 9.33598C11.6074 9.7593 11.4342 10.1387 11.0175 10.1387"
          fill="#514537"/>
    <path fill-rule="evenodd" clip-rule="evenodd"
          d="M11.9491 8.79C11.9937 8.80364 12.037 8.86963 12.037 8.94115H12.1249C12.1249 8.88069 12.0992 8.78724 12.0526 8.72945C12.0518 8.71433 12.0498 8.70134 12.0465 8.68825C12.0789 8.64696 12.1263 8.58097 12.1249 8.51774C12.124 8.47783 12.0776 8.47931 12.0721 8.51092C12.0677 8.53691 12.0506 8.57691 12.0181 8.59065C12.0181 8.53977 11.9896 8.47931 11.9491 8.47931C11.9085 8.47931 11.88 8.53977 11.88 8.59065C11.8476 8.57691 11.8304 8.53691 11.826 8.51092C11.8205 8.47931 11.774 8.47783 11.7732 8.51774C11.7718 8.58097 11.8192 8.64696 11.8516 8.68825C11.8483 8.70134 11.8463 8.71433 11.8456 8.72945C11.7989 8.78724 11.7732 8.88069 11.7732 8.94115H11.8612C11.8612 8.86963 11.9044 8.80364 11.9491 8.79"
          fill="#514537"/>
    <path fill-rule="evenodd" clip-rule="evenodd"
          d="M11.4956 8.79C11.5402 8.80364 11.5836 8.86963 11.5836 8.94115H11.6715C11.6715 8.88069 11.6458 8.78724 11.5991 8.72945C11.5984 8.71433 11.5964 8.70134 11.593 8.68825C11.6255 8.64696 11.6728 8.58097 11.6715 8.51774C11.6706 8.47783 11.6241 8.47931 11.6187 8.51092C11.6142 8.53691 11.597 8.57691 11.5646 8.59065C11.5646 8.53977 11.5362 8.47931 11.4956 8.47931C11.455 8.47931 11.4267 8.53977 11.4267 8.59065C11.3942 8.57691 11.3769 8.53691 11.3725 8.51092C11.3671 8.47931 11.3206 8.47783 11.3197 8.51774C11.3184 8.58097 11.3657 8.64696 11.3982 8.68825C11.3948 8.70134 11.3928 8.71433 11.3921 8.72945C11.3455 8.78724 11.3197 8.88069 11.3197 8.94115H11.4077C11.4077 8.86963 11.451 8.80364 11.4956 8.79"
          fill="#514537"/>
    <path fill-rule="evenodd" clip-rule="evenodd"
          d="M11.0421 8.79C11.0867 8.80364 11.13 8.86963 11.13 8.94115H11.218C11.218 8.88069 11.1922 8.78724 11.1456 8.72945C11.1449 8.71433 11.1429 8.70134 11.1395 8.68825C11.172 8.64696 11.2193 8.58097 11.218 8.51774C11.2171 8.47783 11.1706 8.47931 11.1652 8.51092C11.1608 8.53691 11.1435 8.57691 11.111 8.59065C11.111 8.53977 11.0827 8.47931 11.0421 8.47931C11.0015 8.47931 10.9731 8.53977 10.9731 8.59065C10.9406 8.57691 10.9235 8.53691 10.919 8.51092C10.9136 8.47931 10.8671 8.47783 10.8662 8.51774C10.8649 8.58097 10.9122 8.64696 10.9447 8.68825C10.9413 8.70134 10.9393 8.71433 10.9386 8.72945C10.8919 8.78724 10.8662 8.88069 10.8662 8.94115H10.9541C10.9541 8.86963 10.9975 8.80364 11.0421 8.79"
          fill="#514537"/>
    <path fill-rule="evenodd" clip-rule="evenodd"
          d="M12.4026 8.79C12.358 8.80364 12.3147 8.86963 12.3147 8.94115H12.2268C12.2268 8.88069 12.2524 8.78724 12.2991 8.72945C12.2998 8.71433 12.3019 8.70134 12.3053 8.68825C12.2728 8.64696 12.2254 8.58097 12.2268 8.51774C12.2277 8.47783 12.2741 8.47931 12.2796 8.51092C12.284 8.53691 12.3012 8.57691 12.3336 8.59065C12.3336 8.53977 12.3621 8.47931 12.4026 8.47931C12.4433 8.47931 12.4717 8.53977 12.4717 8.59065C12.504 8.57691 12.5213 8.53691 12.5257 8.51092C12.5312 8.47931 12.5776 8.47783 12.5785 8.51774C12.5799 8.58097 12.5325 8.64696 12.5001 8.68825C12.5034 8.70134 12.5055 8.71433 12.5061 8.72945C12.5528 8.78724 12.5785 8.88069 12.5785 8.94115H12.4905C12.4905 8.86963 12.4473 8.80364 12.4026 8.79"
          fill="#514537"/>
    <path fill-rule="evenodd" clip-rule="evenodd"
          d="M12.8561 8.79C12.8115 8.80364 12.7682 8.86963 12.7682 8.94115H12.6802C12.6802 8.88069 12.706 8.78724 12.7526 8.72945C12.7533 8.71433 12.7553 8.70134 12.7587 8.68825C12.7262 8.64696 12.6789 8.58097 12.6802 8.51774C12.6811 8.47783 12.7276 8.47931 12.733 8.51092C12.7375 8.53691 12.7546 8.57691 12.7871 8.59065C12.7871 8.53977 12.8156 8.47931 12.8561 8.47931C12.8967 8.47931 12.9251 8.53977 12.9251 8.59065C12.9576 8.57691 12.9748 8.53691 12.9792 8.51092C12.9846 8.47931 13.0311 8.47783 13.032 8.51774C13.0333 8.58097 12.986 8.64696 12.9535 8.68825C12.9569 8.70134 12.9589 8.71433 12.9596 8.72945C13.0063 8.78724 13.032 8.88069 13.032 8.94115H12.9441C12.9441 8.86963 12.9007 8.80364 12.8561 8.79"
          fill="#514537"/>
    <path fill-rule="evenodd" clip-rule="evenodd" d="M10.7755 9.03229H13.1563V9.14657H10.7755V9.03229Z" fill="#514537"/>
    <path fill-rule="evenodd" clip-rule="evenodd"
          d="M12.8761 10.1387C13.2061 10.1387 13.5525 9.84732 13.5525 9.29202C13.5525 8.73663 13.5525 8.03838 13.5525 7.91192C13.5525 7.78686 13.5386 7.76925 13.5673 7.74013C13.5842 7.72298 13.5484 7.69755 13.5241 7.67275C13.4875 7.63561 13.4625 7.60474 13.5118 7.55451C13.5613 7.50437 13.5402 7.49128 13.5092 7.45976C13.478 7.42805 13.4658 7.39653 13.4956 7.36621C13.5253 7.33598 13.5321 7.32639 13.4997 7.2934C13.4672 7.2604 13.4807 7.24667 13.5077 7.21911C13.5349 7.19165 13.5476 7.17174 13.5132 7.13672C13.4793 7.10234 13.4767 7.09681 13.4374 7.09681C13.3982 7.09681 13.313 7.09681 13.2751 7.09681C13.2373 7.09681 13.2365 7.10851 13.2684 7.14086C13.3096 7.18271 13.3218 7.19921 13.2751 7.24667C13.2285 7.29404 13.2305 7.3099 13.2602 7.34013C13.3049 7.38547 13.3244 7.41644 13.2792 7.46252C13.2338 7.50851 13.2297 7.52916 13.2643 7.56418C13.2988 7.59921 13.3022 7.63017 13.2643 7.66861C13.2352 7.69819 13.2332 7.71543 13.2332 7.76759C13.2332 8.08243 13.2332 8.94013 13.2332 9.17653C13.2332 9.41294 13.0654 9.55589 12.7462 9.55589C12.4269 9.55589 12.3188 9.42391 12.2267 9.33598C12.2862 9.7593 12.4594 10.1387 12.8761 10.1387"
          fill="#514537"/>
    <path fill-rule="evenodd" clip-rule="evenodd"
          d="M10.7755 8.2923C10.7755 8.2923 10.7756 8.21119 10.7756 8.11064L11.2515 8.29239L10.7755 8.2923"
          fill="#EEA339"/>
    <path fill-rule="evenodd" clip-rule="evenodd"
          d="M10.2078 8.37669L9.14282 8.23079C9.17375 7.9989 9.23226 7.77282 9.31643 7.55761L10.2078 7.91715V8.37669"
          fill="#EEA339"/>
    <path fill-rule="evenodd" clip-rule="evenodd"
          d="M12.4082 6.59653L12.5975 5.80649C12.819 5.86105 13.0343 5.94326 13.2384 6.05165L12.6279 7.23911L12.63 6.64289C12.5596 6.64326 12.4514 6.63229 12.4082 6.59653"
          fill="#EEA339"/>
    <path fill-rule="evenodd" clip-rule="evenodd"
          d="M10.2329 8.45404L9.14808 8.38713C9.13411 8.61828 9.14799 8.85155 9.18971 9.08169C9.18971 9.08169 10.2329 9.08833 10.2329 9.08169V8.45404"
          fill="#EEA339"/>
    <path fill-rule="evenodd" clip-rule="evenodd"
          d="M10.2221 7.71054C10.187 7.66381 10.2087 7.63893 10.2465 7.61413C10.2844 7.58943 10.279 7.57017 10.2601 7.5345C10.2412 7.49874 10.2222 7.46022 10.2574 7.42178C10.2926 7.38326 10.279 7.36676 10.252 7.33929C10.2249 7.31183 10.2222 7.2816 10.2465 7.25957C10.2709 7.23754 10.2655 7.22105 10.2493 7.19911C10.233 7.17708 10.2012 7.13247 10.2297 7.10363L9.78712 6.72814C9.64091 6.90584 9.51574 7.10197 9.41497 7.31229L10.2221 7.71054"
          fill="#EEA339"/>
    <path fill-rule="evenodd" clip-rule="evenodd"
          d="M11.2823 7.91526L10.7549 7.39553C10.8293 7.31996 10.8367 7.30761 10.784 7.25397C10.7265 7.19553 10.7244 7.18945 10.8414 7.07046C10.8813 7.03 10.859 7.00171 10.8022 7.00171C10.7455 7.00171 10.4843 7.00171 10.4546 7.00171C10.4248 7.00171 10.4014 7.00327 10.3797 7.02539L9.95916 6.61175C10.1196 6.44392 10.2988 6.29747 10.4924 6.17516L11.2823 7.46595V7.91526"
          fill="#EEA339"/>
    <path fill-rule="evenodd" clip-rule="evenodd"
          d="M10.7338 7.99429C10.7338 7.86517 10.7339 7.73733 10.7339 7.71918C10.7339 7.68065 10.7311 7.66554 10.7014 7.63531C10.6716 7.60507 10.6865 7.5906 10.7096 7.55761L11.2099 7.98111V8.22978L10.7338 7.99429"
          fill="#EEA339"/>
    <path fill-rule="evenodd" clip-rule="evenodd"
          d="M11.2024 7.23976C11.2024 6.99174 11.2024 6.76234 11.2024 6.63017C11.2024 6.23432 11.2243 6.03635 11.281 5.99653L11.2356 5.80649C11.0135 5.86723 10.7981 5.94944 10.5941 6.05782L11.2024 7.23976"
          fill="#EEA339"/>
    <path fill-rule="evenodd" clip-rule="evenodd"
          d="M13.1562 8.2923C13.1562 8.2923 13.1561 8.21119 13.1561 8.11064L12.6802 8.29239L13.1562 8.2923"
          fill="#EEA339"/>
    <path fill-rule="evenodd" clip-rule="evenodd"
          d="M13.678 8.37669L14.7429 8.23079C14.712 7.9989 14.6535 7.77282 14.5693 7.55761L13.678 7.91715V8.37669"
          fill="#EEA339"/>
    <path fill-rule="evenodd" clip-rule="evenodd"
          d="M13.678 8.45404L14.7627 8.38713C14.7767 8.61828 14.7629 8.85155 14.7211 9.08169C14.7211 9.08169 13.678 9.08833 13.678 9.08169V8.45404"
          fill="#EEA339"/>
    <path fill-rule="evenodd" clip-rule="evenodd"
          d="M13.6437 7.71054C13.6789 7.66381 13.6571 7.63893 13.6193 7.61413C13.5814 7.58943 13.5868 7.57017 13.6057 7.5345C13.6246 7.49874 13.6436 7.46022 13.6084 7.42178C13.5732 7.38326 13.5868 7.36676 13.6138 7.33929C13.6409 7.31183 13.6436 7.2816 13.6193 7.25957C13.5949 7.23754 13.6003 7.22105 13.6165 7.19911C13.6328 7.17708 13.6646 7.13247 13.6362 7.10363L14.0787 6.72814C14.2249 6.90584 14.35 7.10197 14.4508 7.31229L13.6437 7.71054"
          fill="#EEA339"/>
    <path fill-rule="evenodd" clip-rule="evenodd"
          d="M12.6802 7.91526L13.2076 7.39553C13.1332 7.31996 13.1257 7.30761 13.1785 7.25397C13.236 7.19553 13.2381 7.18945 13.1211 7.07046C13.0811 7.03 13.1035 7.00171 13.1603 7.00171C13.2171 7.00171 13.4782 7.00171 13.508 7.00171C13.5377 7.00171 13.5611 7.00327 13.5829 7.02539L14.0034 6.61175C13.8429 6.44392 13.6637 6.29747 13.4701 6.17516L12.6802 7.46595V7.91526"
          fill="#EEA339"/>
    <path fill-rule="evenodd" clip-rule="evenodd"
          d="M13.1563 7.99429C13.1563 7.86517 13.1562 7.73733 13.1562 7.71918C13.1562 7.68065 13.1589 7.66554 13.1887 7.63531C13.2184 7.60507 13.2036 7.5906 13.1805 7.55761L12.6802 7.98111V8.22978L13.1563 7.99429"
          fill="#EEA339"/>
    <path fill-rule="evenodd" clip-rule="evenodd"
          d="M10.4126 7.74197C10.4316 7.76123 10.4398 7.7804 10.4398 7.82713C10.4398 7.87386 10.4398 8.89653 10.4398 9.29791C10.4398 9.78722 10.7319 10.0594 11.0322 10.0594C11.3081 10.0594 11.4895 9.80372 11.5842 9.50685C11.4624 9.60307 11.2838 9.6333 11.1133 9.6333C10.9159 9.6333 10.5967 9.49865 10.5967 9.20722C10.5967 8.93782 10.5967 7.93985 10.5967 7.7804C10.5967 7.74197 10.5588 7.74197 10.4126 7.74197"
          fill="#D82332"/>
    <path fill-rule="evenodd" clip-rule="evenodd"
          d="M12.138 5.81493C11.7608 5.77613 11.4108 5.85585 11.4108 6.3788C11.4108 6.92866 11.4108 7.59935 11.4108 7.7682C11.4108 8.00018 11.3929 7.97262 11.5864 8.02138C11.9374 8.10986 11.9772 8.1211 12.4029 8.2199V6.80626C12.0394 6.7658 11.8819 6.52387 11.8819 6.25594C11.8819 6.04276 11.9746 5.84212 12.138 5.81493"
          fill="#D82332"/>
    <path fill-rule="evenodd" clip-rule="evenodd"
          d="M13.489 7.74197C13.47 7.76123 13.4619 7.7804 13.4619 7.82713C13.4619 7.87386 13.4619 8.89653 13.4619 9.29791C13.4619 9.78722 13.1697 10.0594 12.8694 10.0594C12.5935 10.0594 12.4121 9.80372 12.3175 9.50685C12.4393 9.60307 12.6178 9.6333 12.7883 9.6333C12.9858 9.6333 13.3049 9.49865 13.3049 9.20722C13.3049 8.93782 13.3049 7.93985 13.3049 7.7804C13.3049 7.74197 13.3428 7.74197 13.489 7.74197"
          fill="#D82332"/>
    <mask id="mask1" mask-type="alpha" maskUnits="userSpaceOnUse" x="9" y="5" width="6" height="7">
      <path fill-rule="evenodd" clip-rule="evenodd"
            d="M12 11.4286C13.5779 11.4286 14.8571 10.1494 14.8571 8.57144C14.8571 6.99349 13.5779 5.7143 12 5.7143C10.422 5.7143 9.14282 6.99349 9.14282 8.57144C9.14282 10.1494 10.422 11.4286 12 11.4286Z"
            fill="white"/>
    </mask>
    <g mask="url(#mask1)">
      <path fill-rule="evenodd" clip-rule="evenodd"
            d="M12 16C13.5779 16 14.8571 14.7208 14.8571 13.1429C14.8571 11.5649 13.5779 10.2857 12 10.2857C10.422 10.2857 9.14282 11.5649 9.14282 13.1429C9.14282 14.7208 10.422 16 12 16Z"
            fill="#064A89"/>
    </g>
  </g>
</svg>
