<svg width="24" height="18" viewBox="0 0 24 18" fill="none" xmlns="http://www.w3.org/2000/svg">
  <rect width="24" height="17.1429" rx="2" fill="white"/>
  <mask id="mask0" mask-type="alpha" maskUnits="userSpaceOnUse" x="0" y="0" width="24" height="18">
    <rect width="24" height="17.1429" rx="2" fill="white"/>
  </mask>
  <g mask="url(#mask0)">
    <rect width="24" height="17.1429" fill="#262626"/>
    <path fill-rule="evenodd" clip-rule="evenodd" d="M0 0H24V17.1429L0 0Z" fill="#E8283F"/>
    <path fill-rule="evenodd" clip-rule="evenodd"
          d="M5.71431 14.2857L4.90619 14.5224L5.14289 13.7143L4.90619 12.9062L5.71431 13.1429L6.52244 12.9062L6.28574 13.7143L6.52244 14.5224L5.71431 14.2857Z"
          fill="white"/>
    <path fill-rule="evenodd" clip-rule="evenodd"
          d="M5.71431 7.42859L4.90619 7.66528L5.14289 6.85716L4.90619 6.04904L5.71431 6.28573L6.52244 6.04904L6.28574 6.85716L6.52244 7.66528L5.71431 7.42859Z"
          fill="white"/>
    <path fill-rule="evenodd" clip-rule="evenodd"
          d="M2.85714 10.2857L2.04901 10.5224L2.28571 9.71428L2.04901 8.90616L2.85714 9.14285L3.66526 8.90616L3.42856 9.71428L3.66526 10.5224L2.85714 10.2857Z"
          fill="white"/>
    <path fill-rule="evenodd" clip-rule="evenodd"
          d="M8 9.71427L7.19188 9.95096L7.42858 9.14284L7.19188 8.33472L8 8.57141L8.80813 8.33472L8.57143 9.14284L8.80813 9.95096L8 9.71427Z"
          fill="white"/>
    <path fill-rule="evenodd" clip-rule="evenodd"
          d="M16.1668 7.94193C16.03 7.85984 15.9191 7.66647 15.9191 7.51177L15.9191 6.45858C15.9191 6.30309 15.8072 6.21434 15.6379 6.27077L14.988 6.4874C14.8328 6.53915 14.595 6.54382 14.4258 6.4874L13.7759 6.27077C13.6206 6.21901 13.6033 6.11188 13.7424 6.02841L15.2673 5.1135C15.4041 5.03141 15.4777 4.853 15.4213 4.68372L15.2047 4.03383C15.1529 3.87856 15.2228 3.78997 15.3921 3.8464L16.042 4.06303C16.1973 4.11479 16.3883 4.04812 16.4718 3.90902L17.3867 2.38417C17.4688 2.24735 17.5726 2.24831 17.629 2.41759L17.8457 3.06748C17.8974 3.22275 17.9021 3.46049 17.8457 3.62977L17.629 4.27966C17.5773 4.43493 17.6622 4.56081 17.8169 4.56081H18.87C19.0255 4.56081 19.2167 4.66943 19.3002 4.80853L20.2151 6.33338C20.2972 6.4702 20.2312 6.60762 20.0828 6.63729L18.6244 6.92899C18.4692 6.96002 18.3169 7.11773 18.2873 7.26609L17.9956 8.72456C17.9645 8.87971 17.8308 8.94031 17.6917 8.85684L16.1668 7.94193V7.94193Z"
          fill="#FFD84E"/>
  </g>
</svg>
