<svg width="24" height="18" viewBox="0 0 24 18" fill="none" xmlns="http://www.w3.org/2000/svg">
  <rect x="0.25" y="0.25" width="23.5" height="16.6429" rx="1.75" fill="white" stroke="#F5F5F5" stroke-width="0.5"/>
  <mask id="mask0" mask-type="alpha" maskUnits="userSpaceOnUse" x="0" y="0" width="24" height="18">
    <rect x="0.25" y="0.25" width="23.5" height="16.6429" rx="1.75" fill="white" stroke="white" stroke-width="0.5"/>
  </mask>
  <g mask="url(#mask0)">
    <path fill-rule="evenodd" clip-rule="evenodd" d="M0 17.1428L24 17.1428V7.99998H10.6667L11.4286 8.57141L0 17.1428Z"
          fill="#DD1C34"/>
    <path fill-rule="evenodd" clip-rule="evenodd" d="M24 8H10.6667L0 0H24V8Z" fill="#0D4BC3"/>
    <path fill-rule="evenodd" clip-rule="evenodd"
          d="M1.71438 3.42859C2.02997 3.42859 2.28581 3.17275 2.28581 2.85716C2.28581 2.54157 2.02997 2.28573 1.71438 2.28573C1.39879 2.28573 1.14295 2.54157 1.14295 2.85716C1.14295 3.17275 1.39879 3.42859 1.71438 3.42859ZM8.57147 9.14291C8.88706 9.14291 9.1429 8.88708 9.1429 8.57149C9.1429 8.2559 8.88706 8.00006 8.57147 8.00006C8.25588 8.00006 8.00004 8.2559 8.00004 8.57149C8.00004 8.88708 8.25588 9.14291 8.57147 9.14291ZM2.28576 14.2857C2.28576 14.6013 2.02992 14.8572 1.71433 14.8572C1.39874 14.8572 1.1429 14.6013 1.1429 14.2857C1.1429 13.9701 1.39874 13.7143 1.71433 13.7143C2.02992 13.7143 2.28576 13.9701 2.28576 14.2857ZM3.88468 9.70858L2.90666 11.2111L3.27757 9.45704C3.21789 9.40829 3.16322 9.35362 3.11447 9.29394L1.36039 9.66485L2.86293 8.68683C2.85913 8.64889 2.85718 8.61041 2.85718 8.57147C2.85718 8.53253 2.85913 8.49404 2.86293 8.4561L1.36039 7.47809L3.11447 7.849C3.16322 7.78931 3.21789 7.73465 3.27757 7.68589L2.90666 5.93181L3.88468 7.43436C3.92262 7.43056 3.9611 7.42861 4.00004 7.42861C4.03898 7.42861 4.07747 7.43056 4.11541 7.43436L5.09342 5.93181L4.72251 7.68589C4.7822 7.73465 4.83686 7.78931 4.88562 7.849L6.6397 7.47809L5.13715 8.4561C5.14095 8.49404 5.1429 8.53253 5.1429 8.57147C5.1429 8.61041 5.14095 8.64889 5.13715 8.68683L6.6397 9.66485L4.88562 9.29394C4.83686 9.35362 4.7822 9.40829 4.72251 9.45704L5.09342 11.2111L4.11541 9.70858C4.07747 9.71238 4.03898 9.71433 4.00004 9.71433C3.9611 9.71433 3.92262 9.71238 3.88468 9.70858Z"
          fill="#FDD64D"/>
  </g>
</svg>
