<svg width="24" height="18" viewBox="0 0 24 18" fill="none" xmlns="http://www.w3.org/2000/svg">
  <rect x="0.25" y="0.25" width="23.5" height="16.6429" rx="1.75" fill="white" stroke="#F5F5F5" stroke-width="0.5"/>
  <mask id="mask0" mask-type="alpha" maskUnits="userSpaceOnUse" x="0" y="0" width="24" height="18">
    <rect x="0.25" y="0.25" width="23.5" height="16.6429" rx="1.75" fill="white" stroke="white" stroke-width="0.5"/>
  </mask>
  <g mask="url(#mask0)">
    <path fill-rule="evenodd" clip-rule="evenodd" d="M24 0H6.85715V17.1429H24V0Z" fill="#0A632F"/>
    <path fill-rule="evenodd" clip-rule="evenodd"
          d="M20.2887 9.21474C20.1787 10.2867 19.7218 11.3168 18.9142 12.1244C16.9892 14.0494 13.8005 13.9818 11.7921 11.9734C9.78366 9.96498 9.71606 6.7763 11.6411 4.85127C12.4487 4.04366 13.4787 3.58676 14.5507 3.47676C14.2131 3.67575 13.8934 3.9213 13.6017 4.21309C11.8516 5.96312 11.7651 8.71391 13.4083 10.3572C15.0516 12.0004 17.8023 11.9138 19.5524 10.1638C19.8442 9.87202 20.0897 9.5524 20.2887 9.21474V9.21474ZM18.0792 6.94684L17.8065 8.57408L17.0442 7.11077L15.4123 7.3542L16.5684 6.17706L15.8327 4.70026L17.3094 5.43605L18.4866 4.27992L18.2432 5.91181L19.7065 6.67407L18.0792 6.94684V6.94684Z"
          fill="white"/>
  </g>
</svg>
