<svg width="24" height="18" viewBox="0 0 24 18" fill="none" xmlns="http://www.w3.org/2000/svg">
  <path
    d="M22.2026 17.14H1.79742C0.804703 17.14 0 16.2628 0 15.1807V1.95927C0 0.877214 0.804703 0 1.79742 0H22.2026C23.1952 0 24 0.877162 24 1.95927V15.1808C24 16.2628 23.1953 17.14 22.2026 17.14Z"
    fill="#41479B"/>
  <path
    d="M0.413813 8.57H1.13259L4.96556 5.83259V8.57H7.03453V5.83259L10.8675 8.57H11.5862C11.8148 8.57 12 8.36802 12 8.11893V7.76115L8.71158 5.41263H12V3.15737H8.71148L12 0.808847V0.451074C12 0.201982 11.8148 0.000102192 11.5863 0H10.8674L7.03448 2.73741V0H4.96552V2.73741L1.25831 0.0898263C1.15111 0.126513 1.04822 0.173981 0.950719 0.230902C0.949781 0.231464 0.948797 0.231975 0.947812 0.232537C0.925734 0.245465 0.903938 0.259107 0.882422 0.273005C0.879797 0.274691 0.877078 0.276275 0.874453 0.277962C0.853594 0.291604 0.833109 0.30586 0.812859 0.320371C0.809766 0.322619 0.806531 0.324714 0.803437 0.326962C0.783234 0.341627 0.763406 0.356853 0.743766 0.372387C0.740859 0.374686 0.737859 0.376883 0.734953 0.379233C0.715125 0.395073 0.695766 0.411475 0.676547 0.428183C0.674062 0.43038 0.671484 0.432475 0.669 0.434672C0.649594 0.451738 0.630563 0.469418 0.611813 0.487352C0.609797 0.489345 0.607687 0.491184 0.605672 0.493228C0.586687 0.511623 0.568125 0.530426 0.549844 0.549587C0.54825 0.551273 0.546563 0.552959 0.544922 0.554645C0.526406 0.574317 0.508313 0.594398 0.490547 0.614836C0.489375 0.616165 0.488156 0.617544 0.486984 0.618975C0.468984 0.639873 0.451359 0.661282 0.434156 0.6831C0.433359 0.684122 0.432609 0.685093 0.431812 0.686064C0.414375 0.708291 0.397359 0.730875 0.380859 0.754021C0.380438 0.754583 0.379969 0.755197 0.379547 0.75581C0.362859 0.779212 0.346547 0.803022 0.330844 0.827242C0.330656 0.8276 0.330375 0.827906 0.330188 0.828315C0.31425 0.85279 0.298828 0.877673 0.284016 0.902966C0.283969 0.903017 0.283922 0.903119 0.283875 0.90317C0.268875 0.928667 0.254438 0.954522 0.240516 0.980734L3.28852 3.15737H0V5.41263H3.28847L0 7.76115V8.11923C0.000140625 8.36822 0.185344 8.57 0.413813 8.57Z"
    fill="#F5F5F5"/>
  <path d="M12 3.60844H6.62067V0H5.37933V3.60844H0V4.96156H5.37933V8.57H6.62067V4.96156H12V3.60844Z" fill="#FF4B55"/>
  <path
    d="M0.385742 0.7474L3.79173 3.15739H4.55176L0.684758 0.421204C0.573711 0.516753 0.473398 0.626303 0.385742 0.7474Z"
    fill="#FF4B55"/>
  <path d="M7.79452 3.15737L11.937 0.226201C11.865 0.0934033 11.738 0 11.5862 0H11.4967L7.03448 3.15737H7.79452Z"
        fill="#FF4B55"/>
  <path
    d="M4.19418 5.41266L0.0595703 8.3382C0.130867 8.47422 0.259867 8.57002 0.413898 8.57002H0.491945L4.95426 5.41266H4.19418Z"
    fill="#FF4B55"/>
  <path d="M11.9934 8.1544L8.11843 5.4126H7.3584L11.7587 8.52612C11.8906 8.45949 11.981 8.31975 11.9934 8.1544Z"
        fill="#FF4B55"/>
  <path
    d="M18.1505 4.55206C18.1411 4.55206 18.1316 4.54884 18.1235 4.5422C18.117 4.53679 17.4749 3.99124 17.8531 3.0666C17.8631 3.04208 17.8895 3.03125 17.9121 3.04198C17.9346 3.05301 17.9447 3.08168 17.9347 3.10631C17.5858 3.95894 18.1532 4.44451 18.1776 4.46474C18.1972 4.48099 18.201 4.51149 18.186 4.53285C18.1772 4.54542 18.164 4.55206 18.1505 4.55206Z"
    fill="#73AF00"/>
  <path
    d="M17.7805 3.75339C17.7787 3.75339 17.7771 3.75329 17.7753 3.75309C17.7508 3.74992 17.7333 3.7258 17.7361 3.69913C17.7547 3.52428 17.815 3.40226 17.9156 3.33655C18.0772 3.23063 18.2794 3.31524 18.2878 3.31897C18.3107 3.32878 18.322 3.35689 18.313 3.38187C18.304 3.40686 18.278 3.41933 18.2553 3.40952C18.2535 3.4088 18.0847 3.3389 17.9611 3.4202C17.8859 3.46971 17.84 3.5673 17.8249 3.71037C17.8222 3.73515 17.8028 3.75339 17.7805 3.75339Z"
    fill="#73AF00"/>
  <path
    d="M17.9015 3.12628C17.8977 3.11555 17.8012 2.8658 17.365 2.97208C16.871 3.09271 16.8652 3.8031 16.8652 3.8102C16.8652 3.83462 16.8819 3.85537 16.9042 3.85849C16.9061 3.85879 16.908 3.8589 16.9099 3.8589C16.9299 3.8589 16.9479 3.84418 16.953 3.82257C17.1371 3.05807 17.8228 3.18647 17.852 3.19204C17.8685 3.19526 17.8843 3.18862 17.8945 3.17513C17.9049 3.16139 17.9076 3.14269 17.9015 3.12628Z"
    fill="#73AF00"/>
  <path
    d="M17.799 3.52225C17.799 3.52225 17.5015 3.31551 17.3787 3.57901C17.256 3.84257 17.349 4.12635 17.3973 4.23989C17.3973 4.23989 17.5747 4.02615 17.7432 3.99662C17.9516 3.96014 18.0036 3.6763 17.8586 3.53441C17.6852 3.36492 17.799 3.52225 17.799 3.52225Z"
    fill="#73AF00"/>
  <path d="M18.1241 3.0379C18.1199 3.32169 18.265 3.35889 18.265 3.35889C18.3588 3.09835 18.1241 3.0379 18.1241 3.0379Z"
        fill="#73AF00"/>
  <path
    d="M18.0786 3.63393C18.0806 3.36465 18.2481 3.33435 18.2481 3.33435C18.3496 3.58472 18.0786 3.63393 18.0786 3.63393Z"
    fill="#73AF00"/>
  <path
    d="M19.045 3.41686C19.045 3.41686 18.808 3.37869 18.7172 3.33189C18.6415 3.29301 18.5428 3.19909 18.4151 3.21744C18.3175 3.21744 18.2383 3.30369 18.2383 3.41017C18.2383 3.5166 18.3054 3.64414 18.6563 3.61583C18.8264 3.60209 18.9713 3.6868 18.9713 3.6868C18.949 3.58543 19.045 3.41686 19.045 3.41686Z"
    fill="#FF4B55"/>
  <path
    d="M18.7991 3.50139C18.7991 3.50139 18.4358 3.52883 18.356 3.46475C18.2823 3.40558 18.3016 3.31136 18.377 3.30222C18.4904 3.28842 18.7991 3.50139 18.7991 3.50139Z"
    fill="#FFE15A"/>
  <path
    d="M19.5061 3.94997L18.7027 4.49731L18.6106 4.39998L19.0513 3.9347L19.1545 3.98033L19.255 3.83434L19.0151 3.69751C19.0151 3.69751 18.379 4.35123 17.8379 4.406C17.6558 4.42445 17.4703 4.41147 17.3256 4.34653L17.001 4.85606L17.6816 5.48852L18.6803 5.44596L19.506 4.22354L19.651 4.29651L19.7737 4.13842L19.5061 3.94997Z"
    fill="#B49B91"/>
  <path
    d="M17.2672 5.42375C17.0437 5.42375 16.8618 5.2255 16.8618 4.98198C16.8618 4.73835 17.0437 4.5401 17.2672 4.5401C17.4906 4.5401 17.6725 4.73835 17.6725 4.98198C17.6725 5.22555 17.4906 5.42375 17.2672 5.42375ZM17.2672 4.68608C17.1175 4.68608 16.9957 4.81883 16.9957 4.98198C16.9957 5.14513 17.1175 5.27782 17.2672 5.27782C17.4169 5.27782 17.5386 5.14518 17.5386 4.98198C17.5386 4.81878 17.4169 4.68608 17.2672 4.68608Z"
    fill="#9B8278"/>
  <path
    d="M18.9557 5.83323C18.9557 5.83323 19.0301 5.7805 19.1045 5.53324L18.952 5.55757C18.952 5.55757 18.9817 5.41971 18.9483 5.31834L18.7772 5.46432C18.7772 5.46432 18.6991 5.28594 18.6656 5.26162C18.6656 5.26162 18.5466 5.44408 18.4797 5.46835C18.4797 5.46835 18.4127 5.2048 18.3457 5.15212L18.2304 5.3305L18.0593 5.18452C18.0593 5.18452 18.0593 5.31021 18.0556 5.33862C18.0519 5.36698 17.8325 5.08728 17.8325 5.08728C17.8325 5.08728 17.7358 5.13189 17.6056 5.35891L17.4419 5.17644L17.375 5.41567L17.1481 5.35078L17.1853 5.49268L16.9882 5.47643C16.9882 5.47643 17.0217 5.68725 17.1184 5.76026L18.9557 5.83323Z"
    fill="#73AF00"/>
  <path
    d="M16.9841 6.73523C16.9841 6.73523 16.3704 7.58664 15.21 7.48935L16.4709 7.6779L17.118 7.00895L16.9841 6.73523Z"
    fill="#73AF00"/>
  <path
    d="M14.9814 7.36186C15.1042 7.45919 15.863 7.69638 16.4097 7.4105C16.4097 7.4105 16.4209 7.5504 16.3595 7.62945C16.3595 7.62945 16.7612 7.45306 16.9788 7.12467C17.1965 6.79628 16.5269 7.8301 16.5269 7.8301L15.5004 8.03683L15.0819 7.65975L14.9814 7.36186Z"
    fill="#FFE15A"/>
  <path
    d="M14.9008 4.29582C14.7645 4.30829 14.6171 4.39776 14.5417 4.50644C14.5006 4.48743 14.4094 4.479 14.3337 4.53388C14.2331 4.60705 14.047 4.87132 13.8908 4.80142C13.8908 4.80142 13.8768 5.05071 14.1195 5.04167C14.1195 5.04167 14.0581 5.14509 14.0693 5.30926C14.0804 5.47343 13.9716 5.58293 13.9716 5.58293C13.9716 5.58293 14.4626 5.65891 14.4821 5.24237C14.4845 5.19148 14.4869 5.14662 14.4892 5.10661C14.7454 5.25745 14.8462 5.04453 14.8462 5.04453C14.8462 5.04453 14.6922 4.88598 14.849 4.66029C15.0057 4.43455 15.4365 4.96666 15.4365 4.96666C15.4449 4.75374 15.4274 4.24759 14.9008 4.29582Z"
    fill="#FFE15A"/>
  <path
    d="M16.7984 5.69956C16.7984 5.69956 16.6571 5.80497 16.2182 5.70768C16.2182 5.70768 16.3149 5.47254 16.2702 5.33468C16.2702 5.33468 16.1512 5.45629 15.8611 5.57795C15.571 5.69961 15.214 6.08881 15.1098 6.3402C15.1098 6.3402 15.7623 4.70064 15.2381 4.53396C15.0583 4.47679 14.9036 4.56947 14.8489 4.66037C14.8754 4.6944 14.9008 4.74289 14.9034 4.80763C14.9089 4.94753 14.7806 5.89015 14.5909 6.54085C14.5909 6.54085 14.5351 6.31583 14.4459 6.20633C14.3567 6.09683 14.2897 5.9205 14.2897 5.9205C14.2897 5.9205 14.1391 6.03 14.1614 6.23065C14.1614 6.23065 14.0777 6.15769 13.9159 6.20633C13.7541 6.25497 13.6927 6.13939 13.6927 6.13939C13.6927 6.13939 13.5588 6.52859 13.9549 6.7293C13.9549 6.7293 13.849 6.78402 13.7988 6.82663C13.7485 6.8692 13.6704 6.8692 13.6704 6.8692C13.6704 6.8692 13.8099 7.14895 14.1056 7.17935C14.4012 7.20975 14.5371 7.30162 14.63 7.46717C14.9313 8.00439 15.5078 8.41183 16.4488 7.7834C16.4488 7.7834 15.1098 8.23749 15.0503 7.30499C14.9982 6.48925 15.8165 6.32385 15.8983 6.50223C15.9802 6.6806 15.8909 6.83471 15.8909 6.83471C15.8909 6.83471 16.3372 6.72122 16.1215 6.27516C16.1215 6.27526 16.5603 6.34827 16.7984 5.69956Z"
    fill="#73AF00"/>
  <path
    d="M21.0962 7.36186C20.9735 7.4592 20.198 7.82408 19.6623 7.24025C19.1267 6.65643 18.9179 5.77983 18.9482 5.87794H18.4126L18.5911 7.62945L20.5773 8.03694L20.9958 7.65985L21.0962 7.36186Z"
    fill="#73AF00"/>
  <path
    d="M21.1769 4.29582C21.3132 4.30829 21.4606 4.39776 21.536 4.50644C21.5771 4.48743 21.6684 4.479 21.744 4.53388C21.8447 4.60705 22.0308 4.87132 22.1869 4.80142C22.1869 4.80142 22.2009 5.05071 21.9582 5.04167C21.9582 5.04167 22.0196 5.14509 22.0084 5.30926C21.9973 5.47343 22.1061 5.58293 22.1061 5.58293C22.1061 5.58293 21.6151 5.65891 21.5956 5.24237C21.5932 5.19148 21.5908 5.14662 21.5885 5.10661C21.3323 5.25745 21.2315 5.04453 21.2315 5.04453C21.2315 5.04453 21.3854 4.88598 21.2287 4.66029C21.072 4.43455 20.6412 4.96666 20.6412 4.96666C20.6328 4.75374 20.6504 4.24759 21.1769 4.29582Z"
    fill="#73AF00"/>
  <path
    d="M19.2793 5.69944C19.2793 5.69944 19.4206 5.80485 19.8595 5.70756C19.8595 5.70756 19.7628 5.47242 19.8074 5.33456C19.8074 5.33456 19.9265 5.45617 20.2166 5.57783C20.5067 5.69949 20.8637 6.08869 20.9679 6.34008C20.9679 6.34008 20.3154 4.70051 20.8396 4.53384C21.0194 4.47666 21.174 4.56935 21.2287 4.66025C21.2023 4.69428 21.1769 4.74277 21.1743 4.80751C21.1687 4.94741 21.297 5.89003 21.4867 6.54073C21.4867 6.54073 21.5426 6.31571 21.6318 6.20621C21.721 6.09671 21.788 5.92038 21.788 5.92038C21.788 5.92038 21.9386 6.02988 21.9163 6.23053C21.9163 6.23053 22 6.15756 22.1618 6.20621C22.3236 6.25485 22.385 6.13927 22.385 6.13927C22.385 6.13927 22.5189 6.52847 22.1227 6.72917C22.1227 6.72917 22.2287 6.7839 22.2789 6.82651C22.3291 6.86907 22.4073 6.86907 22.4073 6.86907C22.4073 6.86907 22.2678 7.14882 21.9721 7.17923C21.6764 7.20963 21.5405 7.3015 21.4477 7.46705C21.1464 8.00427 20.5699 8.41171 19.6288 7.78328C19.6288 7.78328 20.9678 8.23737 21.0274 7.30487C21.0794 6.48912 20.2612 6.32373 20.1793 6.5021C20.0975 6.68048 20.1868 6.83458 20.1868 6.83458C20.1868 6.83458 19.7405 6.7211 19.9562 6.27503C19.9563 6.27514 19.5174 6.34815 19.2793 5.69944Z"
    fill="#FFE15A"/>
  <path
    d="M18.9 7.06177C19.1195 7.41045 19.4245 7.72668 20.3097 8.02666C21.1949 8.32665 21.4316 8.37125 21.8954 8.78027C21.8954 8.78027 21.9836 8.8817 22.0173 9.04429C22.0569 9.23528 21.7867 9.7862 21.7867 9.7862C21.7867 9.7862 21.8128 9.65647 21.6491 9.40513C21.4855 9.15378 20.5184 8.6997 20.0126 8.56184C19.5067 8.42398 18.6326 7.78442 18.8744 7.30498L18.9 7.06177Z"
    fill="#73AF00"/>
  <path
    d="M21.8943 8.77902C21.8946 8.77954 21.8948 8.78005 21.8951 8.78056C21.8946 8.77989 21.8941 8.77923 21.8936 8.77856L21.8943 8.77902Z"
    fill="#73AF00"/>
  <path
    d="M21.8719 9.96488C21.8719 9.96488 21.8942 10.1413 21.7603 10.2933C21.6264 10.4454 21.5316 10.5548 21.5372 10.6825C21.5372 10.6825 21.3363 10.5244 21.3698 10.1717C21.3698 10.1717 21.1076 10.4088 20.7114 10.1777C20.7114 10.1777 20.7505 9.74598 21.2638 9.69121C21.2638 9.69121 21.0629 9.52096 21.3252 9.25945C21.3252 9.25945 21.3557 9.37641 21.593 9.43583C21.7994 9.48754 22.1667 9.20534 21.8951 8.78058C22.3629 9.35674 22.123 9.75201 21.8719 9.96488Z"
    fill="#FFE15A"/>
  <path
    d="M18.7085 6.74146C18.7085 6.74146 18.8216 6.94303 19.1158 7.13878C19.4691 7.37392 19.5008 7.48337 19.5008 7.48337L19.2609 7.47729C19.2609 7.47729 19.5678 7.65975 19.6514 7.89086C19.6514 7.89086 19.5231 7.91518 19.3781 7.87256C19.3781 7.87256 19.4952 7.98809 19.4395 8.3591H18.8425L18.7085 6.74146Z"
    fill="#FFE15A"/>
  <path d="M17.5197 8.40778V6.85089C17.5197 6.85089 17.0349 7.75493 16.6162 8.40778H17.5197Z" fill="#73AF00"/>
  <path
    d="M17.1029 6.81841C16.9838 7.05356 16.6119 7.82797 15.7267 8.128C14.8414 8.42799 14.6796 8.37127 14.2157 8.78024C14.2157 8.78024 14.1276 8.88167 14.0938 9.04425C14.0542 9.23525 14.3244 9.78616 14.3244 9.78616C14.3244 9.78616 14.2984 9.65643 14.462 9.40509C14.6257 9.15375 15.5873 8.67319 16.0986 8.5618C16.8057 8.4077 17.4454 7.58066 17.3413 7.04548C17.2372 6.51031 17.1029 6.81841 17.1029 6.81841Z"
    fill="#FFE15A"/>
  <path
    d="M14.2166 8.77878C14.2163 8.77929 14.2161 8.7798 14.2158 8.78031C14.2163 8.77965 14.2168 8.77898 14.2174 8.77832L14.2166 8.77878Z"
    fill="#73AF00"/>
  <path
    d="M14.2389 9.9647C14.2389 9.9647 14.2166 10.1411 14.3505 10.2931C14.4844 10.4452 14.5792 10.5546 14.5737 10.6823C14.5737 10.6823 14.7745 10.5242 14.7411 10.1715C14.7411 10.1715 15.0033 10.4087 15.3994 10.1776C15.3994 10.1776 15.3604 9.7458 14.847 9.69103C14.847 9.69103 15.0479 9.52077 14.7857 9.25927C14.7857 9.25927 14.7552 9.37622 14.5179 9.43565C14.3114 9.48736 13.9442 9.20516 14.2158 8.7804C13.748 9.35655 13.9879 9.75183 14.2389 9.9647Z"
    fill="#73AF00"/>
  <path
    d="M15.4741 12.5595C15.4741 12.5595 15.6006 13.1798 15.608 13.8204C15.608 13.8204 16.1622 13.8407 16.43 13.3866C16.43 13.3866 15.8944 13.0825 15.608 12.4946L15.4741 12.5595Z"
    fill="#FFE15A"/>
  <path
    d="M15.3554 11.1891C15.3331 10.8972 15.4521 10.1592 15.9951 9.62411L16.0084 8.96875C16.0084 8.96875 15.8467 8.98709 15.7032 9.12398L15.3963 9.64235L15.1118 10.8161L15.3554 11.1891Z"
    fill="#73AF00"/>
  <path
    d="M15.3699 11.3999C15.3699 11.3999 15.3699 12.0243 15.608 12.4946L15.474 12.5594C15.474 12.5594 14.9942 12.1479 14.8938 11.3026C14.8938 11.3026 14.4642 11.6127 14.3062 10.9782C14.3062 10.9782 14.7674 11.181 14.9161 10.7188C15.0503 10.3017 15.186 9.54254 15.7028 9.12396C15.4572 9.53554 15.0872 10.589 15.3736 10.9621C15.4495 11.0609 15.6675 11.1445 15.9061 11.0335C15.8905 11.2409 15.7998 11.5579 15.3699 11.3999Z"
    fill="#FFE15A"/>
  <path
    d="M15.4397 12.6702L15.3613 12.5132C15.3476 12.4858 15.3569 12.4514 15.3821 12.4365L15.5251 12.3517C15.5503 12.3368 15.5818 12.3469 15.5955 12.3744L15.6739 12.5314C15.6876 12.5588 15.6783 12.5932 15.6531 12.6082L15.5101 12.6929C15.4849 12.7078 15.4534 12.6977 15.4397 12.6702Z"
    fill="#FFCE5A"/>
  <path
    d="M20.2797 12.5595C20.2797 12.5595 20.1532 13.1798 20.1457 13.8204C20.1457 13.8204 19.5915 13.8407 19.3237 13.3866C19.3237 13.3866 19.8593 13.0825 20.1457 12.4946L20.2797 12.5595Z"
    fill="#FFE15A"/>
  <path
    d="M20.3988 11.1891C20.4211 10.8972 20.3021 10.1592 19.7591 9.62411L19.7458 8.96875C19.7458 8.96875 19.9076 8.98709 20.051 9.12398L20.3579 9.64235L20.6424 10.8161L20.3988 11.1891Z"
    fill="#FFE15A"/>
  <path
    d="M19.8477 11.0334C20.0863 11.1445 20.3043 11.0608 20.3801 10.962C20.6665 10.589 20.2966 9.53553 20.0509 9.1239C20.5677 9.54248 20.7034 10.3017 20.8376 10.7187C20.9864 11.1809 21.4476 10.9782 21.4476 10.9782C21.2895 11.6127 20.8599 11.3025 20.8599 11.3025C20.7595 12.1479 20.2797 12.5594 20.2797 12.5594L20.1458 12.4945C20.3838 12.0242 20.3838 11.3998 20.3838 11.3998C19.954 11.5579 19.8632 11.2409 19.8477 11.0334Z"
    fill="#73AF00"/>
  <path
    d="M20.3143 12.6702L20.3927 12.5132C20.4063 12.4858 20.3971 12.4514 20.3718 12.4365L20.2288 12.3517C20.2037 12.3368 20.1722 12.3469 20.1584 12.3744L20.08 12.5314C20.0664 12.5588 20.0756 12.5932 20.1009 12.6082L20.2439 12.6929C20.269 12.7078 20.3005 12.6977 20.3143 12.6702Z"
    fill="#FFCE5A"/>
  <path
    d="M16.0916 8.21313C15.9931 8.21313 15.9131 8.30025 15.9131 8.40776V10.5485C15.9131 11.1323 16.0916 13.273 17.877 14.0514C19.6623 13.273 19.8408 11.1323 19.8408 10.5485V8.40776C19.8408 8.3003 19.7609 8.21313 19.6623 8.21313H16.0916Z"
    fill="#4173CD"/>
  <path
    d="M17.7689 8.21313L16.0757 11.7506C16.1181 11.9142 16.1709 12.0835 16.2372 12.2546L17.8771 8.82843L19.517 12.2546C19.5833 12.0834 19.6361 11.9141 19.6785 11.7506L17.9853 8.21313H17.7689V8.21313Z"
    fill="#FFE15A"/>
  <path
    d="M19.5171 12.2546L17.8772 8.82843L16.2373 12.2546C16.5074 12.9515 16.9961 13.6673 17.8772 14.0514C18.7582 13.6674 19.247 12.9515 19.5171 12.2546Z"
    fill="#73AF00"/>
  <path
    d="M18.5408 12.4763L18.6488 12.5328C18.6036 12.6058 18.5093 12.7238 18.329 12.8307C18.1928 12.9115 18.0612 13.0071 17.9661 13.0804V11.4743L18.4125 11.4243V11.2296L17.9661 11.1796V10.9377C17.9661 10.884 17.9262 10.8404 17.8769 10.8404C17.8348 10.8404 17.8012 10.8727 17.7917 10.9155C17.7621 10.8923 17.7276 10.8758 17.6885 10.8758C17.5886 10.8758 17.5073 10.9644 17.5073 11.0733C17.5073 11.1245 17.5264 11.1704 17.5559 11.2056L17.3413 11.2296V11.4243L17.7876 11.4743V13.0804C17.6926 13.0072 17.561 12.9115 17.4248 12.8307C17.2445 12.7238 17.1502 12.6058 17.105 12.5328L17.213 12.4763L16.8057 11.9107V12.6892L16.943 12.6174C16.9973 12.7128 17.1121 12.8668 17.3395 13.0016C17.5298 13.1145 17.7144 13.2611 17.7876 13.3211L17.8769 13.3966L17.9662 13.3211C18.0394 13.2611 18.2241 13.1145 18.4143 13.0016C18.6417 12.8668 18.7566 12.7128 18.8108 12.6174L18.9481 12.6892V11.9107L18.5408 12.4763ZM17.6885 11.1736C17.6378 11.1736 17.5965 11.1287 17.5965 11.0733C17.5965 11.018 17.6377 10.9731 17.6885 10.9731C17.7393 10.9731 17.7805 11.018 17.7805 11.0733C17.7805 11.1287 17.7393 11.1736 17.6885 11.1736Z"
    fill="#FFE15A"/>
  <path
    d="M18.0151 10.7431H17.7393C17.6675 10.7431 17.6094 10.6797 17.6094 10.6015V10.1062C17.6094 10.028 17.6675 9.9646 17.7393 9.9646H18.0151C18.0868 9.9646 18.145 10.028 18.145 10.1062V10.6015C18.145 10.6797 18.0868 10.7431 18.0151 10.7431Z"
    fill="#F5F5F5"/>
  <path
    d="M19.1267 8.21313C18.7697 7.62931 18.7697 6.46161 18.7697 6.46161C18.7697 6.46161 18.7697 5.68317 17.877 5.68317C17.4248 5.68317 17.2021 5.88295 17.092 6.08003C16.6636 6.26765 16.4487 6.65618 16.4487 6.65618C16.6314 6.75577 16.7927 6.80319 16.9392 6.81535C17.2302 7.1929 17.3271 7.55746 17.3528 7.81969C17.1852 8.00629 17.0922 8.45634 17.3414 8.7969C17.3414 8.7969 17.8696 8.66313 18.3154 8.21308H19.1267V8.21313H19.1267V8.21313Z"
    fill="#B49B91"/>
  <path d="M18.3154 8.21323H18.9818C18.9482 7.85443 18.6246 7.91222 18.3154 8.21323Z" fill="#9B8278"/>
  <path
    d="M18.9649 7.84586C18.7698 7.24201 18.7695 6.46172 18.7695 6.46172C18.7695 6.46172 18.7694 6.44905 18.7676 6.42723C18.5352 6.39284 18.2972 6.41149 17.8322 6.6077C17.337 6.81658 17.0946 6.82256 16.939 6.81551C17.23 7.19306 17.3269 7.55762 17.3526 7.81985L17.3598 8.23352C17.3598 8.23352 17.6387 8.27813 18.2524 7.89292C18.5586 7.70085 18.8181 7.68439 18.9649 7.84586Z"
    fill="#9B8278"/>
  <path
    d="M18.0147 6.37649C18.3768 6.27782 18.6079 6.28799 18.7567 6.34557C18.7168 6.12877 18.5529 5.68317 17.8771 5.68317C17.4249 5.68317 17.2022 5.88295 17.0922 6.08003L16.8208 6.49406C16.8208 6.49411 17.1602 6.60938 18.0147 6.37649Z"
    fill="#9B8278"/>
  <path
    d="M17.2872 5.59811C17.3224 5.63633 17.4273 5.91204 17.4057 5.95302C17.3918 5.97934 17.1124 6.05506 17.0671 6.01643C17.0267 5.98199 16.9795 5.68502 17.0065 5.65074C17.031 5.61977 17.2578 5.56623 17.2872 5.59811Z"
    fill="#FFE15A"/>
  <path
    d="M17.6463 5.5834C17.6787 5.62392 17.7522 5.89345 17.7231 5.92784C17.7044 5.94996 17.393 5.97673 17.3498 5.93432C17.3112 5.89651 17.3027 5.61615 17.3367 5.58887C17.3675 5.56408 17.6192 5.54957 17.6463 5.5834Z"
    fill="#73AF00"/>
  <path
    d="M17.9861 5.57311C18.0198 5.61127 18.0964 5.86471 18.0663 5.8969C18.047 5.91759 17.7249 5.94197 17.68 5.90196C17.6401 5.86629 17.6306 5.60295 17.6658 5.57735C17.6977 5.55425 17.9581 5.54127 17.9861 5.57311Z"
    fill="#FFE15A"/>
  <path
    d="M18.3316 5.59082C18.3613 5.63246 18.4174 5.89837 18.3862 5.92923C18.3662 5.949 18.0539 5.94992 18.0135 5.90547C17.9775 5.86582 17.9869 5.5948 18.0226 5.5712C18.0548 5.54984 18.3068 5.55602 18.3316 5.59082Z"
    fill="#73AF00"/>
  <path
    d="M19.0447 5.75213C19.0677 5.79857 19.0655 6.04557 19.03 6.07035C19.0072 6.08624 18.7261 6.03162 18.693 5.98052C18.6634 5.93495 18.7138 5.66935 18.7525 5.65244C18.7875 5.63721 19.0255 5.71334 19.0447 5.75213Z"
    fill="#73AF00"/>
  <path
    d="M18.7169 5.64657C18.7451 5.68888 18.7666 5.93685 18.7326 5.96306C18.7107 5.97992 18.389 5.9511 18.35 5.90527C18.3152 5.86434 18.3406 5.60876 18.3788 5.58975C18.4133 5.57248 18.6934 5.61126 18.7169 5.64657Z"
    fill="#FFE15A"/>
  <path
    d="M17.2669 5.11441C17.334 5.11441 17.3883 5.05516 17.3883 4.98207C17.3883 4.90898 17.334 4.84973 17.2669 4.84973C17.1999 4.84973 17.1455 4.90898 17.1455 4.98207C17.1455 5.05516 17.1999 5.11441 17.2669 5.11441Z"
    fill="#9B8278"/>
</svg>
