<svg width="24" height="18" viewBox="0 0 24 18" fill="none" xmlns="http://www.w3.org/2000/svg">
  <path d="M22.2026 0H1.79742C0.804703 0 0 0.877162 0 1.95927V5.71333H24V1.95927C24 0.877162 23.1953 0 22.2026 0Z"
        fill="#464655"/>
  <path
    d="M0 15.1808C0 16.2628 0.804703 17.14 1.79742 17.14H22.2026C23.1952 17.14 24 16.2629 24 15.1808V11.4267H0V15.1808Z"
    fill="#73AF00"/>
  <path d="M24 5.7132H0V11.4262H24V5.7132Z" fill="#F5F5F5"/>
  <path
    d="M0.601313 16.6427L9.66084 8.80373C9.79894 8.68427 9.79894 8.45567 9.66084 8.33621L0.601313 0.497192C0.232453 0.856038 0 1.37793 0 1.95925V15.1807C0 15.762 0.232453 16.2839 0.601313 16.6427Z"
    fill="#FF4B55"/>
</svg>
