<svg width="24" height="18" viewBox="0 0 24 18" fill="none" xmlns="http://www.w3.org/2000/svg">
  <rect x="0.25" y="0.25" width="23.5" height="16.6429" rx="1.75" fill="white" stroke="#F5F5F5" stroke-width="0.5"/>
  <mask id="mask0" mask-type="alpha" maskUnits="userSpaceOnUse" x="0" y="0" width="24" height="18">
    <rect x="0.25" y="0.25" width="23.5" height="16.6429" rx="1.75" fill="white" stroke="white" stroke-width="0.5"/>
  </mask>
  <g mask="url(#mask0)">
    <path fill-rule="evenodd" clip-rule="evenodd" d="M0 5.71429H24V0H0V5.71429Z" fill="#E33F39"/>
    <path fill-rule="evenodd" clip-rule="evenodd" d="M0 17.1428H24V11.4286H0V17.1428Z" fill="#124BBA"/>
    <path
      d="M12 10.619C13.1309 10.619 14.0476 9.70229 14.0476 8.57143C14.0476 7.44056 13.1309 6.52381 12 6.52381C10.8691 6.52381 9.95237 7.44056 9.95237 8.57143C9.95237 9.70229 10.8691 10.619 12 10.619Z"
      stroke="#398153" stroke-width="0.666667"/>
    <path fill-rule="evenodd" clip-rule="evenodd"
          d="M12 9.14284C12.3156 9.14284 12.5715 8.887 12.5715 8.57141C12.5715 8.25582 12.3156 7.99998 12 7.99998C11.6845 7.99998 11.4286 8.25582 11.4286 8.57141C11.4286 8.887 11.6845 9.14284 12 9.14284Z"
          fill="#E5CF58"/>
  </g>
</svg>
