<svg width="24" height="18" viewBox="0 0 24 18" fill="none" xmlns="http://www.w3.org/2000/svg">
  <rect width="24" height="17.1429" rx="2" fill="white"/>
  <mask id="mask0" mask-type="alpha" maskUnits="userSpaceOnUse" x="0" y="0" width="24" height="18">
    <rect width="24" height="17.1429" rx="2" fill="white"/>
  </mask>
  <g mask="url(#mask0)">
    <g filter="url(#filter0_d)">
      <path fill-rule="evenodd" clip-rule="evenodd" d="M0 17.1429H24V12.5714H0V17.1429Z" fill="#2D754D"/>
    </g>
    <path fill-rule="evenodd" clip-rule="evenodd" d="M0 8H24V0H0V8Z" fill="#25B1EB"/>
    <path fill-rule="evenodd" clip-rule="evenodd" d="M0 12.5714H24V7.99998H0V12.5714Z" fill="#FECB2F"/>
    <path fill-rule="evenodd" clip-rule="evenodd"
          d="M18.2857 5.14285L17.411 6.11172L17.4776 4.80812L16.174 4.8747L17.1428 3.99999L16.174 3.12529L17.4776 3.19187L17.411 1.88827L18.2857 2.85714L19.1604 1.88827L19.0938 3.19187L20.3974 3.12529L19.4285 3.99999L20.3974 4.8747L19.0938 4.80812L19.1604 6.11172L18.2857 5.14285Z"
          fill="#FECB2F"/>
  </g>
  <defs>
    <filter id="filter0_d" x="0" y="12.5714" width="24" height="4.57143" filterUnits="userSpaceOnUse"
            color-interpolation-filters="sRGB">
      <feFlood flood-opacity="0" result="BackgroundImageFix"/>
      <feColorMatrix in="SourceAlpha" type="matrix" values="0 0 0 0 0 0 0 0 0 0 0 0 0 0 0 0 0 0 127 0"/>
      <feOffset/>
      <feColorMatrix type="matrix" values="0 0 0 0 0 0 0 0 0 0 0 0 0 0 0 0 0 0 0.06 0"/>
      <feBlend mode="normal" in2="BackgroundImageFix" result="effect1_dropShadow"/>
      <feBlend mode="normal" in="SourceGraphic" in2="effect1_dropShadow" result="shape"/>
    </filter>
  </defs>
</svg>
