<svg width="24" height="18" viewBox="0 0 24 18" fill="none" xmlns="http://www.w3.org/2000/svg">
  <rect width="24" height="17.1429" rx="2" fill="white"/>
  <mask id="mask0" mask-type="alpha" maskUnits="userSpaceOnUse" x="0" y="0" width="24" height="18">
    <rect width="24" height="17.1429" rx="2" fill="white"/>
  </mask>
  <g mask="url(#mask0)">
    <rect width="24" height="17.1429" fill="#128C4B"/>
    <path fill-rule="evenodd" clip-rule="evenodd"
          d="M5.71425 10.2857H14.8571V9.65014C14.8571 9.15455 15.3786 8.83222 15.8219 9.05385L16 9.14288V10.2857H17.619C17.9872 10.2857 18.2857 10.5842 18.2857 10.9524V11.2381C18.2857 11.9745 17.6887 12.5714 16.9523 12.5714H15.5238C15.1556 12.5714 14.8571 12.273 14.8571 11.9048V11.4286H7.13325C6.95644 11.4286 6.78687 11.3584 6.66184 11.2333L5.71425 10.2857Z"
          fill="white"/>
    <path fill-rule="evenodd" clip-rule="evenodd"
          d="M5.71425 6.9952C5.71425 6.90679 5.74937 6.82201 5.81188 6.75949L6.04998 6.5214C6.18015 6.39122 6.18015 6.18017 6.04997 6.04999L5.81188 5.8119C5.74937 5.74939 5.71425 5.6646 5.71425 5.5762V4.90474C5.71425 4.72065 5.86349 4.57141 6.04758 4.57141H6.63884C6.75938 4.57141 6.85711 4.66913 6.85711 4.78968V4.78968C6.85711 5.02 7.16759 5.09329 7.2706 4.88729L7.35578 4.71692C7.40037 4.62774 7.49152 4.57141 7.59122 4.57141H8.85711C9.0149 4.57141 9.14282 4.69933 9.14282 4.85713V4.85713C9.14282 5.01492 9.0149 5.14284 8.85711 5.14284H8.28568C8.12788 5.14284 7.99996 5.27076 7.99996 5.42855V5.42855C7.99996 5.58635 8.12788 5.71427 8.28568 5.71427H8.80949C8.99358 5.71427 9.14282 5.86351 9.14282 6.0476V7.66665C9.14282 7.85074 8.99358 7.99998 8.80949 7.99998H8.3333C8.1492 7.99998 7.99996 7.85074 7.99996 7.66665V7.14284C7.99996 6.98504 8.12788 6.85713 8.28568 6.85713V6.85713C8.44347 6.85713 8.57139 6.72921 8.57139 6.57141V6.57141C8.57139 6.41362 8.44347 6.2857 8.28568 6.2857H7.76187C7.57777 6.2857 7.42853 6.43494 7.42853 6.61903V7.71427C7.42853 7.87206 7.30062 7.99998 7.14282 7.99998V7.99998C6.98502 7.99998 6.85711 7.87206 6.85711 7.71427V7.14284C6.85711 6.98504 6.72919 6.85713 6.57139 6.85713V6.85713C6.4136 6.85713 6.28568 6.98504 6.28568 7.14284V7.71427C6.28568 7.87206 6.15776 7.99998 5.99996 7.99998V7.99998C5.84217 7.99998 5.71425 7.87206 5.71425 7.71427V6.9952Z"
          fill="white"/>
    <path fill-rule="evenodd" clip-rule="evenodd"
          d="M14.8572 6.9952C14.8572 6.90679 14.8923 6.82201 14.9548 6.75949L15.1929 6.5214C15.3231 6.39122 15.3231 6.18017 15.1929 6.04999L14.9548 5.8119C14.8923 5.74939 14.8572 5.6646 14.8572 5.5762V4.90474C14.8572 4.72065 15.0064 4.57141 15.1905 4.57141H15.7818C15.9023 4.57141 16 4.66913 16 4.78968V4.78968C16 5.02 16.3105 5.09329 16.4135 4.88729L16.4987 4.71692C16.5433 4.62774 16.6344 4.57141 16.7341 4.57141H18C18.1578 4.57141 18.2857 4.69933 18.2857 4.85713V4.85713C18.2857 5.01492 18.1578 5.14284 18 5.14284H17.4286C17.2708 5.14284 17.1429 5.27076 17.1429 5.42855V5.42855C17.1429 5.58635 17.2708 5.71427 17.4286 5.71427H17.9524C18.1365 5.71427 18.2857 5.86351 18.2857 6.0476V7.66665C18.2857 7.85074 18.1365 7.99998 17.9524 7.99998H17.4762C17.2921 7.99998 17.1429 7.85074 17.1429 7.66665V7.14284C17.1429 6.98504 17.2708 6.85713 17.4286 6.85713V6.85713C17.5864 6.85713 17.7143 6.72921 17.7143 6.57141V6.57141C17.7143 6.41362 17.5864 6.2857 17.4286 6.2857H16.9048C16.7207 6.2857 16.5715 6.43494 16.5715 6.61903V7.71427C16.5715 7.87206 16.4435 7.99998 16.2857 7.99998V7.99998C16.128 7.99998 16 7.87206 16 7.71427V7.14284C16 6.98504 15.8721 6.85713 15.7143 6.85713V6.85713C15.5565 6.85713 15.4286 6.98504 15.4286 7.14284V7.71427C15.4286 7.87206 15.3007 7.99998 15.1429 7.99998V7.99998C14.9851 7.99998 14.8572 7.87206 14.8572 7.71427V6.9952Z"
          fill="white"/>
    <path fill-rule="evenodd" clip-rule="evenodd"
          d="M13.7143 5.42588C13.7143 5.58515 13.625 5.80355 13.508 5.92057L13.3492 6.0794C13.2352 6.19333 13.2321 6.37498 13.3492 6.492L13.508 6.65083C13.6219 6.76476 13.7143 6.97943 13.7143 7.14552V7.71159C13.7143 7.87087 13.592 7.99998 13.4259 7.99998H12.8598C12.7006 7.99998 12.5714 7.87768 12.5714 7.71159V7.14552C12.5714 6.98624 12.5187 6.96259 12.4389 7.12219L12.1325 7.73492C12.0593 7.88131 11.8655 7.99998 11.7169 7.99998H10.5688C10.4125 7.99998 10.2857 7.86745 10.2857 7.71427V7.71427C10.2857 7.55647 10.408 7.42855 10.5741 7.42855H11.1402C11.2995 7.42855 11.4286 7.29602 11.4286 7.14284V7.14284C11.4286 6.98504 11.3063 6.85713 11.1402 6.85713H10.5741C10.4148 6.85713 10.2857 6.73424 10.2857 6.57685V4.85168C10.2857 4.69689 10.408 4.57141 10.5741 4.57141H11.1402C11.2995 4.57141 11.4286 4.69372 11.4286 4.8598V5.42588C11.4286 5.58515 11.296 5.71427 11.1429 5.71427V5.71427C10.9851 5.71427 10.8571 5.8468 10.8571 5.99998V5.99998C10.8571 6.15778 10.9795 6.2857 11.1455 6.2857H11.7116C11.8709 6.2857 12 6.15118 12 6.00262V4.85449C12 4.69815 12.1325 4.57141 12.2857 4.57141V4.57141C12.4435 4.57141 12.5714 4.69372 12.5714 4.8598V5.42588C12.5714 5.58515 12.704 5.71427 12.8571 5.71427V5.71427C13.0149 5.71427 13.1429 5.59196 13.1429 5.42588V4.8598C13.1429 4.70053 13.2754 4.57141 13.4286 4.57141V4.57141C13.5864 4.57141 13.7143 4.69372 13.7143 4.8598V5.42588V5.42588Z"
          fill="white"/>
  </g>
</svg>
