<svg width="24" height="18" viewBox="0 0 24 18" fill="none" xmlns="http://www.w3.org/2000/svg">
  <rect x="0.25" y="0.25" width="23.5" height="16.6429" rx="1.75" fill="white" stroke="#F5F5F5" stroke-width="0.5"/>
  <mask id="mask0" mask-type="alpha" maskUnits="userSpaceOnUse" x="0" y="0" width="24" height="18">
    <rect x="0.25" y="0.25" width="23.5" height="16.6429" rx="1.75" fill="white" stroke="white" stroke-width="0.5"/>
  </mask>
  <g mask="url(#mask0)">
    <path fill-rule="evenodd" clip-rule="evenodd" d="M0 9.14286H24V0H0V9.14286Z" fill="#E12237"/>
    <path fill-rule="evenodd" clip-rule="evenodd"
          d="M5.71425 8.00004C6.52442 8.00004 7.26896 7.71903 7.85572 7.24917C7.54488 7.36513 7.20841 7.42852 6.85714 7.42852C5.27918 7.42852 4 6.14934 4 4.57138C4 2.99343 5.27918 1.71424 6.85714 1.71424C7.20826 1.71424 7.54458 1.77758 7.85531 1.89345C7.26862 1.42378 6.52423 1.1429 5.71425 1.1429C3.8207 1.1429 2.28568 2.67792 2.28568 4.57147C2.28568 6.46502 3.8207 8.00004 5.71425 8.00004ZM6.85714 3.99995C6.85714 4.31555 6.6013 4.57138 6.28571 4.57138C5.97012 4.57138 5.71428 4.31555 5.71428 3.99995C5.71428 3.68436 5.97012 3.42853 6.28571 3.42853C6.6013 3.42853 6.85714 3.68436 6.85714 3.99995ZM7.4286 6.85717C7.74419 6.85717 8.00003 6.60133 8.00003 6.28574C8.00003 5.97015 7.74419 5.71431 7.4286 5.71431C7.11301 5.71431 6.85717 5.97015 6.85717 6.28574C6.85717 6.60133 7.11301 6.85717 7.4286 6.85717ZM10.2857 6.28574C10.2857 6.60133 10.0299 6.85717 9.71428 6.85717C9.39869 6.85717 9.14285 6.60133 9.14285 6.28574C9.14285 5.97015 9.39869 5.71431 9.71428 5.71431C10.0299 5.71431 10.2857 5.97015 10.2857 6.28574ZM10.8572 4.57138C11.1728 4.57138 11.4286 4.31555 11.4286 3.99995C11.4286 3.68436 11.1728 3.42853 10.8572 3.42853C10.5416 3.42853 10.2857 3.68436 10.2857 3.99995C10.2857 4.31555 10.5416 4.57138 10.8572 4.57138ZM9.14282 2.28567C9.14282 2.60126 8.88698 2.8571 8.57139 2.8571C8.2558 2.8571 7.99996 2.60126 7.99996 2.28567C7.99996 1.97008 8.2558 1.71424 8.57139 1.71424C8.88698 1.71424 9.14282 1.97008 9.14282 2.28567Z"
          fill="white"/>
  </g>
</svg>
