<svg width="24" height="18" viewBox="0 0 24 18" fill="none" xmlns="http://www.w3.org/2000/svg">
  <rect width="24" height="17.1429" rx="2" fill="white"/>
  <mask id="mask0" mask-type="alpha" maskUnits="userSpaceOnUse" x="0" y="0" width="24" height="18">
    <rect width="24" height="17.1429" rx="2" fill="white"/>
  </mask>
  <g mask="url(#mask0)">
    <rect width="24" height="17.1429" fill="url(#paint0_linear)"/>
    <path fill-rule="evenodd" clip-rule="evenodd"
          d="M14.8571 8.57146C14.8571 7.7055 14.8571 6.69373 14.8571 5.90443C14.8571 5.16805 15.454 4.57146 16.1904 4.57146H19.238C19.9744 4.57146 20.5714 5.16805 20.5714 5.90443C20.5714 6.69373 20.5714 7.7055 20.5714 8.57146C20.5714 11.4286 17.7142 12.5715 17.7142 12.5715C17.7142 12.5715 14.8571 11.4286 14.8571 8.57146Z"
          fill="#8FC5FF"/>
    <mask id="mask1" mask-type="alpha" maskUnits="userSpaceOnUse" x="14" y="4" width="7" height="9">
      <path fill-rule="evenodd" clip-rule="evenodd"
            d="M14.8571 8.57146C14.8571 7.7055 14.8571 6.69373 14.8571 5.90443C14.8571 5.16805 15.454 4.57146 16.1904 4.57146H19.238C19.9744 4.57146 20.5714 5.16805 20.5714 5.90443C20.5714 6.69373 20.5714 7.7055 20.5714 8.57146C20.5714 11.4286 17.7142 12.5715 17.7142 12.5715C17.7142 12.5715 14.8571 11.4286 14.8571 8.57146Z"
            fill="white"/>
    </mask>
    <g mask="url(#mask1)">
      <path fill-rule="evenodd" clip-rule="evenodd"
            d="M17.2196 10.186C17.2196 10.186 17.7916 9.44532 18.1281 9.44532C18.4645 9.44532 18.5263 9.93713 19.0436 9.93713C19.561 9.93713 19.8338 9.15334 20.3321 9.15334C20.8304 9.15334 20.3321 11.7248 20.3321 11.7248L19.6569 12.4213L15.7043 12.8778L17.2196 10.186Z"
            fill="#366CC9"/>
      <path fill-rule="evenodd" clip-rule="evenodd"
            d="M15.5367 9.04393L16.0411 8.57147L16.5367 9.78493L17.2021 8.57147L17.7744 12.0304L16.8227 11.8368L13.7142 10.4155L15.5367 9.04393Z"
            fill="#CF6200"/>
      <rect x="14.8571" y="4.57146" width="5.71429" height="3.42857" fill="#FFFF00"/>
    </g>
    <path
      d="M15.1904 8.57146V8.48986V8.44876V8.40747V8.32437V8.24061V8.15627V8.1139V8.07141V8.0288V7.9861V7.94329V7.9004V7.85744V7.8144V7.80363V7.79824V7.79285V7.7713V7.72814V7.68494V7.64171V7.59845V7.55516V7.51187V7.49022V7.48481V7.4794V7.47398V7.46857V7.46316V7.45775V7.45234V7.44692V7.44151V7.4361V7.43069V7.42528V7.41987V7.41446V7.40905V7.40364V7.39823V7.39282V7.38741V7.382V7.37659V7.37119V7.36578V7.36037V7.35496V7.34956V7.34415V7.33875V7.33334V7.32794V7.32253V7.31713V7.31173V7.30632V7.30092V7.29552V7.29012V7.28472V7.27932V7.27392V7.26853V7.26313V7.25773V7.25234V7.24694V7.24155V7.23615V7.23076V7.22537V7.21998V7.21459V7.2092V7.20381V7.19842V7.19304V7.18765V7.18227V7.17688V7.1715V7.16612V7.16074V7.15536V7.14998V7.1446V7.13922V7.13385V7.12847V7.1231V7.11773V7.11236V7.10699V7.10162V7.09625V7.09089V7.08552V7.08016V7.07479V7.06943V7.06407V7.05871V7.05336V7.048V7.04265V7.03729V7.03194V7.02659V7.02124V7.0159V7.01055V7.00521V6.99986V6.99452V6.98918V6.98384V6.97851V6.97317V6.96784V6.96251V6.95718V6.95185V6.94652V6.9412V6.93587V6.93055V6.92523V6.91991V6.9146V6.90928V6.90397V6.89866V6.89335V6.88804V6.88273V6.87743V6.87213V6.86683V6.86153V6.85623V6.85094V6.84565V6.84036V6.83507V6.82978V6.8245V6.81922V6.81394V6.80866V6.80338V6.79811V6.79284V6.78757V6.7823V6.77704V6.77177V6.76126V6.74025V6.69834V6.65659V6.65138V6.64618V6.63577V6.615V6.57359V6.53237V6.49133V6.45049V6.36945V6.28931V6.21013V6.13198V6.05494V5.97907V5.90443C15.1904 5.35226 15.638 4.90479 16.1904 4.90479H19.238C19.7904 4.90479 20.238 5.35226 20.238 5.90443V5.90906V5.91369V5.91833V5.92297V5.92762V5.93227V5.93693V5.94159V5.94626V5.95093V5.95561V5.96029V5.96498V5.96967V5.97437V5.97907V5.98378V5.98849V5.9932V5.99792V6.00265V6.00738V6.01212V6.01686V6.0216V6.02635V6.0311V6.03586V6.04063V6.04539V6.05017V6.05494V6.05972V6.06451V6.0693V6.0741V6.0789V6.0837V6.08851V6.09332V6.09814V6.10296V6.10779V6.11262V6.11745V6.12229V6.12714V6.13198V6.13684V6.14169V6.14655V6.15142V6.15629V6.16116V6.16604V6.17092V6.17581V6.1807V6.18559V6.19049V6.1954V6.2003V6.20521V6.21013V6.21505V6.21997V6.2249V6.22983V6.23476V6.2397V6.24465V6.24959V6.25454V6.2595V6.26446V6.26942V6.27438V6.27935V6.28433V6.28931V6.29429V6.29927V6.30426V6.30925V6.31425V6.31925V6.32425V6.32926V6.33427V6.33929V6.3443V6.34933V6.35435V6.35938V6.36441V6.36945V6.37449V6.37953V6.38458V6.38963V6.39468V6.39974V6.4048V6.40986V6.41493V6.42V6.42507V6.43015V6.43523V6.44031V6.4454V6.45049V6.45559V6.46068V6.46578V6.47089V6.47599V6.4811V6.48621V6.49133V6.49645V6.50157V6.5067V6.51182V6.51695V6.52209V6.52723V6.53237V6.53751V6.54266V6.5478V6.55296V6.55811V6.56327V6.56843V6.57359V6.57876V6.58393V6.5891V6.59428V6.59945V6.60463V6.60982V6.615V6.62019V6.62538V6.63058V6.63578V6.64097V6.64618V6.65138V6.65659V6.6618V6.66701V6.67223V6.67744V6.68266V6.68789V6.69311V6.69834V6.70357V6.7088V6.71404V6.71927V6.72451V6.72975V6.735V6.74025V6.7455V6.75075V6.756V6.76126V6.76651V6.77178V6.77704V6.7823V6.78757V6.79284V6.79811V6.80338V6.80866V6.81394V6.81922V6.8245V6.82978V6.83507V6.84036V6.84565V6.85094V6.85623V6.86153V6.86683V6.87213V6.87743V6.88273V6.88804V6.89335V6.89866V6.90397V6.90928V6.9146V6.91991V6.92523V6.93055V6.93587V6.9412V6.94652V6.95185V6.95718V6.96251V6.96784V6.97317V6.97851V6.98384V6.98918V6.99452V6.99986V7.00521V7.01055V7.0159V7.02124V7.02659V7.03194V7.03729V7.04265V7.048V7.05336V7.05872V7.06407V7.06943V7.07479V7.08016V7.08552V7.09089V7.09625V7.10162V7.10699V7.11236V7.11773V7.1231V7.12847V7.13385V7.13922V7.1446V7.14998V7.15536V7.16074V7.16612V7.1715V7.17688V7.18227V7.18765V7.19304V7.19842V7.20381V7.2092V7.21459V7.21998V7.22537V7.23076V7.23615V7.24155V7.24694V7.25234V7.25773V7.26313V7.26853V7.27392V7.27932V7.28472V7.29012V7.29552V7.30092V7.30632V7.31173V7.31713V7.32253V7.32794V7.33334V7.33875V7.34415V7.34956V7.35496V7.36037V7.36578V7.37119V7.37659V7.382V7.38741V7.39282V7.39823V7.40364V7.40905V7.41446V7.41987V7.42528V7.43069V7.4361V7.44151V7.44692V7.45234V7.45775V7.46316V7.46857V7.47398V7.4794V7.48481V7.49022V7.49563V7.50104V7.50646V7.51187V7.51728V7.52269V7.5281V7.53352V7.53893V7.54434V7.54975V7.55516V7.56057V7.56598V7.5714V7.57681V7.58222V7.58763V7.59304V7.59845V7.60386V7.60926V7.61467V7.62008V7.62549V7.6309V7.6363V7.64171V7.64712V7.65252V7.65793V7.66333V7.66874V7.67414V7.67954V7.68494V7.69035V7.69575V7.70115V7.70655V7.71195V7.71735V7.72275V7.72814V7.73354V7.73894V7.74433V7.74973V7.75512V7.76051V7.76591V7.7713V7.77669V7.78208V7.78747V7.79285V7.79824V7.80363V7.80901V7.8144V7.81978V7.82516V7.83054V7.83593V7.8413V7.84668V7.85206V7.85744V7.86281V7.86819V7.87356V7.87893V7.8843V7.88967V7.89504V7.9004V7.90577V7.91113V7.9165V7.92186V7.92722V7.93258V7.93794V7.94329V7.94865V7.954V7.95936V7.96471V7.97006V7.9754V7.98075V7.9861V7.99144V7.99678V8.00212V8.00746V8.0128V8.01814V8.02347V8.0288V8.03413V8.03946V8.04479V8.05012V8.05544V8.06076V8.06609V8.07141V8.07672V8.08204V8.08735V8.09266V8.09798V8.10328V8.10859V8.1139V8.1192V8.1245V8.1298V8.1351V8.14039V8.14568V8.15098V8.15627V8.16155V8.16684V8.17212V8.1774V8.18268V8.18796V8.19323V8.19851V8.20378V8.20904V8.21431V8.21957V8.22484V8.2301V8.23535V8.24061V8.24586V8.25111V8.25636V8.2616V8.26685V8.27209V8.27733V8.28256V8.2878V8.29303V8.29826V8.30348V8.30871V8.31393V8.31915V8.32437V8.32958V8.33479V8.34V8.34521V8.35041V8.35561V8.36081V8.366V8.3712V8.37639V8.38157V8.38676V8.39194V8.39712V8.4023V8.40747V8.41264V8.41781V8.42298V8.42814V8.4333V8.43845V8.44361V8.44876V8.45391V8.45905V8.46419V8.46933V8.47447V8.4796V8.48473V8.48986V8.49498V8.5001V8.50522V8.51033V8.51544V8.52055V8.52566V8.53076V8.53586V8.54095V8.54605V8.55113V8.55622V8.5613V8.56638V8.57146C20.238 9.87604 19.5893 10.7926 18.9198 11.3951C18.5848 11.6966 18.2487 11.9152 17.9963 12.0582C17.8814 12.1234 17.7846 12.1724 17.7142 12.2061C17.6439 12.1724 17.5471 12.1234 17.4321 12.0582C17.1797 11.9152 16.8436 11.6966 16.5086 11.3951C15.8392 10.7926 15.1904 9.87604 15.1904 8.57146Z"
      stroke="white" stroke-width="0.666667"/>
    <mask id="mask2" mask-type="alpha" maskUnits="userSpaceOnUse" x="14" y="4" width="7" height="9">
      <path
        d="M15.1904 8.57146V8.48986V8.44876V8.40747V8.32437V8.24061V8.15627V8.1139V8.07141V8.0288V7.9861V7.94329V7.9004V7.85744V7.8144V7.80363V7.79824V7.79285V7.7713V7.72814V7.68494V7.64171V7.59845V7.55516V7.51187V7.49022V7.48481V7.4794V7.47398V7.46857V7.46316V7.45775V7.45234V7.44692V7.44151V7.4361V7.43069V7.42528V7.41987V7.41446V7.40905V7.40364V7.39823V7.39282V7.38741V7.382V7.37659V7.37119V7.36578V7.36037V7.35496V7.34956V7.34415V7.33875V7.33334V7.32794V7.32253V7.31713V7.31173V7.30632V7.30092V7.29552V7.29012V7.28472V7.27932V7.27392V7.26853V7.26313V7.25773V7.25234V7.24694V7.24155V7.23615V7.23076V7.22537V7.21998V7.21459V7.2092V7.20381V7.19842V7.19304V7.18765V7.18227V7.17688V7.1715V7.16612V7.16074V7.15536V7.14998V7.1446V7.13922V7.13385V7.12847V7.1231V7.11773V7.11236V7.10699V7.10162V7.09625V7.09089V7.08552V7.08016V7.07479V7.06943V7.06407V7.05871V7.05336V7.048V7.04265V7.03729V7.03194V7.02659V7.02124V7.0159V7.01055V7.00521V6.99986V6.99452V6.98918V6.98384V6.97851V6.97317V6.96784V6.96251V6.95718V6.95185V6.94652V6.9412V6.93587V6.93055V6.92523V6.91991V6.9146V6.90928V6.90397V6.89866V6.89335V6.88804V6.88273V6.87743V6.87213V6.86683V6.86153V6.85623V6.85094V6.84565V6.84036V6.83507V6.82978V6.8245V6.81922V6.81394V6.80866V6.80338V6.79811V6.79284V6.78757V6.7823V6.77704V6.77177V6.76126V6.74025V6.69834V6.65659V6.65138V6.64618V6.63577V6.615V6.57359V6.53237V6.49133V6.45049V6.36945V6.28931V6.21013V6.13198V6.05494V5.97907V5.90443C15.1904 5.35226 15.638 4.90479 16.1904 4.90479H19.238C19.7904 4.90479 20.238 5.35226 20.238 5.90443V5.90906V5.91369V5.91833V5.92297V5.92762V5.93227V5.93693V5.94159V5.94626V5.95093V5.95561V5.96029V5.96498V5.96967V5.97437V5.97907V5.98378V5.98849V5.9932V5.99792V6.00265V6.00738V6.01212V6.01686V6.0216V6.02635V6.0311V6.03586V6.04063V6.04539V6.05017V6.05494V6.05972V6.06451V6.0693V6.0741V6.0789V6.0837V6.08851V6.09332V6.09814V6.10296V6.10779V6.11262V6.11745V6.12229V6.12714V6.13198V6.13684V6.14169V6.14655V6.15142V6.15629V6.16116V6.16604V6.17092V6.17581V6.1807V6.18559V6.19049V6.1954V6.2003V6.20521V6.21013V6.21505V6.21997V6.2249V6.22983V6.23476V6.2397V6.24465V6.24959V6.25454V6.2595V6.26446V6.26942V6.27438V6.27935V6.28433V6.28931V6.29429V6.29927V6.30426V6.30925V6.31425V6.31925V6.32425V6.32926V6.33427V6.33929V6.3443V6.34933V6.35435V6.35938V6.36441V6.36945V6.37449V6.37953V6.38458V6.38963V6.39468V6.39974V6.4048V6.40986V6.41493V6.42V6.42507V6.43015V6.43523V6.44031V6.4454V6.45049V6.45559V6.46068V6.46578V6.47089V6.47599V6.4811V6.48621V6.49133V6.49645V6.50157V6.5067V6.51182V6.51695V6.52209V6.52723V6.53237V6.53751V6.54266V6.5478V6.55296V6.55811V6.56327V6.56843V6.57359V6.57876V6.58393V6.5891V6.59428V6.59945V6.60463V6.60982V6.615V6.62019V6.62538V6.63058V6.63578V6.64097V6.64618V6.65138V6.65659V6.6618V6.66701V6.67223V6.67744V6.68266V6.68789V6.69311V6.69834V6.70357V6.7088V6.71404V6.71927V6.72451V6.72975V6.735V6.74025V6.7455V6.75075V6.756V6.76126V6.76651V6.77178V6.77704V6.7823V6.78757V6.79284V6.79811V6.80338V6.80866V6.81394V6.81922V6.8245V6.82978V6.83507V6.84036V6.84565V6.85094V6.85623V6.86153V6.86683V6.87213V6.87743V6.88273V6.88804V6.89335V6.89866V6.90397V6.90928V6.9146V6.91991V6.92523V6.93055V6.93587V6.9412V6.94652V6.95185V6.95718V6.96251V6.96784V6.97317V6.97851V6.98384V6.98918V6.99452V6.99986V7.00521V7.01055V7.0159V7.02124V7.02659V7.03194V7.03729V7.04265V7.048V7.05336V7.05872V7.06407V7.06943V7.07479V7.08016V7.08552V7.09089V7.09625V7.10162V7.10699V7.11236V7.11773V7.1231V7.12847V7.13385V7.13922V7.1446V7.14998V7.15536V7.16074V7.16612V7.1715V7.17688V7.18227V7.18765V7.19304V7.19842V7.20381V7.2092V7.21459V7.21998V7.22537V7.23076V7.23615V7.24155V7.24694V7.25234V7.25773V7.26313V7.26853V7.27392V7.27932V7.28472V7.29012V7.29552V7.30092V7.30632V7.31173V7.31713V7.32253V7.32794V7.33334V7.33875V7.34415V7.34956V7.35496V7.36037V7.36578V7.37119V7.37659V7.382V7.38741V7.39282V7.39823V7.40364V7.40905V7.41446V7.41987V7.42528V7.43069V7.4361V7.44151V7.44692V7.45234V7.45775V7.46316V7.46857V7.47398V7.4794V7.48481V7.49022V7.49563V7.50104V7.50646V7.51187V7.51728V7.52269V7.5281V7.53352V7.53893V7.54434V7.54975V7.55516V7.56057V7.56598V7.5714V7.57681V7.58222V7.58763V7.59304V7.59845V7.60386V7.60926V7.61467V7.62008V7.62549V7.6309V7.6363V7.64171V7.64712V7.65252V7.65793V7.66333V7.66874V7.67414V7.67954V7.68494V7.69035V7.69575V7.70115V7.70655V7.71195V7.71735V7.72275V7.72814V7.73354V7.73894V7.74433V7.74973V7.75512V7.76051V7.76591V7.7713V7.77669V7.78208V7.78747V7.79285V7.79824V7.80363V7.80901V7.8144V7.81978V7.82516V7.83054V7.83593V7.8413V7.84668V7.85206V7.85744V7.86281V7.86819V7.87356V7.87893V7.8843V7.88967V7.89504V7.9004V7.90577V7.91113V7.9165V7.92186V7.92722V7.93258V7.93794V7.94329V7.94865V7.954V7.95936V7.96471V7.97006V7.9754V7.98075V7.9861V7.99144V7.99678V8.00212V8.00746V8.0128V8.01814V8.02347V8.0288V8.03413V8.03946V8.04479V8.05012V8.05544V8.06076V8.06609V8.07141V8.07672V8.08204V8.08735V8.09266V8.09798V8.10328V8.10859V8.1139V8.1192V8.1245V8.1298V8.1351V8.14039V8.14568V8.15098V8.15627V8.16155V8.16684V8.17212V8.1774V8.18268V8.18796V8.19323V8.19851V8.20378V8.20904V8.21431V8.21957V8.22484V8.2301V8.23535V8.24061V8.24586V8.25111V8.25636V8.2616V8.26685V8.27209V8.27733V8.28256V8.2878V8.29303V8.29826V8.30348V8.30871V8.31393V8.31915V8.32437V8.32958V8.33479V8.34V8.34521V8.35041V8.35561V8.36081V8.366V8.3712V8.37639V8.38157V8.38676V8.39194V8.39712V8.4023V8.40747V8.41264V8.41781V8.42298V8.42814V8.4333V8.43845V8.44361V8.44876V8.45391V8.45905V8.46419V8.46933V8.47447V8.4796V8.48473V8.48986V8.49498V8.5001V8.50522V8.51033V8.51544V8.52055V8.52566V8.53076V8.53586V8.54095V8.54605V8.55113V8.55622V8.5613V8.56638V8.57146C20.238 9.87604 19.5893 10.7926 18.9198 11.3951C18.5848 11.6966 18.2487 11.9152 17.9963 12.0582C17.8814 12.1234 17.7846 12.1724 17.7142 12.2061C17.6439 12.1724 17.5471 12.1234 17.4321 12.0582C17.1797 11.9152 16.8436 11.6966 16.5086 11.3951C15.8392 10.7926 15.1904 9.87604 15.1904 8.57146Z"
        fill="white" stroke="white" stroke-width="0.666667"/>
    </mask>
    <g mask="url(#mask2)">
    </g>
    <path
      d="M0 -0.333333H-0.901086L-0.21693 0.253086L3.66667 3.58188V4.39989L-0.193746 7.15733L-0.333333 7.25703V7.42857V8V8.60141L0.176666 8.28267L4.66703 5.47619H5.60746L9.47126 8.23604C9.55984 8.29932 9.66599 8.33333 9.77485 8.33333C10.2598 8.33333 10.4829 7.73003 10.1148 7.41445L6.61905 4.41812V3.60011L10.3399 0.942378C10.5151 0.817237 10.619 0.61519 10.619 0.399889V0V-0.601416L10.109 -0.282666L5.61869 2.52381H4.67825L0.765175 -0.271244L0.67825 -0.333333H0.571429H0Z"
      fill="#DB1E36" stroke="white" stroke-width="0.666667"/>
    <path fill-rule="evenodd" clip-rule="evenodd"
          d="M0 2.85714V5.14286H4V7.90476C4 8.27295 4.29848 8.57143 4.66667 8.57143H5.61905C5.98724 8.57143 6.28571 8.27295 6.28571 7.90476V5.14286H10.1905C10.5587 5.14286 10.8571 4.84438 10.8571 4.47619V3.52381C10.8571 3.15562 10.5587 2.85714 10.1905 2.85714H6.28571V0H4V2.85714H0Z"
          fill="white"/>
    <path fill-rule="evenodd" clip-rule="evenodd"
          d="M0 3.42857H4.57143V2.85714V0H5.71429V2.85714V3.42857H10.2857V4.57143H5.71429V5.14286V8H4.57143V5.14286V4.57143H0V3.42857Z"
          fill="#DB1E36"/>
  </g>
  <defs>
    <linearGradient id="paint0_linear" x1="0" y1="0" x2="0" y2="17.1429" gradientUnits="userSpaceOnUse">
      <stop stop-color="#07319C"/>
      <stop offset="1" stop-color="#00247E"/>
    </linearGradient>
  </defs>
</svg>
