<svg width="24" height="18" viewBox="0 0 24 18" fill="none" xmlns="http://www.w3.org/2000/svg">
  <rect x="0.25" y="0.25" width="23.5" height="16.6429" rx="1.75" fill="white" stroke="#F5F5F5" stroke-width="0.5"/>
  <mask id="mask0" mask-type="alpha" maskUnits="userSpaceOnUse" x="0" y="0" width="24" height="18">
    <rect x="0.25" y="0.25" width="23.5" height="16.6429" rx="1.75" fill="white" stroke="white" stroke-width="0.5"/>
  </mask>
  <g mask="url(#mask0)">
    <path fill-rule="evenodd" clip-rule="evenodd"
          d="M0 11.4285H24V5.71425H7.92341V4.5714C7.92341 4.5714 7.11743 3.99997 6.28571 3.99997C5.454 3.99997 4.57143 4.5714 4.57143 4.5714V5.71425H0V11.4285ZM7.42857 6.85708C7.42857 7.48826 6.9169 7.99993 6.28571 7.99993C5.65453 7.99993 5.14286 7.48826 5.14286 6.85708C5.14286 6.22589 5.65453 5.71422 6.28571 5.71422C6.9169 5.71422 7.42857 6.22589 7.42857 6.85708Z"
          fill="#0C47B7"/>
    <g filter="url(#filter0_d)">
      <path fill-rule="evenodd" clip-rule="evenodd" d="M0 17.1429H24V11.4286H0V17.1429Z" fill="#E53B35"/>
    </g>
  </g>
  <defs>
    <filter id="filter0_d" x="0" y="11.4286" width="24" height="5.71429" filterUnits="userSpaceOnUse"
            color-interpolation-filters="sRGB">
      <feFlood flood-opacity="0" result="BackgroundImageFix"/>
      <feColorMatrix in="SourceAlpha" type="matrix" values="0 0 0 0 0 0 0 0 0 0 0 0 0 0 0 0 0 0 127 0"/>
      <feOffset/>
      <feColorMatrix type="matrix" values="0 0 0 0 0 0 0 0 0 0 0 0 0 0 0 0 0 0 0.06 0"/>
      <feBlend mode="normal" in2="BackgroundImageFix" result="effect1_dropShadow"/>
      <feBlend mode="normal" in="SourceGraphic" in2="effect1_dropShadow" result="shape"/>
    </filter>
  </defs>
</svg>
