<svg width="24" height="18" viewBox="0 0 24 18" fill="none" xmlns="http://www.w3.org/2000/svg">
  <rect x="0.25" y="0.25" width="23.5" height="16.6429" rx="1.75" fill="white" stroke="#F5F5F5" stroke-width="0.5"/>
  <mask id="mask0" mask-type="alpha" maskUnits="userSpaceOnUse" x="0" y="0" width="24" height="18">
    <rect x="0.25" y="0.25" width="23.5" height="16.6429" rx="1.75" fill="white" stroke="white" stroke-width="0.5"/>
  </mask>
  <g mask="url(#mask0)">
    <path fill-rule="evenodd" clip-rule="evenodd" d="M0 11.4285H24V5.71425H0V11.4285Z" fill="#0C47B7"/>
    <path fill-rule="evenodd" clip-rule="evenodd" d="M0 17.1429H24V11.4286H0V17.1429Z" fill="#E53B35"/>
    <path
      d="M11.0026 2.76191H6.14013C5.06547 2.76191 4.18291 3.61117 4.14161 4.68504L3.92998 10.1874C3.90651 10.7977 4.16319 11.3853 4.62692 11.7828L6.83594 13.6762C7.83458 14.5322 9.30819 14.5322 10.3068 13.6762L12.5158 11.7828C12.9796 11.3853 13.2363 10.7977 13.2128 10.1874L13.0012 4.68504C12.9599 3.61117 12.0773 2.76191 11.0026 2.76191Z"
      fill="#F73744" stroke="white" stroke-width="1.33333"/>
    <mask id="mask1" mask-type="alpha" maskUnits="userSpaceOnUse" x="3" y="2" width="11" height="13">
      <path
        d="M11.0026 2.76191H6.14013C5.06547 2.76191 4.18291 3.61117 4.14161 4.68504L3.92998 10.1874C3.90651 10.7977 4.16319 11.3853 4.62692 11.7828L6.83594 13.6762C7.83458 14.5322 9.30819 14.5322 10.3068 13.6762L12.5158 11.7828C12.9796 11.3853 13.2363 10.7977 13.2128 10.1874L13.0012 4.68504C12.9599 3.61117 12.0773 2.76191 11.0026 2.76191Z"
        fill="white" stroke="white" stroke-width="1.33333"/>
    </mask>
    <g mask="url(#mask1)">
      <path fill-rule="evenodd" clip-rule="evenodd"
            d="M7.99993 9.4762C7.99993 9.29211 7.85069 9.14287 7.6666 9.14287H6.61898C6.43488 9.14287 6.28564 8.99363 6.28564 8.80954V8.33335C6.28564 8.14925 6.43488 8.00001 6.61898 8.00001H7.6666C7.85069 8.00001 7.99993 7.85077 7.99993 7.66668V7.19049C7.99993 7.00639 7.85069 6.85716 7.6666 6.85716H7.19041C7.00631 6.85716 6.85707 6.70792 6.85707 6.52382V6.04763C6.85707 5.86354 7.00631 5.7143 7.19041 5.7143H7.6666C7.85069 5.7143 7.99993 5.56506 7.99993 5.38097V4.90478C7.99993 4.72068 8.14917 4.57144 8.33326 4.57144H8.80945C8.99355 4.57144 9.14279 4.72068 9.14279 4.90477V5.38097C9.14279 5.56506 9.29203 5.7143 9.47612 5.7143H9.95231C10.1364 5.7143 10.2856 5.86354 10.2856 6.04763V6.52382C10.2856 6.70792 10.1364 6.85716 9.95231 6.85716H9.47612C9.29203 6.85716 9.14279 7.00639 9.14279 7.19049V7.66668C9.14279 7.85077 9.29203 8.00001 9.47612 8.00001H10.5237C10.7078 8.00001 10.8571 8.14925 10.8571 8.33335V8.80954C10.8571 8.99363 10.7078 9.14287 10.5237 9.14287H9.47612C9.29203 9.14287 9.14279 9.29211 9.14279 9.4762V11.0953C9.14279 11.2793 8.99355 11.4286 8.80945 11.4286H8.33326C8.14917 11.4286 7.99993 11.2793 7.99993 11.0953V9.4762Z"
            fill="white"/>
      <path fill-rule="evenodd" clip-rule="evenodd"
            d="M9.60297 11.5074C9.419 11.1228 9.02622 10.8571 8.57139 10.8571C8.11656 10.8571 7.72378 11.1228 7.53981 11.5074C6.15037 11.7264 5.14286 12.3757 5.14286 13.1428C5.14286 14.0895 6.67788 14.8571 8.57143 14.8571C10.465 14.8571 12 14.0895 12 13.1428C12 12.3757 10.9924 11.7263 9.60297 11.5074Z"
            fill="#1251A1"/>
    </g>
  </g>
</svg>
