<svg width="24" height="18" viewBox="0 0 24 18" fill="none" xmlns="http://www.w3.org/2000/svg">
  <rect x="0.25" y="0.25" width="23.5" height="16.6429" rx="1.75" fill="white" stroke="#F5F5F5" stroke-width="0.5"/>
  <mask id="mask0" mask-type="alpha" maskUnits="userSpaceOnUse" x="0" y="0" width="24" height="18">
    <rect x="0.25" y="0.25" width="23.5" height="16.6429" rx="1.75" fill="white" stroke="white" stroke-width="0.5"/>
  </mask>
  <g mask="url(#mask0)">
    <path fill-rule="evenodd" clip-rule="evenodd" d="M0 17.1429H24V8.00003H0V17.1429Z" fill="#7CCCF5"/>
    <path
      d="M10.381 8.00003C10.381 7.63184 10.0825 7.33336 9.71432 7.33336C9.34614 7.33336 9.04766 7.63184 9.04766 8.00003H10.381ZM10.52 10.5551C10.8384 10.7399 11.2464 10.6315 11.4312 10.313C11.616 9.99456 11.5076 9.5866 11.1891 9.40181L10.52 10.5551ZM12.8707 9.36541C12.5605 9.56379 12.4699 9.97606 12.6683 10.2862C12.8667 10.5964 13.2789 10.687 13.5891 10.4887L12.8707 9.36541ZM14.9524 8.00007C14.9524 7.63188 14.6539 7.3334 14.2858 7.3334C13.9176 7.3334 13.6191 7.63188 13.6191 8.00007H14.9524ZM9.04766 8.00003C9.04766 9.09227 9.64112 10.0451 10.52 10.5551L11.1891 9.40181C10.7045 9.1206 10.381 8.59771 10.381 8.00003H9.04766ZM13.5891 10.4887C14.4075 9.96523 14.9524 9.0465 14.9524 8.00007H13.6191C13.6191 8.57282 13.3222 9.07667 12.8707 9.36541L13.5891 10.4887Z"
      fill="#445F42"/>
    <path fill-rule="evenodd" clip-rule="evenodd"
          d="M12 9.14282C12.6311 9.14282 13.1428 8.37531 13.1428 7.42853C13.1428 6.48176 12.6311 5.71425 12 5.71425C11.3688 5.71425 10.8571 6.48176 10.8571 7.42853C10.8571 8.37531 11.3688 9.14282 12 9.14282Z"
          fill="#D89F3D"/>
  </g>
</svg>
