<svg width="24" height="18" viewBox="0 0 24 18" fill="none" xmlns="http://www.w3.org/2000/svg">
  <rect width="24" height="17.1429" rx="2" fill="white"/>
  <mask id="mask0" mask-type="alpha" maskUnits="userSpaceOnUse" x="0" y="0" width="24" height="18">
    <rect width="24" height="17.1429" rx="2" fill="white"/>
  </mask>
  <g mask="url(#mask0)">
    <path fill-rule="evenodd" clip-rule="evenodd" d="M0 17.1429H24V11.4286H0V17.1429Z" fill="#2ACB41"/>
    <path fill-rule="evenodd" clip-rule="evenodd" d="M0 5.71429H24V0H0V5.71429Z" fill="#2ACB41"/>
    <path fill-rule="evenodd" clip-rule="evenodd" d="M0 11.4285H24V5.71425H0V11.4285Z" fill="#FDD043"/>
    <path fill-rule="evenodd" clip-rule="evenodd" d="M0 0L9.14286 8.57143L0 17.1429V0Z" fill="#E71E43"/>
    <path fill-rule="evenodd" clip-rule="evenodd"
          d="M12.5714 9.50861L11.2279 10.4206L11.6802 8.86106L10.3976 7.86514L12.0206 7.8133L12.5714 6.28575L13.1223 7.8133L14.7453 7.86514L13.4627 8.86106L13.9149 10.4206L12.5714 9.50861Z"
          fill="#262626"/>
    <path fill-rule="evenodd" clip-rule="evenodd"
          d="M18.2857 9.50861L16.9422 10.4206L17.3944 8.86106L16.1118 7.86514L17.7348 7.8133L18.2857 6.28575L18.8365 7.8133L20.4595 7.86514L19.177 8.86106L19.6292 10.4206L18.2857 9.50861Z"
          fill="#262626"/>
  </g>
</svg>
