<svg width="24" height="18" viewBox="0 0 24 18" fill="none" xmlns="http://www.w3.org/2000/svg">
  <rect x="0.25" y="0.25" width="23.5" height="16.6429" rx="1.75" fill="white" stroke="#F5F5F5" stroke-width="0.5"/>
  <mask id="mask0" mask-type="alpha" maskUnits="userSpaceOnUse" x="0" y="0" width="24" height="18">
    <rect x="0.25" y="0.25" width="23.5" height="16.6429" rx="1.75" fill="white" stroke="white" stroke-width="0.5"/>
  </mask>
  <g mask="url(#mask0)">
    <path fill-rule="evenodd" clip-rule="evenodd" d="M0 5.71429H24V0H0V5.71429Z" fill="#1B57C4"/>
    <path fill-rule="evenodd" clip-rule="evenodd" d="M0 17.1429H24V11.4286H0V17.1429Z" fill="#1B57C4"/>
    <path fill-rule="evenodd" clip-rule="evenodd"
          d="M10.6285 6.74278C10.0734 7.15979 9.71432 7.82369 9.71432 8.57146C9.71432 9.83383 10.7377 10.8572 12 10.8572C13.2624 10.8572 14.2858 9.83383 14.2858 8.57146C14.2858 7.82367 13.9267 7.15975 13.3715 6.74274L12.5714 9.1429H11.4286L10.6285 6.74278Z"
          fill="url(#paint0_linear)"/>
    <path fill-rule="evenodd" clip-rule="evenodd" d="M12 6.28574L12.5715 9.14288H11.4286L12 6.28574Z" fill="#F9C92E"/>
  </g>
  <defs>
    <linearGradient id="paint0_linear" x1="9.71432" y1="6.74274" x2="9.71432" y2="10.8572"
                    gradientUnits="userSpaceOnUse">
      <stop stop-color="#3C7839"/>
      <stop offset="1" stop-color="#31642E"/>
    </linearGradient>
  </defs>
</svg>
