<svg width="24" height="18" viewBox="0 0 24 18" fill="none" xmlns="http://www.w3.org/2000/svg">
<path fill-rule="evenodd" clip-rule="evenodd" d="M0 2C0 0.89543 0.895431 0 2 0H22C23.1046 0 24 0.895431 24 2V16C24 17.1046 23.1046 18 22 18H2C0.89543 18 0 17.1046 0 16V2Z" fill="#CE1126"/>
<path d="M0 2C0 0.89543 0.895431 0 2 0H12V9H0V2Z" fill="#002B7F"/>
<path fill-rule="evenodd" clip-rule="evenodd" d="M6.74733 8.59758L5.97109 8.07258L5.22484 8.60133L5.46859 7.66758L4.75609 7.09758L5.67484 7.04133L5.97859 6.15633L6.30859 7.05633L7.20858 7.08258L6.49609 7.69383L6.74733 8.59758ZM6.61233 2.38758L5.98984 1.98633L5.38984 2.37633L5.55484 1.62633L5.00734 1.15008L5.73484 1.09008L6.00484 0.392578L6.28234 1.09383L6.99858 1.15758L6.44734 1.66008L6.61233 2.38758ZM3.87484 4.61883L3.27484 4.20633L2.64859 4.61883L2.84359 3.89133L2.27734 3.41133L2.99734 3.37383L3.25984 2.66133L3.51484 3.37008L4.24984 3.41133L3.68734 3.88008L3.87484 4.61883ZM9.37233 4.12383L8.79483 3.74883L8.23233 4.12383L8.39733 3.43758L7.87233 2.99508L8.55858 2.93883L8.79483 2.29383L9.05733 2.94633L9.72108 2.98383L9.20733 3.44508L9.37233 4.12383ZM7.75608 5.75133L7.36983 5.51133L6.98358 5.75883L7.08483 5.29758L6.73983 4.98633L7.18983 4.94883L7.36233 4.51383L7.54608 4.94883L7.99233 4.98633L7.65108 5.29758L7.75608 5.75133Z" fill="white"/>
</svg>
