<svg width="24" height="18" viewBox="0 0 24 18" fill="none" xmlns="http://www.w3.org/2000/svg">
  <rect x="0.25" y="0.25" width="23.5" height="16.6429" rx="1.75" fill="white" stroke="#F5F5F5" stroke-width="0.5"/>
  <mask id="mask0" mask-type="alpha" maskUnits="userSpaceOnUse" x="0" y="0" width="24" height="18">
    <rect x="0.25" y="0.25" width="23.5" height="16.6429" rx="1.75" fill="white" stroke="white" stroke-width="0.5"/>
  </mask>
  <g mask="url(#mask0)">
    <path fill-rule="evenodd" clip-rule="evenodd" d="M0 17.1429H24V11.4286H0V17.1429Z" fill="#262626"/>
    <path fill-rule="evenodd" clip-rule="evenodd" d="M0 5.71429H24V0H0V5.71429Z" fill="#E32139"/>
    <path fill-rule="evenodd" clip-rule="evenodd"
          d="M7.99996 9.50861L6.65645 10.4206L7.10869 8.86106L5.82612 7.86514L7.44912 7.8133L7.99996 6.28575L8.5508 7.8133L10.1738 7.86514L8.89124 8.86106L9.34347 10.4206L7.99996 9.50861Z"
          fill="#128A49"/>
    <path fill-rule="evenodd" clip-rule="evenodd"
          d="M16 9.50861L14.6565 10.4206L15.1087 8.86106L13.8262 7.86514L15.4492 7.8133L16 6.28575L16.5508 7.8133L18.1738 7.86514L16.8913 8.86106L17.3435 10.4206L16 9.50861Z"
          fill="#128A49"/>
  </g>
</svg>
