<svg width="24" height="18" viewBox="0 0 24 18" fill="none" xmlns="http://www.w3.org/2000/svg">
  <rect width="24" height="17.1429" rx="2" fill="white"/>
  <mask id="mask0" mask-type="alpha" maskUnits="userSpaceOnUse" x="0" y="0" width="24" height="18">
    <rect width="24" height="17.1429" rx="2" fill="white"/>
  </mask>
  <g mask="url(#mask0)">
    <rect width="24" height="17.1429" fill="#07319C"/>
    <path
      d="M15.1905 8.57147V8.48987V8.44877V8.40749V8.32438V8.24062V8.15628V8.11391V8.07142V8.02882V7.98611V7.94331V7.90042V7.85745V7.81441V7.80364V7.79826V7.79287V7.77131V7.72816V7.68496V7.64172V7.59846V7.55518V7.51188V7.49023V7.48482V7.47941V7.474V7.46859V7.46317V7.45776V7.45235V7.44694V7.44153V7.43612V7.43071V7.42529V7.41988V7.41447V7.40906V7.40365V7.39824V7.39283V7.38743V7.38202V7.37661V7.3712V7.36579V7.36039V7.35498V7.34957V7.34417V7.33876V7.33336V7.32795V7.32255V7.31714V7.31174V7.30634V7.30094V7.29554V7.29014V7.28474V7.27934V7.27394V7.26854V7.26314V7.25775V7.25235V7.24696V7.24156V7.23617V7.23078V7.22538V7.21999V7.2146V7.20921V7.20383V7.19844V7.19305V7.18767V7.18228V7.1769V7.17151V7.16613V7.16075V7.15537V7.14999V7.14462V7.13924V7.13386V7.12849V7.12312V7.11774V7.11237V7.107V7.10163V7.09627V7.0909V7.08554V7.08017V7.07481V7.06945V7.06409V7.05873V7.05337V7.04802V7.04266V7.03731V7.03196V7.02661V7.02126V7.01591V7.01057V7.00522V6.99988V6.99454V6.9892V6.98386V6.97852V6.97319V6.96785V6.96252V6.95719V6.95186V6.94654V6.94121V6.93589V6.93057V6.92525V6.91993V6.91461V6.9093V6.90398V6.89867V6.89336V6.88805V6.88275V6.87744V6.87214V6.86684V6.86155V6.85625V6.85095V6.84566V6.84037V6.83508V6.8298V6.82451V6.81923V6.81395V6.80867V6.8034V6.79813V6.79285V6.78758V6.78232V6.77705V6.77179V6.76127V6.74026V6.69835V6.6566V6.6514V6.64619V6.63579V6.61502V6.57361V6.53238V6.49134V6.45051V6.36946V6.28932V6.21014V6.132V6.05496V5.97908V5.90445C15.1905 5.35228 15.6381 4.90481 16.1905 4.90481H19.2381C19.7905 4.90481 20.2381 5.35228 20.2381 5.90445V5.90907V5.91371V5.91834V5.92299V5.92763V5.93229V5.93694V5.94161V5.94627V5.95095V5.95562V5.96031V5.96499V5.96969V5.97438V5.97908V5.98379V5.9885V5.99322V5.99794V6.00267V6.0074V6.01213V6.01687V6.02162V6.02636V6.03112V6.03588V6.04064V6.04541V6.05018V6.05496V6.05974V6.06453V6.06932V6.07411V6.07891V6.08372V6.08852V6.09334V6.09815V6.10298V6.1078V6.11263V6.11747V6.12231V6.12715V6.132V6.13685V6.14171V6.14657V6.15144V6.1563V6.16118V6.16606V6.17094V6.17582V6.18072V6.18561V6.19051V6.19541V6.20032V6.20523V6.21014V6.21506V6.21999V6.22491V6.22984V6.23478V6.23972V6.24466V6.24961V6.25456V6.25951V6.26447V6.26943V6.2744V6.27937V6.28434V6.28932V6.2943V6.29929V6.30428V6.30927V6.31427V6.31927V6.32427V6.32928V6.33429V6.3393V6.34432V6.34934V6.35437V6.3594V6.36443V6.36946V6.3745V6.37955V6.38459V6.38964V6.3947V6.39975V6.40481V6.40988V6.41494V6.42002V6.42509V6.43017V6.43525V6.44033V6.44542V6.45051V6.4556V6.4607V6.4658V6.4709V6.47601V6.48112V6.48623V6.49134V6.49646V6.50159V6.50671V6.51184V6.51697V6.5221V6.52724V6.53238V6.53752V6.54267V6.54782V6.55297V6.55813V6.56328V6.56845V6.57361V6.57878V6.58394V6.58912V6.59429V6.59947V6.60465V6.60983V6.61502V6.62021V6.6254V6.63059V6.63579V6.64099V6.64619V6.6514V6.6566V6.66181V6.66703V6.67224V6.67746V6.68268V6.6879V6.69313V6.69835V6.70358V6.70882V6.71405V6.71929V6.72453V6.72977V6.73501V6.74026V6.74551V6.75076V6.75602V6.76127V6.76653V6.77179V6.77705V6.78232V6.78758V6.79285V6.79813V6.8034V6.80867V6.81395V6.81923V6.82451V6.8298V6.83508V6.84037V6.84566V6.85096V6.85625V6.86155V6.86684V6.87214V6.87745V6.88275V6.88805V6.89336V6.89867V6.90398V6.9093V6.91461V6.91993V6.92525V6.93057V6.93589V6.94121V6.94654V6.95186V6.95719V6.96252V6.96785V6.97319V6.97852V6.98386V6.9892V6.99454V6.99988V7.00522V7.01057V7.01591V7.02126V7.02661V7.03196V7.03731V7.04266V7.04802V7.05337V7.05873V7.06409V7.06945V7.07481V7.08017V7.08554V7.0909V7.09627V7.10163V7.107V7.11237V7.11774V7.12312V7.12849V7.13386V7.13924V7.14462V7.14999V7.15537V7.16075V7.16613V7.17151V7.1769V7.18228V7.18767V7.19305V7.19844V7.20383V7.20921V7.2146V7.21999V7.22538V7.23078V7.23617V7.24156V7.24696V7.25235V7.25775V7.26314V7.26854V7.27394V7.27934V7.28474V7.29014V7.29554V7.30094V7.30634V7.31174V7.31714V7.32255V7.32795V7.33336V7.33876V7.34417V7.34957V7.35498V7.36039V7.36579V7.3712V7.37661V7.38202V7.38743V7.39283V7.39824V7.40365V7.40906V7.41447V7.41988V7.42529V7.43071V7.43612V7.44153V7.44694V7.45235V7.45776V7.46317V7.46859V7.474V7.47941V7.48482V7.49023V7.49565V7.50106V7.50647V7.51188V7.5173V7.52271V7.52812V7.53353V7.53894V7.54436V7.54977V7.55518V7.56059V7.566V7.57141V7.57682V7.58223V7.58764V7.59305V7.59846V7.60387V7.60928V7.61469V7.6201V7.6255V7.63091V7.63632V7.64172V7.64713V7.65254V7.65794V7.66335V7.66875V7.67415V7.67956V7.68496V7.69036V7.69576V7.70116V7.70656V7.71196V7.71736V7.72276V7.72816V7.73356V7.73895V7.74435V7.74974V7.75514V7.76053V7.76592V7.77131V7.7767V7.78209V7.78748V7.79287V7.79826V7.80364V7.80903V7.81441V7.8198V7.82518V7.83056V7.83594V7.84132V7.8467V7.85208V7.85745V7.86283V7.8682V7.87357V7.87894V7.88432V7.88968V7.89505V7.90042V7.90579V7.91115V7.91651V7.92187V7.92724V7.93259V7.93795V7.94331V7.94866V7.95402V7.95937V7.96472V7.97007V7.97542V7.98077V7.98611V7.99146V7.9968V8.00214V8.00748V8.01281V8.01815V8.02349V8.02882V8.03415V8.03948V8.04481V8.05013V8.05546V8.06078V8.0661V8.07142V8.07674V8.08205V8.08737V8.09268V8.09799V8.1033V8.10861V8.11391V8.11921V8.12451V8.12981V8.13511V8.14041V8.1457V8.15099V8.15628V8.16157V8.16685V8.17214V8.17742V8.1827V8.18797V8.19325V8.19852V8.20379V8.20906V8.21433V8.21959V8.22485V8.23011V8.23537V8.24062V8.24588V8.25113V8.25637V8.26162V8.26686V8.2721V8.27734V8.28258V8.28781V8.29304V8.29827V8.3035V8.30872V8.31395V8.31916V8.32438V8.32959V8.33481V8.34001V8.34522V8.35042V8.35563V8.36082V8.36602V8.37121V8.3764V8.38159V8.38677V8.39196V8.39714V8.40231V8.40749V8.41266V8.41783V8.42299V8.42815V8.43331V8.43847V8.44362V8.44877V8.45392V8.45907V8.46421V8.46935V8.47448V8.47962V8.48475V8.48987V8.495V8.50012V8.50523V8.51035V8.51546V8.52057V8.52567V8.53077V8.53587V8.54097V8.54606V8.55115V8.55624V8.56132V8.5664V8.57147C20.2381 9.87605 19.5894 10.7926 18.9199 11.3951C18.5849 11.6966 18.2488 11.9152 17.9964 12.0582C17.8815 12.1234 17.7847 12.1724 17.7143 12.2061C17.644 12.1724 17.5472 12.1234 17.4322 12.0582C17.1798 11.9152 16.8437 11.6966 16.5087 11.3951C15.8393 10.7926 15.1905 9.87605 15.1905 8.57147Z"
      fill="#FFD033" stroke="white" stroke-width="0.666667"/>
    <mask id="mask1" mask-type="alpha" maskUnits="userSpaceOnUse" x="14" y="4" width="7" height="9">
      <path
        d="M15.1905 8.57147V8.48987V8.44877V8.40749V8.32438V8.24062V8.15628V8.11391V8.07142V8.02882V7.98611V7.94331V7.90042V7.85745V7.81441V7.80364V7.79826V7.79287V7.77131V7.72816V7.68496V7.64172V7.59846V7.55518V7.51188V7.49023V7.48482V7.47941V7.474V7.46859V7.46317V7.45776V7.45235V7.44694V7.44153V7.43612V7.43071V7.42529V7.41988V7.41447V7.40906V7.40365V7.39824V7.39283V7.38743V7.38202V7.37661V7.3712V7.36579V7.36039V7.35498V7.34957V7.34417V7.33876V7.33336V7.32795V7.32255V7.31714V7.31174V7.30634V7.30094V7.29554V7.29014V7.28474V7.27934V7.27394V7.26854V7.26314V7.25775V7.25235V7.24696V7.24156V7.23617V7.23078V7.22538V7.21999V7.2146V7.20921V7.20383V7.19844V7.19305V7.18767V7.18228V7.1769V7.17151V7.16613V7.16075V7.15537V7.14999V7.14462V7.13924V7.13386V7.12849V7.12312V7.11774V7.11237V7.107V7.10163V7.09627V7.0909V7.08554V7.08017V7.07481V7.06945V7.06409V7.05873V7.05337V7.04802V7.04266V7.03731V7.03196V7.02661V7.02126V7.01591V7.01057V7.00522V6.99988V6.99454V6.9892V6.98386V6.97852V6.97319V6.96785V6.96252V6.95719V6.95186V6.94654V6.94121V6.93589V6.93057V6.92525V6.91993V6.91461V6.9093V6.90398V6.89867V6.89336V6.88805V6.88275V6.87744V6.87214V6.86684V6.86155V6.85625V6.85095V6.84566V6.84037V6.83508V6.8298V6.82451V6.81923V6.81395V6.80867V6.8034V6.79813V6.79285V6.78758V6.78232V6.77705V6.77179V6.76127V6.74026V6.69835V6.6566V6.6514V6.64619V6.63579V6.61502V6.57361V6.53238V6.49134V6.45051V6.36946V6.28932V6.21014V6.132V6.05496V5.97908V5.90445C15.1905 5.35228 15.6381 4.90481 16.1905 4.90481H19.2381C19.7905 4.90481 20.2381 5.35228 20.2381 5.90445V5.90907V5.91371V5.91834V5.92299V5.92763V5.93229V5.93694V5.94161V5.94627V5.95095V5.95562V5.96031V5.96499V5.96969V5.97438V5.97908V5.98379V5.9885V5.99322V5.99794V6.00267V6.0074V6.01213V6.01687V6.02162V6.02636V6.03112V6.03588V6.04064V6.04541V6.05018V6.05496V6.05974V6.06453V6.06932V6.07411V6.07891V6.08372V6.08852V6.09334V6.09815V6.10298V6.1078V6.11263V6.11747V6.12231V6.12715V6.132V6.13685V6.14171V6.14657V6.15144V6.1563V6.16118V6.16606V6.17094V6.17582V6.18072V6.18561V6.19051V6.19541V6.20032V6.20523V6.21014V6.21506V6.21999V6.22491V6.22984V6.23478V6.23972V6.24466V6.24961V6.25456V6.25951V6.26447V6.26943V6.2744V6.27937V6.28434V6.28932V6.2943V6.29929V6.30428V6.30927V6.31427V6.31927V6.32427V6.32928V6.33429V6.3393V6.34432V6.34934V6.35437V6.3594V6.36443V6.36946V6.3745V6.37955V6.38459V6.38964V6.3947V6.39975V6.40481V6.40988V6.41494V6.42002V6.42509V6.43017V6.43525V6.44033V6.44542V6.45051V6.4556V6.4607V6.4658V6.4709V6.47601V6.48112V6.48623V6.49134V6.49646V6.50159V6.50671V6.51184V6.51697V6.5221V6.52724V6.53238V6.53752V6.54267V6.54782V6.55297V6.55813V6.56328V6.56845V6.57361V6.57878V6.58394V6.58912V6.59429V6.59947V6.60465V6.60983V6.61502V6.62021V6.6254V6.63059V6.63579V6.64099V6.64619V6.6514V6.6566V6.66181V6.66703V6.67224V6.67746V6.68268V6.6879V6.69313V6.69835V6.70358V6.70882V6.71405V6.71929V6.72453V6.72977V6.73501V6.74026V6.74551V6.75076V6.75602V6.76127V6.76653V6.77179V6.77705V6.78232V6.78758V6.79285V6.79813V6.8034V6.80867V6.81395V6.81923V6.82451V6.8298V6.83508V6.84037V6.84566V6.85096V6.85625V6.86155V6.86684V6.87214V6.87745V6.88275V6.88805V6.89336V6.89867V6.90398V6.9093V6.91461V6.91993V6.92525V6.93057V6.93589V6.94121V6.94654V6.95186V6.95719V6.96252V6.96785V6.97319V6.97852V6.98386V6.9892V6.99454V6.99988V7.00522V7.01057V7.01591V7.02126V7.02661V7.03196V7.03731V7.04266V7.04802V7.05337V7.05873V7.06409V7.06945V7.07481V7.08017V7.08554V7.0909V7.09627V7.10163V7.107V7.11237V7.11774V7.12312V7.12849V7.13386V7.13924V7.14462V7.14999V7.15537V7.16075V7.16613V7.17151V7.1769V7.18228V7.18767V7.19305V7.19844V7.20383V7.20921V7.2146V7.21999V7.22538V7.23078V7.23617V7.24156V7.24696V7.25235V7.25775V7.26314V7.26854V7.27394V7.27934V7.28474V7.29014V7.29554V7.30094V7.30634V7.31174V7.31714V7.32255V7.32795V7.33336V7.33876V7.34417V7.34957V7.35498V7.36039V7.36579V7.3712V7.37661V7.38202V7.38743V7.39283V7.39824V7.40365V7.40906V7.41447V7.41988V7.42529V7.43071V7.43612V7.44153V7.44694V7.45235V7.45776V7.46317V7.46859V7.474V7.47941V7.48482V7.49023V7.49565V7.50106V7.50647V7.51188V7.5173V7.52271V7.52812V7.53353V7.53894V7.54436V7.54977V7.55518V7.56059V7.566V7.57141V7.57682V7.58223V7.58764V7.59305V7.59846V7.60387V7.60928V7.61469V7.6201V7.6255V7.63091V7.63632V7.64172V7.64713V7.65254V7.65794V7.66335V7.66875V7.67415V7.67956V7.68496V7.69036V7.69576V7.70116V7.70656V7.71196V7.71736V7.72276V7.72816V7.73356V7.73895V7.74435V7.74974V7.75514V7.76053V7.76592V7.77131V7.7767V7.78209V7.78748V7.79287V7.79826V7.80364V7.80903V7.81441V7.8198V7.82518V7.83056V7.83594V7.84132V7.8467V7.85208V7.85745V7.86283V7.8682V7.87357V7.87894V7.88432V7.88968V7.89505V7.90042V7.90579V7.91115V7.91651V7.92187V7.92724V7.93259V7.93795V7.94331V7.94866V7.95402V7.95937V7.96472V7.97007V7.97542V7.98077V7.98611V7.99146V7.9968V8.00214V8.00748V8.01281V8.01815V8.02349V8.02882V8.03415V8.03948V8.04481V8.05013V8.05546V8.06078V8.0661V8.07142V8.07674V8.08205V8.08737V8.09268V8.09799V8.1033V8.10861V8.11391V8.11921V8.12451V8.12981V8.13511V8.14041V8.1457V8.15099V8.15628V8.16157V8.16685V8.17214V8.17742V8.1827V8.18797V8.19325V8.19852V8.20379V8.20906V8.21433V8.21959V8.22485V8.23011V8.23537V8.24062V8.24588V8.25113V8.25637V8.26162V8.26686V8.2721V8.27734V8.28258V8.28781V8.29304V8.29827V8.3035V8.30872V8.31395V8.31916V8.32438V8.32959V8.33481V8.34001V8.34522V8.35042V8.35563V8.36082V8.36602V8.37121V8.3764V8.38159V8.38677V8.39196V8.39714V8.40231V8.40749V8.41266V8.41783V8.42299V8.42815V8.43331V8.43847V8.44362V8.44877V8.45392V8.45907V8.46421V8.46935V8.47448V8.47962V8.48475V8.48987V8.495V8.50012V8.50523V8.51035V8.51546V8.52057V8.52567V8.53077V8.53587V8.54097V8.54606V8.55115V8.55624V8.56132V8.5664V8.57147C20.2381 9.87605 19.5894 10.7926 18.9199 11.3951C18.5849 11.6966 18.2488 11.9152 17.9964 12.0582C17.8815 12.1234 17.7847 12.1724 17.7143 12.2061C17.644 12.1724 17.5472 12.1234 17.4322 12.0582C17.1798 11.9152 16.8437 11.6966 16.5087 11.3951C15.8393 10.7926 15.1905 9.87605 15.1905 8.57147Z"
        fill="white" stroke="white" stroke-width="0.666667"/>
    </mask>
    <g mask="url(#mask1)">
      <path fill-rule="evenodd" clip-rule="evenodd"
            d="M18.8572 8.00013C19.1728 8.00013 19.4286 7.48846 19.4286 6.85727C19.4286 6.22609 19.1728 5.71442 18.8572 5.71442C18.5416 5.71442 18.2858 6.22609 18.2858 6.85727C18.2858 7.48846 18.5416 8.00013 18.8572 8.00013Z"
            fill="#BA5B1F"/>
      <path fill-rule="evenodd" clip-rule="evenodd"
            d="M16.7473 7.96567C17.0439 7.85773 17.1093 7.28942 16.8934 6.6963C16.6775 6.10318 16.2621 5.70987 15.9655 5.8178C15.669 5.92574 15.6036 6.49406 15.8195 7.08718C16.0353 7.6803 16.4507 8.07361 16.7473 7.96567Z"
            fill="#FF9F3E"/>
      <path fill-rule="evenodd" clip-rule="evenodd"
            d="M16.33 7.9466C16.616 8.07998 17.0641 7.72436 17.3309 7.15232C17.5976 6.58027 17.582 6.00842 17.296 5.87504C17.01 5.74167 16.5619 6.09728 16.2951 6.66933C16.0284 7.24137 16.044 7.81323 16.33 7.9466Z"
            fill="#FF937F"/>
      <path fill-rule="evenodd" clip-rule="evenodd"
            d="M17.1429 9.14295L17.7143 8.00009L18.2857 9.14295V10.2858H17.1429V9.14295Z" fill="#01A827"/>
    </g>
    <path
      d="M0 -0.333333H-0.901086L-0.21693 0.253086L3.66667 3.58188V4.39989L-0.193746 7.15733L-0.333333 7.25703V7.42857V8V8.60141L0.176666 8.28267L4.66703 5.47619H5.60746L9.47126 8.23604C9.55984 8.29932 9.66599 8.33333 9.77485 8.33333C10.2598 8.33333 10.4829 7.73003 10.1148 7.41445L6.61905 4.41812V3.60011L10.3399 0.942378C10.5151 0.817237 10.619 0.61519 10.619 0.399889V0V-0.601416L10.109 -0.282666L5.61869 2.52381H4.67825L0.765175 -0.271244L0.67825 -0.333333H0.571429H0Z"
      fill="#DB1E36" stroke="white" stroke-width="0.666667"/>
    <path fill-rule="evenodd" clip-rule="evenodd"
          d="M0 2.85714V5.14286H4V7.90476C4 8.27295 4.29848 8.57143 4.66667 8.57143H5.61905C5.98724 8.57143 6.28571 8.27295 6.28571 7.90476V5.14286H10.1905C10.5587 5.14286 10.8571 4.84438 10.8571 4.47619V3.52381C10.8571 3.15562 10.5587 2.85714 10.1905 2.85714H6.28571V0H4V2.85714H0Z"
          fill="white"/>
    <path fill-rule="evenodd" clip-rule="evenodd"
          d="M0 3.42857H4.57143V2.85714V0H5.71429V2.85714V3.42857H10.2857V4.57143H5.71429V5.14286V8H4.57143V5.14286V4.57143H0V3.42857Z"
          fill="#DB1E36"/>
  </g>
</svg>
