<svg width="24" height="18" viewBox="0 0 24 18" fill="none" xmlns="http://www.w3.org/2000/svg">
  <mask id="mask0" mask-type="alpha" maskUnits="userSpaceOnUse" x="0" y="0" width="24" height="18">
    <path
      d="M22.2025 17.14H1.79742C0.804703 17.14 0 16.2628 0 15.1807V1.95927C0 0.877214 0.804703 0 1.79742 0H22.2025C23.1952 0 24 0.877163 24 1.95927V15.1807C24 16.2628 23.1952 17.14 22.2025 17.14Z"
      fill="#41479B"/>
  </mask>
  <g mask="url(#mask0)">
    <path d="M3.38266 0H0V6.70505H3.38266V0Z" fill="#1035BB"/>
    <path d="M10.2274 0V6.8837H0V17H29V0H10.2274Z" fill="#1035BB"/>
    <path d="M6.76649 0H3.38266V6.70505H6.76649V0Z" fill="white"/>
    <path d="M10.0572 0H6.76619V6.70505H10.0572V0Z" fill="#F44653"/>
    <path d="M10.15 0V6.79977H6.76619H3.38266V6.70505H0V6.8837H10.2356V0H10.15Z" fill="white"/>
    <path d="M6.76649 6.70508H3.38266V6.79979H6.76649V6.70508Z" fill="white"/>
    <path d="M10.0572 6.70505H6.76619V6.79977H10.15V0H10.0572V6.70505Z" fill="white"/>
    <path
      d="M15.2871 6.69165L15.8315 7.56188H17.3807V10.601L16.2178 8.77337L14.6532 11.2812H15.6256L15.7711 11.0049H16.7447L17.867 12.8112L18.9888 11.0049H19.9626L20.1082 11.2812H21.0809L19.516 8.77337L18.3528 10.601V8.92288H19.0508L19.5691 8.09404H18.3531V7.56188H19.9023L20.4472 6.69165H15.2871ZM16.225 9.82429L16.6043 10.4165L15.9292 10.4203L16.225 9.82429ZM19.4934 9.88432L19.797 10.4165L19.1814 10.4127L19.4934 9.88432Z"
      fill="white"/>
    <path
      d="M19.7535 11.9535L19.9539 12.5842L20.6128 12.5804L20.0781 12.9668L20.2845 13.5957L19.7535 13.2035L19.2225 13.5957L19.4296 12.9668L18.8942 12.5804L19.5534 12.5842L19.7535 11.9535Z"
      fill="white"/>
    <path
      d="M17.8459 13.4171L18.046 14.0478L18.7055 14.0449L18.1698 14.4313L18.3772 15.0591L17.8459 14.6671L17.3149 15.0591L17.5217 14.4313L16.9866 14.0449L17.6455 14.0478L17.8459 13.4171Z"
      fill="white"/>
    <path
      d="M15.9901 11.9556L15.7903 12.5862L15.1308 12.5833L15.6662 12.9698L15.4591 13.5975L15.9901 13.2055L16.5214 13.5975L16.3138 12.9698L16.8491 12.5833L16.1908 12.5862L15.9901 11.9556Z"
      fill="white"/>
    <path
      d="M21.3564 7.65662L21.5574 8.28757L22.216 8.28349L21.6809 8.66994L21.8874 9.29885L21.3564 8.90658L20.8263 9.29885L21.0331 8.66994L20.4983 8.28349L21.1566 8.28757L21.3564 7.65662Z"
      fill="white"/>
    <path
      d="M14.4078 7.64404L14.6079 8.27471L15.2665 8.27092L14.7309 8.65824L14.9382 9.28628L14.4078 8.89401L13.8762 9.28628L14.0836 8.65824L13.5485 8.27092L14.2074 8.27471L14.4078 7.64404Z"
      fill="white"/>
  </g>
</svg>
