<svg width="24" height="18" viewBox="0 0 24 18" fill="none" xmlns="http://www.w3.org/2000/svg">
  <rect x="0.25" y="0.25" width="23.5" height="16.6429" rx="1.75" fill="white" stroke="#F5F5F5" stroke-width="0.5"/>
  <mask id="mask0" mask-type="alpha" maskUnits="userSpaceOnUse" x="0" y="0" width="24" height="18">
    <rect x="0.25" y="0.25" width="23.5" height="16.6429" rx="1.75" fill="white" stroke="white" stroke-width="0.5"/>
  </mask>
  <g mask="url(#mask0)">
    <path fill-rule="evenodd" clip-rule="evenodd" d="M0 5.71429H24V0H0V5.71429Z" fill="#D9101C"/>
    <path fill-rule="evenodd" clip-rule="evenodd" d="M0 17.1429H24V11.4286H0V17.1429Z" fill="#0F7811"/>
    <path fill-rule="evenodd" clip-rule="evenodd"
          d="M11.4286 7.42858C11.4286 7.74417 11.1727 8 10.8571 8C10.5415 8 10.2857 7.74417 10.2857 7.42858C10.2857 7.11298 10.5415 6.85715 10.8571 6.85715C11.1727 6.85715 11.4286 7.11298 11.4286 7.42858ZM12.5715 8.57147C12.5715 8.67482 12.544 8.89433 12.496 9.14283H13.1429C13.4584 9.14283 13.7143 9.39866 13.7143 9.71426C13.7143 10.0298 13.4584 10.2857 13.1429 10.2857H12.0039L12 10.2858L11.9962 10.2857H10.8571C10.5415 10.2857 10.2857 10.0298 10.2857 9.71426C10.2857 9.39866 10.5415 9.14283 10.8571 9.14283H11.504C11.456 8.89433 11.4286 8.67482 11.4286 8.57147C11.4286 8.25588 11.6844 8.00004 12 8.00004C12.3156 8.00004 12.5715 8.25588 12.5715 8.57147ZM13.7144 7.42858C13.7144 7.74417 13.4585 8 13.1429 8C12.8273 8 12.5715 7.74417 12.5715 7.42858C12.5715 7.11298 12.8273 6.85715 13.1429 6.85715C13.4585 6.85715 13.7144 7.11298 13.7144 7.42858ZM15.4286 9.1429C15.7442 9.1429 16 8.88706 16 8.57147C16 8.25588 15.7442 8.00004 15.4286 8.00004C15.113 8.00004 14.8572 8.25588 14.8572 8.57147C14.8572 8.88706 15.113 9.1429 15.4286 9.1429ZM9.14289 8.57147C9.14289 8.88706 8.88705 9.1429 8.57146 9.1429C8.25587 9.1429 8.00003 8.88706 8.00003 8.57147C8.00003 8.25588 8.25587 8.00004 8.57146 8.00004C8.88705 8.00004 9.14289 8.25588 9.14289 8.57147Z"
          fill="#FAD14E"/>
  </g>
</svg>
