<svg width="24" height="18" viewBox="0 0 24 18" fill="none" xmlns="http://www.w3.org/2000/svg">
  <path
    d="M22.2026 17.14H1.79742C0.804703 17.14 0 16.2628 0 15.1807V1.95927C0 0.877214 0.804703 0 1.79742 0H22.2026C23.1952 0 24 0.877162 24 1.95927V15.1808C24 16.2628 23.1953 17.14 22.2026 17.14Z"
    fill="#41479B"/>
  <path
    d="M22.345 14.4338H5.79321C5.56469 14.4338 5.37939 14.2318 5.37939 13.9828C5.37939 13.7337 5.56469 13.5317 5.79321 13.5317H22.345L22.7588 13.9828L22.345 14.4338Z"
    fill="#FFE15A"/>
  <path
    d="M22.5517 13.0805H5.79309C5.79309 13.0805 12.4138 4.96154 18.6207 3.15735C18.6207 3.15735 16.5517 9.02106 21.5172 12.6294H22.5517C22.666 12.6294 22.7586 12.7304 22.7586 12.855C22.7586 12.9796 22.666 13.0805 22.5517 13.0805Z"
    fill="#FFE15A"/>
  <path
    d="M5.06993 10.4692L5.23048 10.994L5.73795 10.9983C5.80362 10.9989 5.8309 11.0903 5.77803 11.1328L5.36974 11.4614L5.52284 11.9889C5.54267 12.0571 5.47132 12.1137 5.41788 12.072L5.00501 11.7503L4.59213 12.072C4.5387 12.1136 4.46735 12.0571 4.48718 11.9889L4.64028 11.4614L4.23199 11.1328C4.17912 11.0903 4.2064 10.9989 4.27207 10.9983L4.77954 10.994L4.94009 10.4692C4.96095 10.4013 5.04917 10.4013 5.06993 10.4692Z"
    fill="#F5F5F5"/>
  <path
    d="M5.05784 3.25451L5.18806 3.68024L5.59976 3.68371C5.65311 3.68417 5.67518 3.75831 5.63229 3.7928L5.30112 4.05942L5.42529 4.4873C5.44137 4.54274 5.38348 4.58852 5.34017 4.55474L5.0052 4.29375L4.67023 4.55474C4.62687 4.58852 4.56903 4.54268 4.58511 4.4873L4.70928 4.05942L4.37811 3.7928C4.33522 3.75831 4.35729 3.68417 4.41064 3.68371L4.82234 3.68024L4.95256 3.25451C4.96943 3.19943 5.04097 3.19943 5.05784 3.25451Z"
    fill="#F5F5F5"/>
  <path
    d="M1.9387 5.88882L2.06892 6.31455L2.48062 6.31803C2.53397 6.31849 2.55604 6.39263 2.51315 6.42712L2.18198 6.69374L2.30615 7.12161C2.32223 7.17705 2.26434 7.22283 2.22103 7.18906L1.88606 6.92806L1.55109 7.18906C1.50773 7.22283 1.44989 7.177 1.46597 7.12161L1.59014 6.69374L1.25897 6.42712C1.21608 6.39263 1.23815 6.31849 1.2915 6.31803L1.7032 6.31455L1.83342 5.88882C1.85034 5.83369 1.92187 5.83369 1.9387 5.88882Z"
    fill="#F5F5F5"/>
  <path
    d="M7.28854 5.7092L7.38875 6.03682L7.70558 6.03948C7.7466 6.03984 7.76361 6.09686 7.73061 6.12343L7.47571 6.32858L7.57128 6.65784C7.58366 6.70046 7.53913 6.73576 7.50575 6.70971L7.24804 6.5089L6.99032 6.70971C6.95694 6.73571 6.91241 6.70046 6.92479 6.65784L7.02036 6.32858L6.76546 6.12343C6.73246 6.09686 6.74947 6.03984 6.79049 6.03948L7.10732 6.03682L7.20754 5.7092C7.22052 5.66684 7.27555 5.66684 7.28854 5.7092Z"
    fill="#F5F5F5"/>
</svg>
