<svg width="24" height="18" viewBox="0 0 24 18" fill="none" xmlns="http://www.w3.org/2000/svg">
  <rect width="24" height="17.1429" rx="2" fill="white"/>
  <mask id="mask0" mask-type="alpha" maskUnits="userSpaceOnUse" x="0" y="0" width="24" height="18">
    <rect width="24" height="17.1429" rx="2" fill="white"/>
  </mask>
  <g mask="url(#mask0)">
    <path fill-rule="evenodd" clip-rule="evenodd" d="M0 17.1429H24V0H0V17.1429Z" fill="#30C375"/>
    <rect x="3.42857" width="3.42857" height="17.1429" fill="#DE414F"/>
    <path fill-rule="evenodd" clip-rule="evenodd"
          d="M5.14286 3.4286C6.08963 3.4286 6.85715 2.91692 6.85715 2.28574C6.85715 1.65456 6.08963 1.14288 5.14286 1.14288C4.19609 1.14288 3.42857 1.65456 3.42857 2.28574C3.42857 2.91692 4.19609 3.4286 5.14286 3.4286Z"
          fill="white"/>
    <mask id="mask1" mask-type="alpha" maskUnits="userSpaceOnUse" x="3" y="1" width="4" height="3">
      <path fill-rule="evenodd" clip-rule="evenodd"
            d="M5.14286 3.4286C6.08963 3.4286 6.85715 2.91692 6.85715 2.28574C6.85715 1.65456 6.08963 1.14288 5.14286 1.14288C4.19609 1.14288 3.42857 1.65456 3.42857 2.28574C3.42857 2.91692 4.19609 3.4286 5.14286 3.4286Z"
            fill="white"/>
    </mask>
    <g mask="url(#mask1)">
      <path fill-rule="evenodd" clip-rule="evenodd"
            d="M5.14288 2.85709C5.45847 2.85709 5.71431 2.60125 5.71431 2.28566C5.71431 1.97007 5.45847 1.71423 5.14288 1.71423C4.82729 1.71423 4.57145 1.97007 4.57145 2.28566C4.57145 2.60125 4.82729 2.85709 5.14288 2.85709Z"
            fill="#DD404F"/>
      <rect x="3.42857" y="1.14288" width="1.71429" height="1.14286" fill="#FBAF29"/>
      <rect x="5.14285" y="2.28574" width="1.71429" height="1.14286" fill="#FBAF29"/>
    </g>
    <path fill-rule="evenodd" clip-rule="evenodd"
          d="M5.14286 16C6.08963 16 6.85715 15.4883 6.85715 14.8572C6.85715 14.226 6.08963 13.7143 5.14286 13.7143C4.19609 13.7143 3.42857 14.226 3.42857 14.8572C3.42857 15.4883 4.19609 16 5.14286 16Z"
          fill="white"/>
    <mask id="mask2" mask-type="alpha" maskUnits="userSpaceOnUse" x="3" y="13" width="4" height="3">
      <path fill-rule="evenodd" clip-rule="evenodd"
            d="M5.14286 16C6.08963 16 6.85715 15.4883 6.85715 14.8572C6.85715 14.226 6.08963 13.7143 5.14286 13.7143C4.19609 13.7143 3.42857 14.226 3.42857 14.8572C3.42857 15.4883 4.19609 16 5.14286 16Z"
            fill="white"/>
    </mask>
    <g mask="url(#mask2)">
      <path fill-rule="evenodd" clip-rule="evenodd"
            d="M5.14288 15.4286C5.45847 15.4286 5.71431 15.1728 5.71431 14.8572C5.71431 14.5416 5.45847 14.2857 5.14288 14.2857C4.82729 14.2857 4.57145 14.5416 4.57145 14.8572C4.57145 15.1728 4.82729 15.4286 5.14288 15.4286Z"
            fill="#DD404F"/>
      <rect x="3.42857" y="13.7143" width="1.71429" height="1.14286" fill="#FBAF29"/>
      <rect x="5.14285" y="14.8572" width="1.71429" height="1.14286" fill="#FBAF29"/>
    </g>
    <path fill-rule="evenodd" clip-rule="evenodd"
          d="M5.14286 10.2857C6.08963 10.2857 6.85715 9.77407 6.85715 9.14289C6.85715 8.51171 6.08963 8.00003 5.14286 8.00003C4.19609 8.00003 3.42857 8.51171 3.42857 9.14289C3.42857 9.77407 4.19609 10.2857 5.14286 10.2857Z"
          fill="#28AE67"/>
    <mask id="mask3" mask-type="alpha" maskUnits="userSpaceOnUse" x="3" y="8" width="4" height="3">
      <path fill-rule="evenodd" clip-rule="evenodd"
            d="M5.14286 10.2857C6.08963 10.2857 6.85715 9.77407 6.85715 9.14289C6.85715 8.51171 6.08963 8.00003 5.14286 8.00003C4.19609 8.00003 3.42857 8.51171 3.42857 9.14289C3.42857 9.77407 4.19609 10.2857 5.14286 10.2857Z"
            fill="white"/>
    </mask>
    <g mask="url(#mask3)">
      <path fill-rule="evenodd" clip-rule="evenodd"
            d="M5.1428 9.71433C5.77399 9.71433 6.28566 9.45849 6.28566 9.1429C6.28566 8.82731 5.77399 8.57147 5.1428 8.57147C4.51162 8.57147 3.99995 8.82731 3.99995 9.1429C3.99995 9.45849 4.51162 9.71433 5.1428 9.71433Z"
            fill="#DD404F"/>
    </g>
    <path fill-rule="evenodd" clip-rule="evenodd"
          d="M5.14286 12.5715C6.08963 12.5715 6.85715 12.3156 6.85715 12C6.85715 11.6845 6.08963 11.4286 5.14286 11.4286C4.19609 11.4286 3.42857 11.6845 3.42857 12C3.42857 12.3156 4.19609 12.5715 5.14286 12.5715Z"
          fill="#28AE67"/>
    <mask id="mask4" mask-type="alpha" maskUnits="userSpaceOnUse" x="3" y="11" width="4" height="2">
      <path fill-rule="evenodd" clip-rule="evenodd"
            d="M5.14286 12.5715C6.08963 12.5715 6.85715 12.3156 6.85715 12C6.85715 11.6845 6.08963 11.4286 5.14286 11.4286C4.19609 11.4286 3.42857 11.6845 3.42857 12C3.42857 12.3156 4.19609 12.5715 5.14286 12.5715Z"
            fill="white"/>
    </mask>
    <g mask="url(#mask4)">
    </g>
    <path fill-rule="evenodd" clip-rule="evenodd"
          d="M5.14286 6.85719C6.08963 6.85719 6.85715 6.34551 6.85715 5.71433C6.85715 5.08315 6.08963 4.57147 5.14286 4.57147C4.19609 4.57147 3.42857 5.08315 3.42857 5.71433C3.42857 6.34551 4.19609 6.85719 5.14286 6.85719Z"
          fill="#FBAF29"/>
    <mask id="mask5" mask-type="alpha" maskUnits="userSpaceOnUse" x="3" y="4" width="4" height="3">
      <path fill-rule="evenodd" clip-rule="evenodd"
            d="M5.14286 6.85719C6.08963 6.85719 6.85715 6.34551 6.85715 5.71433C6.85715 5.08315 6.08963 4.57147 5.14286 4.57147C4.19609 4.57147 3.42857 5.08315 3.42857 5.71433C3.42857 6.34551 4.19609 6.85719 5.14286 6.85719Z"
            fill="white"/>
    </mask>
    <g mask="url(#mask5)">
      <path fill-rule="evenodd" clip-rule="evenodd"
            d="M5.14288 6.28577C5.45847 6.28577 5.71431 6.02993 5.71431 5.71434C5.71431 5.39875 5.45847 5.14291 5.14288 5.14291C4.82729 5.14291 4.57145 5.39875 4.57145 5.71434C4.57145 6.02993 4.82729 6.28577 5.14288 6.28577Z"
            fill="#DD404F"/>
      <rect x="3.42857" y="4.57147" width="1.14286" height="2.28571" fill="#28AE67"/>
      <rect x="5.71423" y="4.57153" width="1.14286" height="2.28571" fill="#28AE67"/>
    </g>
    <path fill-rule="evenodd" clip-rule="evenodd"
          d="M12.7051 3.6327C12.5022 3.87446 12.5338 4.23489 12.7755 4.43775C13.0173 4.64061 13.3777 4.60907 13.5806 4.36732C13.7834 4.12556 13.7519 3.76513 13.5101 3.56227C13.2684 3.35941 12.908 3.39094 12.7051 3.6327ZM11.2245 5.84795C10.9827 5.64509 10.6223 5.67662 10.4194 5.91838C10.2166 6.16014 10.2481 6.52057 10.4898 6.72343C10.7316 6.92629 11.092 6.89475 11.2949 6.653C11.4978 6.41124 11.4662 6.05081 11.2245 5.84795V5.84795ZM10.0816 4.70506C9.83981 4.5022 9.47938 4.53373 9.27652 4.77549C9.07367 5.01725 9.1052 5.37768 9.34696 5.58054C9.58871 5.78339 9.94915 5.75186 10.152 5.5101C10.3549 5.26835 10.3233 4.90791 10.0816 4.70506V4.70506ZM12.3673 2.41938C12.1255 2.21652 11.7651 2.24805 11.5622 2.48981C11.3593 2.73157 11.3909 3.092 11.6326 3.29486C11.8744 3.49771 12.2348 3.46618 12.4377 3.22442C12.6405 2.98267 12.609 2.62224 12.3673 2.41938V2.41938ZM11.7959 4.13366C11.5541 3.9308 11.1937 3.96234 10.9908 4.2041C10.788 4.44585 10.8195 4.80628 11.0612 5.00914C11.303 5.212 11.6634 5.18047 11.8663 4.93871C12.0691 4.69695 12.0376 4.33652 11.7959 4.13366V4.13366Z"
          fill="white"/>
    <path fill-rule="evenodd" clip-rule="evenodd"
          d="M14.9795 8.10051C13.6183 9.46169 11.4114 9.46169 10.0502 8.10051C9.91832 7.96861 9.79921 7.82877 9.69287 7.68254C11.0558 8.6736 12.9749 8.55448 14.2042 7.32519C15.4335 6.0959 15.5526 4.17684 14.5615 2.81387C14.7078 2.92021 14.8476 3.03932 14.9795 3.17122C16.3407 4.5324 16.3407 6.73932 14.9795 8.10051Z"
          fill="white"/>
  </g>
</svg>
