<svg width="24" height="18" viewBox="0 0 24 18" fill="none" xmlns="http://www.w3.org/2000/svg">
  <rect width="24" height="17.1429" rx="2" fill="white"/>
  <mask id="mask0" mask-type="alpha" maskUnits="userSpaceOnUse" x="0" y="0" width="24" height="18">
    <rect width="24" height="17.1429" rx="2" fill="white"/>
  </mask>
  <g mask="url(#mask0)">
    <rect width="24" height="17.1429" fill="#E92434"/>
    <path fill-rule="evenodd" clip-rule="evenodd"
          d="M17.1429 8.57142C17.1429 11.4117 14.8403 13.7143 12 13.7143C9.15968 13.7143 6.85714 11.4117 6.85714 8.57142C6.85714 5.73109 9.15968 3.42856 12 3.42856C14.8403 3.42856 17.1429 5.73109 17.1429 8.57142ZM10.2857 8.57136C10.2857 10.4713 11.7122 12.038 13.5525 12.259C13.0752 12.4602 12.5506 12.5714 12 12.5714C9.79086 12.5714 8 10.7806 8 8.57143C8 6.36229 9.79086 4.57143 12 4.57143C12.5505 4.57143 13.075 4.68263 13.5523 4.88378C11.712 5.10486 10.2857 6.67154 10.2857 8.57136ZM12.968 10.8471L14.0178 9.5743L15.5634 10.1517L14.6773 8.7599L15.7041 7.46836L14.1066 7.88103L13.1955 6.50542L13.0943 8.15225L11.5045 8.59362L13.0395 9.19876L12.968 10.8471Z"
          fill="white"/>
  </g>
</svg>
