<svg width="24" height="18" viewBox="0 0 24 18" fill="none" xmlns="http://www.w3.org/2000/svg">
  <rect x="0.25" y="0.25" width="23.5" height="16.6429" rx="1.75" fill="white" stroke="#F5F5F5" stroke-width="0.5"/>
  <mask id="mask0" mask-type="alpha" maskUnits="userSpaceOnUse" x="0" y="0" width="24" height="18">
    <rect x="0.25" y="0.25" width="23.5" height="16.6429" rx="1.75" fill="white" stroke="white" stroke-width="0.5"/>
  </mask>
  <g mask="url(#mask0)">
    <path fill-rule="evenodd" clip-rule="evenodd" d="M24 0H13.7143V9.14286H0V17.1429H24V0Z" fill="#E20F1B"/>
    <path fill-rule="evenodd" clip-rule="evenodd"
          d="M6.04757 1.14288C5.86348 1.14288 5.71424 1.29212 5.71424 1.47622V3.42856H3.76189C3.5778 3.42856 3.42856 3.5778 3.42856 3.7619V5.38094C3.42856 5.56504 3.5778 5.71428 3.76189 5.71428H5.71424V7.66669C5.71424 7.85079 5.86348 8.00003 6.04757 8.00003H7.66662C7.85071 8.00003 7.99995 7.85079 7.99995 7.66669V5.71428H9.95237C10.1365 5.71428 10.2857 5.56504 10.2857 5.38094V3.7619C10.2857 3.5778 10.1365 3.42856 9.95237 3.42856H7.99995V1.47622C7.99995 1.29212 7.85071 1.14288 7.66662 1.14288H6.04757Z"
          fill="url(#paint0_linear)"/>
  </g>
  <defs>
    <linearGradient id="paint0_linear" x1="3.42856" y1="1.14288" x2="3.42856" y2="8.00003"
                    gradientUnits="userSpaceOnUse">
      <stop stop-color="#DF101B"/>
      <stop offset="1" stop-color="#C00711"/>
    </linearGradient>
  </defs>
</svg>
