<svg width="24" height="18" viewBox="0 0 24 18" fill="none" xmlns="http://www.w3.org/2000/svg">
  <rect width="24" height="17.1429" rx="2" fill="white"/>
  <mask id="mask0" mask-type="alpha" maskUnits="userSpaceOnUse" x="0" y="0" width="24" height="18">
    <rect width="24" height="17.1429" rx="2" fill="white"/>
  </mask>
  <g mask="url(#mask0)">
    <rect width="24" height="17.1429" fill="#E92434"/>
    <path fill-rule="evenodd" clip-rule="evenodd"
          d="M16.3036 9.22998L15.2538 10.5028L15.3253 8.85443L13.7903 8.2493L15.3801 7.80793L15.4813 6.16109L16.3924 7.5367L17.9899 7.12403L16.9631 8.41558L17.8492 9.80737L16.3036 9.22998V9.22998V9.22998V9.22998Z"
          fill="white"/>
    <path fill-rule="evenodd" clip-rule="evenodd"
          d="M14.9166 11.7292C13.9755 12.9373 12.5071 13.7143 10.8571 13.7143C8.01679 13.7143 5.71425 11.4117 5.71425 8.57142C5.71425 5.73109 8.01679 3.42856 10.8571 3.42856C12.5071 3.42856 13.9756 4.20558 14.9167 5.41367C14.1905 4.88584 13.2774 4.57143 12.2857 4.57143C9.91873 4.57143 7.99995 6.36229 7.99995 8.57143C7.99995 10.7806 9.91873 12.5714 12.2857 12.5714C13.2774 12.5714 14.1904 12.257 14.9166 11.7292Z"
          fill="white"/>
  </g>
</svg>
