<svg width="24" height="18" viewBox="0 0 24 18" fill="none" xmlns="http://www.w3.org/2000/svg">
  <path
    d="M22.2134 0.000976562H1.78664C0.798984 0.00726145 0 0.88178 0 1.95992V15.1816C0 16.2637 0.804703 17.1409 1.79742 17.1409H22.2026C23.1952 17.1409 24 16.2638 24 15.1816V1.95992C24 0.88178 23.201 0.00726145 22.2134 0.000976562Z"
    fill="#82AFFF"/>
  <path
    d="M0.413813 8.57018H11.5862C11.8148 8.57018 12 8.36819 12 8.1191V0.451081C12 0.201985 11.8148 0 11.5862 0H1.78664C0.798984 0.00633598 0 0.880854 0 1.95899V8.11905C0 8.36819 0.185297 8.57018 0.413813 8.57018Z"
    fill="#41479B"/>
  <path
    d="M0.413813 8.57018H1.13259L4.96556 5.83273V8.57018H7.03453V5.83273L10.8675 8.57018H11.5863C11.8148 8.57018 12.0001 8.36819 12.0001 8.1191V7.76132L8.71158 5.41277H12V3.15746H8.71148L12 0.80886V0.451081C12 0.201985 11.8147 0 11.5862 0H10.8674L7.03444 2.73745V5.10685e-05H4.96547V2.7375L1.25798 0.0896744C0.825281 0.237855 0.463406 0.559968 0.240469 0.980595L3.28852 3.15746H0V5.41277H3.28852L0 7.76132V8.1191C0 8.36819 0.185297 8.57018 0.413813 8.57018Z"
    fill="#F5F5F5"/>
  <path d="M12 3.60942H6.62067V0.000976562H5.37933V3.60942H0V4.96261H5.37933V8.5711H6.62067V4.96261H12V3.60942Z"
        fill="#FF4B55"/>
  <path
    d="M0.385742 0.747343L3.79187 3.15747H4.55185L0.684805 0.421143C0.573758 0.516744 0.473352 0.626296 0.385742 0.747343Z"
    fill="#FF4B55"/>
  <path
    d="M7.79452 3.15839L11.937 0.227181C11.865 0.0943813 11.738 0.000976562 11.5862 0.000976562H11.4967L7.03448 3.15839H7.79452Z"
    fill="#FF4B55"/>
  <path
    d="M4.19418 5.41276L0.0595703 8.33825C0.130773 8.47432 0.259867 8.57007 0.413898 8.57007H0.491945L4.95426 5.41266H4.19418V5.41276Z"
    fill="#FF4B55"/>
  <path d="M11.9934 8.15452L8.11843 5.41278H7.3584L11.7587 8.52635C11.8906 8.45962 11.981 8.31992 11.9934 8.15452Z"
        fill="#FF4B55"/>
  <path
    d="M10.2499 13.5449L10.0284 14.2689L9.32825 14.2748C9.26112 14.2754 9.23328 14.3688 9.28728 14.4122L9.85048 14.8656L9.63931 15.5933C9.61901 15.6631 9.69195 15.7208 9.74661 15.6783L10.3162 15.2345L10.8859 15.6783C10.9405 15.7208 11.0134 15.6631 10.9932 15.5933L10.782 14.8656L11.3452 14.4122C11.3992 14.3688 11.3713 14.2754 11.3042 14.2748L10.6041 14.2689L10.3826 13.5449C10.3613 13.4754 10.2711 13.4754 10.2499 13.5449Z"
    fill="#FFE15A"/>
  <path
    d="M21.0346 7.90663L20.813 8.63062L20.1129 8.63655C20.0458 8.63711 20.0179 8.73051 20.0719 8.774L20.6351 9.22738L20.424 9.95505C20.4037 10.0248 20.4766 10.0825 20.5313 10.04L21.1009 9.59625L21.6705 10.04C21.7251 10.0826 21.798 10.0248 21.7778 9.95505L21.5666 9.22738L22.1299 8.774C22.1839 8.73051 22.156 8.63711 22.0889 8.63655L21.3888 8.63062L21.1672 7.90663C21.1459 7.83719 21.0558 7.83719 21.0346 7.90663Z"
    fill="#FFE15A"/>
  <path
    d="M21.0344 1.81748L20.8129 2.54147L20.1128 2.5474C20.0457 2.54796 20.0178 2.64137 20.0718 2.68485L20.635 3.13823L20.4239 3.8659C20.4036 3.93569 20.4765 3.99338 20.5312 3.95087L21.1008 3.5071L21.6704 3.95087C21.725 3.99343 21.7979 3.93569 21.7777 3.8659L21.5665 3.13823L22.1297 2.68485C22.1837 2.64137 22.1559 2.54796 22.0888 2.5474L21.3886 2.54147L21.1671 1.81748C21.1458 1.74809 21.0557 1.74809 21.0344 1.81748Z"
    fill="#FFE15A"/>
  <path
    d="M13.0225 9.73579L13.2412 10.4608L12.6827 10.921C12.6291 10.9652 12.6579 11.0582 12.725 11.058L13.4252 11.0553L13.6541 11.7765C13.6761 11.8457 13.7662 11.8446 13.7867 11.7749L14.0007 11.0482L14.7008 11.0337C14.7679 11.0323 14.7948 10.9386 14.7403 10.8958L14.1724 10.4494L14.3761 9.71914C14.3957 9.64913 14.3222 9.59226 14.268 9.63554L13.703 10.0863L13.1289 9.64954C13.0738 9.60769 13.0015 9.66625 13.0225 9.73579Z"
    fill="#FFE15A"/>
  <path
    d="M12.9707 12.865L13.1894 13.59L12.6309 14.0502C12.5774 14.0944 12.6061 14.1874 12.6733 14.1872L13.3734 14.1845L13.6024 14.9058C13.6244 14.9749 13.7144 14.9738 13.7349 14.9041L13.949 14.1774L14.649 14.1629C14.7161 14.1615 14.743 14.0678 14.6886 14.025L14.1207 13.5786L14.3244 12.8483C14.3439 12.7783 14.2704 12.7215 14.2163 12.7648L13.6513 13.2155L13.0772 12.7788C13.0221 12.7369 12.9497 12.7955 12.9707 12.865Z"
    fill="#FFE15A"/>
  <path
    d="M15.9966 12.0756L16.2153 12.8006L15.6568 13.2609C15.6032 13.305 15.632 13.3981 15.6992 13.3978L16.3993 13.3952L16.6283 14.1164C16.6502 14.1856 16.7403 14.1844 16.7608 14.1148L16.9749 13.3881L17.6749 13.3735C17.742 13.3721 17.7689 13.2784 17.7145 13.2356L17.1466 12.7892L17.3502 12.059C17.3698 11.989 17.2963 11.9321 17.2421 11.9754L16.6772 12.4262L16.103 11.9894C16.048 11.9475 15.9756 12.0061 15.9966 12.0756Z"
    fill="#FFE15A"/>
  <path
    d="M15.9449 5.25337L16.1635 5.97838L15.605 6.43861C15.5515 6.48276 15.5802 6.5758 15.6474 6.57555L16.3475 6.57289L16.5765 7.29412C16.5985 7.3633 16.6885 7.36218 16.7091 7.29248L16.9231 6.56579L17.6231 6.55128C17.6903 6.54985 17.7171 6.45613 17.6627 6.41337L17.0948 5.96694L17.2985 5.23671C17.318 5.16671 17.2445 5.10984 17.1904 5.15312L16.6254 5.60389L16.0513 5.16712C15.9961 5.12527 15.9239 5.18383 15.9449 5.25337Z"
    fill="#FFE15A"/>
  <path
    d="M18.5054 4.32307L18.7241 5.04808L18.1656 5.50831C18.112 5.55246 18.1408 5.6455 18.2079 5.64525L18.9081 5.64259L19.1371 6.36382C19.159 6.43301 19.2491 6.43188 19.2696 6.36219L19.4836 5.63549L20.1837 5.62098C20.2508 5.61955 20.2777 5.52584 20.2232 5.48307L19.6553 5.03664L19.859 4.30642C19.8786 4.23641 19.8051 4.17954 19.7509 4.22282L19.1859 4.6736L18.6118 4.23682C18.5567 4.19497 18.4844 4.25353 18.5054 4.32307Z"
    fill="#FFE15A"/>
</svg>
