<svg width="24" height="18" viewBox="0 0 24 18" fill="none" xmlns="http://www.w3.org/2000/svg">
  <rect width="24" height="17.1429" rx="2" fill="white"/>
  <mask id="mask0" mask-type="alpha" maskUnits="userSpaceOnUse" x="0" y="0" width="24" height="18">
    <rect width="24" height="17.1429" rx="2" fill="white"/>
  </mask>
  <g mask="url(#mask0)">
    <path fill-rule="evenodd" clip-rule="evenodd" d="M0 2.28571H24V0H0V2.28571Z" fill="#262626"/>
    <path fill-rule="evenodd" clip-rule="evenodd" d="M0 11.4285H24V9.14282H0V11.4285Z" fill="#262626"/>
    <path fill-rule="evenodd" clip-rule="evenodd" d="M0 9.14284H24V5.71426H0V9.14284Z" fill="#ED1623"/>
    <path fill-rule="evenodd" clip-rule="evenodd" d="M0 5.71425H24V2.28568H0V5.71425Z" fill="#FEE044"/>
    <path fill-rule="evenodd" clip-rule="evenodd" d="M0 17.1429H24V14.8572H0V17.1429Z" fill="#ED1623"/>
    <path fill-rule="evenodd" clip-rule="evenodd" d="M0 14.8572H24V11.4286H0V14.8572Z" fill="#FEE044"/>
    <path fill-rule="evenodd" clip-rule="evenodd"
          d="M12 12.5715C14.2092 12.5715 16 10.7806 16 8.57147C16 6.36233 14.2092 4.57147 12 4.57147C9.79089 4.57147 8.00003 6.36233 8.00003 8.57147C8.00003 10.7806 9.79089 12.5715 12 12.5715Z"
          fill="white"/>
    <path fill-rule="evenodd" clip-rule="evenodd"
          d="M11.0928 6.52142C10.9627 6.39124 10.9627 6.18019 11.0928 6.05001L11.4094 5.7334C11.4222 5.72068 11.4337 5.70716 11.4446 5.69286C11.4697 5.65999 11.5221 5.59405 11.5863 5.52859C11.7536 5.35805 12.2594 5.34179 12.4212 5.51751C12.4357 5.53328 12.4495 5.54919 12.4625 5.56477C12.5361 5.65336 12.5401 5.77692 12.4886 5.87994L12.0352 6.78676C12.012 6.83305 12 6.88408 12 6.93583V7.22256C12 7.34882 12.0713 7.46424 12.1843 7.5207L13.0945 7.97581C13.1265 7.99183 13.1558 8.01292 13.1811 8.03825L14.1158 8.97297C14.2173 9.07443 14.2424 9.22942 14.1783 9.35775L13.9211 9.87206C13.8194 10.0756 13.5481 10.1196 13.3873 9.9587L13.3786 9.94999C13.2484 9.81981 13.0373 9.81981 12.9071 9.94999L12.6691 10.1881C12.6065 10.2506 12.5714 10.3354 12.5714 10.4238V10.7388C12.5714 10.8146 12.6015 10.8872 12.6551 10.9408V10.9408C12.8351 11.1208 12.7076 11.4286 12.4531 11.4286H12.1183C11.8638 11.4286 11.7363 11.1208 11.9163 10.9408V10.9408C11.9699 10.8872 12 10.8146 12 10.7388V10.619C12 10.435 11.8508 10.2857 11.6667 10.2857H11.5666C11.4782 10.2857 11.3934 10.3208 11.3309 10.3833L11.0928 10.6214C10.9627 10.7516 10.7516 10.7516 10.6214 10.6214L10.5214 10.5214C10.3912 10.3912 10.3912 10.1802 10.5214 10.05L10.7595 9.81192C10.822 9.7494 10.9068 9.71429 10.9952 9.71429H11.1953C11.4922 9.71429 11.6409 9.35524 11.431 9.14525L10.5214 8.2357C10.3912 8.10553 10.3912 7.89447 10.5214 7.7643L11.1929 7.09285C11.323 6.96267 11.323 6.75162 11.1929 6.62144L11.0928 6.52142Z"
          fill="#262626"/>
  </g>
</svg>
