<svg width="24" height="18" viewBox="0 0 24 18" fill="none" xmlns="http://www.w3.org/2000/svg">
  <rect width="24" height="17.1429" rx="2" fill="white"/>
  <mask id="mask0" mask-type="alpha" maskUnits="userSpaceOnUse" x="0" y="0" width="24" height="18">
    <rect width="24" height="17.1429" rx="2" fill="white"/>
  </mask>
  <g mask="url(#mask0)">
    <path fill-rule="evenodd" clip-rule="evenodd"
          d="M24 0H0V1.14286H24V0ZM24 2.28568H0V3.42854H24V2.28568ZM0 4.57146H24V5.71432H0V4.57146ZM24 6.85714H0V8H24V6.85714ZM0 9.14282H24V10.2857H0V9.14282ZM24 11.4286H0V12.5715H24V11.4286ZM0 13.7143H24V14.8571H0V13.7143ZM24 16H0V17.1428H24V16Z"
          fill="#D02F44"/>
    <rect width="10.2857" height="8" fill="#46467F"/>
    <g filter="url(#filter0_d)">
      <path fill-rule="evenodd" clip-rule="evenodd"
            d="M4.57142 1.71431C4.57142 2.0299 4.31558 2.28574 3.99999 2.28574C3.6844 2.28574 3.42856 2.0299 3.42856 1.71431C3.42856 1.39872 3.6844 1.14288 3.99999 1.14288C4.31558 1.14288 4.57142 1.39872 4.57142 1.71431ZM2.28579 1.71436C2.28579 2.02996 2.02996 2.28579 1.71436 2.28579C1.39877 2.28579 1.14294 2.02996 1.14294 1.71436C1.14294 1.39877 1.39877 1.14294 1.71436 1.14294C2.02996 1.14294 2.28579 1.39877 2.28579 1.71436ZM6.28578 2.28574C6.60137 2.28574 6.8572 2.0299 6.8572 1.71431C6.8572 1.39872 6.60137 1.14288 6.28578 1.14288C5.97018 1.14288 5.71435 1.39872 5.71435 1.71431C5.71435 2.0299 5.97018 2.28574 6.28578 2.28574ZM9.14288 1.71431C9.14288 2.0299 8.88705 2.28574 8.57145 2.28574C8.25586 2.28574 8.00003 2.0299 8.00003 1.71431C8.00003 1.39872 8.25586 1.14288 8.57145 1.14288C8.88705 1.14288 9.14288 1.39872 9.14288 1.71431ZM2.8572 3.42863C3.1728 3.42863 3.42863 3.1728 3.42863 2.8572C3.42863 2.54161 3.1728 2.28578 2.8572 2.28578C2.54161 2.28578 2.28578 2.54161 2.28578 2.8572C2.28578 3.1728 2.54161 3.42863 2.8572 3.42863ZM5.71431 2.8572C5.71431 3.1728 5.45847 3.42863 5.14288 3.42863C4.82729 3.42863 4.57145 3.1728 4.57145 2.8572C4.57145 2.54161 4.82729 2.28578 5.14288 2.28578C5.45847 2.28578 5.71431 2.54161 5.71431 2.8572ZM7.42856 3.42863C7.74415 3.42863 7.99999 3.1728 7.99999 2.8572C7.99999 2.54161 7.74415 2.28578 7.42856 2.28578C7.11297 2.28578 6.85713 2.54161 6.85713 2.8572C6.85713 3.1728 7.11297 3.42863 7.42856 3.42863ZM9.14288 3.99999C9.14288 4.31558 8.88705 4.57142 8.57145 4.57142C8.25586 4.57142 8.00003 4.31558 8.00003 3.99999C8.00003 3.6844 8.25586 3.42856 8.57145 3.42856C8.88705 3.42856 9.14288 3.6844 9.14288 3.99999ZM6.28578 4.57142C6.60137 4.57142 6.8572 4.31558 6.8572 3.99999C6.8572 3.6844 6.60137 3.42856 6.28578 3.42856C5.97018 3.42856 5.71435 3.6844 5.71435 3.99999C5.71435 4.31558 5.97018 4.57142 6.28578 4.57142ZM4.57142 3.99999C4.57142 4.31558 4.31558 4.57142 3.99999 4.57142C3.6844 4.57142 3.42856 4.31558 3.42856 3.99999C3.42856 3.6844 3.6844 3.42856 3.99999 3.42856C4.31558 3.42856 4.57142 3.6844 4.57142 3.99999ZM1.71431 4.57142C2.0299 4.57142 2.28574 4.31558 2.28574 3.99999C2.28574 3.6844 2.0299 3.42856 1.71431 3.42856C1.39872 3.42856 1.14288 3.6844 1.14288 3.99999C1.14288 4.31558 1.39872 4.57142 1.71431 4.57142ZM3.42863 5.14288C3.42863 5.45847 3.1728 5.71431 2.8572 5.71431C2.54161 5.71431 2.28578 5.45847 2.28578 5.14288C2.28578 4.82729 2.54161 4.57145 2.8572 4.57145C3.1728 4.57145 3.42863 4.82729 3.42863 5.14288ZM5.14288 5.71431C5.45847 5.71431 5.71431 5.45847 5.71431 5.14288C5.71431 4.82729 5.45847 4.57145 5.14288 4.57145C4.82729 4.57145 4.57145 4.82729 4.57145 5.14288C4.57145 5.45847 4.82729 5.71431 5.14288 5.71431ZM7.99999 5.14288C7.99999 5.45847 7.74415 5.71431 7.42856 5.71431C7.11297 5.71431 6.85713 5.45847 6.85713 5.14288C6.85713 4.82729 7.11297 4.57145 7.42856 4.57145C7.74415 4.57145 7.99999 4.82729 7.99999 5.14288ZM8.57145 6.8572C8.88705 6.8572 9.14288 6.60137 9.14288 6.28578C9.14288 5.97018 8.88705 5.71435 8.57145 5.71435C8.25586 5.71435 8.00003 5.97018 8.00003 6.28578C8.00003 6.60137 8.25586 6.8572 8.57145 6.8572ZM6.8572 6.28578C6.8572 6.60137 6.60137 6.8572 6.28578 6.8572C5.97018 6.8572 5.71435 6.60137 5.71435 6.28578C5.71435 5.97018 5.97018 5.71435 6.28578 5.71435C6.60137 5.71435 6.8572 5.97018 6.8572 6.28578ZM3.99999 6.8572C4.31558 6.8572 4.57142 6.60137 4.57142 6.28578C4.57142 5.97018 4.31558 5.71435 3.99999 5.71435C3.6844 5.71435 3.42856 5.97018 3.42856 6.28578C3.42856 6.60137 3.6844 6.8572 3.99999 6.8572ZM2.28574 6.28578C2.28574 6.60137 2.0299 6.8572 1.71431 6.8572C1.39872 6.8572 1.14288 6.60137 1.14288 6.28578C1.14288 5.97018 1.39872 5.71435 1.71431 5.71435C2.0299 5.71435 2.28574 5.97018 2.28574 6.28578Z"
            fill="url(#paint0_linear)"/>
    </g>
  </g>
  <defs>
    <filter id="filter0_d" x="1.14288" y="1.14288" width="8" height="6.71432" filterUnits="userSpaceOnUse"
            color-interpolation-filters="sRGB">
      <feFlood flood-opacity="0" result="BackgroundImageFix"/>
      <feColorMatrix in="SourceAlpha" type="matrix" values="0 0 0 0 0 0 0 0 0 0 0 0 0 0 0 0 0 0 127 0"/>
      <feOffset dy="1"/>
      <feColorMatrix type="matrix" values="0 0 0 0 0 0 0 0 0 0 0 0 0 0 0 0 0 0 0.06 0"/>
      <feBlend mode="normal" in2="BackgroundImageFix" result="effect1_dropShadow"/>
      <feBlend mode="normal" in="SourceGraphic" in2="effect1_dropShadow" result="shape"/>
    </filter>
    <linearGradient id="paint0_linear" x1="1.14288" y1="1.14288" x2="1.14288" y2="6.85717"
                    gradientUnits="userSpaceOnUse">
      <stop stop-color="white"/>
      <stop offset="1" stop-color="#F0F0F0"/>
    </linearGradient>
  </defs>
</svg>
