<svg width="24" height="18" viewBox="0 0 24 18" fill="none" xmlns="http://www.w3.org/2000/svg">
  <rect x="0.25" y="0.25" width="23.5" height="16.6429" rx="1.75" fill="white" stroke="#F5F5F5" stroke-width="0.5"/>
  <mask id="mask0" mask-type="alpha" maskUnits="userSpaceOnUse" x="0" y="0" width="24" height="18">
    <rect x="0.25" y="0.25" width="23.5" height="16.6429" rx="1.75" fill="white" stroke="white" stroke-width="0.5"/>
  </mask>
  <g mask="url(#mask0)">
    <path fill-rule="evenodd" clip-rule="evenodd"
          d="M11.4286 3.05176e-05H11.4286V11.4286H0V13.7143H24V11.4286H11.4286V9.14285H24V6.8571H11.4286V4.57139H24V2.28574H11.4286V3.05176e-05ZM0 17.1429V16H24V17.1429H0Z"
          fill="#0E4DC5"/>
    <path fill-rule="evenodd" clip-rule="evenodd"
          d="M5.71425 7.98974L4.95132 9.12858L4.75807 7.77149L3.57657 8.46653L3.99127 7.16L2.62521 7.27357L3.56573 6.27635L2.28568 5.78597L3.56573 5.29559L2.62521 4.29837L3.99127 4.41194L3.57657 3.1054L4.75807 3.80044L4.95132 2.44336L5.71425 3.5822L6.47718 2.44336L6.67043 3.80044L7.85193 3.1054L7.43722 4.41194L8.80328 4.29837L7.86276 5.29559L9.14282 5.78597L7.86276 6.27635L8.80328 7.27357L7.43722 7.16L7.85193 8.46653L6.67043 7.77149L6.47718 9.12858L5.71425 7.98974ZM5.71428 7.96783C6.91927 7.96783 7.8961 6.99099 7.8961 5.78601C7.8961 4.58102 6.91927 3.60419 5.71428 3.60419C4.5093 3.60419 3.53247 4.58102 3.53247 5.78601C3.53247 6.99099 4.5093 7.96783 5.71428 7.96783ZM7.42853 5.7144C7.42853 6.66118 6.66102 7.42869 5.71425 7.42869C4.76747 7.42869 3.99996 6.66118 3.99996 5.7144C3.99996 4.76763 4.76747 4.00012 5.71425 4.00012C6.66102 4.00012 7.42853 4.76763 7.42853 5.7144Z"
          fill="#FED443"/>
  </g>
</svg>
