<svg width="24" height="18" viewBox="0 0 24 18" fill="none" xmlns="http://www.w3.org/2000/svg">
  <rect x="0.25" y="0.25" width="23.5" height="16.6429" rx="1.75" fill="white" stroke="#F5F5F5" stroke-width="0.5"/>
  <mask id="mask0" mask-type="alpha" maskUnits="userSpaceOnUse" x="0" y="0" width="24" height="18">
    <rect x="0.25" y="0.25" width="23.5" height="16.6429" rx="1.75" fill="white" stroke="white" stroke-width="0.5"/>
  </mask>
  <g mask="url(#mask0)">
    <path fill-rule="evenodd" clip-rule="evenodd" d="M0 5.71429H24V0H0V5.71429Z" fill="#04AAC8"/>
    <path fill-rule="evenodd" clip-rule="evenodd" d="M0 17.1429H24V11.4286H0V17.1429Z" fill="#23C840"/>
    <path fill-rule="evenodd" clip-rule="evenodd"
          d="M8.57139 2.28574C8.88698 2.28574 9.14282 2.0299 9.14282 1.71431C9.14282 1.39872 8.88698 1.14288 8.57139 1.14288C8.2558 1.14288 7.99996 1.39872 7.99996 1.71431C7.99996 2.0299 8.2558 2.28574 8.57139 2.28574ZM3.99996 4.57151C4.3525 4.57151 4.68018 4.46509 4.95263 4.28264C4.92108 4.28472 4.88925 4.28578 4.85717 4.28578C4.0682 4.28578 3.4286 3.64618 3.4286 2.8572C3.4286 2.06823 4.0682 1.42863 4.85717 1.42863C4.88923 1.42863 4.92104 1.42969 4.95257 1.43177C4.68013 1.24933 4.35247 1.14294 3.99996 1.14294C3.05319 1.14294 2.28568 1.91045 2.28568 2.85722C2.28568 3.804 3.05319 4.57151 3.99996 4.57151ZM6.85714 3.99999C6.85714 4.31558 6.6013 4.57142 6.28571 4.57142C5.97012 4.57142 5.71428 4.31558 5.71428 3.99999C5.71428 3.6844 5.97012 3.42856 6.28571 3.42856C6.6013 3.42856 6.85714 3.6844 6.85714 3.99999ZM11.4286 1.71431C11.4286 2.0299 11.1728 2.28574 10.8572 2.28574C10.5416 2.28574 10.2857 2.0299 10.2857 1.71431C10.2857 1.39872 10.5416 1.14288 10.8572 1.14288C11.1728 1.14288 11.4286 1.39872 11.4286 1.71431ZM10.8572 4.57142C11.1728 4.57142 11.4286 4.31558 11.4286 3.99999C11.4286 3.6844 11.1728 3.42856 10.8572 3.42856C10.5416 3.42856 10.2857 3.6844 10.2857 3.99999C10.2857 4.31558 10.5416 4.57142 10.8572 4.57142ZM9.14282 3.99999C9.14282 4.31558 8.88698 4.57142 8.57139 4.57142C8.2558 4.57142 7.99996 4.31558 7.99996 3.99999C7.99996 3.6844 8.2558 3.42856 8.57139 3.42856C8.88698 3.42856 9.14282 3.6844 9.14282 3.99999Z"
          fill="white"/>
  </g>
</svg>
