<svg width="24" height="18" viewBox="0 0 24 18" fill="none" xmlns="http://www.w3.org/2000/svg">
  <path d="M22.2026 0H12V17.1399H22.2026C23.1952 17.1399 24 16.2627 24 15.1806V1.95926C24 0.877157 23.1953 0 22.2026 0Z"
        fill="#F5F5F5"/>
  <path d="M1.79742 0C0.804703 0 0 0.877157 0 1.95926V15.1807C0 16.2628 0.804703 17.14 1.79742 17.14H12V0H1.79742Z"
        fill="#FFE15A"/>
  <path
    d="M19.1374 4.41868L19.1099 4.47862C19.1987 4.52818 19.2495 4.58459 19.2495 4.64468L19.2356 4.34674C19.2172 4.38675 19.1809 4.41546 19.1374 4.41868Z"
    fill="#EBEBEB"/>
  <path
    d="M16.9892 4.47862L16.9617 4.41868C16.9182 4.41541 16.882 4.38675 16.8634 4.34674L16.8496 4.64468C16.8496 4.58474 16.9004 4.52823 16.9892 4.47862Z"
    fill="#EBEBEB"/>
  <path
    d="M16.9696 4.15865C17.0359 4.15865 17.0896 4.2172 17.0896 4.28945C17.0896 4.31561 17.0808 4.33861 17.0686 4.35905L17.1002 4.42787C17.1908 4.39318 17.3024 4.3637 17.4296 4.34086L17.4161 4.28199C17.3665 4.26595 17.3296 4.21782 17.3296 4.1586C17.3296 4.08635 17.3834 4.02779 17.4496 4.02779C17.5159 4.02779 17.5696 4.08635 17.5696 4.1586C17.5696 4.19549 17.5554 4.22845 17.5329 4.25226L17.549 4.3221C17.6159 4.31296 17.6859 4.30575 17.7587 4.30034C17.7532 4.27576 17.7496 4.25037 17.7496 4.224C17.7496 4.04343 17.884 3.89699 18.0496 3.89699C18.2153 3.89699 18.3496 4.04343 18.3496 4.224C18.3496 4.25047 18.346 4.27576 18.3406 4.30034C18.4134 4.3057 18.4835 4.31296 18.5503 4.3221L18.5663 4.25226C18.5438 4.22845 18.5296 4.19549 18.5296 4.1586C18.5296 4.08635 18.5834 4.02779 18.6496 4.02779C18.7159 4.02779 18.7696 4.08635 18.7696 4.1586C18.7696 4.21787 18.7327 4.26595 18.6832 4.28199L18.6697 4.34086C18.7969 4.36364 18.9085 4.39313 18.999 4.42787L19.0306 4.35905C19.0185 4.33856 19.0096 4.31561 19.0096 4.28945C19.0096 4.2172 19.0634 4.15865 19.1296 4.15865C19.1728 4.15865 19.209 4.18486 19.2301 4.22221L19.2209 4.02274C19.1024 3.87609 18.6234 3.76624 18.0496 3.76624C17.4758 3.76624 16.9969 3.87599 16.8784 4.02274L16.8692 4.22221C16.8903 4.18486 16.9265 4.15865 16.9696 4.15865Z"
    fill="#EBEBEB"/>
  <path
    d="M18.2369 2.61994C18.2694 2.57528 18.2896 2.51959 18.2896 2.45822C18.2896 2.33646 18.2129 2.23509 18.1096 2.20586V2.04573C18.1448 2.02294 18.1696 1.98288 18.1696 1.935C18.1696 1.86275 18.1159 1.8042 18.0496 1.8042C17.9833 1.8042 17.9296 1.86275 17.9296 1.935C17.9296 1.98288 17.9544 2.02294 17.9896 2.04573V2.20586C17.8862 2.23499 17.8096 2.33646 17.8096 2.45822C17.8096 2.51964 17.8298 2.57533 17.8622 2.61994C17.9232 2.60175 17.9854 2.58903 18.0496 2.58903C18.1137 2.58903 18.1759 2.6017 18.2369 2.61994Z"
    fill="#E6B432"/>
  <path
    d="M17.5467 3.28211L17.5361 3.23566C17.4865 3.21962 17.4496 3.17149 17.4496 3.11227C17.4496 3.04002 17.5033 2.98146 17.5696 2.98146C17.6359 2.98146 17.6896 3.04002 17.6896 3.11227C17.6896 3.14916 17.6754 3.18212 17.6529 3.20593L17.6664 3.26489C17.7838 3.25089 17.9133 3.24307 18.0496 3.24307C17.9502 3.24307 17.8696 3.15524 17.8696 3.04687C17.8696 2.93849 17.9502 2.85066 18.0496 2.85066C18.149 2.85066 18.2296 2.93849 18.2296 3.04687C18.2296 3.15524 18.149 3.24307 18.0496 3.24307C18.1859 3.24307 18.3154 3.25089 18.4327 3.26489L18.4463 3.20593C18.4238 3.18212 18.4096 3.14916 18.4096 3.11227C18.4096 3.04002 18.4633 2.98146 18.5296 2.98146C18.5959 2.98146 18.6496 3.04002 18.6496 3.11227C18.6496 3.17154 18.6127 3.21962 18.5631 3.23566L18.5525 3.28211C18.6134 3.29238 18.6702 3.30429 18.7211 3.31788L18.8095 3.12504C18.6565 2.86655 18.4587 2.68618 18.2369 2.61996C18.1759 2.60177 18.1137 2.58905 18.0495 2.58905C17.9854 2.58905 17.9233 2.60172 17.8622 2.61996C17.6403 2.68613 17.4426 2.8665 17.2896 3.12504L17.378 3.31788C17.429 3.30434 17.4857 3.29243 17.5467 3.28211Z"
    fill="#EBEBEB"/>
  <path
    d="M17.9298 13.9928V13.7072C17.9298 13.6766 17.9338 13.6471 17.9399 13.6186C17.9367 13.6163 17.9332 13.6147 17.9298 13.6126C17.8944 13.5902 17.8537 13.5764 17.8098 13.5764C17.7659 13.5764 17.7253 13.5902 17.6898 13.6126C17.6184 13.658 17.5698 13.7413 17.5698 13.838C17.5698 13.9083 17.5957 13.9719 17.637 14.0189C17.6885 13.9879 17.7469 13.9688 17.8098 13.9688C17.8522 13.9688 17.8921 13.9782 17.9298 13.9928Z"
    fill="#E6B432"/>
  <path
    d="M18.1696 12.9589C18.0982 13.0042 18.0496 13.0876 18.0496 13.1842C18.0496 13.2546 18.0755 13.3182 18.1168 13.3651C18.1683 13.3342 18.2267 13.315 18.2896 13.315C18.3526 13.315 18.4108 13.3342 18.4624 13.3651C18.5038 13.3181 18.5296 13.2546 18.5296 13.1842C18.5296 13.0876 18.4811 13.0042 18.4096 12.9589C18.3742 12.9365 18.3335 12.9226 18.2896 12.9226C18.2457 12.9226 18.2051 12.9364 18.1696 12.9589Z"
    fill="#E6B432"/>
  <path
    d="M18.1169 13.3651C18.0288 13.4181 17.963 13.5091 17.9397 13.6189C17.9337 13.6474 17.9297 13.6769 17.9297 13.7075V13.9931C17.892 13.9785 17.852 13.9691 17.8097 13.9691C17.7468 13.9691 17.6884 13.9882 17.6369 14.0192C17.5258 14.086 17.4497 14.2134 17.4497 14.3615V14.8847H18.1697V14.3615C18.1697 14.3154 18.1611 14.2718 18.1477 14.2307H18.6497V13.7075C18.6497 13.5594 18.5736 13.432 18.4625 13.3652C18.411 13.3342 18.3527 13.3151 18.2897 13.3151C18.2268 13.3151 18.1684 13.3342 18.1169 13.3651Z"
    fill="#FF4B57"/>
  <path
    d="M18.1696 8.10484L18.3747 8.32839L18.4448 8.25195C18.4614 8.23381 18.4822 8.22446 18.5036 8.21919L19.5185 7.11267L20.1685 7.82126L20.5928 7.35885L20.4231 7.17388L20.3382 7.26636L20.1685 7.0814L20.2533 6.98892L20.1685 6.89638L20.3382 6.71142L20.4231 6.8039L20.5079 6.71142L20.6776 6.89638L20.5928 6.98892L20.7624 7.17388L21.1867 6.71147L20.5365 6.00272L20.9814 5.51757C20.9599 5.50796 20.9398 5.49381 20.9223 5.47485L20.6823 5.21324C20.6644 5.19372 20.6513 5.17109 20.6425 5.14697L18.1425 7.87277C18.1585 7.89499 18.1696 7.92172 18.1696 7.95217L18.1696 8.10484Z"
    fill="#E6B432"/>
  <path
    d="M17.8944 8.88335L17.5549 8.51337L16.4999 9.66373C16.4063 9.76597 16.4063 9.93157 16.5 10.0337C16.5468 10.0848 16.6083 10.1103 16.6697 10.1103C16.7311 10.1103 16.7926 10.0848 16.8394 10.0337L17.6641 9.13454L17.8944 8.88335Z"
    fill="#E6B432"/>
  <path
    d="M14.6185 10.2411C14.6252 10.2205 14.6295 10.1987 14.6295 10.1757C14.6295 10.0673 14.549 9.97949 14.4495 9.97949C14.3501 9.97949 14.2695 10.0673 14.2695 10.1757C14.2695 10.2841 14.3501 10.3719 14.4495 10.3719C14.4707 10.3719 14.4906 10.3672 14.5095 10.3599C14.5435 10.3178 14.5799 10.2781 14.6185 10.2411Z"
    fill="#D2D2D2"/>
  <path
    d="M14.5095 12.0844C14.4906 12.0771 14.4707 12.0724 14.4495 12.0724C14.3501 12.0724 14.2695 12.1602 14.2695 12.2686C14.2695 12.377 14.3501 12.4648 14.4495 12.4648C14.549 12.4648 14.6295 12.377 14.6295 12.2686C14.6295 12.2456 14.6252 12.2238 14.6185 12.2032C14.5799 12.1661 14.5435 12.1264 14.5095 12.0844Z"
    fill="#D2D2D2"/>
  <path
    d="M16.3097 10.3609C16.3285 10.3681 16.3485 10.3729 16.3696 10.3729C16.4691 10.3729 16.5496 10.285 16.5496 10.1767C16.5496 10.0683 16.4691 9.98047 16.3696 9.98047C16.2702 9.98047 16.1896 10.0683 16.1896 10.1767C16.1896 10.1997 16.1939 10.2215 16.2007 10.242C16.2393 10.2791 16.2757 10.3187 16.3097 10.3609Z"
    fill="#D2D2D2"/>
  <path
    d="M16.1895 12.2685C16.1895 12.3769 16.27 12.4647 16.3695 12.4647C16.4249 12.4647 16.4738 12.4368 16.5069 12.3939C16.3941 12.3494 16.2887 12.2998 16.1916 12.2455C16.1908 12.2533 16.1895 12.2607 16.1895 12.2685Z"
    fill="#D2D2D2"/>
  <path
    d="M15.9389 12.0792C15.9137 12.0592 15.8985 12.0303 15.8927 11.9994C15.8723 12.0042 15.8512 12.007 15.8295 12.007C15.687 12.007 15.5679 11.8979 15.5375 11.7524C15.5049 11.7884 15.4596 11.8108 15.4095 11.8108C15.3594 11.8108 15.3141 11.7884 15.2816 11.7524C15.2512 11.8979 15.1321 12.007 14.9895 12.007C14.8241 12.007 14.6895 11.8604 14.6895 11.68C14.6895 11.5246 14.7896 11.3948 14.9231 11.3617C14.8901 11.3261 14.8695 11.2767 14.8695 11.2222C14.8695 11.1676 14.8901 11.1182 14.9231 11.0827C14.7896 11.0496 14.6895 10.9197 14.6895 10.7644C14.6895 10.584 14.8241 10.4374 14.9895 10.4374C15.132 10.4374 15.2511 10.5464 15.2816 10.692C15.3142 10.6559 15.3595 10.6336 15.4095 10.6336C15.4596 10.6336 15.5049 10.6559 15.5375 10.692C15.5679 10.5464 15.687 10.4374 15.8295 10.4374C15.9949 10.4374 16.1295 10.584 16.1295 10.7644C16.1295 10.9197 16.0294 11.0495 15.8959 11.0827C15.929 11.1183 15.9495 11.1676 15.9495 11.2222C15.9495 11.2768 15.929 11.3262 15.8959 11.3617C16.0294 11.3948 16.1295 11.5246 16.1295 11.68C16.1295 11.749 16.1096 11.8128 16.076 11.8656C16.0772 11.8665 16.0785 11.8665 16.0796 11.8674C16.1573 11.9287 16.2468 11.9856 16.3461 12.0377C16.376 11.997 16.4032 11.954 16.4285 11.9095C16.5076 11.7707 16.5635 11.6151 16.5903 11.4483C16.6022 11.3747 16.6095 11.2995 16.6095 11.2222C16.6095 10.8918 16.4956 10.5905 16.3095 10.36C16.2755 10.3179 16.2391 10.2782 16.2005 10.2411C15.989 10.0383 15.7126 9.91418 15.4095 9.91418C15.1063 9.91418 14.8299 10.0383 14.6185 10.2411C14.5798 10.2782 14.5434 10.3179 14.5094 10.36C14.3234 10.5905 14.2095 10.8918 14.2095 11.2222C14.2095 11.5527 14.3234 11.854 14.5094 12.0845C14.5435 12.1266 14.5798 12.1663 14.6185 12.2033C14.8299 12.4061 15.1063 12.5303 15.4095 12.5303C15.6978 12.5303 15.9626 12.4187 16.1698 12.2333C16.0863 12.1852 16.0084 12.1341 15.9389 12.0792ZM16.3372 10.9576C16.3576 11.0422 16.3696 11.1306 16.3696 11.2221C16.3696 11.3136 16.3576 11.402 16.3372 11.4867C16.3033 11.3813 16.2432 11.2905 16.1648 11.2221C16.2432 11.1537 16.3033 11.0629 16.3372 10.9576ZM15.6523 10.2109C15.5556 10.2479 15.4723 10.3134 15.4096 10.3989C15.3468 10.3134 15.2635 10.2479 15.1668 10.2109C15.2445 10.1887 15.3256 10.1757 15.4096 10.1757C15.4936 10.1757 15.5746 10.1887 15.6523 10.2109ZM14.4819 10.9576C14.5158 11.0629 14.5758 11.1538 14.6543 11.2221C14.5758 11.2906 14.5158 11.3813 14.4819 11.4867C14.4615 11.402 14.4495 11.3137 14.4495 11.2221C14.4495 11.1306 14.4615 11.0423 14.4819 10.9576ZM15.1668 12.2334C15.2635 12.1964 15.3468 12.1309 15.4095 12.0454C15.4723 12.1309 15.5556 12.1965 15.6522 12.2334C15.5746 12.2556 15.4935 12.2686 15.4095 12.2686C15.3255 12.2686 15.2445 12.2555 15.1668 12.2334Z"
    fill="#E6B432"/>
  <path
    d="M15.2296 11.2223C15.2296 11.114 15.1491 11.0261 15.0496 11.0261C15.0003 11.0261 14.9557 11.0478 14.9232 11.0828C14.8902 11.1184 14.8696 11.1678 14.8696 11.2223C14.8696 11.277 14.8902 11.3263 14.9232 11.3618C14.9557 11.3968 15.0003 11.4185 15.0496 11.4185C15.1491 11.4185 15.2296 11.3307 15.2296 11.2223Z"
    fill="#F0C814"/>
  <path
    d="M15.5898 11.2223C15.5898 11.3307 15.6704 11.4185 15.7698 11.4185C15.8192 11.4185 15.8638 11.3968 15.8963 11.3618C15.9293 11.3263 15.9498 11.2769 15.9498 11.2223C15.9498 11.1677 15.9293 11.1183 15.8963 11.0828C15.8637 11.0478 15.8192 11.0261 15.7698 11.0261C15.6704 11.0261 15.5898 11.1139 15.5898 11.2223Z"
    fill="#F0C814"/>
  <path
    d="M15.4096 11.0259C15.5091 11.0259 15.5896 10.9381 15.5896 10.8297C15.5896 10.7759 15.5697 10.7273 15.5376 10.6919C15.505 10.6559 15.4597 10.6335 15.4096 10.6335C15.3595 10.6335 15.3143 10.6559 15.2817 10.6919C15.2496 10.7273 15.2296 10.7759 15.2296 10.8297C15.2296 10.9381 15.3102 11.0259 15.4096 11.0259Z"
    fill="#F0C814"/>
  <path
    d="M15.4095 11.4185C15.3101 11.4185 15.2295 11.5064 15.2295 11.6147C15.2295 11.6685 15.2494 11.7171 15.2815 11.7525C15.3141 11.7886 15.3594 11.8109 15.4095 11.8109C15.4596 11.8109 15.5049 11.7886 15.5375 11.7525C15.5696 11.7171 15.5895 11.6685 15.5895 11.6147C15.5895 11.5064 15.5089 11.4185 15.4095 11.4185Z"
    fill="#F0C814"/>
  <path
    d="M20.9224 5.47466C20.9399 5.49367 20.96 5.50788 20.9815 5.51738C21.0033 5.52714 21.0265 5.53209 21.0497 5.53209C21.0957 5.53209 21.1418 5.51293 21.1769 5.47456C21.2393 5.40655 21.2431 5.30283 21.1948 5.22639L21.2612 4.93714C21.2706 4.93974 21.2796 4.94337 21.2897 4.94337C21.356 4.94337 21.4097 4.88482 21.4097 4.81257C21.4097 4.74032 21.356 4.68176 21.2897 4.68176C21.2234 4.68176 21.1697 4.74032 21.1697 4.81257C21.1697 4.8236 21.1731 4.83341 21.1754 4.84368L20.9101 4.91604C20.8399 4.86336 20.7447 4.8675 20.6824 4.9355C20.63 4.99263 20.6169 5.07612 20.6426 5.14673C20.6514 5.1708 20.6645 5.19348 20.6824 5.213L20.9224 5.47466Z"
    fill="#D2D2D2"/>
  <path
    d="M17.9297 8.55197V8.47533V7.95211C17.9297 7.92166 17.9407 7.89493 17.9567 7.87271L15.4567 5.14691C15.4479 5.17098 15.4348 5.19366 15.4169 5.21318L15.1769 5.47479C15.1595 5.4938 15.1393 5.508 15.1179 5.51751L15.5628 6.00266L14.9126 6.71141L15.3368 7.17382L15.5065 6.98885L15.4217 6.89632L15.5913 6.71135L15.6762 6.80384L15.7611 6.71135L15.9308 6.89632L15.8459 6.98885L15.9308 7.08134L15.7611 7.2663L15.6762 7.17382L15.5065 7.35879L15.9307 7.8212L16.5808 7.11261L17.5957 8.21913C17.6171 8.2244 17.6378 8.23375 17.6545 8.25189L17.9297 8.55197Z"
    fill="#D2D2D2"/>
  <path
    d="M18.2051 8.88346L18.4354 9.1346L19.26 10.0337C19.3069 10.0848 19.3683 10.1104 19.4298 10.1104C19.4912 10.1104 19.5526 10.0848 19.5995 10.0337C19.6933 9.93169 19.6933 9.76598 19.5996 9.66379L18.5445 8.51343L18.2051 8.88346Z"
    fill="#D2D2D2"/>
  <path d="M18.1694 8.47537V8.55202L18.3745 8.32852L18.1694 8.10498V8.47537Z" fill="#D2D2D2"/>
  <path
    d="M21.5898 10.3601C21.6086 10.3673 21.6286 10.3721 21.6497 10.3721C21.7491 10.3721 21.8297 10.2843 21.8297 10.1759C21.8297 10.0675 21.7491 9.97968 21.6497 9.97968C21.5503 9.97968 21.4697 10.0675 21.4697 10.1759C21.4697 10.1989 21.474 10.2207 21.4807 10.2412C21.5194 10.2783 21.5557 10.3179 21.5898 10.3601Z"
    fill="#D2D2D2"/>
  <path
    d="M21.6497 12.0724C21.6286 12.0724 21.6086 12.0771 21.5898 12.0845C21.5557 12.1266 21.5194 12.1663 21.4807 12.2033C21.4741 12.2238 21.4697 12.2456 21.4697 12.2687C21.4697 12.377 21.5503 12.4649 21.6497 12.4649C21.7491 12.4649 21.8297 12.377 21.8297 12.2687C21.8297 12.1603 21.7491 12.0724 21.6497 12.0724Z"
    fill="#D2D2D2"/>
  <path
    d="M19.8988 10.2412C19.9054 10.2206 19.9098 10.1989 19.9098 10.1758C19.9098 10.0674 19.8292 9.97961 19.7298 9.97961C19.6304 9.97961 19.5498 10.0674 19.5498 10.1758C19.5498 10.2842 19.6304 10.372 19.7298 10.372C19.7509 10.372 19.7709 10.3673 19.7898 10.36C19.8238 10.3179 19.8602 10.2783 19.8988 10.2412Z"
    fill="#D2D2D2"/>
  <path
    d="M19.7297 12.4649C19.8291 12.4649 19.9097 12.3771 19.9097 12.2687C19.9097 12.2609 19.9084 12.2534 19.9076 12.2457C19.8105 12.3 19.7051 12.3496 19.5923 12.3941C19.6253 12.437 19.6742 12.4649 19.7297 12.4649Z"
    fill="#D2D2D2"/>
  <path
    d="M21.5898 12.0844C21.7758 11.8539 21.8897 11.5526 21.8897 11.2222C21.8897 10.8917 21.7758 10.5904 21.5898 10.3599C21.5558 10.3178 21.5194 10.2781 21.4808 10.2411C21.2693 10.0383 20.9929 9.91412 20.6897 9.91412C20.3866 9.91412 20.1102 10.0383 19.8987 10.2411C19.8601 10.2782 19.8237 10.3178 19.7897 10.3599C19.6037 10.5904 19.4897 10.8917 19.4897 11.2222C19.4897 11.2998 19.4972 11.3755 19.5091 11.4494C19.536 11.6158 19.5918 11.771 19.6707 11.9095C19.696 11.954 19.7232 11.9969 19.7531 12.0377C19.8524 11.9857 19.9418 11.9288 20.0194 11.8676C20.0206 11.8666 20.022 11.8665 20.0232 11.8656C19.9897 11.8128 19.9697 11.749 19.9697 11.68C19.9697 11.5246 20.0699 11.3948 20.2033 11.3617C20.1703 11.3261 20.1497 11.2767 20.1497 11.2222C20.1497 11.1675 20.1703 11.1182 20.2033 11.0827C20.0699 11.0496 19.9697 10.9197 19.9697 10.7644C19.9697 10.584 20.1043 10.4373 20.2697 10.4373C20.4122 10.4373 20.5314 10.5464 20.5618 10.692C20.5944 10.6559 20.6397 10.6335 20.6897 10.6335C20.7398 10.6335 20.7851 10.6559 20.8177 10.692C20.8481 10.5464 20.9672 10.4373 21.1097 10.4373C21.2752 10.4373 21.4097 10.584 21.4097 10.7644C21.4097 10.9197 21.3096 11.0495 21.1762 11.0827C21.2092 11.1182 21.2297 11.1676 21.2297 11.2222C21.2297 11.2768 21.2092 11.3261 21.1762 11.3617C21.3096 11.3948 21.4097 11.5246 21.4097 11.68C21.4097 11.8604 21.2752 12.007 21.1097 12.007C20.9672 12.007 20.8481 11.8979 20.8177 11.7524C20.7851 11.7884 20.7398 11.8108 20.6897 11.8108C20.6397 11.8108 20.5944 11.7884 20.5618 11.7524C20.5314 11.8979 20.4123 12.007 20.2697 12.007C20.248 12.007 20.2269 12.0042 20.2064 11.9994C20.2006 12.0303 20.1854 12.0594 20.1601 12.0793C20.0906 12.1342 20.0129 12.1853 19.9294 12.2332C20.1365 12.4187 20.4014 12.5303 20.6897 12.5303C20.9928 12.5303 21.2693 12.4061 21.4807 12.2033C21.5194 12.1662 21.5558 12.1265 21.5898 12.0844ZM19.7621 11.4867C19.7417 11.4021 19.7297 11.3137 19.7297 11.2222C19.7297 11.1306 19.7417 11.0423 19.7621 10.9576C19.796 11.063 19.8561 11.1538 19.9345 11.2222C19.8561 11.2906 19.796 11.3813 19.7621 11.4867ZM20.6897 10.3989C20.6269 10.3134 20.5437 10.2479 20.447 10.2109C20.5247 10.1887 20.6057 10.1757 20.6897 10.1757C20.7737 10.1757 20.8548 10.1887 20.9325 10.2109C20.8358 10.2479 20.7526 10.3134 20.6897 10.3989ZM21.6175 10.9575C21.6378 11.0422 21.6498 11.1306 21.6498 11.2221C21.6498 11.3136 21.6378 11.402 21.6175 11.4867C21.5836 11.3813 21.5235 11.2905 21.445 11.2221C21.5235 11.1537 21.5836 11.0629 21.6175 10.9575ZM20.447 12.2334C20.5437 12.1964 20.627 12.1309 20.6897 12.0454C20.7526 12.1309 20.8358 12.1965 20.9325 12.2334C20.8548 12.2556 20.7737 12.2686 20.6897 12.2686C20.6057 12.2686 20.5247 12.2555 20.447 12.2334Z"
    fill="#E6B432"/>
  <path
    d="M20.8696 11.2223C20.8696 11.3307 20.9502 11.4185 21.0496 11.4185C21.0989 11.4185 21.1436 11.3968 21.1761 11.3618C21.2091 11.3263 21.2296 11.2769 21.2296 11.2223C21.2296 11.1677 21.2091 11.1183 21.1761 11.0828C21.1435 11.0478 21.0989 11.0261 21.0496 11.0261C20.9502 11.0261 20.8696 11.1139 20.8696 11.2223Z"
    fill="#F0C814"/>
  <path
    d="M20.5094 11.2223C20.5094 11.114 20.4288 11.0261 20.3294 11.0261C20.2801 11.0261 20.2355 11.0478 20.203 11.0828C20.1699 11.1184 20.1494 11.1678 20.1494 11.2223C20.1494 11.277 20.1699 11.3263 20.203 11.3618C20.2355 11.3968 20.2801 11.4185 20.3294 11.4185C20.4288 11.4185 20.5094 11.3307 20.5094 11.2223Z"
    fill="#F0C814"/>
  <path
    d="M20.6896 11.0259C20.7891 11.0259 20.8696 10.9381 20.8696 10.8297C20.8696 10.7759 20.8497 10.7273 20.8176 10.6919C20.785 10.6559 20.7397 10.6335 20.6896 10.6335C20.6396 10.6335 20.5943 10.6559 20.5617 10.6919C20.5296 10.7273 20.5096 10.7759 20.5096 10.8297C20.5096 10.9381 20.5902 11.0259 20.6896 11.0259Z"
    fill="#F0C814"/>
  <path
    d="M20.6898 11.4185C20.5903 11.4185 20.5098 11.5064 20.5098 11.6147C20.5098 11.6685 20.5297 11.7171 20.5618 11.7525C20.5944 11.7886 20.6397 11.8109 20.6898 11.8109C20.7398 11.8109 20.7852 11.7886 20.8177 11.7525C20.8498 11.7171 20.8698 11.6685 20.8698 11.6147C20.8698 11.5064 20.7892 11.4185 20.6898 11.4185Z"
    fill="#F0C814"/>
  <path
    d="M15.4168 5.213C15.4347 5.19348 15.4478 5.17085 15.4566 5.14673C15.4823 5.07612 15.4692 4.99268 15.4168 4.9355C15.3544 4.8675 15.2592 4.86341 15.1891 4.91604L14.9237 4.84368C14.9261 4.83341 14.9295 4.8236 14.9295 4.81257C14.9295 4.74032 14.8757 4.68176 14.8095 4.68176C14.7432 4.68176 14.6895 4.74032 14.6895 4.81257C14.6895 4.88482 14.7432 4.94337 14.8095 4.94337C14.8196 4.94337 14.8286 4.93964 14.838 4.93714L14.9044 5.22639C14.856 5.30283 14.8598 5.4066 14.9222 5.47456C14.9574 5.51288 15.0034 5.53209 15.0495 5.53209C15.0727 5.53209 15.0959 5.52709 15.1177 5.51738C15.1391 5.50777 15.1593 5.49362 15.1767 5.47466L15.4168 5.213Z"
    fill="#F7B518"/>
  <path
    d="M20.1602 12.0793C20.1855 12.0593 20.2007 12.0303 20.2065 11.9993C20.213 11.9646 20.2075 11.9275 20.187 11.8966C20.149 11.8395 20.0767 11.8264 20.0233 11.8656C20.0221 11.8665 20.0207 11.8665 20.0195 11.8675C19.9419 11.9287 19.8525 11.9856 19.7532 12.0376C19.4013 12.2221 18.925 12.3452 18.4098 12.385V10.5477C18.9335 11.3273 19.4436 11.7462 19.6708 11.9095C19.5919 11.771 19.5361 11.6158 19.5092 11.4494C19.2188 11.1875 18.8081 10.7476 18.4098 10.0843V9.19545C18.4183 9.17507 18.427 9.15519 18.4354 9.13455L18.2051 8.88341L18.5445 8.51343L18.6146 8.43699C18.6615 8.38589 18.6615 8.30312 18.6146 8.25202C18.5845 8.21912 18.5425 8.20972 18.5037 8.21927C18.4823 8.22454 18.4616 8.23389 18.4449 8.25202L18.3748 8.32846L18.1697 8.55196V8.47531V8.10487V7.95209C18.1697 7.92164 18.1587 7.89492 18.1427 7.87269C18.1207 7.84214 18.0881 7.82129 18.0497 7.82129C18.0114 7.82129 17.9788 7.84214 17.9568 7.87269C17.9408 7.89492 17.9297 7.92164 17.9297 7.95209V8.47531V8.55196L17.6546 8.25202C17.638 8.23389 17.6172 8.22454 17.5958 8.21927C17.557 8.20977 17.5151 8.21912 17.4849 8.25202C17.438 8.30312 17.438 8.38589 17.4849 8.43699L17.555 8.51343L17.8944 8.88341L17.6641 9.13455C17.6725 9.15524 17.6812 9.17501 17.6897 9.19545V10.0832C17.2918 10.7452 16.8811 11.1856 16.5905 11.4482C16.5636 11.615 16.5078 11.7707 16.4287 11.9094C16.6559 11.7462 17.1659 11.3272 17.6897 10.5476V12.3849C17.1745 12.3451 16.6982 12.222 16.3463 12.0376C16.2469 11.9855 16.1574 11.9286 16.0798 11.8673C16.0787 11.8664 16.0773 11.8663 16.0762 11.8655C16.0228 11.8262 15.9504 11.8394 15.9122 11.8964C15.8916 11.9274 15.8862 11.9646 15.8928 11.9993C15.8987 12.0302 15.9138 12.0592 15.939 12.0791C16.0086 12.134 16.0864 12.1852 16.1699 12.2331C16.1772 12.2373 16.1844 12.2414 16.1918 12.2455C16.2888 12.2999 16.3943 12.3494 16.5071 12.3939C16.8479 12.5283 17.2539 12.6162 17.6897 12.6476V13.6129C17.7251 13.5904 17.7657 13.5766 17.8097 13.5766C17.8536 13.5766 17.8942 13.5904 17.9297 13.6129V12.6591C17.9695 12.66 18.0094 12.6609 18.0497 12.6609C18.0899 12.6609 18.1298 12.6599 18.1697 12.6591V12.9588C18.2051 12.9364 18.2457 12.9226 18.2897 12.9226C18.3336 12.9226 18.3742 12.9364 18.4097 12.9588V12.6476C18.8455 12.6162 19.2515 12.5283 19.5923 12.3939C19.7051 12.3494 19.8105 12.2998 19.9075 12.2455C19.9149 12.2414 19.9221 12.2373 19.9294 12.2331C20.013 12.1853 20.0907 12.1341 20.1602 12.0793ZM18.0498 12.3994C18.0097 12.3994 17.9697 12.3985 17.9298 12.3975V10.165C17.97 10.0962 18.01 10.0246 18.0498 9.95121C18.0896 10.0246 18.1296 10.0962 18.1698 10.165V12.3975C18.13 12.3985 18.09 12.3994 18.0498 12.3994Z"
    fill="#FF4B55"/>
  <path
    d="M18.0496 4.91445C18.7124 4.91445 19.2496 5.0381 19.2496 5.19062C19.2496 4.93402 19.2496 4.68365 19.2496 4.64456C19.2496 4.58457 19.1988 4.52806 19.11 4.4785L19.1376 4.41857C19.1811 4.4153 19.2172 4.38663 19.2359 4.34662C19.244 4.32925 19.2497 4.31045 19.2497 4.2895C19.2497 4.26436 19.2415 4.24218 19.2302 4.22226C19.209 4.18496 19.173 4.15869 19.1297 4.15869C19.0635 4.15869 19.0097 4.21725 19.0097 4.2895C19.0097 4.31566 19.0186 4.33865 19.0307 4.35909L18.9991 4.42792C18.9086 4.39322 18.797 4.36374 18.6697 4.3409L18.6832 4.28204C18.7328 4.26599 18.7697 4.21786 18.7697 4.15864C18.7697 4.08639 18.716 4.02784 18.6497 4.02784C18.5834 4.02784 18.5297 4.08639 18.5297 4.15864C18.5297 4.19553 18.5439 4.22849 18.5664 4.2523L18.5504 4.32215C18.4835 4.313 18.4134 4.3058 18.3407 4.30038C18.3461 4.2758 18.3497 4.25041 18.3497 4.22404C18.3497 4.04347 18.2154 3.89703 18.0497 3.89703C17.8841 3.89703 17.7497 4.04347 17.7497 4.22404C17.7497 4.25051 17.7533 4.2758 17.7588 4.30038C17.6859 4.30575 17.6159 4.313 17.5491 4.32215L17.533 4.2523C17.5555 4.22849 17.5697 4.19553 17.5697 4.15864C17.5697 4.08639 17.516 4.02784 17.4497 4.02784C17.3834 4.02784 17.3297 4.08639 17.3297 4.15864C17.3297 4.21791 17.3666 4.26599 17.4162 4.28204L17.4297 4.3409C17.3025 4.36369 17.1909 4.39317 17.1003 4.42792L17.0687 4.35909C17.0809 4.3386 17.0897 4.31566 17.0897 4.2895C17.0897 4.21725 17.036 4.15869 16.9697 4.15869C16.9266 4.15869 16.8904 4.18491 16.8693 4.22226C16.858 4.24223 16.8497 4.26436 16.8497 4.2895C16.8497 4.3104 16.8554 4.32925 16.8635 4.34662C16.8821 4.38663 16.9184 4.4153 16.9619 4.41857L16.9894 4.4785C16.9005 4.52806 16.8498 4.58447 16.8498 4.64456C16.8498 4.6837 16.8498 4.93402 16.8498 5.19062C16.8496 5.0381 17.3869 4.91445 18.0496 4.91445Z"
    fill="#E6B432"/>
  <path
    d="M16.8496 5.20519L16.8511 5.20452C16.8507 5.20013 16.8496 5.1942 16.8496 5.19067C16.8496 5.19558 16.8496 5.20033 16.8496 5.20519Z"
    fill="#E6B432"/>
  <path
    d="M19.2495 5.20518C19.2495 5.20032 19.2495 5.19552 19.2495 5.19061C19.2495 5.19419 19.2484 5.20012 19.248 5.20446L19.2495 5.20518Z"
    fill="#E6B432"/>
  <path
    d="M17.0896 5.46679C17.0896 5.49295 17.0807 5.51595 17.0686 5.53638L17.1141 5.63556C17.1935 5.59264 17.302 5.5558 17.4317 5.52754L17.416 5.45943C17.3665 5.44339 17.3296 5.39526 17.3296 5.33604C17.3296 5.26379 17.3833 5.20523 17.4496 5.20523C17.5158 5.20523 17.5696 5.26379 17.5696 5.33604C17.5696 5.37293 17.5554 5.40589 17.5329 5.4297L17.5502 5.50511C17.666 5.48626 17.7939 5.47369 17.9296 5.46904V5.35055C17.893 5.31463 17.8696 5.26318 17.8696 5.20523C17.8696 5.09686 17.9502 5.00903 18.0496 5.00903C18.149 5.00903 18.2296 5.09686 18.2296 5.20523C18.2296 5.26313 18.2062 5.31463 18.1696 5.35055V5.46904C18.3053 5.47374 18.4332 5.48631 18.549 5.50511L18.5664 5.4297C18.5439 5.40589 18.5297 5.37293 18.5297 5.33604C18.5297 5.26379 18.5834 5.20523 18.6497 5.20523C18.7159 5.20523 18.7697 5.26379 18.7697 5.33604C18.7697 5.39531 18.7328 5.44339 18.6832 5.45943L18.6676 5.52754C18.7973 5.5558 18.9058 5.59274 18.9851 5.63556L19.0306 5.53638C19.0185 5.51589 19.0096 5.49295 19.0096 5.46679C19.0096 5.39454 19.0633 5.33599 19.1296 5.33599C19.1583 5.33599 19.1836 5.34851 19.2042 5.36685C19.231 5.29537 19.2452 5.2386 19.2481 5.20457C19.2485 5.20018 19.2496 5.19425 19.2496 5.19072C19.2496 5.0382 18.7123 4.91455 18.0496 4.91455C17.3869 4.91455 16.8496 5.0382 16.8496 5.19072C16.8496 5.1943 16.8507 5.20023 16.8511 5.20457C16.854 5.2386 16.8682 5.29537 16.8949 5.36685C16.9156 5.34851 16.9409 5.33599 16.9696 5.33599C17.0359 5.33594 17.0896 5.39454 17.0896 5.46679Z"
    fill="#EBEBEB"/>
  <path
    d="M16.8496 5.4668C16.8496 5.53598 16.8993 5.59122 16.9617 5.59587L17.0135 5.70874C16.9854 5.73873 16.9696 5.77031 16.9696 5.80311C16.9696 5.84082 16.9904 5.87704 17.0272 5.91092L17.2096 6.25163C17.2096 6.10713 17.5856 5.99002 18.0496 5.99002C18.5135 5.99002 18.8896 6.10713 18.8896 6.25163L19.0719 5.91092C19.1087 5.87704 19.1296 5.84092 19.1296 5.80311C19.1296 5.77031 19.1138 5.73873 19.0856 5.70874L19.1374 5.59587C19.1998 5.59116 19.2496 5.53598 19.2496 5.4668C19.2496 5.42587 19.2312 5.39082 19.2042 5.36685C19.1836 5.34851 19.1582 5.33599 19.1296 5.33599C19.0633 5.33599 19.0096 5.39455 19.0096 5.4668C19.0096 5.49296 19.0184 5.51595 19.0306 5.53639L18.9851 5.63557C18.9057 5.59265 18.7972 5.55581 18.6675 5.52755L18.6831 5.45944C18.7327 5.4434 18.7696 5.39526 18.7696 5.33604C18.7696 5.2638 18.7159 5.20524 18.6496 5.20524C18.5833 5.20524 18.5296 5.2638 18.5296 5.33604C18.5296 5.37294 18.5438 5.40589 18.5663 5.4297L18.549 5.50512C18.4332 5.48627 18.3053 5.4737 18.1696 5.46905V5.35056C18.2061 5.31464 18.2296 5.26318 18.2296 5.20524C18.2296 5.09687 18.149 5.00903 18.0496 5.00903C17.9501 5.00903 17.8696 5.09687 17.8696 5.20524C17.8696 5.26313 17.893 5.31464 17.9296 5.35056V5.46905C17.7939 5.47375 17.6659 5.48632 17.5502 5.50512L17.5328 5.4297C17.5553 5.40589 17.5695 5.37294 17.5695 5.33604C17.5695 5.2638 17.5158 5.20524 17.4495 5.20524C17.3832 5.20524 17.3295 5.2638 17.3295 5.33604C17.3295 5.39532 17.3664 5.4434 17.416 5.45944L17.4316 5.52755C17.3019 5.55581 17.1934 5.59275 17.114 5.63557L17.0686 5.53639C17.0807 5.5159 17.0896 5.49296 17.0896 5.4668C17.0896 5.39455 17.0358 5.33599 16.9696 5.33599C16.9409 5.33599 16.9156 5.34851 16.8949 5.36685C16.8679 5.39082 16.8496 5.42582 16.8496 5.4668Z"
    fill="#E6B432"/>
  <path
    d="M18.0495 6.51339C18.5134 6.51339 18.8895 6.39627 18.8895 6.25178C18.8895 6.1073 18.5134 5.99017 18.0495 5.99017C17.5856 5.99017 17.2095 6.1073 17.2095 6.25178C17.2095 6.39627 17.5856 6.51339 18.0495 6.51339Z"
    fill="#EBEBEB"/>
  <path
    d="M19.221 4.02277L19.0097 3.50466C19.0097 3.47196 18.9867 3.44079 18.9464 3.41192L19.117 3.04C19.1467 2.97536 19.1227 2.89678 19.0634 2.86449C19.0039 2.8324 18.932 2.85851 18.9023 2.92299L18.8097 3.12507L18.7212 3.31791C18.6703 3.30432 18.6135 3.29241 18.5526 3.28214L18.5632 3.23569C18.6128 3.21965 18.6497 3.17152 18.6497 3.1123C18.6497 3.04005 18.596 2.98149 18.5297 2.98149C18.4634 2.98149 18.4097 3.04005 18.4097 3.1123C18.4097 3.14919 18.4239 3.18215 18.4464 3.20596L18.4329 3.26492C18.3155 3.25092 18.186 3.2431 18.0497 3.2431C17.9134 3.2431 17.7839 3.25092 17.6666 3.26492L17.653 3.20596C17.6755 3.18215 17.6897 3.14919 17.6897 3.1123C17.6897 3.04005 17.636 2.98149 17.5697 2.98149C17.5034 2.98149 17.4497 3.04005 17.4497 3.1123C17.4497 3.17157 17.4866 3.21965 17.5362 3.23569L17.5469 3.28214C17.4859 3.29241 17.4292 3.30432 17.3782 3.31791L17.2897 3.12507L17.1971 2.92299C17.1674 2.85851 17.0955 2.83245 17.0361 2.86449C16.9768 2.89678 16.9527 2.97536 16.9824 3.04L17.153 3.41192C17.1127 3.44079 17.0897 3.47196 17.0897 3.50466L16.8784 4.02277C16.9969 3.87613 17.4759 3.76627 18.0497 3.76627C18.6235 3.76627 19.1025 3.87608 19.221 4.02277Z"
    fill="#E6B432"/>
  <path
    d="M18.0496 3.24349C18.149 3.24349 18.2296 3.15564 18.2296 3.04728C18.2296 2.93892 18.149 2.85107 18.0496 2.85107C17.9502 2.85107 17.8696 2.93892 17.8696 3.04728C17.8696 3.15564 17.9502 3.24349 18.0496 3.24349Z"
    fill="#E6B432"/>
</svg>
