<svg width="24" height="18" viewBox="0 0 24 18" fill="none" xmlns="http://www.w3.org/2000/svg">
  <rect width="24" height="17.1429" rx="2" fill="white"/>
  <mask id="mask0" mask-type="alpha" maskUnits="userSpaceOnUse" x="0" y="0" width="24" height="18">
    <rect width="24" height="17.1429" rx="2" fill="white"/>
  </mask>
  <g mask="url(#mask0)">
    <path fill-rule="evenodd" clip-rule="evenodd" d="M0 11.4285H24V5.71426H0V11.4285Z" fill="#063191"/>
    <path fill-rule="evenodd" clip-rule="evenodd" d="M0 17.1429H24V11.4286H0V17.1429Z" fill="#E2213B"/>
    <path fill-rule="evenodd" clip-rule="evenodd"
          d="M12 8C12.3156 8 12.5715 7.74417 12.5715 7.42858C12.5715 7.11298 12.3156 6.85715 12 6.85715C11.6844 6.85715 11.4286 7.11298 11.4286 7.42858C11.4286 7.74417 11.6844 8 12 8ZM9.71435 8.5714C10.0299 8.5714 10.2858 8.31556 10.2858 7.99997C10.2858 7.68438 10.0299 7.42854 9.71435 7.42854C9.39876 7.42854 9.14292 7.68438 9.14292 7.99997C9.14292 8.31556 9.39876 8.5714 9.71435 8.5714ZM14.8571 7.99997C14.8571 8.31556 14.6013 8.5714 14.2857 8.5714C13.9701 8.5714 13.7143 8.31556 13.7143 7.99997C13.7143 7.68438 13.9701 7.42854 14.2857 7.42854C14.6013 7.42854 14.8571 7.68438 14.8571 7.99997ZM8.57146 10.2857C8.88705 10.2857 9.14289 10.0298 9.14289 9.71426C9.14289 9.39866 8.88705 9.14283 8.57146 9.14283C8.25587 9.14283 8.00003 9.39866 8.00003 9.71426C8.00003 10.0298 8.25587 10.2857 8.57146 10.2857ZM16 9.71426C16 10.0298 15.7442 10.2857 15.4286 10.2857C15.113 10.2857 14.8572 10.0298 14.8572 9.71426C14.8572 9.39866 15.113 9.14283 15.4286 9.14283C15.7442 9.14283 16 9.39866 16 9.71426Z"
          fill="white"/>
    <path fill-rule="evenodd" clip-rule="evenodd" d="M0 5.71429H24V0H0V5.71429Z" fill="#FFD044"/>
  </g>
</svg>
