<svg width="24" height="18" viewBox="0 0 24 18" fill="none" xmlns="http://www.w3.org/2000/svg">
  <rect width="24" height="17.1429" rx="2" fill="white"/>
  <mask id="mask0" mask-type="alpha" maskUnits="userSpaceOnUse" x="0" y="0" width="24" height="18">
    <rect width="24" height="17.1429" rx="2" fill="white"/>
  </mask>
  <g mask="url(#mask0)">
    <rect width="24" height="17.1429" fill="#07319C"/>
    <path fill-rule="evenodd" clip-rule="evenodd"
          d="M14.8572 8.57147C14.8572 7.70552 14.8572 6.69375 14.8572 5.90445C14.8572 5.16807 15.4541 4.57147 16.1905 4.57147H19.2381C19.9745 4.57147 20.5715 5.16807 20.5715 5.90445C20.5715 6.69375 20.5715 7.70552 20.5715 8.57147C20.5715 11.4286 17.7143 12.5715 17.7143 12.5715C17.7143 12.5715 14.8572 11.4286 14.8572 8.57147Z"
          fill="#008339"/>
    <mask id="mask1" mask-type="alpha" maskUnits="userSpaceOnUse" x="14" y="4" width="7" height="9">
      <path fill-rule="evenodd" clip-rule="evenodd"
            d="M14.8572 8.57147C14.8572 7.70552 14.8572 6.69375 14.8572 5.90445C14.8572 5.16807 15.4541 4.57147 16.1905 4.57147H19.2381C19.9745 4.57147 20.5715 5.16807 20.5715 5.90445C20.5715 6.69375 20.5715 7.70552 20.5715 8.57147C20.5715 11.4286 17.7143 12.5715 17.7143 12.5715C17.7143 12.5715 14.8572 11.4286 14.8572 8.57147Z"
            fill="white"/>
    </mask>
    <g mask="url(#mask1)">
      <path fill-rule="evenodd" clip-rule="evenodd"
            d="M16.5716 6.85727C16.8871 6.85727 17.143 6.60144 17.143 6.28585C17.143 5.97025 16.8871 5.71442 16.5716 5.71442C16.256 5.71442 16.0001 5.97025 16.0001 6.28585C16.0001 6.60144 16.256 6.85727 16.5716 6.85727ZM16.5779 8.00013C16.8905 7.99671 17.1429 7.7422 17.1429 7.42874C17.1429 7.11315 16.8871 6.85731 16.5715 6.85731C16.2559 6.85731 16.0001 7.11315 16.0001 7.42874C16.0001 7.7422 16.2525 7.99671 16.5651 8.00013C16.2525 8.00355 16.0001 8.25806 16.0001 8.57152C16.0001 8.88712 16.2559 9.14295 16.5715 9.14295C16.8871 9.14295 17.1429 8.88712 17.1429 8.57152C17.1429 8.25806 16.8905 8.00355 16.5779 8.00013ZM16.5715 10.2858C16.8871 10.2858 17.1429 10.03 17.1429 9.71442C17.1429 9.39883 16.8871 9.14299 16.5715 9.14299C16.2559 9.14299 16.0001 9.39883 16.0001 9.71442C16.0001 10.03 16.2559 10.2858 16.5715 10.2858ZM19.4286 9.71442C19.4286 10.03 19.1728 10.2858 18.8572 10.2858C18.5416 10.2858 18.2858 10.03 18.2858 9.71442C18.2858 9.39883 18.5416 9.14299 18.8572 9.14299C19.1728 9.14299 19.4286 9.39883 19.4286 9.71442ZM18.8572 9.14295C19.1728 9.14295 19.4286 8.88712 19.4286 8.57152C19.4286 8.25806 19.1762 8.00355 18.8636 8.00013C19.1762 7.99671 19.4286 7.7422 19.4286 7.42874C19.4286 7.11315 19.1728 6.85731 18.8572 6.85731C18.5416 6.85731 18.2858 7.11315 18.2858 7.42874C18.2858 7.7422 18.5381 7.99671 18.8508 8.00013C18.5381 8.00355 18.2858 8.25806 18.2858 8.57152C18.2858 8.88712 18.5416 9.14295 18.8572 9.14295ZM19.4286 6.28585C19.4286 6.60144 19.1728 6.85727 18.8572 6.85727C18.5416 6.85727 18.2858 6.60144 18.2858 6.28585C18.2858 5.97025 18.5416 5.71442 18.8572 5.71442C19.1728 5.71442 19.4286 5.97025 19.4286 6.28585Z"
            fill="#FFD033"/>
      <path fill-rule="evenodd" clip-rule="evenodd"
            d="M17.7143 9.71437C18.0299 9.71437 18.2857 8.94686 18.2857 8.00008C18.2857 7.05331 18.0299 6.2858 17.7143 6.2858C17.3987 6.2858 17.1429 7.05331 17.1429 8.00008C17.1429 8.94686 17.3987 9.71437 17.7143 9.71437Z"
            fill="white"/>
    </g>
    <path
      d="M14.2857 11.4285C14.2857 12.5184 15.8467 13.1428 17.7142 13.1428C19.5818 13.1428 21.1428 12.5184 21.1428 11.4285C21.1428 11.113 20.887 10.8571 20.5714 10.8571C20.2558 10.8571 20 11.113 20 11.4285C20 11.4395 19.8615 11.5705 19.5223 11.7061C19.062 11.8903 18.4134 12 17.7142 12C17.0151 12 16.3665 11.8903 15.9062 11.7061C15.567 11.5705 15.4285 11.4395 15.4285 11.4285C15.4285 11.113 15.1727 10.8571 14.8571 10.8571C14.5415 10.8571 14.2857 11.113 14.2857 11.4285V11.4285Z"
      fill="#FFD033"/>
    <path
      d="M0 -0.333333H-0.901086L-0.21693 0.253086L3.66667 3.58188V4.39989L-0.193746 7.15733L-0.333333 7.25703V7.42857V8V8.60141L0.176666 8.28267L4.66703 5.47619H5.60746L9.47126 8.23604C9.55984 8.29932 9.66599 8.33333 9.77485 8.33333C10.2598 8.33333 10.4829 7.73003 10.1148 7.41445L6.61905 4.41812V3.60011L10.3399 0.942378C10.5151 0.817237 10.619 0.61519 10.619 0.399889V0V-0.601416L10.109 -0.282666L5.61869 2.52381H4.67825L0.765175 -0.271244L0.67825 -0.333333H0.571429H0Z"
      fill="#DB1E36" stroke="white" stroke-width="0.666667"/>
    <path fill-rule="evenodd" clip-rule="evenodd"
          d="M0 2.85714V5.14286H4V7.90476C4 8.27295 4.29848 8.57143 4.66667 8.57143H5.61905C5.98724 8.57143 6.28571 8.27295 6.28571 7.90476V5.14286H10.1905C10.5587 5.14286 10.8571 4.84438 10.8571 4.47619V3.52381C10.8571 3.15562 10.5587 2.85714 10.1905 2.85714H6.28571V0H4V2.85714H0Z"
          fill="white"/>
    <path fill-rule="evenodd" clip-rule="evenodd"
          d="M0 3.42857H4.57143V2.85714V0H5.71429V2.85714V3.42857H10.2857V4.57143H5.71429V5.14286V8H4.57143V5.14286V4.57143H0V3.42857Z"
          fill="#DB1E36"/>
  </g>
</svg>
