<svg width="24" height="18" viewBox="0 0 24 18" fill="none" xmlns="http://www.w3.org/2000/svg">
  <path
    d="M22.2026 17.14H1.79742C0.804703 17.14 0 16.2628 0 15.1807V1.95927C0 0.877214 0.804703 0 1.79742 0H22.2026C23.1952 0 24 0.877162 24 1.95927V15.1808C24 16.2628 23.1953 17.14 22.2026 17.14Z"
    fill="#F5F5F5"/>
  <path
    d="M18.7058 10.3076L18.8568 10.8851L19.3816 9.18487L17.9259 10.0215L18.473 10.0917L16.7258 12.3296L16.7106 12.2821L18.1061 9.13244L18.386 9.64974L18.5001 7.86011L17.2853 9.07026L17.831 8.98759L16.4355 12.1372L16.3919 12.1538L16.9136 9.27076L17.3042 9.69429L17.0002 7.93123L16.1049 9.43647L16.6138 9.20628L16.0513 12.3149L15.8676 12.7295L15.6698 12.874L15.5884 13.3238L14.8965 14.21L15.4366 14.1626L15.3386 14.7043L15.5297 14.5646L15.5481 14.8146L15.8764 14.3942L16.1781 14.8848L16.3848 13.743L16.6573 13.3939L16.6382 13.1351L16.8219 12.7206L18.7058 10.3076Z"
    fill="#4173CD"/>
  <path
    d="M6.13678 8.61743C6.19612 8.3266 6.15932 8.0541 6.0577 7.88635C5.90034 7.99141 5.76112 8.22119 5.70178 8.51202C5.67431 8.64671 5.66939 8.77629 5.68007 8.89453L5.3534 8.36359C5.48643 8.24535 5.60095 8.04291 5.65293 7.7882C5.71228 7.49736 5.67548 7.22487 5.57386 7.05712C5.4165 7.16217 5.27728 7.39195 5.21793 7.68279C5.18634 7.83766 5.18362 7.98589 5.20186 8.11736L4.98098 7.75841C4.99204 7.57615 4.94067 7.35445 4.81743 7.14316C4.67076 6.89177 4.46798 6.72745 4.28728 6.68713C4.2442 6.88268 4.29478 7.15252 4.44145 7.40386C4.56609 7.61749 4.73076 7.76291 4.8885 7.8281L5.0909 8.19436C4.98937 8.12063 4.86506 8.06044 4.72293 8.026C4.45612 7.96131 4.20614 8.00142 4.05225 8.1122C4.14862 8.28367 4.35942 8.43548 4.62623 8.50017C4.8599 8.55683 5.0767 8.5296 5.23134 8.44836L5.53401 8.996C5.44021 8.93535 5.33053 8.88528 5.20692 8.85528C4.94011 8.7906 4.69012 8.83071 4.53623 8.94148C4.63261 9.11296 4.8434 9.26477 5.11021 9.32945C5.33386 9.38372 5.54212 9.36103 5.6955 9.28802L5.97417 9.79223C5.88801 9.74154 5.79211 9.69806 5.68345 9.67175C5.41664 9.60706 5.16665 9.64717 5.01276 9.75794C5.10914 9.92942 5.31993 10.0812 5.58675 10.1459C5.80059 10.1977 6.00103 10.18 6.15243 10.1147L6.42121 10.601C6.34401 10.5598 6.26086 10.5237 6.16739 10.5011C5.90057 10.4364 5.65059 10.4765 5.4967 10.5873C5.59307 10.7588 5.80387 10.9106 6.07068 10.9753C6.2745 11.0247 6.46767 11.0122 6.61654 10.9545L6.86137 11.3974C6.79401 11.3649 6.72243 11.3367 6.64392 11.3176C6.37711 11.2529 6.12712 11.293 5.97323 11.4038C6.06961 11.5753 6.2804 11.7271 6.54722 11.7918C6.74161 11.8389 6.92606 11.8292 7.07189 11.7782L7.84945 13.185L8.17973 12.956L7.34034 11.592C7.4445 11.4696 7.53075 11.2916 7.57396 11.0797C7.63331 10.7889 7.59651 10.5164 7.49489 10.3487C7.33753 10.4537 7.19831 10.6835 7.13896 10.9743C7.12148 11.0599 7.11468 11.1426 7.11304 11.2228L6.84886 10.7934C6.9599 10.6709 7.0522 10.4854 7.09748 10.2633C7.15682 9.97244 7.12003 9.69995 7.0184 9.5322C6.86104 9.63725 6.72182 9.86703 6.66248 10.1578C6.64167 10.2597 6.63651 10.3571 6.63796 10.4507L6.3479 9.97929C6.46631 9.85738 6.56601 9.66704 6.61359 9.43405C6.67293 9.14321 6.63614 8.87071 6.53451 8.70297C6.37715 8.80802 6.23793 9.0378 6.17859 9.32864C6.15445 9.44702 6.1499 9.56015 6.15548 9.66664L5.85464 9.1778C5.97993 9.05721 6.087 8.86121 6.13678 8.61743Z"
    fill="#73AF00"/>
  <path
    d="M9.51727 8.56999L9.10345 5.86364H9.03942C8.66381 5.86364 8.3985 5.46249 8.51733 5.07401L8.51869 5.06966C8.61361 4.75921 8.46281 4.42315 8.17973 4.31426L2.49816 2.12849C2.17612 2.00458 1.8728 2.3576 2.00733 2.69979L2.62345 4.26685C2.80073 4.71767 3.10795 5.09322 3.49861 5.33659L5.07469 6.31829C5.5455 6.61153 6.07833 6.76579 6.62058 6.76579H6.62067L6.76205 7.07395C7.18266 7.99081 8.04239 8.56999 8.98275 8.56999H9.51727Z"
    fill="#FFE15A"/>
  <path
    d="M14.4829 8.5701L14.8967 5.86375H14.9608C15.3364 5.86375 15.6017 5.4626 15.4828 5.07412L15.4815 5.06977C15.3866 4.75932 15.5374 4.42326 15.8204 4.31437L21.4998 2.12941C21.8227 2.00515 22.1268 2.35919 21.9919 2.7023L21.3768 4.26691C21.1995 4.71772 20.8923 5.09328 20.5016 5.33665L18.9255 6.31835C18.4547 6.61159 17.9219 6.76585 17.3796 6.76585H17.3795L17.2381 7.07401C16.8175 7.99092 15.9578 8.5701 15.0175 8.5701H14.4829Z"
    fill="#FFE15A"/>
  <path
    d="M13.6551 5.41274L12.6287 2.8021C12.4983 2.47038 12.1991 2.25537 11.8681 2.25537H11.5862L11.1724 2.70645H10.7585L10.3447 3.15752H10.9222C11.0686 3.15752 11.1673 3.32067 11.1096 3.46742L10.3447 5.41279H13.6551V5.41274V5.41274Z"
    fill="#FFE15A"/>
  <path
    d="M10.7588 9.9233L9.93124 8.57013L9.17337 9.39625C8.85541 9.74283 8.61583 10.1654 8.47366 10.6304L8.27609 11.2764L7.86227 11.7275H7.32443C7.14687 11.7275 6.98449 11.8369 6.90509 12.01L6.78841 12.2644C6.71144 12.4322 6.82338 12.6295 6.99546 12.6295H7.86227L8.13818 12.0281L9.45738 11.3091C9.49718 11.2874 9.53346 11.2589 9.56491 11.2246L10.7588 9.9233Z"
    fill="#FFE15A"/>
  <path
    d="M13.2412 9.9233L14.0688 8.57013L14.8267 9.39625C15.1446 9.74283 15.3842 10.1654 15.5264 10.6304L15.7239 11.2764L16.1378 11.7275H16.6756C16.8532 11.7275 17.0155 11.8369 17.0949 12.01L17.2116 12.2644C17.2886 12.4322 17.1766 12.6295 17.0046 12.6295H16.1378L15.8619 12.0281L14.5427 11.3091C14.5029 11.2874 14.4666 11.2589 14.4352 11.2246L13.2412 9.9233Z"
    fill="#FFE15A"/>
  <path
    d="M10.7587 10.3743L9.75302 12.2013C9.61736 12.4478 9.66668 12.7653 9.86922 12.9493L11.3964 14.3365C11.746 14.6541 12.2539 14.6541 12.6036 14.3365L14.1307 12.9493C14.3333 12.7652 14.3826 12.4477 14.2469 12.2013L13.2414 10.3743H10.7587V10.3743Z"
    fill="#FFE15A"/>
  <path
    d="M12.0001 4.96155C12.0001 4.96155 10.7587 5.41262 9.10352 4.96155C9.10352 4.96155 9.10352 5.86364 9.10352 6.76574C9.10352 7.66784 9.51733 10.3742 12.0001 11.2763C14.4828 10.3742 14.8966 7.66784 14.8966 6.76574C14.8966 5.86364 14.8966 4.96155 14.8966 4.96155C13.2415 5.41262 12.0001 4.96155 12.0001 4.96155Z"
    fill="#F5F5F5"/>
  <path
    d="M12.0001 4.96155C12.0001 4.96155 10.7587 5.41262 9.10352 4.96155C9.10352 4.96155 9.10352 5.86364 9.10352 6.76574H14.8966C14.8966 5.86364 14.8966 4.96155 14.8966 4.96155C13.2415 5.41262 12.0001 4.96155 12.0001 4.96155Z"
    fill="#41479B"/>
  <path d="M9.9685 9.65134V6.76581H9.51709V8.77357C9.63437 9.06722 9.78175 9.36459 9.9685 9.65134Z" fill="#FF4B55"/>
  <path d="M10.8715 6.76581H10.4201V10.228C10.5568 10.3756 10.7062 10.5161 10.8715 10.6469V6.76581Z" fill="#FF4B55"/>
  <path d="M14.0314 9.65134C14.2182 9.36459 14.3655 9.06722 14.4828 8.77352V6.76581H14.0314V9.65134Z" fill="#FF4B55"/>
  <path d="M11.7743 6.76581H11.3229V10.9522C11.4643 11.0353 11.6149 11.1108 11.7743 11.1795V6.76581Z" fill="#FF4B55"/>
  <path d="M13.58 6.76581H13.1286V10.6469C13.2939 10.5161 13.4432 10.3756 13.58 10.228V6.76581Z" fill="#FF4B55"/>
  <path d="M12.6771 10.9522V6.76581H12.2257V11.1795C12.3851 11.1108 12.5358 11.0353 12.6771 10.9522Z" fill="#FF4B55"/>
  <path d="M7.64933 12.0945L7.35547 12.2917L7.84916 13.185L8.17944 12.956L7.64933 12.0945Z" fill="#73AF00"/>
  <path
    d="M16.8113 12.7446L16.5516 12.1786H16.076L16.0513 12.3151L15.8676 12.7297L15.6698 12.8742L15.5884 13.324L14.8965 14.2102L15.4366 14.1629L15.3386 14.7045L15.5297 14.5648L15.5481 14.8147L15.8764 14.3943L16.1781 14.8849L16.3848 13.7432L16.6573 13.3941L16.6382 13.1353L16.8113 12.7446Z"
    fill="#4173CD"/>
  <path
    d="M3.9607 6.76581H2.89663L2.99212 7.07805L2.3646 9.4721L1.73709 7.07805L1.83262 6.76581H0.768555L1.05505 7.18219L1.9281 10.513L1.83262 10.8253H2.89663L2.80115 10.513L3.6742 7.18219L3.9607 6.76581Z"
    fill="#4173CD"/>
  <path
    d="M21.9901 7.05578L22.1675 6.76581H21.9901H21.2808H21.1035L21.2808 7.05578V10.5353L21.1035 10.8253H21.2808H21.9901H22.1675L21.9901 10.5353V7.05578Z"
    fill="#4173CD"/>
</svg>
