<svg width="24" height="18" viewBox="0 0 24 18" fill="none" xmlns="http://www.w3.org/2000/svg">
  <rect width="24" height="17.1429" rx="2" fill="white"/>
  <mask id="mask0" mask-type="alpha" maskUnits="userSpaceOnUse" x="0" y="0" width="24" height="18">
    <rect width="24" height="17.1429" rx="2" fill="white"/>
  </mask>
  <g mask="url(#mask0)">
    <rect width="24" height="17.1429" fill="#E31F37"/>
    <path fill-rule="evenodd" clip-rule="evenodd" d="M-1.14288 9.14283H12.5714V-1.14288H-1.14288V9.14283Z"
          fill="#083B9A"/>
    <path fill-rule="evenodd" clip-rule="evenodd"
          d="M5.71432 2.28577L4.90619 2.52246L5.14289 1.71434L4.90619 0.906219L5.71432 1.14291L6.52244 0.906219L6.28574 1.71434L6.52244 2.52246L5.71432 2.28577ZM5.71432 8.00002L4.90619 8.23671L5.14289 7.42859L4.90619 6.62047L5.71432 6.85716L6.52244 6.62047L6.28574 7.42859L6.52244 8.23671L5.71432 8.00002ZM2.62051 5.37954L3.42864 5.14284L4.23676 5.37954L4.00006 4.57141L4.23676 3.76329L3.42864 3.99999L2.62051 3.76329L2.85721 4.57141L2.62051 5.37954ZM8.57149 4.57145L7.76337 4.80814L8.00006 4.00002L7.76337 3.1919L8.57149 3.42859L9.37962 3.1919L9.14292 4.00002L9.37962 4.80814L8.57149 4.57145ZM7.42857 6.00006C7.42857 6.15785 7.30065 6.28577 7.14285 6.28577C6.98506 6.28577 6.85714 6.15785 6.85714 6.00006C6.85714 5.84226 6.98506 5.71434 7.14285 5.71434C7.30065 5.71434 7.42857 5.84226 7.42857 6.00006Z"
          fill="white"/>
  </g>
</svg>
