<svg xmlns="http://www.w3.org/2000/svg" xmlns:xlink="http://www.w3.org/1999/xlink" width="25pt" height="18pt"
     viewBox="0 0 25 18" version="1.1">
  <g id="surface1">
    <rect x="0" y="0" width="25" height="18"
          style="fill:rgb(14.117647%,29.019608%,64.705882%);fill-opacity:1;stroke:none;"></rect>
    <path style=" stroke:none;fill-rule:nonzero;fill:rgb(81.568627%,65.098039%,31.372549%);fill-opacity:1;"
          d="M 9.882812 8.539062 C 9.882812 8.539062 9.929688 8.507812 9.945312 8.503906 C 9.964844 8.496094 10.023438 8.480469 10.023438 8.480469 C 10.023438 8.480469 10.0625 8.460938 10.082031 8.460938 C 10.105469 8.460938 10.144531 8.480469 10.160156 8.503906 C 10.171875 8.523438 10.238281 8.558594 10.238281 8.558594 C 10.238281 8.558594 10.285156 8.574219 10.296875 8.558594 C 10.304688 8.539062 10.324219 8.53125 10.347656 8.53125 C 10.367188 8.53125 10.371094 8.507812 10.371094 8.492188 C 10.371094 8.476562 10.378906 8.457031 10.394531 8.4375 C 10.414062 8.417969 10.445312 8.40625 10.445312 8.40625 C 10.445312 8.40625 10.492188 8.386719 10.496094 8.359375 C 10.503906 8.332031 10.546875 8.3125 10.574219 8.308594 C 10.601562 8.304688 10.574219 8.292969 10.644531 8.300781 C 10.710938 8.308594 10.71875 8.285156 10.722656 8.265625 C 10.726562 8.246094 10.722656 8.226562 10.765625 8.230469 C 10.808594 8.234375 10.828125 8.234375 10.828125 8.210938 C 10.828125 8.1875 10.867188 8.171875 10.800781 8.15625 C 10.730469 8.132812 10.738281 8.152344 10.730469 8.117188 C 10.726562 8.085938 10.730469 8.089844 10.6875 8.085938 C 10.640625 8.082031 10.664062 8.058594 10.660156 8.035156 C 10.65625 8.011719 10.644531 8 10.636719 7.984375 C 10.625 7.96875 10.601562 7.96875 10.601562 7.945312 C 10.601562 7.921875 10.597656 7.910156 10.574219 7.910156 C 10.546875 7.910156 10.539062 7.910156 10.539062 7.886719 C 10.539062 7.863281 10.542969 7.84375 10.566406 7.84375 C 10.59375 7.84375 10.605469 7.824219 10.601562 7.800781 C 10.597656 7.777344 10.597656 7.726562 10.597656 7.726562 L 10.632812 7.6875 C 10.632812 7.6875 10.734375 7.601562 10.742188 7.585938 C 10.75 7.570312 10.785156 7.558594 10.800781 7.59375 C 10.816406 7.625 10.824219 7.632812 10.839844 7.644531 C 10.851562 7.664062 10.890625 7.652344 10.898438 7.636719 C 10.90625 7.617188 10.910156 7.5625 10.933594 7.53125 C 10.957031 7.5 10.972656 7.484375 10.976562 7.457031 C 10.984375 7.433594 10.996094 7.414062 11.023438 7.414062 C 11.046875 7.414062 11.066406 7.375 11.066406 7.355469 C 11.066406 7.335938 11.078125 7.316406 11.109375 7.308594 C 11.140625 7.304688 11.160156 7.285156 11.171875 7.316406 C 11.183594 7.34375 11.195312 7.34375 11.214844 7.355469 C 11.238281 7.367188 11.269531 7.378906 11.285156 7.367188 C 11.304688 7.351562 11.3125 7.324219 11.335938 7.339844 C 11.359375 7.355469 11.375 7.339844 11.382812 7.308594 C 11.386719 7.28125 11.394531 7.238281 11.394531 7.238281 C 11.394531 7.238281 11.398438 7.21875 11.4375 7.21875 C 11.476562 7.21875 11.449219 7.191406 11.46875 7.175781 C 11.492188 7.160156 11.492188 7.148438 11.519531 7.15625 C 11.546875 7.167969 11.589844 7.144531 11.570312 7.117188 C 11.546875 7.09375 11.5 7.050781 11.527344 7.019531 C 11.554688 6.988281 11.5625 6.9375 11.539062 6.933594 C 11.511719 6.929688 11.46875 6.9375 11.464844 6.910156 C 11.460938 6.878906 11.449219 6.855469 11.484375 6.851562 C 11.515625 6.847656 11.570312 6.847656 11.589844 6.832031 C 11.605469 6.816406 11.660156 6.804688 11.660156 6.757812 C 11.660156 6.714844 11.675781 6.707031 11.683594 6.683594 C 11.6875 6.65625 11.6875 6.605469 11.664062 6.578125 C 11.640625 6.554688 11.609375 6.515625 11.605469 6.5 C 11.597656 6.484375 11.578125 6.460938 11.542969 6.449219 C 11.511719 6.441406 11.480469 6.433594 11.480469 6.410156 C 11.480469 6.382812 11.503906 6.414062 11.503906 6.347656 C 11.503906 6.28125 11.460938 6.269531 11.460938 6.269531 L 11.394531 6.230469 C 11.394531 6.230469 11.277344 6.199219 11.246094 6.199219 C 11.210938 6.199219 11.175781 6.164062 11.210938 6.144531 C 11.25 6.121094 11.257812 6.085938 11.246094 6.054688 C 11.230469 6.027344 11.222656 6.003906 11.171875 5.992188 C 11.121094 5.980469 11.109375 5.96875 11.132812 5.9375 C 11.152344 5.910156 11.160156 5.886719 11.183594 5.910156 C 11.210938 5.929688 11.257812 5.9375 11.292969 5.921875 C 11.332031 5.90625 11.34375 5.890625 11.363281 5.910156 C 11.378906 5.925781 11.402344 5.941406 11.429688 5.917969 C 11.457031 5.890625 11.507812 5.886719 11.527344 5.898438 C 11.550781 5.914062 11.605469 5.910156 11.625 5.898438 C 11.640625 5.890625 11.679688 5.863281 11.679688 5.84375 C 11.679688 5.828125 11.703125 5.800781 11.722656 5.785156 C 11.746094 5.773438 11.773438 5.730469 11.796875 5.730469 C 11.820312 5.730469 11.828125 5.707031 11.828125 5.691406 C 11.828125 5.671875 11.847656 5.640625 11.851562 5.628906 C 11.855469 5.613281 11.898438 5.597656 11.933594 5.625 C 11.964844 5.648438 12.003906 5.65625 12.003906 5.65625 C 12.003906 5.65625 12.050781 5.664062 12.070312 5.65625 C 12.09375 5.648438 12.125 5.640625 12.15625 5.660156 C 12.191406 5.683594 12.234375 5.683594 12.234375 5.683594 C 12.234375 5.683594 12.242188 5.648438 12.242188 5.632812 C 12.242188 5.613281 12.253906 5.585938 12.234375 5.574219 C 12.21875 5.558594 12.195312 5.542969 12.230469 5.519531 C 12.265625 5.492188 12.265625 5.496094 12.304688 5.496094 C 12.339844 5.496094 12.363281 5.5 12.390625 5.5 C 12.414062 5.5 12.460938 5.527344 12.460938 5.550781 C 12.460938 5.578125 12.480469 5.59375 12.5 5.605469 C 12.523438 5.617188 12.550781 5.632812 12.542969 5.652344 C 12.535156 5.671875 12.535156 5.691406 12.5625 5.6875 C 12.585938 5.683594 12.597656 5.699219 12.597656 5.71875 C 12.597656 5.742188 12.605469 5.753906 12.632812 5.761719 C 12.660156 5.769531 12.671875 5.785156 12.671875 5.808594 C 12.671875 5.828125 12.667969 5.839844 12.679688 5.863281 C 12.6875 5.882812 12.714844 5.917969 12.714844 5.917969 C 12.714844 5.917969 12.765625 5.976562 12.699219 5.945312 C 12.636719 5.917969 12.625 5.90625 12.601562 5.910156 C 12.578125 5.914062 12.566406 5.925781 12.566406 5.925781 C 12.566406 5.925781 12.535156 5.933594 12.511719 5.933594 C 12.488281 5.933594 12.464844 5.980469 12.5 5.988281 C 12.539062 5.996094 12.550781 6.003906 12.550781 6.035156 C 12.550781 6.0625 12.539062 6.054688 12.519531 6.078125 C 12.5 6.097656 12.488281 6.085938 12.457031 6.085938 C 12.425781 6.085938 12.414062 6.109375 12.414062 6.136719 C 12.414062 6.160156 12.429688 6.15625 12.441406 6.175781 C 12.457031 6.199219 12.480469 6.203125 12.5 6.183594 C 12.523438 6.160156 12.542969 6.148438 12.554688 6.1875 C 12.570312 6.222656 12.585938 6.222656 12.613281 6.222656 C 12.640625 6.222656 12.652344 6.222656 12.671875 6.210938 C 12.695312 6.199219 12.722656 6.210938 12.726562 6.246094 C 12.734375 6.277344 12.753906 6.28125 12.777344 6.296875 C 12.800781 6.308594 12.8125 6.316406 12.820312 6.335938 C 12.824219 6.359375 12.835938 6.367188 12.859375 6.355469 C 12.882812 6.339844 12.917969 6.332031 12.933594 6.351562 C 12.945312 6.367188 12.96875 6.398438 12.96875 6.398438 L 12.972656 6.441406 L 13.058594 6.472656 C 13.058594 6.472656 13.066406 6.492188 13.066406 6.507812 C 13.066406 6.527344 13.082031 6.535156 13.105469 6.53125 C 13.125 6.527344 13.167969 6.53125 13.167969 6.53125 C 13.167969 6.53125 13.199219 6.519531 13.199219 6.492188 C 13.199219 6.46875 13.210938 6.457031 13.234375 6.457031 C 13.257812 6.457031 13.308594 6.476562 13.320312 6.449219 C 13.335938 6.425781 13.375 6.417969 13.40625 6.429688 C 13.4375 6.441406 13.519531 6.476562 13.519531 6.476562 C 13.519531 6.476562 13.511719 6.480469 13.539062 6.523438 C 13.566406 6.5625 13.613281 6.5625 13.613281 6.5625 C 13.613281 6.5625 13.621094 6.601562 13.628906 6.617188 C 13.636719 6.636719 13.679688 6.644531 13.699219 6.625 C 13.722656 6.609375 13.753906 6.589844 13.78125 6.589844 C 13.808594 6.589844 13.828125 6.589844 13.828125 6.570312 C 13.828125 6.554688 13.800781 6.542969 13.800781 6.519531 C 13.800781 6.492188 13.828125 6.492188 13.832031 6.46875 C 13.835938 6.441406 13.863281 6.46875 13.882812 6.480469 C 13.898438 6.492188 13.921875 6.511719 13.921875 6.53125 C 13.921875 6.546875 13.957031 6.605469 13.980469 6.613281 C 14.003906 6.621094 14.0625 6.625 14.082031 6.605469 C 14.097656 6.585938 14.144531 6.578125 14.140625 6.625 C 14.136719 6.675781 14.125 6.679688 14.15625 6.699219 C 14.1875 6.714844 14.195312 6.773438 14.167969 6.789062 C 14.140625 6.808594 14.128906 6.8125 14.128906 6.839844 C 14.128906 6.871094 14.121094 6.902344 14.144531 6.921875 C 14.167969 6.9375 14.179688 6.949219 14.179688 6.96875 C 14.179688 6.984375 14.207031 7.058594 14.207031 7.058594 C 14.207031 7.058594 14.222656 7.136719 14.214844 7.152344 C 14.210938 7.167969 14.203125 7.199219 14.242188 7.195312 C 14.285156 7.191406 14.292969 7.191406 14.292969 7.222656 C 14.292969 7.257812 14.308594 7.269531 14.285156 7.28125 C 14.261719 7.292969 14.25 7.335938 14.269531 7.34375 C 14.292969 7.351562 14.3125 7.367188 14.316406 7.382812 C 14.320312 7.398438 14.355469 7.429688 14.378906 7.414062 C 14.402344 7.394531 14.40625 7.386719 14.425781 7.382812 C 14.441406 7.378906 14.457031 7.367188 14.4375 7.34375 C 14.421875 7.324219 14.414062 7.304688 14.433594 7.289062 C 14.453125 7.277344 14.460938 7.234375 14.460938 7.234375 C 14.460938 7.234375 14.488281 7.199219 14.519531 7.234375 C 14.550781 7.273438 14.554688 7.261719 14.578125 7.261719 C 14.601562 7.261719 14.609375 7.28125 14.609375 7.304688 C 14.609375 7.324219 14.65625 7.320312 14.65625 7.351562 C 14.65625 7.386719 14.664062 7.46875 14.664062 7.46875 C 14.664062 7.46875 14.664062 7.511719 14.691406 7.53125 C 14.71875 7.546875 14.714844 7.550781 14.699219 7.570312 C 14.6875 7.59375 14.691406 7.625 14.691406 7.644531 C 14.691406 7.660156 14.699219 7.667969 14.679688 7.683594 C 14.65625 7.703125 14.644531 7.722656 14.660156 7.75 C 14.671875 7.773438 14.667969 7.789062 14.703125 7.820312 C 14.742188 7.847656 14.738281 7.863281 14.738281 7.882812 C 14.738281 7.902344 14.773438 7.933594 14.773438 7.953125 C 14.773438 7.976562 14.800781 8 14.824219 8.003906 C 14.84375 8.007812 14.871094 8.046875 14.871094 8.066406 C 14.871094 8.089844 14.875 8.144531 14.875 8.144531 C 14.875 8.144531 14.871094 8.15625 14.898438 8.15625 C 14.925781 8.15625 14.945312 8.183594 14.953125 8.152344 C 14.960938 8.117188 14.988281 8.113281 15.007812 8.105469 C 15.027344 8.097656 15.0625 8.078125 15.082031 8.09375 C 15.097656 8.105469 15.121094 8.105469 15.140625 8.105469 C 15.15625 8.105469 15.242188 8.109375 15.242188 8.109375 C 15.242188 8.109375 15.265625 8.105469 15.28125 8.140625 C 15.292969 8.171875 15.332031 8.210938 15.3125 8.226562 C 15.289062 8.242188 15.289062 8.277344 15.316406 8.277344 C 15.34375 8.277344 15.371094 8.277344 15.371094 8.296875 C 15.371094 8.320312 15.375 8.335938 15.398438 8.324219 C 15.417969 8.3125 15.433594 8.308594 15.441406 8.324219 C 15.453125 8.339844 15.46875 8.339844 15.492188 8.351562 C 15.515625 8.367188 15.523438 8.355469 15.539062 8.339844 C 15.550781 8.324219 15.605469 8.308594 15.605469 8.308594 C 15.605469 8.308594 15.675781 8.289062 15.703125 8.296875 C 15.730469 8.308594 15.769531 8.324219 15.769531 8.324219 C 15.769531 8.324219 15.785156 8.367188 15.777344 8.390625 C 15.769531 8.417969 15.757812 8.410156 15.769531 8.449219 C 15.777344 8.488281 15.757812 8.492188 15.742188 8.488281 C 15.722656 8.484375 15.703125 8.484375 15.703125 8.515625 C 15.703125 8.550781 15.6875 8.558594 15.6875 8.589844 C 15.6875 8.617188 15.6875 8.613281 15.667969 8.625 C 15.652344 8.636719 15.644531 8.660156 15.671875 8.664062 C 15.699219 8.667969 15.691406 8.699219 15.691406 8.714844 C 15.691406 8.730469 15.6875 8.769531 15.6875 8.769531 C 15.6875 8.769531 15.691406 8.789062 15.660156 8.789062 C 15.628906 8.789062 15.601562 8.785156 15.597656 8.808594 C 15.589844 8.828125 15.554688 8.859375 15.585938 8.882812 C 15.617188 8.902344 15.609375 8.914062 15.589844 8.925781 C 15.574219 8.933594 15.558594 8.976562 15.597656 8.988281 C 15.632812 9 15.628906 9.011719 15.605469 9.027344 C 15.582031 9.046875 15.539062 9.058594 15.539062 9.082031 C 15.539062 9.109375 15.527344 9.109375 15.5 9.113281 C 15.472656 9.117188 15.460938 9.152344 15.492188 9.191406 C 15.523438 9.234375 15.53125 9.226562 15.554688 9.226562 C 15.578125 9.226562 15.578125 9.191406 15.578125 9.191406 C 15.578125 9.191406 15.65625 9.195312 15.675781 9.195312 C 15.699219 9.195312 15.730469 9.195312 15.75 9.183594 C 15.769531 9.171875 15.816406 9.152344 15.816406 9.1875 C 15.816406 9.226562 15.828125 9.222656 15.847656 9.238281 C 15.871094 9.257812 15.875 9.242188 15.894531 9.269531 C 15.914062 9.292969 15.917969 9.273438 15.929688 9.242188 C 15.945312 9.214844 15.972656 9.183594 15.996094 9.21875 C 16.015625 9.25 16.015625 9.242188 16.042969 9.242188 C 16.070312 9.242188 16.082031 9.257812 16.082031 9.277344 C 16.082031 9.296875 16.105469 9.296875 16.140625 9.292969 C 16.171875 9.289062 16.175781 9.3125 16.1875 9.332031 C 16.203125 9.351562 16.207031 9.347656 16.226562 9.347656 C 16.242188 9.347656 16.261719 9.347656 16.273438 9.332031 C 16.289062 9.316406 16.304688 9.292969 16.324219 9.320312 C 16.34375 9.34375 16.378906 9.339844 16.386719 9.3125 C 16.398438 9.28125 16.4375 9.257812 16.460938 9.289062 C 16.484375 9.324219 16.5 9.324219 16.523438 9.328125 C 16.546875 9.332031 16.578125 9.332031 16.589844 9.351562 C 16.605469 9.375 16.648438 9.40625 16.617188 9.433594 C 16.585938 9.457031 16.550781 9.492188 16.578125 9.5 C 16.605469 9.507812 16.625 9.515625 16.640625 9.539062 C 16.660156 9.558594 16.71875 9.566406 16.746094 9.570312 C 16.773438 9.574219 16.796875 9.578125 16.828125 9.554688 C 16.859375 9.527344 16.890625 9.527344 16.886719 9.5625 C 16.882812 9.597656 16.898438 9.632812 16.898438 9.632812 C 16.898438 9.632812 16.921875 9.6875 16.921875 9.710938 C 16.921875 9.730469 16.917969 9.734375 16.957031 9.761719 C 17 9.785156 16.992188 9.800781 17.027344 9.777344 C 17.058594 9.75 17.066406 9.738281 17.066406 9.71875 C 17.066406 9.695312 17.066406 9.652344 17.066406 9.652344 C 17.066406 9.652344 17.113281 9.640625 17.128906 9.628906 C 17.148438 9.617188 17.21875 9.578125 17.238281 9.597656 C 17.257812 9.613281 17.277344 9.609375 17.296875 9.601562 C 17.316406 9.59375 17.351562 9.59375 17.371094 9.59375 C 17.386719 9.59375 17.417969 9.597656 17.457031 9.566406 C 17.492188 9.539062 17.492188 9.546875 17.515625 9.566406 C 17.535156 9.585938 17.535156 9.613281 17.523438 9.628906 C 17.507812 9.648438 17.523438 9.683594 17.554688 9.683594 C 17.585938 9.683594 17.597656 9.703125 17.597656 9.722656 C 17.597656 9.742188 17.601562 9.773438 17.605469 9.789062 C 17.609375 9.804688 17.609375 9.816406 17.660156 9.828125 C 17.707031 9.839844 17.699219 9.871094 17.707031 9.890625 C 17.71875 9.910156 17.71875 9.929688 17.691406 9.929688 C 17.664062 9.929688 17.65625 9.941406 17.648438 9.960938 C 17.644531 9.984375 17.605469 9.992188 17.605469 9.992188 L 17.5625 9.984375 C 17.5625 9.984375 17.535156 9.984375 17.523438 10 C 17.507812 10.015625 17.484375 10.050781 17.5 10.078125 C 17.519531 10.109375 17.519531 10.125 17.5 10.136719 C 17.484375 10.152344 17.472656 10.214844 17.457031 10.199219 C 17.4375 10.1875 17.414062 10.207031 17.398438 10.214844 C 17.378906 10.222656 17.382812 10.28125 17.417969 10.300781 C 17.457031 10.324219 17.464844 10.351562 17.464844 10.351562 L 17.503906 10.414062 C 17.503906 10.414062 17.492188 10.429688 17.484375 10.449219 C 17.472656 10.46875 17.445312 10.511719 17.472656 10.519531 C 17.5 10.527344 17.488281 10.574219 17.460938 10.574219 C 17.433594 10.574219 17.402344 10.5625 17.398438 10.597656 C 17.390625 10.628906 17.378906 10.621094 17.351562 10.617188 C 17.324219 10.613281 17.257812 10.597656 17.238281 10.628906 C 17.21875 10.664062 17.214844 10.675781 17.183594 10.671875 C 17.152344 10.667969 17.164062 10.722656 17.175781 10.742188 C 17.183594 10.765625 17.214844 10.792969 17.214844 10.792969 C 17.214844 10.792969 17.242188 10.8125 17.242188 10.855469 C 17.242188 10.898438 17.226562 10.894531 17.207031 10.863281 C 17.1875 10.835938 17.152344 10.839844 17.148438 10.875 C 17.144531 10.90625 17.140625 10.957031 17.105469 10.957031 C 17.074219 10.957031 17.0625 10.964844 17.046875 10.980469 C 17.035156 11 17.011719 11.027344 17.011719 11.046875 C 17.011719 11.0625 17.007812 11.078125 16.984375 11.082031 C 16.960938 11.085938 16.957031 11.132812 16.957031 11.132812 C 16.957031 11.132812 16.902344 11.140625 16.898438 11.164062 C 16.894531 11.183594 16.902344 11.21875 16.859375 11.222656 C 16.8125 11.226562 16.785156 11.253906 16.773438 11.277344 C 16.757812 11.296875 16.753906 11.3125 16.773438 11.335938 C 16.789062 11.355469 16.804688 11.421875 16.828125 11.4375 C 16.847656 11.449219 16.867188 11.453125 16.863281 11.484375 C 16.859375 11.519531 16.832031 11.546875 16.867188 11.546875 C 16.902344 11.546875 16.925781 11.554688 16.914062 11.582031 C 16.898438 11.613281 16.898438 11.617188 16.871094 11.628906 C 16.84375 11.640625 16.832031 11.640625 16.832031 11.675781 C 16.832031 11.707031 16.839844 11.707031 16.816406 11.722656 C 16.796875 11.734375 16.796875 11.75 16.796875 11.777344 C 16.796875 11.800781 16.785156 11.792969 16.757812 11.820312 C 16.730469 11.851562 16.695312 11.851562 16.671875 11.84375 C 16.648438 11.835938 16.644531 11.835938 16.640625 11.808594 C 16.636719 11.785156 16.597656 11.785156 16.574219 11.789062 C 16.550781 11.792969 16.519531 11.816406 16.519531 11.816406 C 16.519531 11.816406 16.476562 11.84375 16.496094 11.863281 C 16.515625 11.886719 16.503906 11.917969 16.472656 11.914062 C 16.441406 11.910156 16.371094 11.949219 16.347656 11.910156 C 16.324219 11.871094 16.261719 11.847656 16.253906 11.898438 C 16.242188 11.949219 16.277344 11.945312 16.273438 11.996094 C 16.269531 12.042969 16.261719 12.042969 16.242188 12.0625 C 16.226562 12.078125 16.226562 12.089844 16.21875 12.113281 C 16.214844 12.132812 16.210938 12.179688 16.242188 12.195312 C 16.273438 12.210938 16.289062 12.257812 16.289062 12.285156 C 16.289062 12.308594 16.289062 12.335938 16.320312 12.335938 C 16.351562 12.335938 16.378906 12.332031 16.382812 12.300781 C 16.386719 12.273438 16.453125 12.253906 16.457031 12.3125 C 16.460938 12.371094 16.460938 12.402344 16.484375 12.425781 C 16.503906 12.453125 16.523438 12.484375 16.542969 12.5 C 16.558594 12.511719 16.589844 12.617188 16.589844 12.617188 C 16.546875 12.628906 16.535156 12.683594 16.507812 12.695312 C 16.492188 12.703125 16.472656 12.699219 16.460938 12.707031 C 16.449219 12.71875 16.449219 12.734375 16.433594 12.738281 C 16.398438 12.753906 16.40625 12.703125 16.367188 12.722656 C 16.328125 12.738281 16.324219 12.78125 16.273438 12.761719 C 16.246094 12.753906 16.230469 12.648438 16.222656 12.621094 C 16.21875 12.605469 16.1875 12.5625 16.179688 12.550781 C 16.148438 12.503906 16.089844 12.550781 16.070312 12.535156 C 16.039062 12.515625 16.050781 12.476562 16.003906 12.472656 C 15.910156 12.46875 15.976562 12.53125 15.9375 12.546875 C 15.863281 12.574219 15.863281 12.476562 15.804688 12.519531 C 15.785156 12.539062 15.839844 12.546875 15.828125 12.578125 C 15.816406 12.601562 15.761719 12.636719 15.761719 12.667969 C 15.769531 12.707031 15.808594 12.71875 15.824219 12.75 C 15.855469 12.835938 15.800781 12.894531 15.714844 12.828125 C 15.667969 12.789062 15.660156 12.71875 15.585938 12.726562 C 15.566406 12.726562 15.5625 12.746094 15.546875 12.746094 C 15.527344 12.746094 15.515625 12.730469 15.496094 12.734375 C 15.46875 12.746094 15.492188 12.765625 15.488281 12.78125 C 15.488281 12.78125 15.453125 12.808594 15.445312 12.820312 C 15.425781 12.847656 15.433594 12.871094 15.402344 12.890625 C 15.378906 12.910156 15.359375 12.898438 15.332031 12.929688 C 15.304688 12.960938 15.300781 13.003906 15.265625 13.035156 C 15.246094 13.046875 15.234375 12.988281 15.210938 13.027344 C 15.207031 13.035156 15.203125 13.039062 15.203125 13.042969 C 15.195312 13.054688 15.195312 13.0625 15.203125 13.074219 C 15.25 13.167969 15.148438 13.199219 15.117188 13.265625 C 15.105469 13.292969 15.144531 13.320312 15.128906 13.339844 C 15.117188 13.355469 15.074219 13.398438 15.070312 13.40625 C 15.066406 13.417969 15.0625 13.4375 15.054688 13.445312 C 15.046875 13.453125 15.019531 13.449219 15.015625 13.460938 C 15.015625 13.476562 15.046875 13.488281 15.054688 13.5 C 15.0625 13.507812 15.046875 13.523438 15.050781 13.527344 C 15.101562 13.578125 15.074219 13.5625 15.097656 13.609375 C 15.101562 13.617188 15.117188 13.605469 15.125 13.621094 C 15.128906 13.636719 15.109375 13.636719 15.117188 13.652344 C 15.117188 13.660156 15.15625 13.707031 15.15625 13.707031 C 15.15625 13.722656 15.085938 13.753906 15.070312 13.753906 C 15.027344 13.757812 15.109375 13.667969 15.039062 13.667969 C 15.007812 13.667969 15.003906 13.738281 14.996094 13.742188 C 14.992188 13.746094 14.964844 13.742188 14.957031 13.742188 C 14.914062 13.742188 14.882812 13.800781 14.867188 13.804688 C 14.855469 13.808594 14.828125 13.800781 14.808594 13.800781 C 14.792969 13.804688 14.769531 13.824219 14.753906 13.824219 C 14.742188 13.824219 14.738281 13.816406 14.726562 13.8125 C 14.707031 13.800781 14.671875 13.792969 14.648438 13.785156 C 14.636719 13.78125 14.609375 13.800781 14.601562 13.796875 C 14.589844 13.789062 14.613281 13.761719 14.578125 13.742188 C 14.574219 13.742188 14.550781 13.679688 14.550781 13.675781 C 14.5625 13.636719 14.574219 13.59375 14.570312 13.550781 C 14.5625 13.507812 14.496094 13.472656 14.476562 13.4375 C 14.464844 13.410156 14.453125 13.339844 14.425781 13.324219 C 14.398438 13.304688 14.371094 13.269531 14.355469 13.238281 C 14.351562 13.230469 14.367188 13.214844 14.355469 13.203125 C 14.34375 13.1875 14.324219 13.179688 14.316406 13.160156 C 14.3125 13.140625 14.316406 13.085938 14.296875 13.074219 C 14.277344 13.0625 14.136719 13.046875 14.105469 13.042969 C 14.085938 13.042969 14.074219 13.042969 14.058594 13.027344 C 14.054688 13.023438 14.042969 13 14.039062 13 C 14.027344 13 14.011719 13.007812 13.996094 13.007812 C 13.988281 13.011719 13.96875 13.003906 13.960938 13.007812 C 13.917969 13.039062 13.90625 13.078125 13.863281 13.109375 C 13.820312 13.144531 13.773438 13.140625 13.730469 13.179688 C 13.703125 13.203125 13.683594 13.261719 13.65625 13.289062 C 13.644531 13.300781 13.628906 13.289062 13.625 13.292969 C 13.601562 13.324219 13.570312 13.339844 13.546875 13.367188 C 13.542969 13.371094 13.542969 13.382812 13.539062 13.386719 L 13.488281 13.398438 C 13.476562 13.402344 13.453125 13.398438 13.441406 13.402344 C 13.421875 13.40625 13.421875 13.433594 13.34375 13.449219 C 13.339844 13.449219 13.328125 13.453125 13.324219 13.457031 C 13.316406 13.464844 13.308594 13.472656 13.300781 13.480469 C 13.292969 13.484375 13.277344 13.476562 13.265625 13.476562 C 13.246094 13.480469 13.234375 13.496094 13.21875 13.5 C 13.175781 13.503906 13.113281 13.480469 13.078125 13.492188 C 13.0625 13.5 13.007812 13.558594 12.988281 13.566406 C 12.976562 13.570312 12.964844 13.566406 12.953125 13.558594 C 12.945312 13.570312 12.929688 13.632812 12.925781 13.648438 C 12.925781 13.648438 12.835938 13.722656 12.832031 13.730469 C 12.820312 13.742188 12.816406 13.757812 12.800781 13.769531 C 12.792969 13.78125 12.777344 13.789062 12.761719 13.789062 C 12.746094 13.789062 12.71875 13.773438 12.699219 13.773438 C 12.667969 13.765625 12.570312 13.761719 12.539062 13.769531 C 12.511719 13.773438 12.519531 13.863281 12.441406 13.871094 C 12.398438 13.878906 12.359375 13.886719 12.3125 13.890625 C 12.308594 13.890625 12.28125 13.871094 12.253906 13.878906 C 12.242188 13.882812 12.210938 13.914062 12.210938 13.925781 L 12.210938 13.945312 C 12.210938 13.949219 12.21875 13.960938 12.21875 13.960938 C 12.203125 13.980469 12.164062 14.011719 12.152344 14.035156 C 12.148438 14.039062 12.144531 14.046875 12.136719 14.050781 C 12.128906 14.058594 12.074219 14.078125 12.070312 14.089844 C 12.058594 14.121094 12.105469 14.148438 12.101562 14.164062 C 12.089844 14.203125 12.035156 14.242188 12.019531 14.28125 C 12.011719 14.296875 12.035156 14.347656 12.035156 14.367188 C 12.027344 14.414062 12.011719 14.480469 12.015625 14.527344 C 12.015625 14.535156 12.019531 14.585938 12.023438 14.589844 C 12.03125 14.601562 12.042969 14.605469 12.050781 14.613281 C 12.058594 14.621094 12.117188 14.738281 12.121094 14.753906 C 12.132812 14.839844 12.007812 14.808594 12.078125 14.898438 C 12.089844 14.910156 12.097656 14.925781 12.113281 14.9375 C 12.128906 14.953125 12.21875 15.019531 12.222656 15.027344 C 12.222656 15.039062 12.148438 15.054688 12.132812 15.066406 C 12.097656 15.101562 12.066406 15.167969 12.03125 15.207031 C 12.011719 15.226562 11.992188 15.203125 11.960938 15.257812 C 11.953125 15.277344 11.960938 15.320312 11.949219 15.335938 C 11.933594 15.351562 11.917969 15.328125 11.898438 15.335938 C 11.890625 15.339844 11.886719 15.363281 11.878906 15.371094 C 11.859375 15.386719 11.675781 15.484375 11.660156 15.476562 C 11.652344 15.472656 11.640625 15.441406 11.640625 15.429688 C 11.636719 15.421875 11.625 15.398438 11.617188 15.390625 C 11.570312 15.351562 11.5 15.34375 11.453125 15.390625 C 11.441406 15.402344 11.441406 15.421875 11.425781 15.433594 C 11.402344 15.457031 11.375 15.476562 11.351562 15.496094 C 11.347656 15.5 11.332031 15.515625 11.328125 15.515625 C 11.308594 15.511719 11.265625 15.460938 11.253906 15.449219 C 11.234375 15.425781 11.175781 15.367188 11.167969 15.339844 C 11.167969 15.246094 11.097656 15.148438 11.066406 15.058594 L 11.109375 15.058594 C 11.160156 15.023438 11.148438 14.9375 11.238281 14.972656 C 11.25 14.957031 11.25 14.941406 11.269531 14.929688 C 11.277344 14.925781 11.292969 14.917969 11.296875 14.914062 C 11.328125 14.863281 11.363281 14.683594 11.332031 14.636719 C 11.304688 14.597656 11.273438 14.597656 11.253906 14.527344 C 11.246094 14.511719 11.257812 14.488281 11.253906 14.46875 C 11.246094 14.449219 11.21875 14.351562 11.210938 14.34375 C 11.207031 14.335938 11.1875 14.324219 11.1875 14.320312 C 11.183594 14.3125 11.179688 14.203125 11.183594 14.195312 C 11.152344 14.109375 11.046875 14.058594 11.042969 14.046875 C 11.03125 14.027344 11.019531 14 11.003906 13.980469 C 10.988281 13.953125 10.988281 13.9375 10.980469 13.914062 C 10.976562 13.902344 10.960938 13.894531 10.957031 13.878906 C 10.957031 13.859375 11.019531 13.8125 11.015625 13.773438 C 11.015625 13.761719 10.976562 13.722656 10.984375 13.703125 C 10.992188 13.679688 11.03125 13.628906 11.03125 13.605469 C 11.027344 13.574219 10.96875 13.503906 10.960938 13.46875 C 10.957031 13.453125 10.984375 13.4375 10.976562 13.425781 C 10.96875 13.410156 10.90625 13.355469 10.894531 13.335938 C 10.886719 13.324219 10.917969 13.308594 10.898438 13.285156 C 10.875 13.265625 10.894531 13.269531 10.886719 13.253906 C 10.882812 13.234375 10.859375 13.214844 10.847656 13.195312 C 10.839844 13.175781 10.789062 12.980469 10.789062 12.96875 C 10.78125 12.953125 10.761719 12.941406 10.753906 12.929688 C 10.746094 12.914062 10.746094 12.890625 10.738281 12.878906 C 10.738281 12.878906 10.675781 12.859375 10.664062 12.84375 C 10.65625 12.828125 10.652344 12.777344 10.636719 12.753906 C 10.628906 12.742188 10.617188 12.746094 10.609375 12.738281 C 10.601562 12.730469 10.601562 12.71875 10.597656 12.710938 C 10.578125 12.6875 10.542969 12.710938 10.515625 12.617188 C 10.484375 12.59375 10.453125 12.574219 10.425781 12.546875 C 10.417969 12.539062 10.417969 12.535156 10.410156 12.53125 C 10.386719 12.523438 10.351562 12.519531 10.332031 12.5 C 10.324219 12.5 10.261719 12.5 10.253906 12.496094 C 10.25 12.492188 10.242188 12.464844 10.238281 12.464844 C 10.207031 12.457031 10.152344 12.460938 10.125 12.4375 C 10.105469 12.417969 10.101562 12.328125 10.0625 12.339844 C 10.058594 12.335938 10.050781 12.335938 10.046875 12.335938 C 10.023438 12.304688 9.9375 12.300781 9.902344 12.277344 C 9.890625 12.273438 9.859375 12.277344 9.859375 12.269531 C 9.867188 12.25 9.863281 12.234375 9.863281 12.21875 C 9.84375 12.199219 9.832031 12.175781 9.820312 12.164062 C 9.785156 12.15625 9.800781 12.152344 9.777344 12.140625 C 9.722656 12.136719 9.714844 12.144531 9.679688 12.179688 C 9.671875 12.1875 9.652344 12.191406 9.640625 12.195312 C 9.621094 12.207031 9.617188 12.242188 9.589844 12.226562 C 9.582031 12.21875 9.574219 12.210938 9.566406 12.207031 C 9.550781 12.191406 9.542969 12.199219 9.535156 12.175781 C 9.488281 12.148438 9.359375 12.234375 9.332031 12.175781 C 9.308594 12.164062 9.292969 12.179688 9.273438 12.160156 C 9.265625 12.148438 9.300781 12.042969 9.207031 12 C 9.230469 11.984375 9.25 11.972656 9.273438 11.957031 C 9.277344 11.945312 9.269531 11.929688 9.269531 11.917969 C 9.269531 11.898438 9.28125 11.863281 9.277344 11.851562 C 9.273438 11.839844 9.261719 11.828125 9.257812 11.8125 C 9.25 11.800781 9.257812 11.78125 9.25 11.765625 C 9.246094 11.761719 9.226562 11.75 9.222656 11.75 C 9.195312 11.730469 9.171875 11.71875 9.152344 11.691406 C 9.148438 11.6875 9.144531 11.679688 9.136719 11.675781 C 9.121094 11.660156 9.066406 11.644531 9.066406 11.617188 C 9.070312 11.609375 9.082031 11.609375 9.085938 11.601562 C 9.085938 11.589844 9.085938 11.578125 9.09375 11.566406 C 9.121094 11.53125 9.175781 11.546875 9.167969 11.480469 C 9.164062 11.453125 9.144531 11.425781 9.136719 11.394531 C 9.128906 11.386719 9.125 11.375 9.117188 11.367188 C 9.058594 11.363281 9.066406 11.304688 9.046875 11.289062 C 8.988281 11.25 8.941406 11.273438 9.007812 11.191406 C 9.015625 11.167969 8.949219 11.125 8.9375 11.109375 C 8.914062 11.085938 8.925781 11.039062 8.914062 11.015625 C 8.910156 11 8.871094 10.980469 8.859375 10.960938 C 8.855469 10.957031 8.84375 10.929688 8.839844 10.925781 L 8.839844 10.917969 C 8.851562 10.90625 8.847656 10.890625 8.84375 10.875 C 8.835938 10.867188 8.820312 10.871094 8.8125 10.867188 C 8.757812 10.816406 8.691406 10.792969 8.621094 10.765625 C 8.601562 10.757812 8.609375 10.742188 8.59375 10.734375 C 8.578125 10.730469 8.484375 10.6875 8.476562 10.6875 C 8.464844 10.683594 8.457031 10.640625 8.449219 10.628906 C 8.441406 10.617188 8.414062 10.59375 8.414062 10.589844 C 8.417969 10.550781 8.390625 10.546875 8.363281 10.527344 C 8.363281 10.519531 8.359375 10.507812 8.359375 10.5 C 8.359375 10.496094 8.378906 10.425781 8.382812 10.417969 C 8.386719 10.402344 8.40625 10.390625 8.402344 10.371094 C 8.398438 10.347656 8.394531 10.304688 8.386719 10.28125 C 8.355469 10.199219 8.320312 10.210938 8.339844 10.101562 C 8.34375 10.082031 8.335938 10.070312 8.351562 10.046875 C 8.351562 10.046875 8.359375 10.039062 8.363281 10.035156 C 8.371094 10.027344 8.398438 10.011719 8.40625 10.003906 C 8.421875 9.980469 8.433594 9.925781 8.453125 9.910156 C 8.46875 9.898438 8.515625 9.875 8.523438 9.863281 C 8.53125 9.855469 8.539062 9.828125 8.535156 9.816406 C 8.519531 9.808594 8.503906 9.8125 8.488281 9.808594 C 8.480469 9.808594 8.460938 9.792969 8.445312 9.792969 C 8.441406 9.785156 8.433594 9.78125 8.433594 9.773438 L 8.425781 9.765625 C 8.40625 9.765625 8.386719 9.753906 8.371094 9.746094 C 8.351562 9.738281 8.324219 9.738281 8.304688 9.726562 C 8.269531 9.707031 8.226562 9.648438 8.191406 9.640625 C 8.144531 9.628906 8.113281 9.644531 8.070312 9.644531 C 8.039062 9.648438 8.039062 9.628906 8.015625 9.621094 C 7.984375 9.613281 8.007812 9.640625 7.933594 9.617188 C 7.925781 9.609375 7.941406 9.582031 7.941406 9.574219 C 7.929688 9.570312 7.914062 9.578125 7.902344 9.574219 C 7.84375 9.558594 7.863281 9.503906 7.847656 9.46875 C 7.84375 9.460938 7.816406 9.464844 7.804688 9.460938 C 7.804688 9.460938 7.800781 9.457031 7.804688 9.453125 L 7.808594 9.449219 C 7.820312 9.433594 7.78125 9.394531 7.785156 9.386719 C 7.785156 9.375 7.859375 9.363281 7.871094 9.363281 C 7.871094 9.355469 7.863281 9.34375 7.863281 9.335938 C 7.859375 9.316406 7.871094 9.289062 7.878906 9.269531 L 7.878906 9.261719 C 7.855469 9.25 7.851562 9.234375 7.832031 9.21875 C 7.832031 9.210938 7.847656 9.203125 7.847656 9.195312 C 7.882812 9.097656 7.9375 9.175781 7.984375 9.085938 C 7.988281 9.078125 8.003906 9.054688 8.007812 9.039062 L 8.015625 9.039062 C 8.027344 9.039062 8.039062 9.046875 8.046875 9.042969 C 8.054688 9.035156 8.070312 9.03125 8.078125 9.027344 L 8.097656 9.03125 C 8.183594 9.011719 8.164062 8.980469 8.214844 8.945312 C 8.230469 8.933594 8.269531 8.929688 8.285156 8.925781 C 8.304688 8.933594 8.332031 8.964844 8.371094 8.976562 C 8.394531 8.988281 8.484375 9.007812 8.5 9.015625 C 8.519531 9.023438 8.523438 9.050781 8.539062 9.058594 C 8.589844 9.085938 8.558594 9.039062 8.609375 9.050781 C 8.660156 9.0625 8.699219 9.101562 8.746094 9.121094 C 8.753906 9.125 8.773438 9.121094 8.78125 9.117188 C 8.796875 9.117188 8.875 9.101562 8.882812 9.105469 C 8.894531 9.105469 8.90625 9.117188 8.914062 9.117188 C 8.925781 9.121094 8.9375 9.09375 8.945312 9.097656 C 8.976562 9.101562 8.980469 9.117188 9.023438 9.109375 C 9.027344 9.109375 9.046875 8.984375 9.070312 8.976562 C 9.082031 8.972656 9.117188 9.007812 9.125 9.007812 C 9.144531 9.011719 9.125 8.984375 9.125 8.980469 C 9.121094 8.96875 9.09375 8.890625 9.097656 8.882812 C 9.097656 8.878906 9.121094 8.890625 9.128906 8.886719 C 9.152344 8.878906 9.1875 8.871094 9.207031 8.851562 C 9.207031 8.851562 9.246094 8.796875 9.25 8.792969 C 9.25 8.785156 9.238281 8.761719 9.242188 8.753906 C 9.25 8.746094 9.269531 8.738281 9.28125 8.730469 C 9.296875 8.714844 9.296875 8.6875 9.316406 8.679688 C 9.398438 8.671875 9.425781 8.609375 9.5 8.601562 C 9.503906 8.601562 9.519531 8.597656 9.523438 8.597656 L 9.539062 8.621094 C 9.542969 8.628906 9.589844 8.65625 9.597656 8.65625 C 9.605469 8.65625 9.609375 8.644531 9.617188 8.640625 C 9.628906 8.644531 9.671875 8.617188 9.675781 8.605469 C 9.675781 8.601562 9.667969 8.589844 9.671875 8.582031 C 9.675781 8.574219 9.726562 8.539062 9.734375 8.535156 C 9.75 8.535156 9.769531 8.53125 9.789062 8.535156 C 9.796875 8.539062 9.800781 8.554688 9.808594 8.558594 C 9.824219 8.558594 9.84375 8.554688 9.855469 8.554688 C 9.863281 8.558594 9.867188 8.535156 9.882812 8.535156 Z M 9.882812 8.539062 "></path>
    <path style=" stroke:none;fill-rule:nonzero;fill:rgb(100%,100%,100%);fill-opacity:1;"
          d="M 13.746094 2.574219 L 14.375 4.527344 L 12.726562 3.320312 L 14.765625 3.320312 L 13.117188 4.527344 Z M 13.746094 2.574219 "></path>
    <path style=" stroke:none;fill-rule:nonzero;fill:rgb(100%,100%,100%);fill-opacity:1;"
          d="M 16.199219 3.011719 L 16.828125 4.964844 L 15.179688 3.757812 L 17.214844 3.757812 L 15.566406 4.964844 Z M 16.199219 3.011719 "></path>
    <path style=" stroke:none;fill-rule:nonzero;fill:rgb(100%,100%,100%);fill-opacity:1;"
          d="M 18.539062 3.871094 L 19.167969 5.824219 L 17.519531 4.617188 L 19.554688 4.617188 L 17.90625 5.824219 Z M 18.539062 3.871094 "></path>
    <path style=" stroke:none;fill-rule:nonzero;fill:rgb(100%,100%,100%);fill-opacity:1;"
          d="M 11.253906 2.574219 L 10.625 4.527344 L 12.273438 3.320312 L 10.234375 3.320312 L 11.882812 4.527344 Z M 11.253906 2.574219 "></path>
    <path style=" stroke:none;fill-rule:nonzero;fill:rgb(100%,100%,100%);fill-opacity:1;"
          d="M 8.800781 3.011719 L 8.171875 4.964844 L 9.820312 3.757812 L 7.785156 3.757812 L 9.433594 4.964844 Z M 8.800781 3.011719 "></path>
    <path style=" stroke:none;fill-rule:nonzero;fill:rgb(100%,100%,100%);fill-opacity:1;"
          d="M 6.460938 3.871094 L 5.832031 5.824219 L 7.480469 4.617188 L 5.445312 4.617188 L 7.09375 5.824219 Z M 6.460938 3.871094 "></path>
  </g>
</svg>
