<svg width="24" height="18" viewBox="0 0 24 18" fill="none" xmlns="http://www.w3.org/2000/svg">
  <rect width="24" height="17.1429" rx="2" fill="#009F60"/>
  <mask id="mask0" mask-type="alpha" maskUnits="userSpaceOnUse" x="0" y="0" width="24" height="18">
    <rect width="24" height="17.1429" rx="2" fill="white"/>
  </mask>
  <g mask="url(#mask0)">
    <rect x="20.5714" y="9.14282" width="3.42857" height="8" fill="#EA8B42"/>
    <path fill-rule="evenodd" clip-rule="evenodd" d="M17.1429 17.1428H20.5714V9.14282H17.1429V17.1428Z" fill="#1A1919"/>
    <path fill-rule="evenodd" clip-rule="evenodd" d="M13.7143 17.1428H17.1429V9.14282H13.7143V17.1428Z" fill="#DB3C36"/>
    <path fill-rule="evenodd" clip-rule="evenodd"
          d="M18.0123 2.98623C17.9335 2.98844 17.8756 2.96116 17.8549 2.9153C17.9833 2.83994 18.0701 2.85675 18.1779 2.95275C18.1986 2.87769 18.1779 2.79408 18.1323 2.74394C18.0868 2.6938 18.0494 2.6938 17.9874 2.68953C17.9253 2.6854 17.8631 2.66874 17.8217 2.66874C17.761 2.53498 17.6089 2.59161 17.4629 2.64647C17.2254 2.73554 17.012 2.89731 16.9162 3.05878C16.8725 3.13266 16.8672 3.16171 16.8403 3.20359C16.8625 3.20079 16.861 3.20079 16.8748 3.19239C16.8582 3.37627 16.8362 3.54615 16.8692 3.65484C16.8279 3.81366 16.861 3.91393 16.9107 3.96407C16.9605 4.01421 16.981 4.03515 16.9894 4.09369C16.9976 4.15209 17.0225 4.20636 17.0639 4.23983C17.1053 4.27331 17.1302 4.32345 17.1343 4.35279C17.1384 4.38199 17.2665 4.50792 17.3206 4.54081C17.3413 4.5532 17.3454 4.57841 17.3704 4.61174C17.3165 4.92938 17.5319 5.24702 17.4821 5.56039C17.5194 5.56451 17.5691 5.56039 17.6189 5.54785C17.6602 5.81521 17.685 5.94483 17.4532 6.02416C17.2213 6.10365 17.0945 6.1818 17.1591 6.27073C17.2047 6.3334 17.299 6.27884 17.3579 6.22472C17.4035 6.18298 17.4573 6.14538 17.4987 6.13285C17.5401 6.12031 17.5485 6.13285 17.5277 6.18711C17.5069 6.24153 17.3953 6.35847 17.391 6.41701C17.3869 6.47556 17.4365 6.51729 17.5153 6.47128C17.5939 6.42527 17.6631 6.30494 17.6809 6.23312C17.6933 6.18298 17.7141 6.14951 17.7099 6.23312C17.7057 6.31674 17.6561 6.46715 17.7679 6.49222C17.8797 6.51729 17.9129 6.38354 17.8756 6.26232C17.8383 6.14125 17.8259 6.0743 17.8424 6.03257C17.859 5.99069 17.8756 5.96577 17.9169 5.97815C17.9583 5.99069 18.0412 5.97403 18.0371 5.90722C18.0328 5.84042 17.9749 5.78601 17.9087 5.82361C17.8424 5.86121 17.7927 5.85561 17.8217 5.77347C17.8424 5.71493 17.8797 5.64385 17.8838 5.59799C17.9294 5.66479 18.1861 5.6732 18.2897 5.61052C18.3145 5.73587 18.3808 5.84868 18.2359 5.96577C18.0909 6.08271 17.9749 6.19552 17.979 6.27913C17.9833 6.36274 18.0164 6.41274 18.0909 6.371C18.1654 6.32927 18.2109 6.27073 18.2275 6.21646C18.2441 6.16204 18.2773 6.16204 18.2607 6.22899C18.2441 6.2958 18.2152 6.39194 18.2275 6.45049C18.24 6.50888 18.3311 6.51316 18.3683 6.45874C18.4056 6.40448 18.3972 6.3334 18.389 6.26232C18.3808 6.19124 18.3933 6.11618 18.4097 6.08684C18.4263 6.05764 18.4594 6.01576 18.4926 6.09524C18.5258 6.17458 18.5423 6.23725 18.6085 6.25819C18.6748 6.27913 18.7245 6.24979 18.7121 6.17045C18.6996 6.09111 18.6126 6.00322 18.5258 5.93642C18.4388 5.86962 18.4678 5.83615 18.4719 5.77347C18.476 5.7108 18.4637 5.59799 18.4594 5.54785C18.5381 5.60639 18.6251 5.59799 18.6664 5.59799C18.7079 5.59799 18.7759 5.58516 18.7079 5.52278C18.5712 5.39744 18.6168 5.32208 18.5215 5.23021C18.4263 5.13834 18.3393 4.99618 18.3104 4.87511C18.2813 4.7539 18.2175 4.5324 18.0909 4.41959C18.0205 4.35692 17.9998 4.18556 18.0164 3.98914C18.0328 3.79272 18.0371 3.5755 17.859 3.47522C17.6809 3.37495 17.685 3.29133 17.7431 3.20359C17.801 3.11585 17.8755 3.03003 17.9708 3.02383C17.9923 3.0225 18.0418 3.01838 18.0619 3.00363C18.053 2.9967 18.0384 2.98564 18.0123 2.98623"
          fill="#EA8B42"/>
    <path fill-rule="evenodd" clip-rule="evenodd"
          d="M16.854 3.43765C16.8496 3.52259 16.8517 3.59736 16.8691 3.65487C16.8279 3.81369 16.8609 3.91397 16.9106 3.96411C16.9604 4.01424 16.981 4.03518 16.9893 4.09373C16.9976 4.15212 17.0224 4.20639 17.0638 4.23987C17.1053 4.27334 17.1301 4.32348 17.1342 4.35282C17.1383 4.38202 17.2665 4.50796 17.3205 4.54084C17.3413 4.55323 17.3454 4.57845 17.3704 4.61177C17.3479 4.74375 17.3715 4.87574 17.4039 5.00742C17.1112 5.25251 16.8223 5.1369 16.9438 4.88621C16.7008 5.08116 16.2812 5.0757 16.3751 4.88621C15.9941 5.01996 15.8782 4.90847 15.9279 4.78593C15.6077 4.91408 15.4419 4.79153 15.4862 4.70232C15.2211 4.77472 15.0499 4.73019 15.0223 4.68565C14.9948 4.64112 15.0609 4.54084 15.1217 4.4907C15.0002 4.53524 14.8843 4.53524 14.7738 4.51858C14.6634 4.50176 14.6911 4.46829 14.7131 4.41815C14.7353 4.36801 14.7642 4.28868 14.8526 4.21067C14.6414 4.2524 14.3763 4.28175 14.19 4.21893C14.1549 4.20713 14.0948 4.19386 14.132 4.1564C14.1693 4.1188 14.2811 4.02678 14.4178 3.96823C14.1071 4.01424 13.5191 4.04772 13.3535 3.8597C13.515 3.89303 13.722 3.82622 13.8545 3.77196C13.3328 3.71341 12.6206 3.35404 12.6122 3.00307C12.7613 3.24536 13.0182 3.32897 13.2749 3.40418C12.9269 3.19935 12.782 2.95279 12.7697 2.78984C12.9684 2.98213 13.2706 3.19935 13.5689 3.24964C13.3576 3.13682 13.0843 2.80665 13.0098 2.57675C13.1631 2.71463 13.5564 2.93612 13.8256 3.0072C13.6393 2.86092 13.337 2.51408 13.3535 2.32193C13.4239 2.39301 13.5978 2.52661 13.9539 2.73557C14.3101 2.94453 14.5033 2.92919 14.7973 2.99187C14.7435 2.91946 14.6952 2.82331 14.6911 2.79824C14.7781 2.81078 14.8608 2.84425 15.1093 2.9988C15.3577 3.15349 15.9007 3.20082 16.2109 3.33738C16.4385 3.43765 16.7629 3.37498 16.854 3.43765"
          fill="#EA8B42"/>
    <path fill-rule="evenodd" clip-rule="evenodd"
          d="M18.7282 5.58368C18.7419 5.57277 18.7419 5.55389 18.7078 5.52278C18.5712 5.39743 18.6167 5.32208 18.5215 5.23021C18.4263 5.13833 18.3393 4.99618 18.3104 4.87511C18.2813 4.75389 18.2175 4.5324 18.0908 4.41959C18.0204 4.35692 17.9997 4.18556 18.0163 3.98914C18.0304 3.82103 18.0356 3.63773 17.9251 3.5255C18.1321 3.46696 18.3228 3.45428 18.389 3.52108C18.7327 3.43334 19.0309 3.4068 19.3235 3.38748C19.6603 3.36506 20.2952 3.22025 20.7481 2.91382C20.7204 3.0253 20.5659 3.19238 20.4277 3.27599C20.886 3.16451 21.4382 2.95835 21.9076 2.60738C21.902 2.85262 21.7033 3.03636 21.5872 3.13679C21.9076 2.95835 22.3767 2.73553 22.5369 2.45697C22.6073 2.74246 22.1284 3.11585 21.8688 3.322C22.1338 3.19385 22.4762 3.07544 22.6088 2.88595C22.606 3.11717 22.305 3.40414 22.0179 3.57122C22.3106 3.45988 22.6364 3.3428 22.824 3.17011C22.8461 3.40281 21.9489 3.93767 21.5044 4.08381C21.891 3.98914 22.3933 3.86099 22.6142 3.72724C22.6032 3.77457 22.5131 3.84093 22.4476 3.8893C22.1775 4.08897 21.7633 4.19618 21.5099 4.24543C21.5432 4.38479 21.4989 4.4628 21.3443 4.47386C21.1898 4.48506 20.8157 4.42519 20.628 4.33037C20.6004 4.34703 20.5672 4.35279 20.5299 4.35691C20.7121 4.4948 20.7742 4.59507 20.7369 4.65362C20.6997 4.71216 20.5692 4.70154 20.4699 4.68075C20.5485 4.90224 20.2855 4.88764 20.0661 4.76215C20.1531 4.87511 20.1656 4.97111 20.0454 4.99618C19.9254 5.02125 19.83 5.01299 19.7141 4.93763C19.7058 5.02125 19.6257 5.07699 19.5195 5.04912C19.8839 5.27061 19.8632 5.35142 19.801 5.43489C19.739 5.5185 19.5216 5.50184 19.4056 5.42663C19.356 5.59798 19.1579 5.59857 19.0101 5.46217C19.0088 5.53044 18.8677 5.66597 18.7282 5.58368"
          fill="#EA8B42"/>
    <path fill-rule="evenodd" clip-rule="evenodd"
          d="M17.0377 6.4239C17.0437 6.37111 17.0487 6.30976 17.0928 6.27068C17.137 6.2316 17.1647 6.19828 17.2033 6.23721C17.2419 6.27629 17.2171 6.31256 17.1647 6.32923C17.1122 6.34589 17.0763 6.39323 17.068 6.4239C17.0597 6.45457 17.0321 6.47124 17.0377 6.4239"
          fill="black"/>
    <path fill-rule="evenodd" clip-rule="evenodd"
          d="M17.3385 6.68022C17.3112 6.59262 17.3248 6.47966 17.3551 6.44619C17.3855 6.41271 17.4242 6.39045 17.46 6.42392C17.4959 6.4574 17.5097 6.50473 17.4434 6.5326C17.3848 6.55723 17.3799 6.61887 17.3773 6.66355C17.3745 6.70809 17.3551 6.73316 17.3385 6.68022"
          fill="black"/>
    <path fill-rule="evenodd" clip-rule="evenodd"
          d="M17.725 6.45457C17.7037 6.4904 17.7305 6.63565 17.8023 6.67178C17.8532 6.69744 17.8768 6.6914 17.8464 6.64391C17.8161 6.59658 17.8272 6.55204 17.8438 6.52697C17.8602 6.5019 17.8576 6.45737 17.8216 6.4351C17.7857 6.41269 17.7415 6.42669 17.725 6.45457"
          fill="black"/>
    <path fill-rule="evenodd" clip-rule="evenodd"
          d="M18.0371 6.32362C17.9915 6.28912 17.9488 6.33056 17.9322 6.35975C17.899 6.4183 17.9239 6.50191 17.9764 6.54925C18.0289 6.59658 18.0205 6.53258 18.0039 6.50471C17.9874 6.47684 17.9846 6.4211 18.0205 6.4155C18.0563 6.41004 18.0813 6.35695 18.0371 6.32362"
          fill="black"/>
    <path fill-rule="evenodd" clip-rule="evenodd"
          d="M18.2966 6.41837C18.2522 6.40525 18.2082 6.45185 18.2137 6.50759C18.2178 6.54917 18.2221 6.60226 18.2633 6.63013C18.2911 6.64871 18.3104 6.66081 18.2966 6.61067C18.2827 6.56053 18.3049 6.51865 18.3296 6.50479C18.3545 6.49093 18.3434 6.43238 18.2966 6.41837"
          fill="black"/>
    <path fill-rule="evenodd" clip-rule="evenodd"
          d="M18.6637 6.1815C18.6315 6.20421 18.6333 6.25686 18.6637 6.27632C18.694 6.29579 18.7382 6.32366 18.73 6.37099C18.7216 6.41833 18.7464 6.43514 18.7686 6.3822C18.7907 6.32926 18.7935 6.25125 18.7686 6.21498C18.7436 6.1787 18.6912 6.16204 18.6637 6.1815"
          fill="black"/>
    <path fill-rule="evenodd" clip-rule="evenodd"
          d="M17.8632 2.91151C17.8824 2.95402 17.9374 2.97912 18.0119 2.97703L18.012 2.97703C18.0357 2.9765 18.05 2.98284 18.0673 3.01109C18.0491 3.02443 18.0148 3.03036 17.9713 3.03304C17.8922 3.03818 17.8231 3.09893 17.7507 3.20871C17.6854 3.30731 17.7083 3.37983 17.8634 3.4672C18.0176 3.55403 18.0493 3.70527 18.0255 3.98994C18.008 4.19677 18.0332 4.35596 18.0969 4.41271C18.2024 4.50665 18.2703 4.66898 18.3193 4.87298C18.3472 4.98983 18.4318 5.13088 18.5278 5.22358C18.5504 5.24537 18.5666 5.26733 18.5795 5.2924C18.5869 5.30682 18.5923 5.31983 18.6011 5.34319C18.6314 5.42382 18.6518 5.45897 18.714 5.51599C18.7485 5.54759 18.7552 5.57387 18.7339 5.59098C18.7198 5.60227 18.6945 5.60722 18.6664 5.60722L18.6511 5.60743C18.5842 5.60866 18.5412 5.60318 18.4917 5.57851C18.4844 5.57487 18.4772 5.57086 18.4702 5.56647L18.4744 5.61296C18.4762 5.63366 18.4777 5.65203 18.4789 5.6695C18.4818 5.71335 18.4827 5.74836 18.481 5.77409C18.4803 5.78384 18.4793 5.79233 18.4772 5.8057C18.4733 5.83041 18.4726 5.83717 18.4733 5.84792C18.4751 5.87426 18.4907 5.89791 18.5313 5.92912C18.6378 6.01099 18.7096 6.09558 18.7211 6.16904C18.734 6.2516 18.6822 6.29116 18.6057 6.267C18.5589 6.25221 18.5348 6.22157 18.507 6.15515C18.5055 6.15149 18.5015 6.1416 18.4972 6.13093C18.492 6.11832 18.4865 6.10461 18.4841 6.09882C18.4705 6.06642 18.4582 6.05603 18.4474 6.05916C18.4381 6.06184 18.4277 6.07368 18.4177 6.09137C18.4006 6.12177 18.3906 6.19709 18.3981 6.26127L18.3981 6.26196C18.4107 6.37052 18.4085 6.41636 18.3758 6.46397C18.3343 6.52478 18.2328 6.51929 18.2185 6.45241C18.2119 6.42143 18.2156 6.3805 18.2273 6.32619C18.2305 6.31124 18.2342 6.29575 18.239 6.27671L18.2518 6.22678C18.2581 6.20102 18.2564 6.18659 18.2548 6.18629C18.2522 6.1858 18.2427 6.19791 18.2362 6.21918C18.2177 6.27992 18.1674 6.33864 18.0953 6.37907C18.0192 6.42171 17.9748 6.37832 17.9698 6.2796C17.9659 6.20094 18.0531 6.1013 18.2301 5.9586C18.2644 5.93084 18.2875 5.90263 18.3012 5.87309C18.326 5.81961 18.3225 5.77854 18.2952 5.67362C18.2896 5.65203 18.2861 5.63794 18.2832 5.62466C18.1785 5.67824 17.9596 5.67365 17.89 5.61778C17.8853 5.63977 17.875 5.66662 17.8545 5.71573L17.8544 5.71598C17.8415 5.74681 17.8359 5.76057 17.8303 5.77656C17.818 5.81148 17.8206 5.82991 17.8329 5.83492C17.8462 5.84035 17.8723 5.83363 17.9041 5.8156C17.9725 5.77677 18.0411 5.82762 18.0462 5.90667C18.0502 5.97211 17.9739 6.00505 17.9142 5.987C17.8832 5.97771 17.8691 5.99 17.8509 6.03598C17.8362 6.07308 17.8456 6.134 17.8843 6.25962C17.9275 6.39981 17.8784 6.52647 17.7658 6.50123C17.6969 6.48579 17.6789 6.43115 17.6885 6.33557C17.6897 6.32373 17.6912 6.3124 17.6936 6.29473C17.6988 6.2561 17.6999 6.24729 17.7006 6.23267C17.7013 6.2192 17.7013 6.20859 17.7008 6.20092C17.6973 6.20917 17.6932 6.22154 17.6898 6.23536C17.6685 6.32122 17.593 6.43644 17.5199 6.47926C17.4413 6.52517 17.3766 6.4895 17.3818 6.41636C17.3837 6.38946 17.4029 6.35514 17.4424 6.29961L17.4534 6.28435C17.5035 6.21509 17.5118 6.20289 17.519 6.18381C17.5372 6.13645 17.5345 6.13163 17.5013 6.14169C17.4639 6.15299 17.4123 6.18734 17.3641 6.23153C17.2822 6.30671 17.1955 6.33647 17.1516 6.27617C17.1169 6.22845 17.1313 6.18136 17.1893 6.13662C17.2403 6.09724 17.3263 6.05791 17.4501 6.01546C17.6464 5.94831 17.6614 5.88369 17.6211 5.55681C17.5712 5.56935 17.5203 5.5739 17.473 5.55895C17.4933 5.43113 17.4774 5.32839 17.4167 5.09365C17.3547 4.85352 17.3384 4.74535 17.363 4.6173C17.3566 4.6087 17.3512 4.60027 17.3456 4.59049L17.3337 4.56911C17.3275 4.55852 17.3225 4.55274 17.3158 4.54871C17.2569 4.51292 17.1296 4.38578 17.1251 4.35409C17.1207 4.32211 17.0935 4.27567 17.0581 4.24703C17.0164 4.21335 16.9892 4.15847 16.9803 4.09502C16.9732 4.04548 16.9627 4.02957 16.9041 3.97059C16.8428 3.90874 16.8226 3.7975 16.8604 3.65754C16.8348 3.57363 16.8372 3.49282 16.861 3.2407L16.864 3.20868C16.8613 3.20963 16.8584 3.21031 16.8545 3.21095L16.8414 3.21275L16.8325 3.19862C16.838 3.19009 16.8427 3.18178 16.8475 3.17267C16.8515 3.16483 16.8515 3.16482 16.8553 3.15678C16.8537 3.16015 16.8701 3.12514 16.8758 3.11378C16.8852 3.09463 16.8955 3.07566 16.9083 3.05408C17.0056 2.8901 17.2211 2.72731 17.4596 2.63785C17.6856 2.55297 17.7764 2.54686 17.8216 2.65953C17.8416 2.65953 17.8517 2.66093 17.9104 2.67051C17.944 2.67599 17.9655 2.67886 17.988 2.68035L18.0022 2.6813C18.0551 2.68488 18.0773 2.68961 18.1041 2.70719C18.1159 2.7149 18.1274 2.7249 18.139 2.73775C18.1879 2.79155 18.2077 2.87891 18.1866 2.95523L18.1717 2.95966C18.0634 2.86311 17.9806 2.85216 17.8632 2.91151ZM18.0563 3.01098C18.0418 2.99981 18.0311 2.99507 18.0124 2.99549L18.0125 2.99549C17.9313 2.99777 17.8692 2.96945 17.8502 2.90739C17.9741 2.83467 18.0636 2.8435 18.1724 2.93589C18.1714 2.94075 18.1703 2.94557 18.169 2.95034L18.1839 2.94591C18.18 2.94247 18.1762 2.93913 18.1724 2.93589C18.1858 2.86923 18.167 2.79593 18.1255 2.7502C18.1148 2.73846 18.1045 2.72948 18.0941 2.72266C18.0707 2.70732 18.0509 2.7031 18.0009 2.69973L17.9868 2.69877C17.9636 2.69724 17.9416 2.6943 17.9075 2.68874C17.8968 2.687 17.8878 2.68554 17.88 2.68427C17.8459 2.67874 17.8351 2.677 17.8133 2.6726C17.7659 2.5682 17.6826 2.5738 17.466 2.65515C17.2312 2.74324 17.019 2.90349 16.9241 3.06354C16.9115 3.08471 16.9015 3.10327 16.8922 3.12202C16.8867 3.13317 16.8704 3.16805 16.8719 3.16476C16.8679 3.17303 16.8679 3.17303 16.8638 3.18121L16.8638 3.18121C16.862 3.18461 16.8602 3.1879 16.8584 3.19114C16.8567 3.19179 16.8548 3.19226 16.8516 3.19279L16.8391 3.1945L16.8479 3.20863C16.8517 3.2028 16.8551 3.19706 16.8584 3.19114C16.8588 3.19101 16.8591 3.19087 16.8594 3.19072C16.8613 3.18987 16.863 3.18888 16.87 3.18455L16.8839 3.19327L16.8793 3.24247C16.8558 3.49142 16.8535 3.57168 16.8781 3.65721C16.8419 3.79634 16.8609 3.90087 16.9171 3.95761C16.9783 4.01916 16.9907 4.03796 16.9985 4.09245C17.0068 4.15159 17.0319 4.20221 17.0696 4.2327C17.1086 4.26422 17.1382 4.31484 17.1433 4.35155C17.1468 4.37594 17.2709 4.49989 17.3253 4.53294C17.3351 4.53882 17.3419 4.54678 17.3495 4.55981L17.3615 4.58135C17.3629 4.58377 17.3643 4.58609 17.3657 4.58847C17.3696 4.59513 17.3738 4.60228 17.3794 4.61334C17.3571 4.74502 17.3731 4.85146 17.4345 5.08906C17.4958 5.32629 17.512 5.43067 17.4831 5.55127C17.5171 5.55504 17.5611 5.55164 17.6141 5.54755C17.6186 5.5472 17.6233 5.54684 17.6279 5.54649C17.6808 5.88885 17.6638 5.96185 17.4561 6.03293C17.334 6.07479 17.2495 6.11342 17.2005 6.15126C17.1496 6.19053 17.1385 6.22688 17.1665 6.26534C17.2009 6.31262 17.2771 6.28646 17.3517 6.21796C17.4018 6.17207 17.4555 6.13633 17.496 6.12407C17.5468 6.1087 17.5591 6.13076 17.5362 6.19045C17.528 6.21185 17.5202 6.22349 17.4683 6.2952L17.4574 6.31036C17.4201 6.36276 17.4017 6.39565 17.4001 6.41771C17.3961 6.47547 17.4443 6.5021 17.5106 6.46337C17.5791 6.42329 17.6518 6.31231 17.6719 6.23096C17.6789 6.20268 17.6876 6.18128 17.6965 6.17536C17.7073 6.16809 17.7153 6.17616 17.7178 6.18905C17.7196 6.19822 17.72 6.21295 17.719 6.23363C17.7182 6.24901 17.7171 6.25794 17.7118 6.29726C17.7094 6.31474 17.708 6.32588 17.7068 6.33745C17.698 6.42483 17.7131 6.47055 17.7699 6.48327C17.8638 6.50433 17.9065 6.39411 17.8668 6.26509C17.8267 6.13523 17.817 6.07182 17.8338 6.02921C17.8551 5.97547 17.8768 5.95657 17.9195 5.96938C17.9687 5.98426 18.0309 5.95741 18.0279 5.90786C18.0236 5.84119 17.9684 5.8003 17.9131 5.83168C17.8769 5.85225 17.846 5.8602 17.826 5.85203C17.8019 5.84221 17.7978 5.81345 17.813 5.77044C17.8188 5.75399 17.8244 5.74004 17.8375 5.70887L17.8376 5.70863C17.8634 5.64694 17.8725 5.62132 17.8746 5.59721L17.8914 5.59283C17.9338 5.65503 18.1852 5.66298 18.2849 5.60268L18.2986 5.60877C18.302 5.62592 18.3057 5.64105 18.313 5.669C18.3413 5.77805 18.3452 5.82212 18.3179 5.8809C18.303 5.91315 18.2781 5.94354 18.2416 5.973C18.07 6.11139 17.9847 6.20884 17.9882 6.27871C17.9926 6.36577 18.0249 6.39741 18.0863 6.363C18.1545 6.32481 18.2016 6.2698 18.2187 6.21381C18.2277 6.18434 18.2427 6.16527 18.2582 6.16821C18.2754 6.17145 18.2784 6.19583 18.2696 6.23127L18.2568 6.28128C18.252 6.30012 18.2484 6.31541 18.2452 6.3301C18.2341 6.38205 18.2306 6.42088 18.2365 6.4486C18.247 6.49788 18.3274 6.50223 18.3607 6.45356C18.3899 6.41104 18.392 6.36809 18.3799 6.26412L18.3798 6.26343C18.372 6.1957 18.3825 6.11659 18.4017 6.08232C18.4141 6.06059 18.4269 6.04593 18.4424 6.04148C18.4646 6.03506 18.4843 6.05179 18.501 6.09172C18.5035 6.09764 18.5091 6.11154 18.5143 6.12422C18.5185 6.13478 18.5225 6.14449 18.524 6.14806C18.5498 6.20994 18.5709 6.2367 18.6112 6.24945C18.6753 6.26968 18.7137 6.24035 18.703 6.17194C18.6924 6.1046 18.6231 6.02295 18.5202 5.94379C18.4757 5.90964 18.4572 5.88156 18.455 5.84923C18.4541 5.83654 18.4549 5.82912 18.459 5.80288C18.4611 5.79001 18.4621 5.78198 18.4627 5.77292C18.4643 5.74819 18.4634 5.71387 18.4606 5.67077C18.4594 5.65344 18.458 5.63518 18.4562 5.61461L18.4502 5.54868L18.4648 5.54049C18.476 5.54883 18.4877 5.55598 18.4999 5.56203C18.546 5.58504 18.5867 5.59021 18.6508 5.58903L18.6664 5.58882C18.6906 5.58882 18.7126 5.58453 18.7224 5.57663C18.7325 5.56854 18.7289 5.55468 18.7016 5.52963C18.6369 5.47031 18.6152 5.43283 18.5839 5.34973C18.5754 5.327 18.5702 5.31452 18.5632 5.3009C18.5512 5.27759 18.5362 5.25727 18.5151 5.2369C18.4166 5.14185 18.3302 4.99773 18.3014 4.87732C18.2533 4.67685 18.1865 4.51717 18.0847 4.42654C18.0151 4.36457 17.9892 4.20076 18.0072 3.98842C18.0305 3.71055 18 3.56528 17.8545 3.48331C17.6904 3.39096 17.6639 3.3066 17.7354 3.19855C17.8107 3.08437 17.8836 3.02031 17.9702 3.01468C17.9827 3.01391 17.9944 3.01282 18.0052 3.01182C18.0284 3.00967 18.0467 3.00797 18.0563 3.01098Z"
          fill="black"/>
    <path fill-rule="evenodd" clip-rule="evenodd"
          d="M16.6303 3.39414C16.7719 3.39914 16.8234 3.40549 16.8592 3.43011L16.8632 3.43819C16.8583 3.53273 16.8623 3.60077 16.878 3.65725C16.8419 3.79638 16.8609 3.90091 16.9171 3.95765C16.9782 4.0192 16.9906 4.03801 16.9984 4.09249C17.0068 4.15163 17.0319 4.20225 17.0696 4.23274C17.1086 4.26427 17.1382 4.31488 17.1433 4.35159C17.1467 4.37599 17.2709 4.49993 17.3252 4.53298C17.3351 4.53886 17.3419 4.54682 17.3495 4.55985L17.3615 4.58139C17.3629 4.5838 17.3642 4.58612 17.3656 4.5885C17.3696 4.59516 17.3738 4.60231 17.3794 4.61338C17.36 4.72704 17.3723 4.84059 17.4097 5.01456C17.2712 5.13056 17.1215 5.17503 17.0157 5.14158C16.9199 5.11126 16.8821 5.02352 16.9219 4.91422C16.8092 4.99387 16.6594 5.04034 16.5331 5.03965C16.403 5.03893 16.3295 4.98692 16.3587 4.90164C16.0444 5.00719 15.8695 4.94741 15.9126 4.80177C15.6524 4.8988 15.4369 4.83149 15.4709 4.71594C15.2476 4.77324 15.0532 4.75301 15.0145 4.69056C14.9903 4.65147 15.0279 4.57248 15.0849 4.51262C14.9861 4.5416 14.8855 4.5448 14.7724 4.52774C14.7191 4.51963 14.6927 4.50711 14.6856 4.48576C14.6802 4.46948 14.6819 4.46456 14.7022 4.42015L14.7047 4.41447C14.7046 4.41462 14.718 4.38386 14.7226 4.37381C14.7306 4.35621 14.7385 4.34057 14.7474 4.32498C14.7677 4.28947 14.7922 4.25678 14.8231 4.22577C14.5648 4.27412 14.3444 4.28076 14.1871 4.22772L14.1635 4.22012C14.1416 4.21284 14.1281 4.20648 14.1195 4.19749C14.1065 4.18398 14.1085 4.16706 14.1255 4.14995C14.1757 4.09933 14.2645 4.03428 14.359 3.98582C13.9107 4.04491 13.4816 4.01914 13.3466 3.86586L13.3553 3.85073C13.4811 3.87669 13.6429 3.84455 13.8177 3.77678C13.2453 3.70034 12.6107 3.32751 12.603 3.00335L12.62 2.99829C12.7361 3.18693 12.8911 3.2767 13.2103 3.37523C12.934 3.19648 12.7745 2.97441 12.7605 2.79059L12.7761 2.78326C13.0018 3.00179 13.2708 3.17242 13.5177 3.23C13.3132 3.09694 13.0711 2.79573 13.0011 2.57966L13.0159 2.56994C13.1719 2.71032 13.5339 2.90859 13.7848 2.98597C13.5564 2.79409 13.3304 2.48403 13.3443 2.3212L13.36 2.31549C13.4473 2.40362 13.6476 2.54519 13.9585 2.72767C14.1512 2.84069 14.2979 2.89259 14.4913 2.92831C14.5187 2.93336 14.5451 2.93787 14.5868 2.9447C14.6895 2.96154 14.7274 2.96801 14.7761 2.97805C14.731 2.91288 14.6866 2.82779 14.682 2.7998L14.6924 2.78918C14.789 2.8031 14.8813 2.84625 15.1141 2.99102C15.2263 3.06085 15.3634 3.10188 15.696 3.17928L15.7114 3.18285C15.9799 3.24534 16.0992 3.27823 16.2145 3.329C16.2747 3.3555 16.345 3.37207 16.4288 3.38173C16.4855 3.38826 16.5265 3.39048 16.6303 3.39414ZM16.8445 3.44255C16.8446 3.44078 16.8447 3.439 16.8448 3.43722L16.8488 3.4453C16.8474 3.44435 16.846 3.44343 16.8445 3.44255ZM13.3807 3.87372C13.5144 3.8918 13.6805 3.85322 13.858 3.78053L13.8555 3.76284C13.3043 3.70099 12.6792 3.35005 12.625 3.03999C12.7503 3.22415 12.9226 3.31063 13.2723 3.41307L13.2795 3.39627C12.9844 3.22257 12.8088 2.9994 12.7816 2.81404C13.0223 3.04196 13.3087 3.21517 13.5673 3.25877L13.5732 3.24154C13.3743 3.13537 13.1176 2.8323 13.0301 2.60641C13.21 2.75512 13.5822 2.95253 13.8232 3.01616L13.8312 2.99999C13.6056 2.82283 13.3686 2.51204 13.3622 2.34333C13.4575 2.43338 13.6538 2.57017 13.9492 2.74357C14.1438 2.85773 14.2926 2.91033 14.4879 2.94642C14.5154 2.95151 14.542 2.95603 14.5838 2.96288C14.7018 2.98222 14.734 2.98784 14.7954 3.00092L14.8046 2.9864C14.7627 2.92993 14.7172 2.84735 14.7037 2.80966C14.7925 2.82535 14.8852 2.87034 15.1044 3.00667C15.219 3.07802 15.3568 3.11928 15.6918 3.19723L15.7072 3.2008C15.9745 3.263 16.0932 3.29573 16.2071 3.34586C16.2692 3.3732 16.3412 3.39018 16.4267 3.40003C16.484 3.40664 16.5253 3.40887 16.6296 3.41255C16.7603 3.41716 16.8127 3.42311 16.8445 3.44255C16.8399 3.53631 16.8442 3.60461 16.8603 3.6576C16.8225 3.79756 16.8428 3.9088 16.904 3.97065C16.9626 4.02963 16.9731 4.04554 16.9802 4.09508C16.9891 4.15853 17.0163 4.21341 17.058 4.24709C17.0935 4.27573 17.1206 4.32217 17.1251 4.35415C17.1295 4.38584 17.2569 4.51298 17.3157 4.54877C17.3225 4.5528 17.3274 4.55858 17.3336 4.56917L17.3455 4.59055C17.3511 4.60033 17.3565 4.60876 17.363 4.61736C17.3414 4.72698 17.3539 4.84274 17.3949 5.00967C17.2638 5.1127 17.1203 5.15532 17.0212 5.12398C16.9275 5.09435 16.8966 5.00464 16.952 4.89028L16.938 4.87905C16.8263 4.96862 16.6659 5.02193 16.5331 5.0212C16.4047 5.02049 16.3433 4.97102 16.3833 4.89035L16.3721 4.87755C16.0437 4.99281 15.879 4.93088 15.9363 4.78945L15.9244 4.77741C15.6552 4.88516 15.4417 4.81269 15.4943 4.70647L15.4837 4.69347C15.2601 4.75455 15.064 4.73565 15.03 4.68083C15.0085 4.646 15.0608 4.5529 15.1275 4.49787L15.1186 4.48209C15.01 4.52188 14.9007 4.52844 14.7751 4.5095C14.7282 4.50236 14.7072 4.49238 14.703 4.47993C14.6999 4.47057 14.7017 4.4654 14.7188 4.4278L14.7215 4.42191C14.7683 4.31603 14.7857 4.28566 14.8476 4.22763L14.8586 4.21763L14.8507 4.20167C14.5818 4.25481 14.3527 4.2641 14.1929 4.21023L14.1692 4.20261C14.1501 4.19626 14.1385 4.19077 14.1327 4.18471C14.1273 4.17912 14.128 4.17349 14.1384 4.16295C14.1968 4.10415 14.3097 4.02456 14.4213 3.97675L14.4164 3.95916C13.9747 4.02457 13.537 4.00857 13.3807 3.87372ZM13.3807 3.87372C13.3733 3.8673 13.3665 3.8606 13.3603 3.85364L13.3516 3.86877C13.3611 3.87074 13.3708 3.87238 13.3807 3.87372ZM14.7037 2.80966C14.7019 2.80445 14.7006 2.8001 14.7001 2.79679L14.6897 2.80741C14.6944 2.80808 14.6991 2.80883 14.7037 2.80966ZM13.3622 2.34333C13.3619 2.33621 13.362 2.32935 13.3626 2.32276L13.3469 2.32847C13.3517 2.33327 13.3568 2.33822 13.3622 2.34333ZM13.0301 2.60641C13.0258 2.59539 13.0219 2.58456 13.0185 2.57394L13.0036 2.58366C13.0119 2.59109 13.0207 2.59869 13.0301 2.60641ZM12.7816 2.81404C12.7804 2.80568 12.7794 2.79739 12.7788 2.78918L12.7633 2.79651C12.7694 2.80239 12.7755 2.80824 12.7816 2.81404ZM12.625 3.03999C12.6229 3.02755 12.6216 3.01518 12.6213 3.0029L12.6043 3.00796C12.6111 3.01896 12.618 3.02963 12.625 3.03999Z"
          fill="black"/>
    <path fill-rule="evenodd" clip-rule="evenodd"
          d="M18.8411 3.81801L18.8416 3.81819C18.7715 3.90553 18.576 3.94082 18.4461 3.87865L18.8677 3.75136C18.8672 3.76702 18.8632 3.7818 18.8563 3.79558L18.8414 3.80067L18.8411 3.81801ZM18.8671 3.79187L18.8563 3.79558C18.8551 3.79792 18.8538 3.80024 18.8525 3.80252C18.8509 3.80193 18.8493 3.80133 18.8477 3.80072L18.8475 3.81024C18.8457 3.81293 18.8437 3.81559 18.8416 3.81819L18.8518 3.82198C18.7815 3.92709 18.5633 3.96383 18.4254 3.8888L18.428 3.88411L18.4461 3.87865C18.4419 3.87666 18.4378 3.87456 18.4338 3.87236C18.4352 3.86915 18.4365 3.86586 18.4378 3.86249L18.8743 3.74216C18.8752 3.75979 18.8726 3.77639 18.8671 3.79187ZM18.8612 3.80571C18.8583 3.80467 18.8554 3.80361 18.8525 3.80252C18.8509 3.80513 18.8493 3.80771 18.8475 3.81024L18.8474 3.81805L18.8562 3.81504C18.8548 3.81739 18.8533 3.8197 18.8518 3.82198C19.0496 3.89359 19.2345 3.85057 19.2675 3.66903L19.2555 3.65866L18.8671 3.79187C18.8654 3.79659 18.8634 3.8012 18.8612 3.80571ZM18.8723 3.80952L18.8562 3.81504C18.858 3.81199 18.8597 3.80887 18.8612 3.80571C18.8649 3.80702 18.8686 3.80829 18.8723 3.80952ZM19.2461 3.68131C19.2091 3.8312 19.0493 3.86877 18.8723 3.80952L19.2461 3.68131ZM19.2461 3.68131C19.2474 3.67622 19.2485 3.67101 19.2495 3.66567L19.2615 3.67604L19.2461 3.68131ZM18.0181 3.91698L18.0118 3.91359L18.0144 3.89646L18.4369 3.81299L18.4477 3.82342C18.4456 3.83744 18.4423 3.85046 18.4378 3.86249L18.4195 3.86754L18.4175 3.88432L18.4254 3.8888C18.3602 4.00025 18.1794 4.0024 18.019 3.91745L18.0438 3.91237C18.2123 3.9973 18.3955 3.97864 18.4271 3.83412L18.4404 3.83141L18.4296 3.82063C18.4289 3.82524 18.4281 3.82974 18.4271 3.83412L18.0438 3.91237C18.0361 3.90845 18.0283 3.90431 18.0206 3.89995L18.0181 3.91698ZM18.0181 3.91698L18.019 3.91745L18.018 3.91765L18.0181 3.91698ZM18.4338 3.87236C18.432 3.8764 18.4301 3.88032 18.428 3.88411L18.4247 3.88512L18.4267 3.86834L18.4338 3.87236Z"
          fill="black"/>
    <path fill-rule="evenodd" clip-rule="evenodd"
          d="M16.8777 3.20129C16.9054 3.18658 16.9192 3.18242 16.9502 3.17649C16.958 3.17501 16.9627 3.17397 16.9677 3.1725C16.9874 3.1668 17.0043 3.15582 17.0269 3.1328C17.04 3.11937 17.0539 3.10579 17.0683 3.09217L17.5859 2.79583C17.6109 2.81976 17.6394 2.82615 17.6826 2.80997C17.7132 2.79844 17.7286 2.77616 17.7346 2.74408C17.7363 2.73493 17.7369 2.72906 17.7382 2.71218L17.7385 2.70851L17.7907 2.67861C17.8013 2.6779 17.8122 2.67769 17.8235 2.67797L17.824 2.65955L17.7907 2.67861C17.7754 2.67963 17.7607 2.68169 17.7458 2.68484L17.745 2.68501L17.7434 2.66653L17.7223 2.68942L17.7412 2.66781L17.7432 2.66656C17.7404 2.66683 17.738 2.66735 17.7358 2.66817C17.713 2.67339 17.6891 2.68108 17.6583 2.69274C17.638 2.70044 17.5503 2.73575 17.5512 2.7354C17.4152 2.78935 17.1733 2.959 17.0205 3.11306L16.9473 3.15829L16.9468 3.15838C16.9141 3.16463 16.8987 3.16926 16.8691 3.185L16.8777 3.20129ZM16.9559 3.15653L16.9473 3.15829L16.8777 3.20129L16.9559 3.15653ZM17.0052 3.12828L17.0138 3.11989L17.0205 3.11306L17.0967 3.06599C17.087 3.07472 17.0775 3.08345 17.0683 3.09217L17.0052 3.12828ZM17.544 2.75833C17.4266 2.80901 17.2395 2.93707 17.0967 3.06599L17.5676 2.77503L17.575 2.784L17.5767 2.78597C17.5797 2.78953 17.5828 2.79282 17.5859 2.79583L17.603 2.78604C17.6219 2.80179 17.6429 2.80461 17.6763 2.7921C17.7002 2.7831 17.7117 2.76647 17.7166 2.74044C17.7178 2.73399 17.7184 2.72922 17.7192 2.71955L17.7385 2.70851C17.74 2.69049 17.7417 2.68577 17.7451 2.68547L17.745 2.68501L17.7316 2.68758L17.7247 2.6889L17.7223 2.68942C17.7233 2.68437 17.7245 2.68031 17.7262 2.67708L17.7412 2.66781L17.7421 2.6668L17.7358 2.66817C17.7315 2.66981 17.7284 2.67266 17.7262 2.67708L17.6862 2.7018C17.6683 2.70868 17.6412 2.71945 17.5976 2.73678L17.5976 2.73678L17.5976 2.73678L17.5684 2.7484C17.5588 2.7404 17.5489 2.73825 17.5376 2.74353L17.544 2.75833ZM17.5836 2.76513L17.5676 2.77503C17.5644 2.77112 17.5612 2.76733 17.5598 2.76592C17.5537 2.75971 17.5502 2.75852 17.5451 2.76088L17.544 2.75833L17.558 2.75254L17.5684 2.7484L17.5727 2.75237C17.5748 2.7545 17.5796 2.76021 17.5836 2.76513ZM17.5836 2.76513L17.59 2.77282L17.59 2.77282L17.5904 2.77334C17.5946 2.77822 17.5988 2.78246 17.603 2.78604L17.7192 2.71955L17.7199 2.71071C17.7205 2.7022 17.7213 2.69517 17.7223 2.68942C17.7151 2.69108 17.7068 2.69383 17.6862 2.7018L17.5836 2.76513ZM17.0052 3.12828L16.9559 3.15653L16.9626 3.15479C16.9766 3.15073 16.9891 3.14337 17.0052 3.12828ZM20.848 3.63805L20.8395 3.6412L20.8332 3.62391L20.8479 3.61846C20.8484 3.62476 20.8484 3.6313 20.848 3.63805ZM20.778 3.80166C20.8059 3.76756 20.8317 3.71883 20.8425 3.67447C20.8455 3.66176 20.8474 3.64959 20.848 3.63805C21.2488 3.48958 21.4725 3.3941 21.7413 3.23858C21.8803 3.15821 22.0094 3.0714 22.1285 2.97678L22.1171 2.96233C21.9987 3.05637 21.8704 3.14268 21.7322 3.22261C21.4658 3.37666 21.2439 3.47164 20.8479 3.61846C20.845 3.58106 20.827 3.55193 20.7924 3.53495C21.143 3.42073 21.4708 3.26699 21.5964 3.14342L21.5835 3.13026C21.4576 3.25412 21.1207 3.41057 20.764 3.52473L20.764 3.52472L20.764 3.52474C20.6593 3.55825 20.5529 3.58812 20.4496 3.61245C20.4256 3.60089 20.3965 3.59109 20.3621 3.58325C20.1428 3.53314 19.8125 3.58615 19.6106 3.70279C19.5834 3.69592 19.5564 3.6896 19.5299 3.68395C19.5912 3.62918 19.6234 3.55891 19.5984 3.49291L19.5812 3.49946C19.6319 3.63328 19.4074 3.79507 19.2148 3.75862L19.2114 3.77673C19.3177 3.79685 19.4333 3.76005 19.5119 3.69898C19.6091 3.71906 19.7155 3.74869 19.8107 3.78209L19.8109 3.78337L19.8132 3.78297C19.925 3.82233 20.0211 3.86684 20.0683 3.90709C20.123 3.95348 20.1518 3.99474 20.15 4.02626C20.1481 4.06085 20.1082 4.08747 20.023 4.1026C19.9169 4.12153 19.8488 4.12629 19.7542 4.11596L19.6992 4.10543L19.6986 4.10867C19.6635 4.10342 19.6242 4.09652 19.5784 4.08792C19.4482 3.99585 19.2484 3.90531 19.0421 3.83412L19.0361 3.85155C19.2394 3.92168 19.4368 4.01109 19.5652 4.10109L19.5646 4.10406L19.5711 4.10529C19.6078 4.13143 19.6385 4.1576 19.6618 4.18333C19.7182 4.24581 19.711 4.28727 19.6492 4.31117C19.5881 4.33476 19.4796 4.33742 19.3552 4.31859C19.1213 4.28306 18.733 4.08375 18.5357 3.90704L18.5235 3.92079C18.6427 4.02755 18.8301 4.14215 19.0124 4.22489L19.0118 4.22545C19.0568 4.27088 19.0986 4.33708 19.1173 4.39733C19.1348 4.4538 19.1121 4.48138 19.0605 4.47727C18.9911 4.47196 18.94 4.45991 18.8731 4.428L18.8705 4.43365C18.8385 4.39695 18.7954 4.36196 18.7411 4.33221C18.5927 4.25087 18.3994 4.07996 18.3095 3.9546L18.2946 3.96537C18.3861 4.09297 18.5815 4.26573 18.7322 4.34839C18.9028 4.4418 18.9551 4.58518 18.9031 4.66097C18.8571 4.72802 18.7038 4.73681 18.5509 4.64574C18.3682 4.53676 18.1571 4.19039 18.1288 3.94639L18.1105 3.94852C18.1395 4.19806 18.3537 4.54958 18.5415 4.66159C18.5721 4.67981 18.6028 4.69421 18.6329 4.70505C18.6467 4.74349 18.6525 4.79143 18.6489 4.86634C18.6445 4.96026 18.5757 5.02371 18.4916 4.99191C18.4087 4.96055 18.3447 4.89083 18.3019 4.80414L18.2855 4.81233C18.3302 4.90282 18.3972 4.9759 18.4852 5.00915C18.5082 5.01789 18.5303 5.02041 18.5507 5.01777C18.6003 5.12341 18.6276 5.20091 18.6241 5.22912C18.6189 5.27162 18.6078 5.28458 18.569 5.27553L18.5649 5.29349C18.6169 5.30562 18.636 5.28328 18.6423 5.23137C18.6464 5.19858 18.6194 5.12123 18.5691 5.01385C18.5794 5.01076 18.5892 5.00628 18.5982 5.00056C18.6681 5.09319 18.7193 5.15919 18.7824 5.23552C18.8013 5.25841 18.8197 5.28021 18.8376 5.3008C18.9038 5.37726 18.9602 5.43492 19.0044 5.46943L19.0157 5.45488C18.9727 5.42128 18.917 5.36433 18.8515 5.28871C18.8337 5.26822 18.8154 5.24653 18.7965 5.22375C18.7337 5.14774 18.6827 5.08195 18.613 4.98961C18.6445 4.9625 18.6649 4.91863 18.6673 4.86721C18.6694 4.82195 18.6682 4.78592 18.6639 4.75561C18.846 4.96658 19.2737 5.36247 19.4011 5.43473L19.4101 5.41868C19.2798 5.34476 18.8233 4.92027 18.6569 4.71888L18.6566 4.7192L18.6546 4.71232C18.7613 4.74518 18.8569 4.73296 18.9041 4.68792C19.0108 4.82773 19.3434 5.02404 19.5149 5.05691L19.5184 5.03881C19.3499 5.00651 19.0174 4.80975 18.9165 4.67382L18.9182 4.67142C18.9494 4.62596 18.9481 4.56092 18.9133 4.49521C19.0345 4.59691 19.2384 4.74693 19.4272 4.87841L19.4377 4.86326C19.2361 4.72284 19.0168 4.56095 18.9008 4.46037C18.9538 4.48186 19.0003 4.49116 19.0591 4.49565C19.0864 4.49782 19.108 4.49192 19.1222 4.47916C19.2505 4.613 19.5804 4.88251 19.7114 4.94739L19.7195 4.93086C19.5901 4.86678 19.2592 4.59626 19.1336 4.46453C19.1432 4.44681 19.1442 4.42214 19.1348 4.39185C19.119 4.34086 19.0877 4.28631 19.0516 4.24223C19.1611 4.28935 19.2668 4.3238 19.3524 4.33681C19.3782 4.34072 19.4034 4.34372 19.4276 4.34582L19.4264 4.34722C19.5877 4.49054 19.8867 4.6867 20.0621 4.77054L20.07 4.7539C19.9019 4.67356 19.6183 4.48848 19.455 4.34782C19.5038 4.35074 19.5483 4.34974 19.5861 4.34482C19.6361 4.38534 19.7288 4.44211 19.8618 4.51598L19.9156 4.54554C19.961 4.57032 20.07 4.62862 20.1378 4.66486L20.138 4.66496L20.1381 4.66501L20.1381 4.66503L20.1942 4.69502L20.2029 4.67881L20.1467 4.64872C20.0789 4.61249 19.9697 4.55411 19.9243 4.52935L19.8707 4.49985C19.7497 4.43268 19.6623 4.3797 19.6109 4.34084C19.6276 4.3376 19.6426 4.33344 19.6558 4.32838C19.6694 4.32312 19.6808 4.31692 19.6901 4.30986C20.03 4.52481 20.2465 4.63825 20.4678 4.68978L20.472 4.67182C20.2542 4.62112 20.0398 4.50898 19.7038 4.29678C19.7204 4.27684 19.723 4.25189 19.7107 4.22319C19.7493 4.23867 19.7948 4.25768 19.8525 4.28237L19.9997 4.34572L20.0418 4.36387L20.0788 4.37972C20.2908 4.47032 20.4239 4.52199 20.5152 4.5455L20.5197 4.52765C20.4297 4.50446 20.2971 4.45297 20.086 4.36276L20.0491 4.34692L20.007 4.32879L19.8597 4.26541C19.7912 4.23611 19.7399 4.21477 19.6968 4.19782L19.6967 4.19793C19.6908 4.1892 19.6837 4.18019 19.6754 4.17095C19.6579 4.15169 19.6366 4.13227 19.6119 4.11284C19.6662 4.12266 19.7111 4.12976 19.7513 4.13419C20.1022 4.20269 20.441 4.29272 20.5238 4.36392L20.5357 4.34992C20.4587 4.28364 20.181 4.20483 19.8697 4.13935C19.9174 4.13777 19.9658 4.13152 20.0262 4.12075C20.0767 4.11179 20.1136 4.09839 20.1372 4.08067L20.1373 4.08196C20.1514 4.08052 20.1653 4.07891 20.1789 4.07714C20.3377 4.14583 20.5925 4.16463 20.7156 4.10547C20.7543 4.18285 20.6943 4.2994 20.6251 4.32159L20.6307 4.33914C20.6689 4.32692 20.7039 4.2909 20.7252 4.247C20.9059 4.28927 21.3121 4.29742 21.509 4.25407L21.5052 4.23544C21.3122 4.27792 20.9127 4.2702 20.7329 4.22925C20.7407 4.20859 20.7455 4.18676 20.7461 4.1652C21.0161 4.18968 21.3411 4.16929 21.5068 4.08997L21.4991 4.07268C21.3367 4.15042 21.0129 4.17053 20.7456 4.14603C20.744 4.12888 20.7396 4.1122 20.7318 4.09676L20.7378 4.09297C20.7587 4.07917 20.7758 4.06379 20.7893 4.04745C21.1216 3.99967 21.3666 3.92243 21.5902 3.81031C21.6386 3.78604 21.7399 3.72891 21.8218 3.68273C21.8762 3.65201 21.9221 3.62614 21.938 3.61802C21.9672 3.6032 21.9945 3.59064 22.0213 3.5798L22.0144 3.5627C21.9871 3.57375 21.9593 3.58653 21.9297 3.60157C21.9134 3.60988 21.8669 3.63612 21.8119 3.66714C21.7302 3.71323 21.6298 3.76986 21.582 3.79382C21.3641 3.90309 21.1256 3.97898 20.8041 4.02665C20.8191 4.00224 20.8266 3.9764 20.8269 3.95094C21.3856 3.81051 21.8695 3.60105 22.1948 3.33327L22.1832 3.31902C21.861 3.58425 21.3807 3.79239 20.8258 3.93221C20.8207 3.89188 20.7972 3.85371 20.7565 3.82523C21.0516 3.76206 21.2455 3.67538 21.6192 3.46671L21.6436 3.45307C21.7496 3.39383 21.8069 3.36261 21.8729 3.32873L21.8645 3.31232C21.7983 3.34632 21.7409 3.37762 21.6346 3.43697L21.6102 3.4506C21.249 3.65238 21.0569 3.73939 20.778 3.80166ZM20.756 3.82493C20.7633 3.81838 20.7707 3.81052 20.778 3.80166L20.7515 3.80744L20.7551 3.82431L20.7459 3.81832L20.7363 3.83404L20.7412 3.83713C20.5824 3.96396 20.4257 4.03896 20.2155 4.0719C20.2052 4.06813 20.1952 4.06416 20.1857 4.06L20.1784 4.07692L20.1789 4.07714C20.1912 4.07553 20.2034 4.07378 20.2155 4.0719C20.3809 4.13273 20.6282 4.14336 20.7277 4.07758C20.8334 4.00771 20.8329 3.89725 20.7412 3.83713L20.7509 3.82927L20.7554 3.82546L20.7565 3.82523L20.756 3.82493ZM20.756 3.82493L20.7551 3.82431L20.7554 3.82547L20.7554 3.82546L20.756 3.82493ZM20.8258 3.93221L20.812 3.93567L20.8165 3.95356L20.8269 3.95094C20.827 3.94466 20.8266 3.93841 20.8258 3.93221ZM20.8041 4.02665L20.7798 4.03018L20.7824 4.04843L20.7893 4.04745C20.7949 4.04067 20.7998 4.03372 20.8041 4.02665ZM20.7456 4.14603C20.7461 4.15237 20.7463 4.15877 20.7461 4.1652L20.736 4.16426L20.7376 4.14529L20.7456 4.14603ZM20.7329 4.22925L20.7225 4.2268L20.7183 4.24533L20.7252 4.247C20.728 4.24121 20.7306 4.23528 20.7329 4.22925ZM20.7318 4.09676C20.7267 4.09983 20.7213 4.10274 20.7156 4.10547L20.7124 4.09966L20.7283 4.09036L20.7318 4.09676ZM20.1564 4.06133L20.1355 4.06363L20.1372 4.08067C20.1451 4.07471 20.1515 4.06826 20.1564 4.06133ZM20.115 3.92525C20.1512 3.96251 20.17 3.99677 20.1684 4.02727C20.1677 4.03969 20.1637 4.05104 20.1564 4.06133C20.3969 4.03337 20.5659 3.95581 20.7394 3.81494C20.7731 3.78748 20.8114 3.72484 20.8246 3.67012C20.8402 3.60576 20.8223 3.56069 20.7645 3.54395L20.7924 3.53495C20.784 3.5308 20.7745 3.52737 20.764 3.52473L20.764 3.52474L20.7595 3.5426L20.7645 3.54395C20.6677 3.5748 20.5695 3.60252 20.4737 3.62565C20.4664 3.62103 20.4583 3.61662 20.4496 3.61245L20.4491 3.61259L20.4532 3.63053L20.4737 3.62565C20.5076 3.64691 20.5276 3.67283 20.5342 3.70255C20.5439 3.74667 20.5222 3.79528 20.4823 3.83297C20.4141 3.89747 20.2672 3.93531 20.115 3.92525ZM20.0939 3.90504L20.0918 3.90483L20.09 3.92317C20.0983 3.92401 20.1067 3.9247 20.115 3.92525C20.1085 3.91861 20.1015 3.91187 20.0939 3.90504ZM19.8506 3.77687C19.9509 3.81407 20.0357 3.85509 20.0802 3.89302L20.0939 3.90504C20.2493 3.9202 20.4025 3.88313 20.4697 3.81955C20.5053 3.78589 20.5244 3.74332 20.5162 3.70655C20.5061 3.66072 20.4555 3.62349 20.3581 3.60122C20.1492 3.55351 19.8356 3.60162 19.6364 3.70946L19.6106 3.70279L19.6059 3.7055L19.6152 3.7214C19.6221 3.71734 19.6292 3.71336 19.6364 3.70946C19.6965 3.72535 19.757 3.74377 19.8137 3.76358L19.8079 3.76458L19.8107 3.78209L19.8132 3.78297C19.8249 3.78094 19.8375 3.7789 19.8506 3.77687ZM19.8506 3.77687C19.9987 3.75398 20.2286 3.73169 20.3476 3.73169V3.71264C20.2179 3.71264 19.959 3.73875 19.8137 3.76358C19.8262 3.76794 19.8385 3.77238 19.8506 3.77687ZM19.8697 4.13935C19.8317 4.1406 19.7942 4.13891 19.7513 4.13419L19.6958 4.12355L19.6986 4.10867C19.7183 4.11162 19.7367 4.11405 19.7542 4.11596C19.793 4.12352 19.8316 4.13134 19.8697 4.13935ZM19.6967 4.19793L19.6901 4.21498L19.7107 4.22319C19.7072 4.21506 19.7026 4.20663 19.6967 4.19793ZM19.7038 4.29678C19.7 4.30142 19.6954 4.30578 19.6901 4.30986L19.6843 4.30622L19.6941 4.29063L19.7038 4.29678ZM19.6109 4.34084C19.6054 4.33667 19.6003 4.33266 19.5956 4.32882L19.584 4.34308L19.5861 4.34482C19.5947 4.34369 19.603 4.34237 19.6109 4.34084ZM19.455 4.34782C19.446 4.34729 19.4369 4.34662 19.4276 4.34582L19.4386 4.33342L19.455 4.34782ZM19.1336 4.46453L19.1287 4.45929L19.1153 4.47193L19.1222 4.47916C19.1268 4.475 19.1306 4.47011 19.1336 4.46453ZM18.8876 4.45484L18.9008 4.46037C18.8917 4.45247 18.8832 4.44495 18.8754 4.43784L18.8747 4.43861L18.8705 4.43365L18.8652 4.44465L18.868 4.44597L18.863 4.45147C18.8775 4.46471 18.8944 4.47937 18.9133 4.49521C18.9061 4.48172 18.8976 4.46821 18.8876 4.45484ZM18.8876 4.45484C18.8812 4.45206 18.8747 4.44911 18.868 4.44597L18.8747 4.43861C18.8792 4.44399 18.8835 4.4494 18.8876 4.45484ZM18.9165 4.67382C18.9129 4.67882 18.9087 4.68353 18.9041 4.68792C18.9013 4.68427 18.8987 4.68065 18.8962 4.67708L18.9113 4.66657L18.9165 4.67382ZM18.6566 4.7192C18.6596 4.73046 18.662 4.7425 18.6639 4.75561C18.6564 4.74697 18.6494 4.73864 18.6428 4.73065L18.6566 4.7192ZM18.613 4.98961L18.6075 4.98235L18.5929 4.99347L18.5982 5.00056C18.6034 4.9973 18.6083 4.99364 18.613 4.98961ZM18.5691 5.01385L18.5629 5.00066L18.5463 5.00859L18.5507 5.01777C18.557 5.01695 18.5632 5.01563 18.5691 5.01385ZM18.6546 4.71232C18.6474 4.7101 18.6402 4.70768 18.6329 4.70505L18.6319 4.70235L18.6491 4.69586C18.6511 4.70118 18.6529 4.70665 18.6546 4.71232ZM19.0516 4.24223C19.0386 4.23662 19.0255 4.23084 19.0124 4.22489L19.0248 4.21247C19.0339 4.22165 19.0429 4.23164 19.0516 4.24223ZM19.6119 4.11284C19.6014 4.10453 19.5902 4.09622 19.5784 4.08792L19.568 4.08595L19.5652 4.10109L19.5711 4.10529L19.6119 4.11284ZM19.5119 3.69898C19.5181 3.69412 19.5242 3.6891 19.5299 3.68395L19.5074 3.67926L19.5038 3.69733L19.5119 3.69898ZM18.3908 3.51217C18.3137 3.53406 18.2706 3.5562 18.1895 3.60834L18.1992 3.62453C18.2789 3.57327 18.3207 3.55185 18.3956 3.53054L18.3908 3.51217ZM18.7488 3.89275C18.9603 4.01274 19.2445 4.14761 19.4418 4.21929L19.4481 4.20196C19.2518 4.13065 18.9684 3.99622 18.7578 3.8767L18.7488 3.89275ZM19.5176 3.90317C19.365 3.87168 19.2333 3.85107 19.1005 3.83951L19.102 3.82114C19.2356 3.83277 19.3681 3.85349 19.5213 3.88511C19.5827 3.8978 19.6462 3.9119 19.7275 3.93071L19.8044 3.94864L19.9397 3.98016L19.9356 3.99813L19.8002 3.96658L19.7234 3.94868C19.6422 3.92989 19.5789 3.91582 19.5176 3.90317ZM18.2021 3.96695C18.2394 4.07963 18.5037 4.41141 18.6284 4.49004L18.6381 4.47444C18.5171 4.39805 18.2555 4.0697 18.2195 3.96114L18.2021 3.96695ZM18.4342 4.76567C18.393 4.66493 18.1374 4.28329 18.0006 4.10343L18.0152 4.09224C18.153 4.27344 18.4091 4.65588 18.4512 4.75867L18.4342 4.76567ZM18.3697 3.94101C18.455 4.03803 18.7344 4.25139 18.8617 4.30283L18.8686 4.28573C18.7442 4.23546 18.467 4.02382 18.3835 3.92881L18.3697 3.94101ZM17.8506 2.90708C17.7992 2.93381 17.7617 2.9729 17.7307 3.02733L17.7465 3.037C17.7758 2.98556 17.8108 2.94908 17.8588 2.92411L17.8506 2.90708ZM16.9967 3.50929C16.9917 3.43991 16.9988 3.34958 17.0177 3.2847L17.0353 3.28985C17.0171 3.35245 17.0101 3.44062 17.0151 3.50795L16.9967 3.50929ZM17.0093 3.6236C16.9943 3.68792 17.0054 3.83759 17.026 3.92036L17.0438 3.9159C17.0239 3.83572 17.013 3.68877 17.0272 3.62781L17.0093 3.6236ZM17.0742 4.11863C17.0657 4.10506 17.0593 4.09227 17.0551 4.08026L17.0724 4.07383C17.076 4.0843 17.0818 4.09582 17.0896 4.10824C17.0994 4.1238 17.112 4.14036 17.1272 4.15807C17.1398 4.17271 17.15 4.18371 17.1696 4.20412L17.1566 4.21755C17.1368 4.19691 17.1264 4.18571 17.1135 4.17073C17.0977 4.15237 17.0846 4.13509 17.0742 4.11863ZM17.1457 3.73357C17.1373 3.8405 17.196 4.04344 17.2556 4.11225C17.2687 4.22608 17.3476 4.38899 17.459 4.50127L17.472 4.48827C17.3635 4.37888 17.2864 4.21971 17.2717 4.10502C17.2132 4.03527 17.156 3.83723 17.164 3.73502L17.1457 3.73357ZM17.1209 3.61439C17.1114 3.54682 17.1092 3.47905 17.1169 3.43599L17.135 3.43925C17.1277 3.47999 17.1299 3.54602 17.1391 3.61182L17.1209 3.61439ZM17.2789 3.01632C17.2423 3.10868 17.2219 3.30412 17.2328 3.38041C17.2349 3.39502 17.2346 3.39872 17.2281 3.46008C17.2164 3.57199 17.221 3.65686 17.258 3.76649L17.2754 3.76058C17.2394 3.65387 17.2349 3.5715 17.2464 3.46201C17.2531 3.39787 17.2534 3.39476 17.251 3.37781C17.2405 3.30461 17.2606 3.11242 17.296 3.02313L17.2789 3.01632ZM17.4071 3.72442C17.3679 3.59281 17.3665 3.27676 17.407 3.10954L17.4248 3.11389C17.3851 3.27806 17.3865 3.5908 17.4247 3.71914L17.4071 3.72442ZM17.3571 3.77406C17.335 3.87223 17.3373 3.98589 17.3657 4.07143L17.3831 4.0656C17.3559 3.98345 17.3536 3.87318 17.375 3.77813L17.3571 3.77406ZM17.6905 3.62344C17.5804 3.50048 17.5138 3.31714 17.5183 3.174L17.5367 3.17458C17.5323 3.31298 17.5973 3.49169 17.7042 3.61112L17.6905 3.62344ZM17.4894 3.63333C17.4767 3.79215 17.4858 3.93804 17.5147 4.02139C17.5221 4.0429 17.5274 4.06904 17.5347 4.11693L17.5419 4.16357C17.5448 4.18194 17.5474 4.19741 17.5503 4.21224C17.5641 4.28456 17.5823 4.33777 17.6112 4.37891L17.6262 4.3683C17.5992 4.32975 17.5817 4.27873 17.5683 4.20876C17.5655 4.19416 17.5629 4.17888 17.56 4.16069L17.5529 4.11412C17.5454 4.06512 17.54 4.03826 17.532 4.01534C17.5041 3.93487 17.4952 3.7913 17.5077 3.6348L17.4894 3.63333ZM17.6374 3.89227L17.6305 3.86616L17.6482 3.86143L17.6551 3.88765C17.6647 3.9246 17.6703 3.95245 17.6729 3.98026C17.6767 4.02041 17.6731 4.05506 17.6603 4.08469L17.6434 4.07734C17.6549 4.05094 17.6582 4.01929 17.6547 3.98199C17.6522 3.95536 17.6467 3.92835 17.6374 3.89227ZM17.7383 3.74533C17.7688 3.84572 17.7878 3.96854 17.7834 4.02192L17.8017 4.02343C17.8063 3.96737 17.787 3.84238 17.7558 3.73995L17.7383 3.74533ZM17.8675 4.55776C17.8296 4.49124 17.7954 4.38498 17.7875 4.29921L17.8058 4.29753C17.8134 4.38062 17.8469 4.48435 17.8834 4.54862L17.8675 4.55776ZM17.6513 4.55196C17.686 4.6565 17.7455 4.76443 17.7994 4.80698L17.8107 4.7925C17.7604 4.75272 17.7024 4.64755 17.6687 4.54614L17.6513 4.55196ZM18.1608 4.84459C18.124 4.7332 18.0999 4.67908 18.0418 4.5963L18.0568 4.58569C18.1161 4.67023 18.1409 4.72583 18.1782 4.83879L18.1608 4.84459Z"
          fill="black"/>
    <path fill-rule="evenodd" clip-rule="evenodd"
          d="M17.3694 4.6209C17.3808 4.62212 17.3879 4.62258 17.4076 4.62356C17.4534 4.62585 17.4695 4.63051 17.4901 4.65234C17.5037 4.66673 17.5171 4.68849 17.5317 4.72015C17.5825 4.83065 17.7214 4.99956 17.8026 5.05226L17.8025 5.05229C17.91 5.24144 17.9578 5.49111 17.9245 5.62521C17.9148 5.56635 17.8815 5.52104 17.83 5.48391C17.81 5.46946 17.7972 5.46212 17.7624 5.44358C17.7164 5.48383 17.6493 5.53014 17.6154 5.53738L17.6193 5.55541C17.6575 5.54724 17.7276 5.49884 17.7649 5.45794C17.7818 5.47275 17.793 5.48049 17.8054 5.48908L17.8193 5.49888C17.8673 5.53349 17.8978 5.57502 17.9064 5.62868L17.9243 5.62577L17.9232 5.63031L17.9409 5.63513C17.9766 5.50288 17.9334 5.25974 17.8319 5.06758C17.9571 5.12525 18.0371 5.19024 18.0528 5.2819L18.0702 5.28411L18.0792 5.26393C18.1209 5.16988 18.1368 5.10524 18.1209 5.03849L18.1225 5.04039L18.1372 5.05809C18.1832 5.11353 18.2171 5.15434 18.2422 5.18519L18.2405 5.18543C18.243 5.20298 18.2453 5.22972 18.2481 5.27049C18.2486 5.27777 18.2499 5.29885 18.2514 5.3228C18.2535 5.35535 18.2559 5.3932 18.2569 5.40897C18.2635 5.5058 18.2701 5.57031 18.2791 5.61239L18.2971 5.60852C18.2883 5.56761 18.2818 5.50365 18.2753 5.40771C18.2742 5.39201 18.2718 5.35426 18.2697 5.32175C18.2682 5.29773 18.2669 5.27657 18.2664 5.26925C18.2647 5.24463 18.2632 5.22506 18.2617 5.20943C18.3009 5.25853 18.3111 5.27572 18.3164 5.29431C18.318 5.29989 18.3191 5.30559 18.3205 5.31232L18.3205 5.31232L18.322 5.31984C18.3373 5.39313 18.3962 5.49364 18.4553 5.55821L18.4688 5.54574C18.4118 5.48341 18.3545 5.38569 18.34 5.31606L18.338 5.3064L18.338 5.3064C18.3366 5.29911 18.3354 5.29297 18.3337 5.28697C18.3245 5.25491 18.3012 5.22688 18.1536 5.04909L18.1366 5.02859C18.124 5.01348 18.1127 4.99964 18.102 4.98628L18.0865 4.9959C18.1231 5.07557 18.1128 5.14178 18.0644 5.25188C18.0372 5.16407 17.9535 5.10199 17.8296 5.04631C17.758 5.01421 17.6019 4.82871 17.5484 4.71243C17.533 4.67909 17.5186 4.65572 17.5034 4.63966C17.4787 4.61348 17.4586 4.60766 17.4086 4.60515C17.3892 4.60419 17.3823 4.60375 17.3713 4.60257L17.3694 4.6209ZM18.2617 5.20943C18.2607 5.19889 18.2597 5.19014 18.2587 5.18284L18.2422 5.18519C18.2494 5.19405 18.2559 5.2021 18.2617 5.20943ZM17.9243 5.62577L17.9246 5.62573L17.9245 5.62521L17.9243 5.62577ZM17.8319 5.06758L17.8221 5.06314C17.8161 5.06044 17.8095 5.05677 17.8026 5.05226L17.8185 5.04316C17.8231 5.0512 17.8275 5.05934 17.8319 5.06758ZM17.4982 4.90029C17.5304 4.99755 17.5559 5.11432 17.5585 5.1819L17.5769 5.18119C17.5742 5.1116 17.5483 4.99324 17.5156 4.89447L17.4982 4.90029ZM17.7765 5.37976C17.7736 5.3252 17.7394 5.18234 17.7053 5.08716L17.7226 5.08093C17.7572 5.17766 17.7919 5.32216 17.7948 5.37878L17.7765 5.37976ZM18.0974 5.34654C18.124 5.411 18.1409 5.51277 18.1355 5.57341L18.1538 5.57505C18.1595 5.51136 18.1421 5.40662 18.1143 5.33947L18.0974 5.34654Z"
          fill="black"/>
  </g>
</svg>
