<?xml version="1.0" encoding="iso-8859-1"?>
<svg width="35px" height="35px" version="1.1" id="Capa_1" xmlns="http://www.w3.org/2000/svg" xmlns:xlink="http://www.w3.org/1999/xlink" x="0px" y="0px"
	 viewBox="0 0 512 512" style="enable-background:new 0 0 512 512;" xml:space="preserve">
<circle style="fill:#005ECE;" cx="256" cy="256" r="256"/>
<path style="fill:#00479B;" d="M325.794,122.435h86.032l97.716,97.948C511.163,232.023,512,243.913,512,256
	c0,141.384-114.615,256-256,256L100.174,356.174V122.435h157.585c1.053-4.411,1.928-9.025,2.618-13.823
	c1.792-12.471,13.357-21.127,25.824-19.334c5.21,0.749,9.754,3.203,13.148,6.716L325.794,122.435z"/>
<polygon style="fill:#57A4FF;" points="411.826,122.435 411.826,356.174 244.441,356.174 178.087,422.957 178.087,356.174 
	100.174,356.174 100.174,122.435 "/>
<rect x="256" y="122.435" style="fill:#2488FF;" width="155.826" height="233.739"/>
<g>
	<path style="fill:#FFC477;" d="M338.948,199.788h-33.18v-33.18h33.18c9.125,0,16.59,7.465,16.59,16.59l0,0
		C355.538,192.323,348.072,199.788,338.948,199.788z"/>
	<path style="fill:#FFC477;" d="M338.948,232.967h-33.18v-33.18h33.18c9.125,0,16.59,7.465,16.59,16.59l0,0
		C355.538,225.501,348.072,232.967,338.948,232.967z"/>
</g>
<g>
	<path style="fill:#FFB655;" d="M330.653,266.146h-24.884v-33.18h24.884c9.125,0,16.59,7.465,16.59,16.59l0,0
		C347.243,258.681,339.778,266.146,330.653,266.146z"/>
	<path style="fill:#FFB655;" d="M305.769,266.146h16.59c9.125,0,16.59,7.465,16.59,16.59l0,0c0,9.125-7.465,16.59-16.59,16.59
		h-16.59V266.146z"/>
</g>
<path style="fill:#FFDAAA;" d="M290.272,166.608c7.346-14.844,12.466-32.049,15.262-51.506c1.792-12.471-6.864-24.032-19.334-25.824
	c-12.467-1.793-24.032,6.863-25.824,19.334c-3.207,22.312-10.425,40.654-20.873,53.042c-1.75,2.075-3.439,3.802-5.014,5.255
	c-20.584,2.435-36.552,19.935-36.552,41.174v49.769c0,22.905,18.569,41.474,41.474,41.474h82.948V166.608H290.272z"/>
<path style="fill:#FFC477;" d="M197.936,232.967v24.884c0,22.905,18.569,41.474,41.474,41.474h82.948v-66.359L197.936,232.967
	L197.936,232.967z"/>
<rect x="156.461" y="166.611" style="fill:#FFFFFF;" width="49.769" height="132.719"/>
<rect x="156.461" y="232.971" style="fill:#E1E3FA;" width="49.769" height="66.36"/>
</svg>
